ISO-10303-21;
HEADER;
/* Generated by software containing ST-Developer
 * from STEP Tools, Inc. (www.steptools.com) 
 */

FILE_DESCRIPTION(
/* description */ (''),
/* implementation_level */ '2;1');

FILE_NAME(
/* name */ 'SoleMount.step',
/* time_stamp */ '2026-08-13T12:52:53-04:00',
/* author */ (''),
/* organization */ (''),
/* preprocessor_version */ 'ST-DEVELOPER v20.1',
/* originating_system */ 'Autodesk Translation Framework v15.8.0.0',
/* authorisation */ '');

FILE_SCHEMA (('AUTOMOTIVE_DESIGN { 1 0 10303 214 3 1 1 }'));
ENDSEC;

DATA;
#10=MECHANICAL_DESIGN_GEOMETRIC_PRESENTATION_REPRESENTATION('',(#17),#485);
#11=ITEM_DEFINED_TRANSFORMATION($,$,#285,#316);
#12=(
REPRESENTATION_RELATIONSHIP($,$,#496,#495)
REPRESENTATION_RELATIONSHIP_WITH_TRANSFORMATION(#11)
SHAPE_REPRESENTATION_RELATIONSHIP()
);
#13=CONTEXT_DEPENDENT_SHAPE_REPRESENTATION(#12,#494);
#14=NEXT_ASSEMBLY_USAGE_OCCURRENCE('Foot:1','Foot:1','Foot:1',#498,#499,
'Foot:1');
#15=SHAPE_REPRESENTATION_RELATIONSHIP('SRR','None',#496,#16);
#16=ADVANCED_BREP_SHAPE_REPRESENTATION('',(#18),#484);
#17=STYLED_ITEM('',(#511),#18);
#18=MANIFOLD_SOLID_BREP('SoleMount (1)',#271);
#19=CONICAL_SURFACE('',#314,1.6,0.785398163397451);
#20=CONICAL_SURFACE('',#315,1.6,0.785398163397451);
#21=CYLINDRICAL_SURFACE('',#304,1.6);
#22=CYLINDRICAL_SURFACE('',#307,1.6);
#23=CYLINDRICAL_SURFACE('',#310,0.5);
#24=CYLINDRICAL_SURFACE('',#311,0.5);
#25=CYLINDRICAL_SURFACE('',#312,0.5);
#26=CYLINDRICAL_SURFACE('',#313,0.5);
#27=FACE_BOUND('',#46,.T.);
#28=FACE_BOUND('',#47,.T.);
#29=FACE_BOUND('',#49,.T.);
#30=FACE_BOUND('',#50,.T.);
#31=FACE_OUTER_BOUND('',#45,.T.);
#32=FACE_OUTER_BOUND('',#48,.T.);
#33=FACE_OUTER_BOUND('',#51,.T.);
#34=FACE_OUTER_BOUND('',#52,.T.);
#35=FACE_OUTER_BOUND('',#53,.T.);
#36=FACE_OUTER_BOUND('',#54,.T.);
#37=FACE_OUTER_BOUND('',#55,.T.);
#38=FACE_OUTER_BOUND('',#56,.T.);
#39=FACE_OUTER_BOUND('',#57,.T.);
#40=FACE_OUTER_BOUND('',#58,.T.);
#41=FACE_OUTER_BOUND('',#59,.T.);
#42=FACE_OUTER_BOUND('',#60,.T.);
#43=FACE_OUTER_BOUND('',#61,.T.);
#44=FACE_OUTER_BOUND('',#62,.T.);
#45=EDGE_LOOP('',(#179,#180,#181,#182,#183,#184,#185,#186));
#46=EDGE_LOOP('',(#187));
#47=EDGE_LOOP('',(#188));
#48=EDGE_LOOP('',(#189,#190,#191,#192,#193,#194,#195,#196));
#49=EDGE_LOOP('',(#197));
#50=EDGE_LOOP('',(#198));
#51=EDGE_LOOP('',(#199,#200,#201,#202));
#52=EDGE_LOOP('',(#203,#204,#205,#206));
#53=EDGE_LOOP('',(#207,#208,#209,#210));
#54=EDGE_LOOP('',(#211,#212,#213,#214));
#55=EDGE_LOOP('',(#215,#216,#217,#218,#219));
#56=EDGE_LOOP('',(#220,#221,#222,#223,#224));
#57=EDGE_LOOP('',(#225,#226,#227,#228));
#58=EDGE_LOOP('',(#229,#230,#231,#232));
#59=EDGE_LOOP('',(#233,#234,#235,#236));
#60=EDGE_LOOP('',(#237,#238,#239,#240));
#61=EDGE_LOOP('',(#241,#242,#243,#244,#245));
#62=EDGE_LOOP('',(#246,#247,#248,#249,#250));
#63=CIRCLE('',#287,0.5);
#64=CIRCLE('',#288,0.5);
#65=CIRCLE('',#289,0.5);
#66=CIRCLE('',#290,0.5);
#67=CIRCLE('',#291,3.10000000000001);
#68=CIRCLE('',#292,3.1);
#69=CIRCLE('',#294,0.5);
#70=CIRCLE('',#295,0.5);
#71=CIRCLE('',#296,0.5);
#72=CIRCLE('',#297,0.5);
#73=CIRCLE('',#298,1.6);
#74=CIRCLE('',#299,1.6);
#75=CIRCLE('',#305,1.6);
#76=CIRCLE('',#306,1.6);
#77=CIRCLE('',#308,1.6);
#78=CIRCLE('',#309,1.6);
#79=LINE('',#408,#99);
#80=LINE('',#412,#100);
#81=LINE('',#416,#101);
#82=LINE('',#420,#102);
#83=LINE('',#429,#103);
#84=LINE('',#433,#104);
#85=LINE('',#437,#105);
#86=LINE('',#441,#106);
#87=LINE('',#448,#107);
#88=LINE('',#449,#108);
#89=LINE('',#451,#109);
#90=LINE('',#452,#110);
#91=LINE('',#454,#111);
#92=LINE('',#455,#112);
#93=LINE('',#457,#113);
#94=LINE('',#458,#114);
#95=LINE('',#463,#115);
#96=LINE('',#469,#116);
#97=LINE('',#476,#117);
#98=LINE('',#478,#118);
#99=VECTOR('',#323,1000.);
#100=VECTOR('',#326,1000.);
#101=VECTOR('',#329,1000.);
#102=VECTOR('',#332,1000.);
#103=VECTOR('',#341,1000.);
#104=VECTOR('',#344,1000.);
#105=VECTOR('',#347,1000.);
#106=VECTOR('',#350,1000.);
#107=VECTOR('',#359,1000.);
#108=VECTOR('',#360,1000.);
#109=VECTOR('',#363,1000.);
#110=VECTOR('',#364,1000.);
#111=VECTOR('',#367,1000.);
#112=VECTOR('',#368,1000.);
#113=VECTOR('',#371,1000.);
#114=VECTOR('',#372,1000.);
#115=VECTOR('',#377,1.6);
#116=VECTOR('',#384,1.6);
#117=VECTOR('',#397,1.6);
#118=VECTOR('',#400,1.6);
#119=VERTEX_POINT('',#406);
#120=VERTEX_POINT('',#407);
#121=VERTEX_POINT('',#409);
#122=VERTEX_POINT('',#411);
#123=VERTEX_POINT('',#413);
#124=VERTEX_POINT('',#415);
#125=VERTEX_POINT('',#417);
#126=VERTEX_POINT('',#419);
#127=VERTEX_POINT('',#422);
#128=VERTEX_POINT('',#424);
#129=VERTEX_POINT('',#427);
#130=VERTEX_POINT('',#428);
#131=VERTEX_POINT('',#430);
#132=VERTEX_POINT('',#432);
#133=VERTEX_POINT('',#434);
#134=VERTEX_POINT('',#436);
#135=VERTEX_POINT('',#438);
#136=VERTEX_POINT('',#440);
#137=VERTEX_POINT('',#443);
#138=VERTEX_POINT('',#445);
#139=VERTEX_POINT('',#460);
#140=VERTEX_POINT('',#461);
#141=VERTEX_POINT('',#466);
#142=VERTEX_POINT('',#467);
#143=EDGE_CURVE('',#119,#120,#79,.T.);
#144=EDGE_CURVE('',#120,#121,#63,.T.);
#145=EDGE_CURVE('',#121,#122,#80,.T.);
#146=EDGE_CURVE('',#122,#123,#64,.T.);
#147=EDGE_CURVE('',#123,#124,#81,.T.);
#148=EDGE_CURVE('',#124,#125,#65,.T.);
#149=EDGE_CURVE('',#125,#126,#82,.T.);
#150=EDGE_CURVE('',#126,#119,#66,.T.);
#151=EDGE_CURVE('',#127,#127,#67,.T.);
#152=EDGE_CURVE('',#128,#128,#68,.T.);
#153=EDGE_CURVE('',#129,#130,#83,.T.);
#154=EDGE_CURVE('',#129,#131,#69,.T.);
#155=EDGE_CURVE('',#132,#131,#84,.T.);
#156=EDGE_CURVE('',#132,#133,#70,.T.);
#157=EDGE_CURVE('',#134,#133,#85,.T.);
#158=EDGE_CURVE('',#134,#135,#71,.T.);
#159=EDGE_CURVE('',#136,#135,#86,.T.);
#160=EDGE_CURVE('',#136,#130,#72,.T.);
#161=EDGE_CURVE('',#137,#137,#73,.T.);
#162=EDGE_CURVE('',#138,#138,#74,.T.);
#163=EDGE_CURVE('',#121,#129,#87,.T.);
#164=EDGE_CURVE('',#130,#122,#88,.T.);
#165=EDGE_CURVE('',#135,#124,#89,.T.);
#166=EDGE_CURVE('',#123,#136,#90,.T.);
#167=EDGE_CURVE('',#133,#126,#91,.T.);
#168=EDGE_CURVE('',#125,#134,#92,.T.);
#169=EDGE_CURVE('',#131,#120,#93,.T.);
#170=EDGE_CURVE('',#119,#132,#94,.T.);
#171=EDGE_CURVE('',#139,#140,#75,.T.);
#172=EDGE_CURVE('',#140,#138,#95,.T.);
#173=EDGE_CURVE('',#140,#139,#76,.T.);
#174=EDGE_CURVE('',#141,#142,#77,.T.);
#175=EDGE_CURVE('',#142,#137,#96,.T.);
#176=EDGE_CURVE('',#142,#141,#78,.T.);
#177=EDGE_CURVE('',#141,#127,#97,.T.);
#178=EDGE_CURVE('',#139,#128,#98,.T.);
#179=ORIENTED_EDGE('',*,*,#143,.T.);
#180=ORIENTED_EDGE('',*,*,#144,.T.);
#181=ORIENTED_EDGE('',*,*,#145,.T.);
#182=ORIENTED_EDGE('',*,*,#146,.T.);
#183=ORIENTED_EDGE('',*,*,#147,.T.);
#184=ORIENTED_EDGE('',*,*,#148,.T.);
#185=ORIENTED_EDGE('',*,*,#149,.T.);
#186=ORIENTED_EDGE('',*,*,#150,.T.);
#187=ORIENTED_EDGE('',*,*,#151,.T.);
#188=ORIENTED_EDGE('',*,*,#152,.T.);
#189=ORIENTED_EDGE('',*,*,#153,.F.);
#190=ORIENTED_EDGE('',*,*,#154,.T.);
#191=ORIENTED_EDGE('',*,*,#155,.F.);
#192=ORIENTED_EDGE('',*,*,#156,.T.);
#193=ORIENTED_EDGE('',*,*,#157,.F.);
#194=ORIENTED_EDGE('',*,*,#158,.T.);
#195=ORIENTED_EDGE('',*,*,#159,.F.);
#196=ORIENTED_EDGE('',*,*,#160,.T.);
#197=ORIENTED_EDGE('',*,*,#161,.T.);
#198=ORIENTED_EDGE('',*,*,#162,.T.);
#199=ORIENTED_EDGE('',*,*,#145,.F.);
#200=ORIENTED_EDGE('',*,*,#163,.T.);
#201=ORIENTED_EDGE('',*,*,#153,.T.);
#202=ORIENTED_EDGE('',*,*,#164,.T.);
#203=ORIENTED_EDGE('',*,*,#159,.T.);
#204=ORIENTED_EDGE('',*,*,#165,.T.);
#205=ORIENTED_EDGE('',*,*,#147,.F.);
#206=ORIENTED_EDGE('',*,*,#166,.T.);
#207=ORIENTED_EDGE('',*,*,#157,.T.);
#208=ORIENTED_EDGE('',*,*,#167,.T.);
#209=ORIENTED_EDGE('',*,*,#149,.F.);
#210=ORIENTED_EDGE('',*,*,#168,.T.);
#211=ORIENTED_EDGE('',*,*,#155,.T.);
#212=ORIENTED_EDGE('',*,*,#169,.T.);
#213=ORIENTED_EDGE('',*,*,#143,.F.);
#214=ORIENTED_EDGE('',*,*,#170,.T.);
#215=ORIENTED_EDGE('',*,*,#171,.T.);
#216=ORIENTED_EDGE('',*,*,#172,.T.);
#217=ORIENTED_EDGE('',*,*,#162,.F.);
#218=ORIENTED_EDGE('',*,*,#172,.F.);
#219=ORIENTED_EDGE('',*,*,#173,.T.);
#220=ORIENTED_EDGE('',*,*,#174,.T.);
#221=ORIENTED_EDGE('',*,*,#175,.T.);
#222=ORIENTED_EDGE('',*,*,#161,.F.);
#223=ORIENTED_EDGE('',*,*,#175,.F.);
#224=ORIENTED_EDGE('',*,*,#176,.T.);
#225=ORIENTED_EDGE('',*,*,#144,.F.);
#226=ORIENTED_EDGE('',*,*,#169,.F.);
#227=ORIENTED_EDGE('',*,*,#154,.F.);
#228=ORIENTED_EDGE('',*,*,#163,.F.);
#229=ORIENTED_EDGE('',*,*,#150,.F.);
#230=ORIENTED_EDGE('',*,*,#167,.F.);
#231=ORIENTED_EDGE('',*,*,#156,.F.);
#232=ORIENTED_EDGE('',*,*,#170,.F.);
#233=ORIENTED_EDGE('',*,*,#148,.F.);
#234=ORIENTED_EDGE('',*,*,#165,.F.);
#235=ORIENTED_EDGE('',*,*,#158,.F.);
#236=ORIENTED_EDGE('',*,*,#168,.F.);
#237=ORIENTED_EDGE('',*,*,#146,.F.);
#238=ORIENTED_EDGE('',*,*,#164,.F.);
#239=ORIENTED_EDGE('',*,*,#160,.F.);
#240=ORIENTED_EDGE('',*,*,#166,.F.);
#241=ORIENTED_EDGE('',*,*,#174,.F.);
#242=ORIENTED_EDGE('',*,*,#177,.T.);
#243=ORIENTED_EDGE('',*,*,#151,.F.);
#244=ORIENTED_EDGE('',*,*,#177,.F.);
#245=ORIENTED_EDGE('',*,*,#176,.F.);
#246=ORIENTED_EDGE('',*,*,#171,.F.);
#247=ORIENTED_EDGE('',*,*,#178,.T.);
#248=ORIENTED_EDGE('',*,*,#152,.F.);
#249=ORIENTED_EDGE('',*,*,#178,.F.);
#250=ORIENTED_EDGE('',*,*,#173,.F.);
#251=PLANE('',#286);
#252=PLANE('',#293);
#253=PLANE('',#300);
#254=PLANE('',#301);
#255=PLANE('',#302);
#256=PLANE('',#303);
#257=ADVANCED_FACE('',(#31,#27,#28),#251,.F.);
#258=ADVANCED_FACE('',(#32,#29,#30),#252,.T.);
#259=ADVANCED_FACE('',(#33),#253,.F.);
#260=ADVANCED_FACE('',(#34),#254,.F.);
#261=ADVANCED_FACE('',(#35),#255,.F.);
#262=ADVANCED_FACE('',(#36),#256,.F.);
#263=ADVANCED_FACE('',(#37),#21,.F.);
#264=ADVANCED_FACE('',(#38),#22,.F.);
#265=ADVANCED_FACE('',(#39),#23,.T.);
#266=ADVANCED_FACE('',(#40),#24,.T.);
#267=ADVANCED_FACE('',(#41),#25,.T.);
#268=ADVANCED_FACE('',(#42),#26,.T.);
#269=ADVANCED_FACE('',(#43),#19,.F.);
#270=ADVANCED_FACE('',(#44),#20,.F.);
#271=CLOSED_SHELL('',(#257,#258,#259,#260,#261,#262,#263,#264,#265,#266,
#267,#268,#269,#270));
#272=DERIVED_UNIT_ELEMENT(#274,1.);
#273=DERIVED_UNIT_ELEMENT(#487,-3.);
#274=(
MASS_UNIT()
NAMED_UNIT(*)
SI_UNIT(.KILO.,.GRAM.)
);
#275=DERIVED_UNIT((#272,#273));
#276=MEASURE_REPRESENTATION_ITEM('density measure',
POSITIVE_RATIO_MEASURE(7850.),#275);
#277=PROPERTY_DEFINITION_REPRESENTATION(#282,#279);
#278=PROPERTY_DEFINITION_REPRESENTATION(#283,#280);
#279=REPRESENTATION('material name',(#281),#484);
#280=REPRESENTATION('density',(#276),#484);
#281=DESCRIPTIVE_REPRESENTATION_ITEM('Steel','Steel');
#282=PROPERTY_DEFINITION('material property','material name',#499);
#283=PROPERTY_DEFINITION('material property','density of part',#499);
#284=AXIS2_PLACEMENT_3D('',#403,#317,#318);
#285=AXIS2_PLACEMENT_3D('',#404,#319,#320);
#286=AXIS2_PLACEMENT_3D('',#405,#321,#322);
#287=AXIS2_PLACEMENT_3D('',#410,#324,#325);
#288=AXIS2_PLACEMENT_3D('',#414,#327,#328);
#289=AXIS2_PLACEMENT_3D('',#418,#330,#331);
#290=AXIS2_PLACEMENT_3D('',#421,#333,#334);
#291=AXIS2_PLACEMENT_3D('',#423,#335,#336);
#292=AXIS2_PLACEMENT_3D('',#425,#337,#338);
#293=AXIS2_PLACEMENT_3D('',#426,#339,#340);
#294=AXIS2_PLACEMENT_3D('',#431,#342,#343);
#295=AXIS2_PLACEMENT_3D('',#435,#345,#346);
#296=AXIS2_PLACEMENT_3D('',#439,#348,#349);
#297=AXIS2_PLACEMENT_3D('',#442,#351,#352);
#298=AXIS2_PLACEMENT_3D('',#444,#353,#354);
#299=AXIS2_PLACEMENT_3D('',#446,#355,#356);
#300=AXIS2_PLACEMENT_3D('',#447,#357,#358);
#301=AXIS2_PLACEMENT_3D('',#450,#361,#362);
#302=AXIS2_PLACEMENT_3D('',#453,#365,#366);
#303=AXIS2_PLACEMENT_3D('',#456,#369,#370);
#304=AXIS2_PLACEMENT_3D('',#459,#373,#374);
#305=AXIS2_PLACEMENT_3D('',#462,#375,#376);
#306=AXIS2_PLACEMENT_3D('',#464,#378,#379);
#307=AXIS2_PLACEMENT_3D('',#465,#380,#381);
#308=AXIS2_PLACEMENT_3D('',#468,#382,#383);
#309=AXIS2_PLACEMENT_3D('',#470,#385,#386);
#310=AXIS2_PLACEMENT_3D('',#471,#387,#388);
#311=AXIS2_PLACEMENT_3D('',#472,#389,#390);
#312=AXIS2_PLACEMENT_3D('',#473,#391,#392);
#313=AXIS2_PLACEMENT_3D('',#474,#393,#394);
#314=AXIS2_PLACEMENT_3D('',#475,#395,#396);
#315=AXIS2_PLACEMENT_3D('',#477,#398,#399);
#316=AXIS2_PLACEMENT_3D('',#479,#401,#402);
#317=DIRECTION('axis',(0.,0.,1.));
#318=DIRECTION('refdir',(1.,0.,0.));
#319=DIRECTION('axis',(0.,0.,1.));
#320=DIRECTION('refdir',(1.,0.,0.));
#321=DIRECTION('center_axis',(1.,-4.30852643945092E-15,-1.56121292717204E-18));
#322=DIRECTION('ref_axis',(4.30852643945092E-15,1.,2.42861286636753E-17));
#323=DIRECTION('',(-4.30852643945092E-15,-1.,-2.42861286636753E-17));
#324=DIRECTION('center_axis',(-1.,4.30852643945092E-15,1.56121292717204E-18));
#325=DIRECTION('ref_axis',(4.30852643945092E-15,1.,2.42861286636753E-17));
#326=DIRECTION('',(1.56121292717194E-18,-2.42861286636753E-17,1.));
#327=DIRECTION('center_axis',(-1.,4.30852643945092E-15,1.56121292717204E-18));
#328=DIRECTION('ref_axis',(4.30852643945092E-15,1.,2.42861286636753E-17));
#329=DIRECTION('',(4.30852643945092E-15,1.,2.42861286636753E-17));
#330=DIRECTION('center_axis',(-1.,4.30852643945092E-15,1.56121292717204E-18));
#331=DIRECTION('ref_axis',(4.30852643945092E-15,1.,1.04326269845245E-14));
#332=DIRECTION('',(-1.56121292717194E-18,2.42861286636753E-17,-1.));
#333=DIRECTION('center_axis',(-1.,4.30852643945092E-15,1.56121292717204E-18));
#334=DIRECTION('ref_axis',(4.30852643945092E-15,1.,-8.43075609324727E-16));
#335=DIRECTION('center_axis',(1.,-4.30852643945092E-15,-1.56121292717204E-18));
#336=DIRECTION('ref_axis',(4.30852643945092E-15,1.,2.42861286636753E-17));
#337=DIRECTION('center_axis',(1.,-4.30852643945092E-15,-1.56121292717204E-18));
#338=DIRECTION('ref_axis',(4.30852643945092E-15,1.,2.42861286636753E-17));
#339=DIRECTION('center_axis',(1.,-4.30852643945092E-15,-1.56121292717204E-18));
#340=DIRECTION('ref_axis',(4.30852643945092E-15,1.,2.42861286636753E-17));
#341=DIRECTION('',(1.56121292717194E-18,-2.42861286636753E-17,1.));
#342=DIRECTION('center_axis',(1.,-4.30852643945092E-15,-1.56121292717204E-18));
#343=DIRECTION('ref_axis',(4.30852643945092E-15,1.,2.42861286636753E-17));
#344=DIRECTION('',(-4.30852643945092E-15,-1.,-2.42861286636753E-17));
#345=DIRECTION('center_axis',(1.,-4.30852643945092E-15,-1.56121292717204E-18));
#346=DIRECTION('ref_axis',(4.30852643945092E-15,1.,2.42861286636753E-17));
#347=DIRECTION('',(-1.56121292717194E-18,2.42861286636753E-17,-1.));
#348=DIRECTION('center_axis',(1.,-4.30852643945092E-15,-1.56121292717204E-18));
#349=DIRECTION('ref_axis',(4.30852643945092E-15,1.,2.42861286636753E-17));
#350=DIRECTION('',(4.30852643945092E-15,1.,2.42861286636753E-17));
#351=DIRECTION('center_axis',(1.,-4.30852643945092E-15,-1.56121292717204E-18));
#352=DIRECTION('ref_axis',(4.30852643945092E-15,1.,2.42861286636753E-17));
#353=DIRECTION('center_axis',(-1.,4.30852643945092E-15,1.56121292717204E-18));
#354=DIRECTION('ref_axis',(4.30852643945092E-15,1.,2.42861286636753E-17));
#355=DIRECTION('center_axis',(-1.,4.30852643945092E-15,1.56121292717204E-18));
#356=DIRECTION('ref_axis',(-4.30852643945092E-15,-1.,-2.42861286636753E-17));
#357=DIRECTION('center_axis',(4.30852643945092E-15,1.,2.42861286636753E-17));
#358=DIRECTION('ref_axis',(-1.,4.30852643945092E-15,1.56121292717204E-18));
#359=DIRECTION('',(1.,-4.30852643945092E-15,-1.56121292717204E-18));
#360=DIRECTION('',(-1.,4.30852643945092E-15,1.56121292717204E-18));
#361=DIRECTION('center_axis',(-1.56121292717194E-18,2.42861286636753E-17,
-1.));
#362=DIRECTION('ref_axis',(1.,-4.30852643945092E-15,-1.56121292717204E-18));
#363=DIRECTION('',(-1.,4.30852643945092E-15,1.56121292717204E-18));
#364=DIRECTION('',(1.,-4.30852643945092E-15,-1.56121292717204E-18));
#365=DIRECTION('center_axis',(-4.30852643945092E-15,-1.,-2.42861286636753E-17));
#366=DIRECTION('ref_axis',(1.,-4.30852643945092E-15,-1.56121292717204E-18));
#367=DIRECTION('',(-1.,4.30852643945092E-15,1.56121292717204E-18));
#368=DIRECTION('',(1.,-4.30852643945092E-15,-1.56121292717204E-18));
#369=DIRECTION('center_axis',(1.56121292717194E-18,-2.42861286636753E-17,
1.));
#370=DIRECTION('ref_axis',(-1.,4.30852643945092E-15,1.56121292717204E-18));
#371=DIRECTION('',(-1.,4.30852643945092E-15,1.56121292717204E-18));
#372=DIRECTION('',(1.,-4.30852643945092E-15,-1.56121292717204E-18));
#373=DIRECTION('center_axis',(1.,-4.30852643945092E-15,-1.56121292717204E-18));
#374=DIRECTION('ref_axis',(4.30852643945092E-15,1.,2.42861286636753E-17));
#375=DIRECTION('center_axis',(-1.,4.30852643945092E-15,1.56121292717204E-18));
#376=DIRECTION('ref_axis',(4.30852643945092E-15,1.,2.42861286636753E-17));
#377=DIRECTION('',(1.,-4.30852643945092E-15,-1.56121292717204E-18));
#378=DIRECTION('center_axis',(-1.,4.30852643945092E-15,1.56121292717204E-18));
#379=DIRECTION('ref_axis',(4.30852643945092E-15,1.,2.42861286636753E-17));
#380=DIRECTION('center_axis',(1.,-4.30852643945092E-15,-1.56121292717204E-18));
#381=DIRECTION('ref_axis',(4.30852643945092E-15,1.,2.42861286636753E-17));
#382=DIRECTION('center_axis',(-1.,4.30852643945092E-15,1.56121292717204E-18));
#383=DIRECTION('ref_axis',(4.30852643945092E-15,1.,2.42861286636753E-17));
#384=DIRECTION('',(1.,-4.30852643945092E-15,-1.56121292717204E-18));
#385=DIRECTION('center_axis',(-1.,4.30852643945092E-15,1.56121292717204E-18));
#386=DIRECTION('ref_axis',(4.30852643945092E-15,1.,2.42861286636753E-17));
#387=DIRECTION('center_axis',(1.,-4.30852643945092E-15,-1.56121292717204E-18));
#388=DIRECTION('ref_axis',(4.30852643945092E-15,1.,2.42861286636753E-17));
#389=DIRECTION('center_axis',(1.,-4.30852643945092E-15,-1.56121292717204E-18));
#390=DIRECTION('ref_axis',(4.30852643945092E-15,1.,2.42861286636753E-17));
#391=DIRECTION('center_axis',(1.,-4.30852643945092E-15,-1.56121292717204E-18));
#392=DIRECTION('ref_axis',(4.30852643945092E-15,1.,2.42861286636753E-17));
#393=DIRECTION('center_axis',(1.,-4.30852643945092E-15,-1.56121292717204E-18));
#394=DIRECTION('ref_axis',(4.30852643945092E-15,1.,2.42861286636753E-17));
#395=DIRECTION('center_axis',(-1.,4.30852643945092E-15,1.56121292717204E-18));
#396=DIRECTION('ref_axis',(-4.30852643945092E-15,-1.,-2.42861286636753E-17));
#397=DIRECTION('',(-0.707106781186542,0.707106781186553,-6.83187751090163E-17));
#398=DIRECTION('center_axis',(-1.,4.30852643945092E-15,1.56121292717204E-18));
#399=DIRECTION('ref_axis',(-4.30852643945092E-15,-1.,-2.42861286636753E-17));
#400=DIRECTION('',(-0.707106781186542,0.707106781186553,-6.83187751090163E-17));
#401=DIRECTION('',(0.,0.,1.));
#402=DIRECTION('',(1.,0.,0.));
#403=CARTESIAN_POINT('',(0.,0.,0.));
#404=CARTESIAN_POINT('',(0.,0.,0.));
#405=CARTESIAN_POINT('Origin',(-186.226755576314,-110.386010971068,-311.422378578425));
#406=CARTESIAN_POINT('',(-186.226755576314,-96.4860109710676,-314.672378578425));
#407=CARTESIAN_POINT('',(-186.226755576314,-124.286010971068,-314.672378578425));
#408=CARTESIAN_POINT('',(-186.226755576314,-95.9860109710677,-314.672378578425));
#409=CARTESIAN_POINT('',(-186.226755576314,-124.786010971068,-314.172378578425));
#410=CARTESIAN_POINT('Origin',(-186.226755576314,-124.286010971068,-314.172378578425));
#411=CARTESIAN_POINT('',(-186.226755576314,-124.786010971068,-308.672378578425));
#412=CARTESIAN_POINT('',(-186.226755576314,-124.786010971068,-314.672378578425));
#413=CARTESIAN_POINT('',(-186.226755576314,-124.286010971068,-308.172378578425));
#414=CARTESIAN_POINT('Origin',(-186.226755576314,-124.286010971068,-308.672378578425));
#415=CARTESIAN_POINT('',(-186.226755576314,-96.4860109710676,-308.172378578425));
#416=CARTESIAN_POINT('',(-186.226755576314,-95.9860109710677,-308.172378578425));
#417=CARTESIAN_POINT('',(-186.226755576314,-95.9860109710677,-308.672378578425));
#418=CARTESIAN_POINT('Origin',(-186.226755576314,-96.4860109710676,-308.672378578425));
#419=CARTESIAN_POINT('',(-186.226755576314,-95.9860109710677,-314.172378578425));
#420=CARTESIAN_POINT('',(-186.226755576314,-95.9860109710677,-314.672378578425));
#421=CARTESIAN_POINT('Origin',(-186.226755576314,-96.4860109710676,-314.172378578425));
#422=CARTESIAN_POINT('',(-186.226755576314,-117.286010971068,-311.422378578425));
#423=CARTESIAN_POINT('Origin',(-186.226755576314,-120.386010971068,-311.422378578425));
#424=CARTESIAN_POINT('',(-186.226755576314,-97.2860109710676,-311.422378578425));
#425=CARTESIAN_POINT('Origin',(-186.226755576314,-100.386010971068,-311.422378578425));
#426=CARTESIAN_POINT('Origin',(-181.226755576314,-110.386010971068,-311.422378578425));
#427=CARTESIAN_POINT('',(-181.226755576314,-124.786010971068,-314.172378578425));
#428=CARTESIAN_POINT('',(-181.226755576314,-124.786010971068,-308.672378578425));
#429=CARTESIAN_POINT('',(-181.226755576314,-124.786010971068,-314.672378578425));
#430=CARTESIAN_POINT('',(-181.226755576314,-124.286010971068,-314.672378578425));
#431=CARTESIAN_POINT('Origin',(-181.226755576314,-124.286010971068,-314.172378578425));
#432=CARTESIAN_POINT('',(-181.226755576314,-96.4860109710677,-314.672378578425));
#433=CARTESIAN_POINT('',(-181.226755576314,-95.9860109710677,-314.672378578425));
#434=CARTESIAN_POINT('',(-181.226755576314,-95.9860109710677,-314.172378578425));
#435=CARTESIAN_POINT('Origin',(-181.226755576314,-96.4860109710677,-314.172378578425));
#436=CARTESIAN_POINT('',(-181.226755576314,-95.9860109710677,-308.672378578425));
#437=CARTESIAN_POINT('',(-181.226755576314,-95.9860109710677,-314.672378578425));
#438=CARTESIAN_POINT('',(-181.226755576314,-96.4860109710677,-308.172378578425));
#439=CARTESIAN_POINT('Origin',(-181.226755576314,-96.4860109710677,-308.672378578425));
#440=CARTESIAN_POINT('',(-181.226755576314,-124.286010971068,-308.172378578425));
#441=CARTESIAN_POINT('',(-181.226755576314,-95.9860109710677,-308.172378578425));
#442=CARTESIAN_POINT('Origin',(-181.226755576314,-124.286010971068,-308.672378578425));
#443=CARTESIAN_POINT('',(-181.226755576314,-121.986010971068,-311.422378578425));
#444=CARTESIAN_POINT('Origin',(-181.226755576314,-120.386010971068,-311.422378578425));
#445=CARTESIAN_POINT('',(-181.226755576314,-101.986010971068,-311.422378578425));
#446=CARTESIAN_POINT('Origin',(-181.226755576314,-100.386010971068,-311.422378578425));
#447=CARTESIAN_POINT('Origin',(-186.226755576314,-124.786010971068,-314.672378578425));
#448=CARTESIAN_POINT('',(-186.226755576314,-124.786010971068,-314.172378578425));
#449=CARTESIAN_POINT('',(-186.226755576314,-124.786010971068,-308.672378578425));
#450=CARTESIAN_POINT('Origin',(-186.226755576314,-95.9860109710677,-308.172378578425));
#451=CARTESIAN_POINT('',(-186.226755576314,-96.4860109710676,-308.172378578425));
#452=CARTESIAN_POINT('',(-186.226755576314,-124.286010971068,-308.172378578425));
#453=CARTESIAN_POINT('Origin',(-186.226755576314,-95.9860109710677,-314.672378578425));
#454=CARTESIAN_POINT('',(-186.226755576314,-95.9860109710677,-314.172378578425));
#455=CARTESIAN_POINT('',(-186.226755576314,-95.9860109710677,-308.672378578425));
#456=CARTESIAN_POINT('Origin',(-186.226755576314,-95.9860109710677,-314.672378578425));
#457=CARTESIAN_POINT('',(-186.226755576314,-124.286010971068,-314.672378578425));
#458=CARTESIAN_POINT('',(-186.226755576314,-96.4860109710676,-314.672378578425));
#459=CARTESIAN_POINT('Origin',(-186.226755576314,-100.386010971068,-311.422378578425));
#460=CARTESIAN_POINT('',(-184.726755576314,-98.7860109710677,-311.422378578425));
#461=CARTESIAN_POINT('',(-184.726755576314,-101.986010971068,-311.422378578425));
#462=CARTESIAN_POINT('Origin',(-184.726755576314,-100.386010971068,-311.422378578425));
#463=CARTESIAN_POINT('',(-186.226755576314,-101.986010971068,-311.422378578425));
#464=CARTESIAN_POINT('Origin',(-184.726755576314,-100.386010971068,-311.422378578425));
#465=CARTESIAN_POINT('Origin',(-186.226755576314,-120.386010971068,-311.422378578425));
#466=CARTESIAN_POINT('',(-184.726755576314,-118.786010971068,-311.422378578425));
#467=CARTESIAN_POINT('',(-184.726755576314,-121.986010971068,-311.422378578425));
#468=CARTESIAN_POINT('Origin',(-184.726755576314,-120.386010971068,-311.422378578425));
#469=CARTESIAN_POINT('',(-186.226755576314,-121.986010971068,-311.422378578425));
#470=CARTESIAN_POINT('Origin',(-184.726755576314,-120.386010971068,-311.422378578425));
#471=CARTESIAN_POINT('Origin',(-186.226755576314,-124.286010971068,-314.172378578425));
#472=CARTESIAN_POINT('Origin',(-186.226755576314,-96.4860109710676,-314.172378578425));
#473=CARTESIAN_POINT('Origin',(-186.226755576314,-96.4860109710676,-308.672378578425));
#474=CARTESIAN_POINT('Origin',(-186.226755576314,-124.286010971068,-308.672378578425));
#475=CARTESIAN_POINT('Origin',(-184.726755576314,-120.386010971068,-311.422378578425));
#476=CARTESIAN_POINT('',(-184.726755576314,-118.786010971068,-311.422378578425));
#477=CARTESIAN_POINT('Origin',(-184.726755576314,-100.386010971068,-311.422378578425));
#478=CARTESIAN_POINT('',(-184.726755576314,-98.786010971068,-311.422378578425));
#479=CARTESIAN_POINT('',(0.,0.,0.));
#480=UNCERTAINTY_MEASURE_WITH_UNIT(LENGTH_MEASURE(0.01),#486,
'DISTANCE_ACCURACY_VALUE',
'Maximum model space distance between geometric entities at asserted c
onnectivities');
#481=UNCERTAINTY_MEASURE_WITH_UNIT(LENGTH_MEASURE(0.01),#486,
'DISTANCE_ACCURACY_VALUE',
'Maximum model space distance between geometric entities at asserted c
onnectivities');
#482=UNCERTAINTY_MEASURE_WITH_UNIT(LENGTH_MEASURE(0.01),#486,
'DISTANCE_ACCURACY_VALUE',
'Maximum model space distance between geometric entities at asserted c
onnectivities');
#483=(
GEOMETRIC_REPRESENTATION_CONTEXT(3)
GLOBAL_UNCERTAINTY_ASSIGNED_CONTEXT((#480))
GLOBAL_UNIT_ASSIGNED_CONTEXT((#486,#488,#489))
REPRESENTATION_CONTEXT('','3D')
);
#484=(
GEOMETRIC_REPRESENTATION_CONTEXT(3)
GLOBAL_UNCERTAINTY_ASSIGNED_CONTEXT((#481))
GLOBAL_UNIT_ASSIGNED_CONTEXT((#486,#488,#489))
REPRESENTATION_CONTEXT('','3D')
);
#485=(
GEOMETRIC_REPRESENTATION_CONTEXT(3)
GLOBAL_UNCERTAINTY_ASSIGNED_CONTEXT((#482))
GLOBAL_UNIT_ASSIGNED_CONTEXT((#486,#488,#489))
REPRESENTATION_CONTEXT('','3D')
);
#486=(
LENGTH_UNIT()
NAMED_UNIT(*)
SI_UNIT(.MILLI.,.METRE.)
);
#487=(
LENGTH_UNIT()
NAMED_UNIT(*)
SI_UNIT($,.METRE.)
);
#488=(
NAMED_UNIT(*)
PLANE_ANGLE_UNIT()
SI_UNIT($,.RADIAN.)
);
#489=(
NAMED_UNIT(*)
SI_UNIT($,.STERADIAN.)
SOLID_ANGLE_UNIT()
);
#490=SHAPE_DEFINITION_REPRESENTATION(#492,#495);
#491=SHAPE_DEFINITION_REPRESENTATION(#493,#496);
#492=PRODUCT_DEFINITION_SHAPE('',$,#498);
#493=PRODUCT_DEFINITION_SHAPE('',$,#499);
#494=PRODUCT_DEFINITION_SHAPE($,$,#14);
#495=SHAPE_REPRESENTATION('',(#284,#316),#483);
#496=SHAPE_REPRESENTATION('',(#285),#484);
#497=PRODUCT_DEFINITION_CONTEXT('part definition',#505,'design');
#498=PRODUCT_DEFINITION('Leg (right)','Leg (right) v74',#500,#497);
#499=PRODUCT_DEFINITION('Foot','Foot',#501,#497);
#500=PRODUCT_DEFINITION_FORMATION('',$,#507);
#501=PRODUCT_DEFINITION_FORMATION('',$,#508);
#502=PRODUCT_RELATED_PRODUCT_CATEGORY('Leg (right) v74',
'Leg (right) v74',(#507));
#503=PRODUCT_RELATED_PRODUCT_CATEGORY('Foot','Foot',(#508));
#504=APPLICATION_PROTOCOL_DEFINITION('international standard',
'automotive_design',2009,#505);
#505=APPLICATION_CONTEXT(
'Core Data for Automotive Mechanical Design Process');
#506=PRODUCT_CONTEXT('part definition',#505,'mechanical');
#507=PRODUCT('Leg (right)','Leg (right) v74',$,(#506));
#508=PRODUCT('Foot','Foot',$,(#506));
#509=PRESENTATION_STYLE_ASSIGNMENT((#515));
#510=PRESENTATION_STYLE_ASSIGNMENT((#516));
#511=PRESENTATION_STYLE_ASSIGNMENT((#517));
#512=PRESENTATION_STYLE_ASSIGNMENT((#518));
#513=PRESENTATION_STYLE_ASSIGNMENT((#519));
#514=PRESENTATION_STYLE_ASSIGNMENT((#520));
#515=SURFACE_STYLE_USAGE(.BOTH.,#521);
#516=SURFACE_STYLE_USAGE(.BOTH.,#522);
#517=SURFACE_STYLE_USAGE(.BOTH.,#523);
#518=SURFACE_STYLE_USAGE(.BOTH.,#524);
#519=SURFACE_STYLE_USAGE(.BOTH.,#525);
#520=SURFACE_STYLE_USAGE(.BOTH.,#526);
#521=SURFACE_SIDE_STYLE('',(#527));
#522=SURFACE_SIDE_STYLE('',(#528));
#523=SURFACE_SIDE_STYLE('',(#529));
#524=SURFACE_SIDE_STYLE('',(#530));
#525=SURFACE_SIDE_STYLE('',(#531));
#526=SURFACE_SIDE_STYLE('',(#532));
#527=SURFACE_STYLE_FILL_AREA(#533);
#528=SURFACE_STYLE_FILL_AREA(#534);
#529=SURFACE_STYLE_FILL_AREA(#535);
#530=SURFACE_STYLE_FILL_AREA(#536);
#531=SURFACE_STYLE_FILL_AREA(#537);
#532=SURFACE_STYLE_FILL_AREA(#538);
#533=FILL_AREA_STYLE('Steel - Satin',(#539));
#534=FILL_AREA_STYLE('Plate',(#540));
#535=FILL_AREA_STYLE('ABS (White)',(#541));
#536=FILL_AREA_STYLE('Aluminum - Satin',(#542));
#537=FILL_AREA_STYLE('ABS (White) (1)',(#543));
#538=FILL_AREA_STYLE('Rubber - Soft',(#544));
#539=FILL_AREA_STYLE_COLOUR('Steel - Satin',#545);
#540=FILL_AREA_STYLE_COLOUR('Plate',#546);
#541=FILL_AREA_STYLE_COLOUR('ABS (White)',#547);
#542=FILL_AREA_STYLE_COLOUR('Aluminum - Satin',#548);
#543=FILL_AREA_STYLE_COLOUR('ABS (White) (1)',#549);
#544=FILL_AREA_STYLE_COLOUR('Rubber - Soft',#550);
#545=COLOUR_RGB('Steel - Satin',0.627450980392157,0.627450980392157,0.627450980392157);
#546=COLOUR_RGB('Plate',0.6,0.6,0.6);
#547=COLOUR_RGB('ABS (White)',0.964705882352941,0.964705882352941,0.952941176470588);
#548=COLOUR_RGB('Aluminum - Satin',0.96078431372549,0.96078431372549,0.964705882352941);
#549=COLOUR_RGB('ABS (White) (1)',0.905882352941176,0.262745098039216,0.184313725490196);
#550=COLOUR_RGB('Rubber - Soft',0.152941176470588,0.152941176470588,0.152941176470588);
ENDSEC;
END-ISO-10303-21;
