ISO-10303-21;
HEADER;
/* Generated by software containing ST-Developer
 * from STEP Tools, Inc. (www.steptools.com) 
 */

FILE_DESCRIPTION(
/* description */ (''),
/* implementation_level */ '2;1');

FILE_NAME(
/* name */ 'Sole.step',
/* time_stamp */ '2026-08-13T12:52:58-04:00',
/* author */ (''),
/* organization */ (''),
/* preprocessor_version */ 'ST-DEVELOPER v20.1',
/* originating_system */ 'Autodesk Translation Framework v15.8.0.0',
/* authorisation */ '');

FILE_SCHEMA (('AUTOMOTIVE_DESIGN { 1 0 10303 214 3 1 1 }'));
ENDSEC;

DATA;
#10=MECHANICAL_DESIGN_GEOMETRIC_PRESENTATION_REPRESENTATION('',(#17),#572);
#11=ITEM_DEFINED_TRANSFORMATION($,$,#318,#338);
#12=(
REPRESENTATION_RELATIONSHIP($,$,#583,#582)
REPRESENTATION_RELATIONSHIP_WITH_TRANSFORMATION(#11)
SHAPE_REPRESENTATION_RELATIONSHIP()
);
#13=CONTEXT_DEPENDENT_SHAPE_REPRESENTATION(#12,#581);
#14=NEXT_ASSEMBLY_USAGE_OCCURRENCE('Foot:1','Foot:1','Foot:1',#585,#586,
'Foot:1');
#15=SHAPE_REPRESENTATION_RELATIONSHIP('SRR','None',#583,#16);
#16=ADVANCED_BREP_SHAPE_REPRESENTATION('',(#18),#571);
#17=STYLED_ITEM('',(#601),#18);
#18=MANIFOLD_SOLID_BREP('FootSole',#304);
#19=FACE_BOUND('',#67,.T.);
#20=B_SPLINE_CURVE_WITH_KNOTS('',3,(#429,#430,#431,#432,#433,#434,#435),
 .UNSPECIFIED.,.F.,.F.,(4,3,4),(4.21320381964758E-5,0.0299994241762896,
0.161166056446563),.UNSPECIFIED.);
#21=B_SPLINE_CURVE_WITH_KNOTS('',3,(#450,#451,#452,#453),.UNSPECIFIED.,
 .F.,.F.,(4,4),(0.,1.),.UNSPECIFIED.);
#22=B_SPLINE_CURVE_WITH_KNOTS('',3,(#454,#455,#456,#457),.UNSPECIFIED.,
 .F.,.F.,(4,4),(0.,0.999838147076902),.UNSPECIFIED.);
#23=B_SPLINE_CURVE_WITH_KNOTS('',3,(#459,#460,#461,#462,#463,#464,#465,
#466,#467,#468,#469,#470,#471,#472),.UNSPECIFIED.,.F.,.F.,(4,2,2,2,2,2,
4),(1.80059735315179,1.80883659936976,2.11923353891348,2.42963047845719,
2.7400274180009,3.05042435754462,3.05044956934363),.UNSPECIFIED.);
#24=B_SPLINE_CURVE_WITH_KNOTS('',3,(#475,#476,#477,#478,#479,#480,#481,
#482,#483,#484,#485,#486,#487,#488),.UNSPECIFIED.,.F.,.F.,(4,2,2,2,2,2,
4),(3.03699688353372,3.03702256071334,3.34741965974531,3.65781675877727,
3.96821385780924,4.27861095684121,4.28648578353714),.UNSPECIFIED.);
#25=B_SPLINE_CURVE_WITH_KNOTS('',3,(#491,#492,#493,#494),.UNSPECIFIED.,
 .F.,.F.,(4,4),(0.,1.),.UNSPECIFIED.);
#26=B_SPLINE_CURVE_WITH_KNOTS('',3,(#498,#499,#500,#501,#502,#503,#504,
#505,#506,#507),.UNSPECIFIED.,.F.,.F.,(4,2,2,2,4),(0.133673082407835,0.149062073802002,
0.1888975734436,0.214100751056054,0.223120438886705),.UNSPECIFIED.);
#27=B_SPLINE_CURVE_WITH_KNOTS('',3,(#510,#511,#512,#513,#514,#515,#516,
#517,#518,#519,#520,#521,#522,#523),.UNSPECIFIED.,.F.,.F.,(4,2,2,2,2,2,
4),(9.12528102078941,9.12530831496971,9.43570550817778,9.74610270138585,
10.0564998945939,10.366897087802,10.3751083926857),.UNSPECIFIED.);
#28=B_SPLINE_CURVE_WITH_KNOTS('',3,(#525,#526,#527,#528,#529,#530,#531),
 .UNSPECIFIED.,.F.,.F.,(4,3,4),(4.80888854331253E-5,0.0299994299026254,
0.161169989849403),.UNSPECIFIED.);
#29=PLANE('',#322);
#30=PLANE('',#323);
#31=PLANE('',#324);
#32=PLANE('',#329);
#33=PLANE('',#330);
#34=PLANE('',#331);
#35=PLANE('',#332);
#36=PLANE('',#333);
#37=PLANE('',#334);
#38=PLANE('',#335);
#39=PLANE('',#336);
#40=PLANE('',#337);
#41=FACE_OUTER_BOUND('',#58,.T.);
#42=FACE_OUTER_BOUND('',#59,.T.);
#43=FACE_OUTER_BOUND('',#60,.T.);
#44=FACE_OUTER_BOUND('',#61,.T.);
#45=FACE_OUTER_BOUND('',#62,.T.);
#46=FACE_OUTER_BOUND('',#63,.T.);
#47=FACE_OUTER_BOUND('',#64,.T.);
#48=FACE_OUTER_BOUND('',#65,.T.);
#49=FACE_OUTER_BOUND('',#66,.T.);
#50=FACE_OUTER_BOUND('',#68,.T.);
#51=FACE_OUTER_BOUND('',#69,.T.);
#52=FACE_OUTER_BOUND('',#70,.T.);
#53=FACE_OUTER_BOUND('',#71,.T.);
#54=FACE_OUTER_BOUND('',#72,.T.);
#55=FACE_OUTER_BOUND('',#73,.T.);
#56=FACE_OUTER_BOUND('',#74,.T.);
#57=FACE_OUTER_BOUND('',#75,.T.);
#58=EDGE_LOOP('',(#202,#203,#204,#205));
#59=EDGE_LOOP('',(#206,#207,#208,#209,#210,#211));
#60=EDGE_LOOP('',(#212,#213,#214,#215));
#61=EDGE_LOOP('',(#216,#217,#218,#219));
#62=EDGE_LOOP('',(#220,#221,#222,#223,#224));
#63=EDGE_LOOP('',(#225,#226,#227,#228,#229));
#64=EDGE_LOOP('',(#230,#231,#232,#233));
#65=EDGE_LOOP('',(#234,#235,#236,#237));
#66=EDGE_LOOP('',(#238,#239,#240,#241));
#67=EDGE_LOOP('',(#242,#243,#244,#245));
#68=EDGE_LOOP('',(#246,#247,#248,#249));
#69=EDGE_LOOP('',(#250,#251,#252,#253));
#70=EDGE_LOOP('',(#254,#255,#256,#257));
#71=EDGE_LOOP('',(#258,#259,#260,#261));
#72=EDGE_LOOP('',(#262,#263,#264,#265));
#73=EDGE_LOOP('',(#266,#267,#268,#269,#270,#271));
#74=EDGE_LOOP('',(#272,#273,#274,#275,#276));
#75=EDGE_LOOP('',(#277,#278,#279,#280,#281));
#76=ELLIPSE('',#320,183.338594351421,129.6398835865);
#77=ELLIPSE('',#321,183.338368833782,129.6398835865);
#78=LINE('',#417,#107);
#79=LINE('',#421,#108);
#80=LINE('',#425,#109);
#81=LINE('',#427,#110);
#82=LINE('',#437,#111);
#83=LINE('',#438,#112);
#84=LINE('',#441,#113);
#85=LINE('',#442,#114);
#86=LINE('',#445,#115);
#87=LINE('',#446,#116);
#88=LINE('',#474,#117);
#89=LINE('',#496,#118);
#90=LINE('',#509,#119);
#91=LINE('',#532,#120);
#92=LINE('',#534,#121);
#93=LINE('',#538,#122);
#94=LINE('',#540,#123);
#95=LINE('',#542,#124);
#96=LINE('',#543,#125);
#97=LINE('',#547,#126);
#98=LINE('',#548,#127);
#99=LINE('',#549,#128);
#100=LINE('',#552,#129);
#101=LINE('',#554,#130);
#102=LINE('',#555,#131);
#103=LINE('',#557,#132);
#104=LINE('',#558,#133);
#105=LINE('',#562,#134);
#106=LINE('',#563,#135);
#107=VECTOR('',#345,10.);
#108=VECTOR('',#348,10.);
#109=VECTOR('',#353,1000.);
#110=VECTOR('',#354,1000.);
#111=VECTOR('',#355,1000.);
#112=VECTOR('',#356,1000.);
#113=VECTOR('',#359,1000.);
#114=VECTOR('',#360,1000.);
#115=VECTOR('',#363,1000.);
#116=VECTOR('',#364,1000.);
#117=VECTOR('',#367,1000.);
#118=VECTOR('',#370,10.);
#119=VECTOR('',#371,1000.);
#120=VECTOR('',#374,1000.);
#121=VECTOR('',#377,1000.);
#122=VECTOR('',#380,10.);
#123=VECTOR('',#381,1000.);
#124=VECTOR('',#382,10.);
#125=VECTOR('',#383,1000.);
#126=VECTOR('',#386,10.);
#127=VECTOR('',#387,1000.);
#128=VECTOR('',#388,1000.);
#129=VECTOR('',#391,1000.);
#130=VECTOR('',#392,10.);
#131=VECTOR('',#393,1000.);
#132=VECTOR('',#396,1000.);
#133=VECTOR('',#397,1000.);
#134=VECTOR('',#404,1000.);
#135=VECTOR('',#405,1000.);
#136=VERTEX_POINT('',#415);
#137=VERTEX_POINT('',#416);
#138=VERTEX_POINT('',#418);
#139=VERTEX_POINT('',#420);
#140=VERTEX_POINT('',#424);
#141=VERTEX_POINT('',#426);
#142=VERTEX_POINT('',#428);
#143=VERTEX_POINT('',#436);
#144=VERTEX_POINT('',#440);
#145=VERTEX_POINT('',#444);
#146=VERTEX_POINT('',#448);
#147=VERTEX_POINT('',#449);
#148=VERTEX_POINT('',#458);
#149=VERTEX_POINT('',#473);
#150=VERTEX_POINT('',#490);
#151=VERTEX_POINT('',#495);
#152=VERTEX_POINT('',#497);
#153=VERTEX_POINT('',#508);
#154=VERTEX_POINT('',#536);
#155=VERTEX_POINT('',#537);
#156=VERTEX_POINT('',#539);
#157=VERTEX_POINT('',#541);
#158=VERTEX_POINT('',#545);
#159=VERTEX_POINT('',#546);
#160=VERTEX_POINT('',#551);
#161=VERTEX_POINT('',#553);
#162=EDGE_CURVE('',#136,#137,#78,.T.);
#163=EDGE_CURVE('',#138,#136,#76,.T.);
#164=EDGE_CURVE('',#139,#138,#79,.T.);
#165=EDGE_CURVE('',#137,#139,#77,.T.);
#166=EDGE_CURVE('',#136,#140,#80,.T.);
#167=EDGE_CURVE('',#140,#141,#81,.T.);
#168=EDGE_CURVE('',#142,#141,#20,.T.);
#169=EDGE_CURVE('',#142,#143,#82,.T.);
#170=EDGE_CURVE('',#143,#138,#83,.T.);
#171=EDGE_CURVE('',#137,#144,#84,.T.);
#172=EDGE_CURVE('',#144,#140,#85,.T.);
#173=EDGE_CURVE('',#143,#145,#86,.T.);
#174=EDGE_CURVE('',#145,#139,#87,.T.);
#175=EDGE_CURVE('',#146,#147,#21,.T.);
#176=EDGE_CURVE('',#147,#142,#22,.T.);
#177=EDGE_CURVE('',#142,#148,#23,.T.);
#178=EDGE_CURVE('',#148,#149,#88,.T.);
#179=EDGE_CURVE('',#149,#146,#24,.T.);
#180=EDGE_CURVE('',#150,#141,#25,.T.);
#181=EDGE_CURVE('',#151,#150,#89,.T.);
#182=EDGE_CURVE('',#151,#152,#26,.T.);
#183=EDGE_CURVE('',#152,#153,#90,.T.);
#184=EDGE_CURVE('',#153,#141,#27,.T.);
#185=EDGE_CURVE('',#151,#146,#28,.T.);
#186=EDGE_CURVE('',#149,#152,#91,.T.);
#187=EDGE_CURVE('',#153,#148,#92,.T.);
#188=EDGE_CURVE('',#154,#155,#93,.T.);
#189=EDGE_CURVE('',#156,#154,#94,.T.);
#190=EDGE_CURVE('',#156,#157,#95,.T.);
#191=EDGE_CURVE('',#157,#155,#96,.T.);
#192=EDGE_CURVE('',#158,#159,#97,.F.);
#193=EDGE_CURVE('',#154,#158,#98,.T.);
#194=EDGE_CURVE('',#159,#155,#99,.T.);
#195=EDGE_CURVE('',#160,#156,#100,.T.);
#196=EDGE_CURVE('',#160,#161,#101,.T.);
#197=EDGE_CURVE('',#157,#161,#102,.T.);
#198=EDGE_CURVE('',#158,#160,#103,.T.);
#199=EDGE_CURVE('',#161,#159,#104,.T.);
#200=EDGE_CURVE('',#146,#145,#105,.T.);
#201=EDGE_CURVE('',#144,#151,#106,.T.);
#202=ORIENTED_EDGE('',*,*,#162,.F.);
#203=ORIENTED_EDGE('',*,*,#163,.F.);
#204=ORIENTED_EDGE('',*,*,#164,.F.);
#205=ORIENTED_EDGE('',*,*,#165,.F.);
#206=ORIENTED_EDGE('',*,*,#163,.T.);
#207=ORIENTED_EDGE('',*,*,#166,.T.);
#208=ORIENTED_EDGE('',*,*,#167,.T.);
#209=ORIENTED_EDGE('',*,*,#168,.F.);
#210=ORIENTED_EDGE('',*,*,#169,.T.);
#211=ORIENTED_EDGE('',*,*,#170,.T.);
#212=ORIENTED_EDGE('',*,*,#162,.T.);
#213=ORIENTED_EDGE('',*,*,#171,.T.);
#214=ORIENTED_EDGE('',*,*,#172,.T.);
#215=ORIENTED_EDGE('',*,*,#166,.F.);
#216=ORIENTED_EDGE('',*,*,#164,.T.);
#217=ORIENTED_EDGE('',*,*,#170,.F.);
#218=ORIENTED_EDGE('',*,*,#173,.T.);
#219=ORIENTED_EDGE('',*,*,#174,.T.);
#220=ORIENTED_EDGE('',*,*,#175,.T.);
#221=ORIENTED_EDGE('',*,*,#176,.T.);
#222=ORIENTED_EDGE('',*,*,#177,.T.);
#223=ORIENTED_EDGE('',*,*,#178,.T.);
#224=ORIENTED_EDGE('',*,*,#179,.T.);
#225=ORIENTED_EDGE('',*,*,#180,.F.);
#226=ORIENTED_EDGE('',*,*,#181,.F.);
#227=ORIENTED_EDGE('',*,*,#182,.T.);
#228=ORIENTED_EDGE('',*,*,#183,.T.);
#229=ORIENTED_EDGE('',*,*,#184,.T.);
#230=ORIENTED_EDGE('',*,*,#182,.F.);
#231=ORIENTED_EDGE('',*,*,#185,.T.);
#232=ORIENTED_EDGE('',*,*,#179,.F.);
#233=ORIENTED_EDGE('',*,*,#186,.T.);
#234=ORIENTED_EDGE('',*,*,#177,.F.);
#235=ORIENTED_EDGE('',*,*,#168,.T.);
#236=ORIENTED_EDGE('',*,*,#184,.F.);
#237=ORIENTED_EDGE('',*,*,#187,.T.);
#238=ORIENTED_EDGE('',*,*,#186,.F.);
#239=ORIENTED_EDGE('',*,*,#178,.F.);
#240=ORIENTED_EDGE('',*,*,#187,.F.);
#241=ORIENTED_EDGE('',*,*,#183,.F.);
#242=ORIENTED_EDGE('',*,*,#188,.F.);
#243=ORIENTED_EDGE('',*,*,#189,.F.);
#244=ORIENTED_EDGE('',*,*,#190,.T.);
#245=ORIENTED_EDGE('',*,*,#191,.T.);
#246=ORIENTED_EDGE('',*,*,#192,.F.);
#247=ORIENTED_EDGE('',*,*,#193,.F.);
#248=ORIENTED_EDGE('',*,*,#188,.T.);
#249=ORIENTED_EDGE('',*,*,#194,.F.);
#250=ORIENTED_EDGE('',*,*,#190,.F.);
#251=ORIENTED_EDGE('',*,*,#195,.F.);
#252=ORIENTED_EDGE('',*,*,#196,.T.);
#253=ORIENTED_EDGE('',*,*,#197,.F.);
#254=ORIENTED_EDGE('',*,*,#196,.F.);
#255=ORIENTED_EDGE('',*,*,#198,.F.);
#256=ORIENTED_EDGE('',*,*,#192,.T.);
#257=ORIENTED_EDGE('',*,*,#199,.F.);
#258=ORIENTED_EDGE('',*,*,#199,.T.);
#259=ORIENTED_EDGE('',*,*,#194,.T.);
#260=ORIENTED_EDGE('',*,*,#191,.F.);
#261=ORIENTED_EDGE('',*,*,#197,.T.);
#262=ORIENTED_EDGE('',*,*,#195,.T.);
#263=ORIENTED_EDGE('',*,*,#189,.T.);
#264=ORIENTED_EDGE('',*,*,#193,.T.);
#265=ORIENTED_EDGE('',*,*,#198,.T.);
#266=ORIENTED_EDGE('',*,*,#165,.T.);
#267=ORIENTED_EDGE('',*,*,#174,.F.);
#268=ORIENTED_EDGE('',*,*,#200,.F.);
#269=ORIENTED_EDGE('',*,*,#185,.F.);
#270=ORIENTED_EDGE('',*,*,#201,.F.);
#271=ORIENTED_EDGE('',*,*,#171,.F.);
#272=ORIENTED_EDGE('',*,*,#167,.F.);
#273=ORIENTED_EDGE('',*,*,#172,.F.);
#274=ORIENTED_EDGE('',*,*,#201,.T.);
#275=ORIENTED_EDGE('',*,*,#181,.T.);
#276=ORIENTED_EDGE('',*,*,#180,.T.);
#277=ORIENTED_EDGE('',*,*,#176,.F.);
#278=ORIENTED_EDGE('',*,*,#175,.F.);
#279=ORIENTED_EDGE('',*,*,#200,.T.);
#280=ORIENTED_EDGE('',*,*,#173,.F.);
#281=ORIENTED_EDGE('',*,*,#169,.F.);
#282=CYLINDRICAL_SURFACE('',#319,129.6398835865);
#283=CYLINDRICAL_SURFACE('',#325,15.);
#284=CYLINDRICAL_SURFACE('',#326,15.);
#285=CYLINDRICAL_SURFACE('',#327,14.9997149513117);
#286=CYLINDRICAL_SURFACE('',#328,14.9997120881428);
#287=ADVANCED_FACE('',(#41),#282,.F.);
#288=ADVANCED_FACE('',(#42),#29,.F.);
#289=ADVANCED_FACE('',(#43),#30,.T.);
#290=ADVANCED_FACE('',(#44),#31,.T.);
#291=ADVANCED_FACE('',(#45),#283,.T.);
#292=ADVANCED_FACE('',(#46),#284,.T.);
#293=ADVANCED_FACE('',(#47),#285,.T.);
#294=ADVANCED_FACE('',(#48),#286,.T.);
#295=ADVANCED_FACE('',(#49,#19),#32,.F.);
#296=ADVANCED_FACE('',(#50),#33,.T.);
#297=ADVANCED_FACE('',(#51),#34,.F.);
#298=ADVANCED_FACE('',(#52),#35,.F.);
#299=ADVANCED_FACE('',(#53),#36,.T.);
#300=ADVANCED_FACE('',(#54),#37,.T.);
#301=ADVANCED_FACE('',(#55),#38,.F.);
#302=ADVANCED_FACE('',(#56),#39,.F.);
#303=ADVANCED_FACE('',(#57),#40,.F.);
#304=CLOSED_SHELL('',(#287,#288,#289,#290,#291,#292,#293,#294,#295,#296,
#297,#298,#299,#300,#301,#302,#303));
#305=DERIVED_UNIT_ELEMENT(#307,1.);
#306=DERIVED_UNIT_ELEMENT(#574,-3.);
#307=(
MASS_UNIT()
NAMED_UNIT(*)
SI_UNIT(.KILO.,.GRAM.)
);
#308=DERIVED_UNIT((#305,#306));
#309=MEASURE_REPRESENTATION_ITEM('density measure',
POSITIVE_RATIO_MEASURE(7850.),#308);
#310=PROPERTY_DEFINITION_REPRESENTATION(#315,#312);
#311=PROPERTY_DEFINITION_REPRESENTATION(#316,#313);
#312=REPRESENTATION('material name',(#314),#571);
#313=REPRESENTATION('density',(#309),#571);
#314=DESCRIPTIVE_REPRESENTATION_ITEM('Steel','Steel');
#315=PROPERTY_DEFINITION('material property','material name',#586);
#316=PROPERTY_DEFINITION('material property','density of part',#586);
#317=AXIS2_PLACEMENT_3D('',#412,#339,#340);
#318=AXIS2_PLACEMENT_3D('',#413,#341,#342);
#319=AXIS2_PLACEMENT_3D('',#414,#343,#344);
#320=AXIS2_PLACEMENT_3D('',#419,#346,#347);
#321=AXIS2_PLACEMENT_3D('',#422,#349,#350);
#322=AXIS2_PLACEMENT_3D('',#423,#351,#352);
#323=AXIS2_PLACEMENT_3D('',#439,#357,#358);
#324=AXIS2_PLACEMENT_3D('',#443,#361,#362);
#325=AXIS2_PLACEMENT_3D('',#447,#365,#366);
#326=AXIS2_PLACEMENT_3D('',#489,#368,#369);
#327=AXIS2_PLACEMENT_3D('',#524,#372,#373);
#328=AXIS2_PLACEMENT_3D('',#533,#375,#376);
#329=AXIS2_PLACEMENT_3D('',#535,#378,#379);
#330=AXIS2_PLACEMENT_3D('',#544,#384,#385);
#331=AXIS2_PLACEMENT_3D('',#550,#389,#390);
#332=AXIS2_PLACEMENT_3D('',#556,#394,#395);
#333=AXIS2_PLACEMENT_3D('',#559,#398,#399);
#334=AXIS2_PLACEMENT_3D('',#560,#400,#401);
#335=AXIS2_PLACEMENT_3D('',#561,#402,#403);
#336=AXIS2_PLACEMENT_3D('',#564,#406,#407);
#337=AXIS2_PLACEMENT_3D('',#565,#408,#409);
#338=AXIS2_PLACEMENT_3D('',#566,#410,#411);
#339=DIRECTION('axis',(0.,0.,1.));
#340=DIRECTION('refdir',(1.,0.,0.));
#341=DIRECTION('axis',(0.,0.,1.));
#342=DIRECTION('refdir',(1.,0.,0.));
#343=DIRECTION('center_axis',(0.,-1.,0.));
#344=DIRECTION('ref_axis',(-0.192841888687127,0.,0.981229843598115));
#345=DIRECTION('',(3.27998715595718E-6,-0.999999999994432,6.15030607028371E-7));
#346=DIRECTION('center_axis',(4.94367592460104E-8,-0.707106346293941,0.707107216078885));
#347=DIRECTION('ref_axis',(4.94366984326839E-8,0.707107216078887,0.707106346293939));
#348=DIRECTION('',(3.27998707008164E-6,0.999999999994432,-6.15031063242162E-7));
#349=DIRECTION('center_axis',(4.94366508737557E-8,0.707107216078891,0.707106346293935));
#350=DIRECTION('ref_axis',(4.94367116943724E-8,-0.707106346293937,0.707107216078889));
#351=DIRECTION('center_axis',(4.94367592460104E-8,-0.707106346293941,0.707107216078885));
#352=DIRECTION('ref_axis',(4.9436650873756E-8,0.707107216078887,0.707106346293939));
#353=DIRECTION('',(-0.999999999999998,-3.36314540765513E-14,6.99140587747593E-8));
#354=DIRECTION('',(-0.575570101240943,0.578238633518199,0.578237962489922));
#355=DIRECTION('',(-0.575570182094856,-0.578238633518222,-0.578237882009016));
#356=DIRECTION('',(-0.999999999999998,-3.36314540765513E-14,6.99140587747593E-8));
#357=DIRECTION('center_axis',(-6.99140587747254E-8,-6.15030836680986E-7,
-0.999999999999808));
#358=DIRECTION('ref_axis',(7.66307561405487E-14,-0.999999999999811,6.15030836680982E-7));
#359=DIRECTION('',(-0.999999999999998,-3.36314540765513E-14,6.99140587747593E-8));
#360=DIRECTION('',(6.12193268259052E-7,0.999999999999624,-6.15030879481788E-7));
#361=DIRECTION('center_axis',(-6.99140587747254E-8,-6.15030836680986E-7,
-0.999999999999808));
#362=DIRECTION('ref_axis',(7.66307561405487E-14,-0.999999999999811,6.15030836680982E-7));
#363=DIRECTION('',(6.12193345570165E-7,-0.999999999999624,6.15030793879951E-7));
#364=DIRECTION('',(-0.999999999999998,-3.36314540765513E-14,6.99140587747593E-8));
#365=DIRECTION('center_axis',(-7.66307561405487E-14,0.999999999999811,-6.15030836680982E-7));
#366=DIRECTION('ref_axis',(-6.99140587747254E-8,-6.15030836680986E-7,-0.999999999999808));
#367=DIRECTION('',(7.66307561405487E-14,-0.999999999999811,6.15030836680982E-7));
#368=DIRECTION('center_axis',(-7.66307561405487E-14,0.999999999999811,-6.15030836680982E-7));
#369=DIRECTION('ref_axis',(-0.999999999999998,-3.36314540765513E-14,6.99140587747593E-8));
#370=DIRECTION('',(1.80586459414305E-6,0.999999999995478,-2.40464733797225E-6));
#371=DIRECTION('',(-7.66307561405487E-14,0.999999999999811,-6.15030836680982E-7));
#372=DIRECTION('center_axis',(-0.999999999999989,-1.35637041781707E-7,-5.18001366647052E-8));
#373=DIRECTION('ref_axis',(1.32496512194406E-7,-0.70661094068036,-0.707602274240834));
#374=DIRECTION('',(-0.999999999999988,-1.35634799357486E-7,6.99141421943221E-8));
#375=DIRECTION('center_axis',(0.999999999999989,-1.36123039460355E-7,5.25792051967273E-8));
#376=DIRECTION('ref_axis',(5.2579121476851E-8,-6.15030836680977E-7,-0.999999999999809));
#377=DIRECTION('',(0.999999999999988,-1.36120970880061E-7,-6.99139750561434E-8));
#378=DIRECTION('center_axis',(-6.99140587747254E-8,-6.15030836680986E-7,
-0.999999999999808));
#379=DIRECTION('ref_axis',(7.66307561405487E-14,-0.999999999999811,6.15030836680982E-7));
#380=DIRECTION('',(-0.999999999999997,-2.6445671275529E-8,6.9914075039642E-8));
#381=DIRECTION('',(-7.66307561405487E-14,0.999999999999811,-6.15030836680982E-7));
#382=DIRECTION('',(-0.999999999999997,2.64456939043928E-8,6.99140425098214E-8));
#383=DIRECTION('',(-7.66307561405487E-14,0.999999999999811,-6.15030836680982E-7));
#384=DIRECTION('center_axis',(-5.18479343727371E-8,0.919144856966459,-0.393919702365984));
#385=DIRECTION('ref_axis',(-0.999999999999997,-2.6445671275529E-8,6.9914075039642E-8));
#386=DIRECTION('',(0.999999999999981,-2.64456799423359E-8,-1.93327078141323E-7));
#387=DIRECTION('',(6.42611343043784E-8,0.393919702365987,0.919144856966457));
#388=DIRECTION('',(-6.42611343043784E-8,-0.393919702365987,-0.919144856966457));
#389=DIRECTION('center_axis',(5.18479423578036E-8,0.919144856966459,0.393919702365984));
#390=DIRECTION('ref_axis',(-6.42611608005632E-8,0.393919702365987,-0.919144856966457));
#391=DIRECTION('',(-6.42611608005632E-8,0.393919702365987,-0.919144856966457));
#392=DIRECTION('',(-0.999999999999981,-2.64456851962093E-8,1.93327110671143E-7));
#393=DIRECTION('',(6.42611608005632E-8,-0.393919702365987,0.919144856966457));
#394=DIRECTION('center_axis',(-1.93327094406195E-7,-6.15030836680985E-7,
-0.999999999999792));
#395=DIRECTION('ref_axis',(7.66307561405487E-14,-0.999999999999811,6.15030836680982E-7));
#396=DIRECTION('',(7.66307561405487E-14,-0.999999999999811,6.15030836680982E-7));
#397=DIRECTION('',(-7.66307561405487E-14,0.999999999999811,-6.15030836680982E-7));
#398=DIRECTION('center_axis',(-0.999999999999998,-3.36314540765513E-14,
6.99140587747593E-8));
#399=DIRECTION('ref_axis',(7.66307561405487E-14,-0.999999999999811,6.15030836680982E-7));
#400=DIRECTION('center_axis',(0.999999999999998,3.36314540765513E-14,-6.99140587747593E-8));
#401=DIRECTION('ref_axis',(-6.99140587747254E-8,-6.15030836680986E-7,-0.999999999999808));
#402=DIRECTION('center_axis',(4.94366508737557E-8,0.707107216078891,0.707106346293935));
#403=DIRECTION('ref_axis',(-4.94367592460107E-8,0.707106346293937,-0.707107216078889));
#404=DIRECTION('',(-0.575570655539115,0.578237686619641,-0.578238357647639));
#405=DIRECTION('',(-0.575570574685116,-0.578237686619667,0.578238438128581));
#406=DIRECTION('center_axis',(0.708739874977855,-3.08692173783633E-15,0.705469906953071));
#407=DIRECTION('ref_axis',(0.705469906953004,-4.35896824236153E-7,-0.708739874977788));
#408=DIRECTION('center_axis',(-0.708739776333316,3.07025207649481E-15,0.705470006054829));
#409=DIRECTION('ref_axis',(0.705470006054762,4.35896871688113E-7,0.708739776333249));
#410=DIRECTION('',(0.,0.,1.));
#411=DIRECTION('',(1.,0.,0.));
#412=CARTESIAN_POINT('',(0.,0.,0.));
#413=CARTESIAN_POINT('',(0.,0.,0.));
#414=CARTESIAN_POINT('Origin',(-101.226748423756,-88.3605450057972,-457.21658007681));
#415=CARTESIAN_POINT('',(-125.119175030892,-97.1474667729711,-329.797384634585));
#416=CARTESIAN_POINT('',(-125.119088186285,-123.624585007412,-329.797368350347));
#417=CARTESIAN_POINT('',(-125.119131608587,-110.386025890191,-329.797376492465));
#418=CARTESIAN_POINT('',(-77.3343039998341,-97.1474667729695,-329.797387975419));
#419=CARTESIAN_POINT('Origin',(-101.226748423756,-224.566817278341,-457.21658007681));
#420=CARTESIAN_POINT('',(-77.3343908444386,-123.62458500741,-329.797371691169));
#421=CARTESIAN_POINT('',(-77.3343474221375,-110.386025890191,-329.797379833294));
#422=CARTESIAN_POINT('Origin',(-101.226748423756,3.79446831525097,-457.21658007681));
#423=CARTESIAN_POINT('Origin',(-16.2220854299415,-92.7542783482126,-325.404209227156));
#424=CARTESIAN_POINT('',(-177.459794599181,-97.1474667729728,-329.797380975239));
#425=CARTESIAN_POINT('',(-16.2220857370866,-97.1474667729674,-329.797392248022));
#426=CARTESIAN_POINT('',(-181.785770738016,-92.8014498474107,-325.451355692629));
#427=CARTESIAN_POINT('',(-185.649267823986,-88.9200244570231,-321.569948206985));
#428=CARTESIAN_POINT('',(-20.6679198661109,-92.8015757130184,-325.451506761434));
#429=CARTESIAN_POINT('Ctrl Pts',(-20.6679198234107,-92.8015459928003,-325.451476502775));
#430=CARTESIAN_POINT('Ctrl Pts',(-30.6480489350614,-92.7962965081508,-325.446226326831));
#431=CARTESIAN_POINT('Ctrl Pts',(-40.6338129706908,-92.7966191305459,-325.446548250684));
#432=CARTESIAN_POINT('Ctrl Pts',(-50.6195770065303,-92.796938252317,-325.446866673917));
#433=CARTESIAN_POINT('Ctrl Pts',(-94.3417877186647,-92.7983355123831,-325.448260875465));
#434=CARTESIAN_POINT('Ctrl Pts',(-138.063998435162,-92.7996651183108,-325.449587422959));
#435=CARTESIAN_POINT('Ctrl Pts',(-181.785770737885,-92.8014447641991,-325.45136400989));
#436=CARTESIAN_POINT('',(-24.9937043457496,-97.1474667729677,-329.797391634762));
#437=CARTESIAN_POINT('',(-16.8042299705203,-88.9200244570197,-321.569960011629));
#438=CARTESIAN_POINT('',(-16.2220857370866,-97.1474667729674,-329.797392248022));
#439=CARTESIAN_POINT('Origin',(-54.5934057758712,-110.386025890193,-329.797381423205));
#440=CARTESIAN_POINT('',(-177.459810808295,-123.624585007413,-329.797364690994));
#441=CARTESIAN_POINT('',(-16.2220857370845,-123.624585007408,-329.797375963778));
#442=CARTESIAN_POINT('',(-177.459802703692,-110.385950672206,-329.797372833163));
#443=CARTESIAN_POINT('Origin',(-54.5934057758712,-110.386025890193,-329.797381423205));
#444=CARTESIAN_POINT('',(-24.993688136634,-123.624585007408,-329.79737535052));
#445=CARTESIAN_POINT('',(-24.993678368869,-139.579944639415,-329.797365537482));
#446=CARTESIAN_POINT('',(-16.2220857370845,-123.624585007408,-329.797375963778));
#447=CARTESIAN_POINT('Origin',(-31.2267412711956,-132.938987497866,-314.797369186094));
#448=CARTESIAN_POINT('',(-20.6657717513078,-127.972540131771,-325.44940514341));
#449=CARTESIAN_POINT('',(-20.6681654590424,-93.8260638998689,-325.451804385448));
#450=CARTESIAN_POINT('Ctrl Pts',(-20.665762889061,-127.972530338747,-325.449401888161));
#451=CARTESIAN_POINT('Ctrl Pts',(-20.6681893001637,-116.588921919677,-325.451814560091));
#452=CARTESIAN_POINT('Ctrl Pts',(-20.6681775151363,-105.207492909773,-325.451809333169));
#453=CARTESIAN_POINT('Ctrl Pts',(-20.6681654590424,-93.8260638998689,-325.451804385448));
#454=CARTESIAN_POINT('Ctrl Pts',(-20.6681654590424,-93.8260638998689,-325.451804385448));
#455=CARTESIAN_POINT('Ctrl Pts',(-20.6681650966624,-93.4846558253833,-325.451804236304));
#456=CARTESIAN_POINT('Ctrl Pts',(-20.6681647342825,-93.1432477508977,-325.45180408716));
#457=CARTESIAN_POINT('Ctrl Pts',(-20.6679199422882,-92.8016287339614,-325.451560742955));
#458=CARTESIAN_POINT('',(-16.226741271199,-88.3606291681152,-314.79739765187));
#459=CARTESIAN_POINT('Ctrl Pts',(-20.6678679657329,-92.8016272210805,-325.451510189888));
#460=CARTESIAN_POINT('Ctrl Pts',(-20.6519575448784,-92.7857169409255,-325.435742010832));
#461=CARTESIAN_POINT('Ctrl Pts',(-20.6360738766622,-92.7698334141504,-325.419929699364));
#462=CARTESIAN_POINT('Ctrl Pts',(-20.0228532957014,-92.1566183316301,-324.80671848665));
#463=CARTESIAN_POINT('Ctrl Pts',(-19.4356970775277,-91.5694687675136,-324.117016943054));
#464=CARTESIAN_POINT('Ctrl Pts',(-18.3641887263348,-90.4979762204013,-322.571636431236));
#465=CARTESIAN_POINT('Ctrl Pts',(-17.8799371281603,-90.0137337711628,-321.715818057099));
#466=CARTESIAN_POINT('Ctrl Pts',(-17.0790822561261,-89.2128998314692,-319.881244045522));
#467=CARTESIAN_POINT('Ctrl Pts',(-16.7616923762735,-88.8955217639448,-318.900122752031));
#468=CARTESIAN_POINT('Ctrl Pts',(-16.3354451211484,-88.4693012502424,-316.875689844912));
#469=CARTESIAN_POINT('Ctrl Pts',(-16.2267587360516,-88.3606298033624,-315.832306235031));
#470=CARTESIAN_POINT('Ctrl Pts',(-16.2267412719171,-88.3606291669675,-314.797565730703));
#471=CARTESIAN_POINT('Ctrl Pts',(-16.2267412712049,-88.3606291676221,-314.797481691315));
#472=CARTESIAN_POINT('Ctrl Pts',(-16.2267412711991,-88.3606291689829,-314.79739765187));
#473=CARTESIAN_POINT('',(-16.2267412711956,-132.41140732962,-314.797370559283));
#474=CARTESIAN_POINT('',(-16.2267412711956,-132.938987497865,-314.797370234805));
#475=CARTESIAN_POINT('Ctrl Pts',(-16.2267412711957,-132.41140732884,-314.797370559283));
#476=CARTESIAN_POINT('Ctrl Pts',(-16.2267412712017,-132.411407330358,-314.797456150001));
#477=CARTESIAN_POINT('Ctrl Pts',(-16.2267412719402,-132.411407331143,-314.79754174066));
#478=CARTESIAN_POINT('Ctrl Pts',(-16.2267590571432,-132.411407967544,-315.832284327879));
#479=CARTESIAN_POINT('Ctrl Pts',(-16.3354458757537,-132.302737714442,-316.87566853702));
#480=CARTESIAN_POINT('Ctrl Pts',(-16.7616941665033,-131.876519410268,-318.900102752914));
#481=CARTESIAN_POINT('Ctrl Pts',(-17.0790846485978,-131.559142358562,-319.881224755761));
#482=CARTESIAN_POINT('Ctrl Pts',(-17.8799408472147,-130.75831026951,-321.715800243562));
#483=CARTESIAN_POINT('Ctrl Pts',(-18.3641931713074,-130.274068657638,-322.571619385449));
#484=CARTESIAN_POINT('Ctrl Pts',(-19.4357030637492,-129.202577635484,-324.117001424167));
#485=CARTESIAN_POINT('Ctrl Pts',(-20.0228600978469,-128.615428759427,-324.80670372669));
#486=CARTESIAN_POINT('Ctrl Pts',(-20.635380205485,-128.002915667541,-325.419214347071));
#487=CARTESIAN_POINT('Ctrl Pts',(-20.6505602086064,-127.987735837368,-325.434329152623));
#488=CARTESIAN_POINT('Ctrl Pts',(-20.6657646615247,-127.972531556757,-325.449403645473));
#489=CARTESIAN_POINT('Origin',(-171.226755576311,-118.401818162925,-314.797368338932));
#490=CARTESIAN_POINT('',(-181.785315272907,-122.801673875876,-325.451797202375));
#491=CARTESIAN_POINT('Ctrl Pts',(-181.785317500422,-122.801673875877,-325.451799450115));
#492=CARTESIAN_POINT('Ctrl Pts',(-181.785332878253,-112.80174054255,-325.451793121092));
#493=CARTESIAN_POINT('Ctrl Pts',(-181.785332878253,-102.801807209224,-325.451793121092));
#494=CARTESIAN_POINT('Ctrl Pts',(-181.785777101412,-92.8014692421422,-325.45133933264));
#495=CARTESIAN_POINT('',(-181.785313317231,-127.970126883403,-325.45180450784));
#496=CARTESIAN_POINT('',(-181.78532237887,-127.970099932288,-325.451782526392));
#497=CARTESIAN_POINT('',(-186.22675557631,-132.411430387281,-314.797358673878));
#498=CARTESIAN_POINT('Ctrl Pts',(-181.785300283347,-127.970139833457,-325.451804423061));
#499=CARTESIAN_POINT('Ctrl Pts',(-182.216004981253,-128.400838335462,-325.024976097005));
#500=CARTESIAN_POINT('Ctrl Pts',(-182.62877286145,-128.813599627014,-324.564218083667));
#501=CARTESIAN_POINT('Ctrl Pts',(-184.027150512171,-130.211952007356,-322.785681625452));
#502=CARTESIAN_POINT('Ctrl Pts',(-184.881505237622,-131.066285663071,-321.26815533468));
#503=CARTESIAN_POINT('Ctrl Pts',(-185.822294176198,-132.007031943466,-318.444352130815));
#504=CARTESIAN_POINT('Ctrl Pts',(-186.067642754287,-132.252362247187,-317.287061662046));
#505=CARTESIAN_POINT('Ctrl Pts',(-186.208263677562,-132.392954518812,-315.657706945934));
#506=CARTESIAN_POINT('Ctrl Pts',(-186.226755606375,-132.411438605813,-315.227384259916));
#507=CARTESIAN_POINT('Ctrl Pts',(-186.22675557631,-132.411430386758,-314.797358673878));
#508=CARTESIAN_POINT('',(-186.226755576314,-88.3606060278059,-314.797385766493));
#509=CARTESIAN_POINT('',(-186.226755576311,-118.401818162926,-314.797367290221));
#510=CARTESIAN_POINT('Ctrl Pts',(-186.226755576313,-88.3606060284159,-314.797385766493));
#511=CARTESIAN_POINT('Ctrl Pts',(-186.22675557632,-88.3606060268164,-314.797476747229));
#512=CARTESIAN_POINT('Ctrl Pts',(-186.226755575498,-88.3606060260446,-314.797567727898));
#513=CARTESIAN_POINT('Ctrl Pts',(-186.226736819423,-88.3606066624492,-315.832316019022));
#514=CARTESIAN_POINT('Ctrl Pts',(-186.118048958583,-88.4692783123953,-316.875700262728));
#515=CARTESIAN_POINT('Ctrl Pts',(-185.691798546614,-88.895499416015,-318.900134042164));
#516=CARTESIAN_POINT('Ctrl Pts',(-185.374406985204,-89.2128778703099,-319.881255574354));
#517=CARTESIAN_POINT('Ctrl Pts',(-184.573548649408,-90.0137125742083,-321.715829735007));
#518=CARTESIAN_POINT('Ctrl Pts',(-184.089295265439,-90.4979554008194,-322.571648016446));
#519=CARTESIAN_POINT('Ctrl Pts',(-183.017783288982,-91.5694485188828,-324.117028092719));
#520=CARTESIAN_POINT('Ctrl Pts',(-182.430625229845,-92.1565982759248,-324.806729293197));
#521=CARTESIAN_POINT('Ctrl Pts',(-181.817456529828,-92.7697595976522,-325.419886292789));
#522=CARTESIAN_POINT('Ctrl Pts',(-181.801626790062,-92.7855891478038,-325.435645097997));
#523=CARTESIAN_POINT('Ctrl Pts',(-181.78577048523,-92.8014452635666,-325.451360062585));
#524=CARTESIAN_POINT('Origin',(-77.8833417442027,-117.411700742806,-314.797639750366));
#525=CARTESIAN_POINT('Ctrl Pts',(-181.785312082062,-127.970125469735,-325.451818657699));
#526=CARTESIAN_POINT('Ctrl Pts',(-171.801476258979,-127.970401346926,-325.451543401005));
#527=CARTESIAN_POINT('Ctrl Pts',(-161.817695928141,-127.970688290732,-325.451257155302));
#528=CARTESIAN_POINT('Ctrl Pts',(-151.833915597471,-127.970977909527,-325.450968234156));
#529=CARTESIAN_POINT('Ctrl Pts',(-108.110395651974,-127.972246282105,-325.449702916904));
#530=CARTESIAN_POINT('Ctrl Pts',(-64.3868757093331,-127.973565407509,-325.448386764564));
#531=CARTESIAN_POINT('Ctrl Pts',(-20.6657717514972,-127.972531097762,-325.449404100551));
#532=CARTESIAN_POINT('',(-101.226748423761,-132.411418857786,-314.79736461658));
#533=CARTESIAN_POINT('Origin',(-127.244253941764,-103.360326143118,-314.79764638196));
#534=CARTESIAN_POINT('',(-101.226748423765,-88.3606175987128,-314.797391709181));
#535=CARTESIAN_POINT('Origin',(-105.089248614489,-110.386013088453,-314.797377892841));
#536=CARTESIAN_POINT('',(-21.7267412711976,-106.87559642024,-314.797385880374));
#537=CARTESIAN_POINT('',(-180.726755576312,-106.875600624636,-314.797374763728));
#538=CARTESIAN_POINT('',(-107.020498737715,-106.875598675424,-314.797379916832));
#539=CARTESIAN_POINT('',(-21.7267412711971,-113.896427372483,-314.797381562346));
#540=CARTESIAN_POINT('',(-21.7267412711973,-110.38601308845,-314.797383721052));
#541=CARTESIAN_POINT('',(-180.726755576312,-113.896423168083,-314.797370445705));
#542=CARTESIAN_POINT('',(-107.020498737715,-113.896425117296,-314.797375598808));
#543=CARTESIAN_POINT('',(-180.726755576312,-110.386013088456,-314.797372604716));
#544=CARTESIAN_POINT('Origin',(-108.951748576256,-105.472026537104,-311.522381980194));
#545=CARTESIAN_POINT('',(-21.7267408132617,-104.068456654028,-308.247401041265));
#546=CARTESIAN_POINT('',(-180.726755118375,-104.068452449572,-308.247370302525));
#547=CARTESIAN_POINT('',(-108.951748043104,-104.068454347711,-308.247384178578));
#548=CARTESIAN_POINT('',(-21.7267215650343,13.9228623802243,-32.9346573376526));
#549=CARTESIAN_POINT('',(-180.726755471735,-106.234541910137,-313.301572911457));
#550=CARTESIAN_POINT('Origin',(-108.951748576255,-115.299997995537,-311.522375935689));
#551=CARTESIAN_POINT('',(-21.7267408132607,-116.703568618535,-308.247393270281));
#552=CARTESIAN_POINT('',(-21.7267410422286,-115.299999944321,-311.522382869138));
#553=CARTESIAN_POINT('',(-180.726755118374,-116.703572822991,-308.247362531537));
#554=CARTESIAN_POINT('',(-108.951748043103,-116.703570924852,-308.247376407592));
#555=CARTESIAN_POINT('',(-180.726755347343,-115.299996391938,-311.522370230348));
#556=CARTESIAN_POINT('Origin',(-108.951748347287,-110.386012636282,-308.247380293085));
#557=CARTESIAN_POINT('',(-21.7267408132612,-110.386012636285,-308.247397156042));
#558=CARTESIAN_POINT('',(-180.726755118374,-110.386012636279,-308.247366417031));
#559=CARTESIAN_POINT('Origin',(-180.726755347343,-110.38601226632,-311.522369171488));
#560=CARTESIAN_POINT('Origin',(-21.7267208080823,-11.3398256805077,-22.1077778894097));
#561=CARTESIAN_POINT('Origin',(-16.2220854299388,-128.017768028273,-325.404187539023));
#562=CARTESIAN_POINT('',(-16.8042346458145,-131.851986101676,-321.569964708593));
#563=CARTESIAN_POINT('',(-185.649263148689,-131.85198610168,-321.569952903953));
#564=CARTESIAN_POINT('Origin',(-181.785332878254,-139.57993931871,-325.451793121092));
#565=CARTESIAN_POINT('Origin',(-20.6681654590426,-139.579939318711,-325.451804385448));
#566=CARTESIAN_POINT('',(0.,0.,0.));
#567=UNCERTAINTY_MEASURE_WITH_UNIT(LENGTH_MEASURE(0.01),#573,
'DISTANCE_ACCURACY_VALUE',
'Maximum model space distance between geometric entities at asserted c
onnectivities');
#568=UNCERTAINTY_MEASURE_WITH_UNIT(LENGTH_MEASURE(0.01),#573,
'DISTANCE_ACCURACY_VALUE',
'Maximum model space distance between geometric entities at asserted c
onnectivities');
#569=UNCERTAINTY_MEASURE_WITH_UNIT(LENGTH_MEASURE(0.01),#573,
'DISTANCE_ACCURACY_VALUE',
'Maximum model space distance between geometric entities at asserted c
onnectivities');
#570=(
GEOMETRIC_REPRESENTATION_CONTEXT(3)
GLOBAL_UNCERTAINTY_ASSIGNED_CONTEXT((#567))
GLOBAL_UNIT_ASSIGNED_CONTEXT((#573,#575,#576))
REPRESENTATION_CONTEXT('','3D')
);
#571=(
GEOMETRIC_REPRESENTATION_CONTEXT(3)
GLOBAL_UNCERTAINTY_ASSIGNED_CONTEXT((#568))
GLOBAL_UNIT_ASSIGNED_CONTEXT((#573,#575,#576))
REPRESENTATION_CONTEXT('','3D')
);
#572=(
GEOMETRIC_REPRESENTATION_CONTEXT(3)
GLOBAL_UNCERTAINTY_ASSIGNED_CONTEXT((#569))
GLOBAL_UNIT_ASSIGNED_CONTEXT((#573,#575,#576))
REPRESENTATION_CONTEXT('','3D')
);
#573=(
LENGTH_UNIT()
NAMED_UNIT(*)
SI_UNIT(.MILLI.,.METRE.)
);
#574=(
LENGTH_UNIT()
NAMED_UNIT(*)
SI_UNIT($,.METRE.)
);
#575=(
NAMED_UNIT(*)
PLANE_ANGLE_UNIT()
SI_UNIT($,.RADIAN.)
);
#576=(
NAMED_UNIT(*)
SI_UNIT($,.STERADIAN.)
SOLID_ANGLE_UNIT()
);
#577=SHAPE_DEFINITION_REPRESENTATION(#579,#582);
#578=SHAPE_DEFINITION_REPRESENTATION(#580,#583);
#579=PRODUCT_DEFINITION_SHAPE('',$,#585);
#580=PRODUCT_DEFINITION_SHAPE('',$,#586);
#581=PRODUCT_DEFINITION_SHAPE($,$,#14);
#582=SHAPE_REPRESENTATION('',(#317,#338),#570);
#583=SHAPE_REPRESENTATION('',(#318),#571);
#584=PRODUCT_DEFINITION_CONTEXT('part definition',#592,'design');
#585=PRODUCT_DEFINITION('Leg (right)','Leg (right) v74',#587,#584);
#586=PRODUCT_DEFINITION('Foot','Foot',#588,#584);
#587=PRODUCT_DEFINITION_FORMATION('',$,#594);
#588=PRODUCT_DEFINITION_FORMATION('',$,#595);
#589=PRODUCT_RELATED_PRODUCT_CATEGORY('Leg (right) v74',
'Leg (right) v74',(#594));
#590=PRODUCT_RELATED_PRODUCT_CATEGORY('Foot','Foot',(#595));
#591=APPLICATION_PROTOCOL_DEFINITION('international standard',
'automotive_design',2009,#592);
#592=APPLICATION_CONTEXT(
'Core Data for Automotive Mechanical Design Process');
#593=PRODUCT_CONTEXT('part definition',#592,'mechanical');
#594=PRODUCT('Leg (right)','Leg (right) v74',$,(#593));
#595=PRODUCT('Foot','Foot',$,(#593));
#596=PRESENTATION_STYLE_ASSIGNMENT((#602));
#597=PRESENTATION_STYLE_ASSIGNMENT((#603));
#598=PRESENTATION_STYLE_ASSIGNMENT((#604));
#599=PRESENTATION_STYLE_ASSIGNMENT((#605));
#600=PRESENTATION_STYLE_ASSIGNMENT((#606));
#601=PRESENTATION_STYLE_ASSIGNMENT((#607));
#602=SURFACE_STYLE_USAGE(.BOTH.,#608);
#603=SURFACE_STYLE_USAGE(.BOTH.,#609);
#604=SURFACE_STYLE_USAGE(.BOTH.,#610);
#605=SURFACE_STYLE_USAGE(.BOTH.,#611);
#606=SURFACE_STYLE_USAGE(.BOTH.,#612);
#607=SURFACE_STYLE_USAGE(.BOTH.,#613);
#608=SURFACE_SIDE_STYLE('',(#614));
#609=SURFACE_SIDE_STYLE('',(#615));
#610=SURFACE_SIDE_STYLE('',(#616));
#611=SURFACE_SIDE_STYLE('',(#617));
#612=SURFACE_SIDE_STYLE('',(#618));
#613=SURFACE_SIDE_STYLE('',(#619));
#614=SURFACE_STYLE_FILL_AREA(#620);
#615=SURFACE_STYLE_FILL_AREA(#621);
#616=SURFACE_STYLE_FILL_AREA(#622);
#617=SURFACE_STYLE_FILL_AREA(#623);
#618=SURFACE_STYLE_FILL_AREA(#624);
#619=SURFACE_STYLE_FILL_AREA(#625);
#620=FILL_AREA_STYLE('Steel - Satin',(#626));
#621=FILL_AREA_STYLE('Plate',(#627));
#622=FILL_AREA_STYLE('ABS (White)',(#628));
#623=FILL_AREA_STYLE('Aluminum - Satin',(#629));
#624=FILL_AREA_STYLE('ABS (White) (1)',(#630));
#625=FILL_AREA_STYLE('Rubber - Soft',(#631));
#626=FILL_AREA_STYLE_COLOUR('Steel - Satin',#632);
#627=FILL_AREA_STYLE_COLOUR('Plate',#633);
#628=FILL_AREA_STYLE_COLOUR('ABS (White)',#634);
#629=FILL_AREA_STYLE_COLOUR('Aluminum - Satin',#635);
#630=FILL_AREA_STYLE_COLOUR('ABS (White) (1)',#636);
#631=FILL_AREA_STYLE_COLOUR('Rubber - Soft',#637);
#632=COLOUR_RGB('Steel - Satin',0.627450980392157,0.627450980392157,0.627450980392157);
#633=COLOUR_RGB('Plate',0.6,0.6,0.6);
#634=COLOUR_RGB('ABS (White)',0.964705882352941,0.964705882352941,0.952941176470588);
#635=COLOUR_RGB('Aluminum - Satin',0.96078431372549,0.96078431372549,0.964705882352941);
#636=COLOUR_RGB('ABS (White) (1)',0.905882352941176,0.262745098039216,0.184313725490196);
#637=COLOUR_RGB('Rubber - Soft',0.152941176470588,0.152941176470588,0.152941176470588);
ENDSEC;
END-ISO-10303-21;
