ISO-10303-21;
HEADER;
/* Generated by software containing ST-Developer
 * from STEP Tools, Inc. (www.steptools.com) 
 */

FILE_DESCRIPTION(
/* description */ (''),
/* implementation_level */ '2;1');

FILE_NAME(
/* name */ 'ActuatorSpacer.step',
/* time_stamp */ '2026-08-13T12:52:08-04:00',
/* author */ (''),
/* organization */ (''),
/* preprocessor_version */ 'ST-DEVELOPER v20.1',
/* originating_system */ 'Autodesk Translation Framework v15.8.0.0',
/* authorisation */ '');

FILE_SCHEMA (('AUTOMOTIVE_DESIGN { 1 0 10303 214 3 1 1 }'));
ENDSEC;

DATA;
#10=MECHANICAL_DESIGN_GEOMETRIC_PRESENTATION_REPRESENTATION('',(#17),#334);
#11=ITEM_DEFINED_TRANSFORMATION($,$,#198,#222);
#12=(
REPRESENTATION_RELATIONSHIP($,$,#345,#344)
REPRESENTATION_RELATIONSHIP_WITH_TRANSFORMATION(#11)
SHAPE_REPRESENTATION_RELATIONSHIP()
);
#13=CONTEXT_DEPENDENT_SHAPE_REPRESENTATION(#12,#343);
#14=NEXT_ASSEMBLY_USAGE_OCCURRENCE('Shin:1','Shin:1','Shin:1',#347,#348,
'Shin:1');
#15=SHAPE_REPRESENTATION_RELATIONSHIP('SRR','None',#345,#16);
#16=ADVANCED_BREP_SHAPE_REPRESENTATION('',(#18),#333);
#17=STYLED_ITEM('',(#360),#18);
#18=MANIFOLD_SOLID_BREP('PlasticSpacer',#184);
#19=FACE_BOUND('',#50,.T.);
#20=FACE_BOUND('',#51,.T.);
#21=FACE_BOUND('',#52,.T.);
#22=FACE_BOUND('',#53,.T.);
#23=FACE_BOUND('',#54,.T.);
#24=FACE_BOUND('',#55,.T.);
#25=FACE_BOUND('',#57,.T.);
#26=FACE_BOUND('',#58,.T.);
#27=FACE_BOUND('',#59,.T.);
#28=FACE_BOUND('',#60,.T.);
#29=FACE_BOUND('',#61,.T.);
#30=FACE_BOUND('',#62,.T.);
#31=PLANE('',#220);
#32=PLANE('',#221);
#33=FACE_OUTER_BOUND('',#42,.T.);
#34=FACE_OUTER_BOUND('',#43,.T.);
#35=FACE_OUTER_BOUND('',#44,.T.);
#36=FACE_OUTER_BOUND('',#45,.T.);
#37=FACE_OUTER_BOUND('',#46,.T.);
#38=FACE_OUTER_BOUND('',#47,.T.);
#39=FACE_OUTER_BOUND('',#48,.T.);
#40=FACE_OUTER_BOUND('',#49,.T.);
#41=FACE_OUTER_BOUND('',#56,.T.);
#42=EDGE_LOOP('',(#126,#127,#128,#129));
#43=EDGE_LOOP('',(#130,#131,#132,#133));
#44=EDGE_LOOP('',(#134,#135,#136,#137));
#45=EDGE_LOOP('',(#138,#139,#140,#141));
#46=EDGE_LOOP('',(#142,#143,#144,#145));
#47=EDGE_LOOP('',(#146,#147,#148,#149));
#48=EDGE_LOOP('',(#150,#151,#152,#153));
#49=EDGE_LOOP('',(#154));
#50=EDGE_LOOP('',(#155));
#51=EDGE_LOOP('',(#156));
#52=EDGE_LOOP('',(#157));
#53=EDGE_LOOP('',(#158));
#54=EDGE_LOOP('',(#159));
#55=EDGE_LOOP('',(#160));
#56=EDGE_LOOP('',(#161));
#57=EDGE_LOOP('',(#162));
#58=EDGE_LOOP('',(#163));
#59=EDGE_LOOP('',(#164));
#60=EDGE_LOOP('',(#165));
#61=EDGE_LOOP('',(#166));
#62=EDGE_LOOP('',(#167));
#63=LINE('',#288,#70);
#64=LINE('',#294,#71);
#65=LINE('',#300,#72);
#66=LINE('',#306,#73);
#67=LINE('',#312,#74);
#68=LINE('',#318,#75);
#69=LINE('',#324,#76);
#70=VECTOR('',#231,2.15);
#71=VECTOR('',#238,2.15);
#72=VECTOR('',#245,2.15);
#73=VECTOR('',#252,2.15);
#74=VECTOR('',#259,2.15);
#75=VECTOR('',#266,2.15);
#76=VECTOR('',#273,18.5);
#77=CIRCLE('',#200,2.15);
#78=CIRCLE('',#201,2.15);
#79=CIRCLE('',#203,2.15);
#80=CIRCLE('',#204,2.15);
#81=CIRCLE('',#206,2.15);
#82=CIRCLE('',#207,2.15);
#83=CIRCLE('',#209,2.15);
#84=CIRCLE('',#210,2.15);
#85=CIRCLE('',#212,2.15);
#86=CIRCLE('',#213,2.15);
#87=CIRCLE('',#215,2.15);
#88=CIRCLE('',#216,2.15);
#89=CIRCLE('',#218,23.5);
#90=CIRCLE('',#219,23.5);
#91=VERTEX_POINT('',#285);
#92=VERTEX_POINT('',#287);
#93=VERTEX_POINT('',#291);
#94=VERTEX_POINT('',#293);
#95=VERTEX_POINT('',#297);
#96=VERTEX_POINT('',#299);
#97=VERTEX_POINT('',#303);
#98=VERTEX_POINT('',#305);
#99=VERTEX_POINT('',#309);
#100=VERTEX_POINT('',#311);
#101=VERTEX_POINT('',#315);
#102=VERTEX_POINT('',#317);
#103=VERTEX_POINT('',#321);
#104=VERTEX_POINT('',#323);
#105=EDGE_CURVE('',#91,#91,#77,.T.);
#106=EDGE_CURVE('',#91,#92,#63,.T.);
#107=EDGE_CURVE('',#92,#92,#78,.T.);
#108=EDGE_CURVE('',#93,#93,#79,.T.);
#109=EDGE_CURVE('',#93,#94,#64,.T.);
#110=EDGE_CURVE('',#94,#94,#80,.T.);
#111=EDGE_CURVE('',#95,#95,#81,.T.);
#112=EDGE_CURVE('',#95,#96,#65,.T.);
#113=EDGE_CURVE('',#96,#96,#82,.T.);
#114=EDGE_CURVE('',#97,#97,#83,.T.);
#115=EDGE_CURVE('',#97,#98,#66,.T.);
#116=EDGE_CURVE('',#98,#98,#84,.T.);
#117=EDGE_CURVE('',#99,#99,#85,.T.);
#118=EDGE_CURVE('',#99,#100,#67,.T.);
#119=EDGE_CURVE('',#100,#100,#86,.T.);
#120=EDGE_CURVE('',#101,#101,#87,.T.);
#121=EDGE_CURVE('',#101,#102,#68,.T.);
#122=EDGE_CURVE('',#102,#102,#88,.T.);
#123=EDGE_CURVE('',#103,#103,#89,.F.);
#124=EDGE_CURVE('',#103,#104,#69,.T.);
#125=EDGE_CURVE('',#104,#104,#90,.F.);
#126=ORIENTED_EDGE('',*,*,#105,.F.);
#127=ORIENTED_EDGE('',*,*,#106,.T.);
#128=ORIENTED_EDGE('',*,*,#107,.F.);
#129=ORIENTED_EDGE('',*,*,#106,.F.);
#130=ORIENTED_EDGE('',*,*,#108,.F.);
#131=ORIENTED_EDGE('',*,*,#109,.T.);
#132=ORIENTED_EDGE('',*,*,#110,.F.);
#133=ORIENTED_EDGE('',*,*,#109,.F.);
#134=ORIENTED_EDGE('',*,*,#111,.F.);
#135=ORIENTED_EDGE('',*,*,#112,.T.);
#136=ORIENTED_EDGE('',*,*,#113,.F.);
#137=ORIENTED_EDGE('',*,*,#112,.F.);
#138=ORIENTED_EDGE('',*,*,#114,.F.);
#139=ORIENTED_EDGE('',*,*,#115,.T.);
#140=ORIENTED_EDGE('',*,*,#116,.F.);
#141=ORIENTED_EDGE('',*,*,#115,.F.);
#142=ORIENTED_EDGE('',*,*,#117,.F.);
#143=ORIENTED_EDGE('',*,*,#118,.T.);
#144=ORIENTED_EDGE('',*,*,#119,.F.);
#145=ORIENTED_EDGE('',*,*,#118,.F.);
#146=ORIENTED_EDGE('',*,*,#120,.F.);
#147=ORIENTED_EDGE('',*,*,#121,.T.);
#148=ORIENTED_EDGE('',*,*,#122,.F.);
#149=ORIENTED_EDGE('',*,*,#121,.F.);
#150=ORIENTED_EDGE('',*,*,#123,.F.);
#151=ORIENTED_EDGE('',*,*,#124,.T.);
#152=ORIENTED_EDGE('',*,*,#125,.T.);
#153=ORIENTED_EDGE('',*,*,#124,.F.);
#154=ORIENTED_EDGE('',*,*,#123,.T.);
#155=ORIENTED_EDGE('',*,*,#122,.T.);
#156=ORIENTED_EDGE('',*,*,#119,.T.);
#157=ORIENTED_EDGE('',*,*,#116,.T.);
#158=ORIENTED_EDGE('',*,*,#113,.T.);
#159=ORIENTED_EDGE('',*,*,#110,.T.);
#160=ORIENTED_EDGE('',*,*,#107,.T.);
#161=ORIENTED_EDGE('',*,*,#125,.F.);
#162=ORIENTED_EDGE('',*,*,#120,.T.);
#163=ORIENTED_EDGE('',*,*,#117,.T.);
#164=ORIENTED_EDGE('',*,*,#114,.T.);
#165=ORIENTED_EDGE('',*,*,#111,.T.);
#166=ORIENTED_EDGE('',*,*,#108,.T.);
#167=ORIENTED_EDGE('',*,*,#105,.T.);
#168=CYLINDRICAL_SURFACE('',#199,2.15);
#169=CYLINDRICAL_SURFACE('',#202,2.15);
#170=CYLINDRICAL_SURFACE('',#205,2.15);
#171=CYLINDRICAL_SURFACE('',#208,2.15);
#172=CYLINDRICAL_SURFACE('',#211,2.15);
#173=CYLINDRICAL_SURFACE('',#214,2.15);
#174=CYLINDRICAL_SURFACE('',#217,23.5);
#175=ADVANCED_FACE('',(#33),#168,.F.);
#176=ADVANCED_FACE('',(#34),#169,.F.);
#177=ADVANCED_FACE('',(#35),#170,.F.);
#178=ADVANCED_FACE('',(#36),#171,.F.);
#179=ADVANCED_FACE('',(#37),#172,.F.);
#180=ADVANCED_FACE('',(#38),#173,.F.);
#181=ADVANCED_FACE('',(#39),#174,.T.);
#182=ADVANCED_FACE('',(#40,#19,#20,#21,#22,#23,#24),#31,.T.);
#183=ADVANCED_FACE('',(#41,#25,#26,#27,#28,#29,#30),#32,.F.);
#184=CLOSED_SHELL('',(#175,#176,#177,#178,#179,#180,#181,#182,#183));
#185=DERIVED_UNIT_ELEMENT(#187,1.);
#186=DERIVED_UNIT_ELEMENT(#336,-3.);
#187=(
MASS_UNIT()
NAMED_UNIT(*)
SI_UNIT(.KILO.,.GRAM.)
);
#188=DERIVED_UNIT((#185,#186));
#189=MEASURE_REPRESENTATION_ITEM('density measure',
POSITIVE_RATIO_MEASURE(7850.),#188);
#190=PROPERTY_DEFINITION_REPRESENTATION(#195,#192);
#191=PROPERTY_DEFINITION_REPRESENTATION(#196,#193);
#192=REPRESENTATION('material name',(#194),#333);
#193=REPRESENTATION('density',(#189),#333);
#194=DESCRIPTIVE_REPRESENTATION_ITEM('Steel','Steel');
#195=PROPERTY_DEFINITION('material property','material name',#348);
#196=PROPERTY_DEFINITION('material property','density of part',#348);
#197=AXIS2_PLACEMENT_3D('',#282,#223,#224);
#198=AXIS2_PLACEMENT_3D('',#283,#225,#226);
#199=AXIS2_PLACEMENT_3D('',#284,#227,#228);
#200=AXIS2_PLACEMENT_3D('',#286,#229,#230);
#201=AXIS2_PLACEMENT_3D('',#289,#232,#233);
#202=AXIS2_PLACEMENT_3D('',#290,#234,#235);
#203=AXIS2_PLACEMENT_3D('',#292,#236,#237);
#204=AXIS2_PLACEMENT_3D('',#295,#239,#240);
#205=AXIS2_PLACEMENT_3D('',#296,#241,#242);
#206=AXIS2_PLACEMENT_3D('',#298,#243,#244);
#207=AXIS2_PLACEMENT_3D('',#301,#246,#247);
#208=AXIS2_PLACEMENT_3D('',#302,#248,#249);
#209=AXIS2_PLACEMENT_3D('',#304,#250,#251);
#210=AXIS2_PLACEMENT_3D('',#307,#253,#254);
#211=AXIS2_PLACEMENT_3D('',#308,#255,#256);
#212=AXIS2_PLACEMENT_3D('',#310,#257,#258);
#213=AXIS2_PLACEMENT_3D('',#313,#260,#261);
#214=AXIS2_PLACEMENT_3D('',#314,#262,#263);
#215=AXIS2_PLACEMENT_3D('',#316,#264,#265);
#216=AXIS2_PLACEMENT_3D('',#319,#267,#268);
#217=AXIS2_PLACEMENT_3D('',#320,#269,#270);
#218=AXIS2_PLACEMENT_3D('',#322,#271,#272);
#219=AXIS2_PLACEMENT_3D('',#325,#274,#275);
#220=AXIS2_PLACEMENT_3D('',#326,#276,#277);
#221=AXIS2_PLACEMENT_3D('',#327,#278,#279);
#222=AXIS2_PLACEMENT_3D('',#328,#280,#281);
#223=DIRECTION('axis',(0.,0.,1.));
#224=DIRECTION('refdir',(1.,0.,0.));
#225=DIRECTION('axis',(0.,0.,1.));
#226=DIRECTION('refdir',(1.,0.,0.));
#227=DIRECTION('center_axis',(0.,-1.,0.));
#228=DIRECTION('ref_axis',(-0.999887782900255,0.,0.014980707820841));
#229=DIRECTION('center_axis',(2.43991249829558E-32,-1.,1.92592994438724E-34));
#230=DIRECTION('ref_axis',(-0.999887782900255,0.,0.014980707820841));
#231=DIRECTION('',(0.,-1.,0.));
#232=DIRECTION('center_axis',(-2.43991249829558E-32,1.,-1.92592994438724E-34));
#233=DIRECTION('ref_axis',(-0.999887782900255,0.,0.014980707820841));
#234=DIRECTION('center_axis',(0.,-1.,0.));
#235=DIRECTION('ref_axis',(-0.999887782900255,0.,0.014980707820841));
#236=DIRECTION('center_axis',(2.43991249829558E-32,-1.,1.92592994438724E-34));
#237=DIRECTION('ref_axis',(-0.999887782900255,0.,0.014980707820841));
#238=DIRECTION('',(0.,-1.,0.));
#239=DIRECTION('center_axis',(-2.43991249829558E-32,1.,-1.92592994438724E-34));
#240=DIRECTION('ref_axis',(-0.999887782900255,0.,0.014980707820841));
#241=DIRECTION('center_axis',(0.,-1.,0.));
#242=DIRECTION('ref_axis',(-0.999887782900255,0.,0.014980707820841));
#243=DIRECTION('center_axis',(2.43991249829558E-32,-1.,1.92592994438724E-34));
#244=DIRECTION('ref_axis',(-0.999887782900255,0.,0.014980707820841));
#245=DIRECTION('',(0.,-1.,0.));
#246=DIRECTION('center_axis',(-2.43991249829558E-32,1.,-1.92592994438724E-34));
#247=DIRECTION('ref_axis',(-0.999887782900255,0.,0.014980707820841));
#248=DIRECTION('center_axis',(0.,-1.,0.));
#249=DIRECTION('ref_axis',(-0.999887782900255,0.,0.014980707820841));
#250=DIRECTION('center_axis',(2.43991249829558E-32,-1.,1.92592994438724E-34));
#251=DIRECTION('ref_axis',(-0.999887782900255,0.,0.014980707820841));
#252=DIRECTION('',(0.,-1.,0.));
#253=DIRECTION('center_axis',(-2.43991249829558E-32,1.,-1.92592994438724E-34));
#254=DIRECTION('ref_axis',(-0.999887782900255,0.,0.014980707820841));
#255=DIRECTION('center_axis',(0.,-1.,0.));
#256=DIRECTION('ref_axis',(-0.999887782900255,0.,0.014980707820841));
#257=DIRECTION('center_axis',(2.43991249829558E-32,-1.,1.92592994438724E-34));
#258=DIRECTION('ref_axis',(-0.999887782900255,0.,0.014980707820841));
#259=DIRECTION('',(0.,-1.,0.));
#260=DIRECTION('center_axis',(-2.43991249829558E-32,1.,-1.92592994438724E-34));
#261=DIRECTION('ref_axis',(-0.999887782900255,0.,0.014980707820841));
#262=DIRECTION('center_axis',(0.,-1.,0.));
#263=DIRECTION('ref_axis',(-0.999887782900255,0.,0.014980707820841));
#264=DIRECTION('center_axis',(2.43991249829558E-32,-1.,1.92592994438724E-34));
#265=DIRECTION('ref_axis',(-0.999887782900255,0.,0.014980707820841));
#266=DIRECTION('',(0.,-1.,0.));
#267=DIRECTION('center_axis',(-2.43991249829558E-32,1.,-1.92592994438724E-34));
#268=DIRECTION('ref_axis',(-0.999887782900255,0.,0.014980707820841));
#269=DIRECTION('center_axis',(0.,-1.,0.));
#270=DIRECTION('ref_axis',(0.998987863978962,0.,-0.044980524927468));
#271=DIRECTION('center_axis',(-2.43991249829558E-32,1.,-1.92592994438724E-34));
#272=DIRECTION('ref_axis',(0.998987863978962,0.,-0.044980524927468));
#273=DIRECTION('',(0.,1.,0.));
#274=DIRECTION('center_axis',(-2.43991249829558E-32,1.,-1.92592994438724E-34));
#275=DIRECTION('ref_axis',(0.998987863978962,0.,-0.044980524927468));
#276=DIRECTION('center_axis',(2.43991249829558E-32,-1.,1.92592994438724E-34));
#277=DIRECTION('ref_axis',(0.998987863978962,1.23259516440783E-32,-0.044980524927468));
#278=DIRECTION('center_axis',(2.43991249829558E-32,-1.,1.92592994438724E-34));
#279=DIRECTION('ref_axis',(0.998987863978962,1.23259516440783E-32,-0.044980524927468));
#280=DIRECTION('',(-0.014980707820841,-1.4053393795399E-17,0.999887782900255));
#281=DIRECTION('',(0.999887782900255,6.18478285996194E-17,0.014980707820841));
#282=CARTESIAN_POINT('',(0.,0.,0.));
#283=CARTESIAN_POINT('',(0.,0.,0.));
#284=CARTESIAN_POINT('Origin',(-159.833273454809,-109.942740829781,-111.359622556232));
#285=CARTESIAN_POINT('',(-157.683514721573,-125.911472167968,-111.391831078047));
#286=CARTESIAN_POINT('Origin',(-159.833273454809,-125.911472167968,-111.359622556232));
#287=CARTESIAN_POINT('',(-157.683514721573,-126.911472167968,-111.391831078047));
#288=CARTESIAN_POINT('',(-157.683514721573,-109.942740829781,-111.391831078047));
#289=CARTESIAN_POINT('Origin',(-159.833273454809,-126.911472167968,-111.359622556232));
#290=CARTESIAN_POINT('Origin',(-172.901656245234,-109.942740829781,-103.636296119848));
#291=CARTESIAN_POINT('',(-170.751897511998,-125.911472167968,-103.668504641663));
#292=CARTESIAN_POINT('Origin',(-172.901656245234,-125.911472167968,-103.636296119848));
#293=CARTESIAN_POINT('',(-170.751897511998,-126.911472167968,-103.668504641663));
#294=CARTESIAN_POINT('',(-170.751897511998,-109.942740829781,-103.668504641663));
#295=CARTESIAN_POINT('Origin',(-172.901656245234,-126.911472167968,-103.636296119848));
#296=CARTESIAN_POINT('Origin',(-159.987678955227,-109.942740829781,-126.538837257313));
#297=CARTESIAN_POINT('',(-157.837920221991,-125.911472167968,-126.571045779128));
#298=CARTESIAN_POINT('Origin',(-159.987678955227,-125.911472167968,-126.538837257313));
#299=CARTESIAN_POINT('',(-157.837920221991,-126.911472167968,-126.571045779128));
#300=CARTESIAN_POINT('',(-157.837920221991,-109.942740829781,-126.571045779128));
#301=CARTESIAN_POINT('Origin',(-159.987678955227,-126.911472167968,-126.538837257313));
#302=CARTESIAN_POINT('Origin',(-186.278850036493,-109.942740829781,-126.271399085625));
#303=CARTESIAN_POINT('',(-184.129091303257,-125.911472167968,-126.30360760744));
#304=CARTESIAN_POINT('Origin',(-186.278850036493,-125.911472167968,-126.271399085625));
#305=CARTESIAN_POINT('',(-184.129091303257,-126.911472167968,-126.30360760744));
#306=CARTESIAN_POINT('',(-184.129091303257,-109.942740829781,-126.30360760744));
#307=CARTESIAN_POINT('Origin',(-186.278850036493,-126.911472167968,-126.271399085625));
#308=CARTESIAN_POINT('Origin',(-186.124444536075,-109.942740829781,-111.092184384545));
#309=CARTESIAN_POINT('',(-183.974685802839,-125.911472167968,-111.12439290636));
#310=CARTESIAN_POINT('Origin',(-186.124444536075,-125.911472167968,-111.092184384545));
#311=CARTESIAN_POINT('',(-183.974685802839,-126.911472167968,-111.12439290636));
#312=CARTESIAN_POINT('',(-183.974685802839,-109.942740829781,-111.12439290636));
#313=CARTESIAN_POINT('Origin',(-186.124444536075,-126.911472167968,-111.092184384545));
#314=CARTESIAN_POINT('Origin',(-173.210467246069,-109.942740829781,-133.994725522009));
#315=CARTESIAN_POINT('',(-171.060708512833,-125.911472167968,-134.026934043824));
#316=CARTESIAN_POINT('Origin',(-173.210467246069,-125.911472167968,-133.994725522009));
#317=CARTESIAN_POINT('',(-171.060708512833,-126.911472167968,-134.026934043824));
#318=CARTESIAN_POINT('',(-171.060708512833,-109.942740829781,-134.026934043824));
#319=CARTESIAN_POINT('Origin',(-173.210467246069,-126.911472167968,-133.994725522009));
#320=CARTESIAN_POINT('Origin',(-173.056061745651,-125.911472167968,-118.815510820929));
#321=CARTESIAN_POINT('',(-196.532276549157,-126.911472167968,-117.758468485134));
#322=CARTESIAN_POINT('Origin',(-173.056061745651,-126.911472167968,-118.815510820929));
#323=CARTESIAN_POINT('',(-196.532276549157,-125.911472167968,-117.758468485134));
#324=CARTESIAN_POINT('',(-196.532276549157,-125.911472167968,-117.758468485134));
#325=CARTESIAN_POINT('Origin',(-173.056061745651,-125.911472167968,-118.815510820929));
#326=CARTESIAN_POINT('Origin',(-173.056061745651,-126.911472167968,-118.815510820929));
#327=CARTESIAN_POINT('Origin',(-173.056061745651,-125.911472167968,-118.815510820929));
#328=CARTESIAN_POINT('',(-3.7429576971852,1.99999999999998,1.8882116205256));
#329=UNCERTAINTY_MEASURE_WITH_UNIT(LENGTH_MEASURE(0.01),#335,
'DISTANCE_ACCURACY_VALUE',
'Maximum model space distance between geometric entities at asserted c
onnectivities');
#330=UNCERTAINTY_MEASURE_WITH_UNIT(LENGTH_MEASURE(0.01),#335,
'DISTANCE_ACCURACY_VALUE',
'Maximum model space distance between geometric entities at asserted c
onnectivities');
#331=UNCERTAINTY_MEASURE_WITH_UNIT(LENGTH_MEASURE(0.01),#335,
'DISTANCE_ACCURACY_VALUE',
'Maximum model space distance between geometric entities at asserted c
onnectivities');
#332=(
GEOMETRIC_REPRESENTATION_CONTEXT(3)
GLOBAL_UNCERTAINTY_ASSIGNED_CONTEXT((#329))
GLOBAL_UNIT_ASSIGNED_CONTEXT((#335,#337,#338))
REPRESENTATION_CONTEXT('','3D')
);
#333=(
GEOMETRIC_REPRESENTATION_CONTEXT(3)
GLOBAL_UNCERTAINTY_ASSIGNED_CONTEXT((#330))
GLOBAL_UNIT_ASSIGNED_CONTEXT((#335,#337,#338))
REPRESENTATION_CONTEXT('','3D')
);
#334=(
GEOMETRIC_REPRESENTATION_CONTEXT(3)
GLOBAL_UNCERTAINTY_ASSIGNED_CONTEXT((#331))
GLOBAL_UNIT_ASSIGNED_CONTEXT((#335,#337,#338))
REPRESENTATION_CONTEXT('','3D')
);
#335=(
LENGTH_UNIT()
NAMED_UNIT(*)
SI_UNIT(.MILLI.,.METRE.)
);
#336=(
LENGTH_UNIT()
NAMED_UNIT(*)
SI_UNIT($,.METRE.)
);
#337=(
NAMED_UNIT(*)
PLANE_ANGLE_UNIT()
SI_UNIT($,.RADIAN.)
);
#338=(
NAMED_UNIT(*)
SI_UNIT($,.STERADIAN.)
SOLID_ANGLE_UNIT()
);
#339=SHAPE_DEFINITION_REPRESENTATION(#341,#344);
#340=SHAPE_DEFINITION_REPRESENTATION(#342,#345);
#341=PRODUCT_DEFINITION_SHAPE('',$,#347);
#342=PRODUCT_DEFINITION_SHAPE('',$,#348);
#343=PRODUCT_DEFINITION_SHAPE($,$,#14);
#344=SHAPE_REPRESENTATION('',(#197,#222),#332);
#345=SHAPE_REPRESENTATION('',(#198),#333);
#346=PRODUCT_DEFINITION_CONTEXT('part definition',#354,'design');
#347=PRODUCT_DEFINITION('Leg (right)','Leg (right) v74',#349,#346);
#348=PRODUCT_DEFINITION('Shin','Shin',#350,#346);
#349=PRODUCT_DEFINITION_FORMATION('',$,#356);
#350=PRODUCT_DEFINITION_FORMATION('',$,#357);
#351=PRODUCT_RELATED_PRODUCT_CATEGORY('Leg (right) v74',
'Leg (right) v74',(#356));
#352=PRODUCT_RELATED_PRODUCT_CATEGORY('Shin','Shin',(#357));
#353=APPLICATION_PROTOCOL_DEFINITION('international standard',
'automotive_design',2009,#354);
#354=APPLICATION_CONTEXT(
'Core Data for Automotive Mechanical Design Process');
#355=PRODUCT_CONTEXT('part definition',#354,'mechanical');
#356=PRODUCT('Leg (right)','Leg (right) v74',$,(#355));
#357=PRODUCT('Shin','Shin',$,(#355));
#358=PRESENTATION_STYLE_ASSIGNMENT((#364));
#359=PRESENTATION_STYLE_ASSIGNMENT((#365));
#360=PRESENTATION_STYLE_ASSIGNMENT((#366));
#361=PRESENTATION_STYLE_ASSIGNMENT((#367));
#362=PRESENTATION_STYLE_ASSIGNMENT((#368));
#363=PRESENTATION_STYLE_ASSIGNMENT((#369));
#364=SURFACE_STYLE_USAGE(.BOTH.,#370);
#365=SURFACE_STYLE_USAGE(.BOTH.,#371);
#366=SURFACE_STYLE_USAGE(.BOTH.,#372);
#367=SURFACE_STYLE_USAGE(.BOTH.,#373);
#368=SURFACE_STYLE_USAGE(.BOTH.,#374);
#369=SURFACE_STYLE_USAGE(.BOTH.,#375);
#370=SURFACE_SIDE_STYLE('',(#376));
#371=SURFACE_SIDE_STYLE('',(#377));
#372=SURFACE_SIDE_STYLE('',(#378));
#373=SURFACE_SIDE_STYLE('',(#379));
#374=SURFACE_SIDE_STYLE('',(#380));
#375=SURFACE_SIDE_STYLE('',(#381));
#376=SURFACE_STYLE_FILL_AREA(#382);
#377=SURFACE_STYLE_FILL_AREA(#383);
#378=SURFACE_STYLE_FILL_AREA(#384);
#379=SURFACE_STYLE_FILL_AREA(#385);
#380=SURFACE_STYLE_FILL_AREA(#386);
#381=SURFACE_STYLE_FILL_AREA(#387);
#382=FILL_AREA_STYLE('Steel - Satin',(#388));
#383=FILL_AREA_STYLE('Plate',(#389));
#384=FILL_AREA_STYLE('ABS (White)',(#390));
#385=FILL_AREA_STYLE('Aluminum - Satin',(#391));
#386=FILL_AREA_STYLE('ABS (White) (1)',(#392));
#387=FILL_AREA_STYLE('Aluminum - Anodized Glossy (Grey)',(#393));
#388=FILL_AREA_STYLE_COLOUR('Steel - Satin',#394);
#389=FILL_AREA_STYLE_COLOUR('Plate',#395);
#390=FILL_AREA_STYLE_COLOUR('ABS (White)',#396);
#391=FILL_AREA_STYLE_COLOUR('Aluminum - Satin',#397);
#392=FILL_AREA_STYLE_COLOUR('ABS (White) (1)',#398);
#393=FILL_AREA_STYLE_COLOUR('Aluminum - Anodized Glossy (Grey)',#399);
#394=COLOUR_RGB('Steel - Satin',0.627450980392157,0.627450980392157,0.627450980392157);
#395=COLOUR_RGB('Plate',0.6,0.6,0.6);
#396=COLOUR_RGB('ABS (White)',0.964705882352941,0.964705882352941,0.952941176470588);
#397=COLOUR_RGB('Aluminum - Satin',0.96078431372549,0.96078431372549,0.964705882352941);
#398=COLOUR_RGB('ABS (White) (1)',0.905882352941176,0.262745098039216,0.184313725490196);
#399=COLOUR_RGB('Aluminum - Anodized Glossy (Grey)',0.537254901960784,0.537254901960784,
0.537254901960784);
ENDSEC;
END-ISO-10303-21;
