ISO-10303-21;
HEADER;
/* Generated by software containing ST-Developer
 * from STEP Tools, Inc. (www.steptools.com) 
 */

FILE_DESCRIPTION(
/* description */ (''),
/* implementation_level */ '2;1');

FILE_NAME(
/* name */ 'OuterPlate.step',
/* time_stamp */ '2026-08-13T12:52:18-04:00',
/* author */ (''),
/* organization */ (''),
/* preprocessor_version */ 'ST-DEVELOPER v20.1',
/* originating_system */ 'Autodesk Translation Framework v15.8.0.0',
/* authorisation */ '');

FILE_SCHEMA (('AUTOMOTIVE_DESIGN { 1 0 10303 214 3 1 1 }'));
ENDSEC;

DATA;
#10=MECHANICAL_DESIGN_GEOMETRIC_PRESENTATION_REPRESENTATION('',(#17),#1356);
#11=ITEM_DEFINED_TRANSFORMATION($,$,#792,#890);
#12=(
REPRESENTATION_RELATIONSHIP($,$,#1367,#1366)
REPRESENTATION_RELATIONSHIP_WITH_TRANSFORMATION(#11)
SHAPE_REPRESENTATION_RELATIONSHIP()
);
#13=CONTEXT_DEPENDENT_SHAPE_REPRESENTATION(#12,#1365);
#14=NEXT_ASSEMBLY_USAGE_OCCURRENCE('Shin:1','Shin:1','Shin:1',#1369,#1370,
'Shin:1');
#15=SHAPE_REPRESENTATION_RELATIONSHIP('SRR','None',#1367,#16);
#16=ADVANCED_BREP_SHAPE_REPRESENTATION('',(#18),#1355);
#17=STYLED_ITEM('',(#1383),#18);
#18=MANIFOLD_SOLID_BREP('OuterShin',#778);
#19=FACE_BOUND('',#137,.T.);
#20=FACE_BOUND('',#138,.T.);
#21=FACE_BOUND('',#139,.T.);
#22=FACE_BOUND('',#140,.T.);
#23=FACE_BOUND('',#141,.T.);
#24=FACE_BOUND('',#142,.T.);
#25=FACE_BOUND('',#143,.T.);
#26=FACE_BOUND('',#144,.T.);
#27=FACE_BOUND('',#145,.T.);
#28=FACE_BOUND('',#146,.T.);
#29=FACE_BOUND('',#147,.T.);
#30=FACE_BOUND('',#148,.T.);
#31=FACE_BOUND('',#149,.T.);
#32=FACE_BOUND('',#150,.T.);
#33=FACE_BOUND('',#151,.T.);
#34=FACE_BOUND('',#152,.T.);
#35=FACE_BOUND('',#153,.T.);
#36=FACE_BOUND('',#154,.T.);
#37=FACE_BOUND('',#155,.T.);
#38=FACE_BOUND('',#157,.T.);
#39=FACE_BOUND('',#158,.T.);
#40=FACE_BOUND('',#159,.T.);
#41=FACE_BOUND('',#160,.T.);
#42=FACE_BOUND('',#161,.T.);
#43=FACE_BOUND('',#162,.T.);
#44=FACE_BOUND('',#163,.T.);
#45=FACE_BOUND('',#164,.T.);
#46=FACE_BOUND('',#165,.T.);
#47=FACE_BOUND('',#166,.T.);
#48=FACE_BOUND('',#167,.T.);
#49=FACE_BOUND('',#168,.T.);
#50=FACE_BOUND('',#169,.T.);
#51=FACE_BOUND('',#170,.T.);
#52=FACE_BOUND('',#171,.T.);
#53=FACE_BOUND('',#172,.T.);
#54=FACE_BOUND('',#173,.T.);
#55=FACE_BOUND('',#174,.T.);
#56=FACE_BOUND('',#175,.T.);
#57=PLANE('',#841);
#58=PLANE('',#857);
#59=PLANE('',#876);
#60=PLANE('',#877);
#61=PLANE('',#881);
#62=PLANE('',#888);
#63=PLANE('',#889);
#64=FACE_OUTER_BOUND('',#101,.T.);
#65=FACE_OUTER_BOUND('',#102,.T.);
#66=FACE_OUTER_BOUND('',#103,.T.);
#67=FACE_OUTER_BOUND('',#104,.T.);
#68=FACE_OUTER_BOUND('',#105,.T.);
#69=FACE_OUTER_BOUND('',#106,.T.);
#70=FACE_OUTER_BOUND('',#107,.T.);
#71=FACE_OUTER_BOUND('',#108,.T.);
#72=FACE_OUTER_BOUND('',#109,.T.);
#73=FACE_OUTER_BOUND('',#110,.T.);
#74=FACE_OUTER_BOUND('',#111,.T.);
#75=FACE_OUTER_BOUND('',#112,.T.);
#76=FACE_OUTER_BOUND('',#113,.T.);
#77=FACE_OUTER_BOUND('',#114,.T.);
#78=FACE_OUTER_BOUND('',#115,.T.);
#79=FACE_OUTER_BOUND('',#116,.T.);
#80=FACE_OUTER_BOUND('',#117,.T.);
#81=FACE_OUTER_BOUND('',#118,.T.);
#82=FACE_OUTER_BOUND('',#119,.T.);
#83=FACE_OUTER_BOUND('',#120,.T.);
#84=FACE_OUTER_BOUND('',#121,.T.);
#85=FACE_OUTER_BOUND('',#122,.T.);
#86=FACE_OUTER_BOUND('',#123,.T.);
#87=FACE_OUTER_BOUND('',#124,.T.);
#88=FACE_OUTER_BOUND('',#125,.T.);
#89=FACE_OUTER_BOUND('',#126,.T.);
#90=FACE_OUTER_BOUND('',#127,.T.);
#91=FACE_OUTER_BOUND('',#128,.T.);
#92=FACE_OUTER_BOUND('',#129,.T.);
#93=FACE_OUTER_BOUND('',#130,.T.);
#94=FACE_OUTER_BOUND('',#131,.T.);
#95=FACE_OUTER_BOUND('',#132,.T.);
#96=FACE_OUTER_BOUND('',#133,.T.);
#97=FACE_OUTER_BOUND('',#134,.T.);
#98=FACE_OUTER_BOUND('',#135,.T.);
#99=FACE_OUTER_BOUND('',#136,.T.);
#100=FACE_OUTER_BOUND('',#156,.T.);
#101=EDGE_LOOP('',(#501,#502,#503,#504));
#102=EDGE_LOOP('',(#505,#506,#507,#508));
#103=EDGE_LOOP('',(#509,#510,#511,#512));
#104=EDGE_LOOP('',(#513,#514,#515,#516));
#105=EDGE_LOOP('',(#517,#518,#519,#520));
#106=EDGE_LOOP('',(#521,#522,#523,#524));
#107=EDGE_LOOP('',(#525,#526,#527,#528));
#108=EDGE_LOOP('',(#529,#530,#531,#532));
#109=EDGE_LOOP('',(#533,#534,#535,#536));
#110=EDGE_LOOP('',(#537,#538,#539,#540));
#111=EDGE_LOOP('',(#541,#542,#543,#544));
#112=EDGE_LOOP('',(#545,#546,#547,#548));
#113=EDGE_LOOP('',(#549,#550,#551,#552));
#114=EDGE_LOOP('',(#553,#554,#555,#556));
#115=EDGE_LOOP('',(#557,#558,#559,#560));
#116=EDGE_LOOP('',(#561,#562,#563,#564));
#117=EDGE_LOOP('',(#565,#566,#567,#568));
#118=EDGE_LOOP('',(#569,#570,#571,#572));
#119=EDGE_LOOP('',(#573,#574,#575,#576));
#120=EDGE_LOOP('',(#577,#578,#579,#580));
#121=EDGE_LOOP('',(#581,#582,#583,#584));
#122=EDGE_LOOP('',(#585,#586,#587,#588));
#123=EDGE_LOOP('',(#589,#590,#591,#592));
#124=EDGE_LOOP('',(#593,#594,#595,#596));
#125=EDGE_LOOP('',(#597,#598,#599,#600));
#126=EDGE_LOOP('',(#601,#602,#603,#604));
#127=EDGE_LOOP('',(#605,#606,#607,#608));
#128=EDGE_LOOP('',(#609,#610,#611,#612));
#129=EDGE_LOOP('',(#613,#614,#615,#616));
#130=EDGE_LOOP('',(#617,#618,#619,#620));
#131=EDGE_LOOP('',(#621,#622,#623,#624));
#132=EDGE_LOOP('',(#625,#626,#627,#628));
#133=EDGE_LOOP('',(#629,#630,#631,#632));
#134=EDGE_LOOP('',(#633,#634,#635,#636));
#135=EDGE_LOOP('',(#637,#638,#639,#640));
#136=EDGE_LOOP('',(#641,#642,#643,#644,#645,#646,#647));
#137=EDGE_LOOP('',(#648));
#138=EDGE_LOOP('',(#649));
#139=EDGE_LOOP('',(#650));
#140=EDGE_LOOP('',(#651));
#141=EDGE_LOOP('',(#652));
#142=EDGE_LOOP('',(#653));
#143=EDGE_LOOP('',(#654));
#144=EDGE_LOOP('',(#655));
#145=EDGE_LOOP('',(#656));
#146=EDGE_LOOP('',(#657,#658,#659,#660,#661,#662,#663,#664,#665,#666));
#147=EDGE_LOOP('',(#667));
#148=EDGE_LOOP('',(#668));
#149=EDGE_LOOP('',(#669));
#150=EDGE_LOOP('',(#670));
#151=EDGE_LOOP('',(#671));
#152=EDGE_LOOP('',(#672));
#153=EDGE_LOOP('',(#673));
#154=EDGE_LOOP('',(#674));
#155=EDGE_LOOP('',(#675));
#156=EDGE_LOOP('',(#676,#677,#678,#679,#680,#681,#682));
#157=EDGE_LOOP('',(#683));
#158=EDGE_LOOP('',(#684));
#159=EDGE_LOOP('',(#685));
#160=EDGE_LOOP('',(#686));
#161=EDGE_LOOP('',(#687));
#162=EDGE_LOOP('',(#688));
#163=EDGE_LOOP('',(#689));
#164=EDGE_LOOP('',(#690));
#165=EDGE_LOOP('',(#691));
#166=EDGE_LOOP('',(#692,#693,#694,#695,#696,#697,#698,#699,#700,#701));
#167=EDGE_LOOP('',(#702));
#168=EDGE_LOOP('',(#703));
#169=EDGE_LOOP('',(#704));
#170=EDGE_LOOP('',(#705));
#171=EDGE_LOOP('',(#706));
#172=EDGE_LOOP('',(#707));
#173=EDGE_LOOP('',(#708));
#174=EDGE_LOOP('',(#709));
#175=EDGE_LOOP('',(#710));
#176=LINE('',#1142,#221);
#177=LINE('',#1148,#222);
#178=LINE('',#1154,#223);
#179=LINE('',#1160,#224);
#180=LINE('',#1166,#225);
#181=LINE('',#1172,#226);
#182=LINE('',#1178,#227);
#183=LINE('',#1184,#228);
#184=LINE('',#1190,#229);
#185=LINE('',#1196,#230);
#186=LINE('',#1202,#231);
#187=LINE('',#1208,#232);
#188=LINE('',#1214,#233);
#189=LINE('',#1220,#234);
#190=LINE('',#1226,#235);
#191=LINE('',#1233,#236);
#192=LINE('',#1236,#237);
#193=LINE('',#1239,#238);
#194=LINE('',#1241,#239);
#195=LINE('',#1242,#240);
#196=LINE('',#1248,#241);
#197=LINE('',#1254,#242);
#198=LINE('',#1260,#243);
#199=LINE('',#1266,#244);
#200=LINE('',#1272,#245);
#201=LINE('',#1275,#246);
#202=LINE('',#1277,#247);
#203=LINE('',#1278,#248);
#204=LINE('',#1284,#249);
#205=LINE('',#1292,#250);
#206=LINE('',#1298,#251);
#207=LINE('',#1304,#252);
#208=LINE('',#1311,#253);
#209=LINE('',#1314,#254);
#210=LINE('',#1317,#255);
#211=LINE('',#1319,#256);
#212=LINE('',#1320,#257);
#213=LINE('',#1323,#258);
#214=LINE('',#1325,#259);
#215=LINE('',#1326,#260);
#216=LINE('',#1332,#261);
#217=LINE('',#1335,#262);
#218=LINE('',#1337,#263);
#219=LINE('',#1338,#264);
#220=LINE('',#1344,#265);
#221=VECTOR('',#899,2.15);
#222=VECTOR('',#906,2.15);
#223=VECTOR('',#913,2.15);
#224=VECTOR('',#920,2.15);
#225=VECTOR('',#927,2.15);
#226=VECTOR('',#934,2.15);
#227=VECTOR('',#941,1.6);
#228=VECTOR('',#948,1.6);
#229=VECTOR('',#955,1.6);
#230=VECTOR('',#962,1.6);
#231=VECTOR('',#969,2.19999999999999);
#232=VECTOR('',#976,1.6);
#233=VECTOR('',#983,1.60000000000002);
#234=VECTOR('',#990,2.20000000000001);
#235=VECTOR('',#997,1.6);
#236=VECTOR('',#1004,10.);
#237=VECTOR('',#1007,10.);
#238=VECTOR('',#1010,10.);
#239=VECTOR('',#1011,10.);
#240=VECTOR('',#1012,10.);
#241=VECTOR('',#1019,10.);
#242=VECTOR('',#1026,10.);
#243=VECTOR('',#1033,10.);
#244=VECTOR('',#1040,10.);
#245=VECTOR('',#1047,10.);
#246=VECTOR('',#1050,10.);
#247=VECTOR('',#1051,10.);
#248=VECTOR('',#1052,10.);
#249=VECTOR('',#1059,10.);
#250=VECTOR('',#1070,1.6);
#251=VECTOR('',#1077,30.);
#252=VECTOR('',#1084,1.6);
#253=VECTOR('',#1091,10.);
#254=VECTOR('',#1094,10.);
#255=VECTOR('',#1097,10.);
#256=VECTOR('',#1098,10.);
#257=VECTOR('',#1099,10.);
#258=VECTOR('',#1102,10.);
#259=VECTOR('',#1103,10.);
#260=VECTOR('',#1104,10.);
#261=VECTOR('',#1111,10.);
#262=VECTOR('',#1114,10.);
#263=VECTOR('',#1115,10.);
#264=VECTOR('',#1116,10.);
#265=VECTOR('',#1123,10.);
#266=CIRCLE('',#794,2.15);
#267=CIRCLE('',#795,2.15);
#268=CIRCLE('',#797,2.15);
#269=CIRCLE('',#798,2.15);
#270=CIRCLE('',#800,2.15);
#271=CIRCLE('',#801,2.15);
#272=CIRCLE('',#803,2.15);
#273=CIRCLE('',#804,2.15);
#274=CIRCLE('',#806,2.15);
#275=CIRCLE('',#807,2.15);
#276=CIRCLE('',#809,2.15);
#277=CIRCLE('',#810,2.15);
#278=CIRCLE('',#812,1.6);
#279=CIRCLE('',#813,1.6);
#280=CIRCLE('',#815,1.6);
#281=CIRCLE('',#816,1.6);
#282=CIRCLE('',#818,1.6);
#283=CIRCLE('',#819,1.6);
#284=CIRCLE('',#821,1.6);
#285=CIRCLE('',#822,1.6);
#286=CIRCLE('',#824,2.19999999999999);
#287=CIRCLE('',#825,2.19999999999999);
#288=CIRCLE('',#827,1.6);
#289=CIRCLE('',#828,1.6);
#290=CIRCLE('',#830,1.60000000000002);
#291=CIRCLE('',#831,1.60000000000002);
#292=CIRCLE('',#833,2.20000000000001);
#293=CIRCLE('',#834,2.20000000000001);
#294=CIRCLE('',#836,1.6);
#295=CIRCLE('',#837,1.6);
#296=CIRCLE('',#839,4.43137896473556);
#297=CIRCLE('',#840,4.43137896473556);
#298=CIRCLE('',#843,94.0910996040939);
#299=CIRCLE('',#844,94.0910996040939);
#300=CIRCLE('',#846,2.96042577538158);
#301=CIRCLE('',#847,2.96042577538158);
#302=CIRCLE('',#849,27.5);
#303=CIRCLE('',#850,27.5);
#304=CIRCLE('',#852,2.76701062282555);
#305=CIRCLE('',#853,2.76701062282555);
#306=CIRCLE('',#855,50.522543494197);
#307=CIRCLE('',#856,50.522543494197);
#308=CIRCLE('',#859,4.5739967369667);
#309=CIRCLE('',#860,4.5739967369667);
#310=CIRCLE('',#862,56.);
#311=CIRCLE('',#863,56.);
#312=CIRCLE('',#865,1.6);
#313=CIRCLE('',#866,1.6);
#314=CIRCLE('',#868,30.);
#315=CIRCLE('',#869,30.);
#316=CIRCLE('',#871,1.6);
#317=CIRCLE('',#872,1.6);
#318=CIRCLE('',#874,106.091099604093);
#319=CIRCLE('',#875,106.091099604093);
#320=CIRCLE('',#879,43.);
#321=CIRCLE('',#880,43.);
#322=CIRCLE('',#883,38.5225434941969);
#323=CIRCLE('',#884,38.5225434941969);
#324=CIRCLE('',#886,27.5);
#325=CIRCLE('',#887,27.5);
#326=VERTEX_POINT('',#1139);
#327=VERTEX_POINT('',#1141);
#328=VERTEX_POINT('',#1145);
#329=VERTEX_POINT('',#1147);
#330=VERTEX_POINT('',#1151);
#331=VERTEX_POINT('',#1153);
#332=VERTEX_POINT('',#1157);
#333=VERTEX_POINT('',#1159);
#334=VERTEX_POINT('',#1163);
#335=VERTEX_POINT('',#1165);
#336=VERTEX_POINT('',#1169);
#337=VERTEX_POINT('',#1171);
#338=VERTEX_POINT('',#1175);
#339=VERTEX_POINT('',#1177);
#340=VERTEX_POINT('',#1181);
#341=VERTEX_POINT('',#1183);
#342=VERTEX_POINT('',#1187);
#343=VERTEX_POINT('',#1189);
#344=VERTEX_POINT('',#1193);
#345=VERTEX_POINT('',#1195);
#346=VERTEX_POINT('',#1199);
#347=VERTEX_POINT('',#1201);
#348=VERTEX_POINT('',#1205);
#349=VERTEX_POINT('',#1207);
#350=VERTEX_POINT('',#1211);
#351=VERTEX_POINT('',#1213);
#352=VERTEX_POINT('',#1217);
#353=VERTEX_POINT('',#1219);
#354=VERTEX_POINT('',#1223);
#355=VERTEX_POINT('',#1225);
#356=VERTEX_POINT('',#1229);
#357=VERTEX_POINT('',#1230);
#358=VERTEX_POINT('',#1232);
#359=VERTEX_POINT('',#1234);
#360=VERTEX_POINT('',#1238);
#361=VERTEX_POINT('',#1240);
#362=VERTEX_POINT('',#1244);
#363=VERTEX_POINT('',#1246);
#364=VERTEX_POINT('',#1250);
#365=VERTEX_POINT('',#1252);
#366=VERTEX_POINT('',#1256);
#367=VERTEX_POINT('',#1258);
#368=VERTEX_POINT('',#1262);
#369=VERTEX_POINT('',#1264);
#370=VERTEX_POINT('',#1268);
#371=VERTEX_POINT('',#1270);
#372=VERTEX_POINT('',#1274);
#373=VERTEX_POINT('',#1276);
#374=VERTEX_POINT('',#1280);
#375=VERTEX_POINT('',#1282);
#376=VERTEX_POINT('',#1289);
#377=VERTEX_POINT('',#1291);
#378=VERTEX_POINT('',#1295);
#379=VERTEX_POINT('',#1297);
#380=VERTEX_POINT('',#1301);
#381=VERTEX_POINT('',#1303);
#382=VERTEX_POINT('',#1307);
#383=VERTEX_POINT('',#1308);
#384=VERTEX_POINT('',#1310);
#385=VERTEX_POINT('',#1312);
#386=VERTEX_POINT('',#1316);
#387=VERTEX_POINT('',#1318);
#388=VERTEX_POINT('',#1322);
#389=VERTEX_POINT('',#1324);
#390=VERTEX_POINT('',#1328);
#391=VERTEX_POINT('',#1330);
#392=VERTEX_POINT('',#1334);
#393=VERTEX_POINT('',#1336);
#394=VERTEX_POINT('',#1340);
#395=VERTEX_POINT('',#1342);
#396=EDGE_CURVE('',#326,#326,#266,.T.);
#397=EDGE_CURVE('',#326,#327,#176,.T.);
#398=EDGE_CURVE('',#327,#327,#267,.T.);
#399=EDGE_CURVE('',#328,#328,#268,.T.);
#400=EDGE_CURVE('',#328,#329,#177,.T.);
#401=EDGE_CURVE('',#329,#329,#269,.T.);
#402=EDGE_CURVE('',#330,#330,#270,.T.);
#403=EDGE_CURVE('',#330,#331,#178,.T.);
#404=EDGE_CURVE('',#331,#331,#271,.T.);
#405=EDGE_CURVE('',#332,#332,#272,.T.);
#406=EDGE_CURVE('',#332,#333,#179,.T.);
#407=EDGE_CURVE('',#333,#333,#273,.T.);
#408=EDGE_CURVE('',#334,#334,#274,.T.);
#409=EDGE_CURVE('',#334,#335,#180,.T.);
#410=EDGE_CURVE('',#335,#335,#275,.T.);
#411=EDGE_CURVE('',#336,#336,#276,.T.);
#412=EDGE_CURVE('',#336,#337,#181,.T.);
#413=EDGE_CURVE('',#337,#337,#277,.T.);
#414=EDGE_CURVE('',#338,#338,#278,.T.);
#415=EDGE_CURVE('',#338,#339,#182,.T.);
#416=EDGE_CURVE('',#339,#339,#279,.T.);
#417=EDGE_CURVE('',#340,#340,#280,.T.);
#418=EDGE_CURVE('',#340,#341,#183,.T.);
#419=EDGE_CURVE('',#341,#341,#281,.T.);
#420=EDGE_CURVE('',#342,#342,#282,.T.);
#421=EDGE_CURVE('',#342,#343,#184,.T.);
#422=EDGE_CURVE('',#343,#343,#283,.T.);
#423=EDGE_CURVE('',#344,#344,#284,.T.);
#424=EDGE_CURVE('',#344,#345,#185,.T.);
#425=EDGE_CURVE('',#345,#345,#285,.T.);
#426=EDGE_CURVE('',#346,#346,#286,.T.);
#427=EDGE_CURVE('',#346,#347,#186,.T.);
#428=EDGE_CURVE('',#347,#347,#287,.T.);
#429=EDGE_CURVE('',#348,#348,#288,.T.);
#430=EDGE_CURVE('',#348,#349,#187,.T.);
#431=EDGE_CURVE('',#349,#349,#289,.T.);
#432=EDGE_CURVE('',#350,#350,#290,.T.);
#433=EDGE_CURVE('',#350,#351,#188,.T.);
#434=EDGE_CURVE('',#351,#351,#291,.T.);
#435=EDGE_CURVE('',#352,#352,#292,.T.);
#436=EDGE_CURVE('',#352,#353,#189,.T.);
#437=EDGE_CURVE('',#353,#353,#293,.T.);
#438=EDGE_CURVE('',#354,#354,#294,.T.);
#439=EDGE_CURVE('',#354,#355,#190,.T.);
#440=EDGE_CURVE('',#355,#355,#295,.T.);
#441=EDGE_CURVE('',#356,#357,#296,.T.);
#442=EDGE_CURVE('',#356,#358,#191,.T.);
#443=EDGE_CURVE('',#359,#358,#297,.T.);
#444=EDGE_CURVE('',#357,#359,#192,.T.);
#445=EDGE_CURVE('',#357,#360,#193,.T.);
#446=EDGE_CURVE('',#361,#359,#194,.T.);
#447=EDGE_CURVE('',#360,#361,#195,.T.);
#448=EDGE_CURVE('',#360,#362,#298,.T.);
#449=EDGE_CURVE('',#363,#361,#299,.T.);
#450=EDGE_CURVE('',#362,#363,#196,.T.);
#451=EDGE_CURVE('',#362,#364,#300,.T.);
#452=EDGE_CURVE('',#365,#363,#301,.T.);
#453=EDGE_CURVE('',#364,#365,#197,.T.);
#454=EDGE_CURVE('',#364,#366,#302,.T.);
#455=EDGE_CURVE('',#367,#365,#303,.T.);
#456=EDGE_CURVE('',#366,#367,#198,.T.);
#457=EDGE_CURVE('',#366,#368,#304,.T.);
#458=EDGE_CURVE('',#369,#367,#305,.T.);
#459=EDGE_CURVE('',#368,#369,#199,.T.);
#460=EDGE_CURVE('',#368,#370,#306,.T.);
#461=EDGE_CURVE('',#371,#369,#307,.T.);
#462=EDGE_CURVE('',#370,#371,#200,.T.);
#463=EDGE_CURVE('',#370,#372,#201,.T.);
#464=EDGE_CURVE('',#373,#371,#202,.T.);
#465=EDGE_CURVE('',#372,#373,#203,.T.);
#466=EDGE_CURVE('',#372,#374,#308,.T.);
#467=EDGE_CURVE('',#375,#373,#309,.T.);
#468=EDGE_CURVE('',#374,#375,#204,.T.);
#469=EDGE_CURVE('',#374,#356,#310,.T.);
#470=EDGE_CURVE('',#358,#375,#311,.T.);
#471=EDGE_CURVE('',#376,#376,#312,.T.);
#472=EDGE_CURVE('',#376,#377,#205,.T.);
#473=EDGE_CURVE('',#377,#377,#313,.T.);
#474=EDGE_CURVE('',#378,#378,#314,.T.);
#475=EDGE_CURVE('',#378,#379,#206,.T.);
#476=EDGE_CURVE('',#379,#379,#315,.T.);
#477=EDGE_CURVE('',#380,#380,#316,.T.);
#478=EDGE_CURVE('',#380,#381,#207,.T.);
#479=EDGE_CURVE('',#381,#381,#317,.T.);
#480=EDGE_CURVE('',#382,#383,#318,.T.);
#481=EDGE_CURVE('',#382,#384,#208,.T.);
#482=EDGE_CURVE('',#385,#384,#319,.T.);
#483=EDGE_CURVE('',#383,#385,#209,.T.);
#484=EDGE_CURVE('',#383,#386,#210,.T.);
#485=EDGE_CURVE('',#387,#385,#211,.T.);
#486=EDGE_CURVE('',#386,#387,#212,.T.);
#487=EDGE_CURVE('',#386,#388,#213,.T.);
#488=EDGE_CURVE('',#389,#387,#214,.T.);
#489=EDGE_CURVE('',#388,#389,#215,.T.);
#490=EDGE_CURVE('',#388,#390,#320,.T.);
#491=EDGE_CURVE('',#391,#389,#321,.T.);
#492=EDGE_CURVE('',#390,#391,#216,.T.);
#493=EDGE_CURVE('',#392,#390,#217,.T.);
#494=EDGE_CURVE('',#393,#391,#218,.T.);
#495=EDGE_CURVE('',#392,#393,#219,.T.);
#496=EDGE_CURVE('',#394,#392,#322,.T.);
#497=EDGE_CURVE('',#395,#393,#323,.T.);
#498=EDGE_CURVE('',#394,#395,#220,.T.);
#499=EDGE_CURVE('',#394,#382,#324,.T.);
#500=EDGE_CURVE('',#384,#395,#325,.T.);
#501=ORIENTED_EDGE('',*,*,#396,.F.);
#502=ORIENTED_EDGE('',*,*,#397,.T.);
#503=ORIENTED_EDGE('',*,*,#398,.F.);
#504=ORIENTED_EDGE('',*,*,#397,.F.);
#505=ORIENTED_EDGE('',*,*,#399,.F.);
#506=ORIENTED_EDGE('',*,*,#400,.T.);
#507=ORIENTED_EDGE('',*,*,#401,.F.);
#508=ORIENTED_EDGE('',*,*,#400,.F.);
#509=ORIENTED_EDGE('',*,*,#402,.F.);
#510=ORIENTED_EDGE('',*,*,#403,.T.);
#511=ORIENTED_EDGE('',*,*,#404,.F.);
#512=ORIENTED_EDGE('',*,*,#403,.F.);
#513=ORIENTED_EDGE('',*,*,#405,.F.);
#514=ORIENTED_EDGE('',*,*,#406,.T.);
#515=ORIENTED_EDGE('',*,*,#407,.F.);
#516=ORIENTED_EDGE('',*,*,#406,.F.);
#517=ORIENTED_EDGE('',*,*,#408,.F.);
#518=ORIENTED_EDGE('',*,*,#409,.T.);
#519=ORIENTED_EDGE('',*,*,#410,.F.);
#520=ORIENTED_EDGE('',*,*,#409,.F.);
#521=ORIENTED_EDGE('',*,*,#411,.F.);
#522=ORIENTED_EDGE('',*,*,#412,.T.);
#523=ORIENTED_EDGE('',*,*,#413,.F.);
#524=ORIENTED_EDGE('',*,*,#412,.F.);
#525=ORIENTED_EDGE('',*,*,#414,.F.);
#526=ORIENTED_EDGE('',*,*,#415,.T.);
#527=ORIENTED_EDGE('',*,*,#416,.F.);
#528=ORIENTED_EDGE('',*,*,#415,.F.);
#529=ORIENTED_EDGE('',*,*,#417,.F.);
#530=ORIENTED_EDGE('',*,*,#418,.T.);
#531=ORIENTED_EDGE('',*,*,#419,.F.);
#532=ORIENTED_EDGE('',*,*,#418,.F.);
#533=ORIENTED_EDGE('',*,*,#420,.F.);
#534=ORIENTED_EDGE('',*,*,#421,.T.);
#535=ORIENTED_EDGE('',*,*,#422,.F.);
#536=ORIENTED_EDGE('',*,*,#421,.F.);
#537=ORIENTED_EDGE('',*,*,#423,.F.);
#538=ORIENTED_EDGE('',*,*,#424,.T.);
#539=ORIENTED_EDGE('',*,*,#425,.F.);
#540=ORIENTED_EDGE('',*,*,#424,.F.);
#541=ORIENTED_EDGE('',*,*,#426,.F.);
#542=ORIENTED_EDGE('',*,*,#427,.T.);
#543=ORIENTED_EDGE('',*,*,#428,.F.);
#544=ORIENTED_EDGE('',*,*,#427,.F.);
#545=ORIENTED_EDGE('',*,*,#429,.F.);
#546=ORIENTED_EDGE('',*,*,#430,.T.);
#547=ORIENTED_EDGE('',*,*,#431,.F.);
#548=ORIENTED_EDGE('',*,*,#430,.F.);
#549=ORIENTED_EDGE('',*,*,#432,.F.);
#550=ORIENTED_EDGE('',*,*,#433,.T.);
#551=ORIENTED_EDGE('',*,*,#434,.F.);
#552=ORIENTED_EDGE('',*,*,#433,.F.);
#553=ORIENTED_EDGE('',*,*,#435,.F.);
#554=ORIENTED_EDGE('',*,*,#436,.T.);
#555=ORIENTED_EDGE('',*,*,#437,.F.);
#556=ORIENTED_EDGE('',*,*,#436,.F.);
#557=ORIENTED_EDGE('',*,*,#438,.F.);
#558=ORIENTED_EDGE('',*,*,#439,.T.);
#559=ORIENTED_EDGE('',*,*,#440,.F.);
#560=ORIENTED_EDGE('',*,*,#439,.F.);
#561=ORIENTED_EDGE('',*,*,#441,.F.);
#562=ORIENTED_EDGE('',*,*,#442,.T.);
#563=ORIENTED_EDGE('',*,*,#443,.F.);
#564=ORIENTED_EDGE('',*,*,#444,.F.);
#565=ORIENTED_EDGE('',*,*,#445,.F.);
#566=ORIENTED_EDGE('',*,*,#444,.T.);
#567=ORIENTED_EDGE('',*,*,#446,.F.);
#568=ORIENTED_EDGE('',*,*,#447,.F.);
#569=ORIENTED_EDGE('',*,*,#448,.F.);
#570=ORIENTED_EDGE('',*,*,#447,.T.);
#571=ORIENTED_EDGE('',*,*,#449,.F.);
#572=ORIENTED_EDGE('',*,*,#450,.F.);
#573=ORIENTED_EDGE('',*,*,#451,.F.);
#574=ORIENTED_EDGE('',*,*,#450,.T.);
#575=ORIENTED_EDGE('',*,*,#452,.F.);
#576=ORIENTED_EDGE('',*,*,#453,.F.);
#577=ORIENTED_EDGE('',*,*,#454,.F.);
#578=ORIENTED_EDGE('',*,*,#453,.T.);
#579=ORIENTED_EDGE('',*,*,#455,.F.);
#580=ORIENTED_EDGE('',*,*,#456,.F.);
#581=ORIENTED_EDGE('',*,*,#457,.F.);
#582=ORIENTED_EDGE('',*,*,#456,.T.);
#583=ORIENTED_EDGE('',*,*,#458,.F.);
#584=ORIENTED_EDGE('',*,*,#459,.F.);
#585=ORIENTED_EDGE('',*,*,#460,.F.);
#586=ORIENTED_EDGE('',*,*,#459,.T.);
#587=ORIENTED_EDGE('',*,*,#461,.F.);
#588=ORIENTED_EDGE('',*,*,#462,.F.);
#589=ORIENTED_EDGE('',*,*,#463,.F.);
#590=ORIENTED_EDGE('',*,*,#462,.T.);
#591=ORIENTED_EDGE('',*,*,#464,.F.);
#592=ORIENTED_EDGE('',*,*,#465,.F.);
#593=ORIENTED_EDGE('',*,*,#466,.F.);
#594=ORIENTED_EDGE('',*,*,#465,.T.);
#595=ORIENTED_EDGE('',*,*,#467,.F.);
#596=ORIENTED_EDGE('',*,*,#468,.F.);
#597=ORIENTED_EDGE('',*,*,#469,.F.);
#598=ORIENTED_EDGE('',*,*,#468,.T.);
#599=ORIENTED_EDGE('',*,*,#470,.F.);
#600=ORIENTED_EDGE('',*,*,#442,.F.);
#601=ORIENTED_EDGE('',*,*,#471,.F.);
#602=ORIENTED_EDGE('',*,*,#472,.T.);
#603=ORIENTED_EDGE('',*,*,#473,.F.);
#604=ORIENTED_EDGE('',*,*,#472,.F.);
#605=ORIENTED_EDGE('',*,*,#474,.F.);
#606=ORIENTED_EDGE('',*,*,#475,.T.);
#607=ORIENTED_EDGE('',*,*,#476,.F.);
#608=ORIENTED_EDGE('',*,*,#475,.F.);
#609=ORIENTED_EDGE('',*,*,#477,.F.);
#610=ORIENTED_EDGE('',*,*,#478,.T.);
#611=ORIENTED_EDGE('',*,*,#479,.F.);
#612=ORIENTED_EDGE('',*,*,#478,.F.);
#613=ORIENTED_EDGE('',*,*,#480,.F.);
#614=ORIENTED_EDGE('',*,*,#481,.T.);
#615=ORIENTED_EDGE('',*,*,#482,.F.);
#616=ORIENTED_EDGE('',*,*,#483,.F.);
#617=ORIENTED_EDGE('',*,*,#484,.F.);
#618=ORIENTED_EDGE('',*,*,#483,.T.);
#619=ORIENTED_EDGE('',*,*,#485,.F.);
#620=ORIENTED_EDGE('',*,*,#486,.F.);
#621=ORIENTED_EDGE('',*,*,#487,.F.);
#622=ORIENTED_EDGE('',*,*,#486,.T.);
#623=ORIENTED_EDGE('',*,*,#488,.F.);
#624=ORIENTED_EDGE('',*,*,#489,.F.);
#625=ORIENTED_EDGE('',*,*,#490,.F.);
#626=ORIENTED_EDGE('',*,*,#489,.T.);
#627=ORIENTED_EDGE('',*,*,#491,.F.);
#628=ORIENTED_EDGE('',*,*,#492,.F.);
#629=ORIENTED_EDGE('',*,*,#493,.T.);
#630=ORIENTED_EDGE('',*,*,#492,.T.);
#631=ORIENTED_EDGE('',*,*,#494,.F.);
#632=ORIENTED_EDGE('',*,*,#495,.F.);
#633=ORIENTED_EDGE('',*,*,#496,.T.);
#634=ORIENTED_EDGE('',*,*,#495,.T.);
#635=ORIENTED_EDGE('',*,*,#497,.F.);
#636=ORIENTED_EDGE('',*,*,#498,.F.);
#637=ORIENTED_EDGE('',*,*,#499,.F.);
#638=ORIENTED_EDGE('',*,*,#498,.T.);
#639=ORIENTED_EDGE('',*,*,#500,.F.);
#640=ORIENTED_EDGE('',*,*,#481,.F.);
#641=ORIENTED_EDGE('',*,*,#499,.T.);
#642=ORIENTED_EDGE('',*,*,#480,.T.);
#643=ORIENTED_EDGE('',*,*,#484,.T.);
#644=ORIENTED_EDGE('',*,*,#487,.T.);
#645=ORIENTED_EDGE('',*,*,#490,.T.);
#646=ORIENTED_EDGE('',*,*,#493,.F.);
#647=ORIENTED_EDGE('',*,*,#496,.F.);
#648=ORIENTED_EDGE('',*,*,#416,.T.);
#649=ORIENTED_EDGE('',*,*,#419,.T.);
#650=ORIENTED_EDGE('',*,*,#422,.T.);
#651=ORIENTED_EDGE('',*,*,#425,.T.);
#652=ORIENTED_EDGE('',*,*,#428,.T.);
#653=ORIENTED_EDGE('',*,*,#431,.T.);
#654=ORIENTED_EDGE('',*,*,#434,.T.);
#655=ORIENTED_EDGE('',*,*,#437,.T.);
#656=ORIENTED_EDGE('',*,*,#440,.T.);
#657=ORIENTED_EDGE('',*,*,#469,.T.);
#658=ORIENTED_EDGE('',*,*,#441,.T.);
#659=ORIENTED_EDGE('',*,*,#445,.T.);
#660=ORIENTED_EDGE('',*,*,#448,.T.);
#661=ORIENTED_EDGE('',*,*,#451,.T.);
#662=ORIENTED_EDGE('',*,*,#454,.T.);
#663=ORIENTED_EDGE('',*,*,#457,.T.);
#664=ORIENTED_EDGE('',*,*,#460,.T.);
#665=ORIENTED_EDGE('',*,*,#463,.T.);
#666=ORIENTED_EDGE('',*,*,#466,.T.);
#667=ORIENTED_EDGE('',*,*,#473,.T.);
#668=ORIENTED_EDGE('',*,*,#476,.T.);
#669=ORIENTED_EDGE('',*,*,#479,.T.);
#670=ORIENTED_EDGE('',*,*,#411,.T.);
#671=ORIENTED_EDGE('',*,*,#408,.T.);
#672=ORIENTED_EDGE('',*,*,#405,.T.);
#673=ORIENTED_EDGE('',*,*,#402,.T.);
#674=ORIENTED_EDGE('',*,*,#399,.T.);
#675=ORIENTED_EDGE('',*,*,#396,.T.);
#676=ORIENTED_EDGE('',*,*,#500,.T.);
#677=ORIENTED_EDGE('',*,*,#497,.T.);
#678=ORIENTED_EDGE('',*,*,#494,.T.);
#679=ORIENTED_EDGE('',*,*,#491,.T.);
#680=ORIENTED_EDGE('',*,*,#488,.T.);
#681=ORIENTED_EDGE('',*,*,#485,.T.);
#682=ORIENTED_EDGE('',*,*,#482,.T.);
#683=ORIENTED_EDGE('',*,*,#414,.T.);
#684=ORIENTED_EDGE('',*,*,#417,.T.);
#685=ORIENTED_EDGE('',*,*,#420,.T.);
#686=ORIENTED_EDGE('',*,*,#423,.T.);
#687=ORIENTED_EDGE('',*,*,#426,.T.);
#688=ORIENTED_EDGE('',*,*,#429,.T.);
#689=ORIENTED_EDGE('',*,*,#432,.T.);
#690=ORIENTED_EDGE('',*,*,#435,.T.);
#691=ORIENTED_EDGE('',*,*,#438,.T.);
#692=ORIENTED_EDGE('',*,*,#470,.T.);
#693=ORIENTED_EDGE('',*,*,#467,.T.);
#694=ORIENTED_EDGE('',*,*,#464,.T.);
#695=ORIENTED_EDGE('',*,*,#461,.T.);
#696=ORIENTED_EDGE('',*,*,#458,.T.);
#697=ORIENTED_EDGE('',*,*,#455,.T.);
#698=ORIENTED_EDGE('',*,*,#452,.T.);
#699=ORIENTED_EDGE('',*,*,#449,.T.);
#700=ORIENTED_EDGE('',*,*,#446,.T.);
#701=ORIENTED_EDGE('',*,*,#443,.T.);
#702=ORIENTED_EDGE('',*,*,#471,.T.);
#703=ORIENTED_EDGE('',*,*,#474,.T.);
#704=ORIENTED_EDGE('',*,*,#477,.T.);
#705=ORIENTED_EDGE('',*,*,#413,.T.);
#706=ORIENTED_EDGE('',*,*,#410,.T.);
#707=ORIENTED_EDGE('',*,*,#407,.T.);
#708=ORIENTED_EDGE('',*,*,#404,.T.);
#709=ORIENTED_EDGE('',*,*,#401,.T.);
#710=ORIENTED_EDGE('',*,*,#398,.T.);
#711=CYLINDRICAL_SURFACE('',#793,2.15);
#712=CYLINDRICAL_SURFACE('',#796,2.15);
#713=CYLINDRICAL_SURFACE('',#799,2.15);
#714=CYLINDRICAL_SURFACE('',#802,2.15);
#715=CYLINDRICAL_SURFACE('',#805,2.15);
#716=CYLINDRICAL_SURFACE('',#808,2.15);
#717=CYLINDRICAL_SURFACE('',#811,1.6);
#718=CYLINDRICAL_SURFACE('',#814,1.6);
#719=CYLINDRICAL_SURFACE('',#817,1.6);
#720=CYLINDRICAL_SURFACE('',#820,1.6);
#721=CYLINDRICAL_SURFACE('',#823,2.19999999999999);
#722=CYLINDRICAL_SURFACE('',#826,1.6);
#723=CYLINDRICAL_SURFACE('',#829,1.60000000000002);
#724=CYLINDRICAL_SURFACE('',#832,2.20000000000001);
#725=CYLINDRICAL_SURFACE('',#835,1.6);
#726=CYLINDRICAL_SURFACE('',#838,4.43137896473556);
#727=CYLINDRICAL_SURFACE('',#842,94.0910996040939);
#728=CYLINDRICAL_SURFACE('',#845,2.96042577538158);
#729=CYLINDRICAL_SURFACE('',#848,27.5);
#730=CYLINDRICAL_SURFACE('',#851,2.76701062282555);
#731=CYLINDRICAL_SURFACE('',#854,50.522543494197);
#732=CYLINDRICAL_SURFACE('',#858,4.5739967369667);
#733=CYLINDRICAL_SURFACE('',#861,56.);
#734=CYLINDRICAL_SURFACE('',#864,1.6);
#735=CYLINDRICAL_SURFACE('',#867,30.);
#736=CYLINDRICAL_SURFACE('',#870,1.6);
#737=CYLINDRICAL_SURFACE('',#873,106.091099604093);
#738=CYLINDRICAL_SURFACE('',#878,43.);
#739=CYLINDRICAL_SURFACE('',#882,38.5225434941969);
#740=CYLINDRICAL_SURFACE('',#885,27.5);
#741=ADVANCED_FACE('',(#64),#711,.F.);
#742=ADVANCED_FACE('',(#65),#712,.F.);
#743=ADVANCED_FACE('',(#66),#713,.F.);
#744=ADVANCED_FACE('',(#67),#714,.F.);
#745=ADVANCED_FACE('',(#68),#715,.F.);
#746=ADVANCED_FACE('',(#69),#716,.F.);
#747=ADVANCED_FACE('',(#70),#717,.F.);
#748=ADVANCED_FACE('',(#71),#718,.F.);
#749=ADVANCED_FACE('',(#72),#719,.F.);
#750=ADVANCED_FACE('',(#73),#720,.F.);
#751=ADVANCED_FACE('',(#74),#721,.F.);
#752=ADVANCED_FACE('',(#75),#722,.F.);
#753=ADVANCED_FACE('',(#76),#723,.F.);
#754=ADVANCED_FACE('',(#77),#724,.F.);
#755=ADVANCED_FACE('',(#78),#725,.F.);
#756=ADVANCED_FACE('',(#79),#726,.F.);
#757=ADVANCED_FACE('',(#80),#57,.T.);
#758=ADVANCED_FACE('',(#81),#727,.F.);
#759=ADVANCED_FACE('',(#82),#728,.F.);
#760=ADVANCED_FACE('',(#83),#729,.T.);
#761=ADVANCED_FACE('',(#84),#730,.F.);
#762=ADVANCED_FACE('',(#85),#731,.T.);
#763=ADVANCED_FACE('',(#86),#58,.T.);
#764=ADVANCED_FACE('',(#87),#732,.F.);
#765=ADVANCED_FACE('',(#88),#733,.T.);
#766=ADVANCED_FACE('',(#89),#734,.F.);
#767=ADVANCED_FACE('',(#90),#735,.F.);
#768=ADVANCED_FACE('',(#91),#736,.F.);
#769=ADVANCED_FACE('',(#92),#737,.T.);
#770=ADVANCED_FACE('',(#93),#59,.T.);
#771=ADVANCED_FACE('',(#94),#60,.T.);
#772=ADVANCED_FACE('',(#95),#738,.T.);
#773=ADVANCED_FACE('',(#96),#61,.T.);
#774=ADVANCED_FACE('',(#97),#739,.F.);
#775=ADVANCED_FACE('',(#98),#740,.T.);
#776=ADVANCED_FACE('',(#99,#19,#20,#21,#22,#23,#24,#25,#26,#27,#28,#29,
#30,#31,#32,#33,#34,#35,#36,#37),#62,.T.);
#777=ADVANCED_FACE('',(#100,#38,#39,#40,#41,#42,#43,#44,#45,#46,#47,#48,
#49,#50,#51,#52,#53,#54,#55,#56),#63,.F.);
#778=CLOSED_SHELL('',(#741,#742,#743,#744,#745,#746,#747,#748,#749,#750,
#751,#752,#753,#754,#755,#756,#757,#758,#759,#760,#761,#762,#763,#764,#765,
#766,#767,#768,#769,#770,#771,#772,#773,#774,#775,#776,#777));
#779=DERIVED_UNIT_ELEMENT(#781,1.);
#780=DERIVED_UNIT_ELEMENT(#1358,-3.);
#781=(
MASS_UNIT()
NAMED_UNIT(*)
SI_UNIT(.KILO.,.GRAM.)
);
#782=DERIVED_UNIT((#779,#780));
#783=MEASURE_REPRESENTATION_ITEM('density measure',
POSITIVE_RATIO_MEASURE(7850.),#782);
#784=PROPERTY_DEFINITION_REPRESENTATION(#789,#786);
#785=PROPERTY_DEFINITION_REPRESENTATION(#790,#787);
#786=REPRESENTATION('material name',(#788),#1355);
#787=REPRESENTATION('density',(#783),#1355);
#788=DESCRIPTIVE_REPRESENTATION_ITEM('Steel','Steel');
#789=PROPERTY_DEFINITION('material property','material name',#1370);
#790=PROPERTY_DEFINITION('material property','density of part',#1370);
#791=AXIS2_PLACEMENT_3D('',#1136,#891,#892);
#792=AXIS2_PLACEMENT_3D('',#1137,#893,#894);
#793=AXIS2_PLACEMENT_3D('',#1138,#895,#896);
#794=AXIS2_PLACEMENT_3D('',#1140,#897,#898);
#795=AXIS2_PLACEMENT_3D('',#1143,#900,#901);
#796=AXIS2_PLACEMENT_3D('',#1144,#902,#903);
#797=AXIS2_PLACEMENT_3D('',#1146,#904,#905);
#798=AXIS2_PLACEMENT_3D('',#1149,#907,#908);
#799=AXIS2_PLACEMENT_3D('',#1150,#909,#910);
#800=AXIS2_PLACEMENT_3D('',#1152,#911,#912);
#801=AXIS2_PLACEMENT_3D('',#1155,#914,#915);
#802=AXIS2_PLACEMENT_3D('',#1156,#916,#917);
#803=AXIS2_PLACEMENT_3D('',#1158,#918,#919);
#804=AXIS2_PLACEMENT_3D('',#1161,#921,#922);
#805=AXIS2_PLACEMENT_3D('',#1162,#923,#924);
#806=AXIS2_PLACEMENT_3D('',#1164,#925,#926);
#807=AXIS2_PLACEMENT_3D('',#1167,#928,#929);
#808=AXIS2_PLACEMENT_3D('',#1168,#930,#931);
#809=AXIS2_PLACEMENT_3D('',#1170,#932,#933);
#810=AXIS2_PLACEMENT_3D('',#1173,#935,#936);
#811=AXIS2_PLACEMENT_3D('',#1174,#937,#938);
#812=AXIS2_PLACEMENT_3D('',#1176,#939,#940);
#813=AXIS2_PLACEMENT_3D('',#1179,#942,#943);
#814=AXIS2_PLACEMENT_3D('',#1180,#944,#945);
#815=AXIS2_PLACEMENT_3D('',#1182,#946,#947);
#816=AXIS2_PLACEMENT_3D('',#1185,#949,#950);
#817=AXIS2_PLACEMENT_3D('',#1186,#951,#952);
#818=AXIS2_PLACEMENT_3D('',#1188,#953,#954);
#819=AXIS2_PLACEMENT_3D('',#1191,#956,#957);
#820=AXIS2_PLACEMENT_3D('',#1192,#958,#959);
#821=AXIS2_PLACEMENT_3D('',#1194,#960,#961);
#822=AXIS2_PLACEMENT_3D('',#1197,#963,#964);
#823=AXIS2_PLACEMENT_3D('',#1198,#965,#966);
#824=AXIS2_PLACEMENT_3D('',#1200,#967,#968);
#825=AXIS2_PLACEMENT_3D('',#1203,#970,#971);
#826=AXIS2_PLACEMENT_3D('',#1204,#972,#973);
#827=AXIS2_PLACEMENT_3D('',#1206,#974,#975);
#828=AXIS2_PLACEMENT_3D('',#1209,#977,#978);
#829=AXIS2_PLACEMENT_3D('',#1210,#979,#980);
#830=AXIS2_PLACEMENT_3D('',#1212,#981,#982);
#831=AXIS2_PLACEMENT_3D('',#1215,#984,#985);
#832=AXIS2_PLACEMENT_3D('',#1216,#986,#987);
#833=AXIS2_PLACEMENT_3D('',#1218,#988,#989);
#834=AXIS2_PLACEMENT_3D('',#1221,#991,#992);
#835=AXIS2_PLACEMENT_3D('',#1222,#993,#994);
#836=AXIS2_PLACEMENT_3D('',#1224,#995,#996);
#837=AXIS2_PLACEMENT_3D('',#1227,#998,#999);
#838=AXIS2_PLACEMENT_3D('',#1228,#1000,#1001);
#839=AXIS2_PLACEMENT_3D('',#1231,#1002,#1003);
#840=AXIS2_PLACEMENT_3D('',#1235,#1005,#1006);
#841=AXIS2_PLACEMENT_3D('',#1237,#1008,#1009);
#842=AXIS2_PLACEMENT_3D('',#1243,#1013,#1014);
#843=AXIS2_PLACEMENT_3D('',#1245,#1015,#1016);
#844=AXIS2_PLACEMENT_3D('',#1247,#1017,#1018);
#845=AXIS2_PLACEMENT_3D('',#1249,#1020,#1021);
#846=AXIS2_PLACEMENT_3D('',#1251,#1022,#1023);
#847=AXIS2_PLACEMENT_3D('',#1253,#1024,#1025);
#848=AXIS2_PLACEMENT_3D('',#1255,#1027,#1028);
#849=AXIS2_PLACEMENT_3D('',#1257,#1029,#1030);
#850=AXIS2_PLACEMENT_3D('',#1259,#1031,#1032);
#851=AXIS2_PLACEMENT_3D('',#1261,#1034,#1035);
#852=AXIS2_PLACEMENT_3D('',#1263,#1036,#1037);
#853=AXIS2_PLACEMENT_3D('',#1265,#1038,#1039);
#854=AXIS2_PLACEMENT_3D('',#1267,#1041,#1042);
#855=AXIS2_PLACEMENT_3D('',#1269,#1043,#1044);
#856=AXIS2_PLACEMENT_3D('',#1271,#1045,#1046);
#857=AXIS2_PLACEMENT_3D('',#1273,#1048,#1049);
#858=AXIS2_PLACEMENT_3D('',#1279,#1053,#1054);
#859=AXIS2_PLACEMENT_3D('',#1281,#1055,#1056);
#860=AXIS2_PLACEMENT_3D('',#1283,#1057,#1058);
#861=AXIS2_PLACEMENT_3D('',#1285,#1060,#1061);
#862=AXIS2_PLACEMENT_3D('',#1286,#1062,#1063);
#863=AXIS2_PLACEMENT_3D('',#1287,#1064,#1065);
#864=AXIS2_PLACEMENT_3D('',#1288,#1066,#1067);
#865=AXIS2_PLACEMENT_3D('',#1290,#1068,#1069);
#866=AXIS2_PLACEMENT_3D('',#1293,#1071,#1072);
#867=AXIS2_PLACEMENT_3D('',#1294,#1073,#1074);
#868=AXIS2_PLACEMENT_3D('',#1296,#1075,#1076);
#869=AXIS2_PLACEMENT_3D('',#1299,#1078,#1079);
#870=AXIS2_PLACEMENT_3D('',#1300,#1080,#1081);
#871=AXIS2_PLACEMENT_3D('',#1302,#1082,#1083);
#872=AXIS2_PLACEMENT_3D('',#1305,#1085,#1086);
#873=AXIS2_PLACEMENT_3D('',#1306,#1087,#1088);
#874=AXIS2_PLACEMENT_3D('',#1309,#1089,#1090);
#875=AXIS2_PLACEMENT_3D('',#1313,#1092,#1093);
#876=AXIS2_PLACEMENT_3D('',#1315,#1095,#1096);
#877=AXIS2_PLACEMENT_3D('',#1321,#1100,#1101);
#878=AXIS2_PLACEMENT_3D('',#1327,#1105,#1106);
#879=AXIS2_PLACEMENT_3D('',#1329,#1107,#1108);
#880=AXIS2_PLACEMENT_3D('',#1331,#1109,#1110);
#881=AXIS2_PLACEMENT_3D('',#1333,#1112,#1113);
#882=AXIS2_PLACEMENT_3D('',#1339,#1117,#1118);
#883=AXIS2_PLACEMENT_3D('',#1341,#1119,#1120);
#884=AXIS2_PLACEMENT_3D('',#1343,#1121,#1122);
#885=AXIS2_PLACEMENT_3D('',#1345,#1124,#1125);
#886=AXIS2_PLACEMENT_3D('',#1346,#1126,#1127);
#887=AXIS2_PLACEMENT_3D('',#1347,#1128,#1129);
#888=AXIS2_PLACEMENT_3D('',#1348,#1130,#1131);
#889=AXIS2_PLACEMENT_3D('',#1349,#1132,#1133);
#890=AXIS2_PLACEMENT_3D('',#1350,#1134,#1135);
#891=DIRECTION('axis',(0.,0.,1.));
#892=DIRECTION('refdir',(1.,0.,0.));
#893=DIRECTION('axis',(0.,0.,1.));
#894=DIRECTION('refdir',(1.,0.,0.));
#895=DIRECTION('center_axis',(0.,1.,-6.34413156928661E-16));
#896=DIRECTION('ref_axis',(-0.999094756576369,2.69880533736628E-17,0.042540185490979));
#897=DIRECTION('center_axis',(-2.44713473558703E-32,1.,-1.92592994438724E-33));
#898=DIRECTION('ref_axis',(-0.999094756576369,2.69880533736628E-17,0.042540185490979));
#899=DIRECTION('',(0.,1.,-6.34413156928661E-16));
#900=DIRECTION('center_axis',(2.44713473558703E-32,-1.,1.92592994438724E-33));
#901=DIRECTION('ref_axis',(-0.999094756576369,2.69880533736628E-17,0.042540185490979));
#902=DIRECTION('center_axis',(0.,1.,-6.34413156928661E-16));
#903=DIRECTION('ref_axis',(-0.999094756576369,2.69880533736628E-17,0.042540185490979));
#904=DIRECTION('center_axis',(-2.44713473558703E-32,1.,-1.92592994438724E-33));
#905=DIRECTION('ref_axis',(-0.999094756576369,2.69880533736628E-17,0.042540185490979));
#906=DIRECTION('',(0.,1.,-6.34413156928661E-16));
#907=DIRECTION('center_axis',(2.44713473558703E-32,-1.,1.92592994438724E-33));
#908=DIRECTION('ref_axis',(-0.999094756576369,2.69880533736628E-17,0.042540185490979));
#909=DIRECTION('center_axis',(0.,1.,-6.34413156928661E-16));
#910=DIRECTION('ref_axis',(-0.999094756576369,2.69880533736628E-17,0.042540185490979));
#911=DIRECTION('center_axis',(-2.44713473558703E-32,1.,-1.92592994438724E-33));
#912=DIRECTION('ref_axis',(-0.999094756576369,2.69880533736628E-17,0.042540185490979));
#913=DIRECTION('',(0.,1.,-6.34413156928661E-16));
#914=DIRECTION('center_axis',(2.44713473558703E-32,-1.,1.92592994438724E-33));
#915=DIRECTION('ref_axis',(-0.999094756576369,2.69880533736628E-17,0.042540185490979));
#916=DIRECTION('center_axis',(0.,1.,-6.34413156928661E-16));
#917=DIRECTION('ref_axis',(-0.999094756576369,2.69880533736628E-17,0.042540185490979));
#918=DIRECTION('center_axis',(-2.44713473558703E-32,1.,-1.92592994438724E-33));
#919=DIRECTION('ref_axis',(-0.999094756576369,2.69880533736628E-17,0.042540185490979));
#920=DIRECTION('',(0.,1.,-6.34413156928661E-16));
#921=DIRECTION('center_axis',(2.44713473558703E-32,-1.,1.92592994438724E-33));
#922=DIRECTION('ref_axis',(-0.999094756576369,2.69880533736628E-17,0.042540185490979));
#923=DIRECTION('center_axis',(0.,1.,-6.34413156928661E-16));
#924=DIRECTION('ref_axis',(-0.999094756576369,2.69880533736628E-17,0.042540185490979));
#925=DIRECTION('center_axis',(-2.44713473558703E-32,1.,-1.92592994438724E-33));
#926=DIRECTION('ref_axis',(-0.999094756576369,2.69880533736628E-17,0.042540185490979));
#927=DIRECTION('',(0.,1.,-6.34413156928661E-16));
#928=DIRECTION('center_axis',(2.44713473558703E-32,-1.,1.92592994438724E-33));
#929=DIRECTION('ref_axis',(-0.999094756576369,2.69880533736628E-17,0.042540185490979));
#930=DIRECTION('center_axis',(0.,1.,-6.34413156928661E-16));
#931=DIRECTION('ref_axis',(-0.999094756576369,2.69880533736628E-17,0.042540185490979));
#932=DIRECTION('center_axis',(-2.44713473558703E-32,1.,-1.92592994438724E-33));
#933=DIRECTION('ref_axis',(-0.999094756576369,2.69880533736628E-17,0.042540185490979));
#934=DIRECTION('',(0.,1.,-6.34413156928661E-16));
#935=DIRECTION('center_axis',(2.44713473558703E-32,-1.,1.92592994438724E-33));
#936=DIRECTION('ref_axis',(-0.999094756576369,2.69880533736628E-17,0.042540185490979));
#937=DIRECTION('center_axis',(6.11975657819858E-17,1.,-1.54658646274526E-18));
#938=DIRECTION('ref_axis',(0.998987863978962,-6.1205191792198E-17,-0.044980524927468));
#939=DIRECTION('center_axis',(2.43991249829558E-32,-1.,1.92592994438724E-34));
#940=DIRECTION('ref_axis',(0.998987863978962,1.92592994438723E-32,-0.044980524927468));
#941=DIRECTION('',(-6.11975657819858E-17,-1.,1.54658646274526E-18));
#942=DIRECTION('center_axis',(-2.43991249829558E-32,1.,-1.92592994438724E-34));
#943=DIRECTION('ref_axis',(0.998987863978962,1.92592994438723E-32,-0.044980524927468));
#944=DIRECTION('center_axis',(6.11975657819858E-17,1.,-1.54658646274526E-18));
#945=DIRECTION('ref_axis',(0.998987863978962,-6.1205191792198E-17,-0.044980524927468));
#946=DIRECTION('center_axis',(2.43991249829558E-32,-1.,1.92592994438724E-34));
#947=DIRECTION('ref_axis',(0.998987863978962,1.92592994438723E-32,-0.044980524927468));
#948=DIRECTION('',(-6.11975657819858E-17,-1.,1.54658646274526E-18));
#949=DIRECTION('center_axis',(-2.43991249829558E-32,1.,-1.92592994438724E-34));
#950=DIRECTION('ref_axis',(0.998987863978962,1.92592994438723E-32,-0.044980524927468));
#951=DIRECTION('center_axis',(6.11975657819858E-17,1.,-1.54658646274526E-18));
#952=DIRECTION('ref_axis',(0.998987863978962,-6.1205191792198E-17,-0.044980524927468));
#953=DIRECTION('center_axis',(2.43991249829558E-32,-1.,1.92592994438724E-34));
#954=DIRECTION('ref_axis',(0.998987863978962,1.92592994438723E-32,-0.044980524927468));
#955=DIRECTION('',(-6.11975657819858E-17,-1.,1.54658646274526E-18));
#956=DIRECTION('center_axis',(-2.43991249829558E-32,1.,-1.92592994438724E-34));
#957=DIRECTION('ref_axis',(0.998987863978962,1.92592994438723E-32,-0.044980524927468));
#958=DIRECTION('center_axis',(6.11975657819858E-17,1.,-1.54658646274526E-18));
#959=DIRECTION('ref_axis',(0.998987863978962,-6.1205191792198E-17,-0.044980524927468));
#960=DIRECTION('center_axis',(2.43991249829558E-32,-1.,1.92592994438724E-34));
#961=DIRECTION('ref_axis',(0.998987863978962,1.92592994438723E-32,-0.044980524927468));
#962=DIRECTION('',(-6.11975657819858E-17,-1.,1.54658646274526E-18));
#963=DIRECTION('center_axis',(-2.43991249829558E-32,1.,-1.92592994438724E-34));
#964=DIRECTION('ref_axis',(0.998987863978962,1.92592994438723E-32,-0.044980524927468));
#965=DIRECTION('center_axis',(6.11975657819858E-17,1.,-1.54658646274526E-18));
#966=DIRECTION('ref_axis',(0.998987863978962,-6.1205191792198E-17,-0.044980524927468));
#967=DIRECTION('center_axis',(2.44111620451082E-32,-1.,5.77778983316171E-34));
#968=DIRECTION('ref_axis',(0.998987863978962,1.40067632319072E-32,-0.044980524927468));
#969=DIRECTION('',(-6.11975657819858E-17,-1.,1.54658646274526E-18));
#970=DIRECTION('center_axis',(-2.44111620451082E-32,1.,-5.77778983316171E-34));
#971=DIRECTION('ref_axis',(0.998987863978962,1.40067632319072E-32,-0.044980524927468));
#972=DIRECTION('center_axis',(6.11975657819858E-17,1.,-1.54658646274526E-18));
#973=DIRECTION('ref_axis',(0.998987863978962,-6.1205191792198E-17,-0.044980524927468));
#974=DIRECTION('center_axis',(2.43991249829558E-32,-1.,1.92592994438724E-34));
#975=DIRECTION('ref_axis',(0.998987863978962,1.92592994438723E-32,-0.044980524927468));
#976=DIRECTION('',(-6.11975657819858E-17,-1.,1.54658646274526E-18));
#977=DIRECTION('center_axis',(-2.43991249829558E-32,1.,-1.92592994438724E-34));
#978=DIRECTION('ref_axis',(0.998987863978962,1.92592994438723E-32,-0.044980524927468));
#979=DIRECTION('center_axis',(6.11975657819858E-17,1.,-1.54658646274526E-18));
#980=DIRECTION('ref_axis',(0.998987863978962,-6.1205191792198E-17,-0.044980524927468));
#981=DIRECTION('center_axis',(2.43991249829558E-32,-1.,1.92592994438724E-34));
#982=DIRECTION('ref_axis',(0.998987863978962,9.62964972193606E-33,-0.044980524927468));
#983=DIRECTION('',(-6.11975657819858E-17,-1.,1.54658646274526E-18));
#984=DIRECTION('center_axis',(-2.43991249829558E-32,1.,-1.92592994438724E-34));
#985=DIRECTION('ref_axis',(0.998987863978962,9.62964972193606E-33,-0.044980524927468));
#986=DIRECTION('center_axis',(6.11975657819858E-17,1.,-1.54658646274526E-18));
#987=DIRECTION('ref_axis',(0.998987863978962,-6.1205191792198E-17,-0.044980524927468));
#988=DIRECTION('center_axis',(2.44111620451082E-32,-1.,5.77778983316171E-34));
#989=DIRECTION('ref_axis',(0.998987863978962,1.40067632319071E-32,-0.044980524927468));
#990=DIRECTION('',(-6.11975657819858E-17,-1.,1.54658646274526E-18));
#991=DIRECTION('center_axis',(-2.44111620451082E-32,1.,-5.77778983316171E-34));
#992=DIRECTION('ref_axis',(0.998987863978962,1.40067632319071E-32,-0.044980524927468));
#993=DIRECTION('center_axis',(6.11975657819858E-17,1.,-1.54658646274526E-18));
#994=DIRECTION('ref_axis',(0.998987863978962,-6.1205191792198E-17,-0.044980524927468));
#995=DIRECTION('center_axis',(2.43991249829558E-32,-1.,1.92592994438724E-34));
#996=DIRECTION('ref_axis',(0.998987863978962,1.92592994438723E-32,-0.044980524927468));
#997=DIRECTION('',(-6.11975657819858E-17,-1.,1.54658646274526E-18));
#998=DIRECTION('center_axis',(-2.43991249829558E-32,1.,-1.92592994438724E-34));
#999=DIRECTION('ref_axis',(0.998987863978962,1.92592994438723E-32,-0.044980524927468));
#1000=DIRECTION('center_axis',(6.11975657819858E-17,1.,-1.54658646274526E-18));
#1001=DIRECTION('ref_axis',(-0.847849064336427,5.10662405183991E-17,-0.530237648704659));
#1002=DIRECTION('center_axis',(6.8281438765819E-31,1.,3.45704425017509E-31));
#1003=DIRECTION('ref_axis',(-0.847849064336427,7.79585060369748E-31,-0.530237648704659));
#1004=DIRECTION('',(6.11975657819858E-17,1.,-1.54658646274526E-18));
#1005=DIRECTION('center_axis',(-6.8281438765819E-31,-1.,-3.45704425017509E-31));
#1006=DIRECTION('ref_axis',(-0.847849064336427,7.79585060369748E-31,-0.530237648704659));
#1007=DIRECTION('',(6.11975657819858E-17,1.,-1.54658646274526E-18));
#1008=DIRECTION('center_axis',(0.876107898526705,-5.28700380963518E-17,
0.482115079767395));
#1009=DIRECTION('ref_axis',(0.482115079767395,4.23704587765192E-33,-0.876107898526705));
#1010=DIRECTION('',(-0.482115079767395,-4.23704587765192E-33,0.876107898526705));
#1011=DIRECTION('',(0.482115079767395,4.23704587765192E-33,-0.876107898526705));
#1012=DIRECTION('',(6.11975657819858E-17,1.,-1.54658646274526E-18));
#1013=DIRECTION('center_axis',(6.11975657819858E-17,1.,-1.54658646274526E-18));
#1014=DIRECTION('ref_axis',(-0.990715344594945,6.08396299031116E-17,0.135952587265263));
#1015=DIRECTION('center_axis',(-2.40500501805356E-32,1.,7.51112678311022E-33));
#1016=DIRECTION('ref_axis',(-0.990715344594945,-1.16467353763252E-32,0.135952587265263));
#1017=DIRECTION('center_axis',(2.40500501805356E-32,-1.,-7.51112678311022E-33));
#1018=DIRECTION('ref_axis',(-0.990715344594945,-1.16467353763252E-32,0.135952587265263));
#1019=DIRECTION('',(6.11975657819858E-17,1.,-1.54658646274526E-18));
#1020=DIRECTION('center_axis',(6.11975657819858E-17,1.,-1.54658646274526E-18));
#1021=DIRECTION('ref_axis',(0.658859757203872,-3.9157169243811E-17,0.752265791018876));
#1022=DIRECTION('center_axis',(-1.69445723919619E-31,1.,-2.04148574105047E-31));
#1023=DIRECTION('ref_axis',(0.658859757203872,2.60873930406088E-31,0.752265791018876));
#1024=DIRECTION('center_axis',(1.69445723919619E-31,-1.,2.04148574105047E-31));
#1025=DIRECTION('ref_axis',(0.658859757203872,2.60873930406088E-31,0.752265791018876));
#1026=DIRECTION('',(6.11975657819858E-17,1.,-1.54658646274526E-18));
#1027=DIRECTION('center_axis',(6.11975657819858E-17,1.,-1.54658646274526E-18));
#1028=DIRECTION('ref_axis',(-0.658859757203876,3.91571692438113E-17,-0.752265791018872));
#1029=DIRECTION('center_axis',(-1.27833600058703E-32,-1.,-2.69630192214213E-33));
#1030=DIRECTION('ref_axis',(-0.658859757203876,2.19906182740942E-32,-0.752265791018872));
#1031=DIRECTION('center_axis',(1.27833600058703E-32,1.,2.69630192214213E-33));
#1032=DIRECTION('ref_axis',(-0.658859757203876,2.19906182740942E-32,-0.752265791018872));
#1033=DIRECTION('',(6.11975657819858E-17,1.,-1.54658646274526E-18));
#1034=DIRECTION('center_axis',(6.11975657819858E-17,1.,-1.54658646274526E-18));
#1035=DIRECTION('ref_axis',(0.995361588277286,-6.0764917675906E-17,0.0962045143541577));
#1036=DIRECTION('center_axis',(1.27833600058703E-32,1.,2.69630192214213E-33));
#1037=DIRECTION('ref_axis',(0.995361588277286,-7.1560864556824E-33,0.0962045143541577));
#1038=DIRECTION('center_axis',(-1.27833600058703E-32,-1.,-2.69630192214213E-33));
#1039=DIRECTION('ref_axis',(0.995361588277286,-7.1560864556824E-33,0.0962045143541577));
#1040=DIRECTION('',(6.11975657819858E-17,1.,-1.54658646274526E-18));
#1041=DIRECTION('center_axis',(6.11975657819858E-17,1.,-1.54658646274526E-18));
#1042=DIRECTION('ref_axis',(-0.995361588277287,6.07649176759061E-17,-0.096204514354142));
#1043=DIRECTION('center_axis',(2.44472732315655E-32,-1.,1.34815096107107E-33));
#1044=DIRECTION('ref_axis',(-0.995361588277287,-1.35898547002668E-32,-0.096204514354142));
#1045=DIRECTION('center_axis',(-2.44472732315655E-32,1.,-1.34815096107107E-33));
#1046=DIRECTION('ref_axis',(-0.995361588277287,-1.35898547002668E-32,-0.096204514354142));
#1047=DIRECTION('',(6.11975657819858E-17,1.,-1.54658646274526E-18));
#1048=DIRECTION('center_axis',(-0.816414417578811,4.90694732337018E-17,
-0.577466448176386));
#1049=DIRECTION('ref_axis',(-0.577466448176386,-3.85185988877447E-33,0.816414417578811));
#1050=DIRECTION('',(0.577466448176386,3.85185988877447E-33,-0.816414417578811));
#1051=DIRECTION('',(-0.577466448176386,-3.85185988877447E-33,0.816414417578811));
#1052=DIRECTION('',(6.11975657819858E-17,1.,-1.54658646274526E-18));
#1053=DIRECTION('center_axis',(6.11975657819858E-17,1.,-1.54658646274526E-18));
#1054=DIRECTION('ref_axis',(0.325654724400834,-2.13915565398723E-17,-0.945488762744125));
#1055=DIRECTION('center_axis',(-1.99213378622555E-32,1.,9.91853921359426E-32));
#1056=DIRECTION('ref_axis',(0.325654724400834,9.55807628463302E-32,-0.945488762744125));
#1057=DIRECTION('center_axis',(1.99213378622555E-32,-1.,-9.91853921359426E-32));
#1058=DIRECTION('ref_axis',(0.325654724400834,9.55807628463302E-32,-0.945488762744125));
#1059=DIRECTION('',(6.11975657819858E-17,1.,-1.54658646274526E-18));
#1060=DIRECTION('center_axis',(6.11975657819858E-17,1.,-1.54658646274526E-18));
#1061=DIRECTION('ref_axis',(0.998987863978962,-6.12051917921981E-17,-0.044980524927468));
#1062=DIRECTION('center_axis',(2.43991249829558E-32,-1.,1.92592994438724E-34));
#1063=DIRECTION('ref_axis',(0.998987863978962,1.76085023486833E-32,-0.044980524927468));
#1064=DIRECTION('center_axis',(-2.43991249829558E-32,1.,-1.92592994438724E-34));
#1065=DIRECTION('ref_axis',(0.998987863978962,1.76085023486833E-32,-0.044980524927468));
#1066=DIRECTION('center_axis',(6.11975657819858E-17,1.,-1.54658646274526E-18));
#1067=DIRECTION('ref_axis',(0.998987863978962,-6.1205191792198E-17,-0.044980524927468));
#1068=DIRECTION('center_axis',(2.43991249829558E-32,-1.,1.92592994438724E-34));
#1069=DIRECTION('ref_axis',(0.998987863978962,1.92592994438723E-32,-0.044980524927468));
#1070=DIRECTION('',(-6.11975657819858E-17,-1.,1.54658646274526E-18));
#1071=DIRECTION('center_axis',(-2.43991249829558E-32,1.,-1.92592994438724E-34));
#1072=DIRECTION('ref_axis',(0.998987863978962,1.92592994438723E-32,-0.044980524927468));
#1073=DIRECTION('center_axis',(6.11975657819858E-17,1.,-1.54658646274526E-18));
#1074=DIRECTION('ref_axis',(0.998987863978962,-6.1205191792198E-17,-0.044980524927468));
#1075=DIRECTION('center_axis',(2.43991249829558E-32,-1.,1.92592994438724E-34));
#1076=DIRECTION('ref_axis',(0.998987863978962,8.21730109605221E-33,-0.044980524927468));
#1077=DIRECTION('',(-6.11975657819858E-17,-1.,1.54658646274526E-18));
#1078=DIRECTION('center_axis',(-2.43991249829558E-32,1.,-1.92592994438724E-34));
#1079=DIRECTION('ref_axis',(0.998987863978962,8.21730109605221E-33,-0.044980524927468));
#1080=DIRECTION('center_axis',(6.11975657819858E-17,1.,-1.54658646274526E-18));
#1081=DIRECTION('ref_axis',(0.998987863978962,-6.1205191792198E-17,-0.044980524927468));
#1082=DIRECTION('center_axis',(2.43991249829558E-32,-1.,1.92592994438724E-34));
#1083=DIRECTION('ref_axis',(0.998987863978962,1.92592994438723E-32,-0.044980524927468));
#1084=DIRECTION('',(-6.11975657819858E-17,-1.,1.54658646274526E-18));
#1085=DIRECTION('center_axis',(-2.43991249829558E-32,1.,-1.92592994438724E-34));
#1086=DIRECTION('ref_axis',(0.998987863978962,1.92592994438723E-32,-0.044980524927468));
#1087=DIRECTION('center_axis',(6.11975657819858E-17,1.,-1.54658646274526E-18));
#1088=DIRECTION('ref_axis',(-0.893426972626687,5.53702956588765E-17,0.449208464505193));
#1089=DIRECTION('center_axis',(2.44352361694131E-32,-1.,9.62964972193618E-34));
#1090=DIRECTION('ref_axis',(-0.893426972626687,-1.58298944753408E-32,0.449208464505193));
#1091=DIRECTION('',(6.11975657819858E-17,1.,-1.54658646274526E-18));
#1092=DIRECTION('center_axis',(-2.44352361694131E-32,1.,-9.62964972193618E-34));
#1093=DIRECTION('ref_axis',(-0.893426972626687,-1.58298944753408E-32,0.449208464505193));
#1094=DIRECTION('',(6.11975657819858E-17,1.,-1.54658646274526E-18));
#1095=DIRECTION('center_axis',(-0.937134912618013,5.68106674057663E-17,
-0.348967270030343));
#1096=DIRECTION('ref_axis',(-0.348967270030343,-1.34815096107106E-33,0.937134912618013));
#1097=DIRECTION('',(0.348967270030343,1.34815096107106E-33,-0.937134912618013));
#1098=DIRECTION('',(-0.348967270030343,-1.34815096107106E-33,0.937134912618013));
#1099=DIRECTION('',(6.11975657819858E-17,1.,-1.54658646274526E-18));
#1100=DIRECTION('center_axis',(-0.887845664286275,5.36223450373034E-17,
-0.460141365678053));
#1101=DIRECTION('ref_axis',(-0.460141365678053,-6.74075480535533E-33,0.887845664286275));
#1102=DIRECTION('',(0.460141365678053,6.74075480535533E-33,-0.887845664286275));
#1103=DIRECTION('',(-0.460141365678053,-6.74075480535533E-33,0.887845664286275));
#1104=DIRECTION('',(6.11975657819858E-17,1.,-1.54658646274526E-18));
#1105=DIRECTION('center_axis',(6.11975657819858E-17,1.,-1.54658646274526E-18));
#1106=DIRECTION('ref_axis',(0.998987863978962,-6.12051917921981E-17,-0.044980524927468));
#1107=DIRECTION('center_axis',(2.43991249829558E-32,-1.,1.92592994438724E-34));
#1108=DIRECTION('ref_axis',(0.998987863978962,1.14660015293752E-32,-0.044980524927468));
#1109=DIRECTION('center_axis',(-2.43991249829558E-32,1.,-1.92592994438724E-34));
#1110=DIRECTION('ref_axis',(0.998987863978962,1.14660015293752E-32,-0.044980524927468));
#1111=DIRECTION('',(6.11975657819858E-17,1.,-1.54658646274526E-18));
#1112=DIRECTION('center_axis',(0.827900033749578,-4.97980240344656E-17,
0.56087568508311));
#1113=DIRECTION('ref_axis',(0.56087568508311,3.46667389989702E-33,-0.827900033749578));
#1114=DIRECTION('',(0.56087568508311,3.46667389989702E-33,-0.827900033749578));
#1115=DIRECTION('',(0.56087568508311,3.46667389989702E-33,-0.827900033749578));
#1116=DIRECTION('',(6.11975657819858E-17,1.,-1.54658646274526E-18));
#1117=DIRECTION('center_axis',(6.11975657819858E-17,1.,-1.54658646274526E-18));
#1118=DIRECTION('ref_axis',(-0.932035993500691,5.75987639230276E-17,0.36236570866899));
#1119=DIRECTION('center_axis',(2.44713473558703E-32,-1.,1.92592994438724E-33));
#1120=DIRECTION('ref_axis',(-0.932035993500691,-1.35486125158783E-32,0.36236570866899));
#1121=DIRECTION('center_axis',(2.44713473558703E-32,-1.,1.92592994438724E-33));
#1122=DIRECTION('ref_axis',(-0.932035993500691,-1.35486125158783E-32,0.36236570866899));
#1123=DIRECTION('',(6.11975657819858E-17,1.,-1.54658646274526E-18));
#1124=DIRECTION('center_axis',(6.11975657819858E-17,1.,-1.54658646274526E-18));
#1125=DIRECTION('ref_axis',(0.932035993500692,-5.75987639230277E-17,-0.362365708668988));
#1126=DIRECTION('center_axis',(2.43630137964985E-32,-1.,-5.77778983316171E-34));
#1127=DIRECTION('ref_axis',(0.932035993500692,5.6727391089224E-33,-0.362365708668988));
#1128=DIRECTION('center_axis',(-2.43630137964985E-32,1.,5.77778983316171E-34));
#1129=DIRECTION('ref_axis',(0.932035993500692,5.6727391089224E-33,-0.362365708668988));
#1130=DIRECTION('center_axis',(2.44713473558703E-32,-1.,1.92592994438724E-33));
#1131=DIRECTION('ref_axis',(0.998987863978962,1.23259516440783E-32,-0.044980524927468));
#1132=DIRECTION('center_axis',(2.44713473558703E-32,-1.,1.92592994438724E-33));
#1133=DIRECTION('ref_axis',(0.998987863978962,1.23259516440783E-32,-0.044980524927468));
#1134=DIRECTION('',(-0.014980707820841,-1.4053393795399E-17,0.999887782900255));
#1135=DIRECTION('',(0.999887782900255,6.18478285996194E-17,0.014980707820841));
#1136=CARTESIAN_POINT('',(0.,0.,0.));
#1137=CARTESIAN_POINT('',(0.,0.,0.));
#1138=CARTESIAN_POINT('Origin',(-186.278850036493,-126.911472167968,-126.271399085625));
#1139=CARTESIAN_POINT('',(-184.130796309854,-125.911472167968,-126.362860484431));
#1140=CARTESIAN_POINT('Origin',(-186.278850036493,-125.911472167968,-126.271399085625));
#1141=CARTESIAN_POINT('',(-184.130796309854,-123.911472167968,-126.362860484431));
#1142=CARTESIAN_POINT('',(-184.130796309854,-126.911472167968,-126.362860484431));
#1143=CARTESIAN_POINT('Origin',(-186.278850036493,-123.911472167968,-126.271399085625));
#1144=CARTESIAN_POINT('Origin',(-159.833273454809,-126.911472167968,-111.359622556232));
#1145=CARTESIAN_POINT('',(-157.68521972817,-125.911472167968,-111.451083955038));
#1146=CARTESIAN_POINT('Origin',(-159.833273454809,-125.911472167968,-111.359622556232));
#1147=CARTESIAN_POINT('',(-157.68521972817,-123.911472167968,-111.451083955038));
#1148=CARTESIAN_POINT('',(-157.68521972817,-126.911472167968,-111.451083955038));
#1149=CARTESIAN_POINT('Origin',(-159.833273454809,-123.911472167968,-111.359622556232));
#1150=CARTESIAN_POINT('Origin',(-173.210467246069,-126.911472167968,-133.994725522009));
#1151=CARTESIAN_POINT('',(-171.06241351943,-125.911472167968,-134.086186920815));
#1152=CARTESIAN_POINT('Origin',(-173.210467246069,-125.911472167968,-133.994725522009));
#1153=CARTESIAN_POINT('',(-171.06241351943,-123.911472167968,-134.086186920815));
#1154=CARTESIAN_POINT('',(-171.06241351943,-126.911472167968,-134.086186920815));
#1155=CARTESIAN_POINT('Origin',(-173.210467246069,-123.911472167968,-133.994725522009));
#1156=CARTESIAN_POINT('Origin',(-186.124444536075,-126.911472167968,-111.092184384545));
#1157=CARTESIAN_POINT('',(-183.976390809436,-125.911472167968,-111.183645783351));
#1158=CARTESIAN_POINT('Origin',(-186.124444536075,-125.911472167968,-111.092184384545));
#1159=CARTESIAN_POINT('',(-183.976390809436,-123.911472167968,-111.183645783351));
#1160=CARTESIAN_POINT('',(-183.976390809436,-126.911472167968,-111.183645783351));
#1161=CARTESIAN_POINT('Origin',(-186.124444536075,-123.911472167968,-111.092184384545));
#1162=CARTESIAN_POINT('Origin',(-172.901656245234,-126.911472167968,-103.636296119848));
#1163=CARTESIAN_POINT('',(-170.753602518595,-125.911472167968,-103.727757518654));
#1164=CARTESIAN_POINT('Origin',(-172.901656245234,-125.911472167968,-103.636296119848));
#1165=CARTESIAN_POINT('',(-170.753602518595,-123.911472167968,-103.727757518654));
#1166=CARTESIAN_POINT('',(-170.753602518595,-126.911472167968,-103.727757518654));
#1167=CARTESIAN_POINT('Origin',(-172.901656245234,-123.911472167968,-103.636296119848));
#1168=CARTESIAN_POINT('Origin',(-159.987678955227,-126.911472167968,-126.538837257313));
#1169=CARTESIAN_POINT('',(-157.839625228588,-125.911472167968,-126.630298656119));
#1170=CARTESIAN_POINT('Origin',(-159.987678955227,-125.911472167968,-126.538837257313));
#1171=CARTESIAN_POINT('',(-157.839625228588,-123.911472167968,-126.630298656119));
#1172=CARTESIAN_POINT('',(-157.839625228588,-126.911472167968,-126.630298656119));
#1173=CARTESIAN_POINT('Origin',(-159.987678955227,-123.911472167968,-126.538837257313));
#1174=CARTESIAN_POINT('Origin',(-161.267228789271,-125.911472167968,-234.08277249348));
#1175=CARTESIAN_POINT('',(-162.865609371637,-123.911472167968,-234.010803653596));
#1176=CARTESIAN_POINT('Origin',(-161.267228789271,-123.911472167968,-234.08277249348));
#1177=CARTESIAN_POINT('',(-162.865609371637,-125.911472167968,-234.010803653596));
#1178=CARTESIAN_POINT('',(-162.865609371637,-125.911472167968,-234.010803653596));
#1179=CARTESIAN_POINT('Origin',(-161.267228789271,-125.911472167968,-234.08277249348));
#1180=CARTESIAN_POINT('Origin',(-119.11423427253,-125.911472167968,-213.46871214918));
#1181=CARTESIAN_POINT('',(-120.712614854897,-123.911472167968,-213.396743309296));
#1182=CARTESIAN_POINT('Origin',(-119.11423427253,-123.911472167968,-213.46871214918));
#1183=CARTESIAN_POINT('',(-120.712614854897,-125.911472167968,-213.396743309296));
#1184=CARTESIAN_POINT('',(-120.712614854897,-125.911472167968,-213.396743309296));
#1185=CARTESIAN_POINT('Origin',(-119.11423427253,-125.911472167968,-213.46871214918));
#1186=CARTESIAN_POINT('Origin',(-143.94218371724,-125.911472167968,-216.10452467669));
#1187=CARTESIAN_POINT('',(-145.540564299607,-123.911472167968,-216.032555836806));
#1188=CARTESIAN_POINT('Origin',(-143.94218371724,-123.911472167968,-216.10452467669));
#1189=CARTESIAN_POINT('',(-145.540564299607,-125.911472167968,-216.032555836806));
#1190=CARTESIAN_POINT('',(-145.540564299607,-125.911472167968,-216.032555836806));
#1191=CARTESIAN_POINT('Origin',(-143.94218371724,-125.911472167968,-216.10452467669));
#1192=CARTESIAN_POINT('Origin',(-162.982788352971,-125.911472167968,-258.9912336401));
#1193=CARTESIAN_POINT('',(-164.581168935337,-123.911472167968,-258.919264800216));
#1194=CARTESIAN_POINT('Origin',(-162.982788352971,-123.911472167968,-258.9912336401));
#1195=CARTESIAN_POINT('',(-164.581168935337,-125.911472167968,-258.919264800216));
#1196=CARTESIAN_POINT('',(-164.581168935337,-125.911472167968,-258.919264800216));
#1197=CARTESIAN_POINT('Origin',(-162.982788352971,-125.911472167968,-258.9912336401));
#1198=CARTESIAN_POINT('Origin',(-170.521611976586,-125.911472167968,-222.885382005506));
#1199=CARTESIAN_POINT('',(-172.719385277339,-123.911472167968,-222.786424850666));
#1200=CARTESIAN_POINT('Origin',(-170.521611976586,-123.911472167968,-222.885382005506));
#1201=CARTESIAN_POINT('',(-172.719385277339,-125.911472167968,-222.786424850666));
#1202=CARTESIAN_POINT('',(-172.719385277339,-125.911472167968,-222.786424850666));
#1203=CARTESIAN_POINT('Origin',(-170.521611976586,-125.911472167968,-222.885382005506));
#1204=CARTESIAN_POINT('Origin',(-98.4006539322305,-125.911472167968,-227.40866088636));
#1205=CARTESIAN_POINT('',(-99.9990345145968,-123.911472167968,-227.336692046476));
#1206=CARTESIAN_POINT('Origin',(-98.4006539322305,-123.911472167968,-227.40866088636));
#1207=CARTESIAN_POINT('',(-99.9990345145968,-125.911472167968,-227.336692046476));
#1208=CARTESIAN_POINT('',(-99.9990345145968,-125.911472167968,-227.336692046476));
#1209=CARTESIAN_POINT('Origin',(-98.4006539322305,-125.911472167968,-227.40866088636));
#1210=CARTESIAN_POINT('Origin',(-148.28613302217,-125.911472167968,-279.17496231935));
#1211=CARTESIAN_POINT('',(-149.884513604537,-123.911472167968,-279.102993479466));
#1212=CARTESIAN_POINT('Origin',(-148.28613302217,-123.911472167968,-279.17496231935));
#1213=CARTESIAN_POINT('',(-149.884513604537,-125.911472167968,-279.102993479466));
#1214=CARTESIAN_POINT('',(-149.884513604537,-125.911472167968,-279.102993479466));
#1215=CARTESIAN_POINT('Origin',(-148.28613302217,-125.911472167968,-279.17496231935));
#1216=CARTESIAN_POINT('Origin',(-142.000032058536,-125.911472167968,-201.00000399459));
#1217=CARTESIAN_POINT('',(-144.19780535929,-123.911472167968,-200.90104683975));
#1218=CARTESIAN_POINT('Origin',(-142.000032058536,-123.911472167968,-201.00000399459));
#1219=CARTESIAN_POINT('',(-144.19780535929,-125.911472167968,-200.90104683975));
#1220=CARTESIAN_POINT('',(-144.19780535929,-125.911472167968,-200.90104683975));
#1221=CARTESIAN_POINT('Origin',(-142.000032058536,-125.911472167968,-201.00000399459));
#1222=CARTESIAN_POINT('Origin',(-91.4935571433605,-125.911472167968,-251.40171394884));
#1223=CARTESIAN_POINT('',(-93.0919377257268,-123.911472167968,-251.329745108956));
#1224=CARTESIAN_POINT('Origin',(-91.4935571433605,-123.911472167968,-251.40171394884));
#1225=CARTESIAN_POINT('',(-93.0919377257268,-125.911472167968,-251.329745108956));
#1226=CARTESIAN_POINT('',(-93.0919377257268,-125.911472167968,-251.329745108956));
#1227=CARTESIAN_POINT('Origin',(-91.4935571433605,-125.911472167968,-251.40171394884));
#1228=CARTESIAN_POINT('Origin',(-173.621611072,-125.911472167968,-209.387459450048));
#1229=CARTESIAN_POINT('',(-170.478999634724,-125.911472167968,-212.511737427982));
#1230=CARTESIAN_POINT('',(-177.378751580971,-125.911472167968,-211.737143412828));
#1231=CARTESIAN_POINT('Origin',(-173.621611072,-125.911472167968,-209.387459450048));
#1232=CARTESIAN_POINT('',(-170.478999634724,-123.911472167968,-212.511737427982));
#1233=CARTESIAN_POINT('',(-170.478999634724,-125.911472167968,-212.511737427982));
#1234=CARTESIAN_POINT('',(-177.378751580971,-123.911472167968,-211.737143412828));
#1235=CARTESIAN_POINT('Origin',(-173.621611072,-123.911472167968,-209.387459450048));
#1236=CARTESIAN_POINT('',(-177.378751580971,-125.911472167968,-211.737143412828));
#1237=CARTESIAN_POINT('Origin',(-191.016707956578,-125.911472167968,-186.954012160852));
#1238=CARTESIAN_POINT('',(-191.016707956578,-125.911472167968,-186.954012160852));
#1239=CARTESIAN_POINT('',(-177.378751580971,-125.911472167968,-211.737143412828));
#1240=CARTESIAN_POINT('',(-191.016707956578,-123.911472167968,-186.954012160852));
#1241=CARTESIAN_POINT('',(-177.378751580971,-123.911472167968,-211.737143412828));
#1242=CARTESIAN_POINT('',(-191.016707956578,-125.911472167968,-186.954012160852));
#1243=CARTESIAN_POINT('Origin',(-102.840653550963,-125.911472167968,-154.119297997858));
#1244=CARTESIAN_POINT('',(-196.058149718551,-125.911472167968,-141.327369568048));
#1245=CARTESIAN_POINT('Origin',(-102.840653550963,-125.911472167968,-154.119297997858));
#1246=CARTESIAN_POINT('',(-196.058149718551,-123.911472167968,-141.327369568048));
#1247=CARTESIAN_POINT('Origin',(-102.840653550963,-123.911472167968,-154.119297997858));
#1248=CARTESIAN_POINT('',(-196.058149718551,-125.911472167968,-141.327369568048));
#1249=CARTESIAN_POINT('Origin',(-193.125210476346,-125.911472167968,-141.729847111618));
#1250=CARTESIAN_POINT('',(-191.174705068758,-125.911472167968,-139.502820073948));
#1251=CARTESIAN_POINT('Origin',(-193.125210476346,-125.911472167968,-141.729847111618));
#1252=CARTESIAN_POINT('',(-191.174705068758,-123.911472167968,-139.502820073948));
#1253=CARTESIAN_POINT('Origin',(-193.125210476346,-123.911472167968,-141.729847111618));
#1254=CARTESIAN_POINT('',(-191.174705068758,-125.911472167968,-139.502820073948));
#1255=CARTESIAN_POINT('Origin',(-173.056061745651,-125.911472167968,-118.815510820929));
#1256=CARTESIAN_POINT('',(-165.339481323799,-125.911472167968,-145.210669213958));
#1257=CARTESIAN_POINT('Origin',(-173.056061745651,-125.911472167968,-118.815510820929));
#1258=CARTESIAN_POINT('',(-165.339481323799,-123.911472167968,-145.210669213958));
#1259=CARTESIAN_POINT('Origin',(-173.056061745651,-123.911472167968,-118.815510820929));
#1260=CARTESIAN_POINT('',(-165.339481323799,-125.911472167968,-145.210669213958));
#1261=CARTESIAN_POINT('Origin',(-164.563050051102,-125.911472167968,-147.86651225631));
#1262=CARTESIAN_POINT('',(-161.808873962787,-125.911472167968,-147.600313343128));
#1263=CARTESIAN_POINT('Origin',(-164.563050051102,-125.911472167968,-147.86651225631));
#1264=CARTESIAN_POINT('',(-161.808873962787,-123.911472167968,-147.600313343128));
#1265=CARTESIAN_POINT('Origin',(-164.563050051102,-123.911472167968,-147.86651225631));
#1266=CARTESIAN_POINT('',(-161.808873962787,-125.911472167968,-147.600313343128));
#1267=CARTESIAN_POINT('Origin',(-111.520674826594,-125.911472167968,-142.739816582333));
#1268=CARTESIAN_POINT('',(-157.504315041732,-125.911472167968,-163.669036197212));
#1269=CARTESIAN_POINT('Origin',(-111.520674826594,-125.911472167968,-142.739816582333));
#1270=CARTESIAN_POINT('',(-157.504315041732,-123.911472167968,-163.669036197212));
#1271=CARTESIAN_POINT('Origin',(-111.520674826594,-123.911472167968,-142.739816582333));
#1272=CARTESIAN_POINT('',(-157.504315041732,-125.911472167968,-163.669036197212));
#1273=CARTESIAN_POINT('Origin',(-140.373179286514,-125.911472167968,-187.888809076186));
#1274=CARTESIAN_POINT('',(-140.373179286514,-125.911472167968,-187.888809076186));
#1275=CARTESIAN_POINT('',(-157.504315041732,-125.911472167968,-163.669036197212));
#1276=CARTESIAN_POINT('',(-140.373179286514,-123.911472167968,-187.888809076186));
#1277=CARTESIAN_POINT('',(-157.504315041732,-123.911472167968,-163.669036197212));
#1278=CARTESIAN_POINT('',(-140.373179286514,-125.911472167968,-187.888809076186));
#1279=CARTESIAN_POINT('Origin',(-144.104112354434,-125.911472167968,-190.534859830137));
#1280=CARTESIAN_POINT('',(-142.614568707647,-125.911472167968,-194.859522345767));
#1281=CARTESIAN_POINT('Origin',(-144.104112354434,-125.911472167968,-190.534859830137));
#1282=CARTESIAN_POINT('',(-142.614568707647,-123.911472167968,-194.859522345767));
#1283=CARTESIAN_POINT('Origin',(-144.104112354434,-123.911472167968,-190.534859830137));
#1284=CARTESIAN_POINT('',(-142.614568707647,-125.911472167968,-194.859522345767));
#1285=CARTESIAN_POINT('Origin',(-127.90729129426,-125.911472167968,-248.89373364829));
#1286=CARTESIAN_POINT('Origin',(-127.90729129426,-125.911472167968,-248.89373364829));
#1287=CARTESIAN_POINT('Origin',(-127.90729129426,-123.911472167968,-248.89373364829));
#1288=CARTESIAN_POINT('Origin',(-101.62485125728,-125.911472167968,-274.22125515559));
#1289=CARTESIAN_POINT('',(-103.223231839647,-123.911472167968,-274.149286315706));
#1290=CARTESIAN_POINT('Origin',(-101.62485125728,-123.911472167968,-274.22125515559));
#1291=CARTESIAN_POINT('',(-103.223231839647,-125.911472167968,-274.149286315706));
#1292=CARTESIAN_POINT('',(-103.223231839647,-125.911472167968,-274.149286315706));
#1293=CARTESIAN_POINT('Origin',(-101.62485125728,-125.911472167968,-274.22125515559));
#1294=CARTESIAN_POINT('Origin',(-127.90729129426,-125.911472167968,-248.89373364829));
#1295=CARTESIAN_POINT('',(-157.876927213629,-123.911472167968,-247.544317900466));
#1296=CARTESIAN_POINT('Origin',(-127.90729129426,-123.911472167968,-248.89373364829));
#1297=CARTESIAN_POINT('',(-157.876927213629,-125.911472167968,-247.544317900466));
#1298=CARTESIAN_POINT('',(-157.876927213629,-125.911472167968,-247.544317900466));
#1299=CARTESIAN_POINT('Origin',(-127.90729129426,-125.911472167968,-248.89373364829));
#1300=CARTESIAN_POINT('Origin',(-124.05399116129,-125.911472167968,-285.18976756503));
#1301=CARTESIAN_POINT('',(-125.652371743657,-123.911472167968,-285.117798725146));
#1302=CARTESIAN_POINT('Origin',(-124.05399116129,-123.911472167968,-285.18976756503));
#1303=CARTESIAN_POINT('',(-125.652371743657,-125.911472167968,-285.117798725146));
#1304=CARTESIAN_POINT('',(-125.652371743657,-125.911472167968,-285.117798725146));
#1305=CARTESIAN_POINT('Origin',(-124.05399116129,-125.911472167968,-285.18976756503));
#1306=CARTESIAN_POINT('Origin',(-102.840653550963,-125.911472167968,-154.119297997859));
#1307=CARTESIAN_POINT('',(-197.625303492885,-125.911472167968,-106.462278047036));
#1308=CARTESIAN_POINT('',(-202.262326907995,-125.911472167968,-191.141619401216));
#1309=CARTESIAN_POINT('Origin',(-102.840653550963,-125.911472167968,-154.119297997859));
#1310=CARTESIAN_POINT('',(-197.625303492885,-123.911472167968,-106.462278047036));
#1311=CARTESIAN_POINT('',(-197.625303492885,-125.911472167968,-106.462278047036));
#1312=CARTESIAN_POINT('',(-202.262326907995,-123.911472167968,-191.141619401216));
#1313=CARTESIAN_POINT('Origin',(-102.840653550963,-123.911472167968,-154.119297997859));
#1314=CARTESIAN_POINT('',(-202.262326907995,-125.911472167968,-191.141619401216));
#1315=CARTESIAN_POINT('Origin',(-198.761926218795,-125.911472167968,-200.541778028459));
#1316=CARTESIAN_POINT('',(-198.761926218795,-125.911472167968,-200.541778028459));
#1317=CARTESIAN_POINT('',(-202.262326907995,-125.911472167968,-191.141619401216));
#1318=CARTESIAN_POINT('',(-198.761926218795,-123.911472167968,-200.541778028459));
#1319=CARTESIAN_POINT('',(-202.262326907995,-123.911472167968,-191.141619401216));
#1320=CARTESIAN_POINT('',(-198.761926218795,-125.911472167968,-200.541778028459));
#1321=CARTESIAN_POINT('Origin',(-170.445541128247,-125.911472167968,-255.178421473582));
#1322=CARTESIAN_POINT('',(-170.445541128247,-125.911472167968,-255.178421473582));
#1323=CARTESIAN_POINT('',(-198.761926218795,-125.911472167968,-200.541778028459));
#1324=CARTESIAN_POINT('',(-170.445541128247,-123.911472167968,-255.178421473582));
#1325=CARTESIAN_POINT('',(-198.761926218795,-123.911472167968,-200.541778028459));
#1326=CARTESIAN_POINT('',(-170.445541128247,-125.911472167968,-255.178421473582));
#1327=CARTESIAN_POINT('Origin',(-127.90729129426,-125.911472167968,-248.89373364829));
#1328=CARTESIAN_POINT('',(-112.423071315884,-125.911472167968,-208.778413237489));
#1329=CARTESIAN_POINT('Origin',(-127.90729129426,-125.911472167968,-248.89373364829));
#1330=CARTESIAN_POINT('',(-112.423071315884,-123.911472167968,-208.778413237489));
#1331=CARTESIAN_POINT('Origin',(-127.90729129426,-123.911472167968,-248.89373364829));
#1332=CARTESIAN_POINT('',(-112.423071315884,-125.911472167968,-208.778413237489));
#1333=CARTESIAN_POINT('Origin',(-147.007499562382,-125.911472167968,-157.72886683356));
#1334=CARTESIAN_POINT('',(-147.007499562382,-125.911472167968,-157.72886683356));
#1335=CARTESIAN_POINT('',(-147.007499562382,-125.911472167968,-157.72886683356));
#1336=CARTESIAN_POINT('',(-147.007499562382,-123.911472167968,-157.72886683356));
#1337=CARTESIAN_POINT('',(-147.007499562382,-123.911472167968,-157.72886683356));
#1338=CARTESIAN_POINT('',(-147.007499562382,-125.911472167968,-157.72886683356));
#1339=CARTESIAN_POINT('Origin',(-111.520674826595,-125.911472167968,-142.739816582333));
#1340=CARTESIAN_POINT('',(-147.425071924382,-125.911472167968,-128.780567809326));
#1341=CARTESIAN_POINT('Origin',(-111.520674826595,-125.911472167968,-142.739816582333));
#1342=CARTESIAN_POINT('',(-147.425071924382,-123.911472167968,-128.780567809326));
#1343=CARTESIAN_POINT('Origin',(-111.520674826595,-123.911472167968,-142.739816582333));
#1344=CARTESIAN_POINT('',(-147.425071924382,-125.911472167968,-128.780567809326));
#1345=CARTESIAN_POINT('Origin',(-173.056061745651,-125.911472167968,-118.815510820929));
#1346=CARTESIAN_POINT('Origin',(-173.056061745651,-125.911472167968,-118.815510820929));
#1347=CARTESIAN_POINT('Origin',(-173.056061745651,-123.911472167968,-118.815510820929));
#1348=CARTESIAN_POINT('Origin',(-146.514036672207,-125.911472167968,-191.791121574547));
#1349=CARTESIAN_POINT('Origin',(-146.514036672207,-123.911472167968,-191.791121574547));
#1350=CARTESIAN_POINT('',(-3.7429576971852,1.99999999999998,1.8882116205256));
#1351=UNCERTAINTY_MEASURE_WITH_UNIT(LENGTH_MEASURE(0.01),#1357,
'DISTANCE_ACCURACY_VALUE',
'Maximum model space distance between geometric entities at asserted c
onnectivities');
#1352=UNCERTAINTY_MEASURE_WITH_UNIT(LENGTH_MEASURE(0.01),#1357,
'DISTANCE_ACCURACY_VALUE',
'Maximum model space distance between geometric entities at asserted c
onnectivities');
#1353=UNCERTAINTY_MEASURE_WITH_UNIT(LENGTH_MEASURE(0.01),#1357,
'DISTANCE_ACCURACY_VALUE',
'Maximum model space distance between geometric entities at asserted c
onnectivities');
#1354=(
GEOMETRIC_REPRESENTATION_CONTEXT(3)
GLOBAL_UNCERTAINTY_ASSIGNED_CONTEXT((#1351))
GLOBAL_UNIT_ASSIGNED_CONTEXT((#1357,#1359,#1360))
REPRESENTATION_CONTEXT('','3D')
);
#1355=(
GEOMETRIC_REPRESENTATION_CONTEXT(3)
GLOBAL_UNCERTAINTY_ASSIGNED_CONTEXT((#1352))
GLOBAL_UNIT_ASSIGNED_CONTEXT((#1357,#1359,#1360))
REPRESENTATION_CONTEXT('','3D')
);
#1356=(
GEOMETRIC_REPRESENTATION_CONTEXT(3)
GLOBAL_UNCERTAINTY_ASSIGNED_CONTEXT((#1353))
GLOBAL_UNIT_ASSIGNED_CONTEXT((#1357,#1359,#1360))
REPRESENTATION_CONTEXT('','3D')
);
#1357=(
LENGTH_UNIT()
NAMED_UNIT(*)
SI_UNIT(.MILLI.,.METRE.)
);
#1358=(
LENGTH_UNIT()
NAMED_UNIT(*)
SI_UNIT($,.METRE.)
);
#1359=(
NAMED_UNIT(*)
PLANE_ANGLE_UNIT()
SI_UNIT($,.RADIAN.)
);
#1360=(
NAMED_UNIT(*)
SI_UNIT($,.STERADIAN.)
SOLID_ANGLE_UNIT()
);
#1361=SHAPE_DEFINITION_REPRESENTATION(#1363,#1366);
#1362=SHAPE_DEFINITION_REPRESENTATION(#1364,#1367);
#1363=PRODUCT_DEFINITION_SHAPE('',$,#1369);
#1364=PRODUCT_DEFINITION_SHAPE('',$,#1370);
#1365=PRODUCT_DEFINITION_SHAPE($,$,#14);
#1366=SHAPE_REPRESENTATION('',(#791,#890),#1354);
#1367=SHAPE_REPRESENTATION('',(#792),#1355);
#1368=PRODUCT_DEFINITION_CONTEXT('part definition',#1376,'design');
#1369=PRODUCT_DEFINITION('Leg (right)','Leg (right) v74',#1371,#1368);
#1370=PRODUCT_DEFINITION('Shin','Shin',#1372,#1368);
#1371=PRODUCT_DEFINITION_FORMATION('',$,#1378);
#1372=PRODUCT_DEFINITION_FORMATION('',$,#1379);
#1373=PRODUCT_RELATED_PRODUCT_CATEGORY('Leg (right) v74',
'Leg (right) v74',(#1378));
#1374=PRODUCT_RELATED_PRODUCT_CATEGORY('Shin','Shin',(#1379));
#1375=APPLICATION_PROTOCOL_DEFINITION('international standard',
'automotive_design',2009,#1376);
#1376=APPLICATION_CONTEXT(
'Core Data for Automotive Mechanical Design Process');
#1377=PRODUCT_CONTEXT('part definition',#1376,'mechanical');
#1378=PRODUCT('Leg (right)','Leg (right) v74',$,(#1377));
#1379=PRODUCT('Shin','Shin',$,(#1377));
#1380=PRESENTATION_STYLE_ASSIGNMENT((#1386));
#1381=PRESENTATION_STYLE_ASSIGNMENT((#1387));
#1382=PRESENTATION_STYLE_ASSIGNMENT((#1388));
#1383=PRESENTATION_STYLE_ASSIGNMENT((#1389));
#1384=PRESENTATION_STYLE_ASSIGNMENT((#1390));
#1385=PRESENTATION_STYLE_ASSIGNMENT((#1391));
#1386=SURFACE_STYLE_USAGE(.BOTH.,#1392);
#1387=SURFACE_STYLE_USAGE(.BOTH.,#1393);
#1388=SURFACE_STYLE_USAGE(.BOTH.,#1394);
#1389=SURFACE_STYLE_USAGE(.BOTH.,#1395);
#1390=SURFACE_STYLE_USAGE(.BOTH.,#1396);
#1391=SURFACE_STYLE_USAGE(.BOTH.,#1397);
#1392=SURFACE_SIDE_STYLE('',(#1398));
#1393=SURFACE_SIDE_STYLE('',(#1399));
#1394=SURFACE_SIDE_STYLE('',(#1400));
#1395=SURFACE_SIDE_STYLE('',(#1401));
#1396=SURFACE_SIDE_STYLE('',(#1402));
#1397=SURFACE_SIDE_STYLE('',(#1403));
#1398=SURFACE_STYLE_FILL_AREA(#1404);
#1399=SURFACE_STYLE_FILL_AREA(#1405);
#1400=SURFACE_STYLE_FILL_AREA(#1406);
#1401=SURFACE_STYLE_FILL_AREA(#1407);
#1402=SURFACE_STYLE_FILL_AREA(#1408);
#1403=SURFACE_STYLE_FILL_AREA(#1409);
#1404=FILL_AREA_STYLE('Steel - Satin',(#1410));
#1405=FILL_AREA_STYLE('Plate',(#1411));
#1406=FILL_AREA_STYLE('ABS (White)',(#1412));
#1407=FILL_AREA_STYLE('Aluminum - Satin',(#1413));
#1408=FILL_AREA_STYLE('ABS (White) (1)',(#1414));
#1409=FILL_AREA_STYLE('Aluminum - Anodized Glossy (Grey)',(#1415));
#1410=FILL_AREA_STYLE_COLOUR('Steel - Satin',#1416);
#1411=FILL_AREA_STYLE_COLOUR('Plate',#1417);
#1412=FILL_AREA_STYLE_COLOUR('ABS (White)',#1418);
#1413=FILL_AREA_STYLE_COLOUR('Aluminum - Satin',#1419);
#1414=FILL_AREA_STYLE_COLOUR('ABS (White) (1)',#1420);
#1415=FILL_AREA_STYLE_COLOUR('Aluminum - Anodized Glossy (Grey)',#1421);
#1416=COLOUR_RGB('Steel - Satin',0.627450980392157,0.627450980392157,0.627450980392157);
#1417=COLOUR_RGB('Plate',0.6,0.6,0.6);
#1418=COLOUR_RGB('ABS (White)',0.964705882352941,0.964705882352941,0.952941176470588);
#1419=COLOUR_RGB('Aluminum - Satin',0.96078431372549,0.96078431372549,0.964705882352941);
#1420=COLOUR_RGB('ABS (White) (1)',0.905882352941176,0.262745098039216,
0.184313725490196);
#1421=COLOUR_RGB('Aluminum - Anodized Glossy (Grey)',0.537254901960784,
0.537254901960784,0.537254901960784);
ENDSEC;
END-ISO-10303-21;
