ISO-10303-21;
HEADER;
/* Generated by software containing ST-Developer
 * from STEP Tools, Inc. (www.steptools.com) 
 */

FILE_DESCRIPTION(
/* description */ (''),
/* implementation_level */ '2;1');

FILE_NAME(
/* name */ 'PlateSpacer.step',
/* time_stamp */ '2026-08-13T12:52:01-04:00',
/* author */ (''),
/* organization */ (''),
/* preprocessor_version */ 'ST-DEVELOPER v20.1',
/* originating_system */ 'Autodesk Translation Framework v15.8.0.0',
/* authorisation */ '');

FILE_SCHEMA (('AUTOMOTIVE_DESIGN { 1 0 10303 214 3 1 1 }'));
ENDSEC;

DATA;
#10=MECHANICAL_DESIGN_GEOMETRIC_PRESENTATION_REPRESENTATION('',(#17),#347);
#11=ITEM_DEFINED_TRANSFORMATION($,$,#197,#220);
#12=(
REPRESENTATION_RELATIONSHIP($,$,#358,#357)
REPRESENTATION_RELATIONSHIP_WITH_TRANSFORMATION(#11)
SHAPE_REPRESENTATION_RELATIONSHIP()
);
#13=CONTEXT_DEPENDENT_SHAPE_REPRESENTATION(#12,#356);
#14=NEXT_ASSEMBLY_USAGE_OCCURRENCE('Shin:1','Shin:1','Shin:1',#360,#361,
'Shin:1');
#15=SHAPE_REPRESENTATION_RELATIONSHIP('SRR','None',#358,#16);
#16=ADVANCED_BREP_SHAPE_REPRESENTATION('',(#18),#346);
#17=STYLED_ITEM('',(#371),#18);
#18=MANIFOLD_SOLID_BREP('Body29',#183);
#19=B_SPLINE_CURVE_WITH_KNOTS('',1,(#339,#340),.UNSPECIFIED.,.F.,.F.,(2,
2),(-0.452516308265474,-1.11022302462516E-16),.UNSPECIFIED.);
#20=(
BOUNDED_SURFACE()
B_SPLINE_SURFACE(1,2,((#321,#322,#323,#324,#325,#326,#327,#328,#329),(#330,
#331,#332,#333,#334,#335,#336,#337,#338)),.UNSPECIFIED.,.F.,.T.,.F.)
B_SPLINE_SURFACE_WITH_KNOTS((2,2),(3,2,2,2,3),(-0.281528196995382,0.734044505259102),
(-3.14159265358979,-1.5707963267949,0.,1.5707963267949,3.14159265358979),
 .UNSPECIFIED.)
GEOMETRIC_REPRESENTATION_ITEM()
RATIONAL_B_SPLINE_SURFACE(((1.,0.707106781186548,1.,0.707106781186548,1.,
0.707106781186548,1.,0.707106781186548,1.),(1.,0.707106781186548,1.,0.707106781186548,
1.,0.707106781186548,1.,0.707106781186548,1.)))
REPRESENTATION_ITEM('')
SURFACE()
);
#21=FACE_BOUND('',#51,.T.);
#22=FACE_BOUND('',#52,.T.);
#23=FACE_BOUND('',#53,.T.);
#24=FACE_BOUND('',#54,.T.);
#25=FACE_BOUND('',#55,.T.);
#26=FACE_BOUND('',#56,.T.);
#27=FACE_BOUND('',#58,.T.);
#28=FACE_BOUND('',#59,.T.);
#29=FACE_BOUND('',#60,.T.);
#30=FACE_BOUND('',#61,.T.);
#31=FACE_BOUND('',#62,.T.);
#32=FACE_BOUND('',#63,.T.);
#33=PLANE('',#216);
#34=PLANE('',#218);
#35=FACE_OUTER_BOUND('',#44,.T.);
#36=FACE_OUTER_BOUND('',#45,.T.);
#37=FACE_OUTER_BOUND('',#46,.T.);
#38=FACE_OUTER_BOUND('',#47,.T.);
#39=FACE_OUTER_BOUND('',#48,.T.);
#40=FACE_OUTER_BOUND('',#49,.T.);
#41=FACE_OUTER_BOUND('',#50,.T.);
#42=FACE_OUTER_BOUND('',#57,.T.);
#43=FACE_OUTER_BOUND('',#64,.T.);
#44=EDGE_LOOP('',(#126,#127,#128,#129));
#45=EDGE_LOOP('',(#130,#131,#132,#133));
#46=EDGE_LOOP('',(#134,#135,#136,#137));
#47=EDGE_LOOP('',(#138,#139,#140,#141));
#48=EDGE_LOOP('',(#142,#143,#144,#145));
#49=EDGE_LOOP('',(#146,#147,#148,#149));
#50=EDGE_LOOP('',(#150));
#51=EDGE_LOOP('',(#151));
#52=EDGE_LOOP('',(#152));
#53=EDGE_LOOP('',(#153));
#54=EDGE_LOOP('',(#154));
#55=EDGE_LOOP('',(#155));
#56=EDGE_LOOP('',(#156));
#57=EDGE_LOOP('',(#157));
#58=EDGE_LOOP('',(#158));
#59=EDGE_LOOP('',(#159));
#60=EDGE_LOOP('',(#160));
#61=EDGE_LOOP('',(#161));
#62=EDGE_LOOP('',(#162));
#63=EDGE_LOOP('',(#163));
#64=EDGE_LOOP('',(#164,#165,#166,#167));
#65=LINE('',#283,#71);
#66=LINE('',#289,#72);
#67=LINE('',#295,#73);
#68=LINE('',#301,#74);
#69=LINE('',#307,#75);
#70=LINE('',#313,#76);
#71=VECTOR('',#229,2.15);
#72=VECTOR('',#236,2.15);
#73=VECTOR('',#243,2.15);
#74=VECTOR('',#250,2.15);
#75=VECTOR('',#257,2.15);
#76=VECTOR('',#264,2.15);
#77=CIRCLE('',#199,2.15);
#78=CIRCLE('',#200,2.15);
#79=CIRCLE('',#202,2.15);
#80=CIRCLE('',#203,2.15);
#81=CIRCLE('',#205,2.15);
#82=CIRCLE('',#206,2.15);
#83=CIRCLE('',#208,2.15);
#84=CIRCLE('',#209,2.15);
#85=CIRCLE('',#211,2.15);
#86=CIRCLE('',#212,2.15);
#87=CIRCLE('',#214,2.15);
#88=CIRCLE('',#215,2.15);
#89=CIRCLE('',#217,27.5000000000001);
#90=CIRCLE('',#219,27.5);
#91=VERTEX_POINT('',#280);
#92=VERTEX_POINT('',#282);
#93=VERTEX_POINT('',#286);
#94=VERTEX_POINT('',#288);
#95=VERTEX_POINT('',#292);
#96=VERTEX_POINT('',#294);
#97=VERTEX_POINT('',#298);
#98=VERTEX_POINT('',#300);
#99=VERTEX_POINT('',#304);
#100=VERTEX_POINT('',#306);
#101=VERTEX_POINT('',#310);
#102=VERTEX_POINT('',#312);
#103=VERTEX_POINT('',#316);
#104=VERTEX_POINT('',#319);
#105=EDGE_CURVE('',#91,#91,#77,.T.);
#106=EDGE_CURVE('',#91,#92,#65,.T.);
#107=EDGE_CURVE('',#92,#92,#78,.T.);
#108=EDGE_CURVE('',#93,#93,#79,.T.);
#109=EDGE_CURVE('',#93,#94,#66,.T.);
#110=EDGE_CURVE('',#94,#94,#80,.T.);
#111=EDGE_CURVE('',#95,#95,#81,.T.);
#112=EDGE_CURVE('',#95,#96,#67,.T.);
#113=EDGE_CURVE('',#96,#96,#82,.T.);
#114=EDGE_CURVE('',#97,#97,#83,.T.);
#115=EDGE_CURVE('',#97,#98,#68,.T.);
#116=EDGE_CURVE('',#98,#98,#84,.T.);
#117=EDGE_CURVE('',#99,#99,#85,.T.);
#118=EDGE_CURVE('',#99,#100,#69,.T.);
#119=EDGE_CURVE('',#100,#100,#86,.T.);
#120=EDGE_CURVE('',#101,#101,#87,.T.);
#121=EDGE_CURVE('',#101,#102,#70,.T.);
#122=EDGE_CURVE('',#102,#102,#88,.T.);
#123=EDGE_CURVE('',#103,#103,#89,.T.);
#124=EDGE_CURVE('',#104,#104,#90,.T.);
#125=EDGE_CURVE('',#103,#104,#19,.T.);
#126=ORIENTED_EDGE('',*,*,#105,.F.);
#127=ORIENTED_EDGE('',*,*,#106,.T.);
#128=ORIENTED_EDGE('',*,*,#107,.F.);
#129=ORIENTED_EDGE('',*,*,#106,.F.);
#130=ORIENTED_EDGE('',*,*,#108,.F.);
#131=ORIENTED_EDGE('',*,*,#109,.T.);
#132=ORIENTED_EDGE('',*,*,#110,.F.);
#133=ORIENTED_EDGE('',*,*,#109,.F.);
#134=ORIENTED_EDGE('',*,*,#111,.F.);
#135=ORIENTED_EDGE('',*,*,#112,.T.);
#136=ORIENTED_EDGE('',*,*,#113,.F.);
#137=ORIENTED_EDGE('',*,*,#112,.F.);
#138=ORIENTED_EDGE('',*,*,#114,.F.);
#139=ORIENTED_EDGE('',*,*,#115,.T.);
#140=ORIENTED_EDGE('',*,*,#116,.F.);
#141=ORIENTED_EDGE('',*,*,#115,.F.);
#142=ORIENTED_EDGE('',*,*,#117,.F.);
#143=ORIENTED_EDGE('',*,*,#118,.T.);
#144=ORIENTED_EDGE('',*,*,#119,.F.);
#145=ORIENTED_EDGE('',*,*,#118,.F.);
#146=ORIENTED_EDGE('',*,*,#120,.F.);
#147=ORIENTED_EDGE('',*,*,#121,.T.);
#148=ORIENTED_EDGE('',*,*,#122,.F.);
#149=ORIENTED_EDGE('',*,*,#121,.F.);
#150=ORIENTED_EDGE('',*,*,#123,.F.);
#151=ORIENTED_EDGE('',*,*,#122,.T.);
#152=ORIENTED_EDGE('',*,*,#119,.T.);
#153=ORIENTED_EDGE('',*,*,#116,.T.);
#154=ORIENTED_EDGE('',*,*,#113,.T.);
#155=ORIENTED_EDGE('',*,*,#110,.T.);
#156=ORIENTED_EDGE('',*,*,#107,.T.);
#157=ORIENTED_EDGE('',*,*,#124,.F.);
#158=ORIENTED_EDGE('',*,*,#120,.T.);
#159=ORIENTED_EDGE('',*,*,#117,.T.);
#160=ORIENTED_EDGE('',*,*,#114,.T.);
#161=ORIENTED_EDGE('',*,*,#111,.T.);
#162=ORIENTED_EDGE('',*,*,#108,.T.);
#163=ORIENTED_EDGE('',*,*,#105,.T.);
#164=ORIENTED_EDGE('',*,*,#123,.T.);
#165=ORIENTED_EDGE('',*,*,#125,.T.);
#166=ORIENTED_EDGE('',*,*,#124,.T.);
#167=ORIENTED_EDGE('',*,*,#125,.F.);
#168=CYLINDRICAL_SURFACE('',#198,2.15);
#169=CYLINDRICAL_SURFACE('',#201,2.15);
#170=CYLINDRICAL_SURFACE('',#204,2.15);
#171=CYLINDRICAL_SURFACE('',#207,2.15);
#172=CYLINDRICAL_SURFACE('',#210,2.15);
#173=CYLINDRICAL_SURFACE('',#213,2.15);
#174=ADVANCED_FACE('',(#35),#168,.F.);
#175=ADVANCED_FACE('',(#36),#169,.F.);
#176=ADVANCED_FACE('',(#37),#170,.F.);
#177=ADVANCED_FACE('',(#38),#171,.F.);
#178=ADVANCED_FACE('',(#39),#172,.F.);
#179=ADVANCED_FACE('',(#40),#173,.F.);
#180=ADVANCED_FACE('',(#41,#21,#22,#23,#24,#25,#26),#33,.F.);
#181=ADVANCED_FACE('',(#42,#27,#28,#29,#30,#31,#32),#34,.F.);
#182=ADVANCED_FACE('',(#43),#20,.F.);
#183=CLOSED_SHELL('',(#174,#175,#176,#177,#178,#179,#180,#181,#182));
#184=DERIVED_UNIT_ELEMENT(#186,1.);
#185=DERIVED_UNIT_ELEMENT(#349,-3.);
#186=(
MASS_UNIT()
NAMED_UNIT(*)
SI_UNIT(.KILO.,.GRAM.)
);
#187=DERIVED_UNIT((#184,#185));
#188=MEASURE_REPRESENTATION_ITEM('density measure',
POSITIVE_RATIO_MEASURE(7850.),#187);
#189=PROPERTY_DEFINITION_REPRESENTATION(#194,#191);
#190=PROPERTY_DEFINITION_REPRESENTATION(#195,#192);
#191=REPRESENTATION('material name',(#193),#346);
#192=REPRESENTATION('density',(#188),#346);
#193=DESCRIPTIVE_REPRESENTATION_ITEM('Steel','Steel');
#194=PROPERTY_DEFINITION('material property','material name',#361);
#195=PROPERTY_DEFINITION('material property','density of part',#361);
#196=AXIS2_PLACEMENT_3D('',#277,#221,#222);
#197=AXIS2_PLACEMENT_3D('',#278,#223,#224);
#198=AXIS2_PLACEMENT_3D('',#279,#225,#226);
#199=AXIS2_PLACEMENT_3D('',#281,#227,#228);
#200=AXIS2_PLACEMENT_3D('',#284,#230,#231);
#201=AXIS2_PLACEMENT_3D('',#285,#232,#233);
#202=AXIS2_PLACEMENT_3D('',#287,#234,#235);
#203=AXIS2_PLACEMENT_3D('',#290,#237,#238);
#204=AXIS2_PLACEMENT_3D('',#291,#239,#240);
#205=AXIS2_PLACEMENT_3D('',#293,#241,#242);
#206=AXIS2_PLACEMENT_3D('',#296,#244,#245);
#207=AXIS2_PLACEMENT_3D('',#297,#246,#247);
#208=AXIS2_PLACEMENT_3D('',#299,#248,#249);
#209=AXIS2_PLACEMENT_3D('',#302,#251,#252);
#210=AXIS2_PLACEMENT_3D('',#303,#253,#254);
#211=AXIS2_PLACEMENT_3D('',#305,#255,#256);
#212=AXIS2_PLACEMENT_3D('',#308,#258,#259);
#213=AXIS2_PLACEMENT_3D('',#309,#260,#261);
#214=AXIS2_PLACEMENT_3D('',#311,#262,#263);
#215=AXIS2_PLACEMENT_3D('',#314,#265,#266);
#216=AXIS2_PLACEMENT_3D('',#315,#267,#268);
#217=AXIS2_PLACEMENT_3D('',#317,#269,#270);
#218=AXIS2_PLACEMENT_3D('',#318,#271,#272);
#219=AXIS2_PLACEMENT_3D('',#320,#273,#274);
#220=AXIS2_PLACEMENT_3D('',#341,#275,#276);
#221=DIRECTION('axis',(0.,0.,1.));
#222=DIRECTION('refdir',(1.,0.,0.));
#223=DIRECTION('axis',(0.,0.,1.));
#224=DIRECTION('refdir',(1.,0.,0.));
#225=DIRECTION('center_axis',(5.23438704579737E-17,1.,-6.48395358719549E-16));
#226=DIRECTION('ref_axis',(-0.999887782900255,6.20514180020084E-17,0.014980707820841));
#227=DIRECTION('center_axis',(6.31413212370564E-19,1.,-1.43440387042524E-17));
#228=DIRECTION('ref_axis',(-0.999887782900255,6.20514180020084E-17,0.014980707820841));
#229=DIRECTION('',(5.23438704579737E-17,1.,-6.48395358719549E-16));
#230=DIRECTION('center_axis',(-3.10087728753329E-17,-1.,-4.46419399774742E-17));
#231=DIRECTION('ref_axis',(-0.999887782900255,6.20514180020084E-17,0.014980707820841));
#232=DIRECTION('center_axis',(5.23438704579737E-17,1.,-6.48395358719549E-16));
#233=DIRECTION('ref_axis',(-0.999887782900255,6.20514180020084E-17,0.014980707820841));
#234=DIRECTION('center_axis',(6.31413212370564E-19,1.,-1.43440387042524E-17));
#235=DIRECTION('ref_axis',(-0.999887782900255,6.20514180020084E-17,0.014980707820841));
#236=DIRECTION('',(5.23438704579737E-17,1.,-6.48395358719549E-16));
#237=DIRECTION('center_axis',(-3.10087728753329E-17,-1.,-4.46419399774742E-17));
#238=DIRECTION('ref_axis',(-0.999887782900255,6.20514180020084E-17,0.014980707820841));
#239=DIRECTION('center_axis',(5.23438704579737E-17,1.,-6.48395358719549E-16));
#240=DIRECTION('ref_axis',(-0.999887782900255,6.20514180020084E-17,0.014980707820841));
#241=DIRECTION('center_axis',(6.31413212370564E-19,1.,-1.43440387042524E-17));
#242=DIRECTION('ref_axis',(-0.999887782900255,6.20514180020084E-17,0.014980707820841));
#243=DIRECTION('',(5.23438704579737E-17,1.,-6.48395358719549E-16));
#244=DIRECTION('center_axis',(-3.10087728753329E-17,-1.,-4.46419399774742E-17));
#245=DIRECTION('ref_axis',(-0.999887782900255,6.20514180020084E-17,0.014980707820841));
#246=DIRECTION('center_axis',(5.23438704579737E-17,1.,-6.48395358719549E-16));
#247=DIRECTION('ref_axis',(-0.999887782900255,6.20514180020084E-17,0.014980707820841));
#248=DIRECTION('center_axis',(6.31413212370564E-19,1.,-1.43440387042524E-17));
#249=DIRECTION('ref_axis',(-0.999887782900255,6.20514180020084E-17,0.014980707820841));
#250=DIRECTION('',(5.23438704579737E-17,1.,-6.48395358719549E-16));
#251=DIRECTION('center_axis',(-3.10087728753329E-17,-1.,-4.46419399774742E-17));
#252=DIRECTION('ref_axis',(-0.999887782900255,6.20514180020084E-17,0.014980707820841));
#253=DIRECTION('center_axis',(5.23438704579737E-17,1.,-6.48395358719549E-16));
#254=DIRECTION('ref_axis',(-0.999887782900255,6.20514180020084E-17,0.014980707820841));
#255=DIRECTION('center_axis',(6.31413212370564E-19,1.,-1.43440387042524E-17));
#256=DIRECTION('ref_axis',(-0.999887782900255,6.20514180020084E-17,0.014980707820841));
#257=DIRECTION('',(5.23438704579737E-17,1.,-6.48395358719549E-16));
#258=DIRECTION('center_axis',(-3.10087728753329E-17,-1.,-4.46419399774742E-17));
#259=DIRECTION('ref_axis',(-0.999887782900255,6.20514180020084E-17,0.014980707820841));
#260=DIRECTION('center_axis',(5.23438704579737E-17,1.,-6.48395358719549E-16));
#261=DIRECTION('ref_axis',(-0.999887782900255,6.20514180020084E-17,0.014980707820841));
#262=DIRECTION('center_axis',(6.31413212370564E-19,1.,-1.43440387042524E-17));
#263=DIRECTION('ref_axis',(-0.999887782900255,6.20514180020084E-17,0.014980707820841));
#264=DIRECTION('',(5.23438704579737E-17,1.,-6.48395358719549E-16));
#265=DIRECTION('center_axis',(-3.10087728753329E-17,-1.,-4.46419399774742E-17));
#266=DIRECTION('ref_axis',(-0.999887782900255,6.20514180020084E-17,0.014980707820841));
#267=DIRECTION('center_axis',(-3.10087728753329E-17,-1.,-4.46419399774742E-17));
#268=DIRECTION('ref_axis',(-0.014980707820841,4.51014637547711E-17,-0.999887782900254));
#269=DIRECTION('center_axis',(-3.10087728753329E-17,-1.,-4.46419399774742E-17));
#270=DIRECTION('ref_axis',(0.999887782900255,-3.03365253014161E-17,-0.014980707820841));
#271=DIRECTION('center_axis',(6.31413212370564E-19,1.,-1.43440387042524E-17));
#272=DIRECTION('ref_axis',(0.014980707820841,1.43329700409817E-17,0.999887782900254));
#273=DIRECTION('center_axis',(6.31413212370564E-19,1.,-1.43440387042524E-17));
#274=DIRECTION('ref_axis',(-0.999887782900255,8.4622620981037E-19,0.014980707820841));
#275=DIRECTION('',(-0.014980707820841,-1.4053393795399E-17,0.999887782900255));
#276=DIRECTION('',(0.999887782900255,6.18478285996194E-17,0.014980707820841));
#277=CARTESIAN_POINT('',(0.,0.,0.));
#278=CARTESIAN_POINT('',(0.,0.,0.));
#279=CARTESIAN_POINT('Origin',(-185.851926601698,-126.911472167968,-126.542626194814));
#280=CARTESIAN_POINT('',(-183.702167868463,-123.911472167968,-126.574834716629));
#281=CARTESIAN_POINT('Origin',(-185.851926601698,-123.911472167968,-126.542626194814));
#282=CARTESIAN_POINT('',(-183.702167868463,-111.942740829781,-126.574834716629));
#283=CARTESIAN_POINT('',(-183.702167868463,-126.911472167968,-126.574834716629));
#284=CARTESIAN_POINT('Origin',(-185.851926601698,-111.942740829781,-126.542626194814));
#285=CARTESIAN_POINT('Origin',(-159.82749318025,-126.911472167968,-110.907458619989));
#286=CARTESIAN_POINT('',(-157.677734447014,-123.911472167968,-110.939667141804));
#287=CARTESIAN_POINT('Origin',(-159.82749318025,-123.911472167968,-110.907458619989));
#288=CARTESIAN_POINT('',(-157.677734447014,-111.942740829781,-110.939667141804));
#289=CARTESIAN_POINT('',(-157.677734447014,-126.911472167968,-110.939667141804));
#290=CARTESIAN_POINT('Origin',(-159.82749318025,-111.942740829781,-110.907458619989));
#291=CARTESIAN_POINT('Origin',(-172.575592090226,-126.911472167968,-133.902744532143));
#292=CARTESIAN_POINT('',(-170.42583335699,-123.911472167968,-133.934953053958));
#293=CARTESIAN_POINT('Origin',(-172.575592090226,-123.911472167968,-133.902744532143));
#294=CARTESIAN_POINT('',(-170.42583335699,-111.942740829781,-133.934953053958));
#295=CARTESIAN_POINT('',(-170.42583335699,-126.911472167968,-133.934953053958));
#296=CARTESIAN_POINT('Origin',(-172.575592090226,-111.942740829781,-133.902744532143));
#297=CARTESIAN_POINT('Origin',(-186.116044402447,-126.911472167968,-111.364924070073));
#298=CARTESIAN_POINT('',(-183.966285669211,-123.911472167968,-111.397132591888));
#299=CARTESIAN_POINT('Origin',(-186.116044402447,-123.911472167968,-111.364924070073));
#300=CARTESIAN_POINT('',(-183.966285669211,-111.942740829781,-111.397132591888));
#301=CARTESIAN_POINT('',(-183.966285669211,-126.911472167968,-111.397132591888));
#302=CARTESIAN_POINT('Origin',(-186.116044402447,-111.942740829781,-111.364924070073));
#303=CARTESIAN_POINT('Origin',(-173.103827691723,-126.911472167968,-103.54734028266));
#304=CARTESIAN_POINT('',(-170.954068958488,-123.911472167968,-103.579548804475));
#305=CARTESIAN_POINT('Origin',(-173.103827691723,-123.911472167968,-103.54734028266));
#306=CARTESIAN_POINT('',(-170.954068958488,-111.942740829781,-103.579548804475));
#307=CARTESIAN_POINT('',(-170.954068958488,-126.911472167968,-103.579548804475));
#308=CARTESIAN_POINT('Origin',(-173.103827691723,-111.942740829781,-103.54734028266));
#309=CARTESIAN_POINT('Origin',(-159.563375379502,-126.911472167968,-126.085160744731));
#310=CARTESIAN_POINT('',(-157.413616646266,-123.911472167968,-126.117369266546));
#311=CARTESIAN_POINT('Origin',(-159.563375379502,-123.911472167968,-126.085160744731));
#312=CARTESIAN_POINT('',(-157.413616646266,-111.942740829781,-126.117369266546));
#313=CARTESIAN_POINT('',(-157.413616646266,-126.911472167968,-126.117369266546));
#314=CARTESIAN_POINT('Origin',(-159.563375379502,-111.942740829781,-126.085160744731));
#315=CARTESIAN_POINT('Origin',(-172.141728752822,-111.942740829781,-122.097513422234));
#316=CARTESIAN_POINT('',(-198.399504966525,-111.942740829781,-130.269366841814));
#317=CARTESIAN_POINT('Origin',(-172.141728752822,-111.942740829781,-122.097513422234));
#318=CARTESIAN_POINT('Origin',(-173.154142605592,-123.911472167968,-118.844428104037));
#319=CARTESIAN_POINT('',(-199.411918819295,-123.911472167968,-127.016281523618));
#320=CARTESIAN_POINT('Origin',(-173.154142605592,-123.911472167968,-118.844428104037));
#321=CARTESIAN_POINT('Ctrl Pts',(-200.04178130464,-131.357690773608,-124.992409173438));
#322=CARTESIAN_POINT('Ctrl Pts',(-207.601105069733,-124.11638046243,-100.702811507));
#323=CARTESIAN_POINT('Ctrl Pts',(-181.34332885603,-124.11638046243,-92.5309580874197));
#324=CARTESIAN_POINT('Ctrl Pts',(-155.085552642327,-124.11638046243,-84.3591046678389));
#325=CARTESIAN_POINT('Ctrl Pts',(-147.526228877235,-131.357690773608,-108.648702334277));
#326=CARTESIAN_POINT('Ctrl Pts',(-139.966905112143,-138.599001084787,-132.938300000714));
#327=CARTESIAN_POINT('Ctrl Pts',(-166.224681325845,-138.599001084787,-141.110153420295));
#328=CARTESIAN_POINT('Ctrl Pts',(-192.482457539548,-138.599001084787,-149.282006839876));
#329=CARTESIAN_POINT('Ctrl Pts',(-200.04178130464,-131.357690773608,-124.992409173438));
#330=CARTESIAN_POINT('Ctrl Pts',(-197.769642481183,-104.496522224187,-132.293239191982));
#331=CARTESIAN_POINT('Ctrl Pts',(-205.328966246275,-97.2552119130086,-108.003641525544));
#332=CARTESIAN_POINT('Ctrl Pts',(-179.071190032572,-97.2552119130086,-99.8317881059633));
#333=CARTESIAN_POINT('Ctrl Pts',(-152.81341381887,-97.2552119130086,-91.6599346863825));
#334=CARTESIAN_POINT('Ctrl Pts',(-145.254090053777,-104.496522224187,-115.94953235282));
#335=CARTESIAN_POINT('Ctrl Pts',(-137.694766288685,-111.737832535365,-140.239130019258));
#336=CARTESIAN_POINT('Ctrl Pts',(-163.952542502388,-111.737832535365,-148.410983438838));
#337=CARTESIAN_POINT('Ctrl Pts',(-190.21031871609,-111.737832535365,-156.582836858419));
#338=CARTESIAN_POINT('Ctrl Pts',(-197.769642481183,-104.496522224187,-132.293239191982));
#339=CARTESIAN_POINT('Ctrl Pts',(-198.399504966524,-111.942740829781,-130.269366841814));
#340=CARTESIAN_POINT('Ctrl Pts',(-199.411918819295,-123.911472167968,-127.016281523618));
#341=CARTESIAN_POINT('',(-3.7429576971852,1.99999999999998,1.8882116205256));
#342=UNCERTAINTY_MEASURE_WITH_UNIT(LENGTH_MEASURE(0.01),#348,
'DISTANCE_ACCURACY_VALUE',
'Maximum model space distance between geometric entities at asserted c
onnectivities');
#343=UNCERTAINTY_MEASURE_WITH_UNIT(LENGTH_MEASURE(0.01),#348,
'DISTANCE_ACCURACY_VALUE',
'Maximum model space distance between geometric entities at asserted c
onnectivities');
#344=UNCERTAINTY_MEASURE_WITH_UNIT(LENGTH_MEASURE(0.01),#348,
'DISTANCE_ACCURACY_VALUE',
'Maximum model space distance between geometric entities at asserted c
onnectivities');
#345=(
GEOMETRIC_REPRESENTATION_CONTEXT(3)
GLOBAL_UNCERTAINTY_ASSIGNED_CONTEXT((#342))
GLOBAL_UNIT_ASSIGNED_CONTEXT((#348,#350,#351))
REPRESENTATION_CONTEXT('','3D')
);
#346=(
GEOMETRIC_REPRESENTATION_CONTEXT(3)
GLOBAL_UNCERTAINTY_ASSIGNED_CONTEXT((#343))
GLOBAL_UNIT_ASSIGNED_CONTEXT((#348,#350,#351))
REPRESENTATION_CONTEXT('','3D')
);
#347=(
GEOMETRIC_REPRESENTATION_CONTEXT(3)
GLOBAL_UNCERTAINTY_ASSIGNED_CONTEXT((#344))
GLOBAL_UNIT_ASSIGNED_CONTEXT((#348,#350,#351))
REPRESENTATION_CONTEXT('','3D')
);
#348=(
LENGTH_UNIT()
NAMED_UNIT(*)
SI_UNIT(.MILLI.,.METRE.)
);
#349=(
LENGTH_UNIT()
NAMED_UNIT(*)
SI_UNIT($,.METRE.)
);
#350=(
NAMED_UNIT(*)
PLANE_ANGLE_UNIT()
SI_UNIT($,.RADIAN.)
);
#351=(
NAMED_UNIT(*)
SI_UNIT($,.STERADIAN.)
SOLID_ANGLE_UNIT()
);
#352=SHAPE_DEFINITION_REPRESENTATION(#354,#357);
#353=SHAPE_DEFINITION_REPRESENTATION(#355,#358);
#354=PRODUCT_DEFINITION_SHAPE('',$,#360);
#355=PRODUCT_DEFINITION_SHAPE('',$,#361);
#356=PRODUCT_DEFINITION_SHAPE($,$,#14);
#357=SHAPE_REPRESENTATION('',(#196,#220),#345);
#358=SHAPE_REPRESENTATION('',(#197),#346);
#359=PRODUCT_DEFINITION_CONTEXT('part definition',#367,'design');
#360=PRODUCT_DEFINITION('Leg (right)','Leg (right) v74',#362,#359);
#361=PRODUCT_DEFINITION('Shin','Shin',#363,#359);
#362=PRODUCT_DEFINITION_FORMATION('',$,#369);
#363=PRODUCT_DEFINITION_FORMATION('',$,#370);
#364=PRODUCT_RELATED_PRODUCT_CATEGORY('Leg (right) v74',
'Leg (right) v74',(#369));
#365=PRODUCT_RELATED_PRODUCT_CATEGORY('Shin','Shin',(#370));
#366=APPLICATION_PROTOCOL_DEFINITION('international standard',
'automotive_design',2009,#367);
#367=APPLICATION_CONTEXT(
'Core Data for Automotive Mechanical Design Process');
#368=PRODUCT_CONTEXT('part definition',#367,'mechanical');
#369=PRODUCT('Leg (right)','Leg (right) v74',$,(#368));
#370=PRODUCT('Shin','Shin',$,(#368));
#371=PRESENTATION_STYLE_ASSIGNMENT((#377));
#372=PRESENTATION_STYLE_ASSIGNMENT((#378));
#373=PRESENTATION_STYLE_ASSIGNMENT((#379));
#374=PRESENTATION_STYLE_ASSIGNMENT((#380));
#375=PRESENTATION_STYLE_ASSIGNMENT((#381));
#376=PRESENTATION_STYLE_ASSIGNMENT((#382));
#377=SURFACE_STYLE_USAGE(.BOTH.,#383);
#378=SURFACE_STYLE_USAGE(.BOTH.,#384);
#379=SURFACE_STYLE_USAGE(.BOTH.,#385);
#380=SURFACE_STYLE_USAGE(.BOTH.,#386);
#381=SURFACE_STYLE_USAGE(.BOTH.,#387);
#382=SURFACE_STYLE_USAGE(.BOTH.,#388);
#383=SURFACE_SIDE_STYLE('',(#389));
#384=SURFACE_SIDE_STYLE('',(#390));
#385=SURFACE_SIDE_STYLE('',(#391));
#386=SURFACE_SIDE_STYLE('',(#392));
#387=SURFACE_SIDE_STYLE('',(#393));
#388=SURFACE_SIDE_STYLE('',(#394));
#389=SURFACE_STYLE_FILL_AREA(#395);
#390=SURFACE_STYLE_FILL_AREA(#396);
#391=SURFACE_STYLE_FILL_AREA(#397);
#392=SURFACE_STYLE_FILL_AREA(#398);
#393=SURFACE_STYLE_FILL_AREA(#399);
#394=SURFACE_STYLE_FILL_AREA(#400);
#395=FILL_AREA_STYLE('Steel - Satin',(#401));
#396=FILL_AREA_STYLE('Plate',(#402));
#397=FILL_AREA_STYLE('ABS (White)',(#403));
#398=FILL_AREA_STYLE('Aluminum - Satin',(#404));
#399=FILL_AREA_STYLE('ABS (White) (1)',(#405));
#400=FILL_AREA_STYLE('Aluminum - Anodized Glossy (Grey)',(#406));
#401=FILL_AREA_STYLE_COLOUR('Steel - Satin',#407);
#402=FILL_AREA_STYLE_COLOUR('Plate',#408);
#403=FILL_AREA_STYLE_COLOUR('ABS (White)',#409);
#404=FILL_AREA_STYLE_COLOUR('Aluminum - Satin',#410);
#405=FILL_AREA_STYLE_COLOUR('ABS (White) (1)',#411);
#406=FILL_AREA_STYLE_COLOUR('Aluminum - Anodized Glossy (Grey)',#412);
#407=COLOUR_RGB('Steel - Satin',0.627450980392157,0.627450980392157,0.627450980392157);
#408=COLOUR_RGB('Plate',0.6,0.6,0.6);
#409=COLOUR_RGB('ABS (White)',0.964705882352941,0.964705882352941,0.952941176470588);
#410=COLOUR_RGB('Aluminum - Satin',0.96078431372549,0.96078431372549,0.964705882352941);
#411=COLOUR_RGB('ABS (White) (1)',0.905882352941176,0.262745098039216,0.184313725490196);
#412=COLOUR_RGB('Aluminum - Anodized Glossy (Grey)',0.537254901960784,0.537254901960784,
0.537254901960784);
ENDSEC;
END-ISO-10303-21;
