ISO-10303-21;
HEADER;
/* Generated by software containing ST-Developer
 * from STEP Tools, Inc. (www.steptools.com) 
 */

FILE_DESCRIPTION(
/* description */ (''),
/* implementation_level */ '2;1');

FILE_NAME(
/* name */ 'BottomYawPlate.step',
/* time_stamp */ '2026-08-13T12:56:22-04:00',
/* author */ (''),
/* organization */ (''),
/* preprocessor_version */ 'ST-DEVELOPER v20.1',
/* originating_system */ 'Autodesk Translation Framework v15.8.0.0',
/* authorisation */ '');

FILE_SCHEMA (('AUTOMOTIVE_DESIGN { 1 0 10303 214 3 1 1 }'));
ENDSEC;

DATA;
#10=MECHANICAL_DESIGN_GEOMETRIC_PRESENTATION_REPRESENTATION('',(#17),#1713);
#11=ITEM_DEFINED_TRANSFORMATION($,$,#1029,#1132);
#12=(
REPRESENTATION_RELATIONSHIP($,$,#1724,#1723)
REPRESENTATION_RELATIONSHIP_WITH_TRANSFORMATION(#11)
SHAPE_REPRESENTATION_RELATIONSHIP()
);
#13=CONTEXT_DEPENDENT_SHAPE_REPRESENTATION(#12,#1722);
#14=NEXT_ASSEMBLY_USAGE_OCCURRENCE('Chassis:1','Chassis:1','Chassis:1',
#1726,#1727,'Chassis:1');
#15=SHAPE_REPRESENTATION_RELATIONSHIP('SRR','None',#1724,#16);
#16=ADVANCED_BREP_SHAPE_REPRESENTATION('',(#18),#1712);
#17=STYLED_ITEM('',(#1738),#18);
#18=MANIFOLD_SOLID_BREP('BottomActuatorMount',#1015);
#19=FACE_BOUND('',#194,.T.);
#20=FACE_BOUND('',#195,.T.);
#21=FACE_BOUND('',#196,.T.);
#22=FACE_BOUND('',#197,.T.);
#23=FACE_BOUND('',#198,.T.);
#24=FACE_BOUND('',#199,.T.);
#25=FACE_BOUND('',#200,.T.);
#26=FACE_BOUND('',#201,.T.);
#27=FACE_BOUND('',#202,.T.);
#28=FACE_BOUND('',#203,.T.);
#29=FACE_BOUND('',#204,.T.);
#30=FACE_BOUND('',#205,.T.);
#31=FACE_BOUND('',#206,.T.);
#32=FACE_BOUND('',#207,.T.);
#33=FACE_BOUND('',#208,.T.);
#34=FACE_BOUND('',#209,.T.);
#35=FACE_BOUND('',#210,.T.);
#36=FACE_BOUND('',#211,.T.);
#37=FACE_BOUND('',#212,.T.);
#38=FACE_BOUND('',#253,.T.);
#39=FACE_BOUND('',#254,.T.);
#40=FACE_BOUND('',#255,.T.);
#41=FACE_BOUND('',#256,.T.);
#42=FACE_BOUND('',#257,.T.);
#43=FACE_BOUND('',#258,.T.);
#44=FACE_BOUND('',#259,.T.);
#45=FACE_BOUND('',#260,.T.);
#46=FACE_BOUND('',#261,.T.);
#47=FACE_BOUND('',#262,.T.);
#48=FACE_BOUND('',#263,.T.);
#49=FACE_BOUND('',#264,.T.);
#50=FACE_BOUND('',#265,.T.);
#51=FACE_BOUND('',#266,.T.);
#52=FACE_BOUND('',#267,.T.);
#53=FACE_BOUND('',#268,.T.);
#54=FACE_BOUND('',#269,.T.);
#55=FACE_BOUND('',#270,.T.);
#56=FACE_BOUND('',#271,.T.);
#57=CIRCLE('',#1036,47.5);
#58=CIRCLE('',#1037,47.5);
#59=CIRCLE('',#1039,47.5);
#60=CIRCLE('',#1040,47.5);
#61=CIRCLE('',#1042,35.1868751898663);
#62=CIRCLE('',#1043,35.0934645276766);
#63=CIRCLE('',#1044,47.);
#64=CIRCLE('',#1045,47.);
#65=CIRCLE('',#1046,35.0934645276766);
#66=CIRCLE('',#1047,35.1868751898663);
#67=CIRCLE('',#1048,1.75000000000001);
#68=CIRCLE('',#1049,1.75);
#69=CIRCLE('',#1050,1.75000000000001);
#70=CIRCLE('',#1051,1.75000000000001);
#71=CIRCLE('',#1052,1.75000000000001);
#72=CIRCLE('',#1053,2.09999999999999);
#73=CIRCLE('',#1054,2.09999999999999);
#74=CIRCLE('',#1055,2.1);
#75=CIRCLE('',#1056,1.75);
#76=CIRCLE('',#1057,1.75000000000001);
#77=CIRCLE('',#1058,5.);
#78=CIRCLE('',#1059,1.75);
#79=CIRCLE('',#1060,1.75000000000001);
#80=CIRCLE('',#1061,1.75000000000001);
#81=CIRCLE('',#1062,1.75000000000001);
#82=CIRCLE('',#1063,2.1);
#83=CIRCLE('',#1064,2.10000000000001);
#84=CIRCLE('',#1065,1.75);
#85=CIRCLE('',#1066,2.10000000000001);
#86=CIRCLE('',#1068,1.75000000000001);
#87=CIRCLE('',#1070,1.75);
#88=CIRCLE('',#1072,1.75000000000001);
#89=CIRCLE('',#1074,1.75000000000001);
#90=CIRCLE('',#1076,1.75000000000001);
#91=CIRCLE('',#1078,2.09999999999999);
#92=CIRCLE('',#1080,2.09999999999999);
#93=CIRCLE('',#1082,2.1);
#94=CIRCLE('',#1084,1.75);
#95=CIRCLE('',#1086,1.75000000000001);
#96=CIRCLE('',#1088,5.);
#97=CIRCLE('',#1090,1.75);
#98=CIRCLE('',#1092,1.75000000000001);
#99=CIRCLE('',#1094,1.75000000000001);
#100=CIRCLE('',#1096,1.75000000000001);
#101=CIRCLE('',#1098,2.1);
#102=CIRCLE('',#1100,2.10000000000001);
#103=CIRCLE('',#1102,1.75);
#104=CIRCLE('',#1104,2.10000000000001);
#105=CIRCLE('',#1106,35.1868751898663);
#106=CIRCLE('',#1111,35.0934645276766);
#107=CIRCLE('',#1114,47.);
#108=CIRCLE('',#1120,47.);
#109=CIRCLE('',#1123,35.0934645276766);
#110=CIRCLE('',#1128,35.1868751898663);
#111=CYLINDRICAL_SURFACE('',#1035,47.5);
#112=CYLINDRICAL_SURFACE('',#1038,47.5);
#113=CYLINDRICAL_SURFACE('',#1067,1.75000000000001);
#114=CYLINDRICAL_SURFACE('',#1069,1.75);
#115=CYLINDRICAL_SURFACE('',#1071,1.75000000000001);
#116=CYLINDRICAL_SURFACE('',#1073,1.75000000000001);
#117=CYLINDRICAL_SURFACE('',#1075,1.75000000000001);
#118=CYLINDRICAL_SURFACE('',#1077,2.09999999999999);
#119=CYLINDRICAL_SURFACE('',#1079,2.09999999999999);
#120=CYLINDRICAL_SURFACE('',#1081,2.1);
#121=CYLINDRICAL_SURFACE('',#1083,1.75);
#122=CYLINDRICAL_SURFACE('',#1085,1.75000000000001);
#123=CYLINDRICAL_SURFACE('',#1087,5.);
#124=CYLINDRICAL_SURFACE('',#1089,1.75);
#125=CYLINDRICAL_SURFACE('',#1091,1.75000000000001);
#126=CYLINDRICAL_SURFACE('',#1093,1.75000000000001);
#127=CYLINDRICAL_SURFACE('',#1095,1.75000000000001);
#128=CYLINDRICAL_SURFACE('',#1097,2.1);
#129=CYLINDRICAL_SURFACE('',#1099,2.10000000000001);
#130=CYLINDRICAL_SURFACE('',#1101,1.75);
#131=CYLINDRICAL_SURFACE('',#1103,2.10000000000001);
#132=CYLINDRICAL_SURFACE('',#1105,35.1868751898663);
#133=CYLINDRICAL_SURFACE('',#1110,35.0934645276765);
#134=CYLINDRICAL_SURFACE('',#1113,47.);
#135=CYLINDRICAL_SURFACE('',#1119,47.);
#136=CYLINDRICAL_SURFACE('',#1122,35.0934645276766);
#137=CYLINDRICAL_SURFACE('',#1127,35.1868751898663);
#138=FACE_OUTER_BOUND('',#186,.T.);
#139=FACE_OUTER_BOUND('',#187,.T.);
#140=FACE_OUTER_BOUND('',#188,.T.);
#141=FACE_OUTER_BOUND('',#189,.T.);
#142=FACE_OUTER_BOUND('',#190,.T.);
#143=FACE_OUTER_BOUND('',#191,.T.);
#144=FACE_OUTER_BOUND('',#192,.T.);
#145=FACE_OUTER_BOUND('',#193,.T.);
#146=FACE_OUTER_BOUND('',#213,.T.);
#147=FACE_OUTER_BOUND('',#214,.T.);
#148=FACE_OUTER_BOUND('',#215,.T.);
#149=FACE_OUTER_BOUND('',#216,.T.);
#150=FACE_OUTER_BOUND('',#217,.T.);
#151=FACE_OUTER_BOUND('',#218,.T.);
#152=FACE_OUTER_BOUND('',#219,.T.);
#153=FACE_OUTER_BOUND('',#220,.T.);
#154=FACE_OUTER_BOUND('',#221,.T.);
#155=FACE_OUTER_BOUND('',#222,.T.);
#156=FACE_OUTER_BOUND('',#223,.T.);
#157=FACE_OUTER_BOUND('',#224,.T.);
#158=FACE_OUTER_BOUND('',#225,.T.);
#159=FACE_OUTER_BOUND('',#226,.T.);
#160=FACE_OUTER_BOUND('',#227,.T.);
#161=FACE_OUTER_BOUND('',#228,.T.);
#162=FACE_OUTER_BOUND('',#229,.T.);
#163=FACE_OUTER_BOUND('',#230,.T.);
#164=FACE_OUTER_BOUND('',#231,.T.);
#165=FACE_OUTER_BOUND('',#232,.T.);
#166=FACE_OUTER_BOUND('',#233,.T.);
#167=FACE_OUTER_BOUND('',#234,.T.);
#168=FACE_OUTER_BOUND('',#235,.T.);
#169=FACE_OUTER_BOUND('',#236,.T.);
#170=FACE_OUTER_BOUND('',#237,.T.);
#171=FACE_OUTER_BOUND('',#238,.T.);
#172=FACE_OUTER_BOUND('',#239,.T.);
#173=FACE_OUTER_BOUND('',#240,.T.);
#174=FACE_OUTER_BOUND('',#241,.T.);
#175=FACE_OUTER_BOUND('',#242,.T.);
#176=FACE_OUTER_BOUND('',#243,.T.);
#177=FACE_OUTER_BOUND('',#244,.T.);
#178=FACE_OUTER_BOUND('',#245,.T.);
#179=FACE_OUTER_BOUND('',#246,.T.);
#180=FACE_OUTER_BOUND('',#247,.T.);
#181=FACE_OUTER_BOUND('',#248,.T.);
#182=FACE_OUTER_BOUND('',#249,.T.);
#183=FACE_OUTER_BOUND('',#250,.T.);
#184=FACE_OUTER_BOUND('',#251,.T.);
#185=FACE_OUTER_BOUND('',#252,.T.);
#186=EDGE_LOOP('',(#670,#671,#672,#673));
#187=EDGE_LOOP('',(#674,#675,#676,#677));
#188=EDGE_LOOP('',(#678,#679,#680,#681));
#189=EDGE_LOOP('',(#682,#683,#684,#685));
#190=EDGE_LOOP('',(#686,#687,#688,#689));
#191=EDGE_LOOP('',(#690,#691,#692,#693));
#192=EDGE_LOOP('',(#694,#695,#696,#697));
#193=EDGE_LOOP('',(#698,#699,#700,#701,#702,#703,#704,#705,#706,#707,#708,
#709,#710,#711,#712,#713,#714,#715,#716,#717,#718,#719,#720,#721,#722,#723,
#724));
#194=EDGE_LOOP('',(#725));
#195=EDGE_LOOP('',(#726));
#196=EDGE_LOOP('',(#727));
#197=EDGE_LOOP('',(#728));
#198=EDGE_LOOP('',(#729));
#199=EDGE_LOOP('',(#730));
#200=EDGE_LOOP('',(#731));
#201=EDGE_LOOP('',(#732));
#202=EDGE_LOOP('',(#733));
#203=EDGE_LOOP('',(#734));
#204=EDGE_LOOP('',(#735));
#205=EDGE_LOOP('',(#736));
#206=EDGE_LOOP('',(#737));
#207=EDGE_LOOP('',(#738));
#208=EDGE_LOOP('',(#739));
#209=EDGE_LOOP('',(#740));
#210=EDGE_LOOP('',(#741));
#211=EDGE_LOOP('',(#742));
#212=EDGE_LOOP('',(#743));
#213=EDGE_LOOP('',(#744,#745,#746,#747));
#214=EDGE_LOOP('',(#748,#749,#750,#751));
#215=EDGE_LOOP('',(#752,#753,#754,#755));
#216=EDGE_LOOP('',(#756,#757,#758,#759));
#217=EDGE_LOOP('',(#760,#761,#762,#763));
#218=EDGE_LOOP('',(#764,#765,#766,#767));
#219=EDGE_LOOP('',(#768,#769,#770,#771));
#220=EDGE_LOOP('',(#772,#773,#774,#775));
#221=EDGE_LOOP('',(#776,#777,#778,#779));
#222=EDGE_LOOP('',(#780,#781,#782,#783));
#223=EDGE_LOOP('',(#784,#785,#786,#787));
#224=EDGE_LOOP('',(#788,#789,#790,#791));
#225=EDGE_LOOP('',(#792,#793,#794,#795));
#226=EDGE_LOOP('',(#796,#797,#798,#799));
#227=EDGE_LOOP('',(#800,#801,#802,#803));
#228=EDGE_LOOP('',(#804,#805,#806,#807));
#229=EDGE_LOOP('',(#808,#809,#810,#811));
#230=EDGE_LOOP('',(#812,#813,#814,#815));
#231=EDGE_LOOP('',(#816,#817,#818,#819));
#232=EDGE_LOOP('',(#820,#821,#822,#823));
#233=EDGE_LOOP('',(#824,#825,#826,#827));
#234=EDGE_LOOP('',(#828,#829,#830,#831));
#235=EDGE_LOOP('',(#832,#833,#834,#835));
#236=EDGE_LOOP('',(#836,#837,#838,#839));
#237=EDGE_LOOP('',(#840,#841,#842,#843));
#238=EDGE_LOOP('',(#844,#845,#846,#847));
#239=EDGE_LOOP('',(#848,#849,#850,#851));
#240=EDGE_LOOP('',(#852,#853,#854,#855));
#241=EDGE_LOOP('',(#856,#857,#858,#859));
#242=EDGE_LOOP('',(#860,#861,#862,#863));
#243=EDGE_LOOP('',(#864,#865,#866,#867));
#244=EDGE_LOOP('',(#868,#869,#870,#871));
#245=EDGE_LOOP('',(#872,#873,#874,#875));
#246=EDGE_LOOP('',(#876,#877,#878,#879));
#247=EDGE_LOOP('',(#880,#881,#882,#883));
#248=EDGE_LOOP('',(#884,#885,#886,#887));
#249=EDGE_LOOP('',(#888,#889,#890,#891));
#250=EDGE_LOOP('',(#892,#893,#894,#895));
#251=EDGE_LOOP('',(#896,#897,#898,#899));
#252=EDGE_LOOP('',(#900,#901,#902,#903,#904,#905,#906,#907,#908,#909,#910,
#911,#912,#913,#914,#915,#916,#917,#918,#919,#920,#921,#922,#923,#924,#925,
#926));
#253=EDGE_LOOP('',(#927));
#254=EDGE_LOOP('',(#928));
#255=EDGE_LOOP('',(#929));
#256=EDGE_LOOP('',(#930));
#257=EDGE_LOOP('',(#931));
#258=EDGE_LOOP('',(#932));
#259=EDGE_LOOP('',(#933));
#260=EDGE_LOOP('',(#934));
#261=EDGE_LOOP('',(#935));
#262=EDGE_LOOP('',(#936));
#263=EDGE_LOOP('',(#937));
#264=EDGE_LOOP('',(#938));
#265=EDGE_LOOP('',(#939));
#266=EDGE_LOOP('',(#940));
#267=EDGE_LOOP('',(#941));
#268=EDGE_LOOP('',(#942));
#269=EDGE_LOOP('',(#943));
#270=EDGE_LOOP('',(#944));
#271=EDGE_LOOP('',(#945));
#272=LINE('',#1432,#356);
#273=LINE('',#1434,#357);
#274=LINE('',#1436,#358);
#275=LINE('',#1437,#359);
#276=LINE('',#1440,#360);
#277=LINE('',#1442,#361);
#278=LINE('',#1443,#362);
#279=LINE('',#1446,#363);
#280=LINE('',#1448,#364);
#281=LINE('',#1449,#365);
#282=LINE('',#1452,#366);
#283=LINE('',#1454,#367);
#284=LINE('',#1455,#368);
#285=LINE('',#1458,#369);
#286=LINE('',#1460,#370);
#287=LINE('',#1461,#371);
#288=LINE('',#1467,#372);
#289=LINE('',#1472,#373);
#290=LINE('',#1476,#374);
#291=LINE('',#1480,#375);
#292=LINE('',#1482,#376);
#293=LINE('',#1484,#377);
#294=LINE('',#1488,#378);
#295=LINE('',#1492,#379);
#296=LINE('',#1494,#380);
#297=LINE('',#1496,#381);
#298=LINE('',#1498,#382);
#299=LINE('',#1502,#383);
#300=LINE('',#1506,#384);
#301=LINE('',#1508,#385);
#302=LINE('',#1510,#386);
#303=LINE('',#1513,#387);
#304=LINE('',#1555,#388);
#305=LINE('',#1559,#389);
#306=LINE('',#1563,#390);
#307=LINE('',#1567,#391);
#308=LINE('',#1571,#392);
#309=LINE('',#1575,#393);
#310=LINE('',#1579,#394);
#311=LINE('',#1583,#395);
#312=LINE('',#1587,#396);
#313=LINE('',#1591,#397);
#314=LINE('',#1595,#398);
#315=LINE('',#1599,#399);
#316=LINE('',#1603,#400);
#317=LINE('',#1607,#401);
#318=LINE('',#1611,#402);
#319=LINE('',#1615,#403);
#320=LINE('',#1619,#404);
#321=LINE('',#1623,#405);
#322=LINE('',#1627,#406);
#323=LINE('',#1630,#407);
#324=LINE('',#1633,#408);
#325=LINE('',#1636,#409);
#326=LINE('',#1637,#410);
#327=LINE('',#1640,#411);
#328=LINE('',#1641,#412);
#329=LINE('',#1644,#413);
#330=LINE('',#1645,#414);
#331=LINE('',#1649,#415);
#332=LINE('',#1652,#416);
#333=LINE('',#1653,#417);
#334=LINE('',#1657,#418);
#335=LINE('',#1660,#419);
#336=LINE('',#1661,#420);
#337=LINE('',#1664,#421);
#338=LINE('',#1665,#422);
#339=LINE('',#1668,#423);
#340=LINE('',#1669,#424);
#341=LINE('',#1672,#425);
#342=LINE('',#1673,#426);
#343=LINE('',#1677,#427);
#344=LINE('',#1680,#428);
#345=LINE('',#1681,#429);
#346=LINE('',#1685,#430);
#347=LINE('',#1688,#431);
#348=LINE('',#1689,#432);
#349=LINE('',#1692,#433);
#350=LINE('',#1693,#434);
#351=LINE('',#1696,#435);
#352=LINE('',#1697,#436);
#353=LINE('',#1701,#437);
#354=LINE('',#1703,#438);
#355=LINE('',#1705,#439);
#356=VECTOR('',#1139,10.);
#357=VECTOR('',#1140,10.);
#358=VECTOR('',#1141,10.);
#359=VECTOR('',#1142,10.);
#360=VECTOR('',#1145,10.);
#361=VECTOR('',#1146,10.);
#362=VECTOR('',#1147,10.);
#363=VECTOR('',#1150,10.);
#364=VECTOR('',#1151,10.);
#365=VECTOR('',#1152,10.);
#366=VECTOR('',#1155,10.);
#367=VECTOR('',#1156,10.);
#368=VECTOR('',#1157,10.);
#369=VECTOR('',#1160,10.);
#370=VECTOR('',#1161,10.);
#371=VECTOR('',#1162,10.);
#372=VECTOR('',#1169,10.);
#373=VECTOR('',#1174,10.);
#374=VECTOR('',#1179,10.);
#375=VECTOR('',#1182,10.);
#376=VECTOR('',#1183,10.);
#377=VECTOR('',#1184,10.);
#378=VECTOR('',#1187,10.);
#379=VECTOR('',#1190,10.);
#380=VECTOR('',#1191,10.);
#381=VECTOR('',#1192,10.);
#382=VECTOR('',#1193,10.);
#383=VECTOR('',#1196,10.);
#384=VECTOR('',#1199,10.);
#385=VECTOR('',#1200,10.);
#386=VECTOR('',#1201,10.);
#387=VECTOR('',#1204,10.);
#388=VECTOR('',#1247,1.75000000000001);
#389=VECTOR('',#1252,1.75);
#390=VECTOR('',#1257,1.75000000000001);
#391=VECTOR('',#1262,1.75000000000001);
#392=VECTOR('',#1267,1.75000000000001);
#393=VECTOR('',#1272,2.09999999999999);
#394=VECTOR('',#1277,2.09999999999999);
#395=VECTOR('',#1282,2.1);
#396=VECTOR('',#1287,1.75);
#397=VECTOR('',#1292,1.75000000000001);
#398=VECTOR('',#1297,5.);
#399=VECTOR('',#1302,1.75);
#400=VECTOR('',#1307,1.75000000000001);
#401=VECTOR('',#1312,1.75000000000001);
#402=VECTOR('',#1317,1.75000000000001);
#403=VECTOR('',#1322,2.1);
#404=VECTOR('',#1327,2.10000000000001);
#405=VECTOR('',#1332,1.75);
#406=VECTOR('',#1337,2.10000000000001);
#407=VECTOR('',#1340,10.);
#408=VECTOR('',#1343,10.);
#409=VECTOR('',#1346,10.);
#410=VECTOR('',#1347,10.);
#411=VECTOR('',#1350,10.);
#412=VECTOR('',#1351,10.);
#413=VECTOR('',#1354,10.);
#414=VECTOR('',#1355,10.);
#415=VECTOR('',#1360,10.);
#416=VECTOR('',#1363,10.);
#417=VECTOR('',#1364,10.);
#418=VECTOR('',#1369,10.);
#419=VECTOR('',#1372,10.);
#420=VECTOR('',#1373,10.);
#421=VECTOR('',#1376,10.);
#422=VECTOR('',#1377,10.);
#423=VECTOR('',#1380,10.);
#424=VECTOR('',#1381,10.);
#425=VECTOR('',#1384,10.);
#426=VECTOR('',#1385,10.);
#427=VECTOR('',#1390,10.);
#428=VECTOR('',#1393,10.);
#429=VECTOR('',#1394,10.);
#430=VECTOR('',#1399,10.);
#431=VECTOR('',#1402,10.);
#432=VECTOR('',#1403,10.);
#433=VECTOR('',#1406,10.);
#434=VECTOR('',#1407,10.);
#435=VECTOR('',#1410,10.);
#436=VECTOR('',#1411,10.);
#437=VECTOR('',#1416,10.);
#438=VECTOR('',#1419,10.);
#439=VECTOR('',#1422,10.);
#440=VERTEX_POINT('',#1430);
#441=VERTEX_POINT('',#1431);
#442=VERTEX_POINT('',#1433);
#443=VERTEX_POINT('',#1435);
#444=VERTEX_POINT('',#1439);
#445=VERTEX_POINT('',#1441);
#446=VERTEX_POINT('',#1445);
#447=VERTEX_POINT('',#1447);
#448=VERTEX_POINT('',#1451);
#449=VERTEX_POINT('',#1453);
#450=VERTEX_POINT('',#1457);
#451=VERTEX_POINT('',#1459);
#452=VERTEX_POINT('',#1463);
#453=VERTEX_POINT('',#1465);
#454=VERTEX_POINT('',#1469);
#455=VERTEX_POINT('',#1471);
#456=VERTEX_POINT('',#1475);
#457=VERTEX_POINT('',#1477);
#458=VERTEX_POINT('',#1479);
#459=VERTEX_POINT('',#1481);
#460=VERTEX_POINT('',#1483);
#461=VERTEX_POINT('',#1485);
#462=VERTEX_POINT('',#1487);
#463=VERTEX_POINT('',#1489);
#464=VERTEX_POINT('',#1491);
#465=VERTEX_POINT('',#1493);
#466=VERTEX_POINT('',#1495);
#467=VERTEX_POINT('',#1497);
#468=VERTEX_POINT('',#1499);
#469=VERTEX_POINT('',#1501);
#470=VERTEX_POINT('',#1503);
#471=VERTEX_POINT('',#1505);
#472=VERTEX_POINT('',#1507);
#473=VERTEX_POINT('',#1509);
#474=VERTEX_POINT('',#1511);
#475=VERTEX_POINT('',#1514);
#476=VERTEX_POINT('',#1516);
#477=VERTEX_POINT('',#1518);
#478=VERTEX_POINT('',#1520);
#479=VERTEX_POINT('',#1522);
#480=VERTEX_POINT('',#1524);
#481=VERTEX_POINT('',#1526);
#482=VERTEX_POINT('',#1528);
#483=VERTEX_POINT('',#1530);
#484=VERTEX_POINT('',#1532);
#485=VERTEX_POINT('',#1534);
#486=VERTEX_POINT('',#1536);
#487=VERTEX_POINT('',#1538);
#488=VERTEX_POINT('',#1540);
#489=VERTEX_POINT('',#1542);
#490=VERTEX_POINT('',#1544);
#491=VERTEX_POINT('',#1546);
#492=VERTEX_POINT('',#1548);
#493=VERTEX_POINT('',#1550);
#494=VERTEX_POINT('',#1553);
#495=VERTEX_POINT('',#1557);
#496=VERTEX_POINT('',#1561);
#497=VERTEX_POINT('',#1565);
#498=VERTEX_POINT('',#1569);
#499=VERTEX_POINT('',#1573);
#500=VERTEX_POINT('',#1577);
#501=VERTEX_POINT('',#1581);
#502=VERTEX_POINT('',#1585);
#503=VERTEX_POINT('',#1589);
#504=VERTEX_POINT('',#1593);
#505=VERTEX_POINT('',#1597);
#506=VERTEX_POINT('',#1601);
#507=VERTEX_POINT('',#1605);
#508=VERTEX_POINT('',#1609);
#509=VERTEX_POINT('',#1613);
#510=VERTEX_POINT('',#1617);
#511=VERTEX_POINT('',#1621);
#512=VERTEX_POINT('',#1625);
#513=VERTEX_POINT('',#1629);
#514=VERTEX_POINT('',#1631);
#515=VERTEX_POINT('',#1635);
#516=VERTEX_POINT('',#1639);
#517=VERTEX_POINT('',#1643);
#518=VERTEX_POINT('',#1647);
#519=VERTEX_POINT('',#1651);
#520=VERTEX_POINT('',#1655);
#521=VERTEX_POINT('',#1659);
#522=VERTEX_POINT('',#1663);
#523=VERTEX_POINT('',#1667);
#524=VERTEX_POINT('',#1671);
#525=VERTEX_POINT('',#1675);
#526=VERTEX_POINT('',#1679);
#527=VERTEX_POINT('',#1683);
#528=VERTEX_POINT('',#1687);
#529=VERTEX_POINT('',#1691);
#530=VERTEX_POINT('',#1695);
#531=VERTEX_POINT('',#1699);
#532=EDGE_CURVE('',#440,#441,#272,.T.);
#533=EDGE_CURVE('',#442,#440,#273,.T.);
#534=EDGE_CURVE('',#443,#442,#274,.T.);
#535=EDGE_CURVE('',#443,#441,#275,.T.);
#536=EDGE_CURVE('',#441,#444,#276,.T.);
#537=EDGE_CURVE('',#445,#443,#277,.T.);
#538=EDGE_CURVE('',#445,#444,#278,.T.);
#539=EDGE_CURVE('',#444,#446,#279,.T.);
#540=EDGE_CURVE('',#447,#445,#280,.T.);
#541=EDGE_CURVE('',#447,#446,#281,.T.);
#542=EDGE_CURVE('',#446,#448,#282,.T.);
#543=EDGE_CURVE('',#449,#447,#283,.T.);
#544=EDGE_CURVE('',#449,#448,#284,.T.);
#545=EDGE_CURVE('',#448,#450,#285,.T.);
#546=EDGE_CURVE('',#451,#449,#286,.T.);
#547=EDGE_CURVE('',#451,#450,#287,.T.);
#548=EDGE_CURVE('',#450,#452,#57,.T.);
#549=EDGE_CURVE('',#453,#451,#58,.T.);
#550=EDGE_CURVE('',#452,#453,#288,.T.);
#551=EDGE_CURVE('',#454,#440,#59,.T.);
#552=EDGE_CURVE('',#455,#454,#289,.T.);
#553=EDGE_CURVE('',#442,#455,#60,.T.);
#554=EDGE_CURVE('',#456,#452,#290,.T.);
#555=EDGE_CURVE('',#456,#457,#61,.T.);
#556=EDGE_CURVE('',#458,#457,#291,.T.);
#557=EDGE_CURVE('',#459,#458,#292,.T.);
#558=EDGE_CURVE('',#460,#459,#293,.T.);
#559=EDGE_CURVE('',#460,#461,#62,.T.);
#560=EDGE_CURVE('',#461,#462,#294,.T.);
#561=EDGE_CURVE('',#463,#462,#63,.T.);
#562=EDGE_CURVE('',#464,#463,#295,.T.);
#563=EDGE_CURVE('',#464,#465,#296,.T.);
#564=EDGE_CURVE('',#466,#465,#297,.T.);
#565=EDGE_CURVE('',#466,#467,#298,.T.);
#566=EDGE_CURVE('',#468,#467,#64,.T.);
#567=EDGE_CURVE('',#469,#468,#299,.T.);
#568=EDGE_CURVE('',#469,#470,#65,.T.);
#569=EDGE_CURVE('',#470,#471,#300,.T.);
#570=EDGE_CURVE('',#471,#472,#301,.T.);
#571=EDGE_CURVE('',#472,#473,#302,.T.);
#572=EDGE_CURVE('',#473,#474,#66,.T.);
#573=EDGE_CURVE('',#474,#454,#303,.T.);
#574=EDGE_CURVE('',#475,#475,#67,.T.);
#575=EDGE_CURVE('',#476,#476,#68,.T.);
#576=EDGE_CURVE('',#477,#477,#69,.T.);
#577=EDGE_CURVE('',#478,#478,#70,.T.);
#578=EDGE_CURVE('',#479,#479,#71,.T.);
#579=EDGE_CURVE('',#480,#480,#72,.T.);
#580=EDGE_CURVE('',#481,#481,#73,.T.);
#581=EDGE_CURVE('',#482,#482,#74,.T.);
#582=EDGE_CURVE('',#483,#483,#75,.T.);
#583=EDGE_CURVE('',#484,#484,#76,.T.);
#584=EDGE_CURVE('',#485,#485,#77,.T.);
#585=EDGE_CURVE('',#486,#486,#78,.T.);
#586=EDGE_CURVE('',#487,#487,#79,.T.);
#587=EDGE_CURVE('',#488,#488,#80,.T.);
#588=EDGE_CURVE('',#489,#489,#81,.T.);
#589=EDGE_CURVE('',#490,#490,#82,.T.);
#590=EDGE_CURVE('',#491,#491,#83,.T.);
#591=EDGE_CURVE('',#492,#492,#84,.T.);
#592=EDGE_CURVE('',#493,#493,#85,.T.);
#593=EDGE_CURVE('',#494,#494,#86,.T.);
#594=EDGE_CURVE('',#494,#475,#304,.T.);
#595=EDGE_CURVE('',#495,#495,#87,.T.);
#596=EDGE_CURVE('',#495,#476,#305,.T.);
#597=EDGE_CURVE('',#496,#496,#88,.T.);
#598=EDGE_CURVE('',#496,#477,#306,.T.);
#599=EDGE_CURVE('',#497,#497,#89,.T.);
#600=EDGE_CURVE('',#497,#478,#307,.T.);
#601=EDGE_CURVE('',#498,#498,#90,.T.);
#602=EDGE_CURVE('',#498,#479,#308,.T.);
#603=EDGE_CURVE('',#499,#499,#91,.T.);
#604=EDGE_CURVE('',#499,#480,#309,.T.);
#605=EDGE_CURVE('',#500,#500,#92,.T.);
#606=EDGE_CURVE('',#500,#481,#310,.T.);
#607=EDGE_CURVE('',#501,#501,#93,.T.);
#608=EDGE_CURVE('',#501,#482,#311,.T.);
#609=EDGE_CURVE('',#502,#502,#94,.T.);
#610=EDGE_CURVE('',#502,#483,#312,.T.);
#611=EDGE_CURVE('',#503,#503,#95,.T.);
#612=EDGE_CURVE('',#503,#484,#313,.T.);
#613=EDGE_CURVE('',#504,#504,#96,.T.);
#614=EDGE_CURVE('',#504,#485,#314,.T.);
#615=EDGE_CURVE('',#505,#505,#97,.T.);
#616=EDGE_CURVE('',#505,#486,#315,.T.);
#617=EDGE_CURVE('',#506,#506,#98,.T.);
#618=EDGE_CURVE('',#506,#487,#316,.T.);
#619=EDGE_CURVE('',#507,#507,#99,.T.);
#620=EDGE_CURVE('',#507,#488,#317,.T.);
#621=EDGE_CURVE('',#508,#508,#100,.T.);
#622=EDGE_CURVE('',#508,#489,#318,.T.);
#623=EDGE_CURVE('',#509,#509,#101,.T.);
#624=EDGE_CURVE('',#509,#490,#319,.T.);
#625=EDGE_CURVE('',#510,#510,#102,.T.);
#626=EDGE_CURVE('',#510,#491,#320,.T.);
#627=EDGE_CURVE('',#511,#511,#103,.T.);
#628=EDGE_CURVE('',#511,#492,#321,.T.);
#629=EDGE_CURVE('',#512,#512,#104,.T.);
#630=EDGE_CURVE('',#512,#493,#322,.T.);
#631=EDGE_CURVE('',#456,#513,#323,.T.);
#632=EDGE_CURVE('',#514,#513,#105,.T.);
#633=EDGE_CURVE('',#457,#514,#324,.T.);
#634=EDGE_CURVE('',#515,#514,#325,.T.);
#635=EDGE_CURVE('',#458,#515,#326,.T.);
#636=EDGE_CURVE('',#516,#515,#327,.T.);
#637=EDGE_CURVE('',#459,#516,#328,.T.);
#638=EDGE_CURVE('',#517,#516,#329,.T.);
#639=EDGE_CURVE('',#460,#517,#330,.T.);
#640=EDGE_CURVE('',#518,#517,#106,.T.);
#641=EDGE_CURVE('',#461,#518,#331,.T.);
#642=EDGE_CURVE('',#519,#518,#332,.T.);
#643=EDGE_CURVE('',#462,#519,#333,.T.);
#644=EDGE_CURVE('',#520,#519,#107,.T.);
#645=EDGE_CURVE('',#463,#520,#334,.T.);
#646=EDGE_CURVE('',#521,#520,#335,.T.);
#647=EDGE_CURVE('',#464,#521,#336,.T.);
#648=EDGE_CURVE('',#522,#521,#337,.T.);
#649=EDGE_CURVE('',#465,#522,#338,.T.);
#650=EDGE_CURVE('',#523,#522,#339,.T.);
#651=EDGE_CURVE('',#466,#523,#340,.T.);
#652=EDGE_CURVE('',#524,#523,#341,.T.);
#653=EDGE_CURVE('',#467,#524,#342,.T.);
#654=EDGE_CURVE('',#525,#524,#108,.T.);
#655=EDGE_CURVE('',#468,#525,#343,.T.);
#656=EDGE_CURVE('',#526,#525,#344,.T.);
#657=EDGE_CURVE('',#469,#526,#345,.T.);
#658=EDGE_CURVE('',#527,#526,#109,.T.);
#659=EDGE_CURVE('',#470,#527,#346,.T.);
#660=EDGE_CURVE('',#528,#527,#347,.T.);
#661=EDGE_CURVE('',#471,#528,#348,.T.);
#662=EDGE_CURVE('',#529,#528,#349,.T.);
#663=EDGE_CURVE('',#472,#529,#350,.T.);
#664=EDGE_CURVE('',#530,#529,#351,.T.);
#665=EDGE_CURVE('',#473,#530,#352,.T.);
#666=EDGE_CURVE('',#531,#530,#110,.T.);
#667=EDGE_CURVE('',#474,#531,#353,.T.);
#668=EDGE_CURVE('',#455,#531,#354,.T.);
#669=EDGE_CURVE('',#513,#453,#355,.T.);
#670=ORIENTED_EDGE('',*,*,#532,.F.);
#671=ORIENTED_EDGE('',*,*,#533,.F.);
#672=ORIENTED_EDGE('',*,*,#534,.F.);
#673=ORIENTED_EDGE('',*,*,#535,.T.);
#674=ORIENTED_EDGE('',*,*,#536,.F.);
#675=ORIENTED_EDGE('',*,*,#535,.F.);
#676=ORIENTED_EDGE('',*,*,#537,.F.);
#677=ORIENTED_EDGE('',*,*,#538,.T.);
#678=ORIENTED_EDGE('',*,*,#539,.F.);
#679=ORIENTED_EDGE('',*,*,#538,.F.);
#680=ORIENTED_EDGE('',*,*,#540,.F.);
#681=ORIENTED_EDGE('',*,*,#541,.T.);
#682=ORIENTED_EDGE('',*,*,#542,.F.);
#683=ORIENTED_EDGE('',*,*,#541,.F.);
#684=ORIENTED_EDGE('',*,*,#543,.F.);
#685=ORIENTED_EDGE('',*,*,#544,.T.);
#686=ORIENTED_EDGE('',*,*,#545,.F.);
#687=ORIENTED_EDGE('',*,*,#544,.F.);
#688=ORIENTED_EDGE('',*,*,#546,.F.);
#689=ORIENTED_EDGE('',*,*,#547,.T.);
#690=ORIENTED_EDGE('',*,*,#548,.F.);
#691=ORIENTED_EDGE('',*,*,#547,.F.);
#692=ORIENTED_EDGE('',*,*,#549,.F.);
#693=ORIENTED_EDGE('',*,*,#550,.F.);
#694=ORIENTED_EDGE('',*,*,#551,.F.);
#695=ORIENTED_EDGE('',*,*,#552,.F.);
#696=ORIENTED_EDGE('',*,*,#553,.F.);
#697=ORIENTED_EDGE('',*,*,#533,.T.);
#698=ORIENTED_EDGE('',*,*,#551,.T.);
#699=ORIENTED_EDGE('',*,*,#532,.T.);
#700=ORIENTED_EDGE('',*,*,#536,.T.);
#701=ORIENTED_EDGE('',*,*,#539,.T.);
#702=ORIENTED_EDGE('',*,*,#542,.T.);
#703=ORIENTED_EDGE('',*,*,#545,.T.);
#704=ORIENTED_EDGE('',*,*,#548,.T.);
#705=ORIENTED_EDGE('',*,*,#554,.F.);
#706=ORIENTED_EDGE('',*,*,#555,.T.);
#707=ORIENTED_EDGE('',*,*,#556,.F.);
#708=ORIENTED_EDGE('',*,*,#557,.F.);
#709=ORIENTED_EDGE('',*,*,#558,.F.);
#710=ORIENTED_EDGE('',*,*,#559,.T.);
#711=ORIENTED_EDGE('',*,*,#560,.T.);
#712=ORIENTED_EDGE('',*,*,#561,.F.);
#713=ORIENTED_EDGE('',*,*,#562,.F.);
#714=ORIENTED_EDGE('',*,*,#563,.T.);
#715=ORIENTED_EDGE('',*,*,#564,.F.);
#716=ORIENTED_EDGE('',*,*,#565,.T.);
#717=ORIENTED_EDGE('',*,*,#566,.F.);
#718=ORIENTED_EDGE('',*,*,#567,.F.);
#719=ORIENTED_EDGE('',*,*,#568,.T.);
#720=ORIENTED_EDGE('',*,*,#569,.T.);
#721=ORIENTED_EDGE('',*,*,#570,.T.);
#722=ORIENTED_EDGE('',*,*,#571,.T.);
#723=ORIENTED_EDGE('',*,*,#572,.T.);
#724=ORIENTED_EDGE('',*,*,#573,.T.);
#725=ORIENTED_EDGE('',*,*,#574,.F.);
#726=ORIENTED_EDGE('',*,*,#575,.F.);
#727=ORIENTED_EDGE('',*,*,#576,.F.);
#728=ORIENTED_EDGE('',*,*,#577,.F.);
#729=ORIENTED_EDGE('',*,*,#578,.F.);
#730=ORIENTED_EDGE('',*,*,#579,.F.);
#731=ORIENTED_EDGE('',*,*,#580,.F.);
#732=ORIENTED_EDGE('',*,*,#581,.F.);
#733=ORIENTED_EDGE('',*,*,#582,.F.);
#734=ORIENTED_EDGE('',*,*,#583,.F.);
#735=ORIENTED_EDGE('',*,*,#584,.F.);
#736=ORIENTED_EDGE('',*,*,#585,.F.);
#737=ORIENTED_EDGE('',*,*,#586,.F.);
#738=ORIENTED_EDGE('',*,*,#587,.F.);
#739=ORIENTED_EDGE('',*,*,#588,.F.);
#740=ORIENTED_EDGE('',*,*,#589,.F.);
#741=ORIENTED_EDGE('',*,*,#590,.F.);
#742=ORIENTED_EDGE('',*,*,#591,.F.);
#743=ORIENTED_EDGE('',*,*,#592,.F.);
#744=ORIENTED_EDGE('',*,*,#593,.F.);
#745=ORIENTED_EDGE('',*,*,#594,.T.);
#746=ORIENTED_EDGE('',*,*,#574,.T.);
#747=ORIENTED_EDGE('',*,*,#594,.F.);
#748=ORIENTED_EDGE('',*,*,#595,.F.);
#749=ORIENTED_EDGE('',*,*,#596,.T.);
#750=ORIENTED_EDGE('',*,*,#575,.T.);
#751=ORIENTED_EDGE('',*,*,#596,.F.);
#752=ORIENTED_EDGE('',*,*,#597,.F.);
#753=ORIENTED_EDGE('',*,*,#598,.T.);
#754=ORIENTED_EDGE('',*,*,#576,.T.);
#755=ORIENTED_EDGE('',*,*,#598,.F.);
#756=ORIENTED_EDGE('',*,*,#599,.F.);
#757=ORIENTED_EDGE('',*,*,#600,.T.);
#758=ORIENTED_EDGE('',*,*,#577,.T.);
#759=ORIENTED_EDGE('',*,*,#600,.F.);
#760=ORIENTED_EDGE('',*,*,#601,.F.);
#761=ORIENTED_EDGE('',*,*,#602,.T.);
#762=ORIENTED_EDGE('',*,*,#578,.T.);
#763=ORIENTED_EDGE('',*,*,#602,.F.);
#764=ORIENTED_EDGE('',*,*,#603,.F.);
#765=ORIENTED_EDGE('',*,*,#604,.T.);
#766=ORIENTED_EDGE('',*,*,#579,.T.);
#767=ORIENTED_EDGE('',*,*,#604,.F.);
#768=ORIENTED_EDGE('',*,*,#605,.F.);
#769=ORIENTED_EDGE('',*,*,#606,.T.);
#770=ORIENTED_EDGE('',*,*,#580,.T.);
#771=ORIENTED_EDGE('',*,*,#606,.F.);
#772=ORIENTED_EDGE('',*,*,#607,.F.);
#773=ORIENTED_EDGE('',*,*,#608,.T.);
#774=ORIENTED_EDGE('',*,*,#581,.T.);
#775=ORIENTED_EDGE('',*,*,#608,.F.);
#776=ORIENTED_EDGE('',*,*,#609,.F.);
#777=ORIENTED_EDGE('',*,*,#610,.T.);
#778=ORIENTED_EDGE('',*,*,#582,.T.);
#779=ORIENTED_EDGE('',*,*,#610,.F.);
#780=ORIENTED_EDGE('',*,*,#611,.F.);
#781=ORIENTED_EDGE('',*,*,#612,.T.);
#782=ORIENTED_EDGE('',*,*,#583,.T.);
#783=ORIENTED_EDGE('',*,*,#612,.F.);
#784=ORIENTED_EDGE('',*,*,#613,.F.);
#785=ORIENTED_EDGE('',*,*,#614,.T.);
#786=ORIENTED_EDGE('',*,*,#584,.T.);
#787=ORIENTED_EDGE('',*,*,#614,.F.);
#788=ORIENTED_EDGE('',*,*,#615,.F.);
#789=ORIENTED_EDGE('',*,*,#616,.T.);
#790=ORIENTED_EDGE('',*,*,#585,.T.);
#791=ORIENTED_EDGE('',*,*,#616,.F.);
#792=ORIENTED_EDGE('',*,*,#617,.F.);
#793=ORIENTED_EDGE('',*,*,#618,.T.);
#794=ORIENTED_EDGE('',*,*,#586,.T.);
#795=ORIENTED_EDGE('',*,*,#618,.F.);
#796=ORIENTED_EDGE('',*,*,#619,.F.);
#797=ORIENTED_EDGE('',*,*,#620,.T.);
#798=ORIENTED_EDGE('',*,*,#587,.T.);
#799=ORIENTED_EDGE('',*,*,#620,.F.);
#800=ORIENTED_EDGE('',*,*,#621,.F.);
#801=ORIENTED_EDGE('',*,*,#622,.T.);
#802=ORIENTED_EDGE('',*,*,#588,.T.);
#803=ORIENTED_EDGE('',*,*,#622,.F.);
#804=ORIENTED_EDGE('',*,*,#623,.F.);
#805=ORIENTED_EDGE('',*,*,#624,.T.);
#806=ORIENTED_EDGE('',*,*,#589,.T.);
#807=ORIENTED_EDGE('',*,*,#624,.F.);
#808=ORIENTED_EDGE('',*,*,#625,.F.);
#809=ORIENTED_EDGE('',*,*,#626,.T.);
#810=ORIENTED_EDGE('',*,*,#590,.T.);
#811=ORIENTED_EDGE('',*,*,#626,.F.);
#812=ORIENTED_EDGE('',*,*,#627,.F.);
#813=ORIENTED_EDGE('',*,*,#628,.T.);
#814=ORIENTED_EDGE('',*,*,#591,.T.);
#815=ORIENTED_EDGE('',*,*,#628,.F.);
#816=ORIENTED_EDGE('',*,*,#629,.F.);
#817=ORIENTED_EDGE('',*,*,#630,.T.);
#818=ORIENTED_EDGE('',*,*,#592,.T.);
#819=ORIENTED_EDGE('',*,*,#630,.F.);
#820=ORIENTED_EDGE('',*,*,#555,.F.);
#821=ORIENTED_EDGE('',*,*,#631,.T.);
#822=ORIENTED_EDGE('',*,*,#632,.F.);
#823=ORIENTED_EDGE('',*,*,#633,.F.);
#824=ORIENTED_EDGE('',*,*,#556,.T.);
#825=ORIENTED_EDGE('',*,*,#633,.T.);
#826=ORIENTED_EDGE('',*,*,#634,.F.);
#827=ORIENTED_EDGE('',*,*,#635,.F.);
#828=ORIENTED_EDGE('',*,*,#557,.T.);
#829=ORIENTED_EDGE('',*,*,#635,.T.);
#830=ORIENTED_EDGE('',*,*,#636,.F.);
#831=ORIENTED_EDGE('',*,*,#637,.F.);
#832=ORIENTED_EDGE('',*,*,#558,.T.);
#833=ORIENTED_EDGE('',*,*,#637,.T.);
#834=ORIENTED_EDGE('',*,*,#638,.F.);
#835=ORIENTED_EDGE('',*,*,#639,.F.);
#836=ORIENTED_EDGE('',*,*,#559,.F.);
#837=ORIENTED_EDGE('',*,*,#639,.T.);
#838=ORIENTED_EDGE('',*,*,#640,.F.);
#839=ORIENTED_EDGE('',*,*,#641,.F.);
#840=ORIENTED_EDGE('',*,*,#560,.F.);
#841=ORIENTED_EDGE('',*,*,#641,.T.);
#842=ORIENTED_EDGE('',*,*,#642,.F.);
#843=ORIENTED_EDGE('',*,*,#643,.F.);
#844=ORIENTED_EDGE('',*,*,#561,.T.);
#845=ORIENTED_EDGE('',*,*,#643,.T.);
#846=ORIENTED_EDGE('',*,*,#644,.F.);
#847=ORIENTED_EDGE('',*,*,#645,.F.);
#848=ORIENTED_EDGE('',*,*,#562,.T.);
#849=ORIENTED_EDGE('',*,*,#645,.T.);
#850=ORIENTED_EDGE('',*,*,#646,.F.);
#851=ORIENTED_EDGE('',*,*,#647,.F.);
#852=ORIENTED_EDGE('',*,*,#563,.F.);
#853=ORIENTED_EDGE('',*,*,#647,.T.);
#854=ORIENTED_EDGE('',*,*,#648,.F.);
#855=ORIENTED_EDGE('',*,*,#649,.F.);
#856=ORIENTED_EDGE('',*,*,#564,.T.);
#857=ORIENTED_EDGE('',*,*,#649,.T.);
#858=ORIENTED_EDGE('',*,*,#650,.F.);
#859=ORIENTED_EDGE('',*,*,#651,.F.);
#860=ORIENTED_EDGE('',*,*,#565,.F.);
#861=ORIENTED_EDGE('',*,*,#651,.T.);
#862=ORIENTED_EDGE('',*,*,#652,.F.);
#863=ORIENTED_EDGE('',*,*,#653,.F.);
#864=ORIENTED_EDGE('',*,*,#566,.T.);
#865=ORIENTED_EDGE('',*,*,#653,.T.);
#866=ORIENTED_EDGE('',*,*,#654,.F.);
#867=ORIENTED_EDGE('',*,*,#655,.F.);
#868=ORIENTED_EDGE('',*,*,#567,.T.);
#869=ORIENTED_EDGE('',*,*,#655,.T.);
#870=ORIENTED_EDGE('',*,*,#656,.F.);
#871=ORIENTED_EDGE('',*,*,#657,.F.);
#872=ORIENTED_EDGE('',*,*,#568,.F.);
#873=ORIENTED_EDGE('',*,*,#657,.T.);
#874=ORIENTED_EDGE('',*,*,#658,.F.);
#875=ORIENTED_EDGE('',*,*,#659,.F.);
#876=ORIENTED_EDGE('',*,*,#569,.F.);
#877=ORIENTED_EDGE('',*,*,#659,.T.);
#878=ORIENTED_EDGE('',*,*,#660,.F.);
#879=ORIENTED_EDGE('',*,*,#661,.F.);
#880=ORIENTED_EDGE('',*,*,#570,.F.);
#881=ORIENTED_EDGE('',*,*,#661,.T.);
#882=ORIENTED_EDGE('',*,*,#662,.F.);
#883=ORIENTED_EDGE('',*,*,#663,.F.);
#884=ORIENTED_EDGE('',*,*,#571,.F.);
#885=ORIENTED_EDGE('',*,*,#663,.T.);
#886=ORIENTED_EDGE('',*,*,#664,.F.);
#887=ORIENTED_EDGE('',*,*,#665,.F.);
#888=ORIENTED_EDGE('',*,*,#572,.F.);
#889=ORIENTED_EDGE('',*,*,#665,.T.);
#890=ORIENTED_EDGE('',*,*,#666,.F.);
#891=ORIENTED_EDGE('',*,*,#667,.F.);
#892=ORIENTED_EDGE('',*,*,#552,.T.);
#893=ORIENTED_EDGE('',*,*,#573,.F.);
#894=ORIENTED_EDGE('',*,*,#667,.T.);
#895=ORIENTED_EDGE('',*,*,#668,.F.);
#896=ORIENTED_EDGE('',*,*,#550,.T.);
#897=ORIENTED_EDGE('',*,*,#669,.F.);
#898=ORIENTED_EDGE('',*,*,#631,.F.);
#899=ORIENTED_EDGE('',*,*,#554,.T.);
#900=ORIENTED_EDGE('',*,*,#553,.T.);
#901=ORIENTED_EDGE('',*,*,#668,.T.);
#902=ORIENTED_EDGE('',*,*,#666,.T.);
#903=ORIENTED_EDGE('',*,*,#664,.T.);
#904=ORIENTED_EDGE('',*,*,#662,.T.);
#905=ORIENTED_EDGE('',*,*,#660,.T.);
#906=ORIENTED_EDGE('',*,*,#658,.T.);
#907=ORIENTED_EDGE('',*,*,#656,.T.);
#908=ORIENTED_EDGE('',*,*,#654,.T.);
#909=ORIENTED_EDGE('',*,*,#652,.T.);
#910=ORIENTED_EDGE('',*,*,#650,.T.);
#911=ORIENTED_EDGE('',*,*,#648,.T.);
#912=ORIENTED_EDGE('',*,*,#646,.T.);
#913=ORIENTED_EDGE('',*,*,#644,.T.);
#914=ORIENTED_EDGE('',*,*,#642,.T.);
#915=ORIENTED_EDGE('',*,*,#640,.T.);
#916=ORIENTED_EDGE('',*,*,#638,.T.);
#917=ORIENTED_EDGE('',*,*,#636,.T.);
#918=ORIENTED_EDGE('',*,*,#634,.T.);
#919=ORIENTED_EDGE('',*,*,#632,.T.);
#920=ORIENTED_EDGE('',*,*,#669,.T.);
#921=ORIENTED_EDGE('',*,*,#549,.T.);
#922=ORIENTED_EDGE('',*,*,#546,.T.);
#923=ORIENTED_EDGE('',*,*,#543,.T.);
#924=ORIENTED_EDGE('',*,*,#540,.T.);
#925=ORIENTED_EDGE('',*,*,#537,.T.);
#926=ORIENTED_EDGE('',*,*,#534,.T.);
#927=ORIENTED_EDGE('',*,*,#593,.T.);
#928=ORIENTED_EDGE('',*,*,#595,.T.);
#929=ORIENTED_EDGE('',*,*,#597,.T.);
#930=ORIENTED_EDGE('',*,*,#599,.T.);
#931=ORIENTED_EDGE('',*,*,#601,.T.);
#932=ORIENTED_EDGE('',*,*,#603,.T.);
#933=ORIENTED_EDGE('',*,*,#605,.T.);
#934=ORIENTED_EDGE('',*,*,#607,.T.);
#935=ORIENTED_EDGE('',*,*,#609,.T.);
#936=ORIENTED_EDGE('',*,*,#611,.T.);
#937=ORIENTED_EDGE('',*,*,#613,.T.);
#938=ORIENTED_EDGE('',*,*,#615,.T.);
#939=ORIENTED_EDGE('',*,*,#617,.T.);
#940=ORIENTED_EDGE('',*,*,#619,.T.);
#941=ORIENTED_EDGE('',*,*,#621,.T.);
#942=ORIENTED_EDGE('',*,*,#623,.T.);
#943=ORIENTED_EDGE('',*,*,#625,.T.);
#944=ORIENTED_EDGE('',*,*,#627,.T.);
#945=ORIENTED_EDGE('',*,*,#629,.T.);
#946=PLANE('',#1030);
#947=PLANE('',#1031);
#948=PLANE('',#1032);
#949=PLANE('',#1033);
#950=PLANE('',#1034);
#951=PLANE('',#1041);
#952=PLANE('',#1107);
#953=PLANE('',#1108);
#954=PLANE('',#1109);
#955=PLANE('',#1112);
#956=PLANE('',#1115);
#957=PLANE('',#1116);
#958=PLANE('',#1117);
#959=PLANE('',#1118);
#960=PLANE('',#1121);
#961=PLANE('',#1124);
#962=PLANE('',#1125);
#963=PLANE('',#1126);
#964=PLANE('',#1129);
#965=PLANE('',#1130);
#966=PLANE('',#1131);
#967=ADVANCED_FACE('',(#138),#946,.F.);
#968=ADVANCED_FACE('',(#139),#947,.F.);
#969=ADVANCED_FACE('',(#140),#948,.F.);
#970=ADVANCED_FACE('',(#141),#949,.F.);
#971=ADVANCED_FACE('',(#142),#950,.F.);
#972=ADVANCED_FACE('',(#143),#111,.T.);
#973=ADVANCED_FACE('',(#144),#112,.T.);
#974=ADVANCED_FACE('',(#145,#19,#20,#21,#22,#23,#24,#25,#26,#27,#28,#29,
#30,#31,#32,#33,#34,#35,#36,#37),#951,.F.);
#975=ADVANCED_FACE('',(#146),#113,.F.);
#976=ADVANCED_FACE('',(#147),#114,.F.);
#977=ADVANCED_FACE('',(#148),#115,.F.);
#978=ADVANCED_FACE('',(#149),#116,.F.);
#979=ADVANCED_FACE('',(#150),#117,.F.);
#980=ADVANCED_FACE('',(#151),#118,.F.);
#981=ADVANCED_FACE('',(#152),#119,.F.);
#982=ADVANCED_FACE('',(#153),#120,.F.);
#983=ADVANCED_FACE('',(#154),#121,.F.);
#984=ADVANCED_FACE('',(#155),#122,.F.);
#985=ADVANCED_FACE('',(#156),#123,.F.);
#986=ADVANCED_FACE('',(#157),#124,.F.);
#987=ADVANCED_FACE('',(#158),#125,.F.);
#988=ADVANCED_FACE('',(#159),#126,.F.);
#989=ADVANCED_FACE('',(#160),#127,.F.);
#990=ADVANCED_FACE('',(#161),#128,.F.);
#991=ADVANCED_FACE('',(#162),#129,.F.);
#992=ADVANCED_FACE('',(#163),#130,.F.);
#993=ADVANCED_FACE('',(#164),#131,.F.);
#994=ADVANCED_FACE('',(#165),#132,.F.);
#995=ADVANCED_FACE('',(#166),#952,.T.);
#996=ADVANCED_FACE('',(#167),#953,.T.);
#997=ADVANCED_FACE('',(#168),#954,.T.);
#998=ADVANCED_FACE('',(#169),#133,.F.);
#999=ADVANCED_FACE('',(#170),#955,.T.);
#1000=ADVANCED_FACE('',(#171),#134,.T.);
#1001=ADVANCED_FACE('',(#172),#956,.T.);
#1002=ADVANCED_FACE('',(#173),#957,.T.);
#1003=ADVANCED_FACE('',(#174),#958,.T.);
#1004=ADVANCED_FACE('',(#175),#959,.T.);
#1005=ADVANCED_FACE('',(#176),#135,.T.);
#1006=ADVANCED_FACE('',(#177),#960,.T.);
#1007=ADVANCED_FACE('',(#178),#136,.F.);
#1008=ADVANCED_FACE('',(#179),#961,.T.);
#1009=ADVANCED_FACE('',(#180),#962,.T.);
#1010=ADVANCED_FACE('',(#181),#963,.T.);
#1011=ADVANCED_FACE('',(#182),#137,.F.);
#1012=ADVANCED_FACE('',(#183),#964,.T.);
#1013=ADVANCED_FACE('',(#184),#965,.T.);
#1014=ADVANCED_FACE('',(#185,#38,#39,#40,#41,#42,#43,#44,#45,#46,#47,#48,
#49,#50,#51,#52,#53,#54,#55,#56),#966,.T.);
#1015=CLOSED_SHELL('',(#967,#968,#969,#970,#971,#972,#973,#974,#975,#976,
#977,#978,#979,#980,#981,#982,#983,#984,#985,#986,#987,#988,#989,#990,#991,
#992,#993,#994,#995,#996,#997,#998,#999,#1000,#1001,#1002,#1003,#1004,#1005,
#1006,#1007,#1008,#1009,#1010,#1011,#1012,#1013,#1014));
#1016=DERIVED_UNIT_ELEMENT(#1018,1.);
#1017=DERIVED_UNIT_ELEMENT(#1715,-3.);
#1018=(
MASS_UNIT()
NAMED_UNIT(*)
SI_UNIT(.KILO.,.GRAM.)
);
#1019=DERIVED_UNIT((#1016,#1017));
#1020=MEASURE_REPRESENTATION_ITEM('density measure',
POSITIVE_RATIO_MEASURE(7850.),#1019);
#1021=PROPERTY_DEFINITION_REPRESENTATION(#1026,#1023);
#1022=PROPERTY_DEFINITION_REPRESENTATION(#1027,#1024);
#1023=REPRESENTATION('material name',(#1025),#1712);
#1024=REPRESENTATION('density',(#1020),#1712);
#1025=DESCRIPTIVE_REPRESENTATION_ITEM('Steel','Steel');
#1026=PROPERTY_DEFINITION('material property','material name',#1727);
#1027=PROPERTY_DEFINITION('material property','density of part',#1727);
#1028=AXIS2_PLACEMENT_3D('',#1427,#1133,#1134);
#1029=AXIS2_PLACEMENT_3D('',#1428,#1135,#1136);
#1030=AXIS2_PLACEMENT_3D('',#1429,#1137,#1138);
#1031=AXIS2_PLACEMENT_3D('',#1438,#1143,#1144);
#1032=AXIS2_PLACEMENT_3D('',#1444,#1148,#1149);
#1033=AXIS2_PLACEMENT_3D('',#1450,#1153,#1154);
#1034=AXIS2_PLACEMENT_3D('',#1456,#1158,#1159);
#1035=AXIS2_PLACEMENT_3D('',#1462,#1163,#1164);
#1036=AXIS2_PLACEMENT_3D('',#1464,#1165,#1166);
#1037=AXIS2_PLACEMENT_3D('',#1466,#1167,#1168);
#1038=AXIS2_PLACEMENT_3D('',#1468,#1170,#1171);
#1039=AXIS2_PLACEMENT_3D('',#1470,#1172,#1173);
#1040=AXIS2_PLACEMENT_3D('',#1473,#1175,#1176);
#1041=AXIS2_PLACEMENT_3D('',#1474,#1177,#1178);
#1042=AXIS2_PLACEMENT_3D('',#1478,#1180,#1181);
#1043=AXIS2_PLACEMENT_3D('',#1486,#1185,#1186);
#1044=AXIS2_PLACEMENT_3D('',#1490,#1188,#1189);
#1045=AXIS2_PLACEMENT_3D('',#1500,#1194,#1195);
#1046=AXIS2_PLACEMENT_3D('',#1504,#1197,#1198);
#1047=AXIS2_PLACEMENT_3D('',#1512,#1202,#1203);
#1048=AXIS2_PLACEMENT_3D('',#1515,#1205,#1206);
#1049=AXIS2_PLACEMENT_3D('',#1517,#1207,#1208);
#1050=AXIS2_PLACEMENT_3D('',#1519,#1209,#1210);
#1051=AXIS2_PLACEMENT_3D('',#1521,#1211,#1212);
#1052=AXIS2_PLACEMENT_3D('',#1523,#1213,#1214);
#1053=AXIS2_PLACEMENT_3D('',#1525,#1215,#1216);
#1054=AXIS2_PLACEMENT_3D('',#1527,#1217,#1218);
#1055=AXIS2_PLACEMENT_3D('',#1529,#1219,#1220);
#1056=AXIS2_PLACEMENT_3D('',#1531,#1221,#1222);
#1057=AXIS2_PLACEMENT_3D('',#1533,#1223,#1224);
#1058=AXIS2_PLACEMENT_3D('',#1535,#1225,#1226);
#1059=AXIS2_PLACEMENT_3D('',#1537,#1227,#1228);
#1060=AXIS2_PLACEMENT_3D('',#1539,#1229,#1230);
#1061=AXIS2_PLACEMENT_3D('',#1541,#1231,#1232);
#1062=AXIS2_PLACEMENT_3D('',#1543,#1233,#1234);
#1063=AXIS2_PLACEMENT_3D('',#1545,#1235,#1236);
#1064=AXIS2_PLACEMENT_3D('',#1547,#1237,#1238);
#1065=AXIS2_PLACEMENT_3D('',#1549,#1239,#1240);
#1066=AXIS2_PLACEMENT_3D('',#1551,#1241,#1242);
#1067=AXIS2_PLACEMENT_3D('',#1552,#1243,#1244);
#1068=AXIS2_PLACEMENT_3D('',#1554,#1245,#1246);
#1069=AXIS2_PLACEMENT_3D('',#1556,#1248,#1249);
#1070=AXIS2_PLACEMENT_3D('',#1558,#1250,#1251);
#1071=AXIS2_PLACEMENT_3D('',#1560,#1253,#1254);
#1072=AXIS2_PLACEMENT_3D('',#1562,#1255,#1256);
#1073=AXIS2_PLACEMENT_3D('',#1564,#1258,#1259);
#1074=AXIS2_PLACEMENT_3D('',#1566,#1260,#1261);
#1075=AXIS2_PLACEMENT_3D('',#1568,#1263,#1264);
#1076=AXIS2_PLACEMENT_3D('',#1570,#1265,#1266);
#1077=AXIS2_PLACEMENT_3D('',#1572,#1268,#1269);
#1078=AXIS2_PLACEMENT_3D('',#1574,#1270,#1271);
#1079=AXIS2_PLACEMENT_3D('',#1576,#1273,#1274);
#1080=AXIS2_PLACEMENT_3D('',#1578,#1275,#1276);
#1081=AXIS2_PLACEMENT_3D('',#1580,#1278,#1279);
#1082=AXIS2_PLACEMENT_3D('',#1582,#1280,#1281);
#1083=AXIS2_PLACEMENT_3D('',#1584,#1283,#1284);
#1084=AXIS2_PLACEMENT_3D('',#1586,#1285,#1286);
#1085=AXIS2_PLACEMENT_3D('',#1588,#1288,#1289);
#1086=AXIS2_PLACEMENT_3D('',#1590,#1290,#1291);
#1087=AXIS2_PLACEMENT_3D('',#1592,#1293,#1294);
#1088=AXIS2_PLACEMENT_3D('',#1594,#1295,#1296);
#1089=AXIS2_PLACEMENT_3D('',#1596,#1298,#1299);
#1090=AXIS2_PLACEMENT_3D('',#1598,#1300,#1301);
#1091=AXIS2_PLACEMENT_3D('',#1600,#1303,#1304);
#1092=AXIS2_PLACEMENT_3D('',#1602,#1305,#1306);
#1093=AXIS2_PLACEMENT_3D('',#1604,#1308,#1309);
#1094=AXIS2_PLACEMENT_3D('',#1606,#1310,#1311);
#1095=AXIS2_PLACEMENT_3D('',#1608,#1313,#1314);
#1096=AXIS2_PLACEMENT_3D('',#1610,#1315,#1316);
#1097=AXIS2_PLACEMENT_3D('',#1612,#1318,#1319);
#1098=AXIS2_PLACEMENT_3D('',#1614,#1320,#1321);
#1099=AXIS2_PLACEMENT_3D('',#1616,#1323,#1324);
#1100=AXIS2_PLACEMENT_3D('',#1618,#1325,#1326);
#1101=AXIS2_PLACEMENT_3D('',#1620,#1328,#1329);
#1102=AXIS2_PLACEMENT_3D('',#1622,#1330,#1331);
#1103=AXIS2_PLACEMENT_3D('',#1624,#1333,#1334);
#1104=AXIS2_PLACEMENT_3D('',#1626,#1335,#1336);
#1105=AXIS2_PLACEMENT_3D('',#1628,#1338,#1339);
#1106=AXIS2_PLACEMENT_3D('',#1632,#1341,#1342);
#1107=AXIS2_PLACEMENT_3D('',#1634,#1344,#1345);
#1108=AXIS2_PLACEMENT_3D('',#1638,#1348,#1349);
#1109=AXIS2_PLACEMENT_3D('',#1642,#1352,#1353);
#1110=AXIS2_PLACEMENT_3D('',#1646,#1356,#1357);
#1111=AXIS2_PLACEMENT_3D('',#1648,#1358,#1359);
#1112=AXIS2_PLACEMENT_3D('',#1650,#1361,#1362);
#1113=AXIS2_PLACEMENT_3D('',#1654,#1365,#1366);
#1114=AXIS2_PLACEMENT_3D('',#1656,#1367,#1368);
#1115=AXIS2_PLACEMENT_3D('',#1658,#1370,#1371);
#1116=AXIS2_PLACEMENT_3D('',#1662,#1374,#1375);
#1117=AXIS2_PLACEMENT_3D('',#1666,#1378,#1379);
#1118=AXIS2_PLACEMENT_3D('',#1670,#1382,#1383);
#1119=AXIS2_PLACEMENT_3D('',#1674,#1386,#1387);
#1120=AXIS2_PLACEMENT_3D('',#1676,#1388,#1389);
#1121=AXIS2_PLACEMENT_3D('',#1678,#1391,#1392);
#1122=AXIS2_PLACEMENT_3D('',#1682,#1395,#1396);
#1123=AXIS2_PLACEMENT_3D('',#1684,#1397,#1398);
#1124=AXIS2_PLACEMENT_3D('',#1686,#1400,#1401);
#1125=AXIS2_PLACEMENT_3D('',#1690,#1404,#1405);
#1126=AXIS2_PLACEMENT_3D('',#1694,#1408,#1409);
#1127=AXIS2_PLACEMENT_3D('',#1698,#1412,#1413);
#1128=AXIS2_PLACEMENT_3D('',#1700,#1414,#1415);
#1129=AXIS2_PLACEMENT_3D('',#1702,#1417,#1418);
#1130=AXIS2_PLACEMENT_3D('',#1704,#1420,#1421);
#1131=AXIS2_PLACEMENT_3D('',#1706,#1423,#1424);
#1132=AXIS2_PLACEMENT_3D('',#1707,#1425,#1426);
#1133=DIRECTION('axis',(0.,0.,1.));
#1134=DIRECTION('refdir',(1.,0.,0.));
#1135=DIRECTION('axis',(0.,0.,1.));
#1136=DIRECTION('refdir',(1.,0.,0.));
#1137=DIRECTION('center_axis',(1.,0.,0.));
#1138=DIRECTION('ref_axis',(0.,-1.,0.));
#1139=DIRECTION('',(0.,1.,0.));
#1140=DIRECTION('',(0.,0.,-1.));
#1141=DIRECTION('',(0.,-1.,0.));
#1142=DIRECTION('',(0.,0.,-1.));
#1143=DIRECTION('center_axis',(0.,1.,0.));
#1144=DIRECTION('ref_axis',(1.,0.,0.));
#1145=DIRECTION('',(-1.,0.,0.));
#1146=DIRECTION('',(1.,0.,0.));
#1147=DIRECTION('',(0.,0.,-1.));
#1148=DIRECTION('center_axis',(1.,0.,0.));
#1149=DIRECTION('ref_axis',(0.,-1.,0.));
#1150=DIRECTION('',(0.,1.,0.));
#1151=DIRECTION('',(0.,-1.,0.));
#1152=DIRECTION('',(0.,0.,-1.));
#1153=DIRECTION('center_axis',(0.,-1.,0.));
#1154=DIRECTION('ref_axis',(-1.,0.,0.));
#1155=DIRECTION('',(1.,0.,0.));
#1156=DIRECTION('',(-1.,0.,0.));
#1157=DIRECTION('',(0.,0.,-1.));
#1158=DIRECTION('center_axis',(1.,0.,0.));
#1159=DIRECTION('ref_axis',(0.,-1.,0.));
#1160=DIRECTION('',(0.,1.,0.));
#1161=DIRECTION('',(0.,-1.,0.));
#1162=DIRECTION('',(0.,0.,-1.));
#1163=DIRECTION('center_axis',(0.,0.,-1.));
#1164=DIRECTION('ref_axis',(-0.607529450058614,0.794297153029946,0.));
#1165=DIRECTION('center_axis',(0.,0.,-1.));
#1166=DIRECTION('ref_axis',(-0.607529450058614,0.794297153029946,0.));
#1167=DIRECTION('center_axis',(0.,0.,1.));
#1168=DIRECTION('ref_axis',(-0.607529450058614,0.794297153029946,0.));
#1169=DIRECTION('',(0.,0.,1.));
#1170=DIRECTION('center_axis',(0.,0.,-1.));
#1171=DIRECTION('ref_axis',(-1.,0.,0.));
#1172=DIRECTION('center_axis',(0.,0.,-1.));
#1173=DIRECTION('ref_axis',(-1.,0.,0.));
#1174=DIRECTION('',(0.,0.,-1.));
#1175=DIRECTION('center_axis',(0.,0.,1.));
#1176=DIRECTION('ref_axis',(-1.,0.,0.));
#1177=DIRECTION('center_axis',(0.,0.,1.));
#1178=DIRECTION('ref_axis',(-1.,0.,0.));
#1179=DIRECTION('',(-0.245068924608456,0.969505658669022,0.));
#1180=DIRECTION('center_axis',(0.,0.,1.));
#1181=DIRECTION('ref_axis',(-0.723565903418667,0.690255303065415,0.));
#1182=DIRECTION('',(-0.707251706846557,0.706961825817089,0.));
#1183=DIRECTION('',(-0.99999970480564,0.000768367512059037,0.));
#1184=DIRECTION('',(-0.747835363816129,-0.663884228330511,0.));
#1185=DIRECTION('center_axis',(0.,0.,1.));
#1186=DIRECTION('ref_axis',(-1.,0.,0.));
#1187=DIRECTION('',(0.885860765118658,0.46395118797497,0.));
#1188=DIRECTION('center_axis',(0.,0.,1.));
#1189=DIRECTION('ref_axis',(-1.,0.,0.));
#1190=DIRECTION('',(0.,1.,0.));
#1191=DIRECTION('',(-0.756468525553471,-0.654030098578771,0.));
#1192=DIRECTION('',(-0.756468525553471,0.654030098578771,0.));
#1193=DIRECTION('',(-1.94445071861967E-15,-1.,0.));
#1194=DIRECTION('center_axis',(0.,0.,1.));
#1195=DIRECTION('ref_axis',(-1.,0.,0.));
#1196=DIRECTION('',(0.885860765118658,-0.46395118797497,0.));
#1197=DIRECTION('center_axis',(0.,0.,1.));
#1198=DIRECTION('ref_axis',(-1.,0.,0.));
#1199=DIRECTION('',(-0.74783536381613,0.66388422833051,0.));
#1200=DIRECTION('',(-0.99999970480564,-0.000768367512059037,0.));
#1201=DIRECTION('',(-0.707251706846557,-0.706961825817089,0.));
#1202=DIRECTION('center_axis',(0.,0.,1.));
#1203=DIRECTION('ref_axis',(-0.539537767231513,0.841961399192881,0.));
#1204=DIRECTION('',(-0.245068924608456,-0.969505658669022,0.));
#1205=DIRECTION('center_axis',(0.,0.,-1.));
#1206=DIRECTION('ref_axis',(-1.,0.,0.));
#1207=DIRECTION('center_axis',(0.,0.,-1.));
#1208=DIRECTION('ref_axis',(-1.,0.,0.));
#1209=DIRECTION('center_axis',(0.,0.,-1.));
#1210=DIRECTION('ref_axis',(-1.,0.,0.));
#1211=DIRECTION('center_axis',(0.,0.,-1.));
#1212=DIRECTION('ref_axis',(-1.,0.,0.));
#1213=DIRECTION('center_axis',(0.,0.,-1.));
#1214=DIRECTION('ref_axis',(-1.,0.,0.));
#1215=DIRECTION('center_axis',(0.,0.,-1.));
#1216=DIRECTION('ref_axis',(-1.,0.,0.));
#1217=DIRECTION('center_axis',(0.,0.,-1.));
#1218=DIRECTION('ref_axis',(-1.,0.,0.));
#1219=DIRECTION('center_axis',(0.,0.,-1.));
#1220=DIRECTION('ref_axis',(-1.,0.,0.));
#1221=DIRECTION('center_axis',(0.,0.,-1.));
#1222=DIRECTION('ref_axis',(-1.,0.,0.));
#1223=DIRECTION('center_axis',(0.,0.,-1.));
#1224=DIRECTION('ref_axis',(-1.,0.,0.));
#1225=DIRECTION('center_axis',(0.,0.,-1.));
#1226=DIRECTION('ref_axis',(-1.,0.,0.));
#1227=DIRECTION('center_axis',(0.,0.,-1.));
#1228=DIRECTION('ref_axis',(-1.,0.,0.));
#1229=DIRECTION('center_axis',(0.,0.,-1.));
#1230=DIRECTION('ref_axis',(-1.,0.,0.));
#1231=DIRECTION('center_axis',(0.,0.,-1.));
#1232=DIRECTION('ref_axis',(-1.,0.,0.));
#1233=DIRECTION('center_axis',(0.,0.,-1.));
#1234=DIRECTION('ref_axis',(-1.,0.,0.));
#1235=DIRECTION('center_axis',(0.,0.,-1.));
#1236=DIRECTION('ref_axis',(-1.,0.,0.));
#1237=DIRECTION('center_axis',(0.,0.,-1.));
#1238=DIRECTION('ref_axis',(-1.,0.,0.));
#1239=DIRECTION('center_axis',(0.,0.,-1.));
#1240=DIRECTION('ref_axis',(-1.,0.,0.));
#1241=DIRECTION('center_axis',(0.,0.,-1.));
#1242=DIRECTION('ref_axis',(-1.,0.,0.));
#1243=DIRECTION('center_axis',(0.,0.,1.));
#1244=DIRECTION('ref_axis',(-1.,0.,0.));
#1245=DIRECTION('center_axis',(0.,0.,-1.));
#1246=DIRECTION('ref_axis',(-1.,0.,0.));
#1247=DIRECTION('',(0.,0.,-1.));
#1248=DIRECTION('center_axis',(0.,0.,1.));
#1249=DIRECTION('ref_axis',(-1.,0.,0.));
#1250=DIRECTION('center_axis',(0.,0.,-1.));
#1251=DIRECTION('ref_axis',(-1.,0.,0.));
#1252=DIRECTION('',(0.,0.,-1.));
#1253=DIRECTION('center_axis',(0.,0.,1.));
#1254=DIRECTION('ref_axis',(-1.,0.,0.));
#1255=DIRECTION('center_axis',(0.,0.,-1.));
#1256=DIRECTION('ref_axis',(-1.,0.,0.));
#1257=DIRECTION('',(0.,0.,-1.));
#1258=DIRECTION('center_axis',(0.,0.,1.));
#1259=DIRECTION('ref_axis',(-1.,0.,0.));
#1260=DIRECTION('center_axis',(0.,0.,-1.));
#1261=DIRECTION('ref_axis',(-1.,0.,0.));
#1262=DIRECTION('',(0.,0.,-1.));
#1263=DIRECTION('center_axis',(0.,0.,1.));
#1264=DIRECTION('ref_axis',(-1.,0.,0.));
#1265=DIRECTION('center_axis',(0.,0.,-1.));
#1266=DIRECTION('ref_axis',(-1.,0.,0.));
#1267=DIRECTION('',(0.,0.,-1.));
#1268=DIRECTION('center_axis',(0.,0.,1.));
#1269=DIRECTION('ref_axis',(-1.,0.,0.));
#1270=DIRECTION('center_axis',(0.,0.,-1.));
#1271=DIRECTION('ref_axis',(-1.,0.,0.));
#1272=DIRECTION('',(0.,0.,-1.));
#1273=DIRECTION('center_axis',(0.,0.,1.));
#1274=DIRECTION('ref_axis',(-1.,0.,0.));
#1275=DIRECTION('center_axis',(0.,0.,-1.));
#1276=DIRECTION('ref_axis',(-1.,0.,0.));
#1277=DIRECTION('',(0.,0.,-1.));
#1278=DIRECTION('center_axis',(0.,0.,1.));
#1279=DIRECTION('ref_axis',(-1.,0.,0.));
#1280=DIRECTION('center_axis',(0.,0.,-1.));
#1281=DIRECTION('ref_axis',(-1.,0.,0.));
#1282=DIRECTION('',(0.,0.,-1.));
#1283=DIRECTION('center_axis',(0.,0.,1.));
#1284=DIRECTION('ref_axis',(-1.,0.,0.));
#1285=DIRECTION('center_axis',(0.,0.,-1.));
#1286=DIRECTION('ref_axis',(-1.,0.,0.));
#1287=DIRECTION('',(0.,0.,-1.));
#1288=DIRECTION('center_axis',(0.,0.,1.));
#1289=DIRECTION('ref_axis',(-1.,0.,0.));
#1290=DIRECTION('center_axis',(0.,0.,-1.));
#1291=DIRECTION('ref_axis',(-1.,0.,0.));
#1292=DIRECTION('',(0.,0.,-1.));
#1293=DIRECTION('center_axis',(0.,0.,1.));
#1294=DIRECTION('ref_axis',(-1.,0.,0.));
#1295=DIRECTION('center_axis',(0.,0.,-1.));
#1296=DIRECTION('ref_axis',(-1.,0.,0.));
#1297=DIRECTION('',(0.,0.,-1.));
#1298=DIRECTION('center_axis',(0.,0.,1.));
#1299=DIRECTION('ref_axis',(-1.,0.,0.));
#1300=DIRECTION('center_axis',(0.,0.,-1.));
#1301=DIRECTION('ref_axis',(-1.,0.,0.));
#1302=DIRECTION('',(0.,0.,-1.));
#1303=DIRECTION('center_axis',(0.,0.,1.));
#1304=DIRECTION('ref_axis',(-1.,0.,0.));
#1305=DIRECTION('center_axis',(0.,0.,-1.));
#1306=DIRECTION('ref_axis',(-1.,0.,0.));
#1307=DIRECTION('',(0.,0.,-1.));
#1308=DIRECTION('center_axis',(0.,0.,1.));
#1309=DIRECTION('ref_axis',(-1.,0.,0.));
#1310=DIRECTION('center_axis',(0.,0.,-1.));
#1311=DIRECTION('ref_axis',(-1.,0.,0.));
#1312=DIRECTION('',(0.,0.,-1.));
#1313=DIRECTION('center_axis',(0.,0.,1.));
#1314=DIRECTION('ref_axis',(-1.,0.,0.));
#1315=DIRECTION('center_axis',(0.,0.,-1.));
#1316=DIRECTION('ref_axis',(-1.,0.,0.));
#1317=DIRECTION('',(0.,0.,-1.));
#1318=DIRECTION('center_axis',(0.,0.,1.));
#1319=DIRECTION('ref_axis',(-1.,0.,0.));
#1320=DIRECTION('center_axis',(0.,0.,-1.));
#1321=DIRECTION('ref_axis',(-1.,0.,0.));
#1322=DIRECTION('',(0.,0.,-1.));
#1323=DIRECTION('center_axis',(0.,0.,1.));
#1324=DIRECTION('ref_axis',(-1.,0.,0.));
#1325=DIRECTION('center_axis',(0.,0.,-1.));
#1326=DIRECTION('ref_axis',(-1.,0.,0.));
#1327=DIRECTION('',(0.,0.,-1.));
#1328=DIRECTION('center_axis',(0.,0.,1.));
#1329=DIRECTION('ref_axis',(-1.,0.,0.));
#1330=DIRECTION('center_axis',(0.,0.,-1.));
#1331=DIRECTION('ref_axis',(-1.,0.,0.));
#1332=DIRECTION('',(0.,0.,-1.));
#1333=DIRECTION('center_axis',(0.,0.,1.));
#1334=DIRECTION('ref_axis',(-1.,0.,0.));
#1335=DIRECTION('center_axis',(0.,0.,-1.));
#1336=DIRECTION('ref_axis',(-1.,0.,0.));
#1337=DIRECTION('',(0.,0.,-1.));
#1338=DIRECTION('center_axis',(0.,0.,1.));
#1339=DIRECTION('ref_axis',(-0.723565903418667,0.690255303065415,0.));
#1340=DIRECTION('',(0.,0.,1.));
#1341=DIRECTION('center_axis',(0.,0.,-1.));
#1342=DIRECTION('ref_axis',(-0.723565903418667,0.690255303065415,0.));
#1343=DIRECTION('',(0.,0.,1.));
#1344=DIRECTION('center_axis',(0.706961825817089,0.707251706846557,0.));
#1345=DIRECTION('ref_axis',(-0.707251706846557,0.706961825817089,0.));
#1346=DIRECTION('',(-0.707251706846557,0.706961825817089,0.));
#1347=DIRECTION('',(0.,0.,1.));
#1348=DIRECTION('center_axis',(0.000768367512059037,0.99999970480564,0.));
#1349=DIRECTION('ref_axis',(-0.99999970480564,0.000768367512059037,0.));
#1350=DIRECTION('',(-0.99999970480564,0.000768367512059037,0.));
#1351=DIRECTION('',(0.,0.,1.));
#1352=DIRECTION('center_axis',(-0.663884228330511,0.747835363816129,0.));
#1353=DIRECTION('ref_axis',(-0.747835363816129,-0.663884228330511,0.));
#1354=DIRECTION('',(-0.747835363816129,-0.663884228330511,0.));
#1355=DIRECTION('',(0.,0.,1.));
#1356=DIRECTION('center_axis',(0.,0.,1.));
#1357=DIRECTION('ref_axis',(0.988778877477094,-0.149386516979071,0.));
#1358=DIRECTION('center_axis',(0.,0.,-1.));
#1359=DIRECTION('ref_axis',(-1.,0.,0.));
#1360=DIRECTION('',(0.,0.,1.));
#1361=DIRECTION('center_axis',(-0.46395118797497,0.885860765118658,0.));
#1362=DIRECTION('ref_axis',(-0.885860765118658,-0.46395118797497,0.));
#1363=DIRECTION('',(-0.885860765118658,-0.46395118797497,0.));
#1364=DIRECTION('',(0.,0.,1.));
#1365=DIRECTION('center_axis',(0.,0.,1.));
#1366=DIRECTION('ref_axis',(-1.,0.,0.));
#1367=DIRECTION('center_axis',(0.,0.,1.));
#1368=DIRECTION('ref_axis',(-1.,0.,0.));
#1369=DIRECTION('',(0.,0.,1.));
#1370=DIRECTION('center_axis',(1.,0.,0.));
#1371=DIRECTION('ref_axis',(0.,1.,0.));
#1372=DIRECTION('',(0.,1.,0.));
#1373=DIRECTION('',(0.,0.,1.));
#1374=DIRECTION('center_axis',(0.654030098578771,-0.756468525553471,0.));
#1375=DIRECTION('ref_axis',(0.756468525553471,0.654030098578771,0.));
#1376=DIRECTION('',(0.756468525553471,0.654030098578771,0.));
#1377=DIRECTION('',(0.,0.,1.));
#1378=DIRECTION('center_axis',(0.654030098578771,0.756468525553471,0.));
#1379=DIRECTION('ref_axis',(-0.756468525553471,0.654030098578771,0.));
#1380=DIRECTION('',(-0.756468525553471,0.654030098578771,0.));
#1381=DIRECTION('',(0.,0.,1.));
#1382=DIRECTION('center_axis',(1.,-1.94445071861967E-15,0.));
#1383=DIRECTION('ref_axis',(1.94445071861967E-15,1.,0.));
#1384=DIRECTION('',(1.94445071861967E-15,1.,0.));
#1385=DIRECTION('',(0.,0.,1.));
#1386=DIRECTION('center_axis',(0.,0.,1.));
#1387=DIRECTION('ref_axis',(-1.,0.,0.));
#1388=DIRECTION('center_axis',(0.,0.,1.));
#1389=DIRECTION('ref_axis',(-1.,0.,0.));
#1390=DIRECTION('',(0.,0.,1.));
#1391=DIRECTION('center_axis',(-0.46395118797497,-0.885860765118658,0.));
#1392=DIRECTION('ref_axis',(0.885860765118658,-0.46395118797497,0.));
#1393=DIRECTION('',(0.885860765118658,-0.46395118797497,0.));
#1394=DIRECTION('',(0.,0.,1.));
#1395=DIRECTION('center_axis',(0.,0.,1.));
#1396=DIRECTION('ref_axis',(0.988778877477094,0.14938651697907,0.));
#1397=DIRECTION('center_axis',(0.,0.,-1.));
#1398=DIRECTION('ref_axis',(-1.,0.,0.));
#1399=DIRECTION('',(0.,0.,1.));
#1400=DIRECTION('center_axis',(-0.66388422833051,-0.74783536381613,0.));
#1401=DIRECTION('ref_axis',(0.74783536381613,-0.66388422833051,0.));
#1402=DIRECTION('',(0.74783536381613,-0.66388422833051,0.));
#1403=DIRECTION('',(0.,0.,1.));
#1404=DIRECTION('center_axis',(0.000768367512059037,-0.99999970480564,0.));
#1405=DIRECTION('ref_axis',(0.99999970480564,0.000768367512059037,0.));
#1406=DIRECTION('',(0.99999970480564,0.000768367512059037,0.));
#1407=DIRECTION('',(0.,0.,1.));
#1408=DIRECTION('center_axis',(0.706961825817089,-0.707251706846557,0.));
#1409=DIRECTION('ref_axis',(0.707251706846557,0.706961825817089,0.));
#1410=DIRECTION('',(0.707251706846557,0.706961825817089,0.));
#1411=DIRECTION('',(0.,0.,1.));
#1412=DIRECTION('center_axis',(0.,0.,1.));
#1413=DIRECTION('ref_axis',(-0.539537767231513,0.841961399192881,0.));
#1414=DIRECTION('center_axis',(0.,0.,-1.));
#1415=DIRECTION('ref_axis',(-0.539537767231513,0.841961399192881,0.));
#1416=DIRECTION('',(0.,0.,1.));
#1417=DIRECTION('center_axis',(0.969505658669022,-0.245068924608456,0.));
#1418=DIRECTION('ref_axis',(0.245068924608456,0.969505658669022,0.));
#1419=DIRECTION('',(0.245068924608456,0.969505658669022,0.));
#1420=DIRECTION('center_axis',(0.969505658669022,0.245068924608456,0.));
#1421=DIRECTION('ref_axis',(-0.245068924608456,0.969505658669022,0.));
#1422=DIRECTION('',(-0.245068924608456,0.969505658669022,0.));
#1423=DIRECTION('center_axis',(0.,0.,1.));
#1424=DIRECTION('ref_axis',(-1.,0.,0.));
#1425=DIRECTION('',(0.,0.,1.));
#1426=DIRECTION('',(1.,0.,0.));
#1427=CARTESIAN_POINT('',(0.,0.,0.));
#1428=CARTESIAN_POINT('',(0.,0.,0.));
#1429=CARTESIAN_POINT('Origin',(-150.60360455513,-15.0000002235174,13.3364240411616));
#1430=CARTESIAN_POINT('',(-150.60360455513,-50.0000000000003,11.3364243768616));
#1431=CARTESIAN_POINT('',(-150.60360455513,-15.0000002235174,11.3364243768616));
#1432=CARTESIAN_POINT('',(-150.60360455513,-7.50000011175871,11.3364243768616));
#1433=CARTESIAN_POINT('',(-150.60360455513,-50.0000000000003,13.3364240411616));
#1434=CARTESIAN_POINT('',(-150.60360455513,-50.0000000000003,13.3364240411616));
#1435=CARTESIAN_POINT('',(-150.60360455513,-15.0000002235174,13.3364240411616));
#1436=CARTESIAN_POINT('',(-150.60360455513,-7.50000011175871,13.3364240411616));
#1437=CARTESIAN_POINT('',(-150.60360455513,-15.0000002235174,13.3364240411616));
#1438=CARTESIAN_POINT('Origin',(-157.000002339482,-15.0000002235174,13.3364240411616));
#1439=CARTESIAN_POINT('',(-157.000002339482,-15.0000002235174,11.3364243768616));
#1440=CARTESIAN_POINT('',(-133.174040606471,-15.0000002235174,11.3364243768616));
#1441=CARTESIAN_POINT('',(-157.000002339482,-15.0000002235174,13.3364240411616));
#1442=CARTESIAN_POINT('',(-133.174040606471,-15.0000002235174,13.3364240411616));
#1443=CARTESIAN_POINT('',(-157.000002339482,-15.0000002235174,13.3364240411616));
#1444=CARTESIAN_POINT('Origin',(-157.000002339482,14.9193129088111,13.3364240411616));
#1445=CARTESIAN_POINT('',(-157.000002339482,14.9193129088111,11.3364243768616));
#1446=CARTESIAN_POINT('',(-157.000002339482,7.45965645440557,11.3364243768616));
#1447=CARTESIAN_POINT('',(-157.000002339482,14.9193129088111,13.3364240411616));
#1448=CARTESIAN_POINT('',(-157.000002339482,7.45965645440557,13.3364240411616));
#1449=CARTESIAN_POINT('',(-157.000002339482,14.9193129088111,13.3364240411616));
#1450=CARTESIAN_POINT('Origin',(-150.60360455513,14.9193129088111,13.3364240411616));
#1451=CARTESIAN_POINT('',(-150.60360455513,14.9193129088111,11.3364243768616));
#1452=CARTESIAN_POINT('',(-129.975841714295,14.9193129088111,11.3364243768616));
#1453=CARTESIAN_POINT('',(-150.60360455513,14.9193129088111,13.3364240411616));
#1454=CARTESIAN_POINT('',(-129.975841714295,14.9193129088111,13.3364240411616));
#1455=CARTESIAN_POINT('',(-150.60360455513,14.9193129088111,13.3364240411616));
#1456=CARTESIAN_POINT('Origin',(-150.60360455513,50.0000000000003,13.3364240411616));
#1457=CARTESIAN_POINT('',(-150.60360455513,50.0000000000003,11.3364243768616));
#1458=CARTESIAN_POINT('',(-150.60360455513,25.0000000000001,11.3364243768616));
#1459=CARTESIAN_POINT('',(-150.60360455513,50.0000000000003,13.3364240411616));
#1460=CARTESIAN_POINT('',(-150.60360455513,25.0000000000001,13.3364240411616));
#1461=CARTESIAN_POINT('',(-150.60360455513,50.0000000000003,13.3364240411616));
#1462=CARTESIAN_POINT('Origin',(-103.10360455513,50.0000000000003,13.3364240411616));
#1463=CARTESIAN_POINT('',(-131.961253432914,87.7291147689228,11.3364243768616));
#1464=CARTESIAN_POINT('Origin',(-103.10360455513,50.0000000000003,11.3364243768616));
#1465=CARTESIAN_POINT('',(-131.961253432914,87.7291147689228,13.3364240411616));
#1466=CARTESIAN_POINT('Origin',(-103.10360455513,50.0000000000003,13.3364240411616));
#1467=CARTESIAN_POINT('',(-131.961253432914,87.7291147689228,13.3364240411616));
#1468=CARTESIAN_POINT('Origin',(-103.10360455513,-50.0000000000003,13.3364240411616));
#1469=CARTESIAN_POINT('',(-131.961253432914,-87.7291147689228,11.3364243768616));
#1470=CARTESIAN_POINT('Origin',(-103.10360455513,-50.0000000000003,11.3364243768616));
#1471=CARTESIAN_POINT('',(-131.961253432914,-87.7291147689228,13.3364240411616));
#1472=CARTESIAN_POINT('',(-131.961253432914,-87.7291147689227,13.3364240411616));
#1473=CARTESIAN_POINT('Origin',(-103.10360455513,-50.0000000000003,13.3364240411616));
#1474=CARTESIAN_POINT('Origin',(-109.348078873461,0.,11.3364243768616));
#1475=CARTESIAN_POINT('',(-128.563627690366,74.2879271981064,11.3364243768616));
#1476=CARTESIAN_POINT('',(-128.563627690366,74.2879271981064,11.3364243768616));
#1477=CARTESIAN_POINT('',(-122.088252630924,20.3740093319152,11.3364243768616));
#1478=CARTESIAN_POINT('Origin',(-103.10360455513,50.0000000000003,11.3364243768616));
#1479=CARTESIAN_POINT('',(-109.575274405793,7.86615979714171,11.3364243768616));
#1480=CARTESIAN_POINT('',(-109.575274405793,7.86615979714171,11.3364243768616));
#1481=CARTESIAN_POINT('',(-97.714903423646,7.85704667070792,11.3364243768616));
#1482=CARTESIAN_POINT('',(-97.714903423646,7.85704667070792,11.3364243768616));
#1483=CARTESIAN_POINT('',(-79.8056069377293,23.7558661873769,11.3364243768616));
#1484=CARTESIAN_POINT('',(-79.8056069377293,23.7558661873769,11.3364243768616));
#1485=CARTESIAN_POINT('',(-73.0924043938137,68.1900829418865,11.3364243768616));
#1486=CARTESIAN_POINT('Origin',(-103.10360455513,50.0000000000003,11.3364243768616));
#1487=CARTESIAN_POINT('',(-62.5295001434128,73.7221847894979,11.3364243768616));
#1488=CARTESIAN_POINT('',(-73.0924043938137,68.1900829418865,11.3364243768616));
#1489=CARTESIAN_POINT('',(-57.0000008493662,59.13551998202,11.3364243768616));
#1490=CARTESIAN_POINT('Origin',(-103.10360455513,50.0000000000003,11.3364243768616));
#1491=CARTESIAN_POINT('',(-57.0000008493662,9.51041708748772,11.3364243768616));
#1492=CARTESIAN_POINT('',(-57.0000008493662,0.,11.3364243768616));
#1493=CARTESIAN_POINT('',(-68.000001013279,0.,11.3364243768616));
#1494=CARTESIAN_POINT('',(-57.0000008493662,9.51041708748772,11.3364243768616));
#1495=CARTESIAN_POINT('',(-57.0000008493662,-9.51041708748772,11.3364243768616));
#1496=CARTESIAN_POINT('',(-57.0000008493662,-9.51041708748772,11.3364243768616));
#1497=CARTESIAN_POINT('',(-57.0000008493662,-59.13551998202,11.3364243768616));
#1498=CARTESIAN_POINT('',(-57.0000008493662,-40.8644800179807,11.3364243768616));
#1499=CARTESIAN_POINT('',(-62.5295001434128,-73.7221847894979,11.3364243768616));
#1500=CARTESIAN_POINT('Origin',(-103.10360455513,-50.0000000000003,11.3364243768616));
#1501=CARTESIAN_POINT('',(-73.0924043938137,-68.1900829418865,11.3364243768616));
#1502=CARTESIAN_POINT('',(-73.0924043938137,-68.1900829418865,11.3364243768616));
#1503=CARTESIAN_POINT('',(-79.8056069377293,-23.7558661873769,11.3364243768616));
#1504=CARTESIAN_POINT('Origin',(-103.10360455513,-50.0000000000003,11.3364243768616));
#1505=CARTESIAN_POINT('',(-97.714903423646,-7.85704667070792,11.3364243768616));
#1506=CARTESIAN_POINT('',(-79.8056069377293,-23.7558661873769,11.3364243768616));
#1507=CARTESIAN_POINT('',(-109.575274405793,-7.86615979714171,11.3364243768616));
#1508=CARTESIAN_POINT('',(-97.714903423646,-7.85704667070792,11.3364243768616));
#1509=CARTESIAN_POINT('',(-122.088252630924,-20.3740093319152,11.3364243768616));
#1510=CARTESIAN_POINT('',(-109.575274405793,-7.86615979714171,11.3364243768616));
#1511=CARTESIAN_POINT('',(-128.563627690366,-74.2879271981064,11.3364243768616));
#1512=CARTESIAN_POINT('Origin',(-103.10360455513,-50.0000000000003,11.3364243768616));
#1513=CARTESIAN_POINT('',(-128.563627690366,-74.2879271981064,11.3364243768616));
#1514=CARTESIAN_POINT('',(-117.0436252821,-12.1209391670404,11.3364243768616));
#1515=CARTESIAN_POINT('Origin',(-118.7936252821,-12.1209391670404,11.3364243768616));
#1516=CARTESIAN_POINT('',(-63.47454372217,-34.3099792730304,11.3364243768616));
#1517=CARTESIAN_POINT('Origin',(-65.22454372217,-34.3099792730304,11.3364243768616));
#1518=CARTESIAN_POINT('',(-117.0436252821,12.1209391670404,11.3364243768616));
#1519=CARTESIAN_POINT('Origin',(-118.7936252821,12.1209391670404,11.3364243768616));
#1520=CARTESIAN_POINT('',(-85.66358382816,12.1209391670404,11.3364243768616));
#1521=CARTESIAN_POINT('Origin',(-87.41358382816,12.1209391670404,11.3364243768616));
#1522=CARTESIAN_POINT('',(-139.23266538809,34.3099792730304,11.3364243768616));
#1523=CARTESIAN_POINT('Origin',(-140.98266538809,34.3099792730304,11.3364243768616));
#1524=CARTESIAN_POINT('',(-128.900001952052,-9.00000013411046,11.3364243768616));
#1525=CARTESIAN_POINT('Origin',(-131.000001952052,-9.00000013411046,11.3364243768616));
#1526=CARTESIAN_POINT('',(-128.900001952052,9.00000013411046,11.3364243768616));
#1527=CARTESIAN_POINT('Origin',(-131.000001952052,9.00000013411046,11.3364243768616));
#1528=CARTESIAN_POINT('',(-68.9000019520522,-9.00000013411046,11.3364243768616));
#1529=CARTESIAN_POINT('Origin',(-71.0000019520522,-9.00000013411046,11.3364243768616));
#1530=CARTESIAN_POINT('',(-63.47454372217,65.6900207269704,11.3364243768616));
#1531=CARTESIAN_POINT('Origin',(-65.22454372217,65.6900207269704,11.3364243768616));
#1532=CARTESIAN_POINT('',(-139.23266538809,-34.3099792730304,11.3364243768616));
#1533=CARTESIAN_POINT('Origin',(-140.98266538809,-34.3099792730304,11.3364243768616));
#1534=CARTESIAN_POINT('',(-108.779585672483,6.12323399573677E-16,11.3364243768616));
#1535=CARTESIAN_POINT('Origin',(-113.779585672483,0.,11.3364243768616));
#1536=CARTESIAN_POINT('',(-63.47454372217,34.3099792730304,11.3364243768616));
#1537=CARTESIAN_POINT('Origin',(-65.22454372217,34.3099792730304,11.3364243768616));
#1538=CARTESIAN_POINT('',(-139.23266538809,-65.6900207269704,11.3364243768616));
#1539=CARTESIAN_POINT('Origin',(-140.98266538809,-65.6900207269704,11.3364243768616));
#1540=CARTESIAN_POINT('',(-139.23266538809,65.6900207269704,11.3364243768616));
#1541=CARTESIAN_POINT('Origin',(-140.98266538809,65.6900207269704,11.3364243768616));
#1542=CARTESIAN_POINT('',(-85.66358382816,-12.1209391670404,11.3364243768616));
#1543=CARTESIAN_POINT('Origin',(-87.41358382816,-12.1209391670404,11.3364243768616));
#1544=CARTESIAN_POINT('',(-68.9000019520522,9.00000013411046,11.3364243768616));
#1545=CARTESIAN_POINT('Origin',(-71.0000019520522,9.00000013411046,11.3364243768616));
#1546=CARTESIAN_POINT('',(-149.900002264976,9.00000013411045,11.3364243768616));
#1547=CARTESIAN_POINT('Origin',(-152.000002264977,9.00000013411045,11.3364243768616));
#1548=CARTESIAN_POINT('',(-63.47454372217,-65.6900207269704,11.3364243768616));
#1549=CARTESIAN_POINT('Origin',(-65.22454372217,-65.6900207269704,11.3364243768616));
#1550=CARTESIAN_POINT('',(-149.900002264976,-9.00000013411045,11.3364243768616));
#1551=CARTESIAN_POINT('Origin',(-152.000002264977,-9.00000013411045,11.3364243768616));
#1552=CARTESIAN_POINT('Origin',(-118.7936252821,-12.1209391670404,11.3364243768616));
#1553=CARTESIAN_POINT('',(-117.0436252821,-12.1209391670404,13.3364240411616));
#1554=CARTESIAN_POINT('Origin',(-118.7936252821,-12.1209391670404,13.3364240411616));
#1555=CARTESIAN_POINT('',(-117.0436252821,-12.1209391670404,11.3364243768616));
#1556=CARTESIAN_POINT('Origin',(-65.22454372217,-34.3099792730304,11.3364243768616));
#1557=CARTESIAN_POINT('',(-63.47454372217,-34.3099792730304,13.3364240411616));
#1558=CARTESIAN_POINT('Origin',(-65.22454372217,-34.3099792730304,13.3364240411616));
#1559=CARTESIAN_POINT('',(-63.47454372217,-34.3099792730304,11.3364243768616));
#1560=CARTESIAN_POINT('Origin',(-118.7936252821,12.1209391670404,11.3364243768616));
#1561=CARTESIAN_POINT('',(-117.0436252821,12.1209391670404,13.3364240411616));
#1562=CARTESIAN_POINT('Origin',(-118.7936252821,12.1209391670404,13.3364240411616));
#1563=CARTESIAN_POINT('',(-117.0436252821,12.1209391670404,11.3364243768616));
#1564=CARTESIAN_POINT('Origin',(-87.41358382816,12.1209391670404,11.3364243768616));
#1565=CARTESIAN_POINT('',(-85.66358382816,12.1209391670404,13.3364240411616));
#1566=CARTESIAN_POINT('Origin',(-87.41358382816,12.1209391670404,13.3364240411616));
#1567=CARTESIAN_POINT('',(-85.66358382816,12.1209391670404,11.3364243768616));
#1568=CARTESIAN_POINT('Origin',(-140.98266538809,34.3099792730304,11.3364243768616));
#1569=CARTESIAN_POINT('',(-139.23266538809,34.3099792730304,13.3364240411616));
#1570=CARTESIAN_POINT('Origin',(-140.98266538809,34.3099792730304,13.3364240411616));
#1571=CARTESIAN_POINT('',(-139.23266538809,34.3099792730304,11.3364243768616));
#1572=CARTESIAN_POINT('Origin',(-131.000001952052,-9.00000013411046,11.3364243768616));
#1573=CARTESIAN_POINT('',(-128.900001952052,-9.00000013411046,13.3364240411616));
#1574=CARTESIAN_POINT('Origin',(-131.000001952052,-9.00000013411046,13.3364240411616));
#1575=CARTESIAN_POINT('',(-128.900001952052,-9.00000013411046,11.3364243768616));
#1576=CARTESIAN_POINT('Origin',(-131.000001952052,9.00000013411046,11.3364243768616));
#1577=CARTESIAN_POINT('',(-128.900001952052,9.00000013411046,13.3364240411616));
#1578=CARTESIAN_POINT('Origin',(-131.000001952052,9.00000013411046,13.3364240411616));
#1579=CARTESIAN_POINT('',(-128.900001952052,9.00000013411046,11.3364243768616));
#1580=CARTESIAN_POINT('Origin',(-71.0000019520522,-9.00000013411046,11.3364243768616));
#1581=CARTESIAN_POINT('',(-68.9000019520522,-9.00000013411046,13.3364240411616));
#1582=CARTESIAN_POINT('Origin',(-71.0000019520522,-9.00000013411046,13.3364240411616));
#1583=CARTESIAN_POINT('',(-68.9000019520522,-9.00000013411046,11.3364243768616));
#1584=CARTESIAN_POINT('Origin',(-65.22454372217,65.6900207269704,11.3364243768616));
#1585=CARTESIAN_POINT('',(-63.47454372217,65.6900207269704,13.3364240411616));
#1586=CARTESIAN_POINT('Origin',(-65.22454372217,65.6900207269704,13.3364240411616));
#1587=CARTESIAN_POINT('',(-63.47454372217,65.6900207269704,11.3364243768616));
#1588=CARTESIAN_POINT('Origin',(-140.98266538809,-34.3099792730304,11.3364243768616));
#1589=CARTESIAN_POINT('',(-139.23266538809,-34.3099792730304,13.3364240411616));
#1590=CARTESIAN_POINT('Origin',(-140.98266538809,-34.3099792730304,13.3364240411616));
#1591=CARTESIAN_POINT('',(-139.23266538809,-34.3099792730304,11.3364243768616));
#1592=CARTESIAN_POINT('Origin',(-113.779585672483,0.,11.3364243768616));
#1593=CARTESIAN_POINT('',(-108.779585672483,1.11022302462516E-15,13.3364240411616));
#1594=CARTESIAN_POINT('Origin',(-113.779585672483,0.,13.3364240411616));
#1595=CARTESIAN_POINT('',(-108.779585672483,6.12323399573677E-16,11.3364243768616));
#1596=CARTESIAN_POINT('Origin',(-65.22454372217,34.3099792730304,11.3364243768616));
#1597=CARTESIAN_POINT('',(-63.47454372217,34.3099792730304,13.3364240411616));
#1598=CARTESIAN_POINT('Origin',(-65.22454372217,34.3099792730304,13.3364240411616));
#1599=CARTESIAN_POINT('',(-63.47454372217,34.3099792730304,11.3364243768616));
#1600=CARTESIAN_POINT('Origin',(-140.98266538809,-65.6900207269704,11.3364243768616));
#1601=CARTESIAN_POINT('',(-139.23266538809,-65.6900207269704,13.3364240411616));
#1602=CARTESIAN_POINT('Origin',(-140.98266538809,-65.6900207269704,13.3364240411616));
#1603=CARTESIAN_POINT('',(-139.23266538809,-65.6900207269704,11.3364243768616));
#1604=CARTESIAN_POINT('Origin',(-140.98266538809,65.6900207269704,11.3364243768616));
#1605=CARTESIAN_POINT('',(-139.23266538809,65.6900207269704,13.3364240411616));
#1606=CARTESIAN_POINT('Origin',(-140.98266538809,65.6900207269704,13.3364240411616));
#1607=CARTESIAN_POINT('',(-139.23266538809,65.6900207269704,11.3364243768616));
#1608=CARTESIAN_POINT('Origin',(-87.41358382816,-12.1209391670404,11.3364243768616));
#1609=CARTESIAN_POINT('',(-85.66358382816,-12.1209391670404,13.3364240411616));
#1610=CARTESIAN_POINT('Origin',(-87.41358382816,-12.1209391670404,13.3364240411616));
#1611=CARTESIAN_POINT('',(-85.66358382816,-12.1209391670404,11.3364243768616));
#1612=CARTESIAN_POINT('Origin',(-71.0000019520522,9.00000013411046,11.3364243768616));
#1613=CARTESIAN_POINT('',(-68.9000019520522,9.00000013411046,13.3364240411616));
#1614=CARTESIAN_POINT('Origin',(-71.0000019520522,9.00000013411046,13.3364240411616));
#1615=CARTESIAN_POINT('',(-68.9000019520522,9.00000013411046,11.3364243768616));
#1616=CARTESIAN_POINT('Origin',(-152.000002264977,9.00000013411045,11.3364243768616));
#1617=CARTESIAN_POINT('',(-149.900002264976,9.00000013411045,13.3364240411616));
#1618=CARTESIAN_POINT('Origin',(-152.000002264977,9.00000013411045,13.3364240411616));
#1619=CARTESIAN_POINT('',(-149.900002264976,9.00000013411045,11.3364243768616));
#1620=CARTESIAN_POINT('Origin',(-65.22454372217,-65.6900207269704,11.3364243768616));
#1621=CARTESIAN_POINT('',(-63.47454372217,-65.6900207269704,13.3364240411616));
#1622=CARTESIAN_POINT('Origin',(-65.22454372217,-65.6900207269704,13.3364240411616));
#1623=CARTESIAN_POINT('',(-63.47454372217,-65.6900207269704,11.3364243768616));
#1624=CARTESIAN_POINT('Origin',(-152.000002264977,-9.00000013411045,11.3364243768616));
#1625=CARTESIAN_POINT('',(-149.900002264976,-9.00000013411045,13.3364240411616));
#1626=CARTESIAN_POINT('Origin',(-152.000002264977,-9.00000013411045,13.3364240411616));
#1627=CARTESIAN_POINT('',(-149.900002264976,-9.00000013411045,11.3364243768616));
#1628=CARTESIAN_POINT('Origin',(-103.10360455513,50.0000000000003,11.3364243768616));
#1629=CARTESIAN_POINT('',(-128.563627690366,74.2879271981064,13.3364240411616));
#1630=CARTESIAN_POINT('',(-128.563627690366,74.2879271981064,11.3364243768616));
#1631=CARTESIAN_POINT('',(-122.088252630924,20.3740093319152,13.3364240411616));
#1632=CARTESIAN_POINT('Origin',(-103.10360455513,50.0000000000003,13.3364240411616));
#1633=CARTESIAN_POINT('',(-122.088252630924,20.3740093319152,11.3364243768616));
#1634=CARTESIAN_POINT('Origin',(-109.575274405793,7.86615979714171,11.3364243768616));
#1635=CARTESIAN_POINT('',(-109.575274405793,7.86615979714171,13.3364240411616));
#1636=CARTESIAN_POINT('',(-109.575274405793,7.86615979714171,13.3364240411616));
#1637=CARTESIAN_POINT('',(-109.575274405793,7.86615979714171,11.3364243768616));
#1638=CARTESIAN_POINT('Origin',(-97.714903423646,7.85704667070792,11.3364243768616));
#1639=CARTESIAN_POINT('',(-97.714903423646,7.85704667070792,13.3364240411616));
#1640=CARTESIAN_POINT('',(-97.714903423646,7.85704667070792,13.3364240411616));
#1641=CARTESIAN_POINT('',(-97.714903423646,7.85704667070792,11.3364243768616));
#1642=CARTESIAN_POINT('Origin',(-79.8056069377293,23.7558661873769,11.3364243768616));
#1643=CARTESIAN_POINT('',(-79.8056069377293,23.7558661873769,13.3364240411616));
#1644=CARTESIAN_POINT('',(-79.8056069377293,23.7558661873769,13.3364240411616));
#1645=CARTESIAN_POINT('',(-79.8056069377293,23.7558661873769,11.3364243768616));
#1646=CARTESIAN_POINT('Origin',(-103.10360455513,50.0000000000003,11.3364243768616));
#1647=CARTESIAN_POINT('',(-73.0924043938137,68.1900829418865,13.3364240411616));
#1648=CARTESIAN_POINT('Origin',(-103.10360455513,50.0000000000003,13.3364240411616));
#1649=CARTESIAN_POINT('',(-73.0924043938137,68.1900829418865,11.3364243768616));
#1650=CARTESIAN_POINT('Origin',(-62.5295001434128,73.7221847894979,11.3364243768616));
#1651=CARTESIAN_POINT('',(-62.5295001434128,73.7221847894979,13.3364240411616));
#1652=CARTESIAN_POINT('',(-73.0924043938137,68.1900829418865,13.3364240411616));
#1653=CARTESIAN_POINT('',(-62.5295001434128,73.7221847894979,11.3364243768616));
#1654=CARTESIAN_POINT('Origin',(-103.10360455513,50.0000000000003,11.3364243768616));
#1655=CARTESIAN_POINT('',(-57.0000008493662,59.13551998202,13.3364240411616));
#1656=CARTESIAN_POINT('Origin',(-103.10360455513,50.0000000000003,13.3364240411616));
#1657=CARTESIAN_POINT('',(-57.0000008493662,59.13551998202,11.3364243768616));
#1658=CARTESIAN_POINT('Origin',(-57.0000008493662,9.51041708748772,11.3364243768616));
#1659=CARTESIAN_POINT('',(-57.0000008493662,9.51041708748772,13.3364240411616));
#1660=CARTESIAN_POINT('',(-57.0000008493662,0.,13.3364240411616));
#1661=CARTESIAN_POINT('',(-57.0000008493662,9.51041708748772,11.3364243768616));
#1662=CARTESIAN_POINT('Origin',(-68.000001013279,0.,11.3364243768616));
#1663=CARTESIAN_POINT('',(-68.000001013279,0.,13.3364240411616));
#1664=CARTESIAN_POINT('',(-57.0000008493662,9.51041708748772,13.3364240411616));
#1665=CARTESIAN_POINT('',(-68.000001013279,0.,11.3364243768616));
#1666=CARTESIAN_POINT('Origin',(-57.0000008493662,-9.51041708748772,11.3364243768616));
#1667=CARTESIAN_POINT('',(-57.0000008493662,-9.51041708748772,13.3364240411616));
#1668=CARTESIAN_POINT('',(-57.0000008493662,-9.51041708748772,13.3364240411616));
#1669=CARTESIAN_POINT('',(-57.0000008493662,-9.51041708748772,11.3364243768616));
#1670=CARTESIAN_POINT('Origin',(-57.0000008493662,-59.13551998202,11.3364243768616));
#1671=CARTESIAN_POINT('',(-57.0000008493662,-59.13551998202,13.3364240411616));
#1672=CARTESIAN_POINT('',(-57.0000008493662,-40.8644800179807,13.3364240411616));
#1673=CARTESIAN_POINT('',(-57.0000008493662,-59.13551998202,11.3364243768616));
#1674=CARTESIAN_POINT('Origin',(-103.10360455513,-50.0000000000003,11.3364243768616));
#1675=CARTESIAN_POINT('',(-62.5295001434128,-73.7221847894979,13.3364240411616));
#1676=CARTESIAN_POINT('Origin',(-103.10360455513,-50.0000000000003,13.3364240411616));
#1677=CARTESIAN_POINT('',(-62.5295001434128,-73.7221847894979,11.3364243768616));
#1678=CARTESIAN_POINT('Origin',(-73.0924043938137,-68.1900829418865,11.3364243768616));
#1679=CARTESIAN_POINT('',(-73.0924043938137,-68.1900829418865,13.3364240411616));
#1680=CARTESIAN_POINT('',(-73.0924043938137,-68.1900829418865,13.3364240411616));
#1681=CARTESIAN_POINT('',(-73.0924043938137,-68.1900829418865,11.3364243768616));
#1682=CARTESIAN_POINT('Origin',(-103.10360455513,-50.0000000000003,11.3364243768616));
#1683=CARTESIAN_POINT('',(-79.8056069377293,-23.7558661873769,13.3364240411616));
#1684=CARTESIAN_POINT('Origin',(-103.10360455513,-50.0000000000003,13.3364240411616));
#1685=CARTESIAN_POINT('',(-79.8056069377293,-23.7558661873769,11.3364243768616));
#1686=CARTESIAN_POINT('Origin',(-97.714903423646,-7.85704667070792,11.3364243768616));
#1687=CARTESIAN_POINT('',(-97.714903423646,-7.85704667070792,13.3364240411616));
#1688=CARTESIAN_POINT('',(-79.8056069377293,-23.7558661873769,13.3364240411616));
#1689=CARTESIAN_POINT('',(-97.714903423646,-7.85704667070792,11.3364243768616));
#1690=CARTESIAN_POINT('Origin',(-109.575274405793,-7.86615979714171,11.3364243768616));
#1691=CARTESIAN_POINT('',(-109.575274405793,-7.86615979714171,13.3364240411616));
#1692=CARTESIAN_POINT('',(-97.714903423646,-7.85704667070792,13.3364240411616));
#1693=CARTESIAN_POINT('',(-109.575274405793,-7.86615979714171,11.3364243768616));
#1694=CARTESIAN_POINT('Origin',(-122.088252630924,-20.3740093319152,11.3364243768616));
#1695=CARTESIAN_POINT('',(-122.088252630924,-20.3740093319152,13.3364240411616));
#1696=CARTESIAN_POINT('',(-109.575274405793,-7.86615979714171,13.3364240411616));
#1697=CARTESIAN_POINT('',(-122.088252630924,-20.3740093319152,11.3364243768616));
#1698=CARTESIAN_POINT('Origin',(-103.10360455513,-50.0000000000003,11.3364243768616));
#1699=CARTESIAN_POINT('',(-128.563627690366,-74.2879271981064,13.3364240411616));
#1700=CARTESIAN_POINT('Origin',(-103.10360455513,-50.0000000000003,13.3364240411616));
#1701=CARTESIAN_POINT('',(-128.563627690366,-74.2879271981064,11.3364243768616));
#1702=CARTESIAN_POINT('Origin',(-134.50825848364,-97.805201785188,11.3364243768616));
#1703=CARTESIAN_POINT('',(-128.563627690366,-74.2879271981064,13.3364240411616));
#1704=CARTESIAN_POINT('Origin',(-128.563627690366,74.2879271981064,11.3364243768616));
#1705=CARTESIAN_POINT('',(-128.563627690366,74.2879271981064,13.3364240411616));
#1706=CARTESIAN_POINT('Origin',(-109.348078873461,0.,13.3364240411616));
#1707=CARTESIAN_POINT('',(0.,0.,0.));
#1708=UNCERTAINTY_MEASURE_WITH_UNIT(LENGTH_MEASURE(0.01),#1714,
'DISTANCE_ACCURACY_VALUE',
'Maximum model space distance between geometric entities at asserted c
onnectivities');
#1709=UNCERTAINTY_MEASURE_WITH_UNIT(LENGTH_MEASURE(0.01),#1714,
'DISTANCE_ACCURACY_VALUE',
'Maximum model space distance between geometric entities at asserted c
onnectivities');
#1710=UNCERTAINTY_MEASURE_WITH_UNIT(LENGTH_MEASURE(0.01),#1714,
'DISTANCE_ACCURACY_VALUE',
'Maximum model space distance between geometric entities at asserted c
onnectivities');
#1711=(
GEOMETRIC_REPRESENTATION_CONTEXT(3)
GLOBAL_UNCERTAINTY_ASSIGNED_CONTEXT((#1708))
GLOBAL_UNIT_ASSIGNED_CONTEXT((#1714,#1716,#1717))
REPRESENTATION_CONTEXT('','3D')
);
#1712=(
GEOMETRIC_REPRESENTATION_CONTEXT(3)
GLOBAL_UNCERTAINTY_ASSIGNED_CONTEXT((#1709))
GLOBAL_UNIT_ASSIGNED_CONTEXT((#1714,#1716,#1717))
REPRESENTATION_CONTEXT('','3D')
);
#1713=(
GEOMETRIC_REPRESENTATION_CONTEXT(3)
GLOBAL_UNCERTAINTY_ASSIGNED_CONTEXT((#1710))
GLOBAL_UNIT_ASSIGNED_CONTEXT((#1714,#1716,#1717))
REPRESENTATION_CONTEXT('','3D')
);
#1714=(
LENGTH_UNIT()
NAMED_UNIT(*)
SI_UNIT(.MILLI.,.METRE.)
);
#1715=(
LENGTH_UNIT()
NAMED_UNIT(*)
SI_UNIT($,.METRE.)
);
#1716=(
NAMED_UNIT(*)
PLANE_ANGLE_UNIT()
SI_UNIT($,.RADIAN.)
);
#1717=(
NAMED_UNIT(*)
SI_UNIT($,.STERADIAN.)
SOLID_ANGLE_UNIT()
);
#1718=SHAPE_DEFINITION_REPRESENTATION(#1720,#1723);
#1719=SHAPE_DEFINITION_REPRESENTATION(#1721,#1724);
#1720=PRODUCT_DEFINITION_SHAPE('',$,#1726);
#1721=PRODUCT_DEFINITION_SHAPE('',$,#1727);
#1722=PRODUCT_DEFINITION_SHAPE($,$,#14);
#1723=SHAPE_REPRESENTATION('',(#1028,#1132),#1711);
#1724=SHAPE_REPRESENTATION('',(#1029),#1712);
#1725=PRODUCT_DEFINITION_CONTEXT('part definition',#1733,'design');
#1726=PRODUCT_DEFINITION('Chassis','Chassis v25',#1728,#1725);
#1727=PRODUCT_DEFINITION('Chassis_1','Chassis',#1729,#1725);
#1728=PRODUCT_DEFINITION_FORMATION('',$,#1735);
#1729=PRODUCT_DEFINITION_FORMATION('',$,#1736);
#1730=PRODUCT_RELATED_PRODUCT_CATEGORY('Chassis v25','Chassis v25',(#1735));
#1731=PRODUCT_RELATED_PRODUCT_CATEGORY('Chassis','Chassis',(#1736));
#1732=APPLICATION_PROTOCOL_DEFINITION('international standard',
'automotive_design',2009,#1733);
#1733=APPLICATION_CONTEXT(
'Core Data for Automotive Mechanical Design Process');
#1734=PRODUCT_CONTEXT('part definition',#1733,'mechanical');
#1735=PRODUCT('Chassis','Chassis v25',$,(#1734));
#1736=PRODUCT('Chassis_1','Chassis',$,(#1734));
#1737=PRESENTATION_STYLE_ASSIGNMENT((#1745));
#1738=PRESENTATION_STYLE_ASSIGNMENT((#1746));
#1739=PRESENTATION_STYLE_ASSIGNMENT((#1747));
#1740=PRESENTATION_STYLE_ASSIGNMENT((#1748));
#1741=PRESENTATION_STYLE_ASSIGNMENT((#1749));
#1742=PRESENTATION_STYLE_ASSIGNMENT((#1750));
#1743=PRESENTATION_STYLE_ASSIGNMENT((#1751));
#1744=PRESENTATION_STYLE_ASSIGNMENT((#1752));
#1745=SURFACE_STYLE_USAGE(.BOTH.,#1753);
#1746=SURFACE_STYLE_USAGE(.BOTH.,#1754);
#1747=SURFACE_STYLE_USAGE(.BOTH.,#1755);
#1748=SURFACE_STYLE_USAGE(.BOTH.,#1756);
#1749=SURFACE_STYLE_USAGE(.BOTH.,#1757);
#1750=SURFACE_STYLE_USAGE(.BOTH.,#1758);
#1751=SURFACE_STYLE_USAGE(.BOTH.,#1759);
#1752=SURFACE_STYLE_USAGE(.BOTH.,#1760);
#1753=SURFACE_SIDE_STYLE('',(#1761));
#1754=SURFACE_SIDE_STYLE('',(#1762));
#1755=SURFACE_SIDE_STYLE('',(#1763));
#1756=SURFACE_SIDE_STYLE('',(#1764));
#1757=SURFACE_SIDE_STYLE('',(#1765));
#1758=SURFACE_SIDE_STYLE('',(#1766));
#1759=SURFACE_SIDE_STYLE('',(#1767));
#1760=SURFACE_SIDE_STYLE('',(#1768));
#1761=SURFACE_STYLE_FILL_AREA(#1769);
#1762=SURFACE_STYLE_FILL_AREA(#1770);
#1763=SURFACE_STYLE_FILL_AREA(#1771);
#1764=SURFACE_STYLE_FILL_AREA(#1772);
#1765=SURFACE_STYLE_FILL_AREA(#1773);
#1766=SURFACE_STYLE_FILL_AREA(#1774);
#1767=SURFACE_STYLE_FILL_AREA(#1775);
#1768=SURFACE_STYLE_FILL_AREA(#1776);
#1769=FILL_AREA_STYLE('Steel - Satin',(#1777));
#1770=FILL_AREA_STYLE('Aluminum - Satin',(#1778));
#1771=FILL_AREA_STYLE('Opaque(50,50,50)',(#1779));
#1772=FILL_AREA_STYLE('Opaque(255,255,255)',(#1780));
#1773=FILL_AREA_STYLE('Opaque(245,245,246)',(#1781));
#1774=FILL_AREA_STYLE('ABS (White) (1)',(#1782));
#1775=FILL_AREA_STYLE('Opaque(250,182,1)',(#1783));
#1776=FILL_AREA_STYLE('ABS (White)',(#1784));
#1777=FILL_AREA_STYLE_COLOUR('Steel - Satin',#1785);
#1778=FILL_AREA_STYLE_COLOUR('Aluminum - Satin',#1786);
#1779=FILL_AREA_STYLE_COLOUR('Opaque(50,50,50)',#1787);
#1780=FILL_AREA_STYLE_COLOUR('Opaque(255,255,255)',#1788);
#1781=FILL_AREA_STYLE_COLOUR('Opaque(245,245,246)',#1789);
#1782=FILL_AREA_STYLE_COLOUR('ABS (White) (1)',#1790);
#1783=FILL_AREA_STYLE_COLOUR('Opaque(250,182,1)',#1791);
#1784=FILL_AREA_STYLE_COLOUR('ABS (White)',#1792);
#1785=COLOUR_RGB('Steel - Satin',0.627450980392157,0.627450980392157,0.627450980392157);
#1786=COLOUR_RGB('Aluminum - Satin',0.96078431372549,0.96078431372549,0.964705882352941);
#1787=COLOUR_RGB('Opaque(50,50,50)',0.196078431372549,0.196078431372549,
0.196078431372549);
#1788=COLOUR_RGB('Opaque(255,255,255)',1.,1.,1.);
#1789=COLOUR_RGB('Opaque(245,245,246)',0.96078431372549,0.96078431372549,
0.964705882352941);
#1790=COLOUR_RGB('ABS (White) (1)',0.905882352941176,0.262745098039216,
0.184313725490196);
#1791=COLOUR_RGB('Opaque(250,182,1)',0.980392156862745,0.713725490196078,
0.00392156862745098);
#1792=COLOUR_RGB('ABS (White)',0.964705882352941,0.964705882352941,0.952941176470588);
ENDSEC;
END-ISO-10303-21;
