ISO-10303-21;
HEADER;
/* Generated by software containing ST-Developer
 * from STEP Tools, Inc. (www.steptools.com) 
 */

FILE_DESCRIPTION(
/* description */ (''),
/* implementation_level */ '2;1');

FILE_NAME(
/* name */ 'BottomPanel.step',
/* time_stamp */ '2026-08-13T12:57:43-04:00',
/* author */ (''),
/* organization */ (''),
/* preprocessor_version */ 'ST-DEVELOPER v20.1',
/* originating_system */ 'Autodesk Translation Framework v15.8.0.0',
/* authorisation */ '');

FILE_SCHEMA (('AUTOMOTIVE_DESIGN { 1 0 10303 214 3 1 1 }'));
ENDSEC;

DATA;
#10=MECHANICAL_DESIGN_GEOMETRIC_PRESENTATION_REPRESENTATION('',(#17),#1161);
#11=ITEM_DEFINED_TRANSFORMATION($,$,#681,#726);
#12=(
REPRESENTATION_RELATIONSHIP($,$,#1172,#1171)
REPRESENTATION_RELATIONSHIP_WITH_TRANSFORMATION(#11)
SHAPE_REPRESENTATION_RELATIONSHIP()
);
#13=CONTEXT_DEPENDENT_SHAPE_REPRESENTATION(#12,#1170);
#14=NEXT_ASSEMBLY_USAGE_OCCURRENCE('Chassis:1','Chassis:1','Chassis:1',
#1174,#1175,'Chassis:1');
#15=SHAPE_REPRESENTATION_RELATIONSHIP('SRR','None',#1172,#16);
#16=ADVANCED_BREP_SHAPE_REPRESENTATION('',(#18),#1160);
#17=STYLED_ITEM('',(#1189),#18);
#18=MANIFOLD_SOLID_BREP('BottomJoint',#667);
#19=(
BOUNDED_SURFACE()
B_SPLINE_SURFACE(3,2,((#1131,#1132,#1133),(#1134,#1135,#1136),(#1137,#1138,
#1139),(#1140,#1141,#1142)),.UNSPECIFIED.,.F.,.F.,.F.)
B_SPLINE_SURFACE_WITH_KNOTS((4,4),(3,3),(4.84856863606257,5.24568400611729),
(0.,1.),.UNSPECIFIED.)
GEOMETRIC_REPRESENTATION_ITEM()
RATIONAL_B_SPLINE_SURFACE(((1.,0.668576816006526,1.),(1.,0.630308275557141,
1.),(1.,0.589656500651176,1.),(1.,0.549102414742699,1.)))
REPRESENTATION_ITEM('')
SURFACE()
);
#20=(
BOUNDED_SURFACE()
B_SPLINE_SURFACE(3,2,((#1143,#1144,#1145),(#1146,#1147,#1148),(#1149,#1150,
#1151),(#1152,#1153,#1154)),.UNSPECIFIED.,.F.,.F.,.F.)
B_SPLINE_SURFACE_WITH_KNOTS((4,4),(3,3),(1.0374520626615,1.43461696478541),
(0.,1.),.UNSPECIFIED.)
GEOMETRIC_REPRESENTATION_ITEM()
RATIONAL_B_SPLINE_SURFACE(((1.,0.549087340329743,1.),(1.,0.589646431362785,
1.),(1.,0.630303601016683,1.),(1.,0.668576900960657,1.)))
REPRESENTATION_ITEM('')
SURFACE()
);
#21=CONICAL_SURFACE('',#721,3.10000000000005,0.785398163397452);
#22=CONICAL_SURFACE('',#722,3.09999999999999,0.785398163397448);
#23=CYLINDRICAL_SURFACE('',#717,1.6);
#24=CYLINDRICAL_SURFACE('',#719,1.6);
#25=CYLINDRICAL_SURFACE('',#723,7.);
#26=FACE_BOUND('',#79,.T.);
#27=FACE_BOUND('',#80,.T.);
#28=FACE_BOUND('',#85,.T.);
#29=FACE_BOUND('',#86,.T.);
#30=B_SPLINE_CURVE_WITH_KNOTS('',3,(#929,#930,#931,#932,#933,#934,#935,
#936,#937,#938,#939,#940),.UNSPECIFIED.,.F.,.F.,(4,2,2,2,2,4),(-0.189700320377298,
-0.140978100591289,-0.0948493413136326,-0.0548598273067949,-0.0261367307636421,
0.),.UNSPECIFIED.);
#31=B_SPLINE_CURVE_WITH_KNOTS('',3,(#946,#947,#948,#949,#950,#951,#952,
#953,#954,#955,#956,#957),.UNSPECIFIED.,.F.,.F.,(4,2,2,2,2,4),(-0.191276942811673,
-0.164923011040178,-0.135961193815775,-0.0956393141350087,-0.0491271092779505,
0.),.UNSPECIFIED.);
#32=B_SPLINE_CURVE_WITH_KNOTS('',3,(#994,#995,#996,#997,#998,#999,#1000,
#1001,#1002,#1003,#1004,#1005,#1006,#1007),.UNSPECIFIED.,.F.,.F.,(4,2,2,
2,2,2,4),(0.,0.0203402430119253,0.0419401477734512,0.072372616258546,0.109629147310525,
0.153711541768671,0.219136706367308),.UNSPECIFIED.);
#33=B_SPLINE_CURVE_WITH_KNOTS('',3,(#1010,#1011,#1012,#1013,#1014,#1015,
#1016,#1017,#1018,#1019,#1020,#1021,#1022,#1023),.UNSPECIFIED.,.F.,.F.,
(4,2,2,2,2,2,4),(0.,0.0661023716143858,0.110641668795631,0.148284277413808,
0.179032042986999,0.200855796247121,0.221406846472904),.UNSPECIFIED.);
#34=CIRCLE('',#687,7.);
#35=CIRCLE('',#688,1.6);
#36=CIRCLE('',#689,1.6);
#37=CIRCLE('',#694,7.);
#38=CIRCLE('',#695,3.10000000000005);
#39=CIRCLE('',#696,3.09999999999999);
#40=CIRCLE('',#718,1.6);
#41=CIRCLE('',#720,1.6);
#42=FACE_OUTER_BOUND('',#76,.T.);
#43=FACE_OUTER_BOUND('',#77,.T.);
#44=FACE_OUTER_BOUND('',#78,.T.);
#45=FACE_OUTER_BOUND('',#81,.T.);
#46=FACE_OUTER_BOUND('',#82,.T.);
#47=FACE_OUTER_BOUND('',#83,.T.);
#48=FACE_OUTER_BOUND('',#84,.T.);
#49=FACE_OUTER_BOUND('',#87,.T.);
#50=FACE_OUTER_BOUND('',#88,.T.);
#51=FACE_OUTER_BOUND('',#89,.T.);
#52=FACE_OUTER_BOUND('',#90,.T.);
#53=FACE_OUTER_BOUND('',#91,.T.);
#54=FACE_OUTER_BOUND('',#92,.T.);
#55=FACE_OUTER_BOUND('',#93,.T.);
#56=FACE_OUTER_BOUND('',#94,.T.);
#57=FACE_OUTER_BOUND('',#95,.T.);
#58=FACE_OUTER_BOUND('',#96,.T.);
#59=FACE_OUTER_BOUND('',#97,.T.);
#60=FACE_OUTER_BOUND('',#98,.T.);
#61=FACE_OUTER_BOUND('',#99,.T.);
#62=FACE_OUTER_BOUND('',#100,.T.);
#63=FACE_OUTER_BOUND('',#101,.T.);
#64=FACE_OUTER_BOUND('',#102,.T.);
#65=FACE_OUTER_BOUND('',#103,.T.);
#66=FACE_OUTER_BOUND('',#104,.T.);
#67=FACE_OUTER_BOUND('',#105,.T.);
#68=FACE_OUTER_BOUND('',#106,.T.);
#69=FACE_OUTER_BOUND('',#107,.T.);
#70=FACE_OUTER_BOUND('',#108,.T.);
#71=FACE_OUTER_BOUND('',#109,.T.);
#72=FACE_OUTER_BOUND('',#110,.T.);
#73=FACE_OUTER_BOUND('',#111,.T.);
#74=FACE_OUTER_BOUND('',#112,.T.);
#75=FACE_OUTER_BOUND('',#113,.T.);
#76=EDGE_LOOP('',(#422,#423,#424,#425,#426,#427));
#77=EDGE_LOOP('',(#428,#429,#430,#431,#432,#433));
#78=EDGE_LOOP('',(#434,#435,#436,#437,#438,#439,#440,#441));
#79=EDGE_LOOP('',(#442));
#80=EDGE_LOOP('',(#443));
#81=EDGE_LOOP('',(#444,#445,#446,#447,#448,#449,#450));
#82=EDGE_LOOP('',(#451,#452,#453,#454,#455,#456,#457));
#83=EDGE_LOOP('',(#458,#459,#460,#461,#462,#463,#464));
#84=EDGE_LOOP('',(#465,#466,#467,#468,#469,#470,#471,#472));
#85=EDGE_LOOP('',(#473));
#86=EDGE_LOOP('',(#474));
#87=EDGE_LOOP('',(#475,#476,#477,#478,#479,#480,#481,#482));
#88=EDGE_LOOP('',(#483,#484,#485,#486,#487,#488,#489));
#89=EDGE_LOOP('',(#490,#491,#492,#493));
#90=EDGE_LOOP('',(#494,#495,#496,#497));
#91=EDGE_LOOP('',(#498,#499,#500,#501));
#92=EDGE_LOOP('',(#502,#503,#504,#505));
#93=EDGE_LOOP('',(#506,#507,#508,#509,#510,#511));
#94=EDGE_LOOP('',(#512,#513,#514,#515));
#95=EDGE_LOOP('',(#516,#517,#518,#519));
#96=EDGE_LOOP('',(#520,#521,#522,#523));
#97=EDGE_LOOP('',(#524,#525,#526,#527,#528,#529));
#98=EDGE_LOOP('',(#530,#531,#532,#533));
#99=EDGE_LOOP('',(#534,#535,#536,#537));
#100=EDGE_LOOP('',(#538,#539,#540,#541,#542,#543,#544));
#101=EDGE_LOOP('',(#545,#546,#547,#548));
#102=EDGE_LOOP('',(#549,#550,#551,#552,#553,#554,#555));
#103=EDGE_LOOP('',(#556,#557,#558,#559));
#104=EDGE_LOOP('',(#560,#561,#562,#563));
#105=EDGE_LOOP('',(#564,#565,#566,#567,#568,#569,#570));
#106=EDGE_LOOP('',(#571,#572,#573,#574,#575,#576,#577));
#107=EDGE_LOOP('',(#578,#579,#580,#581));
#108=EDGE_LOOP('',(#582,#583,#584,#585));
#109=EDGE_LOOP('',(#586,#587,#588,#589));
#110=EDGE_LOOP('',(#590,#591,#592,#593));
#111=EDGE_LOOP('',(#594,#595,#596,#597));
#112=EDGE_LOOP('',(#598,#599,#600,#601));
#113=EDGE_LOOP('',(#602,#603,#604,#605));
#114=ELLIPSE('',#683,11.1298628797838,6.21447434801097);
#115=ELLIPSE('',#685,11.129854167611,6.21444374860934);
#116=ELLIPSE('',#724,10.5924285961915,5.42740109141004);
#117=ELLIPSE('',#725,10.5924552994373,5.42744586391509);
#118=LINE('',#902,#194);
#119=LINE('',#906,#195);
#120=LINE('',#908,#196);
#121=LINE('',#910,#197);
#122=LINE('',#911,#198);
#123=LINE('',#915,#199);
#124=LINE('',#919,#200);
#125=LINE('',#921,#201);
#126=LINE('',#923,#202);
#127=LINE('',#924,#203);
#128=LINE('',#942,#204);
#129=LINE('',#944,#205);
#130=LINE('',#945,#206);
#131=LINE('',#965,#207);
#132=LINE('',#967,#208);
#133=LINE('',#969,#209);
#134=LINE('',#970,#210);
#135=LINE('',#971,#211);
#136=LINE('',#975,#212);
#137=LINE('',#976,#213);
#138=LINE('',#978,#214);
#139=LINE('',#980,#215);
#140=LINE('',#981,#216);
#141=LINE('',#985,#217);
#142=LINE('',#987,#218);
#143=LINE('',#988,#219);
#144=LINE('',#990,#220);
#145=LINE('',#991,#221);
#146=LINE('',#1025,#222);
#147=LINE('',#1026,#223);
#148=LINE('',#1033,#224);
#149=LINE('',#1035,#225);
#150=LINE('',#1036,#226);
#151=LINE('',#1037,#227);
#152=LINE('',#1040,#228);
#153=LINE('',#1042,#229);
#154=LINE('',#1044,#230);
#155=LINE('',#1045,#231);
#156=LINE('',#1048,#232);
#157=LINE('',#1049,#233);
#158=LINE('',#1051,#234);
#159=LINE('',#1054,#235);
#160=LINE('',#1055,#236);
#161=LINE('',#1058,#237);
#162=LINE('',#1059,#238);
#163=LINE('',#1061,#239);
#164=LINE('',#1062,#240);
#165=LINE('',#1068,#241);
#166=LINE('',#1070,#242);
#167=LINE('',#1072,#243);
#168=LINE('',#1073,#244);
#169=LINE('',#1076,#245);
#170=LINE('',#1078,#246);
#171=LINE('',#1080,#247);
#172=LINE('',#1082,#248);
#173=LINE('',#1083,#249);
#174=LINE('',#1086,#250);
#175=LINE('',#1088,#251);
#176=LINE('',#1089,#252);
#177=LINE('',#1092,#253);
#178=LINE('',#1093,#254);
#179=LINE('',#1095,#255);
#180=LINE('',#1096,#256);
#181=LINE('',#1099,#257);
#182=LINE('',#1100,#258);
#183=LINE('',#1103,#259);
#184=LINE('',#1105,#260);
#185=LINE('',#1107,#261);
#186=LINE('',#1108,#262);
#187=LINE('',#1110,#263);
#188=LINE('',#1111,#264);
#189=LINE('',#1113,#265);
#190=LINE('',#1118,#266);
#191=LINE('',#1122,#267);
#192=LINE('',#1125,#268);
#193=LINE('',#1127,#269);
#194=VECTOR('',#733,1000.);
#195=VECTOR('',#736,1000.);
#196=VECTOR('',#737,1000.);
#197=VECTOR('',#738,1000.);
#198=VECTOR('',#739,1000.);
#199=VECTOR('',#742,1000.);
#200=VECTOR('',#745,1000.);
#201=VECTOR('',#746,1000.);
#202=VECTOR('',#747,1000.);
#203=VECTOR('',#748,1000.);
#204=VECTOR('',#753,1000.);
#205=VECTOR('',#754,1000.);
#206=VECTOR('',#755,1000.);
#207=VECTOR('',#762,1000.);
#208=VECTOR('',#763,1000.);
#209=VECTOR('',#764,1000.);
#210=VECTOR('',#765,1000.);
#211=VECTOR('',#766,1000.);
#212=VECTOR('',#769,1000.);
#213=VECTOR('',#770,1000.);
#214=VECTOR('',#771,1000.);
#215=VECTOR('',#772,1000.);
#216=VECTOR('',#773,1000.);
#217=VECTOR('',#776,1000.);
#218=VECTOR('',#777,1000.);
#219=VECTOR('',#778,1000.);
#220=VECTOR('',#779,1000.);
#221=VECTOR('',#780,1000.);
#222=VECTOR('',#785,1000.);
#223=VECTOR('',#786,1000.);
#224=VECTOR('',#793,1000.);
#225=VECTOR('',#794,1000.);
#226=VECTOR('',#795,1000.);
#227=VECTOR('',#796,1000.);
#228=VECTOR('',#799,1000.);
#229=VECTOR('',#800,1000.);
#230=VECTOR('',#801,1000.);
#231=VECTOR('',#802,1000.);
#232=VECTOR('',#805,1000.);
#233=VECTOR('',#806,1000.);
#234=VECTOR('',#809,1000.);
#235=VECTOR('',#812,1000.);
#236=VECTOR('',#813,1000.);
#237=VECTOR('',#816,1000.);
#238=VECTOR('',#817,1000.);
#239=VECTOR('',#820,1000.);
#240=VECTOR('',#821,1000.);
#241=VECTOR('',#828,1000.);
#242=VECTOR('',#829,1000.);
#243=VECTOR('',#830,1000.);
#244=VECTOR('',#831,1000.);
#245=VECTOR('',#834,1000.);
#246=VECTOR('',#835,1000.);
#247=VECTOR('',#836,1000.);
#248=VECTOR('',#837,1000.);
#249=VECTOR('',#838,1000.);
#250=VECTOR('',#841,1000.);
#251=VECTOR('',#842,1000.);
#252=VECTOR('',#843,1000.);
#253=VECTOR('',#846,1000.);
#254=VECTOR('',#847,1000.);
#255=VECTOR('',#850,1000.);
#256=VECTOR('',#851,1000.);
#257=VECTOR('',#854,1000.);
#258=VECTOR('',#855,1000.);
#259=VECTOR('',#858,1000.);
#260=VECTOR('',#859,1000.);
#261=VECTOR('',#860,999.999999999999);
#262=VECTOR('',#861,1000.);
#263=VECTOR('',#864,1000.);
#264=VECTOR('',#865,1000.);
#265=VECTOR('',#868,1000.);
#266=VECTOR('',#875,1.6);
#267=VECTOR('',#880,1.6);
#268=VECTOR('',#885,3.10000000000005);
#269=VECTOR('',#888,3.09999999999999);
#270=VERTEX_POINT('',#900);
#271=VERTEX_POINT('',#901);
#272=VERTEX_POINT('',#903);
#273=VERTEX_POINT('',#905);
#274=VERTEX_POINT('',#907);
#275=VERTEX_POINT('',#909);
#276=VERTEX_POINT('',#913);
#277=VERTEX_POINT('',#914);
#278=VERTEX_POINT('',#916);
#279=VERTEX_POINT('',#918);
#280=VERTEX_POINT('',#920);
#281=VERTEX_POINT('',#922);
#282=VERTEX_POINT('',#926);
#283=VERTEX_POINT('',#927);
#284=VERTEX_POINT('',#941);
#285=VERTEX_POINT('',#943);
#286=VERTEX_POINT('',#958);
#287=VERTEX_POINT('',#960);
#288=VERTEX_POINT('',#963);
#289=VERTEX_POINT('',#964);
#290=VERTEX_POINT('',#966);
#291=VERTEX_POINT('',#968);
#292=VERTEX_POINT('',#973);
#293=VERTEX_POINT('',#974);
#294=VERTEX_POINT('',#977);
#295=VERTEX_POINT('',#979);
#296=VERTEX_POINT('',#983);
#297=VERTEX_POINT('',#984);
#298=VERTEX_POINT('',#986);
#299=VERTEX_POINT('',#989);
#300=VERTEX_POINT('',#993);
#301=VERTEX_POINT('',#1008);
#302=VERTEX_POINT('',#1024);
#303=VERTEX_POINT('',#1027);
#304=VERTEX_POINT('',#1029);
#305=VERTEX_POINT('',#1032);
#306=VERTEX_POINT('',#1034);
#307=VERTEX_POINT('',#1039);
#308=VERTEX_POINT('',#1041);
#309=VERTEX_POINT('',#1043);
#310=VERTEX_POINT('',#1047);
#311=VERTEX_POINT('',#1053);
#312=VERTEX_POINT('',#1057);
#313=VERTEX_POINT('',#1066);
#314=VERTEX_POINT('',#1067);
#315=VERTEX_POINT('',#1069);
#316=VERTEX_POINT('',#1071);
#317=VERTEX_POINT('',#1075);
#318=VERTEX_POINT('',#1077);
#319=VERTEX_POINT('',#1079);
#320=VERTEX_POINT('',#1081);
#321=VERTEX_POINT('',#1085);
#322=VERTEX_POINT('',#1087);
#323=VERTEX_POINT('',#1091);
#324=VERTEX_POINT('',#1098);
#325=VERTEX_POINT('',#1102);
#326=VERTEX_POINT('',#1104);
#327=VERTEX_POINT('',#1106);
#328=VERTEX_POINT('',#1117);
#329=VERTEX_POINT('',#1121);
#330=EDGE_CURVE('',#270,#271,#118,.T.);
#331=EDGE_CURVE('',#270,#272,#114,.T.);
#332=EDGE_CURVE('',#273,#272,#119,.T.);
#333=EDGE_CURVE('',#274,#273,#120,.T.);
#334=EDGE_CURVE('',#274,#275,#121,.T.);
#335=EDGE_CURVE('',#271,#275,#122,.T.);
#336=EDGE_CURVE('',#276,#277,#123,.T.);
#337=EDGE_CURVE('',#276,#278,#115,.T.);
#338=EDGE_CURVE('',#279,#278,#124,.T.);
#339=EDGE_CURVE('',#280,#279,#125,.T.);
#340=EDGE_CURVE('',#280,#281,#126,.T.);
#341=EDGE_CURVE('',#277,#281,#127,.T.);
#342=EDGE_CURVE('',#282,#283,#34,.T.);
#343=EDGE_CURVE('',#282,#276,#30,.T.);
#344=EDGE_CURVE('',#277,#284,#128,.T.);
#345=EDGE_CURVE('',#285,#284,#129,.T.);
#346=EDGE_CURVE('',#285,#273,#130,.T.);
#347=EDGE_CURVE('',#272,#283,#31,.T.);
#348=EDGE_CURVE('',#286,#286,#35,.T.);
#349=EDGE_CURVE('',#287,#287,#36,.T.);
#350=EDGE_CURVE('',#288,#289,#131,.T.);
#351=EDGE_CURVE('',#290,#289,#132,.T.);
#352=EDGE_CURVE('',#291,#290,#133,.T.);
#353=EDGE_CURVE('',#291,#274,#134,.T.);
#354=EDGE_CURVE('',#288,#285,#135,.T.);
#355=EDGE_CURVE('',#292,#293,#136,.T.);
#356=EDGE_CURVE('',#275,#292,#137,.T.);
#357=EDGE_CURVE('',#294,#291,#138,.T.);
#358=EDGE_CURVE('',#295,#294,#139,.T.);
#359=EDGE_CURVE('',#293,#295,#140,.T.);
#360=EDGE_CURVE('',#296,#297,#141,.T.);
#361=EDGE_CURVE('',#297,#298,#142,.T.);
#362=EDGE_CURVE('',#298,#271,#143,.T.);
#363=EDGE_CURVE('',#299,#292,#144,.T.);
#364=EDGE_CURVE('',#296,#299,#145,.T.);
#365=EDGE_CURVE('',#278,#300,#32,.T.);
#366=EDGE_CURVE('',#301,#300,#37,.T.);
#367=EDGE_CURVE('',#301,#270,#33,.T.);
#368=EDGE_CURVE('',#302,#298,#146,.T.);
#369=EDGE_CURVE('',#279,#302,#147,.T.);
#370=EDGE_CURVE('',#303,#303,#38,.T.);
#371=EDGE_CURVE('',#304,#304,#39,.T.);
#372=EDGE_CURVE('',#284,#305,#148,.T.);
#373=EDGE_CURVE('',#305,#306,#149,.T.);
#374=EDGE_CURVE('',#302,#306,#150,.T.);
#375=EDGE_CURVE('',#297,#288,#151,.T.);
#376=EDGE_CURVE('',#289,#307,#152,.T.);
#377=EDGE_CURVE('',#308,#296,#153,.T.);
#378=EDGE_CURVE('',#309,#308,#154,.T.);
#379=EDGE_CURVE('',#307,#309,#155,.T.);
#380=EDGE_CURVE('',#310,#307,#156,.T.);
#381=EDGE_CURVE('',#290,#310,#157,.T.);
#382=EDGE_CURVE('',#294,#310,#158,.T.);
#383=EDGE_CURVE('',#299,#311,#159,.T.);
#384=EDGE_CURVE('',#311,#293,#160,.T.);
#385=EDGE_CURVE('',#295,#312,#161,.T.);
#386=EDGE_CURVE('',#312,#310,#162,.T.);
#387=EDGE_CURVE('',#308,#311,#163,.T.);
#388=EDGE_CURVE('',#309,#312,#164,.T.);
#389=EDGE_CURVE('',#313,#314,#165,.T.);
#390=EDGE_CURVE('',#314,#315,#166,.T.);
#391=EDGE_CURVE('',#315,#316,#167,.T.);
#392=EDGE_CURVE('',#316,#313,#168,.T.);
#393=EDGE_CURVE('',#314,#317,#169,.T.);
#394=EDGE_CURVE('',#317,#318,#170,.T.);
#395=EDGE_CURVE('',#318,#319,#171,.T.);
#396=EDGE_CURVE('',#319,#320,#172,.T.);
#397=EDGE_CURVE('',#320,#315,#173,.T.);
#398=EDGE_CURVE('',#317,#321,#174,.T.);
#399=EDGE_CURVE('',#321,#322,#175,.T.);
#400=EDGE_CURVE('',#322,#318,#176,.T.);
#401=EDGE_CURVE('',#320,#323,#177,.T.);
#402=EDGE_CURVE('',#323,#316,#178,.T.);
#403=EDGE_CURVE('',#323,#280,#179,.T.);
#404=EDGE_CURVE('',#306,#313,#180,.T.);
#405=EDGE_CURVE('',#322,#324,#181,.T.);
#406=EDGE_CURVE('',#324,#319,#182,.T.);
#407=EDGE_CURVE('',#281,#325,#183,.T.);
#408=EDGE_CURVE('',#325,#326,#184,.T.);
#409=EDGE_CURVE('',#326,#327,#185,.T.);
#410=EDGE_CURVE('',#327,#305,#186,.T.);
#411=EDGE_CURVE('',#322,#326,#187,.T.);
#412=EDGE_CURVE('',#325,#324,#188,.T.);
#413=EDGE_CURVE('',#321,#327,#189,.T.);
#414=EDGE_CURVE('',#287,#328,#190,.T.);
#415=EDGE_CURVE('',#328,#328,#40,.T.);
#416=EDGE_CURVE('',#286,#329,#191,.T.);
#417=EDGE_CURVE('',#329,#329,#41,.T.);
#418=EDGE_CURVE('',#329,#303,#192,.T.);
#419=EDGE_CURVE('',#328,#304,#193,.T.);
#420=EDGE_CURVE('',#300,#282,#116,.T.);
#421=EDGE_CURVE('',#283,#301,#117,.T.);
#422=ORIENTED_EDGE('',*,*,#330,.F.);
#423=ORIENTED_EDGE('',*,*,#331,.T.);
#424=ORIENTED_EDGE('',*,*,#332,.F.);
#425=ORIENTED_EDGE('',*,*,#333,.F.);
#426=ORIENTED_EDGE('',*,*,#334,.T.);
#427=ORIENTED_EDGE('',*,*,#335,.F.);
#428=ORIENTED_EDGE('',*,*,#336,.F.);
#429=ORIENTED_EDGE('',*,*,#337,.T.);
#430=ORIENTED_EDGE('',*,*,#338,.F.);
#431=ORIENTED_EDGE('',*,*,#339,.F.);
#432=ORIENTED_EDGE('',*,*,#340,.T.);
#433=ORIENTED_EDGE('',*,*,#341,.F.);
#434=ORIENTED_EDGE('',*,*,#342,.F.);
#435=ORIENTED_EDGE('',*,*,#343,.T.);
#436=ORIENTED_EDGE('',*,*,#336,.T.);
#437=ORIENTED_EDGE('',*,*,#344,.T.);
#438=ORIENTED_EDGE('',*,*,#345,.F.);
#439=ORIENTED_EDGE('',*,*,#346,.T.);
#440=ORIENTED_EDGE('',*,*,#332,.T.);
#441=ORIENTED_EDGE('',*,*,#347,.T.);
#442=ORIENTED_EDGE('',*,*,#348,.F.);
#443=ORIENTED_EDGE('',*,*,#349,.F.);
#444=ORIENTED_EDGE('',*,*,#350,.T.);
#445=ORIENTED_EDGE('',*,*,#351,.F.);
#446=ORIENTED_EDGE('',*,*,#352,.F.);
#447=ORIENTED_EDGE('',*,*,#353,.T.);
#448=ORIENTED_EDGE('',*,*,#333,.T.);
#449=ORIENTED_EDGE('',*,*,#346,.F.);
#450=ORIENTED_EDGE('',*,*,#354,.F.);
#451=ORIENTED_EDGE('',*,*,#355,.F.);
#452=ORIENTED_EDGE('',*,*,#356,.F.);
#453=ORIENTED_EDGE('',*,*,#334,.F.);
#454=ORIENTED_EDGE('',*,*,#353,.F.);
#455=ORIENTED_EDGE('',*,*,#357,.F.);
#456=ORIENTED_EDGE('',*,*,#358,.F.);
#457=ORIENTED_EDGE('',*,*,#359,.F.);
#458=ORIENTED_EDGE('',*,*,#360,.T.);
#459=ORIENTED_EDGE('',*,*,#361,.T.);
#460=ORIENTED_EDGE('',*,*,#362,.T.);
#461=ORIENTED_EDGE('',*,*,#335,.T.);
#462=ORIENTED_EDGE('',*,*,#356,.T.);
#463=ORIENTED_EDGE('',*,*,#363,.F.);
#464=ORIENTED_EDGE('',*,*,#364,.F.);
#465=ORIENTED_EDGE('',*,*,#338,.T.);
#466=ORIENTED_EDGE('',*,*,#365,.T.);
#467=ORIENTED_EDGE('',*,*,#366,.F.);
#468=ORIENTED_EDGE('',*,*,#367,.T.);
#469=ORIENTED_EDGE('',*,*,#330,.T.);
#470=ORIENTED_EDGE('',*,*,#362,.F.);
#471=ORIENTED_EDGE('',*,*,#368,.F.);
#472=ORIENTED_EDGE('',*,*,#369,.F.);
#473=ORIENTED_EDGE('',*,*,#370,.T.);
#474=ORIENTED_EDGE('',*,*,#371,.T.);
#475=ORIENTED_EDGE('',*,*,#354,.T.);
#476=ORIENTED_EDGE('',*,*,#345,.T.);
#477=ORIENTED_EDGE('',*,*,#372,.T.);
#478=ORIENTED_EDGE('',*,*,#373,.T.);
#479=ORIENTED_EDGE('',*,*,#374,.F.);
#480=ORIENTED_EDGE('',*,*,#368,.T.);
#481=ORIENTED_EDGE('',*,*,#361,.F.);
#482=ORIENTED_EDGE('',*,*,#375,.T.);
#483=ORIENTED_EDGE('',*,*,#376,.F.);
#484=ORIENTED_EDGE('',*,*,#350,.F.);
#485=ORIENTED_EDGE('',*,*,#375,.F.);
#486=ORIENTED_EDGE('',*,*,#360,.F.);
#487=ORIENTED_EDGE('',*,*,#377,.F.);
#488=ORIENTED_EDGE('',*,*,#378,.F.);
#489=ORIENTED_EDGE('',*,*,#379,.F.);
#490=ORIENTED_EDGE('',*,*,#380,.F.);
#491=ORIENTED_EDGE('',*,*,#381,.F.);
#492=ORIENTED_EDGE('',*,*,#351,.T.);
#493=ORIENTED_EDGE('',*,*,#376,.T.);
#494=ORIENTED_EDGE('',*,*,#382,.F.);
#495=ORIENTED_EDGE('',*,*,#357,.T.);
#496=ORIENTED_EDGE('',*,*,#352,.T.);
#497=ORIENTED_EDGE('',*,*,#381,.T.);
#498=ORIENTED_EDGE('',*,*,#383,.F.);
#499=ORIENTED_EDGE('',*,*,#363,.T.);
#500=ORIENTED_EDGE('',*,*,#355,.T.);
#501=ORIENTED_EDGE('',*,*,#384,.F.);
#502=ORIENTED_EDGE('',*,*,#385,.F.);
#503=ORIENTED_EDGE('',*,*,#358,.T.);
#504=ORIENTED_EDGE('',*,*,#382,.T.);
#505=ORIENTED_EDGE('',*,*,#386,.F.);
#506=ORIENTED_EDGE('',*,*,#378,.T.);
#507=ORIENTED_EDGE('',*,*,#387,.T.);
#508=ORIENTED_EDGE('',*,*,#384,.T.);
#509=ORIENTED_EDGE('',*,*,#359,.T.);
#510=ORIENTED_EDGE('',*,*,#385,.T.);
#511=ORIENTED_EDGE('',*,*,#388,.F.);
#512=ORIENTED_EDGE('',*,*,#377,.T.);
#513=ORIENTED_EDGE('',*,*,#364,.T.);
#514=ORIENTED_EDGE('',*,*,#383,.T.);
#515=ORIENTED_EDGE('',*,*,#387,.F.);
#516=ORIENTED_EDGE('',*,*,#379,.T.);
#517=ORIENTED_EDGE('',*,*,#388,.T.);
#518=ORIENTED_EDGE('',*,*,#386,.T.);
#519=ORIENTED_EDGE('',*,*,#380,.T.);
#520=ORIENTED_EDGE('',*,*,#389,.T.);
#521=ORIENTED_EDGE('',*,*,#390,.T.);
#522=ORIENTED_EDGE('',*,*,#391,.T.);
#523=ORIENTED_EDGE('',*,*,#392,.T.);
#524=ORIENTED_EDGE('',*,*,#393,.T.);
#525=ORIENTED_EDGE('',*,*,#394,.T.);
#526=ORIENTED_EDGE('',*,*,#395,.T.);
#527=ORIENTED_EDGE('',*,*,#396,.T.);
#528=ORIENTED_EDGE('',*,*,#397,.T.);
#529=ORIENTED_EDGE('',*,*,#390,.F.);
#530=ORIENTED_EDGE('',*,*,#398,.T.);
#531=ORIENTED_EDGE('',*,*,#399,.T.);
#532=ORIENTED_EDGE('',*,*,#400,.T.);
#533=ORIENTED_EDGE('',*,*,#394,.F.);
#534=ORIENTED_EDGE('',*,*,#397,.F.);
#535=ORIENTED_EDGE('',*,*,#401,.T.);
#536=ORIENTED_EDGE('',*,*,#402,.T.);
#537=ORIENTED_EDGE('',*,*,#391,.F.);
#538=ORIENTED_EDGE('',*,*,#392,.F.);
#539=ORIENTED_EDGE('',*,*,#402,.F.);
#540=ORIENTED_EDGE('',*,*,#403,.T.);
#541=ORIENTED_EDGE('',*,*,#339,.T.);
#542=ORIENTED_EDGE('',*,*,#369,.T.);
#543=ORIENTED_EDGE('',*,*,#374,.T.);
#544=ORIENTED_EDGE('',*,*,#404,.T.);
#545=ORIENTED_EDGE('',*,*,#400,.F.);
#546=ORIENTED_EDGE('',*,*,#405,.T.);
#547=ORIENTED_EDGE('',*,*,#406,.T.);
#548=ORIENTED_EDGE('',*,*,#395,.F.);
#549=ORIENTED_EDGE('',*,*,#344,.F.);
#550=ORIENTED_EDGE('',*,*,#341,.T.);
#551=ORIENTED_EDGE('',*,*,#407,.T.);
#552=ORIENTED_EDGE('',*,*,#408,.T.);
#553=ORIENTED_EDGE('',*,*,#409,.T.);
#554=ORIENTED_EDGE('',*,*,#410,.T.);
#555=ORIENTED_EDGE('',*,*,#372,.F.);
#556=ORIENTED_EDGE('',*,*,#411,.T.);
#557=ORIENTED_EDGE('',*,*,#408,.F.);
#558=ORIENTED_EDGE('',*,*,#412,.T.);
#559=ORIENTED_EDGE('',*,*,#405,.F.);
#560=ORIENTED_EDGE('',*,*,#413,.T.);
#561=ORIENTED_EDGE('',*,*,#409,.F.);
#562=ORIENTED_EDGE('',*,*,#411,.F.);
#563=ORIENTED_EDGE('',*,*,#399,.F.);
#564=ORIENTED_EDGE('',*,*,#406,.F.);
#565=ORIENTED_EDGE('',*,*,#412,.F.);
#566=ORIENTED_EDGE('',*,*,#407,.F.);
#567=ORIENTED_EDGE('',*,*,#340,.F.);
#568=ORIENTED_EDGE('',*,*,#403,.F.);
#569=ORIENTED_EDGE('',*,*,#401,.F.);
#570=ORIENTED_EDGE('',*,*,#396,.F.);
#571=ORIENTED_EDGE('',*,*,#404,.F.);
#572=ORIENTED_EDGE('',*,*,#373,.F.);
#573=ORIENTED_EDGE('',*,*,#410,.F.);
#574=ORIENTED_EDGE('',*,*,#413,.F.);
#575=ORIENTED_EDGE('',*,*,#398,.F.);
#576=ORIENTED_EDGE('',*,*,#393,.F.);
#577=ORIENTED_EDGE('',*,*,#389,.F.);
#578=ORIENTED_EDGE('',*,*,#349,.T.);
#579=ORIENTED_EDGE('',*,*,#414,.T.);
#580=ORIENTED_EDGE('',*,*,#415,.T.);
#581=ORIENTED_EDGE('',*,*,#414,.F.);
#582=ORIENTED_EDGE('',*,*,#348,.T.);
#583=ORIENTED_EDGE('',*,*,#416,.T.);
#584=ORIENTED_EDGE('',*,*,#417,.T.);
#585=ORIENTED_EDGE('',*,*,#416,.F.);
#586=ORIENTED_EDGE('',*,*,#417,.F.);
#587=ORIENTED_EDGE('',*,*,#418,.T.);
#588=ORIENTED_EDGE('',*,*,#370,.F.);
#589=ORIENTED_EDGE('',*,*,#418,.F.);
#590=ORIENTED_EDGE('',*,*,#415,.F.);
#591=ORIENTED_EDGE('',*,*,#419,.T.);
#592=ORIENTED_EDGE('',*,*,#371,.F.);
#593=ORIENTED_EDGE('',*,*,#419,.F.);
#594=ORIENTED_EDGE('',*,*,#366,.T.);
#595=ORIENTED_EDGE('',*,*,#420,.T.);
#596=ORIENTED_EDGE('',*,*,#342,.T.);
#597=ORIENTED_EDGE('',*,*,#421,.T.);
#598=ORIENTED_EDGE('',*,*,#343,.F.);
#599=ORIENTED_EDGE('',*,*,#420,.F.);
#600=ORIENTED_EDGE('',*,*,#365,.F.);
#601=ORIENTED_EDGE('',*,*,#337,.F.);
#602=ORIENTED_EDGE('',*,*,#367,.F.);
#603=ORIENTED_EDGE('',*,*,#421,.F.);
#604=ORIENTED_EDGE('',*,*,#347,.F.);
#605=ORIENTED_EDGE('',*,*,#331,.F.);
#606=PLANE('',#682);
#607=PLANE('',#684);
#608=PLANE('',#686);
#609=PLANE('',#690);
#610=PLANE('',#691);
#611=PLANE('',#692);
#612=PLANE('',#693);
#613=PLANE('',#697);
#614=PLANE('',#698);
#615=PLANE('',#699);
#616=PLANE('',#700);
#617=PLANE('',#701);
#618=PLANE('',#702);
#619=PLANE('',#703);
#620=PLANE('',#704);
#621=PLANE('',#705);
#622=PLANE('',#706);
#623=PLANE('',#707);
#624=PLANE('',#708);
#625=PLANE('',#709);
#626=PLANE('',#710);
#627=PLANE('',#711);
#628=PLANE('',#712);
#629=PLANE('',#713);
#630=PLANE('',#714);
#631=PLANE('',#715);
#632=PLANE('',#716);
#633=ADVANCED_FACE('',(#42),#606,.F.);
#634=ADVANCED_FACE('',(#43),#607,.F.);
#635=ADVANCED_FACE('',(#44,#26,#27),#608,.T.);
#636=ADVANCED_FACE('',(#45),#609,.F.);
#637=ADVANCED_FACE('',(#46),#610,.F.);
#638=ADVANCED_FACE('',(#47),#611,.T.);
#639=ADVANCED_FACE('',(#48,#28,#29),#612,.F.);
#640=ADVANCED_FACE('',(#49),#613,.F.);
#641=ADVANCED_FACE('',(#50),#614,.F.);
#642=ADVANCED_FACE('',(#51),#615,.T.);
#643=ADVANCED_FACE('',(#52),#616,.T.);
#644=ADVANCED_FACE('',(#53),#617,.F.);
#645=ADVANCED_FACE('',(#54),#618,.T.);
#646=ADVANCED_FACE('',(#55),#619,.T.);
#647=ADVANCED_FACE('',(#56),#620,.F.);
#648=ADVANCED_FACE('',(#57),#621,.T.);
#649=ADVANCED_FACE('',(#58),#622,.F.);
#650=ADVANCED_FACE('',(#59),#623,.F.);
#651=ADVANCED_FACE('',(#60),#624,.T.);
#652=ADVANCED_FACE('',(#61),#625,.F.);
#653=ADVANCED_FACE('',(#62),#626,.F.);
#654=ADVANCED_FACE('',(#63),#627,.T.);
#655=ADVANCED_FACE('',(#64),#628,.T.);
#656=ADVANCED_FACE('',(#65),#629,.T.);
#657=ADVANCED_FACE('',(#66),#630,.T.);
#658=ADVANCED_FACE('',(#67),#631,.T.);
#659=ADVANCED_FACE('',(#68),#632,.F.);
#660=ADVANCED_FACE('',(#69),#23,.F.);
#661=ADVANCED_FACE('',(#70),#24,.F.);
#662=ADVANCED_FACE('',(#71),#21,.F.);
#663=ADVANCED_FACE('',(#72),#22,.F.);
#664=ADVANCED_FACE('',(#73),#25,.F.);
#665=ADVANCED_FACE('',(#74),#19,.T.);
#666=ADVANCED_FACE('',(#75),#20,.T.);
#667=CLOSED_SHELL('',(#633,#634,#635,#636,#637,#638,#639,#640,#641,#642,
#643,#644,#645,#646,#647,#648,#649,#650,#651,#652,#653,#654,#655,#656,#657,
#658,#659,#660,#661,#662,#663,#664,#665,#666));
#668=DERIVED_UNIT_ELEMENT(#670,1.);
#669=DERIVED_UNIT_ELEMENT(#1163,-3.);
#670=(
MASS_UNIT()
NAMED_UNIT(*)
SI_UNIT(.KILO.,.GRAM.)
);
#671=DERIVED_UNIT((#668,#669));
#672=MEASURE_REPRESENTATION_ITEM('density measure',
POSITIVE_RATIO_MEASURE(7850.),#671);
#673=PROPERTY_DEFINITION_REPRESENTATION(#678,#675);
#674=PROPERTY_DEFINITION_REPRESENTATION(#679,#676);
#675=REPRESENTATION('material name',(#677),#1160);
#676=REPRESENTATION('density',(#672),#1160);
#677=DESCRIPTIVE_REPRESENTATION_ITEM('Steel','Steel');
#678=PROPERTY_DEFINITION('material property','material name',#1175);
#679=PROPERTY_DEFINITION('material property','density of part',#1175);
#680=AXIS2_PLACEMENT_3D('',#897,#727,#728);
#681=AXIS2_PLACEMENT_3D('',#898,#729,#730);
#682=AXIS2_PLACEMENT_3D('',#899,#731,#732);
#683=AXIS2_PLACEMENT_3D('',#904,#734,#735);
#684=AXIS2_PLACEMENT_3D('',#912,#740,#741);
#685=AXIS2_PLACEMENT_3D('',#917,#743,#744);
#686=AXIS2_PLACEMENT_3D('',#925,#749,#750);
#687=AXIS2_PLACEMENT_3D('',#928,#751,#752);
#688=AXIS2_PLACEMENT_3D('',#959,#756,#757);
#689=AXIS2_PLACEMENT_3D('',#961,#758,#759);
#690=AXIS2_PLACEMENT_3D('',#962,#760,#761);
#691=AXIS2_PLACEMENT_3D('',#972,#767,#768);
#692=AXIS2_PLACEMENT_3D('',#982,#774,#775);
#693=AXIS2_PLACEMENT_3D('',#992,#781,#782);
#694=AXIS2_PLACEMENT_3D('',#1009,#783,#784);
#695=AXIS2_PLACEMENT_3D('',#1028,#787,#788);
#696=AXIS2_PLACEMENT_3D('',#1030,#789,#790);
#697=AXIS2_PLACEMENT_3D('',#1031,#791,#792);
#698=AXIS2_PLACEMENT_3D('',#1038,#797,#798);
#699=AXIS2_PLACEMENT_3D('',#1046,#803,#804);
#700=AXIS2_PLACEMENT_3D('',#1050,#807,#808);
#701=AXIS2_PLACEMENT_3D('',#1052,#810,#811);
#702=AXIS2_PLACEMENT_3D('',#1056,#814,#815);
#703=AXIS2_PLACEMENT_3D('',#1060,#818,#819);
#704=AXIS2_PLACEMENT_3D('',#1063,#822,#823);
#705=AXIS2_PLACEMENT_3D('',#1064,#824,#825);
#706=AXIS2_PLACEMENT_3D('',#1065,#826,#827);
#707=AXIS2_PLACEMENT_3D('',#1074,#832,#833);
#708=AXIS2_PLACEMENT_3D('',#1084,#839,#840);
#709=AXIS2_PLACEMENT_3D('',#1090,#844,#845);
#710=AXIS2_PLACEMENT_3D('',#1094,#848,#849);
#711=AXIS2_PLACEMENT_3D('',#1097,#852,#853);
#712=AXIS2_PLACEMENT_3D('',#1101,#856,#857);
#713=AXIS2_PLACEMENT_3D('',#1109,#862,#863);
#714=AXIS2_PLACEMENT_3D('',#1112,#866,#867);
#715=AXIS2_PLACEMENT_3D('',#1114,#869,#870);
#716=AXIS2_PLACEMENT_3D('',#1115,#871,#872);
#717=AXIS2_PLACEMENT_3D('',#1116,#873,#874);
#718=AXIS2_PLACEMENT_3D('',#1119,#876,#877);
#719=AXIS2_PLACEMENT_3D('',#1120,#878,#879);
#720=AXIS2_PLACEMENT_3D('',#1123,#881,#882);
#721=AXIS2_PLACEMENT_3D('',#1124,#883,#884);
#722=AXIS2_PLACEMENT_3D('',#1126,#886,#887);
#723=AXIS2_PLACEMENT_3D('',#1128,#889,#890);
#724=AXIS2_PLACEMENT_3D('',#1129,#891,#892);
#725=AXIS2_PLACEMENT_3D('',#1130,#893,#894);
#726=AXIS2_PLACEMENT_3D('',#1155,#895,#896);
#727=DIRECTION('axis',(0.,0.,1.));
#728=DIRECTION('refdir',(1.,0.,0.));
#729=DIRECTION('axis',(0.,0.,1.));
#730=DIRECTION('refdir',(1.,0.,0.));
#731=DIRECTION('center_axis',(0.780868843235502,-3.39189715110477E-15,-0.624695005313832));
#732=DIRECTION('ref_axis',(-0.624695005313832,2.71351741997257E-15,-0.780868843235502));
#733=DIRECTION('',(4.34374758384592E-15,1.,0.));
#734=DIRECTION('center_axis',(0.780868843235486,9.7303832875716E-14,-0.624695005313853));
#735=DIRECTION('ref_axis',(-0.623235419781183,-0.0683190671881078,-0.779044361117336));
#736=DIRECTION('',(-4.34374758384592E-15,-1.,0.));
#737=DIRECTION('',(-0.568495321555328,-0.414527898050337,-0.710619230747152));
#738=DIRECTION('',(4.34374758384592E-15,1.,0.));
#739=DIRECTION('',(0.568495301583306,0.414527968237722,0.710619205782121));
#740=DIRECTION('center_axis',(0.780868843235502,-3.39189715110477E-15,-0.624695005313832));
#741=DIRECTION('ref_axis',(-0.624695005313832,2.71351741997257E-15,-0.780868843235502));
#742=DIRECTION('',(-4.34374758384592E-15,-1.,0.));
#743=DIRECTION('center_axis',(0.780868843235499,-2.27564211067665E-14,-0.624695005313836));
#744=DIRECTION('ref_axis',(-0.623235603099624,0.0683147817620974,-0.779044590265438));
#745=DIRECTION('',(4.34374758384592E-15,1.,0.));
#746=DIRECTION('',(-0.568495301583302,0.414527968237727,-0.710619205782121));
#747=DIRECTION('',(4.34374758384592E-15,1.,0.));
#748=DIRECTION('',(0.568495321555324,-0.414527898050342,0.710619230747152));
#749=DIRECTION('center_axis',(0.,0.,1.));
#750=DIRECTION('ref_axis',(4.34374758384592E-15,1.,0.));
#751=DIRECTION('center_axis',(0.,0.,1.));
#752=DIRECTION('ref_axis',(4.34374758384592E-15,1.,0.));
#753=DIRECTION('',(0.999999999999999,-4.29309554873087E-8,0.));
#754=DIRECTION('',(-4.34374758384592E-15,-1.,0.));
#755=DIRECTION('',(-0.999999999999999,-4.29309468037047E-8,0.));
#756=DIRECTION('center_axis',(0.,0.,1.));
#757=DIRECTION('ref_axis',(4.34374758384592E-15,1.,0.));
#758=DIRECTION('center_axis',(0.,0.,1.));
#759=DIRECTION('ref_axis',(4.34374758384592E-15,1.,0.));
#760=DIRECTION('center_axis',(-3.70828462935174E-8,0.863778906695753,-0.503871015585823));
#761=DIRECTION('ref_axis',(0.999999999999997,-4.3437476235506E-15,-7.35959181983125E-8));
#762=DIRECTION('',(0.0479325792629087,0.503291854338507,0.862786055289324));
#763=DIRECTION('',(0.983700283540624,0.0906040436315951,0.155321149363824));
#764=DIRECTION('',(0.890564307919126,-0.229189408919383,-0.392896205504344));
#765=DIRECTION('',(-2.18868850652091E-15,-0.503871015585823,-0.863778906695753));
#766=DIRECTION('',(-0.568496167565152,-0.414527603480857,-0.710618725770826));
#767=DIRECTION('center_axis',(1.,-4.34374758384592E-15,0.));
#768=DIRECTION('ref_axis',(0.,0.,-1.));
#769=DIRECTION('',(4.34315717725739E-15,0.99986407898315,-0.016487072486551));
#770=DIRECTION('',(2.18868878927626E-15,0.503871080680616,0.863778868723789));
#771=DIRECTION('',(-4.34374758384592E-15,-1.,-1.21751448954696E-15));
#772=DIRECTION('',(-3.75204727981892E-15,-0.863781149202248,0.503867171269219));
#773=DIRECTION('',(2.18868813019935E-15,0.503870928950597,0.863778957232962));
#774=DIRECTION('center_axis',(-5.67971471229282E-8,0.863778868723787,-0.503871080680615));
#775=DIRECTION('ref_axis',(0.999999999999994,-4.34374778898672E-15,-1.12721592988122E-7));
#776=DIRECTION('',(-0.0479325771341691,-0.503291920226185,-0.862786016973106));
#777=DIRECTION('',(-0.568496147593122,-0.414527673668236,-0.71061870080584));
#778=DIRECTION('',(-0.999999999999998,-6.57542678797466E-8,0.));
#779=DIRECTION('',(-0.890564415636082,0.229189317097141,0.392896014908919));
#780=DIRECTION('',(-0.983700284570616,-0.0906040692487531,-0.155321127897191));
#781=DIRECTION('center_axis',(0.,0.,1.));
#782=DIRECTION('ref_axis',(4.34374758384592E-15,1.,0.));
#783=DIRECTION('center_axis',(0.,0.,-1.));
#784=DIRECTION('ref_axis',(-4.34374758384592E-15,-1.,0.));
#785=DIRECTION('',(1.52706202364795E-11,1.,0.));
#786=DIRECTION('',(0.999999999999998,-6.57542765504194E-8,0.));
#787=DIRECTION('center_axis',(0.,0.,1.));
#788=DIRECTION('ref_axis',(4.34374758384592E-15,1.,0.));
#789=DIRECTION('center_axis',(0.,0.,1.));
#790=DIRECTION('ref_axis',(4.34374758384592E-15,1.,0.));
#791=DIRECTION('center_axis',(-0.780868173208777,1.19243413278248E-11,0.62469584284641));
#792=DIRECTION('ref_axis',(4.34374758385077E-15,1.,-1.90828057687508E-11));
#793=DIRECTION('',(0.568496167556582,-0.414527603483844,0.710618725775939));
#794=DIRECTION('',(-7.30647299746663E-7,-0.999999999999316,-9.13288129583482E-7));
#795=DIRECTION('',(0.568496147584552,-0.414527673671224,0.710618700810953));
#796=DIRECTION('',(7.30649569621319E-7,-0.999999999999316,9.13329143391762E-7));
#797=DIRECTION('center_axis',(-0.998460329950011,-6.78861842544835E-7,0.0554704382140084));
#798=DIRECTION('ref_axis',(4.34374716032945E-15,0.999999999925112,1.22382636353433E-5));
#799=DIRECTION('',(-6.85925616519536E-7,0.999999999999759,-1.08304081237147E-7));
#800=DIRECTION('',(0.00324023639075603,-0.998293172680181,0.058311596173236));
#801=DIRECTION('',(-0.0479325821007126,-0.503291766504215,-0.862786106368331));
#802=DIRECTION('',(-0.0282296028115503,0.860824436619391,-0.508118469300232));
#803=DIRECTION('center_axis',(-0.155962624381112,2.86864133303979E-16,0.987762957290946));
#804=DIRECTION('ref_axis',(1.83931332549903E-15,1.,1.4791141972894E-31));
#805=DIRECTION('',(0.983700300399399,0.0906038560301402,0.155321152025736));
#806=DIRECTION('',(5.71600016049401E-15,1.,6.12108652411666E-16));
#807=DIRECTION('center_axis',(0.403640367651849,-2.86723746536995E-15,0.91491773051017));
#808=DIRECTION('ref_axis',(-7.10344577785892E-15,-1.,-3.94430452610506E-31));
#809=DIRECTION('',(0.890564340295115,-0.229189258629468,-0.392896219787875));
#810=DIRECTION('center_axis',(0.406836327958249,0.0150609583338273,0.913376904562139));
#811=DIRECTION('ref_axis',(0.0369943578997397,-0.999315474454182,-4.16333634234434E-17));
#812=DIRECTION('',(0.0677764978774324,0.996610603597754,-0.0466224316396253));
#813=DIRECTION('',(-0.890564423797429,0.229189278048857,0.392896019188026));
#814=DIRECTION('center_axis',(0.454857291677291,0.448726134978508,0.769252689299979));
#815=DIRECTION('ref_axis',(0.702292626067894,-0.711888381258369,-2.4980018054066E-16));
#816=DIRECTION('',(0.890564340294914,-0.22918936042645,-0.392896160406792));
#817=DIRECTION('',(-2.51388629425974E-6,-0.863780502247561,0.503868280337859));
#818=DIRECTION('center_axis',(-7.37425044726463E-9,0.863778957232962,-0.503870928950597));
#819=DIRECTION('ref_axis',(1.,-4.34374756564795E-15,-1.46352047232822E-8));
#820=DIRECTION('',(-0.983700291781617,-0.0906039800937331,-0.15532113423464));
#821=DIRECTION('',(-0.983700300399351,-0.0906039563391567,-0.155321093512499));
#822=DIRECTION('center_axis',(-0.160831869130071,0.0570325300779039,0.985332634385486));
#823=DIRECTION('ref_axis',(0.334218078911828,0.942495769607741,1.87350135405495E-16));
#824=DIRECTION('center_axis',(-0.17981579183711,0.495655769191903,0.849700911775889));
#825=DIRECTION('ref_axis',(0.940050613545933,0.341034960043565,-8.32667268468867E-17));
#826=DIRECTION('center_axis',(-0.160831869130071,-0.0570325300779025,0.985332634385486));
#827=DIRECTION('ref_axis',(-0.33421807891182,0.942495769607744,-4.16333634234433E-17));
#828=DIRECTION('',(-0.00324023639076471,-0.998293172680181,-0.058311596173236));
#829=DIRECTION('',(-0.983700291781617,0.0906039800937417,-0.15532113423464));
#830=DIRECTION('',(-0.0677764978774238,0.996610603597754,0.0466224316396253));
#831=DIRECTION('',(0.983700284570616,-0.0906040692487615,0.155321127897191));
#832=DIRECTION('center_axis',(7.37425795134014E-9,0.863778957232962,0.503870928950597));
#833=DIRECTION('ref_axis',(1.,-4.34374759542645E-15,-1.46352047232822E-8));
#834=DIRECTION('',(0.0479325821007082,-0.503291766504215,0.862786106368331));
#835=DIRECTION('',(-0.98370030039935,0.0906039563391653,-0.155321093512499));
#836=DIRECTION('',(-0.890564340294916,-0.229189360426442,0.392896160406792));
#837=DIRECTION('',(2.18868813019935E-15,0.503870928950597,-0.863778957232962));
#838=DIRECTION('',(0.890564423797431,0.229189278048849,-0.392896019188026));
#839=DIRECTION('center_axis',(-0.179815791837114,-0.495655769191901,0.849700911775889));
#840=DIRECTION('ref_axis',(-0.94005061354593,0.341034960043573,1.11022302462516E-16));
#841=DIRECTION('',(0.0282296028115577,0.860824436619391,0.508118469300232));
#842=DIRECTION('',(-0.983700300399398,0.0906038560301488,-0.155321152025736));
#843=DIRECTION('',(2.51388628675566E-6,-0.863780502247561,-0.503868280337859));
#844=DIRECTION('center_axis',(0.406836327958249,-0.0150609583338309,0.913376904562139));
#845=DIRECTION('ref_axis',(-0.0369943578997484,-0.999315474454181,0.));
#846=DIRECTION('',(4.34315717725739E-15,0.99986407898315,0.016487072486551));
#847=DIRECTION('',(0.890564415636084,0.229189317097133,-0.392896014908919));
#848=DIRECTION('center_axis',(5.67971546124723E-8,0.863778868723788,0.503871080680615));
#849=DIRECTION('ref_axis',(0.999999999999994,-4.34374735223535E-15,-1.12721592959284E-7));
#850=DIRECTION('',(2.18868878927626E-15,0.503871080680616,-0.863778868723789));
#851=DIRECTION('',(0.0479325771341647,-0.503291920226185,0.862786016973106));
#852=DIRECTION('center_axis',(0.454857291677287,-0.448726134978512,0.769252689299979));
#853=DIRECTION('ref_axis',(-0.7022926260679,-0.711888381258363,2.77555756156289E-17));
#854=DIRECTION('',(-0.890564340295117,-0.22918925862946,0.392896219787875));
#855=DIRECTION('',(-3.75204727981892E-15,-0.863781149202248,-0.503867171269219));
#856=DIRECTION('center_axis',(3.70828537942315E-8,0.863778906695753,0.503871015585823));
#857=DIRECTION('ref_axis',(0.999999999999997,-4.34374754414126E-15,-7.35959181916422E-8));
#858=DIRECTION('',(-2.18868850652091E-15,-0.503871015585823,0.863778906695753));
#859=DIRECTION('',(0.890564307919128,0.229189408919375,-0.392896205504344));
#860=DIRECTION('',(0.983700283540624,-0.0906040436316038,0.155321149363824));
#861=DIRECTION('',(-0.0479325792629043,0.503291854338507,-0.862786055289324));
#862=DIRECTION('center_axis',(0.403640367651849,-6.39386278090847E-16,0.91491773051017));
#863=DIRECTION('ref_axis',(-1.58404938983292E-15,-1.,-9.86076131526265E-32));
#864=DIRECTION('',(2.97149500719783E-15,1.,-6.12108652411666E-16));
#865=DIRECTION('',(-4.34374758384592E-15,-1.,1.21751448954696E-15));
#866=DIRECTION('center_axis',(-0.155962624381112,1.06806041234747E-15,0.987762957290946));
#867=DIRECTION('ref_axis',(6.84818184219281E-15,1.,-1.18329135783152E-30));
#868=DIRECTION('',(6.85925625207031E-7,0.999999999999759,1.08304081237147E-7));
#869=DIRECTION('center_axis',(-1.,4.34374758384592E-15,0.));
#870=DIRECTION('ref_axis',(4.34374758384592E-15,1.,0.));
#871=DIRECTION('center_axis',(-0.998460329950011,6.78861851218955E-7,0.0554704382140084));
#872=DIRECTION('ref_axis',(4.34374874851622E-15,0.999999999925112,-1.22382636353433E-5));
#873=DIRECTION('center_axis',(0.,0.,-1.));
#874=DIRECTION('ref_axis',(-4.34374758384592E-15,-1.,0.));
#875=DIRECTION('',(0.,0.,-1.));
#876=DIRECTION('center_axis',(0.,0.,-1.));
#877=DIRECTION('ref_axis',(4.34374758384592E-15,1.,0.));
#878=DIRECTION('center_axis',(0.,0.,-1.));
#879=DIRECTION('ref_axis',(-4.34374758384592E-15,-1.,0.));
#880=DIRECTION('',(0.,0.,-1.));
#881=DIRECTION('center_axis',(0.,0.,-1.));
#882=DIRECTION('ref_axis',(4.34374758384592E-15,1.,0.));
#883=DIRECTION('center_axis',(0.,0.,-1.));
#884=DIRECTION('ref_axis',(-4.34374758384592E-15,-1.,0.));
#885=DIRECTION('',(3.15808897792369E-15,0.70710678118655,-0.707106781186545));
#886=DIRECTION('center_axis',(0.,0.,-1.));
#887=DIRECTION('ref_axis',(-4.34374758384592E-15,-1.,0.));
#888=DIRECTION('',(3.15808897792368E-15,0.707106781186547,-0.707106781186548));
#889=DIRECTION('center_axis',(0.,0.,-1.));
#890=DIRECTION('ref_axis',(1.,6.8775397076943E-9,0.));
#891=DIRECTION('center_axis',(-0.819231950390238,5.04346247833254E-11,0.573462301690187));
#892=DIRECTION('ref_axis',(0.57246402441072,-0.0589792258531812,0.817805839838065));
#893=DIRECTION('center_axis',(-0.819231950394475,-2.54992549521521E-11,
0.573462301684133));
#894=DIRECTION('ref_axis',(0.572463918977549,0.0589823374636639,0.817805689229531));
#895=DIRECTION('',(0.,0.,1.));
#896=DIRECTION('',(1.,0.,0.));
#897=CARTESIAN_POINT('',(0.,0.,0.));
#898=CARTESIAN_POINT('',(0.,0.,0.));
#899=CARTESIAN_POINT('Origin',(-104.103605508804,15.0000000000003,-124.357695579528));
#900=CARTESIAN_POINT('',(-106.303604120139,6.92560560178515,-127.107694148653));
#901=CARTESIAN_POINT('',(-106.30360411991,69.9999998361315,-127.10769414875));
#902=CARTESIAN_POINT('',(-106.30360412043,15.0000000000003,-127.107694149017));
#903=CARTESIAN_POINT('',(-103.90360286059,7.8373044422813,-124.107692241537));
#904=CARTESIAN_POINT('Origin',(-102.908808025662,1.75201581803666,-122.864198559982));
#905=CARTESIAN_POINT('',(-103.903602861221,68.2768913903895,-124.10769224194));
#906=CARTESIAN_POINT('',(-103.903602860695,14.9944390522112,-124.107692241668));
#907=CARTESIAN_POINT('',(-103.103606462479,68.860222181417,-123.107696633005));
#908=CARTESIAN_POINT('',(-103.680144556695,68.4398297607942,-123.828369330693));
#909=CARTESIAN_POINT('',(-103.103606462479,72.3333322728409,-123.107696633005));
#910=CARTESIAN_POINT('',(-103.103606462479,47.2740306173055,-123.107696633005));
#911=CARTESIAN_POINT('',(-105.155967845888,70.8368182436396,-125.673148646759));
#912=CARTESIAN_POINT('Origin',(-104.103605508804,15.0000000000003,-124.357695579528));
#913=CARTESIAN_POINT('',(-103.90360286059,-7.83730448272547,-124.107692241537));
#914=CARTESIAN_POINT('',(-103.903602861222,-68.2768913903889,-124.10769224194));
#915=CARTESIAN_POINT('',(-103.903602860695,14.9944390522112,-124.107692241668));
#916=CARTESIAN_POINT('',(-106.303604120142,-6.92560564805975,-127.107694148658));
#917=CARTESIAN_POINT('Origin',(-102.908771846944,-1.75205047052735,-122.86415333658));
#918=CARTESIAN_POINT('',(-106.303604119911,-69.9999998361309,-127.10769414875));
#919=CARTESIAN_POINT('',(-106.30360412043,15.0000000000003,-127.107694149017));
#920=CARTESIAN_POINT('',(-103.103606462479,-72.3333322728403,-123.107696633005));
#921=CARTESIAN_POINT('',(-105.155967845888,-70.836818243639,-125.673148646759));
#922=CARTESIAN_POINT('',(-103.103606462479,-68.8602221814164,-123.107696633005));
#923=CARTESIAN_POINT('',(-103.103606462479,-47.2740306173049,-123.107696633005));
#924=CARTESIAN_POINT('',(-103.680144556695,-68.4398297607936,-123.828369330693));
#925=CARTESIAN_POINT('Origin',(-70.376895295249,14.988878104422,-124.107692241668));
#926=CARTESIAN_POINT('',(-102.484886669804,-6.93293630891683,-124.10769223478));
#927=CARTESIAN_POINT('',(-102.484886669806,6.93293630886273,-124.107692234777));
#928=CARTESIAN_POINT('Origin',(-101.518246850324,2.75335310107039E-13,-124.107692241668));
#929=CARTESIAN_POINT('Ctrl Pts',(-102.484886664953,-6.93293619418165,-124.107692241668));
#930=CARTESIAN_POINT('Ctrl Pts',(-102.647074744763,-6.91032108180187,-124.107692241668));
#931=CARTESIAN_POINT('Ctrl Pts',(-102.81377148413,-6.91081345494351,-124.107692241668));
#932=CARTESIAN_POINT('Ctrl Pts',(-103.128186845317,-6.96113232386602,-124.107692241668));
#933=CARTESIAN_POINT('Ctrl Pts',(-103.27841344082,-7.00868267820475,-124.107692241668));
#934=CARTESIAN_POINT('Ctrl Pts',(-103.531557923953,-7.14648302530749,-124.107692241668));
#935=CARTESIAN_POINT('Ctrl Pts',(-103.637732184293,-7.23010085938681,-124.107692241668));
#936=CARTESIAN_POINT('Ctrl Pts',(-103.781953557914,-7.40832315244482,-124.107692241668));
#937=CARTESIAN_POINT('Ctrl Pts',(-103.829378471857,-7.49157448763541,-124.107692241668));
#938=CARTESIAN_POINT('Ctrl Pts',(-103.889259797283,-7.66436229427892,-124.107692241668));
#939=CARTESIAN_POINT('Ctrl Pts',(-103.9036028607,-7.75018204638633,-124.107692241668));
#940=CARTESIAN_POINT('Ctrl Pts',(-103.903602860695,-7.83730448226514,-124.107692241668));
#941=CARTESIAN_POINT('',(-49.4648506457443,-68.2768937275958,-124.107692241869));
#942=CARTESIAN_POINT('',(-73.4203801565836,-68.2768926994457,-124.107692241668));
#943=CARTESIAN_POINT('',(-49.4648506445774,68.2768937273797,-124.107692242022));
#944=CARTESIAN_POINT('',(-49.4648506450268,35.8677719060683,-124.107692241668));
#945=CARTESIAN_POINT('',(-73.4203801570604,68.2768926994461,-124.107692241668));
#946=CARTESIAN_POINT('Ctrl Pts',(-103.903602860695,7.83730444182083,-124.107692241668));
#947=CARTESIAN_POINT('Ctrl Pts',(-103.903602860699,7.75018208817763,-124.107692241668));
#948=CARTESIAN_POINT('Ctrl Pts',(-103.889259824861,7.66436241449007,-124.107692241668));
#949=CARTESIAN_POINT('Ctrl Pts',(-103.829378581067,7.49157466963343,-124.107692241668));
#950=CARTESIAN_POINT('Ctrl Pts',(-103.781953693886,7.40832332340369,-124.107692241668));
#951=CARTESIAN_POINT('Ctrl Pts',(-103.637732353908,7.23010097533853,-124.107692241668));
#952=CARTESIAN_POINT('Ctrl Pts',(-103.53155808863,7.14648310812392,-124.107692241668));
#953=CARTESIAN_POINT('Ctrl Pts',(-103.278413414565,7.00868262065318,-124.107692241668));
#954=CARTESIAN_POINT('Ctrl Pts',(-103.128186597849,6.96113222434766,-124.107692241668));
#955=CARTESIAN_POINT('Ctrl Pts',(-102.813771164173,6.91081345053341,-124.107692241668));
#956=CARTESIAN_POINT('Ctrl Pts',(-102.647074589357,6.91032110276104,-124.107692241668));
#957=CARTESIAN_POINT('Ctrl Pts',(-102.484886664952,6.93293619407332,-124.107692241668));
#958=CARTESIAN_POINT('',(-75.0842306504019,64.6000000000002,-124.107692241668));
#959=CARTESIAN_POINT('Origin',(-75.0842306504019,63.0000000000002,-124.107692241668));
#960=CARTESIAN_POINT('',(-75.0842306504024,-61.3999999999998,-124.107692241668));
#961=CARTESIAN_POINT('Origin',(-75.0842306504024,-62.9999999999998,-124.107692241668));
#962=CARTESIAN_POINT('Origin',(-76.4638629300251,72.908938271659,-116.167042255402));
#963=CARTESIAN_POINT('',(-48.0650338148235,69.2975914010955,-122.357924858635));
#964=CARTESIAN_POINT('',(-47.1745614532341,78.6475469613614,-106.329429254799));
#965=CARTESIAN_POINT('',(-47.6221204035968,73.9481801128984,-114.385486888815));
#966=CARTESIAN_POINT('',(-80.4317734247533,75.5843803289472,-111.58056974403));
#967=CARTESIAN_POINT('',(-70.5898860942064,76.4908706531586,-110.026587014235));
#968=CARTESIAN_POINT('',(-103.103606462011,81.4190448960984,-101.578285694887));
#969=CARTESIAN_POINT('',(-83.6280286196848,76.406946237339,-110.170456485603));
#970=CARTESIAN_POINT('',(-103.103606462479,75.1796250059294,-112.274434361745));
#971=CARTESIAN_POINT('',(-57.9348992471543,62.1008293158458,-134.695230890251));
#972=CARTESIAN_POINT('Origin',(-103.103606462479,79.5480612346107,-109.605513640812));
#973=CARTESIAN_POINT('',(-103.103606462897,81.2145319436146,-107.882785146238));
#974=CARTESIAN_POINT('',(-103.10360646278,82.3612046998163,-107.901692993253));
#975=CARTESIAN_POINT('',(-103.103606462479,79.3252246313633,-107.85163176592));
#976=CARTESIAN_POINT('',(-103.103606462479,77.2148687725484,-114.739349575548));
#977=CARTESIAN_POINT('',(-103.103606462479,84.8921585083011,-101.578285694122));
#978=CARTESIAN_POINT('',(-103.103606462479,79.8931659970968,-101.578285694122));
#979=CARTESIAN_POINT('',(-103.103606462479,85.7559366064692,-102.08215108564));
#980=CARTESIAN_POINT('',(-103.103606462479,84.861278198162,-101.560272364551));
#981=CARTESIAN_POINT('',(-103.103606462479,81.0914480447628,-110.07841924618));
#982=CARTESIAN_POINT('Origin',(-77.3376172951287,74.3880891799929,-119.58525964192));
#983=CARTESIAN_POINT('',(-47.4944586013785,78.7617657000195,-112.08753292787));
#984=CARTESIAN_POINT('',(-48.0650363524495,72.7707009740249,-122.357928030727));
#985=CARTESIAN_POINT('',(-47.7597516922183,75.976189016808,-116.862806512295));
#986=CARTESIAN_POINT('',(-51.864857181289,70.0000034147687,-127.107694149378));
#987=CARTESIAN_POINT('',(-59.4107236767624,64.4978192797047,-136.540007575658));
#988=CARTESIAN_POINT('',(-74.3224786640748,70.0000019386491,-127.107694149017));
#989=CARTESIAN_POINT('',(-81.4281500732663,75.6362908177418,-117.445485258623));
#990=CARTESIAN_POINT('',(-84.7704439445002,76.4964397711182,-115.970944035279));
#991=CARTESIAN_POINT('',(-71.1530808579927,76.5826797709431,-115.82310559224));
#992=CARTESIAN_POINT('Origin',(-71.3073367050715,15.0000000000002,-127.107694149017));
#993=CARTESIAN_POINT('',(-104.584857049224,-6.29233700926623,-127.107650264181));
#994=CARTESIAN_POINT('Ctrl Pts',(-106.303604120429,-6.92560564743737,-127.107694149017));
#995=CARTESIAN_POINT('Ctrl Pts',(-106.303604120454,-6.85780483739762,-127.107694149017));
#996=CARTESIAN_POINT('Ctrl Pts',(-106.295792411234,-6.790367388179,-127.10769414901));
#997=CARTESIAN_POINT('Ctrl Pts',(-106.261686896801,-6.6548505774833,-127.10769414901));
#998=CARTESIAN_POINT('Ctrl Pts',(-106.234601181564,-6.58829464024692,-127.107694149017));
#999=CARTESIAN_POINT('Ctrl Pts',(-106.146305763342,-6.43912144008135,-127.107694149017));
#1000=CARTESIAN_POINT('Ctrl Pts',(-106.077849344897,-6.36469593487926,-127.107694149017));
#1001=CARTESIAN_POINT('Ctrl Pts',(-105.896821689011,-6.2298267918764,-127.107694149017));
#1002=CARTESIAN_POINT('Ctrl Pts',(-105.781827639225,-6.17913732266408,-127.107694149017));
#1003=CARTESIAN_POINT('Ctrl Pts',(-105.518276707077,-6.11176848714481,-127.107694149017));
#1004=CARTESIAN_POINT('Ctrl Pts',(-105.367775694834,-6.10298856816454,-127.107694149017));
#1005=CARTESIAN_POINT('Ctrl Pts',(-105.0015377067,-6.13244070681635,-127.107694149017));
#1006=CARTESIAN_POINT('Ctrl Pts',(-104.782965871415,-6.19580182657126,-127.107694149017));
#1007=CARTESIAN_POINT('Ctrl Pts',(-104.584887768606,-6.29232205539981,-127.107694149017));
#1008=CARTESIAN_POINT('',(-104.584857011823,6.29233679590735,-127.107650210769));
#1009=CARTESIAN_POINT('Origin',(-101.518246850324,2.75335310107039E-13,
-127.107694149017));
#1010=CARTESIAN_POINT('Ctrl Pts',(-104.584887768593,6.2923218238469,-127.107694149017));
#1011=CARTESIAN_POINT('Ctrl Pts',(-104.782964174084,6.1958024005885,-127.107694149017));
#1012=CARTESIAN_POINT('Ctrl Pts',(-105.001533928765,6.13244155381842,-127.107694149017));
#1013=CARTESIAN_POINT('Ctrl Pts',(-105.367770769064,6.10298823020126,-127.107694149017));
#1014=CARTESIAN_POINT('Ctrl Pts',(-105.51827262879,6.11176773044385,-127.107694149017));
#1015=CARTESIAN_POINT('Ctrl Pts',(-105.781824896025,6.17913615125439,-127.107694149017));
#1016=CARTESIAN_POINT('Ctrl Pts',(-105.896819475661,6.22982548623125,-127.107694149017));
#1017=CARTESIAN_POINT('Ctrl Pts',(-106.077847877297,6.36469449502779,-127.107694149017));
#1018=CARTESIAN_POINT('Ctrl Pts',(-106.146304574079,6.43911990949764,-127.107694149017));
#1019=CARTESIAN_POINT('Ctrl Pts',(-106.234600561885,6.58829323539828,-127.107694149017));
#1020=CARTESIAN_POINT('Ctrl Pts',(-106.261686509111,6.65484938138512,-127.10769414901));
#1021=CARTESIAN_POINT('Ctrl Pts',(-106.295792337722,6.7903667265281,-127.10769414901));
#1022=CARTESIAN_POINT('Ctrl Pts',(-106.303604120454,6.85780447999553,-127.107694149017));
#1023=CARTESIAN_POINT('Ctrl Pts',(-106.303604120429,6.92560560115598,-127.107694149017));
#1024=CARTESIAN_POINT('',(-51.8648571829656,-70.0000034147709,-127.107694149376));
#1025=CARTESIAN_POINT('',(-51.8648571814696,14.9892752935612,-127.107694149017));
#1026=CARTESIAN_POINT('',(-74.3224786640754,-70.0000019386488,-127.107694149017));
#1027=CARTESIAN_POINT('',(-75.0842306504019,66.1000000000002,-127.107694149017));
#1028=CARTESIAN_POINT('Origin',(-75.0842306504019,63.0000000000002,-127.107694149017));
#1029=CARTESIAN_POINT('',(-75.0842306504024,-59.8999999999998,-127.107694149017));
#1030=CARTESIAN_POINT('Origin',(-75.0842306504024,-62.9999999999998,-127.107694149017));
#1031=CARTESIAN_POINT('Origin',(-49.4089052677153,14.9785505873817,-124.037760666438));
#1032=CARTESIAN_POINT('',(-48.0650338147004,-69.2975914023945,-122.357924856408));
#1033=CARTESIAN_POINT('',(-57.9298445362714,-62.1045150360045,-134.688912513041));
#1034=CARTESIAN_POINT('',(-48.0650363523185,-72.7707009754068,-122.357928028357));
#1035=CARTESIAN_POINT('',(-48.0650170852383,-46.4008228967061,-122.357903945061));
#1036=CARTESIAN_POINT('',(-59.4056689652581,-64.5015050011233,-136.53368919758));
#1037=CARTESIAN_POINT('',(-48.0650170696374,46.3793734839239,-122.357903926758));
#1038=CARTESIAN_POINT('Origin',(-47.5249359607693,77.7802031380791,-112.636133262089));
#1039=CARTESIAN_POINT('',(-47.1745638357654,82.1206597260938,-106.329429631521));
#1040=CARTESIAN_POINT('',(-47.1745612263255,78.3163690624991,-106.329429219264));
#1041=CARTESIAN_POINT('',(-47.4980924205878,79.8813190243404,-112.152927485582));
#1042=CARTESIAN_POINT('',(-47.4916487531534,77.8960720753142,-112.036966642383));
#1043=CARTESIAN_POINT('',(-47.2028049540107,82.9818352993989,-106.837755366822));
#1044=CARTESIAN_POINT('',(-47.5011511872135,79.8492019984337,-112.20798525783));
#1045=CARTESIAN_POINT('',(-47.1811013544253,82.3200127177753,-106.447101636316));
#1046=CARTESIAN_POINT('Origin',(-63.8031671047208,78.8525223731996,-108.954999446869));
#1047=CARTESIAN_POINT('',(-80.4317741049971,79.0574989143648,-111.580569650198));
#1048=CARTESIAN_POINT('',(-63.8840851098748,80.581626892503,-108.967775978273));
#1049=CARTESIAN_POINT('',(-80.4317734241482,79.5453965663912,-111.58056974411));
#1050=CARTESIAN_POINT('Origin',(-91.7676899433137,80.2382707595827,-106.579427719116));
#1051=CARTESIAN_POINT('',(-91.5904679089517,81.9292196501084,-106.65761394802));
#1052=CARTESIAN_POINT('Origin',(-92.2467181682587,78.9938175678255,-112.682042121887));
#1053=CARTESIAN_POINT('',(-81.3515095748907,76.7632409265835,-117.498205101699));
#1054=CARTESIAN_POINT('',(-81.2405566585274,78.3947335125491,-117.574527941508));
#1055=CARTESIAN_POINT('',(-86.8769232464906,78.1852217921318,-115.06052291084));
#1056=CARTESIAN_POINT('Origin',(-91.7676899433137,82.406716346741,-106.831359863281));
#1057=CARTESIAN_POINT('',(-80.4317721672733,79.9212731615666,-112.084434178775));
#1058=CARTESIAN_POINT('',(-85.3296951478659,81.1817680911806,-109.923585101243));
#1059=CARTESIAN_POINT('',(-80.4317734235659,79.48940267775,-111.832511569552));
#1060=CARTESIAN_POINT('Origin',(-77.1152319113409,81.2774682044985,-109.759527842204));
#1061=CARTESIAN_POINT('',(-70.0777426298853,77.8016142650259,-115.718136229238));
#1062=CARTESIAN_POINT('',(-70.2783012229767,80.8564610817671,-110.481254623773));
#1063=CARTESIAN_POINT('Origin',(-64.443052768707,77.7606534957887,-114.79603767395));
#1064=CARTESIAN_POINT('Origin',(-63.8102290630337,81.0203170776368,-109.208047389984));
#1065=CARTESIAN_POINT('Origin',(-64.4430527687077,-77.7606534957885,-114.79603767395));
#1066=CARTESIAN_POINT('',(-47.4944586013792,-78.7617657000193,-112.08753292787));
#1067=CARTESIAN_POINT('',(-47.4980924205884,-79.8813190243403,-112.152927485582));
#1068=CARTESIAN_POINT('',(-47.491648753154,-77.8960720753141,-112.036966642383));
#1069=CARTESIAN_POINT('',(-81.3515095748913,-76.7632409265831,-117.498205101699));
#1070=CARTESIAN_POINT('',(-70.077742629886,-77.8016142650255,-115.718136229238));
#1071=CARTESIAN_POINT('',(-81.428150073267,-75.6362908177413,-117.445485258623));
#1072=CARTESIAN_POINT('',(-81.240556658528,-78.3947335125487,-117.574527941508));
#1073=CARTESIAN_POINT('',(-71.1530808579934,-76.5826797709427,-115.82310559224));
#1074=CARTESIAN_POINT('Origin',(-77.1152319113417,-81.2774682044981,-109.759527842204));
#1075=CARTESIAN_POINT('',(-47.2028049540115,-82.9818352993988,-106.837755366822));
#1076=CARTESIAN_POINT('',(-47.5011511872141,-79.8492019984336,-112.20798525783));
#1077=CARTESIAN_POINT('',(-80.431772167274,-79.9212731615662,-112.084434178775));
#1078=CARTESIAN_POINT('',(-70.2783012229775,-80.8564610817668,-110.481254623773));
#1079=CARTESIAN_POINT('',(-103.103606462479,-85.7559366064686,-102.08215108564));
#1080=CARTESIAN_POINT('',(-85.3296951478667,-81.1817680911802,-109.923585101243));
#1081=CARTESIAN_POINT('',(-103.103606462781,-82.3612046998156,-107.901692993253));
#1082=CARTESIAN_POINT('',(-103.103606462479,-81.0914480447622,-110.07841924618));
#1083=CARTESIAN_POINT('',(-86.8769232464913,-78.1852217921314,-115.06052291084));
#1084=CARTESIAN_POINT('Origin',(-63.8102290630345,-81.0203170776366,-109.208047389984));
#1085=CARTESIAN_POINT('',(-47.1745638357661,-82.1206597260937,-106.329429631521));
#1086=CARTESIAN_POINT('',(-47.181101354426,-82.3200127177751,-106.447101636316));
#1087=CARTESIAN_POINT('',(-80.4317741049977,-79.0574989143644,-111.580569650198));
#1088=CARTESIAN_POINT('',(-63.8840851098754,-80.5816268925028,-108.967775978273));
#1089=CARTESIAN_POINT('',(-80.4317734235665,-79.4894026777496,-111.832511569552));
#1090=CARTESIAN_POINT('Origin',(-92.2467181682593,-78.993817567825,-112.682042121887));
#1091=CARTESIAN_POINT('',(-103.103606462898,-81.214531943614,-107.882785146238));
#1092=CARTESIAN_POINT('',(-103.103606462479,-79.3252246313627,-107.85163176592));
#1093=CARTESIAN_POINT('',(-84.7704439445008,-76.4964397711178,-115.970944035279));
#1094=CARTESIAN_POINT('Origin',(-77.3376172951293,-74.3880891799925,-119.58525964192));
#1095=CARTESIAN_POINT('',(-103.103606462479,-77.2148687725478,-114.739349575548));
#1096=CARTESIAN_POINT('',(-47.7597516922189,-75.9761890168079,-116.862806512295));
#1097=CARTESIAN_POINT('Origin',(-91.7676899433144,-82.4067163467405,-106.831359863281));
#1098=CARTESIAN_POINT('',(-103.103606462479,-84.8921585083005,-101.578285694122));
#1099=CARTESIAN_POINT('',(-91.5904679089524,-81.9292196501079,-106.65761394802));
#1100=CARTESIAN_POINT('',(-103.103606462479,-84.8612781981614,-101.560272364551));
#1101=CARTESIAN_POINT('Origin',(-76.4638629300257,-72.9089382716586,-116.167042255402));
#1102=CARTESIAN_POINT('',(-103.103606462011,-81.4190448960978,-101.578285694887));
#1103=CARTESIAN_POINT('',(-103.103606462479,-75.1796250059288,-112.274434361745));
#1104=CARTESIAN_POINT('',(-80.431773424754,-75.5843803289468,-111.58056974403));
#1105=CARTESIAN_POINT('',(-83.6280286196853,-76.4069462373386,-110.170456485603));
#1106=CARTESIAN_POINT('',(-47.1745614532348,-78.6475469613613,-106.329429254799));
#1107=CARTESIAN_POINT('',(-70.589886094207,-76.4908706531583,-110.026587014235));
#1108=CARTESIAN_POINT('',(-47.6221204035974,-73.9481801128983,-114.385486888815));
#1109=CARTESIAN_POINT('Origin',(-91.7676899433144,-80.2382707595822,-106.579427719116));
#1110=CARTESIAN_POINT('',(-80.4317734241488,-79.5453965663908,-111.58056974411));
#1111=CARTESIAN_POINT('',(-103.103606462479,-79.8931659970962,-101.578285694122));
#1112=CARTESIAN_POINT('Origin',(-63.8031671047214,-78.8525223731994,-108.954999446869));
#1113=CARTESIAN_POINT('',(-47.1745612263261,-78.316369062499,-106.329429219264));
#1114=CARTESIAN_POINT('Origin',(-103.103606462479,-79.5480612346101,-109.605513640812));
#1115=CARTESIAN_POINT('Origin',(-47.5249359607699,-77.7802031380789,-112.636133262089));
#1116=CARTESIAN_POINT('Origin',(-75.0842306504024,-62.9999999999998,-101.578285694122));
#1117=CARTESIAN_POINT('',(-75.0842306504024,-61.3999999999998,-125.607694149017));
#1118=CARTESIAN_POINT('',(-75.0842306504024,-61.3999999999998,-101.578285694122));
#1119=CARTESIAN_POINT('Origin',(-75.0842306504024,-62.9999999999998,-125.607694149017));
#1120=CARTESIAN_POINT('Origin',(-75.0842306504019,63.0000000000002,-101.578285694122));
#1121=CARTESIAN_POINT('',(-75.0842306504019,64.6000000000002,-125.607694149017));
#1122=CARTESIAN_POINT('',(-75.0842306504019,64.6000000000002,-101.578285694122));
#1123=CARTESIAN_POINT('Origin',(-75.0842306504019,63.0000000000002,-125.607694149017));
#1124=CARTESIAN_POINT('Origin',(-75.0842306504019,63.0000000000002,-127.107694149017));
#1125=CARTESIAN_POINT('',(-75.0842306504019,66.1000000000003,-127.107694149017));
#1126=CARTESIAN_POINT('Origin',(-75.0842306504024,-62.9999999999998,-127.107694149017));
#1127=CARTESIAN_POINT('',(-75.0842306504024,-59.8999999999998,-127.107694149017));
#1128=CARTESIAN_POINT('Origin',(-101.518246850324,2.75335310107039E-13,
-101.578285694122));
#1129=CARTESIAN_POINT('Origin',(-102.055644138548,-1.54476377592186,-123.494488563021));
#1130=CARTESIAN_POINT('Origin',(-102.055670492943,1.54471619926388,-123.494526211917));
#1131=CARTESIAN_POINT('Ctrl Pts',(-102.468560826619,-6.93519310087717,-124.084369610909));
#1132=CARTESIAN_POINT('Ctrl Pts',(-103.325927325321,-6.81771008999744,-123.385597742375));
#1133=CARTESIAN_POINT('Ctrl Pts',(-103.385188809325,-7.92593497243109,-123.459674605595));
#1134=CARTESIAN_POINT('Ctrl Pts',(-103.386926022371,-6.80935157517329,-125.396320036016));
#1135=CARTESIAN_POINT('Ctrl Pts',(-104.371343202561,-6.55176185824992,-124.692367733756));
#1136=CARTESIAN_POINT('Ctrl Pts',(-104.434780364142,-7.78211179267703,-124.771664194607));
#1137=CARTESIAN_POINT('Ctrl Pts',(-104.278815871843,-6.49908435186183,-126.670448533734));
#1138=CARTESIAN_POINT('Ctrl Pts',(-105.301043268808,-6.05540209066298,-125.854492945489));
#1139=CARTESIAN_POINT('Ctrl Pts',(-105.454000404542,-7.4275552666437,-126.045689386389));
#1140=CARTESIAN_POINT('Ctrl Pts',(-105.076861792903,-6.02795651033166,-127.810514261663));
#1141=CARTESIAN_POINT('Ctrl Pts',(-106.037114483373,-5.4610696114133,-126.774582065756));
#1142=CARTESIAN_POINT('Ctrl Pts',(-106.366104199364,-6.88909315466479,-127.185819256349));
#1143=CARTESIAN_POINT('Ctrl Pts',(-105.077158595528,6.02778128251635,-127.810938265459));
#1144=CARTESIAN_POINT('Ctrl Pts',(-106.037408181678,5.46083245502847,-126.774949188678));
#1145=CARTESIAN_POINT('Ctrl Pts',(-106.366443402364,6.88889289430437,-127.186243260146));
#1146=CARTESIAN_POINT('Ctrl Pts',(-104.279036271015,6.49900722481417,-126.67076338978));
#1147=CARTESIAN_POINT('Ctrl Pts',(-105.301286307368,6.05527085713788,-125.854796743776));
#1148=CARTESIAN_POINT('Ctrl Pts',(-105.454252260727,7.4274671417221,-126.046004206654));
#1149=CARTESIAN_POINT('Ctrl Pts',(-103.387038732954,6.8093364054879,-125.396481051151));
#1150=CARTESIAN_POINT('Ctrl Pts',(-104.371479657522,6.55172749782545,-124.692538302542));
#1151=CARTESIAN_POINT('Ctrl Pts',(-104.434909194494,7.78209445341098,-124.771825232566));
#1152=CARTESIAN_POINT('Ctrl Pts',(-102.468558789972,6.93519337995462,-124.084366701413));
#1153=CARTESIAN_POINT('Ctrl Pts',(-103.32592513979,6.81771064598515,-123.385595010461));
#1154=CARTESIAN_POINT('Ctrl Pts',(-103.385186481729,7.92593529137667,-123.459671696099));
#1155=CARTESIAN_POINT('',(0.,0.,0.));
#1156=UNCERTAINTY_MEASURE_WITH_UNIT(LENGTH_MEASURE(0.01),#1162,
'DISTANCE_ACCURACY_VALUE',
'Maximum model space distance between geometric entities at asserted c
onnectivities');
#1157=UNCERTAINTY_MEASURE_WITH_UNIT(LENGTH_MEASURE(0.01),#1162,
'DISTANCE_ACCURACY_VALUE',
'Maximum model space distance between geometric entities at asserted c
onnectivities');
#1158=UNCERTAINTY_MEASURE_WITH_UNIT(LENGTH_MEASURE(0.01),#1162,
'DISTANCE_ACCURACY_VALUE',
'Maximum model space distance between geometric entities at asserted c
onnectivities');
#1159=(
GEOMETRIC_REPRESENTATION_CONTEXT(3)
GLOBAL_UNCERTAINTY_ASSIGNED_CONTEXT((#1156))
GLOBAL_UNIT_ASSIGNED_CONTEXT((#1162,#1164,#1165))
REPRESENTATION_CONTEXT('','3D')
);
#1160=(
GEOMETRIC_REPRESENTATION_CONTEXT(3)
GLOBAL_UNCERTAINTY_ASSIGNED_CONTEXT((#1157))
GLOBAL_UNIT_ASSIGNED_CONTEXT((#1162,#1164,#1165))
REPRESENTATION_CONTEXT('','3D')
);
#1161=(
GEOMETRIC_REPRESENTATION_CONTEXT(3)
GLOBAL_UNCERTAINTY_ASSIGNED_CONTEXT((#1158))
GLOBAL_UNIT_ASSIGNED_CONTEXT((#1162,#1164,#1165))
REPRESENTATION_CONTEXT('','3D')
);
#1162=(
LENGTH_UNIT()
NAMED_UNIT(*)
SI_UNIT(.MILLI.,.METRE.)
);
#1163=(
LENGTH_UNIT()
NAMED_UNIT(*)
SI_UNIT($,.METRE.)
);
#1164=(
NAMED_UNIT(*)
PLANE_ANGLE_UNIT()
SI_UNIT($,.RADIAN.)
);
#1165=(
NAMED_UNIT(*)
SI_UNIT($,.STERADIAN.)
SOLID_ANGLE_UNIT()
);
#1166=SHAPE_DEFINITION_REPRESENTATION(#1168,#1171);
#1167=SHAPE_DEFINITION_REPRESENTATION(#1169,#1172);
#1168=PRODUCT_DEFINITION_SHAPE('',$,#1174);
#1169=PRODUCT_DEFINITION_SHAPE('',$,#1175);
#1170=PRODUCT_DEFINITION_SHAPE($,$,#14);
#1171=SHAPE_REPRESENTATION('',(#680,#726),#1159);
#1172=SHAPE_REPRESENTATION('',(#681),#1160);
#1173=PRODUCT_DEFINITION_CONTEXT('part definition',#1181,'design');
#1174=PRODUCT_DEFINITION('Chassis','Chassis v25',#1176,#1173);
#1175=PRODUCT_DEFINITION('Chassis_1','Chassis',#1177,#1173);
#1176=PRODUCT_DEFINITION_FORMATION('',$,#1183);
#1177=PRODUCT_DEFINITION_FORMATION('',$,#1184);
#1178=PRODUCT_RELATED_PRODUCT_CATEGORY('Chassis v25','Chassis v25',(#1183));
#1179=PRODUCT_RELATED_PRODUCT_CATEGORY('Chassis','Chassis',(#1184));
#1180=APPLICATION_PROTOCOL_DEFINITION('international standard',
'automotive_design',2009,#1181);
#1181=APPLICATION_CONTEXT(
'Core Data for Automotive Mechanical Design Process');
#1182=PRODUCT_CONTEXT('part definition',#1181,'mechanical');
#1183=PRODUCT('Chassis','Chassis v25',$,(#1182));
#1184=PRODUCT('Chassis_1','Chassis',$,(#1182));
#1185=PRESENTATION_STYLE_ASSIGNMENT((#1193));
#1186=PRESENTATION_STYLE_ASSIGNMENT((#1194));
#1187=PRESENTATION_STYLE_ASSIGNMENT((#1195));
#1188=PRESENTATION_STYLE_ASSIGNMENT((#1196));
#1189=PRESENTATION_STYLE_ASSIGNMENT((#1197));
#1190=PRESENTATION_STYLE_ASSIGNMENT((#1198));
#1191=PRESENTATION_STYLE_ASSIGNMENT((#1199));
#1192=PRESENTATION_STYLE_ASSIGNMENT((#1200));
#1193=SURFACE_STYLE_USAGE(.BOTH.,#1201);
#1194=SURFACE_STYLE_USAGE(.BOTH.,#1202);
#1195=SURFACE_STYLE_USAGE(.BOTH.,#1203);
#1196=SURFACE_STYLE_USAGE(.BOTH.,#1204);
#1197=SURFACE_STYLE_USAGE(.BOTH.,#1205);
#1198=SURFACE_STYLE_USAGE(.BOTH.,#1206);
#1199=SURFACE_STYLE_USAGE(.BOTH.,#1207);
#1200=SURFACE_STYLE_USAGE(.BOTH.,#1208);
#1201=SURFACE_SIDE_STYLE('',(#1209));
#1202=SURFACE_SIDE_STYLE('',(#1210));
#1203=SURFACE_SIDE_STYLE('',(#1211));
#1204=SURFACE_SIDE_STYLE('',(#1212));
#1205=SURFACE_SIDE_STYLE('',(#1213));
#1206=SURFACE_SIDE_STYLE('',(#1214));
#1207=SURFACE_SIDE_STYLE('',(#1215));
#1208=SURFACE_SIDE_STYLE('',(#1216));
#1209=SURFACE_STYLE_FILL_AREA(#1217);
#1210=SURFACE_STYLE_FILL_AREA(#1218);
#1211=SURFACE_STYLE_FILL_AREA(#1219);
#1212=SURFACE_STYLE_FILL_AREA(#1220);
#1213=SURFACE_STYLE_FILL_AREA(#1221);
#1214=SURFACE_STYLE_FILL_AREA(#1222);
#1215=SURFACE_STYLE_FILL_AREA(#1223);
#1216=SURFACE_STYLE_FILL_AREA(#1224);
#1217=FILL_AREA_STYLE('Steel - Satin',(#1225));
#1218=FILL_AREA_STYLE('Aluminum - Satin',(#1226));
#1219=FILL_AREA_STYLE('Opaque(50,50,50)',(#1227));
#1220=FILL_AREA_STYLE('Opaque(255,255,255)',(#1228));
#1221=FILL_AREA_STYLE('Opaque(245,245,246)',(#1229));
#1222=FILL_AREA_STYLE('ABS (White) (1)',(#1230));
#1223=FILL_AREA_STYLE('Opaque(250,182,1)',(#1231));
#1224=FILL_AREA_STYLE('ABS (White)',(#1232));
#1225=FILL_AREA_STYLE_COLOUR('Steel - Satin',#1233);
#1226=FILL_AREA_STYLE_COLOUR('Aluminum - Satin',#1234);
#1227=FILL_AREA_STYLE_COLOUR('Opaque(50,50,50)',#1235);
#1228=FILL_AREA_STYLE_COLOUR('Opaque(255,255,255)',#1236);
#1229=FILL_AREA_STYLE_COLOUR('Opaque(245,245,246)',#1237);
#1230=FILL_AREA_STYLE_COLOUR('ABS (White) (1)',#1238);
#1231=FILL_AREA_STYLE_COLOUR('Opaque(250,182,1)',#1239);
#1232=FILL_AREA_STYLE_COLOUR('ABS (White)',#1240);
#1233=COLOUR_RGB('Steel - Satin',0.627450980392157,0.627450980392157,0.627450980392157);
#1234=COLOUR_RGB('Aluminum - Satin',0.96078431372549,0.96078431372549,0.964705882352941);
#1235=COLOUR_RGB('Opaque(50,50,50)',0.196078431372549,0.196078431372549,
0.196078431372549);
#1236=COLOUR_RGB('Opaque(255,255,255)',1.,1.,1.);
#1237=COLOUR_RGB('Opaque(245,245,246)',0.96078431372549,0.96078431372549,
0.964705882352941);
#1238=COLOUR_RGB('ABS (White) (1)',0.905882352941176,0.262745098039216,
0.184313725490196);
#1239=COLOUR_RGB('Opaque(250,182,1)',0.980392156862745,0.713725490196078,
0.00392156862745098);
#1240=COLOUR_RGB('ABS (White)',0.964705882352941,0.964705882352941,0.952941176470588);
ENDSEC;
END-ISO-10303-21;
