ISO-10303-21;
HEADER;
/* Generated by software containing ST-Developer
 * from STEP Tools, Inc. (www.steptools.com) 
 */

FILE_DESCRIPTION(
/* description */ (''),
/* implementation_level */ '2;1');

FILE_NAME(
/* name */ 'RearPanel (L).step',
/* time_stamp */ '2026-08-13T12:57:55-04:00',
/* author */ (''),
/* organization */ (''),
/* preprocessor_version */ 'ST-DEVELOPER v20.1',
/* originating_system */ 'Autodesk Translation Framework v15.8.0.0',
/* authorisation */ '');

FILE_SCHEMA (('AUTOMOTIVE_DESIGN { 1 0 10303 214 3 1 1 }'));
ENDSEC;

DATA;
#10=MECHANICAL_DESIGN_GEOMETRIC_PRESENTATION_REPRESENTATION('',(#33,#34,
#35,#36,#37,#38),#1404);
#11=ITEM_DEFINED_TRANSFORMATION($,$,#862,#924);
#12=(
REPRESENTATION_RELATIONSHIP($,$,#1415,#1414)
REPRESENTATION_RELATIONSHIP_WITH_TRANSFORMATION(#11)
SHAPE_REPRESENTATION_RELATIONSHIP()
);
#13=CONTEXT_DEPENDENT_SHAPE_REPRESENTATION(#12,#1413);
#14=NEXT_ASSEMBLY_USAGE_OCCURRENCE('Chassis:1','Chassis:1','Chassis:1',
#1417,#1418,'Chassis:1');
#15=SHAPE_REPRESENTATION_RELATIONSHIP('SRR','None',#1415,#16);
#16=ADVANCED_BREP_SHAPE_REPRESENTATION('',(#17),#1403);
#17=MANIFOLD_SOLID_BREP('LeftJoint',#848);
#18=B_SPLINE_CURVE_WITH_KNOTS('',3,(#1383,#1384,#1385,#1386,#1387,#1388,
#1389,#1390),.UNSPECIFIED.,.F.,.F.,(4,2,2,4),(2.73658108717596,2.78613118156223,
3.1003036378547,3.13247025109384),.UNSPECIFIED.);
#19=CYLINDRICAL_SURFACE('',#910,0.999999028763661);
#20=CYLINDRICAL_SURFACE('',#911,6.99999479096968);
#21=CYLINDRICAL_SURFACE('',#912,10.0000892217385);
#22=CYLINDRICAL_SURFACE('',#913,9.99999939192531);
#23=CYLINDRICAL_SURFACE('',#914,1.59999949798483);
#24=CYLINDRICAL_SURFACE('',#915,16.0000073766363);
#25=CYLINDRICAL_SURFACE('',#916,1.60000166147163);
#26=CYLINDRICAL_SURFACE('',#917,11.6234355182466);
#27=CYLINDRICAL_SURFACE('',#918,8.29371986048787);
#28=CYLINDRICAL_SURFACE('',#920,394.299319080631);
#29=FACE_BOUND('',#116,.T.);
#30=FACE_BOUND('',#118,.T.);
#31=FACE_BOUND('',#124,.T.);
#32=FACE_BOUND('',#126,.T.);
#33=STYLED_ITEM('',(#1433),#813);
#34=STYLED_ITEM('',(#1433),#814);
#35=STYLED_ITEM('',(#1433),#822);
#36=STYLED_ITEM('',(#1433),#826);
#37=STYLED_ITEM('',(#1433),#827);
#38=STYLED_ITEM('',(#1432),#17);
#39=CIRCLE('',#870,0.999999028763661);
#40=CIRCLE('',#871,16.0000073766363);
#41=CIRCLE('',#872,10.0000892217385);
#42=CIRCLE('',#873,6.99999479096968);
#43=CIRCLE('',#875,394.299319081338);
#44=CIRCLE('',#877,16.0000073766363);
#45=CIRCLE('',#878,0.999999028763661);
#46=CIRCLE('',#880,394.29931908146);
#47=CIRCLE('',#889,1.60000166147188);
#48=CIRCLE('',#891,1.60000166147196);
#49=CIRCLE('',#895,6.99999479096968);
#50=CIRCLE('',#896,10.0000892217385);
#51=CIRCLE('',#901,1.59999949798519);
#52=CIRCLE('',#903,1.59999949798514);
#53=ELLIPSE('',#868,16.6993723571584,11.6234355020804);
#54=ELLIPSE('',#881,10.3155541559159,9.99999941187958);
#55=ELLIPSE('',#893,10.3155540836955,9.99999941185301);
#56=ELLIPSE('',#898,11.9397891012412,8.2937202931177);
#57=ELLIPSE('',#919,11.7521953611681,8.29371986048787);
#58=FACE_OUTER_BOUND('',#100,.T.);
#59=FACE_OUTER_BOUND('',#101,.T.);
#60=FACE_OUTER_BOUND('',#102,.T.);
#61=FACE_OUTER_BOUND('',#103,.T.);
#62=FACE_OUTER_BOUND('',#104,.T.);
#63=FACE_OUTER_BOUND('',#105,.T.);
#64=FACE_OUTER_BOUND('',#106,.T.);
#65=FACE_OUTER_BOUND('',#107,.T.);
#66=FACE_OUTER_BOUND('',#108,.T.);
#67=FACE_OUTER_BOUND('',#109,.T.);
#68=FACE_OUTER_BOUND('',#110,.T.);
#69=FACE_OUTER_BOUND('',#111,.T.);
#70=FACE_OUTER_BOUND('',#112,.T.);
#71=FACE_OUTER_BOUND('',#113,.T.);
#72=FACE_OUTER_BOUND('',#114,.T.);
#73=FACE_OUTER_BOUND('',#115,.T.);
#74=FACE_OUTER_BOUND('',#117,.T.);
#75=FACE_OUTER_BOUND('',#119,.T.);
#76=FACE_OUTER_BOUND('',#120,.T.);
#77=FACE_OUTER_BOUND('',#121,.T.);
#78=FACE_OUTER_BOUND('',#122,.T.);
#79=FACE_OUTER_BOUND('',#123,.T.);
#80=FACE_OUTER_BOUND('',#125,.T.);
#81=FACE_OUTER_BOUND('',#127,.T.);
#82=FACE_OUTER_BOUND('',#128,.T.);
#83=FACE_OUTER_BOUND('',#129,.T.);
#84=FACE_OUTER_BOUND('',#130,.T.);
#85=FACE_OUTER_BOUND('',#131,.T.);
#86=FACE_OUTER_BOUND('',#132,.T.);
#87=FACE_OUTER_BOUND('',#133,.T.);
#88=FACE_OUTER_BOUND('',#134,.T.);
#89=FACE_OUTER_BOUND('',#135,.T.);
#90=FACE_OUTER_BOUND('',#136,.T.);
#91=FACE_OUTER_BOUND('',#137,.T.);
#92=FACE_OUTER_BOUND('',#138,.T.);
#93=FACE_OUTER_BOUND('',#139,.T.);
#94=FACE_OUTER_BOUND('',#140,.T.);
#95=FACE_OUTER_BOUND('',#141,.T.);
#96=FACE_OUTER_BOUND('',#142,.T.);
#97=FACE_OUTER_BOUND('',#143,.T.);
#98=FACE_OUTER_BOUND('',#144,.T.);
#99=FACE_OUTER_BOUND('',#145,.T.);
#100=EDGE_LOOP('',(#538,#539,#540,#541));
#101=EDGE_LOOP('',(#542,#543,#544,#545));
#102=EDGE_LOOP('',(#546,#547,#548,#549));
#103=EDGE_LOOP('',(#550,#551,#552,#553,#554,#555));
#104=EDGE_LOOP('',(#556,#557,#558,#559,#560,#561));
#105=EDGE_LOOP('',(#562,#563,#564,#565,#566,#567,#568,#569,#570,#571));
#106=EDGE_LOOP('',(#572,#573,#574,#575,#576,#577,#578));
#107=EDGE_LOOP('',(#579,#580,#581,#582,#583,#584,#585));
#108=EDGE_LOOP('',(#586,#587,#588,#589,#590,#591,#592));
#109=EDGE_LOOP('',(#593,#594,#595,#596));
#110=EDGE_LOOP('',(#597,#598,#599,#600));
#111=EDGE_LOOP('',(#601,#602,#603,#604,#605));
#112=EDGE_LOOP('',(#606,#607,#608,#609,#610,#611,#612,#613));
#113=EDGE_LOOP('',(#614,#615,#616,#617,#618,#619,#620));
#114=EDGE_LOOP('',(#621,#622,#623,#624));
#115=EDGE_LOOP('',(#625,#626,#627,#628,#629));
#116=EDGE_LOOP('',(#630));
#117=EDGE_LOOP('',(#631,#632,#633,#634));
#118=EDGE_LOOP('',(#635));
#119=EDGE_LOOP('',(#636,#637,#638,#639,#640,#641,#642,#643,#644));
#120=EDGE_LOOP('',(#645,#646,#647,#648,#649,#650,#651));
#121=EDGE_LOOP('',(#652,#653,#654,#655,#656));
#122=EDGE_LOOP('',(#657,#658,#659,#660,#661,#662,#663));
#123=EDGE_LOOP('',(#664,#665,#666,#667));
#124=EDGE_LOOP('',(#668));
#125=EDGE_LOOP('',(#669,#670,#671,#672,#673));
#126=EDGE_LOOP('',(#674));
#127=EDGE_LOOP('',(#675,#676,#677,#678,#679,#680,#681,#682,#683,#684,#685,
#686));
#128=EDGE_LOOP('',(#687,#688,#689,#690));
#129=EDGE_LOOP('',(#691,#692,#693,#694));
#130=EDGE_LOOP('',(#695,#696,#697,#698));
#131=EDGE_LOOP('',(#699,#700,#701,#702,#703,#704,#705,#706,#707,#708,#709,
#710,#711,#712));
#132=EDGE_LOOP('',(#713,#714,#715,#716,#717,#718,#719,#720));
#133=EDGE_LOOP('',(#721,#722,#723,#724));
#134=EDGE_LOOP('',(#725,#726,#727,#728));
#135=EDGE_LOOP('',(#729,#730,#731,#732));
#136=EDGE_LOOP('',(#733,#734,#735,#736));
#137=EDGE_LOOP('',(#737,#738,#739,#740));
#138=EDGE_LOOP('',(#741,#742,#743,#744));
#139=EDGE_LOOP('',(#745,#746,#747,#748));
#140=EDGE_LOOP('',(#749,#750,#751,#752));
#141=EDGE_LOOP('',(#753,#754,#755,#756,#757));
#142=EDGE_LOOP('',(#758,#759,#760,#761));
#143=EDGE_LOOP('',(#762,#763,#764,#765));
#144=EDGE_LOOP('',(#766,#767,#768,#769));
#145=EDGE_LOOP('',(#770,#771,#772,#773));
#146=LINE('',#1156,#244);
#147=LINE('',#1158,#245);
#148=LINE('',#1160,#246);
#149=LINE('',#1161,#247);
#150=LINE('',#1164,#248);
#151=LINE('',#1166,#249);
#152=LINE('',#1167,#250);
#153=LINE('',#1170,#251);
#154=LINE('',#1172,#252);
#155=LINE('',#1173,#253);
#156=LINE('',#1177,#254);
#157=LINE('',#1179,#255);
#158=LINE('',#1181,#256);
#159=LINE('',#1183,#257);
#160=LINE('',#1185,#258);
#161=LINE('',#1186,#259);
#162=LINE('',#1190,#260);
#163=LINE('',#1192,#261);
#164=LINE('',#1194,#262);
#165=LINE('',#1196,#263);
#166=LINE('',#1199,#264);
#167=LINE('',#1201,#265);
#168=LINE('',#1203,#266);
#169=LINE('',#1209,#267);
#170=LINE('',#1214,#268);
#171=LINE('',#1217,#269);
#172=LINE('',#1219,#270);
#173=LINE('',#1221,#271);
#174=LINE('',#1225,#272);
#175=LINE('',#1227,#273);
#176=LINE('',#1229,#274);
#177=LINE('',#1231,#275);
#178=LINE('',#1239,#276);
#179=LINE('',#1243,#277);
#180=LINE('',#1244,#278);
#181=LINE('',#1248,#279);
#182=LINE('',#1250,#280);
#183=LINE('',#1252,#281);
#184=LINE('',#1253,#282);
#185=LINE('',#1256,#283);
#186=LINE('',#1258,#284);
#187=LINE('',#1259,#285);
#188=LINE('',#1262,#286);
#189=LINE('',#1264,#287);
#190=LINE('',#1266,#288);
#191=LINE('',#1267,#289);
#192=LINE('',#1270,#290);
#193=LINE('',#1272,#291);
#194=LINE('',#1274,#292);
#195=LINE('',#1276,#293);
#196=LINE('',#1277,#294);
#197=LINE('',#1280,#295);
#198=LINE('',#1282,#296);
#199=LINE('',#1284,#297);
#200=LINE('',#1285,#298);
#201=LINE('',#1288,#299);
#202=LINE('',#1289,#300);
#203=LINE('',#1292,#301);
#204=LINE('',#1294,#302);
#205=LINE('',#1296,#303);
#206=LINE('',#1297,#304);
#207=LINE('',#1302,#305);
#208=LINE('',#1304,#306);
#209=LINE('',#1305,#307);
#210=LINE('',#1310,#308);
#211=LINE('',#1312,#309);
#212=LINE('',#1313,#310);
#213=LINE('',#1315,#311);
#214=LINE('',#1319,#312);
#215=LINE('',#1320,#313);
#216=LINE('',#1327,#314);
#217=LINE('',#1328,#315);
#218=LINE('',#1331,#316);
#219=LINE('',#1333,#317);
#220=LINE('',#1335,#318);
#221=LINE('',#1337,#319);
#222=LINE('',#1338,#320);
#223=LINE('',#1340,#321);
#224=LINE('',#1344,#322);
#225=LINE('',#1349,#323);
#226=LINE('',#1350,#324);
#227=LINE('',#1351,#325);
#228=LINE('',#1352,#326);
#229=LINE('',#1355,#327);
#230=LINE('',#1356,#328);
#231=LINE('',#1359,#329);
#232=LINE('',#1360,#330);
#233=LINE('',#1363,#331);
#234=LINE('',#1364,#332);
#235=LINE('',#1366,#333);
#236=LINE('',#1367,#334);
#237=LINE('',#1368,#335);
#238=LINE('',#1371,#336);
#239=LINE('',#1372,#337);
#240=LINE('',#1374,#338);
#241=LINE('',#1378,#339);
#242=LINE('',#1381,#340);
#243=LINE('',#1394,#341);
#244=VECTOR('',#931,1000.);
#245=VECTOR('',#932,1000.);
#246=VECTOR('',#933,1000.);
#247=VECTOR('',#934,1000.);
#248=VECTOR('',#937,1000.);
#249=VECTOR('',#938,1000.);
#250=VECTOR('',#939,1000.);
#251=VECTOR('',#942,1000.);
#252=VECTOR('',#943,1000.);
#253=VECTOR('',#944,1000.);
#254=VECTOR('',#947,1000.);
#255=VECTOR('',#948,1000.);
#256=VECTOR('',#949,1000.);
#257=VECTOR('',#950,1000.);
#258=VECTOR('',#951,1000.);
#259=VECTOR('',#952,1000.);
#260=VECTOR('',#955,1000.);
#261=VECTOR('',#956,1000.);
#262=VECTOR('',#957,1000.);
#263=VECTOR('',#958,1000.);
#264=VECTOR('',#961,1000.);
#265=VECTOR('',#964,1000.);
#266=VECTOR('',#965,1000.);
#267=VECTOR('',#970,1000.);
#268=VECTOR('',#975,1000.);
#269=VECTOR('',#978,1000.);
#270=VECTOR('',#979,1000.);
#271=VECTOR('',#980,1000.);
#272=VECTOR('',#985,1000.);
#273=VECTOR('',#986,1000.);
#274=VECTOR('',#987,1000.);
#275=VECTOR('',#988,1000.);
#276=VECTOR('',#997,1000.);
#277=VECTOR('',#1000,1000.);
#278=VECTOR('',#1001,1000.);
#279=VECTOR('',#1004,1000.);
#280=VECTOR('',#1005,1000.);
#281=VECTOR('',#1006,1000.);
#282=VECTOR('',#1007,1000.);
#283=VECTOR('',#1010,1000.);
#284=VECTOR('',#1011,1000.);
#285=VECTOR('',#1012,1000.);
#286=VECTOR('',#1015,1000.);
#287=VECTOR('',#1016,1000.);
#288=VECTOR('',#1017,1000.);
#289=VECTOR('',#1018,1000.);
#290=VECTOR('',#1021,1000.);
#291=VECTOR('',#1022,1000.);
#292=VECTOR('',#1023,1000.);
#293=VECTOR('',#1024,1000.);
#294=VECTOR('',#1025,1000.);
#295=VECTOR('',#1028,1000.);
#296=VECTOR('',#1029,1000.);
#297=VECTOR('',#1030,1000.);
#298=VECTOR('',#1031,1000.);
#299=VECTOR('',#1034,1000.);
#300=VECTOR('',#1035,1000.);
#301=VECTOR('',#1038,1000.);
#302=VECTOR('',#1039,1000.);
#303=VECTOR('',#1040,1000.);
#304=VECTOR('',#1041,1000.);
#305=VECTOR('',#1046,1000.);
#306=VECTOR('',#1047,1000.);
#307=VECTOR('',#1048,1000.);
#308=VECTOR('',#1053,1000.);
#309=VECTOR('',#1054,1000.);
#310=VECTOR('',#1055,1000.);
#311=VECTOR('',#1056,1000.);
#312=VECTOR('',#1059,1000.);
#313=VECTOR('',#1060,1000.);
#314=VECTOR('',#1067,1000.);
#315=VECTOR('',#1068,1000.);
#316=VECTOR('',#1071,1000.);
#317=VECTOR('',#1074,1000.);
#318=VECTOR('',#1077,1000.);
#319=VECTOR('',#1078,1000.);
#320=VECTOR('',#1079,1000.);
#321=VECTOR('',#1082,1000.);
#322=VECTOR('',#1087,1000.);
#323=VECTOR('',#1092,1000.);
#324=VECTOR('',#1093,10.);
#325=VECTOR('',#1094,1000.);
#326=VECTOR('',#1095,1000.);
#327=VECTOR('',#1098,1000.);
#328=VECTOR('',#1099,1000.);
#329=VECTOR('',#1102,1000.);
#330=VECTOR('',#1103,1000.);
#331=VECTOR('',#1106,1000.);
#332=VECTOR('',#1107,1000.);
#333=VECTOR('',#1110,1000.);
#334=VECTOR('',#1111,1000.);
#335=VECTOR('',#1112,1000.);
#336=VECTOR('',#1117,1000.);
#337=VECTOR('',#1118,1000.);
#338=VECTOR('',#1121,1000.);
#339=VECTOR('',#1128,1.59999949798483);
#340=VECTOR('',#1133,1.60000166147163);
#341=VECTOR('',#1142,1000.);
#342=VERTEX_POINT('',#1154);
#343=VERTEX_POINT('',#1155);
#344=VERTEX_POINT('',#1157);
#345=VERTEX_POINT('',#1159);
#346=VERTEX_POINT('',#1163);
#347=VERTEX_POINT('',#1165);
#348=VERTEX_POINT('',#1169);
#349=VERTEX_POINT('',#1171);
#350=VERTEX_POINT('',#1175);
#351=VERTEX_POINT('',#1176);
#352=VERTEX_POINT('',#1178);
#353=VERTEX_POINT('',#1180);
#354=VERTEX_POINT('',#1182);
#355=VERTEX_POINT('',#1184);
#356=VERTEX_POINT('',#1188);
#357=VERTEX_POINT('',#1189);
#358=VERTEX_POINT('',#1191);
#359=VERTEX_POINT('',#1193);
#360=VERTEX_POINT('',#1195);
#361=VERTEX_POINT('',#1197);
#362=VERTEX_POINT('',#1202);
#363=VERTEX_POINT('',#1204);
#364=VERTEX_POINT('',#1206);
#365=VERTEX_POINT('',#1208);
#366=VERTEX_POINT('',#1210);
#367=VERTEX_POINT('',#1212);
#368=VERTEX_POINT('',#1216);
#369=VERTEX_POINT('',#1218);
#370=VERTEX_POINT('',#1220);
#371=VERTEX_POINT('',#1224);
#372=VERTEX_POINT('',#1226);
#373=VERTEX_POINT('',#1228);
#374=VERTEX_POINT('',#1230);
#375=VERTEX_POINT('',#1232);
#376=VERTEX_POINT('',#1236);
#377=VERTEX_POINT('',#1238);
#378=VERTEX_POINT('',#1240);
#379=VERTEX_POINT('',#1242);
#380=VERTEX_POINT('',#1246);
#381=VERTEX_POINT('',#1247);
#382=VERTEX_POINT('',#1249);
#383=VERTEX_POINT('',#1251);
#384=VERTEX_POINT('',#1255);
#385=VERTEX_POINT('',#1257);
#386=VERTEX_POINT('',#1261);
#387=VERTEX_POINT('',#1263);
#388=VERTEX_POINT('',#1265);
#389=VERTEX_POINT('',#1269);
#390=VERTEX_POINT('',#1271);
#391=VERTEX_POINT('',#1273);
#392=VERTEX_POINT('',#1275);
#393=VERTEX_POINT('',#1279);
#394=VERTEX_POINT('',#1281);
#395=VERTEX_POINT('',#1283);
#396=VERTEX_POINT('',#1287);
#397=VERTEX_POINT('',#1291);
#398=VERTEX_POINT('',#1293);
#399=VERTEX_POINT('',#1295);
#400=VERTEX_POINT('',#1298);
#401=VERTEX_POINT('',#1301);
#402=VERTEX_POINT('',#1303);
#403=VERTEX_POINT('',#1306);
#404=VERTEX_POINT('',#1309);
#405=VERTEX_POINT('',#1311);
#406=VERTEX_POINT('',#1314);
#407=VERTEX_POINT('',#1316);
#408=VERTEX_POINT('',#1318);
#409=VERTEX_POINT('',#1322);
#410=VERTEX_POINT('',#1324);
#411=VERTEX_POINT('',#1326);
#412=VERTEX_POINT('',#1330);
#413=VERTEX_POINT('',#1336);
#414=VERTEX_POINT('',#1341);
#415=VERTEX_POINT('',#1345);
#416=VERTEX_POINT('',#1348);
#417=VERTEX_POINT('',#1354);
#418=VERTEX_POINT('',#1358);
#419=VERTEX_POINT('',#1362);
#420=EDGE_CURVE('',#342,#343,#146,.T.);
#421=EDGE_CURVE('',#344,#342,#147,.T.);
#422=EDGE_CURVE('',#345,#344,#148,.T.);
#423=EDGE_CURVE('',#343,#345,#149,.T.);
#424=EDGE_CURVE('',#346,#342,#150,.T.);
#425=EDGE_CURVE('',#347,#346,#151,.T.);
#426=EDGE_CURVE('',#344,#347,#152,.T.);
#427=EDGE_CURVE('',#348,#346,#153,.T.);
#428=EDGE_CURVE('',#349,#348,#154,.T.);
#429=EDGE_CURVE('',#347,#349,#155,.T.);
#430=EDGE_CURVE('',#350,#351,#156,.T.);
#431=EDGE_CURVE('',#352,#350,#157,.T.);
#432=EDGE_CURVE('',#353,#352,#158,.T.);
#433=EDGE_CURVE('',#354,#353,#159,.T.);
#434=EDGE_CURVE('',#355,#354,#160,.T.);
#435=EDGE_CURVE('',#351,#355,#161,.T.);
#436=EDGE_CURVE('',#356,#357,#162,.T.);
#437=EDGE_CURVE('',#358,#356,#163,.T.);
#438=EDGE_CURVE('',#359,#358,#164,.T.);
#439=EDGE_CURVE('',#360,#359,#165,.T.);
#440=EDGE_CURVE('',#361,#360,#53,.T.);
#441=EDGE_CURVE('',#357,#361,#166,.T.);
#442=EDGE_CURVE('',#350,#357,#167,.T.);
#443=EDGE_CURVE('',#362,#351,#168,.T.);
#444=EDGE_CURVE('',#363,#362,#39,.T.);
#445=EDGE_CURVE('',#364,#363,#40,.T.);
#446=EDGE_CURVE('',#365,#364,#169,.T.);
#447=EDGE_CURVE('',#366,#365,#41,.T.);
#448=EDGE_CURVE('',#367,#366,#42,.T.);
#449=EDGE_CURVE('',#356,#367,#170,.T.);
#450=EDGE_CURVE('',#368,#361,#171,.T.);
#451=EDGE_CURVE('',#369,#368,#172,.T.);
#452=EDGE_CURVE('',#370,#369,#173,.T.);
#453=EDGE_CURVE('',#352,#370,#43,.T.);
#454=EDGE_CURVE('',#355,#371,#174,.T.);
#455=EDGE_CURVE('',#372,#354,#175,.T.);
#456=EDGE_CURVE('',#373,#372,#176,.T.);
#457=EDGE_CURVE('',#374,#373,#177,.T.);
#458=EDGE_CURVE('',#375,#374,#44,.T.);
#459=EDGE_CURVE('',#371,#375,#45,.T.);
#460=EDGE_CURVE('',#376,#353,#46,.T.);
#461=EDGE_CURVE('',#377,#376,#178,.T.);
#462=EDGE_CURVE('',#378,#377,#54,.T.);
#463=EDGE_CURVE('',#379,#378,#179,.T.);
#464=EDGE_CURVE('',#372,#379,#180,.T.);
#465=EDGE_CURVE('',#380,#381,#181,.T.);
#466=EDGE_CURVE('',#382,#380,#182,.T.);
#467=EDGE_CURVE('',#383,#382,#183,.T.);
#468=EDGE_CURVE('',#381,#383,#184,.T.);
#469=EDGE_CURVE('',#384,#380,#185,.T.);
#470=EDGE_CURVE('',#385,#384,#186,.T.);
#471=EDGE_CURVE('',#382,#385,#187,.T.);
#472=EDGE_CURVE('',#381,#386,#188,.T.);
#473=EDGE_CURVE('',#387,#383,#189,.T.);
#474=EDGE_CURVE('',#388,#387,#190,.T.);
#475=EDGE_CURVE('',#386,#388,#191,.T.);
#476=EDGE_CURVE('',#389,#385,#192,.T.);
#477=EDGE_CURVE('',#390,#389,#193,.T.);
#478=EDGE_CURVE('',#391,#390,#194,.T.);
#479=EDGE_CURVE('',#392,#391,#195,.T.);
#480=EDGE_CURVE('',#387,#392,#196,.T.);
#481=EDGE_CURVE('',#393,#386,#197,.T.);
#482=EDGE_CURVE('',#394,#393,#198,.T.);
#483=EDGE_CURVE('',#395,#394,#199,.T.);
#484=EDGE_CURVE('',#384,#395,#200,.T.);
#485=EDGE_CURVE('',#396,#367,#201,.T.);
#486=EDGE_CURVE('',#358,#396,#202,.T.);
#487=EDGE_CURVE('',#397,#393,#203,.T.);
#488=EDGE_CURVE('',#398,#397,#204,.T.);
#489=EDGE_CURVE('',#399,#398,#205,.T.);
#490=EDGE_CURVE('',#394,#399,#206,.T.);
#491=EDGE_CURVE('',#400,#400,#47,.T.);
#492=EDGE_CURVE('',#372,#401,#207,.T.);
#493=EDGE_CURVE('',#402,#379,#208,.T.);
#494=EDGE_CURVE('',#401,#402,#209,.T.);
#495=EDGE_CURVE('',#403,#403,#48,.T.);
#496=EDGE_CURVE('',#360,#404,#210,.T.);
#497=EDGE_CURVE('',#405,#359,#211,.T.);
#498=EDGE_CURVE('',#399,#405,#212,.T.);
#499=EDGE_CURVE('',#406,#398,#213,.T.);
#500=EDGE_CURVE('',#407,#406,#55,.T.);
#501=EDGE_CURVE('',#408,#407,#214,.T.);
#502=EDGE_CURVE('',#404,#408,#215,.T.);
#503=EDGE_CURVE('',#409,#396,#49,.T.);
#504=EDGE_CURVE('',#410,#409,#50,.T.);
#505=EDGE_CURVE('',#411,#410,#216,.T.);
#506=EDGE_CURVE('',#405,#411,#217,.T.);
#507=EDGE_CURVE('',#412,#376,#218,.T.);
#508=EDGE_CURVE('',#408,#412,#56,.T.);
#509=EDGE_CURVE('',#377,#407,#219,.T.);
#510=EDGE_CURVE('',#345,#402,#220,.T.);
#511=EDGE_CURVE('',#413,#349,#221,.T.);
#512=EDGE_CURVE('',#401,#413,#222,.T.);
#513=EDGE_CURVE('',#373,#413,#223,.T.);
#514=EDGE_CURVE('',#414,#414,#51,.T.);
#515=EDGE_CURVE('',#395,#411,#224,.T.);
#516=EDGE_CURVE('',#415,#415,#52,.T.);
#517=EDGE_CURVE('',#343,#416,#225,.T.);
#518=EDGE_CURVE('',#406,#378,#226,.T.);
#519=EDGE_CURVE('',#388,#397,#227,.T.);
#520=EDGE_CURVE('',#416,#392,#228,.T.);
#521=EDGE_CURVE('',#417,#391,#229,.T.);
#522=EDGE_CURVE('',#416,#417,#230,.T.);
#523=EDGE_CURVE('',#418,#390,#231,.T.);
#524=EDGE_CURVE('',#417,#418,#232,.T.);
#525=EDGE_CURVE('',#419,#389,#233,.T.);
#526=EDGE_CURVE('',#418,#419,#234,.T.);
#527=EDGE_CURVE('',#419,#348,#235,.T.);
#528=EDGE_CURVE('',#365,#410,#236,.T.);
#529=EDGE_CURVE('',#374,#364,#237,.T.);
#530=EDGE_CURVE('',#363,#375,#238,.T.);
#531=EDGE_CURVE('',#371,#362,#239,.T.);
#532=EDGE_CURVE('',#409,#366,#240,.T.);
#533=EDGE_CURVE('',#414,#415,#241,.T.);
#534=EDGE_CURVE('',#403,#400,#242,.T.);
#535=EDGE_CURVE('',#368,#404,#18,.T.);
#536=EDGE_CURVE('',#369,#412,#57,.T.);
#537=EDGE_CURVE('',#376,#370,#243,.T.);
#538=ORIENTED_EDGE('',*,*,#420,.F.);
#539=ORIENTED_EDGE('',*,*,#421,.F.);
#540=ORIENTED_EDGE('',*,*,#422,.F.);
#541=ORIENTED_EDGE('',*,*,#423,.F.);
#542=ORIENTED_EDGE('',*,*,#421,.T.);
#543=ORIENTED_EDGE('',*,*,#424,.F.);
#544=ORIENTED_EDGE('',*,*,#425,.F.);
#545=ORIENTED_EDGE('',*,*,#426,.F.);
#546=ORIENTED_EDGE('',*,*,#425,.T.);
#547=ORIENTED_EDGE('',*,*,#427,.F.);
#548=ORIENTED_EDGE('',*,*,#428,.F.);
#549=ORIENTED_EDGE('',*,*,#429,.F.);
#550=ORIENTED_EDGE('',*,*,#430,.F.);
#551=ORIENTED_EDGE('',*,*,#431,.F.);
#552=ORIENTED_EDGE('',*,*,#432,.F.);
#553=ORIENTED_EDGE('',*,*,#433,.F.);
#554=ORIENTED_EDGE('',*,*,#434,.F.);
#555=ORIENTED_EDGE('',*,*,#435,.F.);
#556=ORIENTED_EDGE('',*,*,#436,.F.);
#557=ORIENTED_EDGE('',*,*,#437,.F.);
#558=ORIENTED_EDGE('',*,*,#438,.F.);
#559=ORIENTED_EDGE('',*,*,#439,.F.);
#560=ORIENTED_EDGE('',*,*,#440,.F.);
#561=ORIENTED_EDGE('',*,*,#441,.F.);
#562=ORIENTED_EDGE('',*,*,#442,.F.);
#563=ORIENTED_EDGE('',*,*,#430,.T.);
#564=ORIENTED_EDGE('',*,*,#443,.F.);
#565=ORIENTED_EDGE('',*,*,#444,.F.);
#566=ORIENTED_EDGE('',*,*,#445,.F.);
#567=ORIENTED_EDGE('',*,*,#446,.F.);
#568=ORIENTED_EDGE('',*,*,#447,.F.);
#569=ORIENTED_EDGE('',*,*,#448,.F.);
#570=ORIENTED_EDGE('',*,*,#449,.F.);
#571=ORIENTED_EDGE('',*,*,#436,.T.);
#572=ORIENTED_EDGE('',*,*,#431,.T.);
#573=ORIENTED_EDGE('',*,*,#442,.T.);
#574=ORIENTED_EDGE('',*,*,#441,.T.);
#575=ORIENTED_EDGE('',*,*,#450,.F.);
#576=ORIENTED_EDGE('',*,*,#451,.F.);
#577=ORIENTED_EDGE('',*,*,#452,.F.);
#578=ORIENTED_EDGE('',*,*,#453,.F.);
#579=ORIENTED_EDGE('',*,*,#454,.F.);
#580=ORIENTED_EDGE('',*,*,#434,.T.);
#581=ORIENTED_EDGE('',*,*,#455,.F.);
#582=ORIENTED_EDGE('',*,*,#456,.F.);
#583=ORIENTED_EDGE('',*,*,#457,.F.);
#584=ORIENTED_EDGE('',*,*,#458,.F.);
#585=ORIENTED_EDGE('',*,*,#459,.F.);
#586=ORIENTED_EDGE('',*,*,#455,.T.);
#587=ORIENTED_EDGE('',*,*,#433,.T.);
#588=ORIENTED_EDGE('',*,*,#460,.F.);
#589=ORIENTED_EDGE('',*,*,#461,.F.);
#590=ORIENTED_EDGE('',*,*,#462,.F.);
#591=ORIENTED_EDGE('',*,*,#463,.F.);
#592=ORIENTED_EDGE('',*,*,#464,.F.);
#593=ORIENTED_EDGE('',*,*,#465,.F.);
#594=ORIENTED_EDGE('',*,*,#466,.F.);
#595=ORIENTED_EDGE('',*,*,#467,.F.);
#596=ORIENTED_EDGE('',*,*,#468,.F.);
#597=ORIENTED_EDGE('',*,*,#466,.T.);
#598=ORIENTED_EDGE('',*,*,#469,.F.);
#599=ORIENTED_EDGE('',*,*,#470,.F.);
#600=ORIENTED_EDGE('',*,*,#471,.F.);
#601=ORIENTED_EDGE('',*,*,#472,.F.);
#602=ORIENTED_EDGE('',*,*,#468,.T.);
#603=ORIENTED_EDGE('',*,*,#473,.F.);
#604=ORIENTED_EDGE('',*,*,#474,.F.);
#605=ORIENTED_EDGE('',*,*,#475,.F.);
#606=ORIENTED_EDGE('',*,*,#473,.T.);
#607=ORIENTED_EDGE('',*,*,#467,.T.);
#608=ORIENTED_EDGE('',*,*,#471,.T.);
#609=ORIENTED_EDGE('',*,*,#476,.F.);
#610=ORIENTED_EDGE('',*,*,#477,.F.);
#611=ORIENTED_EDGE('',*,*,#478,.F.);
#612=ORIENTED_EDGE('',*,*,#479,.F.);
#613=ORIENTED_EDGE('',*,*,#480,.F.);
#614=ORIENTED_EDGE('',*,*,#469,.T.);
#615=ORIENTED_EDGE('',*,*,#465,.T.);
#616=ORIENTED_EDGE('',*,*,#472,.T.);
#617=ORIENTED_EDGE('',*,*,#481,.F.);
#618=ORIENTED_EDGE('',*,*,#482,.F.);
#619=ORIENTED_EDGE('',*,*,#483,.F.);
#620=ORIENTED_EDGE('',*,*,#484,.F.);
#621=ORIENTED_EDGE('',*,*,#437,.T.);
#622=ORIENTED_EDGE('',*,*,#449,.T.);
#623=ORIENTED_EDGE('',*,*,#485,.F.);
#624=ORIENTED_EDGE('',*,*,#486,.F.);
#625=ORIENTED_EDGE('',*,*,#482,.T.);
#626=ORIENTED_EDGE('',*,*,#487,.F.);
#627=ORIENTED_EDGE('',*,*,#488,.F.);
#628=ORIENTED_EDGE('',*,*,#489,.F.);
#629=ORIENTED_EDGE('',*,*,#490,.F.);
#630=ORIENTED_EDGE('',*,*,#491,.F.);
#631=ORIENTED_EDGE('',*,*,#492,.F.);
#632=ORIENTED_EDGE('',*,*,#464,.T.);
#633=ORIENTED_EDGE('',*,*,#493,.F.);
#634=ORIENTED_EDGE('',*,*,#494,.F.);
#635=ORIENTED_EDGE('',*,*,#495,.F.);
#636=ORIENTED_EDGE('',*,*,#496,.F.);
#637=ORIENTED_EDGE('',*,*,#439,.T.);
#638=ORIENTED_EDGE('',*,*,#497,.F.);
#639=ORIENTED_EDGE('',*,*,#498,.F.);
#640=ORIENTED_EDGE('',*,*,#489,.T.);
#641=ORIENTED_EDGE('',*,*,#499,.F.);
#642=ORIENTED_EDGE('',*,*,#500,.F.);
#643=ORIENTED_EDGE('',*,*,#501,.F.);
#644=ORIENTED_EDGE('',*,*,#502,.F.);
#645=ORIENTED_EDGE('',*,*,#497,.T.);
#646=ORIENTED_EDGE('',*,*,#438,.T.);
#647=ORIENTED_EDGE('',*,*,#486,.T.);
#648=ORIENTED_EDGE('',*,*,#503,.F.);
#649=ORIENTED_EDGE('',*,*,#504,.F.);
#650=ORIENTED_EDGE('',*,*,#505,.F.);
#651=ORIENTED_EDGE('',*,*,#506,.F.);
#652=ORIENTED_EDGE('',*,*,#507,.F.);
#653=ORIENTED_EDGE('',*,*,#508,.F.);
#654=ORIENTED_EDGE('',*,*,#501,.T.);
#655=ORIENTED_EDGE('',*,*,#509,.F.);
#656=ORIENTED_EDGE('',*,*,#461,.T.);
#657=ORIENTED_EDGE('',*,*,#510,.F.);
#658=ORIENTED_EDGE('',*,*,#422,.T.);
#659=ORIENTED_EDGE('',*,*,#426,.T.);
#660=ORIENTED_EDGE('',*,*,#429,.T.);
#661=ORIENTED_EDGE('',*,*,#511,.F.);
#662=ORIENTED_EDGE('',*,*,#512,.F.);
#663=ORIENTED_EDGE('',*,*,#494,.T.);
#664=ORIENTED_EDGE('',*,*,#513,.F.);
#665=ORIENTED_EDGE('',*,*,#456,.T.);
#666=ORIENTED_EDGE('',*,*,#492,.T.);
#667=ORIENTED_EDGE('',*,*,#512,.T.);
#668=ORIENTED_EDGE('',*,*,#514,.F.);
#669=ORIENTED_EDGE('',*,*,#515,.F.);
#670=ORIENTED_EDGE('',*,*,#483,.T.);
#671=ORIENTED_EDGE('',*,*,#490,.T.);
#672=ORIENTED_EDGE('',*,*,#498,.T.);
#673=ORIENTED_EDGE('',*,*,#506,.T.);
#674=ORIENTED_EDGE('',*,*,#516,.F.);
#675=ORIENTED_EDGE('',*,*,#517,.F.);
#676=ORIENTED_EDGE('',*,*,#423,.T.);
#677=ORIENTED_EDGE('',*,*,#510,.T.);
#678=ORIENTED_EDGE('',*,*,#493,.T.);
#679=ORIENTED_EDGE('',*,*,#463,.T.);
#680=ORIENTED_EDGE('',*,*,#518,.F.);
#681=ORIENTED_EDGE('',*,*,#499,.T.);
#682=ORIENTED_EDGE('',*,*,#488,.T.);
#683=ORIENTED_EDGE('',*,*,#519,.F.);
#684=ORIENTED_EDGE('',*,*,#474,.T.);
#685=ORIENTED_EDGE('',*,*,#480,.T.);
#686=ORIENTED_EDGE('',*,*,#520,.F.);
#687=ORIENTED_EDGE('',*,*,#520,.T.);
#688=ORIENTED_EDGE('',*,*,#479,.T.);
#689=ORIENTED_EDGE('',*,*,#521,.F.);
#690=ORIENTED_EDGE('',*,*,#522,.F.);
#691=ORIENTED_EDGE('',*,*,#521,.T.);
#692=ORIENTED_EDGE('',*,*,#478,.T.);
#693=ORIENTED_EDGE('',*,*,#523,.F.);
#694=ORIENTED_EDGE('',*,*,#524,.F.);
#695=ORIENTED_EDGE('',*,*,#523,.T.);
#696=ORIENTED_EDGE('',*,*,#477,.T.);
#697=ORIENTED_EDGE('',*,*,#525,.F.);
#698=ORIENTED_EDGE('',*,*,#526,.F.);
#699=ORIENTED_EDGE('',*,*,#511,.T.);
#700=ORIENTED_EDGE('',*,*,#428,.T.);
#701=ORIENTED_EDGE('',*,*,#527,.F.);
#702=ORIENTED_EDGE('',*,*,#525,.T.);
#703=ORIENTED_EDGE('',*,*,#476,.T.);
#704=ORIENTED_EDGE('',*,*,#470,.T.);
#705=ORIENTED_EDGE('',*,*,#484,.T.);
#706=ORIENTED_EDGE('',*,*,#515,.T.);
#707=ORIENTED_EDGE('',*,*,#505,.T.);
#708=ORIENTED_EDGE('',*,*,#528,.F.);
#709=ORIENTED_EDGE('',*,*,#446,.T.);
#710=ORIENTED_EDGE('',*,*,#529,.F.);
#711=ORIENTED_EDGE('',*,*,#457,.T.);
#712=ORIENTED_EDGE('',*,*,#513,.T.);
#713=ORIENTED_EDGE('',*,*,#424,.T.);
#714=ORIENTED_EDGE('',*,*,#420,.T.);
#715=ORIENTED_EDGE('',*,*,#517,.T.);
#716=ORIENTED_EDGE('',*,*,#522,.T.);
#717=ORIENTED_EDGE('',*,*,#524,.T.);
#718=ORIENTED_EDGE('',*,*,#526,.T.);
#719=ORIENTED_EDGE('',*,*,#527,.T.);
#720=ORIENTED_EDGE('',*,*,#427,.T.);
#721=ORIENTED_EDGE('',*,*,#530,.F.);
#722=ORIENTED_EDGE('',*,*,#444,.T.);
#723=ORIENTED_EDGE('',*,*,#531,.F.);
#724=ORIENTED_EDGE('',*,*,#459,.T.);
#725=ORIENTED_EDGE('',*,*,#485,.T.);
#726=ORIENTED_EDGE('',*,*,#448,.T.);
#727=ORIENTED_EDGE('',*,*,#532,.F.);
#728=ORIENTED_EDGE('',*,*,#503,.T.);
#729=ORIENTED_EDGE('',*,*,#532,.T.);
#730=ORIENTED_EDGE('',*,*,#447,.T.);
#731=ORIENTED_EDGE('',*,*,#528,.T.);
#732=ORIENTED_EDGE('',*,*,#504,.T.);
#733=ORIENTED_EDGE('',*,*,#518,.T.);
#734=ORIENTED_EDGE('',*,*,#462,.T.);
#735=ORIENTED_EDGE('',*,*,#509,.T.);
#736=ORIENTED_EDGE('',*,*,#500,.T.);
#737=ORIENTED_EDGE('',*,*,#514,.T.);
#738=ORIENTED_EDGE('',*,*,#533,.T.);
#739=ORIENTED_EDGE('',*,*,#516,.T.);
#740=ORIENTED_EDGE('',*,*,#533,.F.);
#741=ORIENTED_EDGE('',*,*,#529,.T.);
#742=ORIENTED_EDGE('',*,*,#445,.T.);
#743=ORIENTED_EDGE('',*,*,#530,.T.);
#744=ORIENTED_EDGE('',*,*,#458,.T.);
#745=ORIENTED_EDGE('',*,*,#495,.T.);
#746=ORIENTED_EDGE('',*,*,#534,.T.);
#747=ORIENTED_EDGE('',*,*,#491,.T.);
#748=ORIENTED_EDGE('',*,*,#534,.F.);
#749=ORIENTED_EDGE('',*,*,#450,.T.);
#750=ORIENTED_EDGE('',*,*,#440,.T.);
#751=ORIENTED_EDGE('',*,*,#496,.T.);
#752=ORIENTED_EDGE('',*,*,#535,.F.);
#753=ORIENTED_EDGE('',*,*,#536,.F.);
#754=ORIENTED_EDGE('',*,*,#451,.T.);
#755=ORIENTED_EDGE('',*,*,#535,.T.);
#756=ORIENTED_EDGE('',*,*,#502,.T.);
#757=ORIENTED_EDGE('',*,*,#508,.T.);
#758=ORIENTED_EDGE('',*,*,#460,.T.);
#759=ORIENTED_EDGE('',*,*,#432,.T.);
#760=ORIENTED_EDGE('',*,*,#453,.T.);
#761=ORIENTED_EDGE('',*,*,#537,.F.);
#762=ORIENTED_EDGE('',*,*,#443,.T.);
#763=ORIENTED_EDGE('',*,*,#435,.T.);
#764=ORIENTED_EDGE('',*,*,#454,.T.);
#765=ORIENTED_EDGE('',*,*,#531,.T.);
#766=ORIENTED_EDGE('',*,*,#537,.T.);
#767=ORIENTED_EDGE('',*,*,#452,.T.);
#768=ORIENTED_EDGE('',*,*,#536,.T.);
#769=ORIENTED_EDGE('',*,*,#507,.T.);
#770=ORIENTED_EDGE('',*,*,#481,.T.);
#771=ORIENTED_EDGE('',*,*,#475,.T.);
#772=ORIENTED_EDGE('',*,*,#519,.T.);
#773=ORIENTED_EDGE('',*,*,#487,.T.);
#774=PLANE('',#863);
#775=PLANE('',#864);
#776=PLANE('',#865);
#777=PLANE('',#866);
#778=PLANE('',#867);
#779=PLANE('',#869);
#780=PLANE('',#874);
#781=PLANE('',#876);
#782=PLANE('',#879);
#783=PLANE('',#882);
#784=PLANE('',#883);
#785=PLANE('',#884);
#786=PLANE('',#885);
#787=PLANE('',#886);
#788=PLANE('',#887);
#789=PLANE('',#888);
#790=PLANE('',#890);
#791=PLANE('',#892);
#792=PLANE('',#894);
#793=PLANE('',#897);
#794=PLANE('',#899);
#795=PLANE('',#900);
#796=PLANE('',#902);
#797=PLANE('',#904);
#798=PLANE('',#905);
#799=PLANE('',#906);
#800=PLANE('',#907);
#801=PLANE('',#908);
#802=PLANE('',#909);
#803=PLANE('',#921);
#804=PLANE('',#922);
#805=PLANE('',#923);
#806=ADVANCED_FACE('',(#58),#774,.T.);
#807=ADVANCED_FACE('',(#59),#775,.T.);
#808=ADVANCED_FACE('',(#60),#776,.T.);
#809=ADVANCED_FACE('',(#61),#777,.T.);
#810=ADVANCED_FACE('',(#62),#778,.F.);
#811=ADVANCED_FACE('',(#63),#779,.F.);
#812=ADVANCED_FACE('',(#64),#780,.F.);
#813=ADVANCED_FACE('',(#65),#781,.F.);
#814=ADVANCED_FACE('',(#66),#782,.T.);
#815=ADVANCED_FACE('',(#67),#783,.T.);
#816=ADVANCED_FACE('',(#68),#784,.F.);
#817=ADVANCED_FACE('',(#69),#785,.F.);
#818=ADVANCED_FACE('',(#70),#786,.F.);
#819=ADVANCED_FACE('',(#71),#787,.F.);
#820=ADVANCED_FACE('',(#72),#788,.F.);
#821=ADVANCED_FACE('',(#73,#29),#789,.T.);
#822=ADVANCED_FACE('',(#74,#30),#790,.F.);
#823=ADVANCED_FACE('',(#75),#791,.F.);
#824=ADVANCED_FACE('',(#76),#792,.T.);
#825=ADVANCED_FACE('',(#77),#793,.F.);
#826=ADVANCED_FACE('',(#78),#794,.T.);
#827=ADVANCED_FACE('',(#79,#31),#795,.F.);
#828=ADVANCED_FACE('',(#80,#32),#796,.T.);
#829=ADVANCED_FACE('',(#81),#797,.F.);
#830=ADVANCED_FACE('',(#82),#798,.T.);
#831=ADVANCED_FACE('',(#83),#799,.F.);
#832=ADVANCED_FACE('',(#84),#800,.T.);
#833=ADVANCED_FACE('',(#85),#801,.T.);
#834=ADVANCED_FACE('',(#86),#802,.T.);
#835=ADVANCED_FACE('',(#87),#19,.F.);
#836=ADVANCED_FACE('',(#88),#20,.T.);
#837=ADVANCED_FACE('',(#89),#21,.F.);
#838=ADVANCED_FACE('',(#90),#22,.F.);
#839=ADVANCED_FACE('',(#91),#23,.F.);
#840=ADVANCED_FACE('',(#92),#24,.T.);
#841=ADVANCED_FACE('',(#93),#25,.F.);
#842=ADVANCED_FACE('',(#94),#26,.T.);
#843=ADVANCED_FACE('',(#95),#27,.T.);
#844=ADVANCED_FACE('',(#96),#28,.T.);
#845=ADVANCED_FACE('',(#97),#803,.T.);
#846=ADVANCED_FACE('',(#98),#804,.F.);
#847=ADVANCED_FACE('',(#99),#805,.F.);
#848=CLOSED_SHELL('',(#806,#807,#808,#809,#810,#811,#812,#813,#814,#815,
#816,#817,#818,#819,#820,#821,#822,#823,#824,#825,#826,#827,#828,#829,#830,
#831,#832,#833,#834,#835,#836,#837,#838,#839,#840,#841,#842,#843,#844,#845,
#846,#847));
#849=DERIVED_UNIT_ELEMENT(#851,1.);
#850=DERIVED_UNIT_ELEMENT(#1406,-3.);
#851=(
MASS_UNIT()
NAMED_UNIT(*)
SI_UNIT(.KILO.,.GRAM.)
);
#852=DERIVED_UNIT((#849,#850));
#853=MEASURE_REPRESENTATION_ITEM('density measure',
POSITIVE_RATIO_MEASURE(7850.),#852);
#854=PROPERTY_DEFINITION_REPRESENTATION(#859,#856);
#855=PROPERTY_DEFINITION_REPRESENTATION(#860,#857);
#856=REPRESENTATION('material name',(#858),#1403);
#857=REPRESENTATION('density',(#853),#1403);
#858=DESCRIPTIVE_REPRESENTATION_ITEM('Steel','Steel');
#859=PROPERTY_DEFINITION('material property','material name',#1418);
#860=PROPERTY_DEFINITION('material property','density of part',#1418);
#861=AXIS2_PLACEMENT_3D('',#1151,#925,#926);
#862=AXIS2_PLACEMENT_3D('',#1152,#927,#928);
#863=AXIS2_PLACEMENT_3D('',#1153,#929,#930);
#864=AXIS2_PLACEMENT_3D('',#1162,#935,#936);
#865=AXIS2_PLACEMENT_3D('',#1168,#940,#941);
#866=AXIS2_PLACEMENT_3D('',#1174,#945,#946);
#867=AXIS2_PLACEMENT_3D('',#1187,#953,#954);
#868=AXIS2_PLACEMENT_3D('',#1198,#959,#960);
#869=AXIS2_PLACEMENT_3D('',#1200,#962,#963);
#870=AXIS2_PLACEMENT_3D('',#1205,#966,#967);
#871=AXIS2_PLACEMENT_3D('',#1207,#968,#969);
#872=AXIS2_PLACEMENT_3D('',#1211,#971,#972);
#873=AXIS2_PLACEMENT_3D('',#1213,#973,#974);
#874=AXIS2_PLACEMENT_3D('',#1215,#976,#977);
#875=AXIS2_PLACEMENT_3D('',#1222,#981,#982);
#876=AXIS2_PLACEMENT_3D('',#1223,#983,#984);
#877=AXIS2_PLACEMENT_3D('',#1233,#989,#990);
#878=AXIS2_PLACEMENT_3D('',#1234,#991,#992);
#879=AXIS2_PLACEMENT_3D('',#1235,#993,#994);
#880=AXIS2_PLACEMENT_3D('',#1237,#995,#996);
#881=AXIS2_PLACEMENT_3D('',#1241,#998,#999);
#882=AXIS2_PLACEMENT_3D('',#1245,#1002,#1003);
#883=AXIS2_PLACEMENT_3D('',#1254,#1008,#1009);
#884=AXIS2_PLACEMENT_3D('',#1260,#1013,#1014);
#885=AXIS2_PLACEMENT_3D('',#1268,#1019,#1020);
#886=AXIS2_PLACEMENT_3D('',#1278,#1026,#1027);
#887=AXIS2_PLACEMENT_3D('',#1286,#1032,#1033);
#888=AXIS2_PLACEMENT_3D('',#1290,#1036,#1037);
#889=AXIS2_PLACEMENT_3D('',#1299,#1042,#1043);
#890=AXIS2_PLACEMENT_3D('',#1300,#1044,#1045);
#891=AXIS2_PLACEMENT_3D('',#1307,#1049,#1050);
#892=AXIS2_PLACEMENT_3D('',#1308,#1051,#1052);
#893=AXIS2_PLACEMENT_3D('',#1317,#1057,#1058);
#894=AXIS2_PLACEMENT_3D('',#1321,#1061,#1062);
#895=AXIS2_PLACEMENT_3D('',#1323,#1063,#1064);
#896=AXIS2_PLACEMENT_3D('',#1325,#1065,#1066);
#897=AXIS2_PLACEMENT_3D('',#1329,#1069,#1070);
#898=AXIS2_PLACEMENT_3D('',#1332,#1072,#1073);
#899=AXIS2_PLACEMENT_3D('',#1334,#1075,#1076);
#900=AXIS2_PLACEMENT_3D('',#1339,#1080,#1081);
#901=AXIS2_PLACEMENT_3D('',#1342,#1083,#1084);
#902=AXIS2_PLACEMENT_3D('',#1343,#1085,#1086);
#903=AXIS2_PLACEMENT_3D('',#1346,#1088,#1089);
#904=AXIS2_PLACEMENT_3D('',#1347,#1090,#1091);
#905=AXIS2_PLACEMENT_3D('',#1353,#1096,#1097);
#906=AXIS2_PLACEMENT_3D('',#1357,#1100,#1101);
#907=AXIS2_PLACEMENT_3D('',#1361,#1104,#1105);
#908=AXIS2_PLACEMENT_3D('',#1365,#1108,#1109);
#909=AXIS2_PLACEMENT_3D('',#1369,#1113,#1114);
#910=AXIS2_PLACEMENT_3D('',#1370,#1115,#1116);
#911=AXIS2_PLACEMENT_3D('',#1373,#1119,#1120);
#912=AXIS2_PLACEMENT_3D('',#1375,#1122,#1123);
#913=AXIS2_PLACEMENT_3D('',#1376,#1124,#1125);
#914=AXIS2_PLACEMENT_3D('',#1377,#1126,#1127);
#915=AXIS2_PLACEMENT_3D('',#1379,#1129,#1130);
#916=AXIS2_PLACEMENT_3D('',#1380,#1131,#1132);
#917=AXIS2_PLACEMENT_3D('',#1382,#1134,#1135);
#918=AXIS2_PLACEMENT_3D('',#1391,#1136,#1137);
#919=AXIS2_PLACEMENT_3D('',#1392,#1138,#1139);
#920=AXIS2_PLACEMENT_3D('',#1393,#1140,#1141);
#921=AXIS2_PLACEMENT_3D('',#1395,#1143,#1144);
#922=AXIS2_PLACEMENT_3D('',#1396,#1145,#1146);
#923=AXIS2_PLACEMENT_3D('',#1397,#1147,#1148);
#924=AXIS2_PLACEMENT_3D('',#1398,#1149,#1150);
#925=DIRECTION('axis',(0.,0.,1.));
#926=DIRECTION('refdir',(1.,0.,0.));
#927=DIRECTION('axis',(0.,0.,1.));
#928=DIRECTION('refdir',(1.,0.,0.));
#929=DIRECTION('center_axis',(4.12554458838403E-15,0.943858005533749,0.330351427104309));
#930=DIRECTION('ref_axis',(-1.,4.37093775143757E-15,-1.57772181044202E-30));
#931=DIRECTION('',(-1.,4.37093775143757E-15,0.));
#932=DIRECTION('',(-0.0752889433015079,-0.329413810372154,0.941179109709008));
#933=DIRECTION('',(1.,-4.37093775143757E-15,0.));
#934=DIRECTION('',(1.43496321330439E-15,0.330351427104309,-0.943858005533749));
#935=DIRECTION('center_axis',(0.410028720008419,0.850143794865727,0.330351293049624));
#936=DIRECTION('ref_axis',(-0.900711492216703,0.434417780240128,2.63677968348475E-16));
#937=DIRECTION('',(-0.900711492216703,0.434417780240128,0.));
#938=DIRECTION('',(-0.0752889433015093,-0.329413810372153,0.941179109709008));
#939=DIRECTION('',(0.900711492216703,-0.434417780240128,0.));
#940=DIRECTION('center_axis',(4.0711362525434E-15,0.943858005533749,0.330351427104308));
#941=DIRECTION('ref_axis',(-1.,4.31329313167311E-15,3.94430452610506E-31));
#942=DIRECTION('',(-1.,4.31329313167311E-15,0.));
#943=DIRECTION('',(-1.43496321330439E-15,-0.330351427104308,0.943858005533749));
#944=DIRECTION('',(1.,-4.31329313167311E-15,0.));
#945=DIRECTION('center_axis',(0.,0.,1.));
#946=DIRECTION('ref_axis',(-4.34374758384592E-15,-1.,0.));
#947=DIRECTION('',(1.,-4.34374758384592E-15,0.));
#948=DIRECTION('',(0.969409638731756,0.245448471850949,0.));
#949=DIRECTION('',(-0.245447116323138,0.969409981941932,-3.64049120537486E-17));
#950=DIRECTION('',(-0.969409628719693,-0.245448511394032,0.));
#951=DIRECTION('',(-1.,4.34374758384592E-15,0.));
#952=DIRECTION('',(-4.34374758384592E-15,-1.,0.));
#953=DIRECTION('center_axis',(0.,0.,1.));
#954=DIRECTION('ref_axis',(-4.34374758384592E-15,-1.,0.));
#955=DIRECTION('',(-1.,4.34374758384592E-15,0.));
#956=DIRECTION('',(4.34374758384592E-15,1.,0.));
#957=DIRECTION('',(1.,-4.34374758384592E-15,0.));
#958=DIRECTION('',(0.969409635505197,0.245448484594389,0.));
#959=DIRECTION('center_axis',(0.,0.,-1.));
#960=DIRECTION('ref_axis',(-0.969409159044478,-0.245450366389375,0.));
#961=DIRECTION('',(-0.969409638731756,-0.245448471850949,0.));
#962=DIRECTION('center_axis',(-4.34374758384592E-15,-1.,0.));
#963=DIRECTION('ref_axis',(-1.,4.34374758384592E-15,0.));
#964=DIRECTION('',(1.21578820261832E-6,-5.2810770675917E-21,-0.999999999999261));
#965=DIRECTION('',(-0.820515051006283,3.56411027031775E-15,0.571624921668184));
#966=DIRECTION('center_axis',(4.34374758384592E-15,1.,0.));
#967=DIRECTION('ref_axis',(-0.571624921668183,2.48299437236228E-15,-0.820515051006283));
#968=DIRECTION('center_axis',(-4.34374758384592E-15,-1.,0.));
#969=DIRECTION('ref_axis',(-1.,4.34374758384592E-15,0.));
#970=DIRECTION('',(0.,0.,1.));
#971=DIRECTION('center_axis',(1.67392038270887E-13,1.,0.));
#972=DIRECTION('ref_axis',(-1.,1.67392038270887E-13,0.));
#973=DIRECTION('center_axis',(-4.34374758384592E-15,-1.,0.));
#974=DIRECTION('ref_axis',(-0.571625070606149,2.48299501931121E-15,-0.820514947246249));
#975=DIRECTION('',(0.82051494724625,-3.56410981961036E-15,-0.571625070606149));
#976=DIRECTION('center_axis',(0.245448471850938,-0.969409638731713,2.98413356427292E-7));
#977=DIRECTION('ref_axis',(1.21578820261833E-6,-3.97046694025453E-21,-0.999999999999261));
#978=DIRECTION('',(0.696038775360461,0.176232889217438,0.696040222941738));
#979=DIRECTION('',(-9.07192672120206E-8,2.84860434524592E-7,0.999999999999955));
#980=DIRECTION('',(0.684128568034572,0.173216866678998,-0.708494191575962));
#981=DIRECTION('center_axis',(0.245448471850938,-0.969409638731713,2.98413356446851E-7));
#982=DIRECTION('ref_axis',(0.376236254992017,0.0952609559209013,0.92161360162848));
#983=DIRECTION('center_axis',(-4.34374758384592E-15,-1.,0.));
#984=DIRECTION('ref_axis',(-1.,4.34374758384592E-15,0.));
#985=DIRECTION('',(0.820515051006283,-3.56411027031775E-15,-0.571624921668184));
#986=DIRECTION('',(4.63587527773217E-7,-2.01370720366602E-21,-0.999999999999893));
#987=DIRECTION('',(-0.999999999999997,4.34374758384591E-15,-7.50126486791468E-8));
#988=DIRECTION('',(0.,0.,1.));
#989=DIRECTION('center_axis',(4.34374758384592E-15,1.,0.));
#990=DIRECTION('ref_axis',(-1.,4.34374758384592E-15,0.));
#991=DIRECTION('center_axis',(-4.34374758384592E-15,-1.,0.));
#992=DIRECTION('ref_axis',(-0.571624921668183,2.48299437236228E-15,-0.820515051006283));
#993=DIRECTION('center_axis',(-0.24544851139403,0.969409628719687,-1.13786868592788E-7));
#994=DIRECTION('ref_axis',(5.75717706336907E-22,1.17377489578959E-7,0.999999999999993));
#995=DIRECTION('center_axis',(-0.24544851139403,0.969409628719687,-1.13786868594279E-7));
#996=DIRECTION('ref_axis',(0.328108370266623,0.0830751167959795,0.940980032907349));
#997=DIRECTION('',(0.684128476384977,0.17321700810357,-0.708494245497321));
#998=DIRECTION('center_axis',(-0.245448511432595,0.969409628709923,-1.1384182996423E-7));
#999=DIRECTION('ref_axis',(0.969409628709929,0.245448511432591,-5.08093637019913E-8));
#1000=DIRECTION('',(-5.09858186756506E-22,-1.1737748957896E-7,-0.999999999999993));
#1001=DIRECTION('',(-0.969409628719691,-0.245448511394037,-5.07338617533075E-8));
#1002=DIRECTION('center_axis',(0.434417780240127,0.900711492216704,0.));
#1003=DIRECTION('ref_axis',(-0.900711492216704,0.434417780240127,0.));
#1004=DIRECTION('',(-0.900711492216703,0.434417780240127,0.));
#1005=DIRECTION('',(0.,0.,1.));
#1006=DIRECTION('',(0.900711492216703,-0.434417780240127,0.));
#1007=DIRECTION('',(0.,0.,-1.));
#1008=DIRECTION('center_axis',(-4.34374758384592E-15,-1.,0.));
#1009=DIRECTION('ref_axis',(-1.,4.34374758384592E-15,0.));
#1010=DIRECTION('',(-1.,4.34374758384592E-15,0.));
#1011=DIRECTION('',(0.,0.,1.));
#1012=DIRECTION('',(1.,-4.34374758384592E-15,0.));
#1013=DIRECTION('center_axis',(-4.34374758384592E-15,-1.,0.));
#1014=DIRECTION('ref_axis',(-1.,4.34374758384592E-15,0.));
#1015=DIRECTION('',(-1.,4.34374758384592E-15,0.));
#1016=DIRECTION('',(1.,-4.34374758384592E-15,0.));
#1017=DIRECTION('',(0.,0.,-1.));
#1018=DIRECTION('',(-0.999550363672403,4.34179447713431E-15,-0.0299845040373737));
#1019=DIRECTION('center_axis',(0.,0.,1.));
#1020=DIRECTION('ref_axis',(-4.34374758384592E-15,-1.,0.));
#1021=DIRECTION('',(4.34374758384592E-15,1.,0.));
#1022=DIRECTION('',(1.,-4.34374758384592E-15,0.));
#1023=DIRECTION('',(0.900711519692412,-0.434417723272642,0.));
#1024=DIRECTION('',(1.,-4.34374758384592E-15,0.));
#1025=DIRECTION('',(-4.34374758384592E-15,-1.,0.));
#1026=DIRECTION('center_axis',(0.,0.,1.));
#1027=DIRECTION('ref_axis',(-4.34374758384592E-15,-1.,0.));
#1028=DIRECTION('',(-4.34374758384592E-15,-1.,0.));
#1029=DIRECTION('',(-0.969409603030129,-0.245448612856067,0.));
#1030=DIRECTION('',(-1.,7.49412625612199E-9,0.));
#1031=DIRECTION('',(4.34374758384592E-15,1.,0.));
#1032=DIRECTION('center_axis',(0.571625070606149,-2.48299501931121E-15,
0.82051494724625));
#1033=DIRECTION('ref_axis',(4.34374758384592E-15,1.,-2.76101316827354E-30));
#1034=DIRECTION('',(4.34374758384592E-15,1.,0.));
#1035=DIRECTION('',(0.82051494724625,-3.56410981961036E-15,-0.571625070606149));
#1036=DIRECTION('center_axis',(0.229186686047004,-0.90518244024831,-0.357936045690997));
#1037=DIRECTION('ref_axis',(0.842156420250323,-3.5527136788005E-15,0.539233311129015));
#1038=DIRECTION('',(0.97167968987856,0.234497225433059,0.0291484397816163));
#1039=DIRECTION('',(-1.59729998938427E-15,-0.367723943104914,0.929934998624836));
#1040=DIRECTION('',(-0.969409635505129,-0.245448484594413,-3.4515393397929E-7));
#1041=DIRECTION('',(0.0167568778688099,0.371338482253695,-0.928346346274714));
#1042=DIRECTION('center_axis',(0.229186686047004,-0.90518244024831,-0.357936045690997));
#1043=DIRECTION('ref_axis',(0.969409584471283,0.245448686154916,-1.97248287772678E-7));
#1044=DIRECTION('center_axis',(0.229186607981939,-0.905182456108455,-0.357936055567468));
#1045=DIRECTION('ref_axis',(0.84215651041626,-3.66373598126301E-15,0.539233170310867));
#1046=DIRECTION('',(-0.0167570660574131,-0.371338524115034,0.928346326133311));
#1047=DIRECTION('',(1.59730000329593E-15,0.367723946307602,-0.929934997358398));
#1048=DIRECTION('',(-0.969409623946213,-0.2454485302471,0.));
#1049=DIRECTION('center_axis',(-0.22918660798194,0.905182456108455,0.357936055567468));
#1050=DIRECTION('ref_axis',(0.969409602707637,0.245448614129661,-2.25729199429536E-7));
#1051=DIRECTION('center_axis',(-0.245448484594388,0.96940963550519,-1.14256787356897E-7));
#1052=DIRECTION('ref_axis',(5.42630481834786E-22,1.1786223611998E-7,0.999999999999993));
#1053=DIRECTION('',(-0.696038488897049,-0.176232694197923,-0.696040558782069));
#1054=DIRECTION('',(4.65502109518813E-7,-2.02202366349752E-21,-0.999999999999892));
#1055=DIRECTION('',(0.826255483006026,0.209202682753271,-0.523006801419745));
#1056=DIRECTION('',(5.11963803372845E-22,1.17862236119981E-7,0.999999999999993));
#1057=DIRECTION('center_axis',(0.245448484631329,-0.969409635495837,1.14309427976095E-7));
#1058=DIRECTION('ref_axis',(0.969409635495843,0.245448484631325,-5.08322702946812E-8));
#1059=DIRECTION('',(-0.684128478810591,-0.173216988248873,0.708494248009323));
#1060=DIRECTION('',(-2.35126696489649E-8,-1.23815497761072E-7,-0.999999999999992));
#1061=DIRECTION('center_axis',(-4.34374758384592E-15,-1.,0.));
#1062=DIRECTION('ref_axis',(-1.,4.34374758384592E-15,0.));
#1063=DIRECTION('center_axis',(4.34374758384592E-15,1.,0.));
#1064=DIRECTION('ref_axis',(-0.571625070606149,2.48299501931121E-15,-0.820514947246249));
#1065=DIRECTION('center_axis',(-1.67392038270887E-13,-1.,0.));
#1066=DIRECTION('ref_axis',(-1.,1.67392038270887E-13,0.));
#1067=DIRECTION('',(0.,0.,-1.));
#1068=DIRECTION('',(1.,-4.34374758384592E-15,-1.87353076129186E-8));
#1069=DIRECTION('center_axis',(0.719368433771913,1.10968720252018E-7,0.694628718447872));
#1070=DIRECTION('ref_axis',(-1.54258534350982E-7,0.999999999999988,6.61744490042422E-23));
#1071=DIRECTION('',(-0.684128424320156,-0.173217434275871,0.708494191578241));
#1072=DIRECTION('center_axis',(0.719368413449388,1.02110261803732E-7,0.694628739494199));
#1073=DIRECTION('ref_axis',(0.694628739494098,-6.6380289560744E-7,-0.719368413449186));
#1074=DIRECTION('',(1.17171749611519E-8,-0.999999999999989,1.47618075399717E-7));
#1075=DIRECTION('center_axis',(0.,0.,1.));
#1076=DIRECTION('ref_axis',(-4.34374758384592E-15,-1.,0.));
#1077=DIRECTION('',(4.34374758384592E-15,1.,0.));
#1078=DIRECTION('',(-4.34374758384592E-15,-1.,0.));
#1079=DIRECTION('',(1.,3.00050545751347E-8,0.));
#1080=DIRECTION('center_axis',(2.78589938525443E-8,-0.928476693244586,-0.371390670455786));
#1081=DIRECTION('ref_axis',(0.999999999999997,-4.34374763016804E-15,7.50126486791468E-8));
#1082=DIRECTION('',(-1.61322732745524E-15,-0.371390670455786,0.928476693244586));
#1083=DIRECTION('center_axis',(-2.78589938525444E-8,0.928476693244586,0.371390670455786));
#1084=DIRECTION('ref_axis',(-4.60916831354982E-14,0.371390670455786,-0.928476693244586));
#1085=DIRECTION('center_axis',(-6.95812169243253E-9,-0.92847671024336,-0.371390627958849));
#1086=DIRECTION('ref_axis',(1.,-4.34374756812949E-15,-1.87353076129187E-8));
#1087=DIRECTION('',(1.61322714285927E-15,0.371390627958849,-0.92847671024336));
#1088=DIRECTION('center_axis',(-6.95812169243253E-9,-0.92847671024336,-0.371390627958849));
#1089=DIRECTION('ref_axis',(-4.60916834465181E-14,0.371390627958849,-0.92847671024336));
#1090=DIRECTION('center_axis',(1.,-4.34374758384592E-15,0.));
#1091=DIRECTION('ref_axis',(0.,0.,-1.));
#1092=DIRECTION('',(-4.34374758384592E-15,-1.,0.));
#1093=DIRECTION('',(-1.76061449940109E-11,0.999999999999901,-4.44226220162457E-7));
#1094=DIRECTION('',(4.34374758384592E-15,1.,-1.96280277315258E-20));
#1095=DIRECTION('',(0.,0.,-1.));
#1096=DIRECTION('center_axis',(-4.34374758384592E-15,-1.,0.));
#1097=DIRECTION('ref_axis',(-1.,4.34374758384592E-15,0.));
#1098=DIRECTION('',(0.,0.,-1.));
#1099=DIRECTION('',(1.,-4.34374758384592E-15,0.));
#1100=DIRECTION('center_axis',(0.434417723272642,0.900711519692412,0.));
#1101=DIRECTION('ref_axis',(-0.900711519692412,0.434417723272642,0.));
#1102=DIRECTION('',(0.,0.,-1.));
#1103=DIRECTION('',(0.900711519692412,-0.434417723272642,0.));
#1104=DIRECTION('center_axis',(-4.34374758384592E-15,-1.,0.));
#1105=DIRECTION('ref_axis',(-1.,4.34374758384592E-15,0.));
#1106=DIRECTION('',(0.,0.,-1.));
#1107=DIRECTION('',(1.,-4.34374758384592E-15,0.));
#1108=DIRECTION('center_axis',(1.,-4.34374758384592E-15,0.));
#1109=DIRECTION('ref_axis',(0.,0.,-1.));
#1110=DIRECTION('',(4.34374758384592E-15,1.,0.));
#1111=DIRECTION('',(-1.67392038270887E-13,-1.,2.74484962832687E-13));
#1112=DIRECTION('',(4.34374758384592E-15,1.,0.));
#1113=DIRECTION('center_axis',(0.,0.,1.));
#1114=DIRECTION('ref_axis',(-4.34374758384592E-15,-1.,0.));
#1115=DIRECTION('center_axis',(4.34374758384592E-15,1.,0.));
#1116=DIRECTION('ref_axis',(-0.571624921668183,2.48299437236228E-15,-0.820515051006283));
#1117=DIRECTION('',(-4.34374758384592E-15,-1.,0.));
#1118=DIRECTION('',(4.34374758384592E-15,1.,0.));
#1119=DIRECTION('center_axis',(-4.34374758384592E-15,-1.,0.));
#1120=DIRECTION('ref_axis',(-0.571625070606149,2.48299501931121E-15,-0.820514947246249));
#1121=DIRECTION('',(4.34374758384592E-15,1.,0.));
#1122=DIRECTION('center_axis',(1.67392038270887E-13,1.,-2.74484962832687E-13));
#1123=DIRECTION('ref_axis',(-1.,1.67392038270887E-13,-1.86546024104377E-28));
#1124=DIRECTION('center_axis',(-7.4204970560586E-7,0.999999999999686,-2.76970299672321E-7));
#1125=DIRECTION('ref_axis',(0.999915856629894,7.38394334915079E-7,-0.0129722650127034));
#1126=DIRECTION('center_axis',(1.20614523943399E-13,-0.928476943711696,
-0.371390044287389));
#1127=DIRECTION('ref_axis',(1.,1.29334028816767E-13,1.42938713046499E-15));
#1128=DIRECTION('',(1.20614523943399E-13,-0.928476943711696,-0.371390044287389));
#1129=DIRECTION('center_axis',(4.34374758384592E-15,1.,0.));
#1130=DIRECTION('ref_axis',(-1.,4.34374758384592E-15,0.));
#1131=DIRECTION('center_axis',(0.229187235812589,-0.90518236640974,-0.357935880405204));
#1132=DIRECTION('ref_axis',(0.96940945817286,0.245449184975227,-9.02056207507939E-16));
#1133=DIRECTION('',(0.229187235812589,-0.90518236640974,-0.357935880405204));
#1134=DIRECTION('center_axis',(0.696038446219362,0.17623404275456,0.696040260012968));
#1135=DIRECTION('ref_axis',(4.19109191795997E-15,0.969409310026166,-0.245449770084621));
#1136=DIRECTION('center_axis',(-4.78309926864818E-15,-2.21318646007917E-16,
1.));
#1137=DIRECTION('ref_axis',(4.34374758384592E-15,1.,2.21318646007938E-16));
#1138=DIRECTION('center_axis',(-0.686819724918035,-0.173904240825777,-0.705716643197768));
#1139=DIRECTION('ref_axis',(0.684127148120863,0.173222474553217,-0.708494191587817));
#1140=DIRECTION('center_axis',(0.245449184213092,-0.969409458363674,2.04337369878884E-6));
#1141=DIRECTION('ref_axis',(0.969409458365698,0.245449184213605,1.16467030247466E-21));
#1142=DIRECTION('',(-0.245451660302265,0.969408831419157,-4.62659951024421E-6));
#1143=DIRECTION('center_axis',(0.571624921668184,-2.48299437236229E-15,
0.820515051006283));
#1144=DIRECTION('ref_axis',(4.34374758384592E-15,1.,1.97215226305253E-30));
#1145=DIRECTION('center_axis',(0.686819724918035,0.173904240825777,0.705716643197768));
#1146=DIRECTION('ref_axis',(-0.24545612778566,0.969407700264687,1.80411241501588E-16));
#1147=DIRECTION('center_axis',(-0.0299845040373737,1.30264736167417E-16,
0.999550363672403));
#1148=DIRECTION('ref_axis',(-4.34440189522732E-15,-1.,-5.42341872339446E-31));
#1149=DIRECTION('',(0.,0.,1.));
#1150=DIRECTION('',(1.,0.,0.));
#1151=CARTESIAN_POINT('',(0.,0.,0.));
#1152=CARTESIAN_POINT('',(0.,0.,0.));
#1153=CARTESIAN_POINT('Origin',(-125.720774888992,72.5780034065251,108.892304897309));
#1154=CARTESIAN_POINT('',(-95.4179356098177,72.2280025482181,109.892303943634));
#1155=CARTESIAN_POINT('',(-155.903608369827,72.2280025482183,109.892303943634));
#1156=CARTESIAN_POINT('',(-107.263982355595,72.2280025482181,109.892303943634));
#1157=CARTESIAN_POINT('',(-95.2579472064967,72.9280042648318,107.892305850983));
#1158=CARTESIAN_POINT('',(-95.4704661180957,71.9981643524077,110.548982266457));
#1159=CARTESIAN_POINT('',(-155.903608369827,72.928004264832,107.892305850983));
#1160=CARTESIAN_POINT('',(-110.349062613079,72.9280042648318,107.892305850983));
#1161=CARTESIAN_POINT('',(-155.903608369827,72.5780034065252,108.892304897309));
#1162=CARTESIAN_POINT('Origin',(-80.5879423618314,65.4640030860903,108.892304897309));
#1163=CARTESIAN_POINT('',(-65.9179375171659,58.0000019073487,109.892303943634));
#1164=CARTESIAN_POINT('',(-83.7121102678288,66.5822228452965,109.892303943634));
#1165=CARTESIAN_POINT('',(-65.7579491138455,58.7000036239625,107.892305850983));
#1166=CARTESIAN_POINT('',(-65.7508104048786,58.7312378161138,107.80306560593));
#1167=CARTESIAN_POINT('',(-88.346950632152,69.594795110716,107.892305850983));
#1168=CARTESIAN_POINT('Origin',(-51.4707753658293,58.3500027656556,108.892304897309));
#1169=CARTESIAN_POINT('',(-37.1036074161527,58.0000019073486,109.892303943634));
#1170=CARTESIAN_POINT('',(-70.138982594013,58.0000019073488,109.892303943634));
#1171=CARTESIAN_POINT('',(-37.1036074161527,58.7000036239624,107.892305850983));
#1172=CARTESIAN_POINT('',(-37.1036074161526,64.1490416177304,92.3236788952667));
#1173=CARTESIAN_POINT('',(-73.2240628514968,58.7000036239626,107.892305850983));
#1174=CARTESIAN_POINT('Origin',(-109.578141132991,103.503913879395,53.8923048973084));
#1175=CARTESIAN_POINT('',(-116.994240351484,106.000003814698,53.8923048973084));
#1176=CARTESIAN_POINT('',(-71.2196609973902,106.000003814697,53.8923048973084));
#1177=CARTESIAN_POINT('',(-80.2075618108109,106.000003814698,53.8923048973084));
#1178=CARTESIAN_POINT('',(-140.705563050513,99.9964448551884,53.8923048970331));
#1179=CARTESIAN_POINT('',(-123.422864552687,104.372316278649,53.8923048973084));
#1180=CARTESIAN_POINT('',(-140.460114575466,99.0270295070042,53.892304897046));
#1181=CARTESIAN_POINT('',(-140.58283904886,99.5117381160225,53.8923048973084));
#1182=CARTESIAN_POINT('',(-116.8696064274,105.,53.8923048973084));
#1183=CARTESIAN_POINT('',(-129.281076475278,101.857492687084,53.8923048973084));
#1184=CARTESIAN_POINT('',(-71.2196609973902,105.,53.8923048973084));
#1185=CARTESIAN_POINT('',(-81.8072100745302,105.,53.8923048973084));
#1186=CARTESIAN_POINT('',(-71.2196609973902,104.501957893372,53.8923048973084));
#1187=CARTESIAN_POINT('Origin',(-113.46477655002,101.820828574045,47.8923058509827));
#1188=CARTESIAN_POINT('',(-73.1036064624781,106.000003814697,47.8923058509827));
#1189=CARTESIAN_POINT('',(-116.994233057491,106.000003814606,47.8923058509827));
#1190=CARTESIAN_POINT('',(-82.1508795193259,106.000003814698,47.8923058509827));
#1191=CARTESIAN_POINT('',(-73.1036064624782,101.999998092652,47.8923058509827));
#1192=CARTESIAN_POINT('',(-73.1036064624782,102.91041476386,47.8923058509827));
#1193=CARTESIAN_POINT('',(-116.495708483402,101.999998092652,47.8923058509827));
#1194=CARTESIAN_POINT('',(-83.3012324741904,101.999998092652,47.8923058509827));
#1195=CARTESIAN_POINT('',(-138.103612056813,96.529011429069,47.8923058513321));
#1196=CARTESIAN_POINT('',(-130.212871510134,98.5268978112717,47.8923058509827));
#1197=CARTESIAN_POINT('',(-138.349066944867,100.59309311869,47.8923058514667));
#1198=CARTESIAN_POINT('Origin',(-154.399870410792,96.0132808066292,47.8923058509827));
#1199=CARTESIAN_POINT('',(-125.449343494083,103.859222608016,47.8923058509827));
#1200=CARTESIAN_POINT('Origin',(-50.8369824886317,106.000003814697,38.7219145718743));
#1201=CARTESIAN_POINT('',(-116.994227616258,106.000003814698,43.4174328315159));
#1202=CARTESIAN_POINT('',(-48.8537905216212,106.000003814697,38.310763835907));
#1203=CARTESIAN_POINT('',(-55.2092654954801,106.000003814697,42.7384070334824));
#1204=CARTESIAN_POINT('',(-47.5069593226874,106.000003814697,38.4995723771211));
#1205=CARTESIAN_POINT('Origin',(-48.2821661551359,106.000003814697,39.1312780899993));
#1206=CARTESIAN_POINT('',(-37.1036074157078,106.000003814697,44.2668165321082));
#1207=CARTESIAN_POINT('Origin',(-35.1036001195261,106.000003814697,28.3923021493692));
#1208=CARTESIAN_POINT('',(-37.103607416517,106.000003814695,38.1902672847649));
#1209=CARTESIAN_POINT('',(-37.1036074161524,106.000003814697,59.4059385271634));
#1210=CARTESIAN_POINT('',(-42.8557081823745,106.000003814697,34.7093509174801));
#1211=CARTESIAN_POINT('Origin',(-35.1035652493727,106.000003814692,28.3922258598843));
#1212=CARTESIAN_POINT('',(-52.283546686172,106.000003814697,33.3876729011536));
#1213=CARTESIAN_POINT('Origin',(-48.2821741695413,106.000003814697,39.1312732577901));
#1214=CARTESIAN_POINT('',(-58.2525671901731,106.000003814697,37.5460880263143));
#1215=CARTESIAN_POINT('Origin',(-136.226885080338,101.13041639328,48.1130081415177));
#1216=CARTESIAN_POINT('',(-142.349059999766,99.5803186040142,43.8923044781369));
#1217=CARTESIAN_POINT('',(-140.349062024459,100.086706227943,45.892306614024));
#1218=CARTESIAN_POINT('',(-142.349059685503,99.5803176189175,40.4340339382626));
#1219=CARTESIAN_POINT('',(-142.349059842729,99.5803181114945,42.1631693840027));
#1220=CARTESIAN_POINT('',(-148.097395264607,98.1248767499265,46.387099720988));
#1221=CARTESIAN_POINT('',(-144.122615084357,99.1312650236119,42.2707555100958));
#1222=CARTESIAN_POINT('Origin',(123.706687690121,166.943889279219,-230.846442678828));
#1223=CARTESIAN_POINT('Origin',(-54.0362790160705,105.,46.0292312833998));
#1224=CARTESIAN_POINT('',(-48.8537905216212,105.,38.310763835907));
#1225=CARTESIAN_POINT('',(-57.9998844850969,105.,44.682536345174));
#1226=CARTESIAN_POINT('',(-116.869613574345,105.000000485641,77.8923067291313));
#1227=CARTESIAN_POINT('',(-116.869606927605,105.,54.9712922451005));
#1228=CARTESIAN_POINT('',(-37.1036074161525,105.,77.8923151558447));
#1229=CARTESIAN_POINT('',(-53.2184080455123,105.,77.8923139470307));
#1230=CARTESIAN_POINT('',(-37.1036074157078,105.,44.2668165321082));
#1231=CARTESIAN_POINT('',(-37.1036074161525,105.,63.0595968829261));
#1232=CARTESIAN_POINT('',(-47.5069593226874,105.,38.4995723771211));
#1233=CARTESIAN_POINT('Origin',(-35.1036001195261,105.,28.3923021493692));
#1234=CARTESIAN_POINT('Origin',(-48.282166155136,105.,39.1312780899993));
#1235=CARTESIAN_POINT('Origin',(-148.188759020397,97.0701857975556,63.9133678163801));
#1236=CARTESIAN_POINT('',(-147.851942292551,97.1554630419981,46.3871044221764));
#1237=CARTESIAN_POINT('Origin',(123.952122598842,165.974536202373,-230.846440635573));
#1238=CARTESIAN_POINT('',(-156.358469176892,95.0016647822189,55.1965980496416));
#1239=CARTESIAN_POINT('',(-152.808297497134,95.9005458238486,51.5199842315202));
#1240=CARTESIAN_POINT('',(-155.903608374681,95.1168350226905,74.7986014145416));
#1241=CARTESIAN_POINT('Origin',(-158.102468469211,94.5600961238355,65.0433464948353));
#1242=CARTESIAN_POINT('',(-155.903608369827,95.1168353853789,77.8923020381813));
#1243=CARTESIAN_POINT('',(-155.903608369827,95.1168337445667,63.9133680456597));
#1244=CARTESIAN_POINT('',(-147.030350798936,97.3634892223822,77.8923025025615));
#1245=CARTESIAN_POINT('Origin',(-80.6679365634915,65.1140022277834,91.3923048973087));
#1246=CARTESIAN_POINT('',(-65.9179375171659,58.0000019073487,104.892303943634));
#1247=CARTESIAN_POINT('',(-95.4179356098177,72.2280025482181,104.892303943634));
#1248=CARTESIAN_POINT('',(-88.2464102544606,68.7691390245135,104.892303943634));
#1249=CARTESIAN_POINT('',(-65.9179375171659,58.0000019073487,89.8923058509827));
#1250=CARTESIAN_POINT('',(-65.9179375171659,58.0000019073487,91.3923048973087));
#1251=CARTESIAN_POINT('',(-95.4179356098177,72.2280025482181,89.8923058509827));
#1252=CARTESIAN_POINT('',(-80.6679365634915,65.1140022277834,89.8923058509827));
#1253=CARTESIAN_POINT('',(-95.4179356098177,72.2280025482181,92.7391700744627));
#1254=CARTESIAN_POINT('Origin',(-51.5107724666593,58.0000019073487,91.3923048973087));
#1255=CARTESIAN_POINT('',(-37.1036074161527,58.0000019073486,104.892303943634));
#1256=CARTESIAN_POINT('',(-73.090308666229,58.0000019073488,104.892303943634));
#1257=CARTESIAN_POINT('',(-37.1036074161527,58.0000019073486,89.8923058509827));
#1258=CARTESIAN_POINT('',(-37.1036074161527,58.0000019073486,85.7411336898807));
#1259=CARTESIAN_POINT('',(-88.8071898221968,58.0000019073488,89.8923058509827));
#1260=CARTESIAN_POINT('Origin',(-131.620343446732,72.2280025482182,94.0860352516177));
#1261=CARTESIAN_POINT('',(-155.058629274368,72.2280025482183,104.892303943634));
#1262=CARTESIAN_POINT('',(-113.145094156265,72.2280025482181,104.892303943634));
#1263=CARTESIAN_POINT('',(-155.903608369827,72.2280025482183,89.8923058509827));
#1264=CARTESIAN_POINT('',(-88.8071898221967,72.228002548218,89.8923058509827));
#1265=CARTESIAN_POINT('',(-155.903608369827,72.2280025482183,104.866956267299));
#1266=CARTESIAN_POINT('',(-155.903608369827,72.2280025482183,92.1656783421837));
#1267=CARTESIAN_POINT('',(-143.773204927782,72.2280025482183,105.230844015433));
#1268=CARTESIAN_POINT('Origin',(-88.8071898221967,63.6140012741091,89.8923058509827));
#1269=CARTESIAN_POINT('',(-37.1036074161527,55.,89.8923058509827));
#1270=CARTESIAN_POINT('',(-37.1036074161526,63.6140012741089,89.8923058509827));
#1271=CARTESIAN_POINT('',(-66.6036055088041,55.0000000000001,89.8923058509827));
#1272=CARTESIAN_POINT('',(-88.8071898221968,55.0000000000002,89.8923058509827));
#1273=CARTESIAN_POINT('',(-96.1036083698267,69.2280006408694,89.8923058509827));
#1274=CARTESIAN_POINT('',(-81.3536069393155,62.1140003204348,89.8923058509827));
#1275=CARTESIAN_POINT('',(-155.903608369827,69.2280006408696,89.8923058509827));
#1276=CARTESIAN_POINT('',(-88.8071898221967,69.2280006408693,89.8923058509827));
#1277=CARTESIAN_POINT('',(-155.903608369827,80.5362077554072,89.8923058509827));
#1278=CARTESIAN_POINT('Origin',(-94.6698448657987,74.8191063744684,104.892303943634));
#1279=CARTESIAN_POINT('',(-155.058629273421,81.339924637787,104.892303943648));
#1280=CARTESIAN_POINT('',(-155.058629274368,74.8191063744686,104.892303943634));
#1281=CARTESIAN_POINT('',(-117.028566659393,90.9689050874814,104.892303943682));
#1282=CARTESIAN_POINT('',(-121.447399799662,89.85008342385,104.892303943634));
#1283=CARTESIAN_POINT('',(-37.1036074161525,90.9689044890846,104.89230394337));
#1284=CARTESIAN_POINT('',(-74.6278485511017,90.9689047698442,104.892303943634));
#1285=CARTESIAN_POINT('',(-37.1036074161526,78.5763003144945,104.892303943634));
#1286=CARTESIAN_POINT('Origin',(-62.6935765743251,104.000000953674,40.6399893760681));
#1287=CARTESIAN_POINT('',(-52.2835466861721,101.999998092651,33.3876729011536));
#1288=CARTESIAN_POINT('',(-52.283546686172,106.000003814697,33.3876729011536));
#1289=CARTESIAN_POINT('',(-59.308386484162,101.999998092651,38.281641693556));
#1290=CARTESIAN_POINT('Origin',(-144.667359393218,90.8301882908267,87.5459668554107));
#1291=CARTESIAN_POINT('',(-155.903608369827,81.1360042966171,104.866956267298));
#1292=CARTESIAN_POINT('',(-150.09066715634,82.5388519637723,105.041332832622));
#1293=CARTESIAN_POINT('',(-155.903608369827,92.0221666479773,77.3370019059817));
#1294=CARTESIAN_POINT('',(-155.903608369827,88.3699350971594,86.573109605442));
#1295=CARTESIAN_POINT('',(-116.53118699223,101.991018625509,77.3370159243549));
#1296=CARTESIAN_POINT('',(-146.181822377966,94.4836623375782,77.3370053673798));
#1297=CARTESIAN_POINT('',(-116.723406466466,97.7313654621239,87.9861504461167));
#1298=CARTESIAN_POINT('',(-147.156383966382,90.7204623916064,86.2297279857307));
#1299=CARTESIAN_POINT('Origin',(-145.605327020581,91.1131806972605,86.2297276701327));
#1300=CARTESIAN_POINT('Origin',(-144.911332232612,93.8628208637243,88.1019312994817));
#1301=CARTESIAN_POINT('',(-117.411122949569,93.0000015332698,107.89230585103));
#1302=CARTESIAN_POINT('',(-117.0702659226,100.55343270107,89.0087276094547));
#1303=CARTESIAN_POINT('',(-155.903608369827,83.2539419330154,107.892305850983));
#1304=CARTESIAN_POINT('',(-155.903608369827,88.2643150582428,95.2216017378617));
#1305=CARTESIAN_POINT('',(-121.70376301743,91.913131576969,107.892305850983));
#1306=CARTESIAN_POINT('',(-147.843945911602,93.4360104299655,87.3035359983056));
#1307=CARTESIAN_POINT('Origin',(-146.292888936623,93.8287286203789,87.3035356371387));
#1308=CARTESIAN_POINT('Origin',(-146.735736920916,94.3434129912283,63.4860725238406));
#1309=CARTESIAN_POINT('',(-142.103601691283,95.516238484189,43.8923043210711));
#1310=CARTESIAN_POINT('',(-140.103605610346,96.0226252767084,45.8923063515708));
#1311=CARTESIAN_POINT('',(-116.495722179526,101.999998092652,77.3145672524408));
#1312=CARTESIAN_POINT('',(-116.495710257681,101.999998092652,51.7038451754524));
#1313=CARTESIAN_POINT('',(-105.665820265635,104.742061027107,70.4594086771934));
#1314=CARTESIAN_POINT('',(-155.903608374666,92.022166349237,74.7986027891566));
#1315=CARTESIAN_POINT('',(-155.903608369827,92.0221683957181,92.1656769884227));
#1316=CARTESIAN_POINT('',(-156.358469140585,91.9069961218673,55.196598506406));
#1317=CARTESIAN_POINT('Origin',(-158.102466172807,91.4654280918022,65.0433473519932));
#1318=CARTESIAN_POINT('',(-142.103601734364,95.516238058726,40.4340328441076));
#1319=CARTESIAN_POINT('',(-152.159550168062,92.9701357537767,50.8481317548656));
#1320=CARTESIAN_POINT('',(-142.103601731283,95.5162382704539,42.1631693840027));
#1321=CARTESIAN_POINT('Origin',(-53.1376883983608,101.999998092651,39.9216332435608));
#1322=CARTESIAN_POINT('',(-42.8557081823749,101.999998092651,34.7093509174807));
#1323=CARTESIAN_POINT('Origin',(-48.2821741695414,101.999998092651,39.1312732577901));
#1324=CARTESIAN_POINT('',(-37.1036074165173,101.999998092648,38.1902672847661));
#1325=CARTESIAN_POINT('Origin',(-35.1035652493735,101.999998092645,28.3922258598853));
#1326=CARTESIAN_POINT('',(-37.1036074161525,101.999998092651,77.3145657650051));
#1327=CARTESIAN_POINT('',(-37.1036074161525,101.999998092651,60.0057978630066));
#1328=CARTESIAN_POINT('',(-53.8617700862875,101.999998092651,77.3145660789744));
#1329=CARTESIAN_POINT('Origin',(-148.955216646194,95.6382551193242,47.5296730995179));
#1330=CARTESIAN_POINT('',(-142.103603074031,98.6109086812421,40.4340337741947));
#1331=CARTESIAN_POINT('',(-147.039840425968,97.3610814114037,45.5460790640063));
#1332=CARTESIAN_POINT('Origin',(-150.251703748724,97.0635743171526,48.8723348150941));
#1333=CARTESIAN_POINT('',(-156.358469152605,93.4543347358704,55.196598265816));
#1334=CARTESIAN_POINT('Origin',(-94.9773503371647,76.0656172888623,107.892305850983));
#1335=CARTESIAN_POINT('',(-155.903608369827,76.0656172888625,107.892305850983));
#1336=CARTESIAN_POINT('',(-37.1036074161526,93.0000039424619,107.892305851359));
#1337=CARTESIAN_POINT('',(-37.1036074161526,79.1995557716915,107.892305850983));
#1338=CARTESIAN_POINT('',(-73.6889430272337,93.0000028452732,107.892305850983));
#1339=CARTESIAN_POINT('Origin',(-52.4005354472565,100.934356621334,88.0564226422987));
#1340=CARTESIAN_POINT('',(-37.1036074161525,101.025066558937,87.8296489415757));
#1341=CARTESIAN_POINT('',(-49.8802930023812,101.256749160248,87.250441469215));
#1342=CARTESIAN_POINT('Origin',(-48.280293504396,101.256749201634,87.2504414857707));
#1343=CARTESIAN_POINT('Origin',(-54.5858523023536,98.3186353486161,86.5179743437927));
#1344=CARTESIAN_POINT('',(-37.1036074161525,98.3244897850686,86.5033379229137));
#1345=CARTESIAN_POINT('',(-49.8802930023807,98.4713167464709,86.1362707032987));
#1346=CARTESIAN_POINT('Origin',(-48.2802935043956,98.4713167361343,86.1362706991637));
#1347=CARTESIAN_POINT('Origin',(-155.903608369827,80.5362077554072,92.1656783421837));
#1348=CARTESIAN_POINT('',(-155.903608369827,69.2280006408696,109.892303943634));
#1349=CARTESIAN_POINT('',(-155.903608369827,80.5362077554072,109.892303943634));
#1350=CARTESIAN_POINT('',(-155.903608387683,92.0221663487958,74.7986027504529));
#1351=CARTESIAN_POINT('',(-155.903608369827,76.7209172248845,104.866956267298));
#1352=CARTESIAN_POINT('',(-155.903608369827,69.2280006408696,92.1656783421837));
#1353=CARTESIAN_POINT('Origin',(-126.103608369827,69.2280006408695,93.8923048973087));
#1354=CARTESIAN_POINT('',(-96.1036083698267,69.2280006408694,109.892303943634));
#1355=CARTESIAN_POINT('',(-96.1036083698267,69.2280006408694,93.8923048973087));
#1356=CARTESIAN_POINT('',(-107.455399096012,69.2280006408694,109.892303943634));
#1357=CARTESIAN_POINT('Origin',(-81.3536069393155,62.1140003204348,93.8923048973087));
#1358=CARTESIAN_POINT('',(-66.6036055088041,55.0000000000001,109.892303943634));
#1359=CARTESIAN_POINT('',(-66.6036055088041,55.0000000000001,93.8923048973087));
#1360=CARTESIAN_POINT('',(-84.6705468998709,63.713777246113,109.892303943634));
#1361=CARTESIAN_POINT('Origin',(-51.8536064624784,55.0000000000001,93.8923048973087));
#1362=CARTESIAN_POINT('',(-37.1036074161527,55.,109.892303943634));
#1363=CARTESIAN_POINT('',(-37.1036074161527,55.,86.9911336898807));
#1364=CARTESIAN_POINT('',(-70.3303981423376,55.0000000000002,109.892303943634));
#1365=CARTESIAN_POINT('Origin',(-37.1036074161525,82.333494254521,80.0899624824527));
#1366=CARTESIAN_POINT('',(-37.1036074161526,72.9737477643149,109.892303943634));
#1367=CARTESIAN_POINT('',(-37.1036074161525,101.999998092654,38.1902672852844));
#1368=CARTESIAN_POINT('',(-37.1036074161524,106.000003814697,44.2668165314175));
#1369=CARTESIAN_POINT('Origin',(-88.8071898221967,63.6140012741091,109.892303943634));
#1370=CARTESIAN_POINT('Origin',(-48.2821661551359,106.000003814697,39.1312780899993));
#1371=CARTESIAN_POINT('',(-47.5069591999049,106.000003814697,38.4995722770691));
#1372=CARTESIAN_POINT('',(-48.8537905216212,106.000003814697,38.310763835907));
#1373=CARTESIAN_POINT('Origin',(-48.2821741695413,106.000003814697,39.1312732577901));
#1374=CARTESIAN_POINT('',(-42.8557083606715,106.000003814697,34.7093510627747));
#1375=CARTESIAN_POINT('Origin',(-35.1035652493735,101.999998092651,28.3922258598853));
#1376=CARTESIAN_POINT('Origin',(-158.102466490593,91.9070005416875,65.0433472497685));
#1377=CARTESIAN_POINT('Origin',(-48.2802935043956,98.471322973145,86.1362731939627));
#1378=CARTESIAN_POINT('',(-49.8802930023804,98.4713229731448,86.1362731939627));
#1379=CARTESIAN_POINT('Origin',(-35.1036001195261,106.000003814697,28.3923021493692));
#1380=CARTESIAN_POINT('Origin',(-145.612780842264,91.1426198059698,86.2413687644417));
#1381=CARTESIAN_POINT('',(-147.163837585987,90.7499007022026,86.2413687644417));
#1382=CARTESIAN_POINT('Origin',(-150.06194379831,97.1116257564768,52.2302438136823));
#1383=CARTESIAN_POINT('Ctrl Pts',(-142.349059999545,99.5803186040858,43.8923044772603));
#1384=CARTESIAN_POINT('Ctrl Pts',(-142.297991281113,99.4199617647107,43.89206645447));
#1385=CARTESIAN_POINT('Ctrl Pts',(-142.252235267869,99.2593810248993,43.8919439189772));
#1386=CARTESIAN_POINT('Ctrl Pts',(-141.954649150986,98.0840611197689,43.8919452573539));
#1387=CARTESIAN_POINT('Ctrl Pts',(-141.884799281112,96.950413537126,43.9016215887718));
#1388=CARTESIAN_POINT('Ctrl Pts',(-142.063505659763,95.7398896031713,43.894378300002));
#1389=CARTESIAN_POINT('Ctrl Pts',(-142.082414040575,95.6278106420439,43.8934835636484));
#1390=CARTESIAN_POINT('Ctrl Pts',(-142.103601690704,95.5162384840837,43.8923043206332));
#1391=CARTESIAN_POINT('Origin',(-150.251702956288,97.0635700225835,40.4340338706971));
#1392=CARTESIAN_POINT('Origin',(-150.251702956288,97.0635700225835,48.7452512154929));
#1393=CARTESIAN_POINT('Origin',(123.952368158351,165.973566357181,-230.846440633529));
#1394=CARTESIAN_POINT('',(-147.974669144335,97.6401711904249,46.3871020337383));
#1395=CARTESIAN_POINT('Origin',(-60.0367257595057,105.500001907349,46.1015343666077));
#1396=CARTESIAN_POINT('Origin',(-145.10050034523,98.367891311646,43.4105682373047));
#1397=CARTESIAN_POINT('Origin',(-155.581118822098,76.7209172248845,104.876630306244));
#1398=CARTESIAN_POINT('',(0.,0.,0.));
#1399=UNCERTAINTY_MEASURE_WITH_UNIT(LENGTH_MEASURE(0.01),#1405,
'DISTANCE_ACCURACY_VALUE',
'Maximum model space distance between geometric entities at asserted c
onnectivities');
#1400=UNCERTAINTY_MEASURE_WITH_UNIT(LENGTH_MEASURE(0.01),#1405,
'DISTANCE_ACCURACY_VALUE',
'Maximum model space distance between geometric entities at asserted c
onnectivities');
#1401=UNCERTAINTY_MEASURE_WITH_UNIT(LENGTH_MEASURE(0.01),#1405,
'DISTANCE_ACCURACY_VALUE',
'Maximum model space distance between geometric entities at asserted c
onnectivities');
#1402=(
GEOMETRIC_REPRESENTATION_CONTEXT(3)
GLOBAL_UNCERTAINTY_ASSIGNED_CONTEXT((#1399))
GLOBAL_UNIT_ASSIGNED_CONTEXT((#1405,#1407,#1408))
REPRESENTATION_CONTEXT('','3D')
);
#1403=(
GEOMETRIC_REPRESENTATION_CONTEXT(3)
GLOBAL_UNCERTAINTY_ASSIGNED_CONTEXT((#1400))
GLOBAL_UNIT_ASSIGNED_CONTEXT((#1405,#1407,#1408))
REPRESENTATION_CONTEXT('','3D')
);
#1404=(
GEOMETRIC_REPRESENTATION_CONTEXT(3)
GLOBAL_UNCERTAINTY_ASSIGNED_CONTEXT((#1401))
GLOBAL_UNIT_ASSIGNED_CONTEXT((#1405,#1407,#1408))
REPRESENTATION_CONTEXT('','3D')
);
#1405=(
LENGTH_UNIT()
NAMED_UNIT(*)
SI_UNIT(.MILLI.,.METRE.)
);
#1406=(
LENGTH_UNIT()
NAMED_UNIT(*)
SI_UNIT($,.METRE.)
);
#1407=(
NAMED_UNIT(*)
PLANE_ANGLE_UNIT()
SI_UNIT($,.RADIAN.)
);
#1408=(
NAMED_UNIT(*)
SI_UNIT($,.STERADIAN.)
SOLID_ANGLE_UNIT()
);
#1409=SHAPE_DEFINITION_REPRESENTATION(#1411,#1414);
#1410=SHAPE_DEFINITION_REPRESENTATION(#1412,#1415);
#1411=PRODUCT_DEFINITION_SHAPE('',$,#1417);
#1412=PRODUCT_DEFINITION_SHAPE('',$,#1418);
#1413=PRODUCT_DEFINITION_SHAPE($,$,#14);
#1414=SHAPE_REPRESENTATION('',(#861,#924),#1402);
#1415=SHAPE_REPRESENTATION('',(#862),#1403);
#1416=PRODUCT_DEFINITION_CONTEXT('part definition',#1424,'design');
#1417=PRODUCT_DEFINITION('Chassis','Chassis v25',#1419,#1416);
#1418=PRODUCT_DEFINITION('Chassis_1','Chassis',#1420,#1416);
#1419=PRODUCT_DEFINITION_FORMATION('',$,#1426);
#1420=PRODUCT_DEFINITION_FORMATION('',$,#1427);
#1421=PRODUCT_RELATED_PRODUCT_CATEGORY('Chassis v25','Chassis v25',(#1426));
#1422=PRODUCT_RELATED_PRODUCT_CATEGORY('Chassis','Chassis',(#1427));
#1423=APPLICATION_PROTOCOL_DEFINITION('international standard',
'automotive_design',2009,#1424);
#1424=APPLICATION_CONTEXT(
'Core Data for Automotive Mechanical Design Process');
#1425=PRODUCT_CONTEXT('part definition',#1424,'mechanical');
#1426=PRODUCT('Chassis','Chassis v25',$,(#1425));
#1427=PRODUCT('Chassis_1','Chassis',$,(#1425));
#1428=PRESENTATION_STYLE_ASSIGNMENT((#1436));
#1429=PRESENTATION_STYLE_ASSIGNMENT((#1437));
#1430=PRESENTATION_STYLE_ASSIGNMENT((#1438));
#1431=PRESENTATION_STYLE_ASSIGNMENT((#1439));
#1432=PRESENTATION_STYLE_ASSIGNMENT((#1440));
#1433=PRESENTATION_STYLE_ASSIGNMENT((#1441));
#1434=PRESENTATION_STYLE_ASSIGNMENT((#1442));
#1435=PRESENTATION_STYLE_ASSIGNMENT((#1443));
#1436=SURFACE_STYLE_USAGE(.BOTH.,#1444);
#1437=SURFACE_STYLE_USAGE(.BOTH.,#1445);
#1438=SURFACE_STYLE_USAGE(.BOTH.,#1446);
#1439=SURFACE_STYLE_USAGE(.BOTH.,#1447);
#1440=SURFACE_STYLE_USAGE(.BOTH.,#1448);
#1441=SURFACE_STYLE_USAGE(.BOTH.,#1449);
#1442=SURFACE_STYLE_USAGE(.BOTH.,#1450);
#1443=SURFACE_STYLE_USAGE(.BOTH.,#1451);
#1444=SURFACE_SIDE_STYLE('',(#1452));
#1445=SURFACE_SIDE_STYLE('',(#1453));
#1446=SURFACE_SIDE_STYLE('',(#1454));
#1447=SURFACE_SIDE_STYLE('',(#1455));
#1448=SURFACE_SIDE_STYLE('',(#1456));
#1449=SURFACE_SIDE_STYLE('',(#1457));
#1450=SURFACE_SIDE_STYLE('',(#1458));
#1451=SURFACE_SIDE_STYLE('',(#1459));
#1452=SURFACE_STYLE_FILL_AREA(#1460);
#1453=SURFACE_STYLE_FILL_AREA(#1461);
#1454=SURFACE_STYLE_FILL_AREA(#1462);
#1455=SURFACE_STYLE_FILL_AREA(#1463);
#1456=SURFACE_STYLE_FILL_AREA(#1464);
#1457=SURFACE_STYLE_FILL_AREA(#1465);
#1458=SURFACE_STYLE_FILL_AREA(#1466);
#1459=SURFACE_STYLE_FILL_AREA(#1467);
#1460=FILL_AREA_STYLE('Steel - Satin',(#1468));
#1461=FILL_AREA_STYLE('Aluminum - Satin',(#1469));
#1462=FILL_AREA_STYLE('Opaque(50,50,50)',(#1470));
#1463=FILL_AREA_STYLE('Opaque(255,255,255)',(#1471));
#1464=FILL_AREA_STYLE('Opaque(245,245,246)',(#1472));
#1465=FILL_AREA_STYLE('ABS (White) (1)',(#1473));
#1466=FILL_AREA_STYLE('Opaque(250,182,1)',(#1474));
#1467=FILL_AREA_STYLE('ABS (White)',(#1475));
#1468=FILL_AREA_STYLE_COLOUR('Steel - Satin',#1476);
#1469=FILL_AREA_STYLE_COLOUR('Aluminum - Satin',#1477);
#1470=FILL_AREA_STYLE_COLOUR('Opaque(50,50,50)',#1478);
#1471=FILL_AREA_STYLE_COLOUR('Opaque(255,255,255)',#1479);
#1472=FILL_AREA_STYLE_COLOUR('Opaque(245,245,246)',#1480);
#1473=FILL_AREA_STYLE_COLOUR('ABS (White) (1)',#1481);
#1474=FILL_AREA_STYLE_COLOUR('Opaque(250,182,1)',#1482);
#1475=FILL_AREA_STYLE_COLOUR('ABS (White)',#1483);
#1476=COLOUR_RGB('Steel - Satin',0.627450980392157,0.627450980392157,0.627450980392157);
#1477=COLOUR_RGB('Aluminum - Satin',0.96078431372549,0.96078431372549,0.964705882352941);
#1478=COLOUR_RGB('Opaque(50,50,50)',0.196078431372549,0.196078431372549,
0.196078431372549);
#1479=COLOUR_RGB('Opaque(255,255,255)',1.,1.,1.);
#1480=COLOUR_RGB('Opaque(245,245,246)',0.96078431372549,0.96078431372549,
0.964705882352941);
#1481=COLOUR_RGB('ABS (White) (1)',0.905882352941176,0.262745098039216,
0.184313725490196);
#1482=COLOUR_RGB('Opaque(250,182,1)',0.980392156862745,0.713725490196078,
0.00392156862745098);
#1483=COLOUR_RGB('ABS (White)',0.964705882352941,0.964705882352941,0.952941176470588);
ENDSEC;
END-ISO-10303-21;
