ISO-10303-21;
HEADER;
/* Generated by software containing ST-Developer
 * from STEP Tools, Inc. (www.steptools.com) 
 */

FILE_DESCRIPTION(
/* description */ (''),
/* implementation_level */ '2;1');

FILE_NAME(
/* name */ 'RearPanel (R).step',
/* time_stamp */ '2026-08-13T12:57:35-04:00',
/* author */ (''),
/* organization */ (''),
/* preprocessor_version */ 'ST-DEVELOPER v20.1',
/* originating_system */ 'Autodesk Translation Framework v15.8.0.0',
/* authorisation */ '');

FILE_SCHEMA (('AUTOMOTIVE_DESIGN { 1 0 10303 214 3 1 1 }'));
ENDSEC;

DATA;
#10=MECHANICAL_DESIGN_GEOMETRIC_PRESENTATION_REPRESENTATION('',(#33,#34,
#35,#36,#37,#38),#1404);
#11=ITEM_DEFINED_TRANSFORMATION($,$,#862,#924);
#12=(
REPRESENTATION_RELATIONSHIP($,$,#1415,#1414)
REPRESENTATION_RELATIONSHIP_WITH_TRANSFORMATION(#11)
SHAPE_REPRESENTATION_RELATIONSHIP()
);
#13=CONTEXT_DEPENDENT_SHAPE_REPRESENTATION(#12,#1413);
#14=NEXT_ASSEMBLY_USAGE_OCCURRENCE('Chassis:1','Chassis:1','Chassis:1',
#1417,#1418,'Chassis:1');
#15=SHAPE_REPRESENTATION_RELATIONSHIP('SRR','None',#1415,#16);
#16=ADVANCED_BREP_SHAPE_REPRESENTATION('',(#17),#1403);
#17=MANIFOLD_SOLID_BREP('RightJoint',#848);
#18=B_SPLINE_CURVE_WITH_KNOTS('',3,(#1383,#1384,#1385,#1386,#1387,#1388,
#1389,#1390),.UNSPECIFIED.,.F.,.F.,(4,2,2,4),(-2.83568375945196,-2.78613366506568,
-2.47196120877321,-2.43979459553406),.UNSPECIFIED.);
#19=CYLINDRICAL_SURFACE('',#910,0.999999028763661);
#20=CYLINDRICAL_SURFACE('',#911,6.99999479096968);
#21=CYLINDRICAL_SURFACE('',#912,10.0000892217385);
#22=CYLINDRICAL_SURFACE('',#913,9.99999939192531);
#23=CYLINDRICAL_SURFACE('',#914,1.59999949798483);
#24=CYLINDRICAL_SURFACE('',#915,16.0000073766363);
#25=CYLINDRICAL_SURFACE('',#916,1.60000166147163);
#26=CYLINDRICAL_SURFACE('',#917,11.6234355182466);
#27=CYLINDRICAL_SURFACE('',#918,8.29371986048787);
#28=CYLINDRICAL_SURFACE('',#920,394.299319080631);
#29=FACE_BOUND('',#116,.T.);
#30=FACE_BOUND('',#118,.T.);
#31=FACE_BOUND('',#124,.T.);
#32=FACE_BOUND('',#126,.T.);
#33=STYLED_ITEM('',(#1433),#813);
#34=STYLED_ITEM('',(#1433),#814);
#35=STYLED_ITEM('',(#1433),#822);
#36=STYLED_ITEM('',(#1433),#826);
#37=STYLED_ITEM('',(#1433),#827);
#38=STYLED_ITEM('',(#1432),#17);
#39=CIRCLE('',#870,6.99999479096968);
#40=CIRCLE('',#871,10.0000892217385);
#41=CIRCLE('',#872,16.0000073766363);
#42=CIRCLE('',#873,0.999999028763661);
#43=CIRCLE('',#875,394.299319081338);
#44=CIRCLE('',#877,0.999999028763661);
#45=CIRCLE('',#878,16.0000073766363);
#46=CIRCLE('',#881,394.29931908146);
#47=CIRCLE('',#889,1.60000166147188);
#48=CIRCLE('',#891,1.60000166147196);
#49=CIRCLE('',#895,10.0000892217385);
#50=CIRCLE('',#896,6.99999479096968);
#51=CIRCLE('',#901,1.59999949798519);
#52=CIRCLE('',#903,1.59999949798514);
#53=ELLIPSE('',#868,16.6993723571584,11.6234355020804);
#54=ELLIPSE('',#880,10.3155541559159,9.99999941187959);
#55=ELLIPSE('',#893,10.3155540836955,9.99999941185301);
#56=ELLIPSE('',#898,11.9397891012412,8.2937202931177);
#57=ELLIPSE('',#919,11.7521953611681,8.29371986048787);
#58=FACE_OUTER_BOUND('',#100,.T.);
#59=FACE_OUTER_BOUND('',#101,.T.);
#60=FACE_OUTER_BOUND('',#102,.T.);
#61=FACE_OUTER_BOUND('',#103,.T.);
#62=FACE_OUTER_BOUND('',#104,.T.);
#63=FACE_OUTER_BOUND('',#105,.T.);
#64=FACE_OUTER_BOUND('',#106,.T.);
#65=FACE_OUTER_BOUND('',#107,.T.);
#66=FACE_OUTER_BOUND('',#108,.T.);
#67=FACE_OUTER_BOUND('',#109,.T.);
#68=FACE_OUTER_BOUND('',#110,.T.);
#69=FACE_OUTER_BOUND('',#111,.T.);
#70=FACE_OUTER_BOUND('',#112,.T.);
#71=FACE_OUTER_BOUND('',#113,.T.);
#72=FACE_OUTER_BOUND('',#114,.T.);
#73=FACE_OUTER_BOUND('',#115,.T.);
#74=FACE_OUTER_BOUND('',#117,.T.);
#75=FACE_OUTER_BOUND('',#119,.T.);
#76=FACE_OUTER_BOUND('',#120,.T.);
#77=FACE_OUTER_BOUND('',#121,.T.);
#78=FACE_OUTER_BOUND('',#122,.T.);
#79=FACE_OUTER_BOUND('',#123,.T.);
#80=FACE_OUTER_BOUND('',#125,.T.);
#81=FACE_OUTER_BOUND('',#127,.T.);
#82=FACE_OUTER_BOUND('',#128,.T.);
#83=FACE_OUTER_BOUND('',#129,.T.);
#84=FACE_OUTER_BOUND('',#130,.T.);
#85=FACE_OUTER_BOUND('',#131,.T.);
#86=FACE_OUTER_BOUND('',#132,.T.);
#87=FACE_OUTER_BOUND('',#133,.T.);
#88=FACE_OUTER_BOUND('',#134,.T.);
#89=FACE_OUTER_BOUND('',#135,.T.);
#90=FACE_OUTER_BOUND('',#136,.T.);
#91=FACE_OUTER_BOUND('',#137,.T.);
#92=FACE_OUTER_BOUND('',#138,.T.);
#93=FACE_OUTER_BOUND('',#139,.T.);
#94=FACE_OUTER_BOUND('',#140,.T.);
#95=FACE_OUTER_BOUND('',#141,.T.);
#96=FACE_OUTER_BOUND('',#142,.T.);
#97=FACE_OUTER_BOUND('',#143,.T.);
#98=FACE_OUTER_BOUND('',#144,.T.);
#99=FACE_OUTER_BOUND('',#145,.T.);
#100=EDGE_LOOP('',(#538,#539,#540,#541));
#101=EDGE_LOOP('',(#542,#543,#544,#545));
#102=EDGE_LOOP('',(#546,#547,#548,#549));
#103=EDGE_LOOP('',(#550,#551,#552,#553,#554,#555));
#104=EDGE_LOOP('',(#556,#557,#558,#559,#560,#561));
#105=EDGE_LOOP('',(#562,#563,#564,#565,#566,#567,#568,#569,#570,#571));
#106=EDGE_LOOP('',(#572,#573,#574,#575,#576,#577,#578));
#107=EDGE_LOOP('',(#579,#580,#581,#582,#583,#584,#585));
#108=EDGE_LOOP('',(#586,#587,#588,#589,#590,#591,#592));
#109=EDGE_LOOP('',(#593,#594,#595,#596));
#110=EDGE_LOOP('',(#597,#598,#599,#600));
#111=EDGE_LOOP('',(#601,#602,#603,#604,#605));
#112=EDGE_LOOP('',(#606,#607,#608,#609,#610,#611,#612,#613));
#113=EDGE_LOOP('',(#614,#615,#616,#617,#618,#619,#620));
#114=EDGE_LOOP('',(#621,#622,#623,#624));
#115=EDGE_LOOP('',(#625,#626,#627,#628,#629));
#116=EDGE_LOOP('',(#630));
#117=EDGE_LOOP('',(#631,#632,#633,#634));
#118=EDGE_LOOP('',(#635));
#119=EDGE_LOOP('',(#636,#637,#638,#639,#640,#641,#642,#643,#644));
#120=EDGE_LOOP('',(#645,#646,#647,#648,#649,#650,#651));
#121=EDGE_LOOP('',(#652,#653,#654,#655,#656));
#122=EDGE_LOOP('',(#657,#658,#659,#660,#661,#662,#663));
#123=EDGE_LOOP('',(#664,#665,#666,#667));
#124=EDGE_LOOP('',(#668));
#125=EDGE_LOOP('',(#669,#670,#671,#672,#673));
#126=EDGE_LOOP('',(#674));
#127=EDGE_LOOP('',(#675,#676,#677,#678,#679,#680,#681,#682,#683,#684,#685,
#686));
#128=EDGE_LOOP('',(#687,#688,#689,#690));
#129=EDGE_LOOP('',(#691,#692,#693,#694));
#130=EDGE_LOOP('',(#695,#696,#697,#698));
#131=EDGE_LOOP('',(#699,#700,#701,#702,#703,#704,#705,#706,#707,#708,#709,
#710,#711,#712));
#132=EDGE_LOOP('',(#713,#714,#715,#716,#717,#718,#719,#720));
#133=EDGE_LOOP('',(#721,#722,#723,#724));
#134=EDGE_LOOP('',(#725,#726,#727,#728));
#135=EDGE_LOOP('',(#729,#730,#731,#732));
#136=EDGE_LOOP('',(#733,#734,#735,#736));
#137=EDGE_LOOP('',(#737,#738,#739,#740));
#138=EDGE_LOOP('',(#741,#742,#743,#744));
#139=EDGE_LOOP('',(#745,#746,#747,#748));
#140=EDGE_LOOP('',(#749,#750,#751,#752));
#141=EDGE_LOOP('',(#753,#754,#755,#756,#757));
#142=EDGE_LOOP('',(#758,#759,#760,#761));
#143=EDGE_LOOP('',(#762,#763,#764,#765));
#144=EDGE_LOOP('',(#766,#767,#768,#769));
#145=EDGE_LOOP('',(#770,#771,#772,#773));
#146=LINE('',#1156,#244);
#147=LINE('',#1158,#245);
#148=LINE('',#1160,#246);
#149=LINE('',#1161,#247);
#150=LINE('',#1164,#248);
#151=LINE('',#1166,#249);
#152=LINE('',#1167,#250);
#153=LINE('',#1170,#251);
#154=LINE('',#1172,#252);
#155=LINE('',#1173,#253);
#156=LINE('',#1177,#254);
#157=LINE('',#1179,#255);
#158=LINE('',#1181,#256);
#159=LINE('',#1183,#257);
#160=LINE('',#1185,#258);
#161=LINE('',#1186,#259);
#162=LINE('',#1190,#260);
#163=LINE('',#1192,#261);
#164=LINE('',#1196,#262);
#165=LINE('',#1198,#263);
#166=LINE('',#1199,#264);
#167=LINE('',#1201,#265);
#168=LINE('',#1203,#266);
#169=LINE('',#1209,#267);
#170=LINE('',#1214,#268);
#171=LINE('',#1219,#269);
#172=LINE('',#1221,#270);
#173=LINE('',#1222,#271);
#174=LINE('',#1225,#272);
#175=LINE('',#1231,#273);
#176=LINE('',#1233,#274);
#177=LINE('',#1234,#275);
#178=LINE('',#1237,#276);
#179=LINE('',#1239,#277);
#180=LINE('',#1243,#278);
#181=LINE('',#1248,#279);
#182=LINE('',#1250,#280);
#183=LINE('',#1252,#281);
#184=LINE('',#1253,#282);
#185=LINE('',#1256,#283);
#186=LINE('',#1258,#284);
#187=LINE('',#1259,#285);
#188=LINE('',#1262,#286);
#189=LINE('',#1264,#287);
#190=LINE('',#1266,#288);
#191=LINE('',#1267,#289);
#192=LINE('',#1270,#290);
#193=LINE('',#1272,#291);
#194=LINE('',#1274,#292);
#195=LINE('',#1276,#293);
#196=LINE('',#1277,#294);
#197=LINE('',#1280,#295);
#198=LINE('',#1282,#296);
#199=LINE('',#1284,#297);
#200=LINE('',#1285,#298);
#201=LINE('',#1288,#299);
#202=LINE('',#1289,#300);
#203=LINE('',#1292,#301);
#204=LINE('',#1294,#302);
#205=LINE('',#1296,#303);
#206=LINE('',#1297,#304);
#207=LINE('',#1302,#305);
#208=LINE('',#1304,#306);
#209=LINE('',#1305,#307);
#210=LINE('',#1310,#308);
#211=LINE('',#1312,#309);
#212=LINE('',#1314,#310);
#213=LINE('',#1317,#311);
#214=LINE('',#1319,#312);
#215=LINE('',#1320,#313);
#216=LINE('',#1323,#314);
#217=LINE('',#1325,#315);
#218=LINE('',#1331,#316);
#219=LINE('',#1332,#317);
#220=LINE('',#1335,#318);
#221=LINE('',#1337,#319);
#222=LINE('',#1338,#320);
#223=LINE('',#1340,#321);
#224=LINE('',#1344,#322);
#225=LINE('',#1349,#323);
#226=LINE('',#1350,#324);
#227=LINE('',#1351,#325);
#228=LINE('',#1352,#326);
#229=LINE('',#1355,#327);
#230=LINE('',#1356,#328);
#231=LINE('',#1359,#329);
#232=LINE('',#1360,#330);
#233=LINE('',#1363,#331);
#234=LINE('',#1364,#332);
#235=LINE('',#1366,#333);
#236=LINE('',#1367,#334);
#237=LINE('',#1368,#335);
#238=LINE('',#1371,#336);
#239=LINE('',#1372,#337);
#240=LINE('',#1374,#338);
#241=LINE('',#1378,#339);
#242=LINE('',#1381,#340);
#243=LINE('',#1394,#341);
#244=VECTOR('',#931,1000.);
#245=VECTOR('',#932,1000.);
#246=VECTOR('',#933,1000.);
#247=VECTOR('',#934,1000.);
#248=VECTOR('',#937,1000.);
#249=VECTOR('',#938,1000.);
#250=VECTOR('',#939,1000.);
#251=VECTOR('',#942,1000.);
#252=VECTOR('',#943,1000.);
#253=VECTOR('',#944,1000.);
#254=VECTOR('',#947,1000.);
#255=VECTOR('',#948,1000.);
#256=VECTOR('',#949,1000.);
#257=VECTOR('',#950,1000.);
#258=VECTOR('',#951,999.999999999999);
#259=VECTOR('',#952,1000.);
#260=VECTOR('',#955,1000.);
#261=VECTOR('',#956,1000.);
#262=VECTOR('',#959,1000.);
#263=VECTOR('',#960,1000.);
#264=VECTOR('',#961,1000.);
#265=VECTOR('',#964,1000.);
#266=VECTOR('',#965,1000.);
#267=VECTOR('',#970,1000.);
#268=VECTOR('',#975,1000.);
#269=VECTOR('',#980,1000.);
#270=VECTOR('',#981,1000.);
#271=VECTOR('',#982,1000.);
#272=VECTOR('',#985,1000.);
#273=VECTOR('',#990,1000.);
#274=VECTOR('',#991,1000.);
#275=VECTOR('',#992,1000.);
#276=VECTOR('',#995,1000.);
#277=VECTOR('',#996,1000.);
#278=VECTOR('',#999,1000.);
#279=VECTOR('',#1004,1000.);
#280=VECTOR('',#1005,1000.);
#281=VECTOR('',#1006,1000.);
#282=VECTOR('',#1007,1000.);
#283=VECTOR('',#1010,1000.);
#284=VECTOR('',#1011,1000.);
#285=VECTOR('',#1012,1000.);
#286=VECTOR('',#1015,1000.);
#287=VECTOR('',#1016,1000.);
#288=VECTOR('',#1017,1000.);
#289=VECTOR('',#1018,1000.);
#290=VECTOR('',#1021,1000.);
#291=VECTOR('',#1022,1000.);
#292=VECTOR('',#1023,1000.);
#293=VECTOR('',#1024,1000.);
#294=VECTOR('',#1025,1000.);
#295=VECTOR('',#1028,1000.);
#296=VECTOR('',#1029,1000.);
#297=VECTOR('',#1030,1000.);
#298=VECTOR('',#1031,1000.);
#299=VECTOR('',#1034,1000.);
#300=VECTOR('',#1035,1000.);
#301=VECTOR('',#1038,1000.);
#302=VECTOR('',#1039,1000.);
#303=VECTOR('',#1040,1000.);
#304=VECTOR('',#1041,1000.);
#305=VECTOR('',#1046,1000.);
#306=VECTOR('',#1047,1000.);
#307=VECTOR('',#1048,1000.);
#308=VECTOR('',#1053,1000.);
#309=VECTOR('',#1054,1000.);
#310=VECTOR('',#1055,1000.);
#311=VECTOR('',#1058,1000.);
#312=VECTOR('',#1059,1000.);
#313=VECTOR('',#1060,1000.);
#314=VECTOR('',#1063,1000.);
#315=VECTOR('',#1064,1000.);
#316=VECTOR('',#1071,1000.);
#317=VECTOR('',#1072,1000.);
#318=VECTOR('',#1077,1000.);
#319=VECTOR('',#1078,1000.);
#320=VECTOR('',#1079,1000.);
#321=VECTOR('',#1082,1000.);
#322=VECTOR('',#1087,1000.);
#323=VECTOR('',#1092,1000.);
#324=VECTOR('',#1093,1000.);
#325=VECTOR('',#1094,1000.);
#326=VECTOR('',#1095,10.);
#327=VECTOR('',#1098,1000.);
#328=VECTOR('',#1099,1000.);
#329=VECTOR('',#1102,1000.);
#330=VECTOR('',#1103,1000.);
#331=VECTOR('',#1106,1000.);
#332=VECTOR('',#1107,1000.);
#333=VECTOR('',#1110,1000.);
#334=VECTOR('',#1111,1000.);
#335=VECTOR('',#1112,1000.);
#336=VECTOR('',#1117,1000.);
#337=VECTOR('',#1118,1000.);
#338=VECTOR('',#1121,1000.);
#339=VECTOR('',#1128,1.59999949798483);
#340=VECTOR('',#1133,1.60000166147163);
#341=VECTOR('',#1142,1000.);
#342=VERTEX_POINT('',#1154);
#343=VERTEX_POINT('',#1155);
#344=VERTEX_POINT('',#1157);
#345=VERTEX_POINT('',#1159);
#346=VERTEX_POINT('',#1163);
#347=VERTEX_POINT('',#1165);
#348=VERTEX_POINT('',#1169);
#349=VERTEX_POINT('',#1171);
#350=VERTEX_POINT('',#1175);
#351=VERTEX_POINT('',#1176);
#352=VERTEX_POINT('',#1178);
#353=VERTEX_POINT('',#1180);
#354=VERTEX_POINT('',#1182);
#355=VERTEX_POINT('',#1184);
#356=VERTEX_POINT('',#1188);
#357=VERTEX_POINT('',#1189);
#358=VERTEX_POINT('',#1191);
#359=VERTEX_POINT('',#1193);
#360=VERTEX_POINT('',#1195);
#361=VERTEX_POINT('',#1197);
#362=VERTEX_POINT('',#1202);
#363=VERTEX_POINT('',#1204);
#364=VERTEX_POINT('',#1206);
#365=VERTEX_POINT('',#1208);
#366=VERTEX_POINT('',#1210);
#367=VERTEX_POINT('',#1212);
#368=VERTEX_POINT('',#1216);
#369=VERTEX_POINT('',#1218);
#370=VERTEX_POINT('',#1220);
#371=VERTEX_POINT('',#1224);
#372=VERTEX_POINT('',#1226);
#373=VERTEX_POINT('',#1228);
#374=VERTEX_POINT('',#1230);
#375=VERTEX_POINT('',#1232);
#376=VERTEX_POINT('',#1236);
#377=VERTEX_POINT('',#1238);
#378=VERTEX_POINT('',#1240);
#379=VERTEX_POINT('',#1242);
#380=VERTEX_POINT('',#1246);
#381=VERTEX_POINT('',#1247);
#382=VERTEX_POINT('',#1249);
#383=VERTEX_POINT('',#1251);
#384=VERTEX_POINT('',#1255);
#385=VERTEX_POINT('',#1257);
#386=VERTEX_POINT('',#1261);
#387=VERTEX_POINT('',#1263);
#388=VERTEX_POINT('',#1265);
#389=VERTEX_POINT('',#1269);
#390=VERTEX_POINT('',#1271);
#391=VERTEX_POINT('',#1273);
#392=VERTEX_POINT('',#1275);
#393=VERTEX_POINT('',#1279);
#394=VERTEX_POINT('',#1281);
#395=VERTEX_POINT('',#1283);
#396=VERTEX_POINT('',#1287);
#397=VERTEX_POINT('',#1291);
#398=VERTEX_POINT('',#1293);
#399=VERTEX_POINT('',#1295);
#400=VERTEX_POINT('',#1298);
#401=VERTEX_POINT('',#1301);
#402=VERTEX_POINT('',#1303);
#403=VERTEX_POINT('',#1306);
#404=VERTEX_POINT('',#1309);
#405=VERTEX_POINT('',#1311);
#406=VERTEX_POINT('',#1313);
#407=VERTEX_POINT('',#1315);
#408=VERTEX_POINT('',#1318);
#409=VERTEX_POINT('',#1322);
#410=VERTEX_POINT('',#1324);
#411=VERTEX_POINT('',#1326);
#412=VERTEX_POINT('',#1330);
#413=VERTEX_POINT('',#1336);
#414=VERTEX_POINT('',#1341);
#415=VERTEX_POINT('',#1345);
#416=VERTEX_POINT('',#1348);
#417=VERTEX_POINT('',#1354);
#418=VERTEX_POINT('',#1358);
#419=VERTEX_POINT('',#1362);
#420=EDGE_CURVE('',#342,#343,#146,.T.);
#421=EDGE_CURVE('',#343,#344,#147,.T.);
#422=EDGE_CURVE('',#344,#345,#148,.T.);
#423=EDGE_CURVE('',#345,#342,#149,.T.);
#424=EDGE_CURVE('',#345,#346,#150,.T.);
#425=EDGE_CURVE('',#346,#347,#151,.T.);
#426=EDGE_CURVE('',#347,#342,#152,.T.);
#427=EDGE_CURVE('',#346,#348,#153,.T.);
#428=EDGE_CURVE('',#348,#349,#154,.T.);
#429=EDGE_CURVE('',#349,#347,#155,.T.);
#430=EDGE_CURVE('',#350,#351,#156,.T.);
#431=EDGE_CURVE('',#351,#352,#157,.T.);
#432=EDGE_CURVE('',#352,#353,#158,.T.);
#433=EDGE_CURVE('',#353,#354,#159,.T.);
#434=EDGE_CURVE('',#354,#355,#160,.T.);
#435=EDGE_CURVE('',#355,#350,#161,.T.);
#436=EDGE_CURVE('',#356,#357,#162,.T.);
#437=EDGE_CURVE('',#357,#358,#163,.T.);
#438=EDGE_CURVE('',#358,#359,#53,.T.);
#439=EDGE_CURVE('',#359,#360,#164,.T.);
#440=EDGE_CURVE('',#360,#361,#165,.T.);
#441=EDGE_CURVE('',#361,#356,#166,.T.);
#442=EDGE_CURVE('',#350,#357,#167,.T.);
#443=EDGE_CURVE('',#356,#362,#168,.T.);
#444=EDGE_CURVE('',#362,#363,#39,.T.);
#445=EDGE_CURVE('',#363,#364,#40,.T.);
#446=EDGE_CURVE('',#364,#365,#169,.T.);
#447=EDGE_CURVE('',#365,#366,#41,.T.);
#448=EDGE_CURVE('',#366,#367,#42,.T.);
#449=EDGE_CURVE('',#367,#351,#170,.T.);
#450=EDGE_CURVE('',#355,#368,#43,.T.);
#451=EDGE_CURVE('',#368,#369,#171,.T.);
#452=EDGE_CURVE('',#369,#370,#172,.T.);
#453=EDGE_CURVE('',#370,#358,#173,.T.);
#454=EDGE_CURVE('',#352,#371,#174,.T.);
#455=EDGE_CURVE('',#371,#372,#44,.T.);
#456=EDGE_CURVE('',#372,#373,#45,.T.);
#457=EDGE_CURVE('',#373,#374,#175,.T.);
#458=EDGE_CURVE('',#374,#375,#176,.T.);
#459=EDGE_CURVE('',#375,#353,#177,.T.);
#460=EDGE_CURVE('',#375,#376,#178,.T.);
#461=EDGE_CURVE('',#376,#377,#179,.T.);
#462=EDGE_CURVE('',#377,#378,#54,.T.);
#463=EDGE_CURVE('',#378,#379,#180,.T.);
#464=EDGE_CURVE('',#379,#354,#46,.T.);
#465=EDGE_CURVE('',#380,#381,#181,.T.);
#466=EDGE_CURVE('',#381,#382,#182,.T.);
#467=EDGE_CURVE('',#382,#383,#183,.T.);
#468=EDGE_CURVE('',#383,#380,#184,.T.);
#469=EDGE_CURVE('',#383,#384,#185,.T.);
#470=EDGE_CURVE('',#384,#385,#186,.T.);
#471=EDGE_CURVE('',#385,#380,#187,.T.);
#472=EDGE_CURVE('',#381,#386,#188,.T.);
#473=EDGE_CURVE('',#386,#387,#189,.T.);
#474=EDGE_CURVE('',#387,#388,#190,.T.);
#475=EDGE_CURVE('',#388,#382,#191,.T.);
#476=EDGE_CURVE('',#388,#389,#192,.T.);
#477=EDGE_CURVE('',#389,#390,#193,.T.);
#478=EDGE_CURVE('',#390,#391,#194,.T.);
#479=EDGE_CURVE('',#391,#392,#195,.T.);
#480=EDGE_CURVE('',#392,#384,#196,.T.);
#481=EDGE_CURVE('',#385,#393,#197,.T.);
#482=EDGE_CURVE('',#393,#394,#198,.T.);
#483=EDGE_CURVE('',#394,#395,#199,.T.);
#484=EDGE_CURVE('',#395,#386,#200,.T.);
#485=EDGE_CURVE('',#361,#396,#201,.T.);
#486=EDGE_CURVE('',#396,#362,#202,.T.);
#487=EDGE_CURVE('',#394,#397,#203,.T.);
#488=EDGE_CURVE('',#397,#398,#204,.T.);
#489=EDGE_CURVE('',#398,#399,#205,.T.);
#490=EDGE_CURVE('',#399,#395,#206,.T.);
#491=EDGE_CURVE('',#400,#400,#47,.T.);
#492=EDGE_CURVE('',#375,#401,#207,.T.);
#493=EDGE_CURVE('',#401,#402,#208,.T.);
#494=EDGE_CURVE('',#402,#376,#209,.T.);
#495=EDGE_CURVE('',#403,#403,#48,.T.);
#496=EDGE_CURVE('',#359,#404,#210,.T.);
#497=EDGE_CURVE('',#404,#405,#211,.T.);
#498=EDGE_CURVE('',#405,#406,#212,.T.);
#499=EDGE_CURVE('',#406,#407,#55,.T.);
#500=EDGE_CURVE('',#407,#398,#213,.T.);
#501=EDGE_CURVE('',#397,#408,#214,.T.);
#502=EDGE_CURVE('',#408,#360,#215,.T.);
#503=EDGE_CURVE('',#408,#409,#216,.T.);
#504=EDGE_CURVE('',#409,#410,#217,.T.);
#505=EDGE_CURVE('',#410,#411,#49,.T.);
#506=EDGE_CURVE('',#411,#396,#50,.T.);
#507=EDGE_CURVE('',#412,#379,#218,.T.);
#508=EDGE_CURVE('',#378,#406,#219,.T.);
#509=EDGE_CURVE('',#405,#412,#56,.T.);
#510=EDGE_CURVE('',#344,#402,#220,.T.);
#511=EDGE_CURVE('',#401,#413,#221,.T.);
#512=EDGE_CURVE('',#413,#348,#222,.T.);
#513=EDGE_CURVE('',#374,#413,#223,.T.);
#514=EDGE_CURVE('',#414,#414,#51,.T.);
#515=EDGE_CURVE('',#393,#409,#224,.T.);
#516=EDGE_CURVE('',#415,#415,#52,.T.);
#517=EDGE_CURVE('',#343,#416,#225,.T.);
#518=EDGE_CURVE('',#416,#389,#226,.T.);
#519=EDGE_CURVE('',#387,#399,#227,.T.);
#520=EDGE_CURVE('',#407,#377,#228,.T.);
#521=EDGE_CURVE('',#416,#417,#229,.T.);
#522=EDGE_CURVE('',#417,#390,#230,.T.);
#523=EDGE_CURVE('',#417,#418,#231,.T.);
#524=EDGE_CURVE('',#418,#391,#232,.T.);
#525=EDGE_CURVE('',#418,#419,#233,.T.);
#526=EDGE_CURVE('',#419,#392,#234,.T.);
#527=EDGE_CURVE('',#373,#365,#235,.T.);
#528=EDGE_CURVE('',#364,#410,#236,.T.);
#529=EDGE_CURVE('',#419,#349,#237,.T.);
#530=EDGE_CURVE('',#366,#372,#238,.T.);
#531=EDGE_CURVE('',#371,#367,#239,.T.);
#532=EDGE_CURVE('',#411,#363,#240,.T.);
#533=EDGE_CURVE('',#414,#415,#241,.T.);
#534=EDGE_CURVE('',#403,#400,#242,.T.);
#535=EDGE_CURVE('',#370,#404,#18,.T.);
#536=EDGE_CURVE('',#369,#412,#57,.T.);
#537=EDGE_CURVE('',#379,#368,#243,.T.);
#538=ORIENTED_EDGE('',*,*,#420,.T.);
#539=ORIENTED_EDGE('',*,*,#421,.T.);
#540=ORIENTED_EDGE('',*,*,#422,.T.);
#541=ORIENTED_EDGE('',*,*,#423,.T.);
#542=ORIENTED_EDGE('',*,*,#423,.F.);
#543=ORIENTED_EDGE('',*,*,#424,.T.);
#544=ORIENTED_EDGE('',*,*,#425,.T.);
#545=ORIENTED_EDGE('',*,*,#426,.T.);
#546=ORIENTED_EDGE('',*,*,#425,.F.);
#547=ORIENTED_EDGE('',*,*,#427,.T.);
#548=ORIENTED_EDGE('',*,*,#428,.T.);
#549=ORIENTED_EDGE('',*,*,#429,.T.);
#550=ORIENTED_EDGE('',*,*,#430,.T.);
#551=ORIENTED_EDGE('',*,*,#431,.T.);
#552=ORIENTED_EDGE('',*,*,#432,.T.);
#553=ORIENTED_EDGE('',*,*,#433,.T.);
#554=ORIENTED_EDGE('',*,*,#434,.T.);
#555=ORIENTED_EDGE('',*,*,#435,.T.);
#556=ORIENTED_EDGE('',*,*,#436,.T.);
#557=ORIENTED_EDGE('',*,*,#437,.T.);
#558=ORIENTED_EDGE('',*,*,#438,.T.);
#559=ORIENTED_EDGE('',*,*,#439,.T.);
#560=ORIENTED_EDGE('',*,*,#440,.T.);
#561=ORIENTED_EDGE('',*,*,#441,.T.);
#562=ORIENTED_EDGE('',*,*,#442,.T.);
#563=ORIENTED_EDGE('',*,*,#436,.F.);
#564=ORIENTED_EDGE('',*,*,#443,.T.);
#565=ORIENTED_EDGE('',*,*,#444,.T.);
#566=ORIENTED_EDGE('',*,*,#445,.T.);
#567=ORIENTED_EDGE('',*,*,#446,.T.);
#568=ORIENTED_EDGE('',*,*,#447,.T.);
#569=ORIENTED_EDGE('',*,*,#448,.T.);
#570=ORIENTED_EDGE('',*,*,#449,.T.);
#571=ORIENTED_EDGE('',*,*,#430,.F.);
#572=ORIENTED_EDGE('',*,*,#435,.F.);
#573=ORIENTED_EDGE('',*,*,#450,.T.);
#574=ORIENTED_EDGE('',*,*,#451,.T.);
#575=ORIENTED_EDGE('',*,*,#452,.T.);
#576=ORIENTED_EDGE('',*,*,#453,.T.);
#577=ORIENTED_EDGE('',*,*,#437,.F.);
#578=ORIENTED_EDGE('',*,*,#442,.F.);
#579=ORIENTED_EDGE('',*,*,#454,.T.);
#580=ORIENTED_EDGE('',*,*,#455,.T.);
#581=ORIENTED_EDGE('',*,*,#456,.T.);
#582=ORIENTED_EDGE('',*,*,#457,.T.);
#583=ORIENTED_EDGE('',*,*,#458,.T.);
#584=ORIENTED_EDGE('',*,*,#459,.T.);
#585=ORIENTED_EDGE('',*,*,#432,.F.);
#586=ORIENTED_EDGE('',*,*,#459,.F.);
#587=ORIENTED_EDGE('',*,*,#460,.T.);
#588=ORIENTED_EDGE('',*,*,#461,.T.);
#589=ORIENTED_EDGE('',*,*,#462,.T.);
#590=ORIENTED_EDGE('',*,*,#463,.T.);
#591=ORIENTED_EDGE('',*,*,#464,.T.);
#592=ORIENTED_EDGE('',*,*,#433,.F.);
#593=ORIENTED_EDGE('',*,*,#465,.T.);
#594=ORIENTED_EDGE('',*,*,#466,.T.);
#595=ORIENTED_EDGE('',*,*,#467,.T.);
#596=ORIENTED_EDGE('',*,*,#468,.T.);
#597=ORIENTED_EDGE('',*,*,#468,.F.);
#598=ORIENTED_EDGE('',*,*,#469,.T.);
#599=ORIENTED_EDGE('',*,*,#470,.T.);
#600=ORIENTED_EDGE('',*,*,#471,.T.);
#601=ORIENTED_EDGE('',*,*,#472,.T.);
#602=ORIENTED_EDGE('',*,*,#473,.T.);
#603=ORIENTED_EDGE('',*,*,#474,.T.);
#604=ORIENTED_EDGE('',*,*,#475,.T.);
#605=ORIENTED_EDGE('',*,*,#466,.F.);
#606=ORIENTED_EDGE('',*,*,#475,.F.);
#607=ORIENTED_EDGE('',*,*,#476,.T.);
#608=ORIENTED_EDGE('',*,*,#477,.T.);
#609=ORIENTED_EDGE('',*,*,#478,.T.);
#610=ORIENTED_EDGE('',*,*,#479,.T.);
#611=ORIENTED_EDGE('',*,*,#480,.T.);
#612=ORIENTED_EDGE('',*,*,#469,.F.);
#613=ORIENTED_EDGE('',*,*,#467,.F.);
#614=ORIENTED_EDGE('',*,*,#471,.F.);
#615=ORIENTED_EDGE('',*,*,#481,.T.);
#616=ORIENTED_EDGE('',*,*,#482,.T.);
#617=ORIENTED_EDGE('',*,*,#483,.T.);
#618=ORIENTED_EDGE('',*,*,#484,.T.);
#619=ORIENTED_EDGE('',*,*,#472,.F.);
#620=ORIENTED_EDGE('',*,*,#465,.F.);
#621=ORIENTED_EDGE('',*,*,#441,.F.);
#622=ORIENTED_EDGE('',*,*,#485,.T.);
#623=ORIENTED_EDGE('',*,*,#486,.T.);
#624=ORIENTED_EDGE('',*,*,#443,.F.);
#625=ORIENTED_EDGE('',*,*,#483,.F.);
#626=ORIENTED_EDGE('',*,*,#487,.T.);
#627=ORIENTED_EDGE('',*,*,#488,.T.);
#628=ORIENTED_EDGE('',*,*,#489,.T.);
#629=ORIENTED_EDGE('',*,*,#490,.T.);
#630=ORIENTED_EDGE('',*,*,#491,.T.);
#631=ORIENTED_EDGE('',*,*,#492,.T.);
#632=ORIENTED_EDGE('',*,*,#493,.T.);
#633=ORIENTED_EDGE('',*,*,#494,.T.);
#634=ORIENTED_EDGE('',*,*,#460,.F.);
#635=ORIENTED_EDGE('',*,*,#495,.T.);
#636=ORIENTED_EDGE('',*,*,#496,.T.);
#637=ORIENTED_EDGE('',*,*,#497,.T.);
#638=ORIENTED_EDGE('',*,*,#498,.T.);
#639=ORIENTED_EDGE('',*,*,#499,.T.);
#640=ORIENTED_EDGE('',*,*,#500,.T.);
#641=ORIENTED_EDGE('',*,*,#488,.F.);
#642=ORIENTED_EDGE('',*,*,#501,.T.);
#643=ORIENTED_EDGE('',*,*,#502,.T.);
#644=ORIENTED_EDGE('',*,*,#439,.F.);
#645=ORIENTED_EDGE('',*,*,#502,.F.);
#646=ORIENTED_EDGE('',*,*,#503,.T.);
#647=ORIENTED_EDGE('',*,*,#504,.T.);
#648=ORIENTED_EDGE('',*,*,#505,.T.);
#649=ORIENTED_EDGE('',*,*,#506,.T.);
#650=ORIENTED_EDGE('',*,*,#485,.F.);
#651=ORIENTED_EDGE('',*,*,#440,.F.);
#652=ORIENTED_EDGE('',*,*,#507,.T.);
#653=ORIENTED_EDGE('',*,*,#463,.F.);
#654=ORIENTED_EDGE('',*,*,#508,.T.);
#655=ORIENTED_EDGE('',*,*,#498,.F.);
#656=ORIENTED_EDGE('',*,*,#509,.T.);
#657=ORIENTED_EDGE('',*,*,#510,.T.);
#658=ORIENTED_EDGE('',*,*,#493,.F.);
#659=ORIENTED_EDGE('',*,*,#511,.T.);
#660=ORIENTED_EDGE('',*,*,#512,.T.);
#661=ORIENTED_EDGE('',*,*,#427,.F.);
#662=ORIENTED_EDGE('',*,*,#424,.F.);
#663=ORIENTED_EDGE('',*,*,#422,.F.);
#664=ORIENTED_EDGE('',*,*,#513,.T.);
#665=ORIENTED_EDGE('',*,*,#511,.F.);
#666=ORIENTED_EDGE('',*,*,#492,.F.);
#667=ORIENTED_EDGE('',*,*,#458,.F.);
#668=ORIENTED_EDGE('',*,*,#514,.T.);
#669=ORIENTED_EDGE('',*,*,#515,.T.);
#670=ORIENTED_EDGE('',*,*,#503,.F.);
#671=ORIENTED_EDGE('',*,*,#501,.F.);
#672=ORIENTED_EDGE('',*,*,#487,.F.);
#673=ORIENTED_EDGE('',*,*,#482,.F.);
#674=ORIENTED_EDGE('',*,*,#516,.T.);
#675=ORIENTED_EDGE('',*,*,#517,.T.);
#676=ORIENTED_EDGE('',*,*,#518,.T.);
#677=ORIENTED_EDGE('',*,*,#476,.F.);
#678=ORIENTED_EDGE('',*,*,#474,.F.);
#679=ORIENTED_EDGE('',*,*,#519,.T.);
#680=ORIENTED_EDGE('',*,*,#489,.F.);
#681=ORIENTED_EDGE('',*,*,#500,.F.);
#682=ORIENTED_EDGE('',*,*,#520,.T.);
#683=ORIENTED_EDGE('',*,*,#461,.F.);
#684=ORIENTED_EDGE('',*,*,#494,.F.);
#685=ORIENTED_EDGE('',*,*,#510,.F.);
#686=ORIENTED_EDGE('',*,*,#421,.F.);
#687=ORIENTED_EDGE('',*,*,#518,.F.);
#688=ORIENTED_EDGE('',*,*,#521,.T.);
#689=ORIENTED_EDGE('',*,*,#522,.T.);
#690=ORIENTED_EDGE('',*,*,#477,.F.);
#691=ORIENTED_EDGE('',*,*,#522,.F.);
#692=ORIENTED_EDGE('',*,*,#523,.T.);
#693=ORIENTED_EDGE('',*,*,#524,.T.);
#694=ORIENTED_EDGE('',*,*,#478,.F.);
#695=ORIENTED_EDGE('',*,*,#524,.F.);
#696=ORIENTED_EDGE('',*,*,#525,.T.);
#697=ORIENTED_EDGE('',*,*,#526,.T.);
#698=ORIENTED_EDGE('',*,*,#479,.F.);
#699=ORIENTED_EDGE('',*,*,#512,.F.);
#700=ORIENTED_EDGE('',*,*,#513,.F.);
#701=ORIENTED_EDGE('',*,*,#457,.F.);
#702=ORIENTED_EDGE('',*,*,#527,.T.);
#703=ORIENTED_EDGE('',*,*,#446,.F.);
#704=ORIENTED_EDGE('',*,*,#528,.T.);
#705=ORIENTED_EDGE('',*,*,#504,.F.);
#706=ORIENTED_EDGE('',*,*,#515,.F.);
#707=ORIENTED_EDGE('',*,*,#481,.F.);
#708=ORIENTED_EDGE('',*,*,#470,.F.);
#709=ORIENTED_EDGE('',*,*,#480,.F.);
#710=ORIENTED_EDGE('',*,*,#526,.F.);
#711=ORIENTED_EDGE('',*,*,#529,.T.);
#712=ORIENTED_EDGE('',*,*,#428,.F.);
#713=ORIENTED_EDGE('',*,*,#426,.F.);
#714=ORIENTED_EDGE('',*,*,#429,.F.);
#715=ORIENTED_EDGE('',*,*,#529,.F.);
#716=ORIENTED_EDGE('',*,*,#525,.F.);
#717=ORIENTED_EDGE('',*,*,#523,.F.);
#718=ORIENTED_EDGE('',*,*,#521,.F.);
#719=ORIENTED_EDGE('',*,*,#517,.F.);
#720=ORIENTED_EDGE('',*,*,#420,.F.);
#721=ORIENTED_EDGE('',*,*,#530,.T.);
#722=ORIENTED_EDGE('',*,*,#455,.F.);
#723=ORIENTED_EDGE('',*,*,#531,.T.);
#724=ORIENTED_EDGE('',*,*,#448,.F.);
#725=ORIENTED_EDGE('',*,*,#486,.F.);
#726=ORIENTED_EDGE('',*,*,#506,.F.);
#727=ORIENTED_EDGE('',*,*,#532,.T.);
#728=ORIENTED_EDGE('',*,*,#444,.F.);
#729=ORIENTED_EDGE('',*,*,#532,.F.);
#730=ORIENTED_EDGE('',*,*,#505,.F.);
#731=ORIENTED_EDGE('',*,*,#528,.F.);
#732=ORIENTED_EDGE('',*,*,#445,.F.);
#733=ORIENTED_EDGE('',*,*,#520,.F.);
#734=ORIENTED_EDGE('',*,*,#499,.F.);
#735=ORIENTED_EDGE('',*,*,#508,.F.);
#736=ORIENTED_EDGE('',*,*,#462,.F.);
#737=ORIENTED_EDGE('',*,*,#514,.F.);
#738=ORIENTED_EDGE('',*,*,#533,.T.);
#739=ORIENTED_EDGE('',*,*,#516,.F.);
#740=ORIENTED_EDGE('',*,*,#533,.F.);
#741=ORIENTED_EDGE('',*,*,#527,.F.);
#742=ORIENTED_EDGE('',*,*,#456,.F.);
#743=ORIENTED_EDGE('',*,*,#530,.F.);
#744=ORIENTED_EDGE('',*,*,#447,.F.);
#745=ORIENTED_EDGE('',*,*,#495,.F.);
#746=ORIENTED_EDGE('',*,*,#534,.T.);
#747=ORIENTED_EDGE('',*,*,#491,.F.);
#748=ORIENTED_EDGE('',*,*,#534,.F.);
#749=ORIENTED_EDGE('',*,*,#453,.F.);
#750=ORIENTED_EDGE('',*,*,#535,.T.);
#751=ORIENTED_EDGE('',*,*,#496,.F.);
#752=ORIENTED_EDGE('',*,*,#438,.F.);
#753=ORIENTED_EDGE('',*,*,#536,.T.);
#754=ORIENTED_EDGE('',*,*,#509,.F.);
#755=ORIENTED_EDGE('',*,*,#497,.F.);
#756=ORIENTED_EDGE('',*,*,#535,.F.);
#757=ORIENTED_EDGE('',*,*,#452,.F.);
#758=ORIENTED_EDGE('',*,*,#464,.F.);
#759=ORIENTED_EDGE('',*,*,#537,.T.);
#760=ORIENTED_EDGE('',*,*,#450,.F.);
#761=ORIENTED_EDGE('',*,*,#434,.F.);
#762=ORIENTED_EDGE('',*,*,#449,.F.);
#763=ORIENTED_EDGE('',*,*,#531,.F.);
#764=ORIENTED_EDGE('',*,*,#454,.F.);
#765=ORIENTED_EDGE('',*,*,#431,.F.);
#766=ORIENTED_EDGE('',*,*,#537,.F.);
#767=ORIENTED_EDGE('',*,*,#507,.F.);
#768=ORIENTED_EDGE('',*,*,#536,.F.);
#769=ORIENTED_EDGE('',*,*,#451,.F.);
#770=ORIENTED_EDGE('',*,*,#484,.F.);
#771=ORIENTED_EDGE('',*,*,#490,.F.);
#772=ORIENTED_EDGE('',*,*,#519,.F.);
#773=ORIENTED_EDGE('',*,*,#473,.F.);
#774=PLANE('',#863);
#775=PLANE('',#864);
#776=PLANE('',#865);
#777=PLANE('',#866);
#778=PLANE('',#867);
#779=PLANE('',#869);
#780=PLANE('',#874);
#781=PLANE('',#876);
#782=PLANE('',#879);
#783=PLANE('',#882);
#784=PLANE('',#883);
#785=PLANE('',#884);
#786=PLANE('',#885);
#787=PLANE('',#886);
#788=PLANE('',#887);
#789=PLANE('',#888);
#790=PLANE('',#890);
#791=PLANE('',#892);
#792=PLANE('',#894);
#793=PLANE('',#897);
#794=PLANE('',#899);
#795=PLANE('',#900);
#796=PLANE('',#902);
#797=PLANE('',#904);
#798=PLANE('',#905);
#799=PLANE('',#906);
#800=PLANE('',#907);
#801=PLANE('',#908);
#802=PLANE('',#909);
#803=PLANE('',#921);
#804=PLANE('',#922);
#805=PLANE('',#923);
#806=ADVANCED_FACE('',(#58),#774,.T.);
#807=ADVANCED_FACE('',(#59),#775,.T.);
#808=ADVANCED_FACE('',(#60),#776,.T.);
#809=ADVANCED_FACE('',(#61),#777,.T.);
#810=ADVANCED_FACE('',(#62),#778,.F.);
#811=ADVANCED_FACE('',(#63),#779,.F.);
#812=ADVANCED_FACE('',(#64),#780,.F.);
#813=ADVANCED_FACE('',(#65),#781,.F.);
#814=ADVANCED_FACE('',(#66),#782,.T.);
#815=ADVANCED_FACE('',(#67),#783,.T.);
#816=ADVANCED_FACE('',(#68),#784,.F.);
#817=ADVANCED_FACE('',(#69),#785,.F.);
#818=ADVANCED_FACE('',(#70),#786,.F.);
#819=ADVANCED_FACE('',(#71),#787,.F.);
#820=ADVANCED_FACE('',(#72),#788,.F.);
#821=ADVANCED_FACE('',(#73,#29),#789,.T.);
#822=ADVANCED_FACE('',(#74,#30),#790,.F.);
#823=ADVANCED_FACE('',(#75),#791,.F.);
#824=ADVANCED_FACE('',(#76),#792,.T.);
#825=ADVANCED_FACE('',(#77),#793,.F.);
#826=ADVANCED_FACE('',(#78),#794,.T.);
#827=ADVANCED_FACE('',(#79,#31),#795,.F.);
#828=ADVANCED_FACE('',(#80,#32),#796,.T.);
#829=ADVANCED_FACE('',(#81),#797,.F.);
#830=ADVANCED_FACE('',(#82),#798,.T.);
#831=ADVANCED_FACE('',(#83),#799,.F.);
#832=ADVANCED_FACE('',(#84),#800,.T.);
#833=ADVANCED_FACE('',(#85),#801,.T.);
#834=ADVANCED_FACE('',(#86),#802,.T.);
#835=ADVANCED_FACE('',(#87),#19,.F.);
#836=ADVANCED_FACE('',(#88),#20,.T.);
#837=ADVANCED_FACE('',(#89),#21,.F.);
#838=ADVANCED_FACE('',(#90),#22,.F.);
#839=ADVANCED_FACE('',(#91),#23,.F.);
#840=ADVANCED_FACE('',(#92),#24,.T.);
#841=ADVANCED_FACE('',(#93),#25,.F.);
#842=ADVANCED_FACE('',(#94),#26,.T.);
#843=ADVANCED_FACE('',(#95),#27,.T.);
#844=ADVANCED_FACE('',(#96),#28,.T.);
#845=ADVANCED_FACE('',(#97),#803,.T.);
#846=ADVANCED_FACE('',(#98),#804,.F.);
#847=ADVANCED_FACE('',(#99),#805,.F.);
#848=CLOSED_SHELL('',(#806,#807,#808,#809,#810,#811,#812,#813,#814,#815,
#816,#817,#818,#819,#820,#821,#822,#823,#824,#825,#826,#827,#828,#829,#830,
#831,#832,#833,#834,#835,#836,#837,#838,#839,#840,#841,#842,#843,#844,#845,
#846,#847));
#849=DERIVED_UNIT_ELEMENT(#851,1.);
#850=DERIVED_UNIT_ELEMENT(#1406,-3.);
#851=(
MASS_UNIT()
NAMED_UNIT(*)
SI_UNIT(.KILO.,.GRAM.)
);
#852=DERIVED_UNIT((#849,#850));
#853=MEASURE_REPRESENTATION_ITEM('density measure',
POSITIVE_RATIO_MEASURE(7850.),#852);
#854=PROPERTY_DEFINITION_REPRESENTATION(#859,#856);
#855=PROPERTY_DEFINITION_REPRESENTATION(#860,#857);
#856=REPRESENTATION('material name',(#858),#1403);
#857=REPRESENTATION('density',(#853),#1403);
#858=DESCRIPTIVE_REPRESENTATION_ITEM('Steel','Steel');
#859=PROPERTY_DEFINITION('material property','material name',#1418);
#860=PROPERTY_DEFINITION('material property','density of part',#1418);
#861=AXIS2_PLACEMENT_3D('',#1151,#925,#926);
#862=AXIS2_PLACEMENT_3D('',#1152,#927,#928);
#863=AXIS2_PLACEMENT_3D('',#1153,#929,#930);
#864=AXIS2_PLACEMENT_3D('',#1162,#935,#936);
#865=AXIS2_PLACEMENT_3D('',#1168,#940,#941);
#866=AXIS2_PLACEMENT_3D('',#1174,#945,#946);
#867=AXIS2_PLACEMENT_3D('',#1187,#953,#954);
#868=AXIS2_PLACEMENT_3D('',#1194,#957,#958);
#869=AXIS2_PLACEMENT_3D('',#1200,#962,#963);
#870=AXIS2_PLACEMENT_3D('',#1205,#966,#967);
#871=AXIS2_PLACEMENT_3D('',#1207,#968,#969);
#872=AXIS2_PLACEMENT_3D('',#1211,#971,#972);
#873=AXIS2_PLACEMENT_3D('',#1213,#973,#974);
#874=AXIS2_PLACEMENT_3D('',#1215,#976,#977);
#875=AXIS2_PLACEMENT_3D('',#1217,#978,#979);
#876=AXIS2_PLACEMENT_3D('',#1223,#983,#984);
#877=AXIS2_PLACEMENT_3D('',#1227,#986,#987);
#878=AXIS2_PLACEMENT_3D('',#1229,#988,#989);
#879=AXIS2_PLACEMENT_3D('',#1235,#993,#994);
#880=AXIS2_PLACEMENT_3D('',#1241,#997,#998);
#881=AXIS2_PLACEMENT_3D('',#1244,#1000,#1001);
#882=AXIS2_PLACEMENT_3D('',#1245,#1002,#1003);
#883=AXIS2_PLACEMENT_3D('',#1254,#1008,#1009);
#884=AXIS2_PLACEMENT_3D('',#1260,#1013,#1014);
#885=AXIS2_PLACEMENT_3D('',#1268,#1019,#1020);
#886=AXIS2_PLACEMENT_3D('',#1278,#1026,#1027);
#887=AXIS2_PLACEMENT_3D('',#1286,#1032,#1033);
#888=AXIS2_PLACEMENT_3D('',#1290,#1036,#1037);
#889=AXIS2_PLACEMENT_3D('',#1299,#1042,#1043);
#890=AXIS2_PLACEMENT_3D('',#1300,#1044,#1045);
#891=AXIS2_PLACEMENT_3D('',#1307,#1049,#1050);
#892=AXIS2_PLACEMENT_3D('',#1308,#1051,#1052);
#893=AXIS2_PLACEMENT_3D('',#1316,#1056,#1057);
#894=AXIS2_PLACEMENT_3D('',#1321,#1061,#1062);
#895=AXIS2_PLACEMENT_3D('',#1327,#1065,#1066);
#896=AXIS2_PLACEMENT_3D('',#1328,#1067,#1068);
#897=AXIS2_PLACEMENT_3D('',#1329,#1069,#1070);
#898=AXIS2_PLACEMENT_3D('',#1333,#1073,#1074);
#899=AXIS2_PLACEMENT_3D('',#1334,#1075,#1076);
#900=AXIS2_PLACEMENT_3D('',#1339,#1080,#1081);
#901=AXIS2_PLACEMENT_3D('',#1342,#1083,#1084);
#902=AXIS2_PLACEMENT_3D('',#1343,#1085,#1086);
#903=AXIS2_PLACEMENT_3D('',#1346,#1088,#1089);
#904=AXIS2_PLACEMENT_3D('',#1347,#1090,#1091);
#905=AXIS2_PLACEMENT_3D('',#1353,#1096,#1097);
#906=AXIS2_PLACEMENT_3D('',#1357,#1100,#1101);
#907=AXIS2_PLACEMENT_3D('',#1361,#1104,#1105);
#908=AXIS2_PLACEMENT_3D('',#1365,#1108,#1109);
#909=AXIS2_PLACEMENT_3D('',#1369,#1113,#1114);
#910=AXIS2_PLACEMENT_3D('',#1370,#1115,#1116);
#911=AXIS2_PLACEMENT_3D('',#1373,#1119,#1120);
#912=AXIS2_PLACEMENT_3D('',#1375,#1122,#1123);
#913=AXIS2_PLACEMENT_3D('',#1376,#1124,#1125);
#914=AXIS2_PLACEMENT_3D('',#1377,#1126,#1127);
#915=AXIS2_PLACEMENT_3D('',#1379,#1129,#1130);
#916=AXIS2_PLACEMENT_3D('',#1380,#1131,#1132);
#917=AXIS2_PLACEMENT_3D('',#1382,#1134,#1135);
#918=AXIS2_PLACEMENT_3D('',#1391,#1136,#1137);
#919=AXIS2_PLACEMENT_3D('',#1392,#1138,#1139);
#920=AXIS2_PLACEMENT_3D('',#1393,#1140,#1141);
#921=AXIS2_PLACEMENT_3D('',#1395,#1143,#1144);
#922=AXIS2_PLACEMENT_3D('',#1396,#1145,#1146);
#923=AXIS2_PLACEMENT_3D('',#1397,#1147,#1148);
#924=AXIS2_PLACEMENT_3D('',#1398,#1149,#1150);
#925=DIRECTION('axis',(0.,0.,1.));
#926=DIRECTION('refdir',(1.,0.,0.));
#927=DIRECTION('axis',(0.,0.,1.));
#928=DIRECTION('refdir',(1.,0.,0.));
#929=DIRECTION('center_axis',(-4.07421727367767E-15,-0.943858005533749,
0.330351427104309));
#930=DIRECTION('ref_axis',(-1.,4.31655741625427E-15,2.36658271566304E-30));
#931=DIRECTION('',(-1.,4.31655741625428E-15,0.));
#932=DIRECTION('',(-1.43496321330439E-15,-0.330351427104309,-0.943858005533749));
#933=DIRECTION('',(1.,-4.31655741625428E-15,0.));
#934=DIRECTION('',(-0.0752889433015051,0.329413810372154,0.941179109709008));
#935=DIRECTION('center_axis',(0.410028720008411,-0.850143794865731,0.330351293049624));
#936=DIRECTION('ref_axis',(-0.900711492216707,-0.43441778024012,-1.80411241501588E-16));
#937=DIRECTION('',(0.900711492216707,0.43441778024012,0.));
#938=DIRECTION('',(-0.0752889433015065,0.329413810372153,0.941179109709008));
#939=DIRECTION('',(-0.900711492216707,-0.43441778024012,0.));
#940=DIRECTION('center_axis',(-4.1286256095183E-15,-0.943858005533749,0.330351427104308));
#941=DIRECTION('ref_axis',(-1.,4.37420203601873E-15,7.88860905221012E-31));
#942=DIRECTION('',(1.,-4.37420203601873E-15,0.));
#943=DIRECTION('',(1.43496321330439E-15,0.330351427104308,0.943858005533749));
#944=DIRECTION('',(-1.,4.37420203601873E-15,0.));
#945=DIRECTION('center_axis',(0.,0.,1.));
#946=DIRECTION('ref_axis',(4.34374758384592E-15,1.,0.));
#947=DIRECTION('',(1.,-4.34374758384592E-15,0.));
#948=DIRECTION('',(4.34374758384592E-15,1.,0.));
#949=DIRECTION('',(-1.,4.34374758384592E-15,0.));
#950=DIRECTION('',(-0.969409628719691,0.24544851139404,0.));
#951=DIRECTION('',(-0.245447116323146,-0.969409981941929,-3.64049120537486E-17));
#952=DIRECTION('',(0.969409638731754,-0.245448471850957,0.));
#953=DIRECTION('center_axis',(0.,0.,1.));
#954=DIRECTION('ref_axis',(4.34374758384592E-15,1.,0.));
#955=DIRECTION('',(-1.,4.34374758384592E-15,0.));
#956=DIRECTION('',(-0.969409638731754,0.245448471850957,0.));
#957=DIRECTION('center_axis',(0.,0.,1.));
#958=DIRECTION('ref_axis',(0.969409159044476,-0.245450366389383,0.));
#959=DIRECTION('',(0.969409635505195,-0.245448484594397,0.));
#960=DIRECTION('',(1.,-4.34374758384592E-15,0.));
#961=DIRECTION('',(-4.34374758384592E-15,-1.,0.));
#962=DIRECTION('center_axis',(4.34374758384592E-15,1.,0.));
#963=DIRECTION('ref_axis',(-1.,4.34374758384592E-15,0.));
#964=DIRECTION('',(1.21578820261832E-6,-5.2810770675917E-21,-0.999999999999261));
#965=DIRECTION('',(0.82051494724625,-3.56410981961036E-15,-0.571625070606149));
#966=DIRECTION('center_axis',(-4.34374758384592E-15,-1.,0.));
#967=DIRECTION('ref_axis',(-0.571625070606149,2.48299501931121E-15,-0.820514947246249));
#968=DIRECTION('center_axis',(-1.58704543103195E-13,1.,0.));
#969=DIRECTION('ref_axis',(-1.,-1.58704543103195E-13,0.));
#970=DIRECTION('',(0.,0.,1.));
#971=DIRECTION('center_axis',(-4.34374758384592E-15,-1.,0.));
#972=DIRECTION('ref_axis',(-1.,4.34374758384592E-15,0.));
#973=DIRECTION('center_axis',(4.34374758384592E-15,1.,0.));
#974=DIRECTION('ref_axis',(-0.571624921668183,2.48299437236228E-15,-0.820515051006283));
#975=DIRECTION('',(-0.820515051006283,3.56411027031775E-15,0.571624921668184));
#976=DIRECTION('center_axis',(0.245448471850946,0.969409638731711,2.98413356427292E-7));
#977=DIRECTION('ref_axis',(1.21578820261833E-6,-6.03510974918689E-21,-0.999999999999261));
#978=DIRECTION('center_axis',(-0.245448471850946,-0.969409638731711,-2.98413356446851E-7));
#979=DIRECTION('ref_axis',(0.376236254992016,-0.0952609559209044,0.92161360162848));
#980=DIRECTION('',(0.684128568034571,-0.173216866679004,-0.708494191575962));
#981=DIRECTION('',(-9.07192672120231E-8,-2.84860434524592E-7,0.999999999999955));
#982=DIRECTION('',(0.696038775360459,-0.176232889217444,0.696040222941738));
#983=DIRECTION('center_axis',(4.34374758384592E-15,1.,0.));
#984=DIRECTION('ref_axis',(-1.,4.34374758384592E-15,0.));
#985=DIRECTION('',(0.820515051006283,-3.56411027031775E-15,-0.571624921668184));
#986=DIRECTION('center_axis',(-4.34374758384592E-15,-1.,0.));
#987=DIRECTION('ref_axis',(-0.571624921668183,2.48299437236228E-15,-0.820515051006283));
#988=DIRECTION('center_axis',(4.34374758384592E-15,1.,0.));
#989=DIRECTION('ref_axis',(-1.,4.34374758384592E-15,0.));
#990=DIRECTION('',(0.,0.,1.));
#991=DIRECTION('',(-0.999999999999997,4.34374758384591E-15,-7.50126486791468E-8));
#992=DIRECTION('',(4.63587527773217E-7,-2.01370720366602E-21,-0.999999999999893));
#993=DIRECTION('center_axis',(-0.245448511394038,-0.969409628719685,-1.13786868592788E-7));
#994=DIRECTION('ref_axis',(-4.43368808328423E-22,-1.17377489578959E-7,0.999999999999993));
#995=DIRECTION('',(-0.969409628719689,0.245448511394045,-5.07338617533075E-8));
#996=DIRECTION('',(5.09858186756506E-22,1.1737748957896E-7,-0.999999999999993));
#997=DIRECTION('center_axis',(0.245448511432603,0.969409628709921,1.1384182996423E-7));
#998=DIRECTION('ref_axis',(-0.969409628709927,0.245448511432599,5.08093637019912E-8));
#999=DIRECTION('',(0.684128476384975,-0.173217008103576,-0.708494245497321));
#1000=DIRECTION('center_axis',(0.245448511394038,0.969409628719685,1.13786868594279E-7));
#1001=DIRECTION('ref_axis',(0.328108370266622,-0.0830751167959822,0.940980032907349));
#1002=DIRECTION('center_axis',(0.434417780240119,-0.900711492216707,0.));
#1003=DIRECTION('ref_axis',(-0.900711492216707,-0.434417780240119,0.));
#1004=DIRECTION('',(-0.900711492216707,-0.434417780240119,0.));
#1005=DIRECTION('',(0.,0.,-1.));
#1006=DIRECTION('',(0.900711492216707,0.434417780240119,0.));
#1007=DIRECTION('',(0.,0.,1.));
#1008=DIRECTION('center_axis',(4.34374758384592E-15,1.,0.));
#1009=DIRECTION('ref_axis',(-1.,4.34374758384592E-15,0.));
#1010=DIRECTION('',(1.,-4.34374758384592E-15,0.));
#1011=DIRECTION('',(0.,0.,1.));
#1012=DIRECTION('',(-1.,4.34374758384592E-15,0.));
#1013=DIRECTION('center_axis',(4.34374758384592E-15,1.,0.));
#1014=DIRECTION('ref_axis',(-1.,4.34374758384592E-15,0.));
#1015=DIRECTION('',(-1.,4.34374758384592E-15,0.));
#1016=DIRECTION('',(-0.999550363672403,4.34179447713431E-15,-0.0299845040373737));
#1017=DIRECTION('',(0.,0.,-1.));
#1018=DIRECTION('',(1.,-4.34374758384592E-15,0.));
#1019=DIRECTION('center_axis',(0.,0.,1.));
#1020=DIRECTION('ref_axis',(4.34374758384592E-15,1.,0.));
#1021=DIRECTION('',(4.34374758384592E-15,1.,0.));
#1022=DIRECTION('',(1.,-4.34374758384592E-15,0.));
#1023=DIRECTION('',(0.900711519692416,0.434417723272634,0.));
#1024=DIRECTION('',(1.,-4.34374758384592E-15,0.));
#1025=DIRECTION('',(-4.34374758384592E-15,-1.,0.));
#1026=DIRECTION('center_axis',(0.,0.,1.));
#1027=DIRECTION('ref_axis',(4.34374758384592E-15,1.,0.));
#1028=DIRECTION('',(-4.34374758384592E-15,-1.,0.));
#1029=DIRECTION('',(-1.,-7.49411756862682E-9,0.));
#1030=DIRECTION('',(-0.969409603030127,0.245448612856075,0.));
#1031=DIRECTION('',(4.34374758384592E-15,1.,0.));
#1032=DIRECTION('center_axis',(0.571625070606149,-2.48299501931121E-15,
0.82051494724625));
#1033=DIRECTION('ref_axis',(-4.34374758384592E-15,-1.,2.76101316827354E-30));
#1034=DIRECTION('',(0.82051494724625,-3.56410981961036E-15,-0.571625070606149));
#1035=DIRECTION('',(-4.34374758384592E-15,-1.,0.));
#1036=DIRECTION('center_axis',(0.229186686047012,0.905182440248308,-0.357936045690997));
#1037=DIRECTION('ref_axis',(0.842156420250323,-3.94129173741931E-15,0.539233311129015));
#1038=DIRECTION('',(0.0167568778688067,-0.371338482253695,-0.928346346274714));
#1039=DIRECTION('',(-0.969409635505127,0.245448484594421,-3.4515393397929E-7));
#1040=DIRECTION('',(1.59729998938427E-15,0.367723943104914,0.929934998624836));
#1041=DIRECTION('',(0.971679689878558,-0.234497225433067,0.0291484397816163));
#1042=DIRECTION('center_axis',(-0.229186686047012,-0.905182440248308,0.357936045690997));
#1043=DIRECTION('ref_axis',(0.969409584471281,-0.245448686154925,-1.97248287911456E-7));
#1044=DIRECTION('center_axis',(0.229186607981947,0.905182456108453,-0.357936055567468));
#1045=DIRECTION('ref_axis',(0.84215651041626,-3.7470027081099E-15,0.539233170310867));
#1046=DIRECTION('',(-0.0167570660574099,0.371338524115034,0.928346326133311));
#1047=DIRECTION('',(-0.969409623946211,0.245448530247108,0.));
#1048=DIRECTION('',(-1.59730000329593E-15,-0.367723946307602,-0.929934997358398));
#1049=DIRECTION('center_axis',(0.229186607981947,0.905182456108453,-0.357936055567468));
#1050=DIRECTION('ref_axis',(0.969409602707635,-0.245448614129668,-2.25729199915259E-7));
#1051=DIRECTION('center_axis',(-0.245448484594396,-0.969409635505188,-1.14256787356897E-7));
#1052=DIRECTION('ref_axis',(-4.76456032830544E-22,-1.1786223611998E-7,0.999999999999993));
#1053=DIRECTION('',(-0.696038488897047,0.176232694197929,-0.696040558782069));
#1054=DIRECTION('',(-2.35126696489638E-8,1.23815497761072E-7,-0.999999999999992));
#1055=DIRECTION('',(-0.68412847881059,0.173216988248879,0.708494248009323));
#1056=DIRECTION('center_axis',(-0.245448484631338,-0.969409635495835,-1.14309427976095E-7));
#1057=DIRECTION('ref_axis',(-0.969409635495841,0.245448484631334,5.08322702946813E-8));
#1058=DIRECTION('',(-5.11963803372845E-22,-1.17862236119981E-7,0.999999999999993));
#1059=DIRECTION('',(0.826255483006024,-0.209202682753278,-0.523006801419745));
#1060=DIRECTION('',(4.65502109518813E-7,-2.02202366349752E-21,-0.999999999999892));
#1061=DIRECTION('center_axis',(4.34374758384592E-15,1.,0.));
#1062=DIRECTION('ref_axis',(-1.,4.34374758384592E-15,0.));
#1063=DIRECTION('',(1.,-4.34374758384592E-15,-1.87353076129186E-8));
#1064=DIRECTION('',(0.,0.,-1.));
#1065=DIRECTION('center_axis',(1.58704543103195E-13,-1.,0.));
#1066=DIRECTION('ref_axis',(-1.,-1.58704543103195E-13,0.));
#1067=DIRECTION('center_axis',(4.34374758384592E-15,1.,0.));
#1068=DIRECTION('ref_axis',(-0.571625070606149,2.48299501931121E-15,-0.820514947246249));
#1069=DIRECTION('center_axis',(0.719368433771913,-1.10968726501528E-7,0.694628718447872));
#1070=DIRECTION('ref_axis',(-1.54258543038477E-7,-0.999999999999988,-1.7205356741103E-22));
#1071=DIRECTION('',(-0.684128424320154,0.173217434275877,0.708494191578241));
#1072=DIRECTION('',(1.17171836486471E-8,0.999999999999989,1.47618075399717E-7));
#1073=DIRECTION('center_axis',(-0.719368413449388,1.02110268053242E-7,-0.694628739494199));
#1074=DIRECTION('ref_axis',(-0.694628739494098,-6.63802889572856E-7,0.719368413449186));
#1075=DIRECTION('center_axis',(0.,0.,1.));
#1076=DIRECTION('ref_axis',(4.34374758384592E-15,1.,0.));
#1077=DIRECTION('',(-4.34374758384592E-15,-1.,0.));
#1078=DIRECTION('',(1.,-3.00050632626299E-8,0.));
#1079=DIRECTION('',(4.34374758384592E-15,1.,0.));
#1080=DIRECTION('center_axis',(2.78590019186811E-8,0.928476693244586,-0.371390670455786));
#1081=DIRECTION('ref_axis',(0.999999999999997,-4.3437475507587E-15,7.50126486791468E-8));
#1082=DIRECTION('',(1.61322732745524E-15,0.371390670455786,0.928476693244586));
#1083=DIRECTION('center_axis',(2.78590019186812E-8,0.928476693244586,-0.371390670455786));
#1084=DIRECTION('ref_axis',(-4.9318137788641E-14,-0.371390670455786,-0.928476693244586));
#1085=DIRECTION('center_axis',(-6.95811362629559E-9,0.92847671024336,-0.371390627958849));
#1086=DIRECTION('ref_axis',(1.,-4.34374760535262E-15,-1.87353076129187E-8));
#1087=DIRECTION('',(-1.61322714285927E-15,-0.371390627958849,-0.92847671024336));
#1088=DIRECTION('center_axis',(6.95811362629559E-9,-0.92847671024336,0.371390627958849));
#1089=DIRECTION('ref_axis',(-4.93181377319791E-14,-0.371390627958849,-0.92847671024336));
#1090=DIRECTION('center_axis',(1.,-4.34374758384592E-15,0.));
#1091=DIRECTION('ref_axis',(0.,0.,-1.));
#1092=DIRECTION('',(4.34374758384592E-15,1.,0.));
#1093=DIRECTION('',(0.,0.,-1.));
#1094=DIRECTION('',(-4.34374758384592E-15,-1.,-1.96280277315258E-20));
#1095=DIRECTION('',(-1.76148324891786E-11,-0.999999999999901,-4.44226220162457E-7));
#1096=DIRECTION('center_axis',(4.34374758384592E-15,1.,0.));
#1097=DIRECTION('ref_axis',(-1.,4.34374758384592E-15,0.));
#1098=DIRECTION('',(1.,-4.34374758384592E-15,0.));
#1099=DIRECTION('',(0.,0.,-1.));
#1100=DIRECTION('center_axis',(0.434417723272634,-0.900711519692416,0.));
#1101=DIRECTION('ref_axis',(-0.900711519692416,-0.434417723272634,0.));
#1102=DIRECTION('',(0.900711519692416,0.434417723272634,0.));
#1103=DIRECTION('',(0.,0.,-1.));
#1104=DIRECTION('center_axis',(4.34374758384592E-15,1.,0.));
#1105=DIRECTION('ref_axis',(-1.,4.34374758384592E-15,0.));
#1106=DIRECTION('',(1.,-4.34374758384592E-15,0.));
#1107=DIRECTION('',(0.,0.,-1.));
#1108=DIRECTION('center_axis',(1.,-4.34374758384592E-15,0.));
#1109=DIRECTION('ref_axis',(0.,0.,-1.));
#1110=DIRECTION('',(-4.34374758384592E-15,-1.,0.));
#1111=DIRECTION('',(-1.58704543103195E-13,1.,2.74484962832687E-13));
#1112=DIRECTION('',(-4.34374758384592E-15,-1.,0.));
#1113=DIRECTION('center_axis',(0.,0.,1.));
#1114=DIRECTION('ref_axis',(4.34374758384592E-15,1.,0.));
#1115=DIRECTION('center_axis',(-4.34374758384592E-15,-1.,0.));
#1116=DIRECTION('ref_axis',(-0.571624921668183,2.48299437236228E-15,-0.820515051006283));
#1117=DIRECTION('',(4.34374758384592E-15,1.,0.));
#1118=DIRECTION('',(-4.34374758384592E-15,-1.,0.));
#1119=DIRECTION('center_axis',(4.34374758384592E-15,1.,0.));
#1120=DIRECTION('ref_axis',(-0.571625070606149,2.48299501931121E-15,-0.820514947246249));
#1121=DIRECTION('',(-4.34374758384592E-15,-1.,0.));
#1122=DIRECTION('center_axis',(1.58704543103195E-13,-1.,-2.74484962832687E-13));
#1123=DIRECTION('ref_axis',(-1.,-1.58704543103195E-13,-1.86546024104377E-28));
#1124=DIRECTION('center_axis',(-7.42049714293355E-7,-0.999999999999686,
-2.76970299672321E-7));
#1125=DIRECTION('ref_axis',(0.999915856629894,-7.38394343601843E-7,-0.0129722650127034));
#1126=DIRECTION('center_axis',(1.28680662905208E-13,0.928476943711696,-0.371390044287389));
#1127=DIRECTION('ref_axis',(1.,-1.38021523984459E-13,1.42938713046506E-15));
#1128=DIRECTION('',(1.28680662905208E-13,0.928476943711696,-0.371390044287389));
#1129=DIRECTION('center_axis',(-4.34374758384592E-15,-1.,0.));
#1130=DIRECTION('ref_axis',(-1.,4.34374758384592E-15,0.));
#1131=DIRECTION('center_axis',(0.229187235812596,0.905182366409738,-0.357935880405204));
#1132=DIRECTION('ref_axis',(0.969409458172858,-0.245449184975234,-1.47104550762833E-15));
#1133=DIRECTION('',(0.229187235812596,0.905182366409738,-0.357935880405204));
#1134=DIRECTION('center_axis',(0.696038446219361,-0.176234042754566,0.696040260012968));
#1135=DIRECTION('ref_axis',(-4.21884749357559E-15,-0.969409310026166,-0.245449770084621));
#1136=DIRECTION('center_axis',(-4.78309926864818E-15,2.21318646007959E-16,
1.));
#1137=DIRECTION('ref_axis',(-4.34374758384592E-15,-1.,2.21318646007938E-16));
#1138=DIRECTION('center_axis',(0.686819724918033,-0.173904240825783,0.705716643197768));
#1139=DIRECTION('ref_axis',(0.684127148120862,-0.173222474553223,-0.708494191587817));
#1140=DIRECTION('center_axis',(0.245449184213101,0.969409458363672,2.04337369878884E-6));
#1141=DIRECTION('ref_axis',(0.969409458365696,-0.245449184213613,-8.470329472543E-22));
#1142=DIRECTION('',(-0.245451660302273,-0.969408831419155,-4.62659951024421E-6));
#1143=DIRECTION('center_axis',(0.571624921668184,-2.48299437236229E-15,
0.820515051006283));
#1144=DIRECTION('ref_axis',(-4.34374758384592E-15,-1.,-1.97215226305253E-30));
#1145=DIRECTION('center_axis',(0.686819724918033,-0.173904240825783,0.705716643197768));
#1146=DIRECTION('ref_axis',(-0.245456127785668,-0.969407700264685,-1.38777878078145E-16));
#1147=DIRECTION('center_axis',(-0.0299845040373737,1.30225497762903E-16,
0.999550363672403));
#1148=DIRECTION('ref_axis',(4.34309327246452E-15,1.,-4.93038065763132E-32));
#1149=DIRECTION('',(0.,0.,1.));
#1150=DIRECTION('',(1.,0.,0.));
#1151=CARTESIAN_POINT('',(0.,0.,0.));
#1152=CARTESIAN_POINT('',(0.,0.,0.));
#1153=CARTESIAN_POINT('Origin',(-125.720774888992,-72.5780034065243,108.892304897309));
#1154=CARTESIAN_POINT('',(-95.4179356098183,-72.2280025482175,109.892303943634));
#1155=CARTESIAN_POINT('',(-155.903608369827,-72.2280025482173,109.892303943634));
#1156=CARTESIAN_POINT('',(-107.263982355595,-72.2280025482175,109.892303943634));
#1157=CARTESIAN_POINT('',(-155.903608369827,-72.928004264831,107.892305850983));
#1158=CARTESIAN_POINT('',(-155.903608369827,-78.6619417858178,91.5096830185265));
#1159=CARTESIAN_POINT('',(-95.2579472064973,-72.9280042648313,107.892305850983));
#1160=CARTESIAN_POINT('',(-110.349062613079,-72.9280042648312,107.892305850983));
#1161=CARTESIAN_POINT('',(-95.4704661180963,-71.9981643524071,110.548982266457));
#1162=CARTESIAN_POINT('Origin',(-80.587942361832,-65.4640030860899,108.892304897309));
#1163=CARTESIAN_POINT('',(-65.757949113846,-58.7000036239623,107.892305850983));
#1164=CARTESIAN_POINT('',(-88.3469506321526,-69.5947951107156,107.892305850983));
#1165=CARTESIAN_POINT('',(-65.9179375171664,-58.0000019073485,109.892303943634));
#1166=CARTESIAN_POINT('',(-65.7508104048791,-58.7312378161136,107.80306560593));
#1167=CARTESIAN_POINT('',(-83.7121102678294,-66.5822228452961,109.892303943634));
#1168=CARTESIAN_POINT('Origin',(-51.4707753658298,-58.3500027656554,108.892304897309));
#1169=CARTESIAN_POINT('',(-37.1036074161532,-58.7000036239624,107.892305850983));
#1170=CARTESIAN_POINT('',(-73.2240628514974,-58.7000036239622,107.892305850983));
#1171=CARTESIAN_POINT('',(-37.1036074161532,-58.0000019073486,109.892303943634));
#1172=CARTESIAN_POINT('',(-37.1036074161532,-64.1490416177304,92.3236788952667));
#1173=CARTESIAN_POINT('',(-70.1389825940135,-58.0000019073485,109.892303943634));
#1174=CARTESIAN_POINT('Origin',(-109.578141132991,-103.503913879394,53.8923048973084));
#1175=CARTESIAN_POINT('',(-116.994240351484,-106.000003814697,53.8923048973084));
#1176=CARTESIAN_POINT('',(-71.2196609973911,-106.000003814697,53.8923048973084));
#1177=CARTESIAN_POINT('',(-80.2075618108118,-106.000003814697,53.8923048973084));
#1178=CARTESIAN_POINT('',(-71.2196609973911,-105.,53.8923048973084));
#1179=CARTESIAN_POINT('',(-71.2196609973911,-104.501957893371,53.8923048973084));
#1180=CARTESIAN_POINT('',(-116.8696064274,-105.,53.8923048973084));
#1181=CARTESIAN_POINT('',(-81.8072100745312,-105.,53.8923048973084));
#1182=CARTESIAN_POINT('',(-140.460114575466,-99.0270295070033,53.892304897046));
#1183=CARTESIAN_POINT('',(-129.281076475278,-101.857492687083,53.8923048973084));
#1184=CARTESIAN_POINT('',(-140.705563050513,-99.9964448551875,53.8923048970331));
#1185=CARTESIAN_POINT('',(-140.58283904886,-99.5117381160216,53.8923048973084));
#1186=CARTESIAN_POINT('',(-123.422864552687,-104.372316278648,53.8923048973084));
#1187=CARTESIAN_POINT('Origin',(-113.46477655002,-101.820828574044,47.8923058509827));
#1188=CARTESIAN_POINT('',(-73.103606462479,-106.000003814697,47.8923058509827));
#1189=CARTESIAN_POINT('',(-116.994233057492,-106.000003814605,47.8923058509827));
#1190=CARTESIAN_POINT('',(-82.1508795193268,-106.000003814697,47.8923058509827));
#1191=CARTESIAN_POINT('',(-138.349066944867,-100.593093118689,47.8923058514666));
#1192=CARTESIAN_POINT('',(-125.449343494083,-103.859222608015,47.8923058509827));
#1193=CARTESIAN_POINT('',(-138.103612056813,-96.5290114290681,47.892305851332));
#1194=CARTESIAN_POINT('Origin',(-154.399870410793,-96.0132808066282,47.8923058509827));
#1195=CARTESIAN_POINT('',(-116.495708483402,-101.999998092651,47.8923058509827));
#1196=CARTESIAN_POINT('',(-130.212871510134,-98.5268978112709,47.8923058509827));
#1197=CARTESIAN_POINT('',(-73.103606462479,-101.999998092651,47.8923058509827));
#1198=CARTESIAN_POINT('',(-83.3012324741912,-101.999998092651,47.8923058509827));
#1199=CARTESIAN_POINT('',(-73.103606462479,-102.910414763859,47.8923058509827));
#1200=CARTESIAN_POINT('Origin',(-50.8369824886327,-106.000003814697,38.7219145718743));
#1201=CARTESIAN_POINT('',(-116.994227616258,-106.000003814697,43.4174328315159));
#1202=CARTESIAN_POINT('',(-52.283546686173,-106.000003814697,33.3876729011536));
#1203=CARTESIAN_POINT('',(-58.2525671901741,-106.000003814697,37.5460880263143));
#1204=CARTESIAN_POINT('',(-42.8557081823755,-106.000003814697,34.7093509174801));
#1205=CARTESIAN_POINT('Origin',(-48.2821741695423,-106.000003814697,39.1312732577901));
#1206=CARTESIAN_POINT('',(-37.1036074165179,-106.000003814695,38.1902672847649));
#1207=CARTESIAN_POINT('Origin',(-35.1035652493737,-106.000003814692,28.3922258598843));
#1208=CARTESIAN_POINT('',(-37.1036074157088,-106.000003814697,44.2668165321082));
#1209=CARTESIAN_POINT('',(-37.1036074161534,-106.000003814697,59.4059385271634));
#1210=CARTESIAN_POINT('',(-47.5069593226883,-106.000003814697,38.4995723771211));
#1211=CARTESIAN_POINT('Origin',(-35.1036001195271,-106.000003814697,28.3923021493692));
#1212=CARTESIAN_POINT('',(-48.8537905216222,-106.000003814697,38.310763835907));
#1213=CARTESIAN_POINT('Origin',(-48.2821661551369,-106.000003814697,39.1312780899993));
#1214=CARTESIAN_POINT('',(-55.2092654954811,-106.000003814697,42.7384070334824));
#1215=CARTESIAN_POINT('Origin',(-136.226885080338,-101.13041639328,48.1130081415177));
#1216=CARTESIAN_POINT('',(-148.097395264607,-98.1248767499255,46.387099720988));
#1217=CARTESIAN_POINT('Origin',(123.706687690119,-166.943889279221,-230.846442678828));
#1218=CARTESIAN_POINT('',(-142.349059685503,-99.5803176189166,40.4340339382626));
#1219=CARTESIAN_POINT('',(-144.122615084357,-99.131265023611,42.2707555100958));
#1220=CARTESIAN_POINT('',(-142.349059999766,-99.5803186040134,43.8923044781368));
#1221=CARTESIAN_POINT('',(-142.349059842729,-99.5803181114937,42.1631693840027));
#1222=CARTESIAN_POINT('',(-140.349062024459,-100.086706227942,45.892306614024));
#1223=CARTESIAN_POINT('Origin',(-54.0362790160714,-105.,46.0292312833998));
#1224=CARTESIAN_POINT('',(-48.8537905216222,-105.,38.310763835907));
#1225=CARTESIAN_POINT('',(-57.9998844850978,-105.,44.682536345174));
#1226=CARTESIAN_POINT('',(-47.5069593226883,-105.,38.4995723771211));
#1227=CARTESIAN_POINT('Origin',(-48.2821661551369,-105.,39.1312780899993));
#1228=CARTESIAN_POINT('',(-37.1036074157088,-105.,44.2668165321082));
#1229=CARTESIAN_POINT('Origin',(-35.1036001195271,-105.,28.3923021493692));
#1230=CARTESIAN_POINT('',(-37.1036074161534,-105.,77.8923151558447));
#1231=CARTESIAN_POINT('',(-37.1036074161534,-105.,63.0595968829261));
#1232=CARTESIAN_POINT('',(-116.869613574346,-105.00000048564,77.8923067291313));
#1233=CARTESIAN_POINT('',(-53.2184080455132,-105.,77.8923139470307));
#1234=CARTESIAN_POINT('',(-116.869606927605,-105.,54.9712922451005));
#1235=CARTESIAN_POINT('Origin',(-148.188759020397,-97.0701857975546,63.9133678163801));
#1236=CARTESIAN_POINT('',(-155.903608369827,-95.1168353853778,77.8923020381813));
#1237=CARTESIAN_POINT('',(-147.030350798936,-97.3634892223812,77.8923025025615));
#1238=CARTESIAN_POINT('',(-155.903608374682,-95.1168350226894,74.7986014145417));
#1239=CARTESIAN_POINT('',(-155.903608369827,-95.1168370607508,92.1656766307461));
#1240=CARTESIAN_POINT('',(-156.358469176893,-95.0016647822177,55.1965980496416));
#1241=CARTESIAN_POINT('Origin',(-158.102468469211,-94.5600961238345,65.0433464948353));
#1242=CARTESIAN_POINT('',(-147.851942292552,-97.1554630419974,46.3871044221767));
#1243=CARTESIAN_POINT('',(-152.808297497134,-95.9005458238476,51.5199842315202));
#1244=CARTESIAN_POINT('Origin',(123.95212259884,-165.974536202375,-230.846440635573));
#1245=CARTESIAN_POINT('Origin',(-80.6679365634921,-65.114002227783,91.3923048973087));
#1246=CARTESIAN_POINT('',(-65.9179375171664,-58.0000019073485,104.892303943634));
#1247=CARTESIAN_POINT('',(-95.4179356098183,-72.2280025482175,104.892303943634));
#1248=CARTESIAN_POINT('',(-88.2464102544612,-68.7691390245131,104.892303943634));
#1249=CARTESIAN_POINT('',(-95.4179356098183,-72.2280025482175,89.8923058509827));
#1250=CARTESIAN_POINT('',(-95.4179356098183,-72.2280025482175,92.7391700744627));
#1251=CARTESIAN_POINT('',(-65.9179375171664,-58.0000019073485,89.8923058509827));
#1252=CARTESIAN_POINT('',(-86.6842316471369,-68.0156922562674,89.8923058509827));
#1253=CARTESIAN_POINT('',(-65.9179375171664,-58.0000019073485,91.3923048973087));
#1254=CARTESIAN_POINT('Origin',(-51.5107724666598,-58.0000019073485,91.3923048973087));
#1255=CARTESIAN_POINT('',(-37.1036074161532,-58.0000019073486,89.8923058509827));
#1256=CARTESIAN_POINT('',(-51.5107724666598,-58.0000019073485,89.8923058509827));
#1257=CARTESIAN_POINT('',(-37.1036074161532,-58.0000019073486,104.892303943634));
#1258=CARTESIAN_POINT('',(-37.1036074161532,-58.0000019073486,85.7411336898807));
#1259=CARTESIAN_POINT('',(-73.0903086662295,-58.0000019073484,104.892303943634));
#1260=CARTESIAN_POINT('Origin',(-131.620343446732,-72.2280025482174,94.0860352516177));
#1261=CARTESIAN_POINT('',(-155.058629274368,-72.2280025482173,104.892303943634));
#1262=CARTESIAN_POINT('',(-113.145094156265,-72.2280025482175,104.892303943634));
#1263=CARTESIAN_POINT('',(-155.903608369827,-72.2280025482173,104.866956267299));
#1264=CARTESIAN_POINT('',(-143.773204927782,-72.2280025482173,105.230844015433));
#1265=CARTESIAN_POINT('',(-155.903608369827,-72.2280025482173,89.8923058509827));
#1266=CARTESIAN_POINT('',(-155.903608369827,-72.2280025482173,94.0860352516177));
#1267=CARTESIAN_POINT('',(-131.620343446732,-72.2280025482174,89.8923058509827));
#1268=CARTESIAN_POINT('Origin',(-88.8071898221973,-63.6140012741087,89.8923058509827));
#1269=CARTESIAN_POINT('',(-155.903608369827,-69.2280006408686,89.8923058509827));
#1270=CARTESIAN_POINT('',(-155.903608369827,-63.6140012741084,89.8923058509827));
#1271=CARTESIAN_POINT('',(-96.1036083698273,-69.2280006408688,89.8923058509827));
#1272=CARTESIAN_POINT('',(-126.103608369827,-69.2280006408687,89.8923058509827));
#1273=CARTESIAN_POINT('',(-66.6036055088045,-54.9999999999999,89.8923058509827));
#1274=CARTESIAN_POINT('',(-87.987486860427,-65.3135541717909,89.8923058509827));
#1275=CARTESIAN_POINT('',(-37.1036074161531,-55.,89.8923058509827));
#1276=CARTESIAN_POINT('',(-51.8536064624788,-54.9999999999999,89.8923058509827));
#1277=CARTESIAN_POINT('',(-37.1036074161533,-82.333494254521,89.8923058509827));
#1278=CARTESIAN_POINT('Origin',(-94.6698448657993,-74.8191063744679,104.892303943634));
#1279=CARTESIAN_POINT('',(-37.1036074161533,-90.9689044890846,104.89230394337));
#1280=CARTESIAN_POINT('',(-37.1036074161532,-78.5763003144945,104.892303943634));
#1281=CARTESIAN_POINT('',(-117.028566659393,-90.9689050874808,104.892303943682));
#1282=CARTESIAN_POINT('',(-74.6278485511025,-90.9689047698439,104.892303943634));
#1283=CARTESIAN_POINT('',(-155.058629273421,-81.3399246377858,104.892303943648));
#1284=CARTESIAN_POINT('',(-121.447399799662,-89.8500834238493,104.892303943634));
#1285=CARTESIAN_POINT('',(-155.058629274368,-74.8191063744676,104.892303943634));
#1286=CARTESIAN_POINT('Origin',(-62.6935765743261,-104.000000953674,40.6399893760681));
#1287=CARTESIAN_POINT('',(-52.283546686173,-101.999998092651,33.3876729011536));
#1288=CARTESIAN_POINT('',(-59.3083864841628,-101.999998092651,38.281641693556));
#1289=CARTESIAN_POINT('',(-52.283546686173,-106.000003814697,33.3876729011536));
#1290=CARTESIAN_POINT('Origin',(-144.667359393218,-90.8301882908257,87.5459668554107));
#1291=CARTESIAN_POINT('',(-116.53118699223,-101.991018625508,77.3370159243549));
#1292=CARTESIAN_POINT('',(-116.723406466466,-97.7313654621232,87.9861504461167));
#1293=CARTESIAN_POINT('',(-155.903608369827,-92.0221666479762,77.3370019059817));
#1294=CARTESIAN_POINT('',(-146.181822377966,-94.4836623375772,77.3370053673798));
#1295=CARTESIAN_POINT('',(-155.903608369827,-81.1360042966161,104.866956267298));
#1296=CARTESIAN_POINT('',(-155.903608369827,-85.3982201974319,94.0882625972668));
#1297=CARTESIAN_POINT('',(-150.09066715634,-82.5388519637713,105.041332832622));
#1298=CARTESIAN_POINT('',(-147.156383966382,-90.7204623916054,86.2297279857306));
#1299=CARTESIAN_POINT('Origin',(-145.605327020581,-91.1131806972595,86.2297276701327));
#1300=CARTESIAN_POINT('Origin',(-144.911332232612,-93.8628208637233,88.1019312994817));
#1301=CARTESIAN_POINT('',(-117.411122949569,-93.0000015332691,107.89230585103));
#1302=CARTESIAN_POINT('',(-117.0702659226,-100.55343270107,89.0087276094547));
#1303=CARTESIAN_POINT('',(-155.903608369827,-83.2539419330144,107.892305850983));
#1304=CARTESIAN_POINT('',(-121.70376301743,-91.9131315769682,107.892305850983));
#1305=CARTESIAN_POINT('',(-155.903608369827,-91.455988052395,87.1501980471594));
#1306=CARTESIAN_POINT('',(-147.843945911602,-93.4360104299646,87.3035359983055));
#1307=CARTESIAN_POINT('Origin',(-146.292888936623,-93.8287286203779,87.3035356371387));
#1308=CARTESIAN_POINT('Origin',(-146.735736920916,-94.3434129912273,63.4860725238406));
#1309=CARTESIAN_POINT('',(-142.103601691283,-95.5162384841879,43.892304321071));
#1310=CARTESIAN_POINT('',(-140.103605610346,-96.0226252767075,45.8923063515708));
#1311=CARTESIAN_POINT('',(-142.103601734364,-95.516238058725,40.4340328441077));
#1312=CARTESIAN_POINT('',(-142.103601731283,-95.5162382704529,42.1631693840027));
#1313=CARTESIAN_POINT('',(-156.358469140585,-91.9069961218661,55.196598506406));
#1314=CARTESIAN_POINT('',(-152.159550168062,-92.9701357537757,50.8481317548656));
#1315=CARTESIAN_POINT('',(-155.903608374667,-92.022166349236,74.7986027891566));
#1316=CARTESIAN_POINT('Origin',(-158.102466172807,-91.4654280918011,65.0433473519932));
#1317=CARTESIAN_POINT('',(-155.903608369827,-92.0221650154748,63.4860727974281));
#1318=CARTESIAN_POINT('',(-116.495722179526,-101.999998092651,77.3145672524408));
#1319=CARTESIAN_POINT('',(-105.665820265635,-104.742061027106,70.4594086771934));
#1320=CARTESIAN_POINT('',(-116.495710257681,-101.999998092651,51.7038451754524));
#1321=CARTESIAN_POINT('Origin',(-53.1376883983616,-101.999998092651,39.9216332435608));
#1322=CARTESIAN_POINT('',(-37.1036074161534,-101.999998092651,77.3145657650051));
#1323=CARTESIAN_POINT('',(-53.8617700862883,-101.999998092651,77.3145660789744));
#1324=CARTESIAN_POINT('',(-37.1036074165182,-101.999998092648,38.1902672847661));
#1325=CARTESIAN_POINT('',(-37.1036074161534,-101.999998092651,60.0057978630066));
#1326=CARTESIAN_POINT('',(-42.8557081823757,-101.999998092651,34.7093509174807));
#1327=CARTESIAN_POINT('Origin',(-35.1035652493743,-101.999998092645,28.3922258598853));
#1328=CARTESIAN_POINT('Origin',(-48.2821741695422,-101.999998092651,39.1312732577901));
#1329=CARTESIAN_POINT('Origin',(-148.955216646194,-95.6382551193232,47.5296730995179));
#1330=CARTESIAN_POINT('',(-142.103603074031,-98.6109086812412,40.4340337741948));
#1331=CARTESIAN_POINT('',(-147.039840425968,-97.3610814114027,45.5460790640063));
#1332=CARTESIAN_POINT('',(-156.358469152605,-93.4543347358694,55.196598265816));
#1333=CARTESIAN_POINT('Origin',(-150.251703748725,-97.0635743171516,48.8723348150941));
#1334=CARTESIAN_POINT('Origin',(-94.9773503371653,-76.0656172888618,107.892305850983));
#1335=CARTESIAN_POINT('',(-155.903608369827,-80.5362077554062,107.892305850983));
#1336=CARTESIAN_POINT('',(-37.1036074161534,-93.0000039424619,107.892305851359));
#1337=CARTESIAN_POINT('',(-73.6889430272345,-93.0000028452728,107.892305850983));
#1338=CARTESIAN_POINT('',(-37.1036074161532,-79.1995557716915,107.892305850983));
#1339=CARTESIAN_POINT('Origin',(-52.4005354472573,-100.934356621333,88.0564226422987));
#1340=CARTESIAN_POINT('',(-37.1036074161533,-101.025066558937,87.8296489415757));
#1341=CARTESIAN_POINT('',(-49.880293002382,-101.256749160248,87.250441469215));
#1342=CARTESIAN_POINT('Origin',(-48.2802935043968,-101.256749201634,87.2504414857707));
#1343=CARTESIAN_POINT('Origin',(-54.5858523023544,-98.3186353486159,86.5179743437927));
#1344=CARTESIAN_POINT('',(-37.1036074161533,-98.3244897850686,86.5033379229137));
#1345=CARTESIAN_POINT('',(-49.8802930023815,-98.4713167464708,86.1362707032987));
#1346=CARTESIAN_POINT('Origin',(-48.2802935043964,-98.4713167361342,86.1362706991637));
#1347=CARTESIAN_POINT('Origin',(-155.903608369827,-80.5362077554062,92.1656783421837));
#1348=CARTESIAN_POINT('',(-155.903608369827,-69.2280006408686,109.892303943634));
#1349=CARTESIAN_POINT('',(-155.903608369827,-63.6140012741084,109.892303943634));
#1350=CARTESIAN_POINT('',(-155.903608369827,-69.2280006408686,93.8923048973087));
#1351=CARTESIAN_POINT('',(-155.903608369827,-80.5362077554062,104.866956267298));
#1352=CARTESIAN_POINT('',(-155.903608387684,-92.0221663487948,74.7986027504529));
#1353=CARTESIAN_POINT('Origin',(-126.103608369827,-69.2280006408687,93.8923048973087));
#1354=CARTESIAN_POINT('',(-96.1036083698273,-69.2280006408688,109.892303943634));
#1355=CARTESIAN_POINT('',(-107.455399096012,-69.2280006408688,109.892303943634));
#1356=CARTESIAN_POINT('',(-96.1036083698273,-69.2280006408688,93.8923048973087));
#1357=CARTESIAN_POINT('Origin',(-81.3536069393161,-62.1140003204344,93.8923048973087));
#1358=CARTESIAN_POINT('',(-66.6036055088045,-54.9999999999999,109.892303943634));
#1359=CARTESIAN_POINT('',(-84.6705468998715,-63.7137772461126,109.892303943634));
#1360=CARTESIAN_POINT('',(-66.6036055088045,-54.9999999999999,93.8923048973087));
#1361=CARTESIAN_POINT('Origin',(-51.8536064624788,-54.9999999999999,93.8923048973087));
#1362=CARTESIAN_POINT('',(-37.1036074161531,-55.,109.892303943634));
#1363=CARTESIAN_POINT('',(-70.330398142338,-54.9999999999999,109.892303943634));
#1364=CARTESIAN_POINT('',(-37.1036074161531,-55.,86.9911336898807));
#1365=CARTESIAN_POINT('Origin',(-37.1036074161533,-82.333494254521,80.0899624824527));
#1366=CARTESIAN_POINT('',(-37.1036074161534,-106.000003814697,44.2668165314175));
#1367=CARTESIAN_POINT('',(-37.1036074161534,-101.999998092654,38.1902672852844));
#1368=CARTESIAN_POINT('',(-37.1036074161532,-72.9737477643149,109.892303943634));
#1369=CARTESIAN_POINT('Origin',(-88.8071898221973,-63.6140012741087,109.892303943634));
#1370=CARTESIAN_POINT('Origin',(-48.2821661551369,-106.000003814697,39.1312780899993));
#1371=CARTESIAN_POINT('',(-47.5069591999059,-106.000003814697,38.4995722770691));
#1372=CARTESIAN_POINT('',(-48.8537905216222,-106.000003814697,38.310763835907));
#1373=CARTESIAN_POINT('Origin',(-48.2821741695423,-106.000003814697,39.1312732577901));
#1374=CARTESIAN_POINT('',(-42.8557083606725,-106.000003814697,34.7093510627747));
#1375=CARTESIAN_POINT('Origin',(-35.1035652493743,-101.999998092651,28.3922258598853));
#1376=CARTESIAN_POINT('Origin',(-158.102466490593,-91.9070005416865,65.0433472497685));
#1377=CARTESIAN_POINT('Origin',(-48.2802935043964,-98.4713229731449,86.1362731939627));
#1378=CARTESIAN_POINT('',(-49.8802930023812,-98.4713229731447,86.1362731939627));
#1379=CARTESIAN_POINT('Origin',(-35.1036001195271,-106.000003814697,28.3923021493692));
#1380=CARTESIAN_POINT('Origin',(-145.612780842264,-91.1426198059688,86.2413687644417));
#1381=CARTESIAN_POINT('',(-147.163837585987,-90.7499007022016,86.2413687644417));
#1382=CARTESIAN_POINT('Origin',(-150.06194379831,-97.1116257564758,52.2302438136823));
#1383=CARTESIAN_POINT('Ctrl Pts',(-142.349059999545,-99.580318604085,43.8923044772603));
#1384=CARTESIAN_POINT('Ctrl Pts',(-142.297991281113,-99.4199617647099,43.89206645447));
#1385=CARTESIAN_POINT('Ctrl Pts',(-142.252235267869,-99.2593810248983,43.8919439189772));
#1386=CARTESIAN_POINT('Ctrl Pts',(-141.954649150986,-98.084061119768,43.8919452573538));
#1387=CARTESIAN_POINT('Ctrl Pts',(-141.884799281112,-96.950413537125,43.9016215887718));
#1388=CARTESIAN_POINT('Ctrl Pts',(-142.063505659763,-95.7398896031703,43.8943783000019));
#1389=CARTESIAN_POINT('Ctrl Pts',(-142.082414040575,-95.6278106420429,43.8934835636484));
#1390=CARTESIAN_POINT('Ctrl Pts',(-142.103601690704,-95.5162384840827,43.8923043206332));
#1391=CARTESIAN_POINT('Origin',(-150.251702956288,-97.0635700225825,40.4340338706971));
#1392=CARTESIAN_POINT('Origin',(-150.251702956288,-97.0635700225825,48.7452512154929));
#1393=CARTESIAN_POINT('Origin',(123.952368158349,-165.973566357183,-230.846440633529));
#1394=CARTESIAN_POINT('',(-147.974669144335,-97.6401711904239,46.3871020337383));
#1395=CARTESIAN_POINT('Origin',(-60.0367257595067,-105.500001907348,46.1015343666077));
#1396=CARTESIAN_POINT('Origin',(-145.10050034523,-98.367891311645,43.4105682373047));
#1397=CARTESIAN_POINT('Origin',(-155.581118822098,-76.7209172248835,104.876630306244));
#1398=CARTESIAN_POINT('',(0.,0.,0.));
#1399=UNCERTAINTY_MEASURE_WITH_UNIT(LENGTH_MEASURE(0.01),#1405,
'DISTANCE_ACCURACY_VALUE',
'Maximum model space distance between geometric entities at asserted c
onnectivities');
#1400=UNCERTAINTY_MEASURE_WITH_UNIT(LENGTH_MEASURE(0.01),#1405,
'DISTANCE_ACCURACY_VALUE',
'Maximum model space distance between geometric entities at asserted c
onnectivities');
#1401=UNCERTAINTY_MEASURE_WITH_UNIT(LENGTH_MEASURE(0.01),#1405,
'DISTANCE_ACCURACY_VALUE',
'Maximum model space distance between geometric entities at asserted c
onnectivities');
#1402=(
GEOMETRIC_REPRESENTATION_CONTEXT(3)
GLOBAL_UNCERTAINTY_ASSIGNED_CONTEXT((#1399))
GLOBAL_UNIT_ASSIGNED_CONTEXT((#1405,#1407,#1408))
REPRESENTATION_CONTEXT('','3D')
);
#1403=(
GEOMETRIC_REPRESENTATION_CONTEXT(3)
GLOBAL_UNCERTAINTY_ASSIGNED_CONTEXT((#1400))
GLOBAL_UNIT_ASSIGNED_CONTEXT((#1405,#1407,#1408))
REPRESENTATION_CONTEXT('','3D')
);
#1404=(
GEOMETRIC_REPRESENTATION_CONTEXT(3)
GLOBAL_UNCERTAINTY_ASSIGNED_CONTEXT((#1401))
GLOBAL_UNIT_ASSIGNED_CONTEXT((#1405,#1407,#1408))
REPRESENTATION_CONTEXT('','3D')
);
#1405=(
LENGTH_UNIT()
NAMED_UNIT(*)
SI_UNIT(.MILLI.,.METRE.)
);
#1406=(
LENGTH_UNIT()
NAMED_UNIT(*)
SI_UNIT($,.METRE.)
);
#1407=(
NAMED_UNIT(*)
PLANE_ANGLE_UNIT()
SI_UNIT($,.RADIAN.)
);
#1408=(
NAMED_UNIT(*)
SI_UNIT($,.STERADIAN.)
SOLID_ANGLE_UNIT()
);
#1409=SHAPE_DEFINITION_REPRESENTATION(#1411,#1414);
#1410=SHAPE_DEFINITION_REPRESENTATION(#1412,#1415);
#1411=PRODUCT_DEFINITION_SHAPE('',$,#1417);
#1412=PRODUCT_DEFINITION_SHAPE('',$,#1418);
#1413=PRODUCT_DEFINITION_SHAPE($,$,#14);
#1414=SHAPE_REPRESENTATION('',(#861,#924),#1402);
#1415=SHAPE_REPRESENTATION('',(#862),#1403);
#1416=PRODUCT_DEFINITION_CONTEXT('part definition',#1424,'design');
#1417=PRODUCT_DEFINITION('Chassis','Chassis v25',#1419,#1416);
#1418=PRODUCT_DEFINITION('Chassis_1','Chassis',#1420,#1416);
#1419=PRODUCT_DEFINITION_FORMATION('',$,#1426);
#1420=PRODUCT_DEFINITION_FORMATION('',$,#1427);
#1421=PRODUCT_RELATED_PRODUCT_CATEGORY('Chassis v25','Chassis v25',(#1426));
#1422=PRODUCT_RELATED_PRODUCT_CATEGORY('Chassis','Chassis',(#1427));
#1423=APPLICATION_PROTOCOL_DEFINITION('international standard',
'automotive_design',2009,#1424);
#1424=APPLICATION_CONTEXT(
'Core Data for Automotive Mechanical Design Process');
#1425=PRODUCT_CONTEXT('part definition',#1424,'mechanical');
#1426=PRODUCT('Chassis','Chassis v25',$,(#1425));
#1427=PRODUCT('Chassis_1','Chassis',$,(#1425));
#1428=PRESENTATION_STYLE_ASSIGNMENT((#1436));
#1429=PRESENTATION_STYLE_ASSIGNMENT((#1437));
#1430=PRESENTATION_STYLE_ASSIGNMENT((#1438));
#1431=PRESENTATION_STYLE_ASSIGNMENT((#1439));
#1432=PRESENTATION_STYLE_ASSIGNMENT((#1440));
#1433=PRESENTATION_STYLE_ASSIGNMENT((#1441));
#1434=PRESENTATION_STYLE_ASSIGNMENT((#1442));
#1435=PRESENTATION_STYLE_ASSIGNMENT((#1443));
#1436=SURFACE_STYLE_USAGE(.BOTH.,#1444);
#1437=SURFACE_STYLE_USAGE(.BOTH.,#1445);
#1438=SURFACE_STYLE_USAGE(.BOTH.,#1446);
#1439=SURFACE_STYLE_USAGE(.BOTH.,#1447);
#1440=SURFACE_STYLE_USAGE(.BOTH.,#1448);
#1441=SURFACE_STYLE_USAGE(.BOTH.,#1449);
#1442=SURFACE_STYLE_USAGE(.BOTH.,#1450);
#1443=SURFACE_STYLE_USAGE(.BOTH.,#1451);
#1444=SURFACE_SIDE_STYLE('',(#1452));
#1445=SURFACE_SIDE_STYLE('',(#1453));
#1446=SURFACE_SIDE_STYLE('',(#1454));
#1447=SURFACE_SIDE_STYLE('',(#1455));
#1448=SURFACE_SIDE_STYLE('',(#1456));
#1449=SURFACE_SIDE_STYLE('',(#1457));
#1450=SURFACE_SIDE_STYLE('',(#1458));
#1451=SURFACE_SIDE_STYLE('',(#1459));
#1452=SURFACE_STYLE_FILL_AREA(#1460);
#1453=SURFACE_STYLE_FILL_AREA(#1461);
#1454=SURFACE_STYLE_FILL_AREA(#1462);
#1455=SURFACE_STYLE_FILL_AREA(#1463);
#1456=SURFACE_STYLE_FILL_AREA(#1464);
#1457=SURFACE_STYLE_FILL_AREA(#1465);
#1458=SURFACE_STYLE_FILL_AREA(#1466);
#1459=SURFACE_STYLE_FILL_AREA(#1467);
#1460=FILL_AREA_STYLE('Steel - Satin',(#1468));
#1461=FILL_AREA_STYLE('Aluminum - Satin',(#1469));
#1462=FILL_AREA_STYLE('Opaque(50,50,50)',(#1470));
#1463=FILL_AREA_STYLE('Opaque(255,255,255)',(#1471));
#1464=FILL_AREA_STYLE('Opaque(245,245,246)',(#1472));
#1465=FILL_AREA_STYLE('ABS (White) (1)',(#1473));
#1466=FILL_AREA_STYLE('Opaque(250,182,1)',(#1474));
#1467=FILL_AREA_STYLE('ABS (White)',(#1475));
#1468=FILL_AREA_STYLE_COLOUR('Steel - Satin',#1476);
#1469=FILL_AREA_STYLE_COLOUR('Aluminum - Satin',#1477);
#1470=FILL_AREA_STYLE_COLOUR('Opaque(50,50,50)',#1478);
#1471=FILL_AREA_STYLE_COLOUR('Opaque(255,255,255)',#1479);
#1472=FILL_AREA_STYLE_COLOUR('Opaque(245,245,246)',#1480);
#1473=FILL_AREA_STYLE_COLOUR('ABS (White) (1)',#1481);
#1474=FILL_AREA_STYLE_COLOUR('Opaque(250,182,1)',#1482);
#1475=FILL_AREA_STYLE_COLOUR('ABS (White)',#1483);
#1476=COLOUR_RGB('Steel - Satin',0.627450980392157,0.627450980392157,0.627450980392157);
#1477=COLOUR_RGB('Aluminum - Satin',0.96078431372549,0.96078431372549,0.964705882352941);
#1478=COLOUR_RGB('Opaque(50,50,50)',0.196078431372549,0.196078431372549,
0.196078431372549);
#1479=COLOUR_RGB('Opaque(255,255,255)',1.,1.,1.);
#1480=COLOUR_RGB('Opaque(245,245,246)',0.96078431372549,0.96078431372549,
0.964705882352941);
#1481=COLOUR_RGB('ABS (White) (1)',0.905882352941176,0.262745098039216,
0.184313725490196);
#1482=COLOUR_RGB('Opaque(250,182,1)',0.980392156862745,0.713725490196078,
0.00392156862745098);
#1483=COLOUR_RGB('ABS (White)',0.964705882352941,0.964705882352941,0.952941176470588);
ENDSEC;
END-ISO-10303-21;
