ISO-10303-21;
HEADER;
/* Generated by software containing ST-Developer
 * from STEP Tools, Inc. (www.steptools.com) 
 */

FILE_DESCRIPTION(
/* description */ (''),
/* implementation_level */ '2;1');

FILE_NAME(
/* name */ 'TopYawPlate.step',
/* time_stamp */ '2026-08-13T12:56:29-04:00',
/* author */ (''),
/* organization */ (''),
/* preprocessor_version */ 'ST-DEVELOPER v20.1',
/* originating_system */ 'Autodesk Translation Framework v15.8.0.0',
/* authorisation */ '');

FILE_SCHEMA (('AUTOMOTIVE_DESIGN { 1 0 10303 214 3 1 1 }'));
ENDSEC;

DATA;
#10=MECHANICAL_DESIGN_GEOMETRIC_PRESENTATION_REPRESENTATION('',(#17),#1752);
#11=ITEM_DEFINED_TRANSFORMATION($,$,#1052,#1158);
#12=(
REPRESENTATION_RELATIONSHIP($,$,#1763,#1762)
REPRESENTATION_RELATIONSHIP_WITH_TRANSFORMATION(#11)
SHAPE_REPRESENTATION_RELATIONSHIP()
);
#13=CONTEXT_DEPENDENT_SHAPE_REPRESENTATION(#12,#1761);
#14=NEXT_ASSEMBLY_USAGE_OCCURRENCE('Chassis:1','Chassis:1','Chassis:1',
#1765,#1766,'Chassis:1');
#15=SHAPE_REPRESENTATION_RELATIONSHIP('SRR','None',#1763,#16);
#16=ADVANCED_BREP_SHAPE_REPRESENTATION('',(#18),#1751);
#17=STYLED_ITEM('',(#1777),#18);
#18=MANIFOLD_SOLID_BREP('TopActuatorMount',#1038);
#19=FACE_BOUND('',#207,.T.);
#20=FACE_BOUND('',#208,.T.);
#21=FACE_BOUND('',#209,.T.);
#22=FACE_BOUND('',#210,.T.);
#23=FACE_BOUND('',#211,.T.);
#24=FACE_BOUND('',#212,.T.);
#25=FACE_BOUND('',#213,.T.);
#26=FACE_BOUND('',#214,.T.);
#27=FACE_BOUND('',#215,.T.);
#28=FACE_BOUND('',#216,.T.);
#29=FACE_BOUND('',#217,.T.);
#30=FACE_BOUND('',#218,.T.);
#31=FACE_BOUND('',#219,.T.);
#32=FACE_BOUND('',#220,.T.);
#33=FACE_BOUND('',#221,.T.);
#34=FACE_BOUND('',#222,.T.);
#35=FACE_BOUND('',#223,.T.);
#36=FACE_BOUND('',#224,.T.);
#37=FACE_BOUND('',#225,.T.);
#38=FACE_BOUND('',#226,.T.);
#39=FACE_BOUND('',#228,.T.);
#40=FACE_BOUND('',#229,.T.);
#41=FACE_BOUND('',#230,.T.);
#42=FACE_BOUND('',#231,.T.);
#43=FACE_BOUND('',#232,.T.);
#44=FACE_BOUND('',#233,.T.);
#45=FACE_BOUND('',#234,.T.);
#46=FACE_BOUND('',#235,.T.);
#47=FACE_BOUND('',#236,.T.);
#48=FACE_BOUND('',#237,.T.);
#49=FACE_BOUND('',#238,.T.);
#50=FACE_BOUND('',#239,.T.);
#51=FACE_BOUND('',#240,.T.);
#52=FACE_BOUND('',#241,.T.);
#53=FACE_BOUND('',#242,.T.);
#54=FACE_BOUND('',#243,.T.);
#55=FACE_BOUND('',#244,.T.);
#56=FACE_BOUND('',#245,.T.);
#57=FACE_BOUND('',#246,.T.);
#58=FACE_BOUND('',#247,.T.);
#59=CIRCLE('',#1056,36.1868751898663);
#60=CIRCLE('',#1057,36.1868751898663);
#61=CIRCLE('',#1062,36.0934645276766);
#62=CIRCLE('',#1063,36.0934645276766);
#63=CIRCLE('',#1067,36.0934645276766);
#64=CIRCLE('',#1068,36.0934645276766);
#65=CIRCLE('',#1073,36.1868751898663);
#66=CIRCLE('',#1074,36.1868751898663);
#67=CIRCLE('',#1076,47.5);
#68=CIRCLE('',#1077,47.5);
#69=CIRCLE('',#1078,47.);
#70=CIRCLE('',#1079,47.);
#71=CIRCLE('',#1080,3.00000000000711);
#72=CIRCLE('',#1081,4.);
#73=CIRCLE('',#1082,4.);
#74=CIRCLE('',#1083,1.75000000000001);
#75=CIRCLE('',#1084,3.00000000000742);
#76=CIRCLE('',#1085,1.75000000000001);
#77=CIRCLE('',#1086,3.00000000000283);
#78=CIRCLE('',#1087,2.10000000000001);
#79=CIRCLE('',#1088,3.00000000000239);
#80=CIRCLE('',#1089,1.75000000000001);
#81=CIRCLE('',#1090,2.1);
#82=CIRCLE('',#1091,3.00000000000679);
#83=CIRCLE('',#1092,4.);
#84=CIRCLE('',#1093,5.);
#85=CIRCLE('',#1094,3.00000000000242);
#86=CIRCLE('',#1095,1.75000000000001);
#87=CIRCLE('',#1096,2.10000000000001);
#88=CIRCLE('',#1097,3.0000000000021);
#89=CIRCLE('',#1098,4.);
#90=CIRCLE('',#1099,3.00000000000711);
#91=CIRCLE('',#1101,47.);
#92=CIRCLE('',#1102,47.);
#93=CIRCLE('',#1103,47.5);
#94=CIRCLE('',#1104,47.5);
#95=CIRCLE('',#1105,3.00000000000711);
#96=CIRCLE('',#1106,4.);
#97=CIRCLE('',#1107,4.);
#98=CIRCLE('',#1108,1.75000000000001);
#99=CIRCLE('',#1109,3.00000000000742);
#100=CIRCLE('',#1110,1.75000000000001);
#101=CIRCLE('',#1111,3.00000000000283);
#102=CIRCLE('',#1112,2.10000000000001);
#103=CIRCLE('',#1113,3.00000000000239);
#104=CIRCLE('',#1114,1.75000000000001);
#105=CIRCLE('',#1115,2.1);
#106=CIRCLE('',#1116,3.00000000000679);
#107=CIRCLE('',#1117,4.);
#108=CIRCLE('',#1118,5.);
#109=CIRCLE('',#1119,3.00000000000242);
#110=CIRCLE('',#1120,1.75000000000001);
#111=CIRCLE('',#1121,2.10000000000001);
#112=CIRCLE('',#1122,3.0000000000021);
#113=CIRCLE('',#1123,4.);
#114=CIRCLE('',#1124,3.00000000000711);
#115=CYLINDRICAL_SURFACE('',#1055,36.1868751898663);
#116=CYLINDRICAL_SURFACE('',#1061,36.0934645276766);
#117=CYLINDRICAL_SURFACE('',#1066,36.0934645276766);
#118=CYLINDRICAL_SURFACE('',#1072,36.1868751898663);
#119=CYLINDRICAL_SURFACE('',#1125,3.00000000000711);
#120=CYLINDRICAL_SURFACE('',#1126,4.);
#121=CYLINDRICAL_SURFACE('',#1127,4.);
#122=CYLINDRICAL_SURFACE('',#1128,1.75000000000001);
#123=CYLINDRICAL_SURFACE('',#1129,3.00000000000742);
#124=CYLINDRICAL_SURFACE('',#1130,1.75000000000001);
#125=CYLINDRICAL_SURFACE('',#1131,3.00000000000283);
#126=CYLINDRICAL_SURFACE('',#1132,2.10000000000001);
#127=CYLINDRICAL_SURFACE('',#1133,3.00000000000239);
#128=CYLINDRICAL_SURFACE('',#1134,1.75000000000001);
#129=CYLINDRICAL_SURFACE('',#1135,2.1);
#130=CYLINDRICAL_SURFACE('',#1136,3.00000000000679);
#131=CYLINDRICAL_SURFACE('',#1137,4.);
#132=CYLINDRICAL_SURFACE('',#1138,5.);
#133=CYLINDRICAL_SURFACE('',#1139,3.00000000000242);
#134=CYLINDRICAL_SURFACE('',#1140,1.75000000000001);
#135=CYLINDRICAL_SURFACE('',#1141,2.10000000000001);
#136=CYLINDRICAL_SURFACE('',#1142,3.0000000000021);
#137=CYLINDRICAL_SURFACE('',#1143,4.);
#138=CYLINDRICAL_SURFACE('',#1144,3.00000000000711);
#139=CYLINDRICAL_SURFACE('',#1147,47.);
#140=CYLINDRICAL_SURFACE('',#1152,47.);
#141=CYLINDRICAL_SURFACE('',#1155,47.5);
#142=CYLINDRICAL_SURFACE('',#1157,47.5);
#143=FACE_OUTER_BOUND('',#192,.T.);
#144=FACE_OUTER_BOUND('',#193,.T.);
#145=FACE_OUTER_BOUND('',#194,.T.);
#146=FACE_OUTER_BOUND('',#195,.T.);
#147=FACE_OUTER_BOUND('',#196,.T.);
#148=FACE_OUTER_BOUND('',#197,.T.);
#149=FACE_OUTER_BOUND('',#198,.T.);
#150=FACE_OUTER_BOUND('',#199,.T.);
#151=FACE_OUTER_BOUND('',#200,.T.);
#152=FACE_OUTER_BOUND('',#201,.T.);
#153=FACE_OUTER_BOUND('',#202,.T.);
#154=FACE_OUTER_BOUND('',#203,.T.);
#155=FACE_OUTER_BOUND('',#204,.T.);
#156=FACE_OUTER_BOUND('',#205,.T.);
#157=FACE_OUTER_BOUND('',#206,.T.);
#158=FACE_OUTER_BOUND('',#227,.T.);
#159=FACE_OUTER_BOUND('',#248,.T.);
#160=FACE_OUTER_BOUND('',#249,.T.);
#161=FACE_OUTER_BOUND('',#250,.T.);
#162=FACE_OUTER_BOUND('',#251,.T.);
#163=FACE_OUTER_BOUND('',#252,.T.);
#164=FACE_OUTER_BOUND('',#253,.T.);
#165=FACE_OUTER_BOUND('',#254,.T.);
#166=FACE_OUTER_BOUND('',#255,.T.);
#167=FACE_OUTER_BOUND('',#256,.T.);
#168=FACE_OUTER_BOUND('',#257,.T.);
#169=FACE_OUTER_BOUND('',#258,.T.);
#170=FACE_OUTER_BOUND('',#259,.T.);
#171=FACE_OUTER_BOUND('',#260,.T.);
#172=FACE_OUTER_BOUND('',#261,.T.);
#173=FACE_OUTER_BOUND('',#262,.T.);
#174=FACE_OUTER_BOUND('',#263,.T.);
#175=FACE_OUTER_BOUND('',#264,.T.);
#176=FACE_OUTER_BOUND('',#265,.T.);
#177=FACE_OUTER_BOUND('',#266,.T.);
#178=FACE_OUTER_BOUND('',#267,.T.);
#179=FACE_OUTER_BOUND('',#268,.T.);
#180=FACE_OUTER_BOUND('',#269,.T.);
#181=FACE_OUTER_BOUND('',#270,.T.);
#182=FACE_OUTER_BOUND('',#271,.T.);
#183=FACE_OUTER_BOUND('',#272,.T.);
#184=FACE_OUTER_BOUND('',#273,.T.);
#185=FACE_OUTER_BOUND('',#274,.T.);
#186=FACE_OUTER_BOUND('',#275,.T.);
#187=FACE_OUTER_BOUND('',#276,.T.);
#188=FACE_OUTER_BOUND('',#277,.T.);
#189=FACE_OUTER_BOUND('',#278,.T.);
#190=FACE_OUTER_BOUND('',#279,.T.);
#191=FACE_OUTER_BOUND('',#280,.T.);
#192=EDGE_LOOP('',(#686,#687,#688,#689));
#193=EDGE_LOOP('',(#690,#691,#692,#693));
#194=EDGE_LOOP('',(#694,#695,#696,#697));
#195=EDGE_LOOP('',(#698,#699,#700,#701));
#196=EDGE_LOOP('',(#702,#703,#704,#705));
#197=EDGE_LOOP('',(#706,#707,#708,#709));
#198=EDGE_LOOP('',(#710,#711,#712,#713));
#199=EDGE_LOOP('',(#714,#715,#716,#717));
#200=EDGE_LOOP('',(#718,#719,#720,#721));
#201=EDGE_LOOP('',(#722,#723,#724,#725));
#202=EDGE_LOOP('',(#726,#727,#728,#729));
#203=EDGE_LOOP('',(#730,#731,#732,#733));
#204=EDGE_LOOP('',(#734,#735,#736,#737));
#205=EDGE_LOOP('',(#738,#739,#740,#741));
#206=EDGE_LOOP('',(#742,#743,#744,#745,#746,#747,#748,#749,#750,#751,#752,
#753,#754,#755,#756,#757,#758,#759,#760,#761,#762,#763,#764,#765,#766,#767,
#768));
#207=EDGE_LOOP('',(#769));
#208=EDGE_LOOP('',(#770));
#209=EDGE_LOOP('',(#771));
#210=EDGE_LOOP('',(#772));
#211=EDGE_LOOP('',(#773));
#212=EDGE_LOOP('',(#774));
#213=EDGE_LOOP('',(#775));
#214=EDGE_LOOP('',(#776));
#215=EDGE_LOOP('',(#777));
#216=EDGE_LOOP('',(#778));
#217=EDGE_LOOP('',(#779));
#218=EDGE_LOOP('',(#780));
#219=EDGE_LOOP('',(#781));
#220=EDGE_LOOP('',(#782));
#221=EDGE_LOOP('',(#783));
#222=EDGE_LOOP('',(#784));
#223=EDGE_LOOP('',(#785));
#224=EDGE_LOOP('',(#786));
#225=EDGE_LOOP('',(#787));
#226=EDGE_LOOP('',(#788));
#227=EDGE_LOOP('',(#789,#790,#791,#792,#793,#794,#795,#796,#797,#798,#799,
#800,#801,#802,#803,#804,#805,#806,#807,#808,#809,#810,#811,#812,#813,#814,
#815));
#228=EDGE_LOOP('',(#816));
#229=EDGE_LOOP('',(#817));
#230=EDGE_LOOP('',(#818));
#231=EDGE_LOOP('',(#819));
#232=EDGE_LOOP('',(#820));
#233=EDGE_LOOP('',(#821));
#234=EDGE_LOOP('',(#822));
#235=EDGE_LOOP('',(#823));
#236=EDGE_LOOP('',(#824));
#237=EDGE_LOOP('',(#825));
#238=EDGE_LOOP('',(#826));
#239=EDGE_LOOP('',(#827));
#240=EDGE_LOOP('',(#828));
#241=EDGE_LOOP('',(#829));
#242=EDGE_LOOP('',(#830));
#243=EDGE_LOOP('',(#831));
#244=EDGE_LOOP('',(#832));
#245=EDGE_LOOP('',(#833));
#246=EDGE_LOOP('',(#834));
#247=EDGE_LOOP('',(#835));
#248=EDGE_LOOP('',(#836,#837,#838,#839));
#249=EDGE_LOOP('',(#840,#841,#842,#843));
#250=EDGE_LOOP('',(#844,#845,#846,#847));
#251=EDGE_LOOP('',(#848,#849,#850,#851));
#252=EDGE_LOOP('',(#852,#853,#854,#855));
#253=EDGE_LOOP('',(#856,#857,#858,#859));
#254=EDGE_LOOP('',(#860,#861,#862,#863));
#255=EDGE_LOOP('',(#864,#865,#866,#867));
#256=EDGE_LOOP('',(#868,#869,#870,#871));
#257=EDGE_LOOP('',(#872,#873,#874,#875));
#258=EDGE_LOOP('',(#876,#877,#878,#879));
#259=EDGE_LOOP('',(#880,#881,#882,#883));
#260=EDGE_LOOP('',(#884,#885,#886,#887));
#261=EDGE_LOOP('',(#888,#889,#890,#891));
#262=EDGE_LOOP('',(#892,#893,#894,#895));
#263=EDGE_LOOP('',(#896,#897,#898,#899));
#264=EDGE_LOOP('',(#900,#901,#902,#903));
#265=EDGE_LOOP('',(#904,#905,#906,#907));
#266=EDGE_LOOP('',(#908,#909,#910,#911));
#267=EDGE_LOOP('',(#912,#913,#914,#915));
#268=EDGE_LOOP('',(#916,#917,#918,#919));
#269=EDGE_LOOP('',(#920,#921,#922,#923));
#270=EDGE_LOOP('',(#924,#925,#926,#927));
#271=EDGE_LOOP('',(#928,#929,#930,#931));
#272=EDGE_LOOP('',(#932,#933,#934,#935));
#273=EDGE_LOOP('',(#936,#937,#938,#939));
#274=EDGE_LOOP('',(#940,#941,#942,#943));
#275=EDGE_LOOP('',(#944,#945,#946,#947));
#276=EDGE_LOOP('',(#948,#949,#950,#951));
#277=EDGE_LOOP('',(#952,#953,#954,#955));
#278=EDGE_LOOP('',(#956,#957,#958,#959));
#279=EDGE_LOOP('',(#960,#961,#962,#963));
#280=EDGE_LOOP('',(#964,#965,#966,#967));
#281=LINE('',#1465,#366);
#282=LINE('',#1467,#367);
#283=LINE('',#1469,#368);
#284=LINE('',#1470,#369);
#285=LINE('',#1474,#370);
#286=LINE('',#1476,#371);
#287=LINE('',#1478,#372);
#288=LINE('',#1479,#373);
#289=LINE('',#1485,#374);
#290=LINE('',#1488,#375);
#291=LINE('',#1490,#376);
#292=LINE('',#1491,#377);
#293=LINE('',#1494,#378);
#294=LINE('',#1496,#379);
#295=LINE('',#1497,#380);
#296=LINE('',#1500,#381);
#297=LINE('',#1502,#382);
#298=LINE('',#1503,#383);
#299=LINE('',#1510,#384);
#300=LINE('',#1512,#385);
#301=LINE('',#1514,#386);
#302=LINE('',#1515,#387);
#303=LINE('',#1519,#388);
#304=LINE('',#1521,#389);
#305=LINE('',#1523,#390);
#306=LINE('',#1524,#391);
#307=LINE('',#1530,#392);
#308=LINE('',#1533,#393);
#309=LINE('',#1535,#394);
#310=LINE('',#1536,#395);
#311=LINE('',#1539,#396);
#312=LINE('',#1541,#397);
#313=LINE('',#1542,#398);
#314=LINE('',#1545,#399);
#315=LINE('',#1547,#400);
#316=LINE('',#1548,#401);
#317=LINE('',#1554,#402);
#318=LINE('',#1558,#403);
#319=LINE('',#1561,#404);
#320=LINE('',#1563,#405);
#321=LINE('',#1567,#406);
#322=LINE('',#1569,#407);
#323=LINE('',#1571,#408);
#324=LINE('',#1573,#409);
#325=LINE('',#1576,#410);
#326=LINE('',#1619,#411);
#327=LINE('',#1623,#412);
#328=LINE('',#1625,#413);
#329=LINE('',#1627,#414);
#330=LINE('',#1629,#415);
#331=LINE('',#1632,#416);
#332=LINE('',#1634,#417);
#333=LINE('',#1638,#418);
#334=LINE('',#1641,#419);
#335=LINE('',#1683,#420);
#336=LINE('',#1685,#421);
#337=LINE('',#1687,#422);
#338=LINE('',#1689,#423);
#339=LINE('',#1691,#424);
#340=LINE('',#1693,#425);
#341=LINE('',#1695,#426);
#342=LINE('',#1697,#427);
#343=LINE('',#1699,#428);
#344=LINE('',#1701,#429);
#345=LINE('',#1703,#430);
#346=LINE('',#1705,#431);
#347=LINE('',#1707,#432);
#348=LINE('',#1709,#433);
#349=LINE('',#1711,#434);
#350=LINE('',#1713,#435);
#351=LINE('',#1715,#436);
#352=LINE('',#1717,#437);
#353=LINE('',#1719,#438);
#354=LINE('',#1721,#439);
#355=LINE('',#1723,#440);
#356=LINE('',#1725,#441);
#357=LINE('',#1727,#442);
#358=LINE('',#1729,#443);
#359=LINE('',#1731,#444);
#360=LINE('',#1733,#445);
#361=LINE('',#1735,#446);
#362=LINE('',#1737,#447);
#363=LINE('',#1740,#448);
#364=LINE('',#1742,#449);
#365=LINE('',#1744,#450);
#366=VECTOR('',#1165,10.);
#367=VECTOR('',#1166,10.);
#368=VECTOR('',#1167,10.);
#369=VECTOR('',#1168,10.);
#370=VECTOR('',#1171,10.);
#371=VECTOR('',#1172,10.);
#372=VECTOR('',#1173,10.);
#373=VECTOR('',#1174,10.);
#374=VECTOR('',#1181,10.);
#375=VECTOR('',#1184,10.);
#376=VECTOR('',#1185,10.);
#377=VECTOR('',#1186,10.);
#378=VECTOR('',#1189,10.);
#379=VECTOR('',#1190,10.);
#380=VECTOR('',#1191,10.);
#381=VECTOR('',#1194,10.);
#382=VECTOR('',#1195,10.);
#383=VECTOR('',#1196,10.);
#384=VECTOR('',#1205,10.);
#385=VECTOR('',#1206,10.);
#386=VECTOR('',#1207,10.);
#387=VECTOR('',#1208,10.);
#388=VECTOR('',#1211,10.);
#389=VECTOR('',#1212,10.);
#390=VECTOR('',#1213,10.);
#391=VECTOR('',#1214,10.);
#392=VECTOR('',#1221,10.);
#393=VECTOR('',#1224,10.);
#394=VECTOR('',#1225,10.);
#395=VECTOR('',#1226,10.);
#396=VECTOR('',#1229,10.);
#397=VECTOR('',#1230,10.);
#398=VECTOR('',#1231,10.);
#399=VECTOR('',#1234,10.);
#400=VECTOR('',#1235,10.);
#401=VECTOR('',#1236,10.);
#402=VECTOR('',#1245,10.);
#403=VECTOR('',#1248,10.);
#404=VECTOR('',#1251,10.);
#405=VECTOR('',#1252,10.);
#406=VECTOR('',#1255,10.);
#407=VECTOR('',#1256,10.);
#408=VECTOR('',#1257,10.);
#409=VECTOR('',#1258,10.);
#410=VECTOR('',#1261,10.);
#411=VECTOR('',#1304,10.);
#412=VECTOR('',#1307,10.);
#413=VECTOR('',#1308,10.);
#414=VECTOR('',#1309,10.);
#415=VECTOR('',#1310,10.);
#416=VECTOR('',#1313,10.);
#417=VECTOR('',#1314,10.);
#418=VECTOR('',#1317,10.);
#419=VECTOR('',#1320,10.);
#420=VECTOR('',#1363,3.00000000000711);
#421=VECTOR('',#1366,4.);
#422=VECTOR('',#1369,4.);
#423=VECTOR('',#1372,1.75000000000001);
#424=VECTOR('',#1375,3.00000000000742);
#425=VECTOR('',#1378,1.75000000000001);
#426=VECTOR('',#1381,3.00000000000283);
#427=VECTOR('',#1384,2.10000000000001);
#428=VECTOR('',#1387,3.00000000000239);
#429=VECTOR('',#1390,1.75000000000001);
#430=VECTOR('',#1393,2.1);
#431=VECTOR('',#1396,3.00000000000679);
#432=VECTOR('',#1399,4.);
#433=VECTOR('',#1402,5.);
#434=VECTOR('',#1405,3.00000000000242);
#435=VECTOR('',#1408,1.75000000000001);
#436=VECTOR('',#1411,2.10000000000001);
#437=VECTOR('',#1414,3.0000000000021);
#438=VECTOR('',#1417,4.);
#439=VECTOR('',#1420,3.00000000000711);
#440=VECTOR('',#1423,10.);
#441=VECTOR('',#1426,10.);
#442=VECTOR('',#1429,10.);
#443=VECTOR('',#1432,10.);
#444=VECTOR('',#1435,10.);
#445=VECTOR('',#1438,10.);
#446=VECTOR('',#1441,10.);
#447=VECTOR('',#1444,10.);
#448=VECTOR('',#1449,10.);
#449=VECTOR('',#1452,10.);
#450=VECTOR('',#1455,10.);
#451=VERTEX_POINT('',#1463);
#452=VERTEX_POINT('',#1464);
#453=VERTEX_POINT('',#1466);
#454=VERTEX_POINT('',#1468);
#455=VERTEX_POINT('',#1472);
#456=VERTEX_POINT('',#1473);
#457=VERTEX_POINT('',#1475);
#458=VERTEX_POINT('',#1477);
#459=VERTEX_POINT('',#1481);
#460=VERTEX_POINT('',#1483);
#461=VERTEX_POINT('',#1487);
#462=VERTEX_POINT('',#1489);
#463=VERTEX_POINT('',#1493);
#464=VERTEX_POINT('',#1495);
#465=VERTEX_POINT('',#1499);
#466=VERTEX_POINT('',#1501);
#467=VERTEX_POINT('',#1508);
#468=VERTEX_POINT('',#1509);
#469=VERTEX_POINT('',#1511);
#470=VERTEX_POINT('',#1513);
#471=VERTEX_POINT('',#1517);
#472=VERTEX_POINT('',#1518);
#473=VERTEX_POINT('',#1520);
#474=VERTEX_POINT('',#1522);
#475=VERTEX_POINT('',#1526);
#476=VERTEX_POINT('',#1528);
#477=VERTEX_POINT('',#1532);
#478=VERTEX_POINT('',#1534);
#479=VERTEX_POINT('',#1538);
#480=VERTEX_POINT('',#1540);
#481=VERTEX_POINT('',#1544);
#482=VERTEX_POINT('',#1546);
#483=VERTEX_POINT('',#1553);
#484=VERTEX_POINT('',#1555);
#485=VERTEX_POINT('',#1557);
#486=VERTEX_POINT('',#1559);
#487=VERTEX_POINT('',#1562);
#488=VERTEX_POINT('',#1564);
#489=VERTEX_POINT('',#1566);
#490=VERTEX_POINT('',#1568);
#491=VERTEX_POINT('',#1570);
#492=VERTEX_POINT('',#1572);
#493=VERTEX_POINT('',#1574);
#494=VERTEX_POINT('',#1577);
#495=VERTEX_POINT('',#1579);
#496=VERTEX_POINT('',#1581);
#497=VERTEX_POINT('',#1583);
#498=VERTEX_POINT('',#1585);
#499=VERTEX_POINT('',#1587);
#500=VERTEX_POINT('',#1589);
#501=VERTEX_POINT('',#1591);
#502=VERTEX_POINT('',#1593);
#503=VERTEX_POINT('',#1595);
#504=VERTEX_POINT('',#1597);
#505=VERTEX_POINT('',#1599);
#506=VERTEX_POINT('',#1601);
#507=VERTEX_POINT('',#1603);
#508=VERTEX_POINT('',#1605);
#509=VERTEX_POINT('',#1607);
#510=VERTEX_POINT('',#1609);
#511=VERTEX_POINT('',#1611);
#512=VERTEX_POINT('',#1613);
#513=VERTEX_POINT('',#1615);
#514=VERTEX_POINT('',#1618);
#515=VERTEX_POINT('',#1620);
#516=VERTEX_POINT('',#1622);
#517=VERTEX_POINT('',#1624);
#518=VERTEX_POINT('',#1626);
#519=VERTEX_POINT('',#1628);
#520=VERTEX_POINT('',#1630);
#521=VERTEX_POINT('',#1633);
#522=VERTEX_POINT('',#1635);
#523=VERTEX_POINT('',#1637);
#524=VERTEX_POINT('',#1639);
#525=VERTEX_POINT('',#1642);
#526=VERTEX_POINT('',#1644);
#527=VERTEX_POINT('',#1646);
#528=VERTEX_POINT('',#1648);
#529=VERTEX_POINT('',#1650);
#530=VERTEX_POINT('',#1652);
#531=VERTEX_POINT('',#1654);
#532=VERTEX_POINT('',#1656);
#533=VERTEX_POINT('',#1658);
#534=VERTEX_POINT('',#1660);
#535=VERTEX_POINT('',#1662);
#536=VERTEX_POINT('',#1664);
#537=VERTEX_POINT('',#1666);
#538=VERTEX_POINT('',#1668);
#539=VERTEX_POINT('',#1670);
#540=VERTEX_POINT('',#1672);
#541=VERTEX_POINT('',#1674);
#542=VERTEX_POINT('',#1676);
#543=VERTEX_POINT('',#1678);
#544=VERTEX_POINT('',#1680);
#545=EDGE_CURVE('',#451,#452,#281,.T.);
#546=EDGE_CURVE('',#453,#451,#282,.T.);
#547=EDGE_CURVE('',#454,#453,#283,.T.);
#548=EDGE_CURVE('',#452,#454,#284,.T.);
#549=EDGE_CURVE('',#455,#456,#285,.T.);
#550=EDGE_CURVE('',#457,#455,#286,.T.);
#551=EDGE_CURVE('',#458,#457,#287,.T.);
#552=EDGE_CURVE('',#458,#456,#288,.T.);
#553=EDGE_CURVE('',#456,#459,#59,.T.);
#554=EDGE_CURVE('',#460,#458,#60,.T.);
#555=EDGE_CURVE('',#460,#459,#289,.T.);
#556=EDGE_CURVE('',#459,#461,#290,.T.);
#557=EDGE_CURVE('',#462,#460,#291,.T.);
#558=EDGE_CURVE('',#462,#461,#292,.T.);
#559=EDGE_CURVE('',#461,#463,#293,.T.);
#560=EDGE_CURVE('',#464,#462,#294,.T.);
#561=EDGE_CURVE('',#464,#463,#295,.T.);
#562=EDGE_CURVE('',#463,#465,#296,.T.);
#563=EDGE_CURVE('',#466,#464,#297,.T.);
#564=EDGE_CURVE('',#466,#465,#298,.T.);
#565=EDGE_CURVE('',#465,#451,#61,.T.);
#566=EDGE_CURVE('',#453,#466,#62,.T.);
#567=EDGE_CURVE('',#467,#468,#299,.T.);
#568=EDGE_CURVE('',#469,#467,#300,.T.);
#569=EDGE_CURVE('',#470,#469,#301,.T.);
#570=EDGE_CURVE('',#468,#470,#302,.T.);
#571=EDGE_CURVE('',#471,#472,#303,.T.);
#572=EDGE_CURVE('',#473,#471,#304,.T.);
#573=EDGE_CURVE('',#474,#473,#305,.T.);
#574=EDGE_CURVE('',#474,#472,#306,.T.);
#575=EDGE_CURVE('',#472,#475,#63,.T.);
#576=EDGE_CURVE('',#476,#474,#64,.T.);
#577=EDGE_CURVE('',#476,#475,#307,.T.);
#578=EDGE_CURVE('',#475,#477,#308,.T.);
#579=EDGE_CURVE('',#478,#476,#309,.T.);
#580=EDGE_CURVE('',#478,#477,#310,.T.);
#581=EDGE_CURVE('',#477,#479,#311,.T.);
#582=EDGE_CURVE('',#480,#478,#312,.T.);
#583=EDGE_CURVE('',#480,#479,#313,.T.);
#584=EDGE_CURVE('',#479,#481,#314,.T.);
#585=EDGE_CURVE('',#482,#480,#315,.T.);
#586=EDGE_CURVE('',#482,#481,#316,.T.);
#587=EDGE_CURVE('',#481,#467,#65,.T.);
#588=EDGE_CURVE('',#469,#482,#66,.T.);
#589=EDGE_CURVE('',#457,#483,#317,.T.);
#590=EDGE_CURVE('',#483,#484,#67,.T.);
#591=EDGE_CURVE('',#484,#485,#318,.T.);
#592=EDGE_CURVE('',#485,#486,#68,.T.);
#593=EDGE_CURVE('',#486,#470,#319,.T.);
#594=EDGE_CURVE('',#473,#487,#320,.T.);
#595=EDGE_CURVE('',#487,#488,#69,.T.);
#596=EDGE_CURVE('',#488,#489,#321,.T.);
#597=EDGE_CURVE('',#489,#490,#322,.T.);
#598=EDGE_CURVE('',#490,#491,#323,.T.);
#599=EDGE_CURVE('',#491,#492,#324,.T.);
#600=EDGE_CURVE('',#492,#493,#70,.T.);
#601=EDGE_CURVE('',#493,#454,#325,.T.);
#602=EDGE_CURVE('',#494,#494,#71,.T.);
#603=EDGE_CURVE('',#495,#495,#72,.T.);
#604=EDGE_CURVE('',#496,#496,#73,.T.);
#605=EDGE_CURVE('',#497,#497,#74,.T.);
#606=EDGE_CURVE('',#498,#498,#75,.T.);
#607=EDGE_CURVE('',#499,#499,#76,.T.);
#608=EDGE_CURVE('',#500,#500,#77,.T.);
#609=EDGE_CURVE('',#501,#501,#78,.T.);
#610=EDGE_CURVE('',#502,#502,#79,.T.);
#611=EDGE_CURVE('',#503,#503,#80,.T.);
#612=EDGE_CURVE('',#504,#504,#81,.T.);
#613=EDGE_CURVE('',#505,#505,#82,.T.);
#614=EDGE_CURVE('',#506,#506,#83,.T.);
#615=EDGE_CURVE('',#507,#507,#84,.T.);
#616=EDGE_CURVE('',#508,#508,#85,.T.);
#617=EDGE_CURVE('',#509,#509,#86,.T.);
#618=EDGE_CURVE('',#510,#510,#87,.T.);
#619=EDGE_CURVE('',#511,#511,#88,.T.);
#620=EDGE_CURVE('',#512,#512,#89,.T.);
#621=EDGE_CURVE('',#513,#513,#90,.T.);
#622=EDGE_CURVE('',#452,#514,#326,.T.);
#623=EDGE_CURVE('',#515,#514,#91,.T.);
#624=EDGE_CURVE('',#515,#516,#327,.T.);
#625=EDGE_CURVE('',#516,#517,#328,.T.);
#626=EDGE_CURVE('',#517,#518,#329,.T.);
#627=EDGE_CURVE('',#518,#519,#330,.T.);
#628=EDGE_CURVE('',#520,#519,#92,.T.);
#629=EDGE_CURVE('',#520,#471,#331,.T.);
#630=EDGE_CURVE('',#468,#521,#332,.T.);
#631=EDGE_CURVE('',#522,#521,#93,.T.);
#632=EDGE_CURVE('',#523,#522,#333,.T.);
#633=EDGE_CURVE('',#524,#523,#94,.T.);
#634=EDGE_CURVE('',#524,#455,#334,.T.);
#635=EDGE_CURVE('',#525,#525,#95,.T.);
#636=EDGE_CURVE('',#526,#526,#96,.T.);
#637=EDGE_CURVE('',#527,#527,#97,.T.);
#638=EDGE_CURVE('',#528,#528,#98,.T.);
#639=EDGE_CURVE('',#529,#529,#99,.T.);
#640=EDGE_CURVE('',#530,#530,#100,.T.);
#641=EDGE_CURVE('',#531,#531,#101,.T.);
#642=EDGE_CURVE('',#532,#532,#102,.T.);
#643=EDGE_CURVE('',#533,#533,#103,.T.);
#644=EDGE_CURVE('',#534,#534,#104,.T.);
#645=EDGE_CURVE('',#535,#535,#105,.T.);
#646=EDGE_CURVE('',#536,#536,#106,.T.);
#647=EDGE_CURVE('',#537,#537,#107,.T.);
#648=EDGE_CURVE('',#538,#538,#108,.T.);
#649=EDGE_CURVE('',#539,#539,#109,.T.);
#650=EDGE_CURVE('',#540,#540,#110,.T.);
#651=EDGE_CURVE('',#541,#541,#111,.T.);
#652=EDGE_CURVE('',#542,#542,#112,.T.);
#653=EDGE_CURVE('',#543,#543,#113,.T.);
#654=EDGE_CURVE('',#544,#544,#114,.T.);
#655=EDGE_CURVE('',#494,#525,#335,.T.);
#656=EDGE_CURVE('',#495,#526,#336,.T.);
#657=EDGE_CURVE('',#496,#527,#337,.T.);
#658=EDGE_CURVE('',#497,#528,#338,.T.);
#659=EDGE_CURVE('',#498,#529,#339,.T.);
#660=EDGE_CURVE('',#499,#530,#340,.T.);
#661=EDGE_CURVE('',#500,#531,#341,.T.);
#662=EDGE_CURVE('',#501,#532,#342,.T.);
#663=EDGE_CURVE('',#502,#533,#343,.T.);
#664=EDGE_CURVE('',#503,#534,#344,.T.);
#665=EDGE_CURVE('',#504,#535,#345,.T.);
#666=EDGE_CURVE('',#505,#536,#346,.T.);
#667=EDGE_CURVE('',#506,#537,#347,.T.);
#668=EDGE_CURVE('',#507,#538,#348,.T.);
#669=EDGE_CURVE('',#508,#539,#349,.T.);
#670=EDGE_CURVE('',#509,#540,#350,.T.);
#671=EDGE_CURVE('',#510,#541,#351,.T.);
#672=EDGE_CURVE('',#511,#542,#352,.T.);
#673=EDGE_CURVE('',#512,#543,#353,.T.);
#674=EDGE_CURVE('',#513,#544,#354,.T.);
#675=EDGE_CURVE('',#524,#483,#355,.T.);
#676=EDGE_CURVE('',#514,#493,#356,.T.);
#677=EDGE_CURVE('',#515,#492,#357,.T.);
#678=EDGE_CURVE('',#516,#491,#358,.T.);
#679=EDGE_CURVE('',#517,#490,#359,.T.);
#680=EDGE_CURVE('',#518,#489,#360,.T.);
#681=EDGE_CURVE('',#519,#488,#361,.T.);
#682=EDGE_CURVE('',#520,#487,#362,.T.);
#683=EDGE_CURVE('',#521,#486,#363,.T.);
#684=EDGE_CURVE('',#522,#485,#364,.T.);
#685=EDGE_CURVE('',#523,#484,#365,.T.);
#686=ORIENTED_EDGE('',*,*,#545,.F.);
#687=ORIENTED_EDGE('',*,*,#546,.F.);
#688=ORIENTED_EDGE('',*,*,#547,.F.);
#689=ORIENTED_EDGE('',*,*,#548,.F.);
#690=ORIENTED_EDGE('',*,*,#549,.F.);
#691=ORIENTED_EDGE('',*,*,#550,.F.);
#692=ORIENTED_EDGE('',*,*,#551,.F.);
#693=ORIENTED_EDGE('',*,*,#552,.T.);
#694=ORIENTED_EDGE('',*,*,#553,.F.);
#695=ORIENTED_EDGE('',*,*,#552,.F.);
#696=ORIENTED_EDGE('',*,*,#554,.F.);
#697=ORIENTED_EDGE('',*,*,#555,.T.);
#698=ORIENTED_EDGE('',*,*,#556,.F.);
#699=ORIENTED_EDGE('',*,*,#555,.F.);
#700=ORIENTED_EDGE('',*,*,#557,.F.);
#701=ORIENTED_EDGE('',*,*,#558,.T.);
#702=ORIENTED_EDGE('',*,*,#559,.F.);
#703=ORIENTED_EDGE('',*,*,#558,.F.);
#704=ORIENTED_EDGE('',*,*,#560,.F.);
#705=ORIENTED_EDGE('',*,*,#561,.T.);
#706=ORIENTED_EDGE('',*,*,#562,.F.);
#707=ORIENTED_EDGE('',*,*,#561,.F.);
#708=ORIENTED_EDGE('',*,*,#563,.F.);
#709=ORIENTED_EDGE('',*,*,#564,.T.);
#710=ORIENTED_EDGE('',*,*,#565,.F.);
#711=ORIENTED_EDGE('',*,*,#564,.F.);
#712=ORIENTED_EDGE('',*,*,#566,.F.);
#713=ORIENTED_EDGE('',*,*,#546,.T.);
#714=ORIENTED_EDGE('',*,*,#567,.F.);
#715=ORIENTED_EDGE('',*,*,#568,.F.);
#716=ORIENTED_EDGE('',*,*,#569,.F.);
#717=ORIENTED_EDGE('',*,*,#570,.F.);
#718=ORIENTED_EDGE('',*,*,#571,.F.);
#719=ORIENTED_EDGE('',*,*,#572,.F.);
#720=ORIENTED_EDGE('',*,*,#573,.F.);
#721=ORIENTED_EDGE('',*,*,#574,.T.);
#722=ORIENTED_EDGE('',*,*,#575,.F.);
#723=ORIENTED_EDGE('',*,*,#574,.F.);
#724=ORIENTED_EDGE('',*,*,#576,.F.);
#725=ORIENTED_EDGE('',*,*,#577,.T.);
#726=ORIENTED_EDGE('',*,*,#578,.F.);
#727=ORIENTED_EDGE('',*,*,#577,.F.);
#728=ORIENTED_EDGE('',*,*,#579,.F.);
#729=ORIENTED_EDGE('',*,*,#580,.T.);
#730=ORIENTED_EDGE('',*,*,#581,.F.);
#731=ORIENTED_EDGE('',*,*,#580,.F.);
#732=ORIENTED_EDGE('',*,*,#582,.F.);
#733=ORIENTED_EDGE('',*,*,#583,.T.);
#734=ORIENTED_EDGE('',*,*,#584,.F.);
#735=ORIENTED_EDGE('',*,*,#583,.F.);
#736=ORIENTED_EDGE('',*,*,#585,.F.);
#737=ORIENTED_EDGE('',*,*,#586,.T.);
#738=ORIENTED_EDGE('',*,*,#587,.F.);
#739=ORIENTED_EDGE('',*,*,#586,.F.);
#740=ORIENTED_EDGE('',*,*,#588,.F.);
#741=ORIENTED_EDGE('',*,*,#568,.T.);
#742=ORIENTED_EDGE('',*,*,#547,.T.);
#743=ORIENTED_EDGE('',*,*,#566,.T.);
#744=ORIENTED_EDGE('',*,*,#563,.T.);
#745=ORIENTED_EDGE('',*,*,#560,.T.);
#746=ORIENTED_EDGE('',*,*,#557,.T.);
#747=ORIENTED_EDGE('',*,*,#554,.T.);
#748=ORIENTED_EDGE('',*,*,#551,.T.);
#749=ORIENTED_EDGE('',*,*,#589,.T.);
#750=ORIENTED_EDGE('',*,*,#590,.T.);
#751=ORIENTED_EDGE('',*,*,#591,.T.);
#752=ORIENTED_EDGE('',*,*,#592,.T.);
#753=ORIENTED_EDGE('',*,*,#593,.T.);
#754=ORIENTED_EDGE('',*,*,#569,.T.);
#755=ORIENTED_EDGE('',*,*,#588,.T.);
#756=ORIENTED_EDGE('',*,*,#585,.T.);
#757=ORIENTED_EDGE('',*,*,#582,.T.);
#758=ORIENTED_EDGE('',*,*,#579,.T.);
#759=ORIENTED_EDGE('',*,*,#576,.T.);
#760=ORIENTED_EDGE('',*,*,#573,.T.);
#761=ORIENTED_EDGE('',*,*,#594,.T.);
#762=ORIENTED_EDGE('',*,*,#595,.T.);
#763=ORIENTED_EDGE('',*,*,#596,.T.);
#764=ORIENTED_EDGE('',*,*,#597,.T.);
#765=ORIENTED_EDGE('',*,*,#598,.T.);
#766=ORIENTED_EDGE('',*,*,#599,.T.);
#767=ORIENTED_EDGE('',*,*,#600,.T.);
#768=ORIENTED_EDGE('',*,*,#601,.T.);
#769=ORIENTED_EDGE('',*,*,#602,.T.);
#770=ORIENTED_EDGE('',*,*,#603,.T.);
#771=ORIENTED_EDGE('',*,*,#604,.T.);
#772=ORIENTED_EDGE('',*,*,#605,.T.);
#773=ORIENTED_EDGE('',*,*,#606,.T.);
#774=ORIENTED_EDGE('',*,*,#607,.T.);
#775=ORIENTED_EDGE('',*,*,#608,.T.);
#776=ORIENTED_EDGE('',*,*,#609,.T.);
#777=ORIENTED_EDGE('',*,*,#610,.T.);
#778=ORIENTED_EDGE('',*,*,#611,.T.);
#779=ORIENTED_EDGE('',*,*,#612,.T.);
#780=ORIENTED_EDGE('',*,*,#613,.T.);
#781=ORIENTED_EDGE('',*,*,#614,.T.);
#782=ORIENTED_EDGE('',*,*,#615,.T.);
#783=ORIENTED_EDGE('',*,*,#616,.T.);
#784=ORIENTED_EDGE('',*,*,#617,.T.);
#785=ORIENTED_EDGE('',*,*,#618,.T.);
#786=ORIENTED_EDGE('',*,*,#619,.T.);
#787=ORIENTED_EDGE('',*,*,#620,.T.);
#788=ORIENTED_EDGE('',*,*,#621,.T.);
#789=ORIENTED_EDGE('',*,*,#545,.T.);
#790=ORIENTED_EDGE('',*,*,#622,.T.);
#791=ORIENTED_EDGE('',*,*,#623,.F.);
#792=ORIENTED_EDGE('',*,*,#624,.T.);
#793=ORIENTED_EDGE('',*,*,#625,.T.);
#794=ORIENTED_EDGE('',*,*,#626,.T.);
#795=ORIENTED_EDGE('',*,*,#627,.T.);
#796=ORIENTED_EDGE('',*,*,#628,.F.);
#797=ORIENTED_EDGE('',*,*,#629,.T.);
#798=ORIENTED_EDGE('',*,*,#571,.T.);
#799=ORIENTED_EDGE('',*,*,#575,.T.);
#800=ORIENTED_EDGE('',*,*,#578,.T.);
#801=ORIENTED_EDGE('',*,*,#581,.T.);
#802=ORIENTED_EDGE('',*,*,#584,.T.);
#803=ORIENTED_EDGE('',*,*,#587,.T.);
#804=ORIENTED_EDGE('',*,*,#567,.T.);
#805=ORIENTED_EDGE('',*,*,#630,.T.);
#806=ORIENTED_EDGE('',*,*,#631,.F.);
#807=ORIENTED_EDGE('',*,*,#632,.F.);
#808=ORIENTED_EDGE('',*,*,#633,.F.);
#809=ORIENTED_EDGE('',*,*,#634,.T.);
#810=ORIENTED_EDGE('',*,*,#549,.T.);
#811=ORIENTED_EDGE('',*,*,#553,.T.);
#812=ORIENTED_EDGE('',*,*,#556,.T.);
#813=ORIENTED_EDGE('',*,*,#559,.T.);
#814=ORIENTED_EDGE('',*,*,#562,.T.);
#815=ORIENTED_EDGE('',*,*,#565,.T.);
#816=ORIENTED_EDGE('',*,*,#635,.F.);
#817=ORIENTED_EDGE('',*,*,#636,.F.);
#818=ORIENTED_EDGE('',*,*,#637,.F.);
#819=ORIENTED_EDGE('',*,*,#638,.F.);
#820=ORIENTED_EDGE('',*,*,#639,.F.);
#821=ORIENTED_EDGE('',*,*,#640,.F.);
#822=ORIENTED_EDGE('',*,*,#641,.F.);
#823=ORIENTED_EDGE('',*,*,#642,.F.);
#824=ORIENTED_EDGE('',*,*,#643,.F.);
#825=ORIENTED_EDGE('',*,*,#644,.F.);
#826=ORIENTED_EDGE('',*,*,#645,.F.);
#827=ORIENTED_EDGE('',*,*,#646,.F.);
#828=ORIENTED_EDGE('',*,*,#647,.F.);
#829=ORIENTED_EDGE('',*,*,#648,.F.);
#830=ORIENTED_EDGE('',*,*,#649,.F.);
#831=ORIENTED_EDGE('',*,*,#650,.F.);
#832=ORIENTED_EDGE('',*,*,#651,.F.);
#833=ORIENTED_EDGE('',*,*,#652,.F.);
#834=ORIENTED_EDGE('',*,*,#653,.F.);
#835=ORIENTED_EDGE('',*,*,#654,.F.);
#836=ORIENTED_EDGE('',*,*,#602,.F.);
#837=ORIENTED_EDGE('',*,*,#655,.T.);
#838=ORIENTED_EDGE('',*,*,#635,.T.);
#839=ORIENTED_EDGE('',*,*,#655,.F.);
#840=ORIENTED_EDGE('',*,*,#603,.F.);
#841=ORIENTED_EDGE('',*,*,#656,.T.);
#842=ORIENTED_EDGE('',*,*,#636,.T.);
#843=ORIENTED_EDGE('',*,*,#656,.F.);
#844=ORIENTED_EDGE('',*,*,#604,.F.);
#845=ORIENTED_EDGE('',*,*,#657,.T.);
#846=ORIENTED_EDGE('',*,*,#637,.T.);
#847=ORIENTED_EDGE('',*,*,#657,.F.);
#848=ORIENTED_EDGE('',*,*,#605,.F.);
#849=ORIENTED_EDGE('',*,*,#658,.T.);
#850=ORIENTED_EDGE('',*,*,#638,.T.);
#851=ORIENTED_EDGE('',*,*,#658,.F.);
#852=ORIENTED_EDGE('',*,*,#606,.F.);
#853=ORIENTED_EDGE('',*,*,#659,.T.);
#854=ORIENTED_EDGE('',*,*,#639,.T.);
#855=ORIENTED_EDGE('',*,*,#659,.F.);
#856=ORIENTED_EDGE('',*,*,#607,.F.);
#857=ORIENTED_EDGE('',*,*,#660,.T.);
#858=ORIENTED_EDGE('',*,*,#640,.T.);
#859=ORIENTED_EDGE('',*,*,#660,.F.);
#860=ORIENTED_EDGE('',*,*,#608,.F.);
#861=ORIENTED_EDGE('',*,*,#661,.T.);
#862=ORIENTED_EDGE('',*,*,#641,.T.);
#863=ORIENTED_EDGE('',*,*,#661,.F.);
#864=ORIENTED_EDGE('',*,*,#609,.F.);
#865=ORIENTED_EDGE('',*,*,#662,.T.);
#866=ORIENTED_EDGE('',*,*,#642,.T.);
#867=ORIENTED_EDGE('',*,*,#662,.F.);
#868=ORIENTED_EDGE('',*,*,#610,.F.);
#869=ORIENTED_EDGE('',*,*,#663,.T.);
#870=ORIENTED_EDGE('',*,*,#643,.T.);
#871=ORIENTED_EDGE('',*,*,#663,.F.);
#872=ORIENTED_EDGE('',*,*,#611,.F.);
#873=ORIENTED_EDGE('',*,*,#664,.T.);
#874=ORIENTED_EDGE('',*,*,#644,.T.);
#875=ORIENTED_EDGE('',*,*,#664,.F.);
#876=ORIENTED_EDGE('',*,*,#612,.F.);
#877=ORIENTED_EDGE('',*,*,#665,.T.);
#878=ORIENTED_EDGE('',*,*,#645,.T.);
#879=ORIENTED_EDGE('',*,*,#665,.F.);
#880=ORIENTED_EDGE('',*,*,#613,.F.);
#881=ORIENTED_EDGE('',*,*,#666,.T.);
#882=ORIENTED_EDGE('',*,*,#646,.T.);
#883=ORIENTED_EDGE('',*,*,#666,.F.);
#884=ORIENTED_EDGE('',*,*,#614,.F.);
#885=ORIENTED_EDGE('',*,*,#667,.T.);
#886=ORIENTED_EDGE('',*,*,#647,.T.);
#887=ORIENTED_EDGE('',*,*,#667,.F.);
#888=ORIENTED_EDGE('',*,*,#615,.F.);
#889=ORIENTED_EDGE('',*,*,#668,.T.);
#890=ORIENTED_EDGE('',*,*,#648,.T.);
#891=ORIENTED_EDGE('',*,*,#668,.F.);
#892=ORIENTED_EDGE('',*,*,#616,.F.);
#893=ORIENTED_EDGE('',*,*,#669,.T.);
#894=ORIENTED_EDGE('',*,*,#649,.T.);
#895=ORIENTED_EDGE('',*,*,#669,.F.);
#896=ORIENTED_EDGE('',*,*,#617,.F.);
#897=ORIENTED_EDGE('',*,*,#670,.T.);
#898=ORIENTED_EDGE('',*,*,#650,.T.);
#899=ORIENTED_EDGE('',*,*,#670,.F.);
#900=ORIENTED_EDGE('',*,*,#618,.F.);
#901=ORIENTED_EDGE('',*,*,#671,.T.);
#902=ORIENTED_EDGE('',*,*,#651,.T.);
#903=ORIENTED_EDGE('',*,*,#671,.F.);
#904=ORIENTED_EDGE('',*,*,#619,.F.);
#905=ORIENTED_EDGE('',*,*,#672,.T.);
#906=ORIENTED_EDGE('',*,*,#652,.T.);
#907=ORIENTED_EDGE('',*,*,#672,.F.);
#908=ORIENTED_EDGE('',*,*,#620,.F.);
#909=ORIENTED_EDGE('',*,*,#673,.T.);
#910=ORIENTED_EDGE('',*,*,#653,.T.);
#911=ORIENTED_EDGE('',*,*,#673,.F.);
#912=ORIENTED_EDGE('',*,*,#621,.F.);
#913=ORIENTED_EDGE('',*,*,#674,.T.);
#914=ORIENTED_EDGE('',*,*,#654,.T.);
#915=ORIENTED_EDGE('',*,*,#674,.F.);
#916=ORIENTED_EDGE('',*,*,#550,.T.);
#917=ORIENTED_EDGE('',*,*,#634,.F.);
#918=ORIENTED_EDGE('',*,*,#675,.T.);
#919=ORIENTED_EDGE('',*,*,#589,.F.);
#920=ORIENTED_EDGE('',*,*,#548,.T.);
#921=ORIENTED_EDGE('',*,*,#601,.F.);
#922=ORIENTED_EDGE('',*,*,#676,.F.);
#923=ORIENTED_EDGE('',*,*,#622,.F.);
#924=ORIENTED_EDGE('',*,*,#623,.T.);
#925=ORIENTED_EDGE('',*,*,#676,.T.);
#926=ORIENTED_EDGE('',*,*,#600,.F.);
#927=ORIENTED_EDGE('',*,*,#677,.F.);
#928=ORIENTED_EDGE('',*,*,#624,.F.);
#929=ORIENTED_EDGE('',*,*,#677,.T.);
#930=ORIENTED_EDGE('',*,*,#599,.F.);
#931=ORIENTED_EDGE('',*,*,#678,.F.);
#932=ORIENTED_EDGE('',*,*,#625,.F.);
#933=ORIENTED_EDGE('',*,*,#678,.T.);
#934=ORIENTED_EDGE('',*,*,#598,.F.);
#935=ORIENTED_EDGE('',*,*,#679,.F.);
#936=ORIENTED_EDGE('',*,*,#626,.F.);
#937=ORIENTED_EDGE('',*,*,#679,.T.);
#938=ORIENTED_EDGE('',*,*,#597,.F.);
#939=ORIENTED_EDGE('',*,*,#680,.F.);
#940=ORIENTED_EDGE('',*,*,#627,.F.);
#941=ORIENTED_EDGE('',*,*,#680,.T.);
#942=ORIENTED_EDGE('',*,*,#596,.F.);
#943=ORIENTED_EDGE('',*,*,#681,.F.);
#944=ORIENTED_EDGE('',*,*,#628,.T.);
#945=ORIENTED_EDGE('',*,*,#681,.T.);
#946=ORIENTED_EDGE('',*,*,#595,.F.);
#947=ORIENTED_EDGE('',*,*,#682,.F.);
#948=ORIENTED_EDGE('',*,*,#572,.T.);
#949=ORIENTED_EDGE('',*,*,#629,.F.);
#950=ORIENTED_EDGE('',*,*,#682,.T.);
#951=ORIENTED_EDGE('',*,*,#594,.F.);
#952=ORIENTED_EDGE('',*,*,#570,.T.);
#953=ORIENTED_EDGE('',*,*,#593,.F.);
#954=ORIENTED_EDGE('',*,*,#683,.F.);
#955=ORIENTED_EDGE('',*,*,#630,.F.);
#956=ORIENTED_EDGE('',*,*,#631,.T.);
#957=ORIENTED_EDGE('',*,*,#683,.T.);
#958=ORIENTED_EDGE('',*,*,#592,.F.);
#959=ORIENTED_EDGE('',*,*,#684,.F.);
#960=ORIENTED_EDGE('',*,*,#632,.T.);
#961=ORIENTED_EDGE('',*,*,#684,.T.);
#962=ORIENTED_EDGE('',*,*,#591,.F.);
#963=ORIENTED_EDGE('',*,*,#685,.F.);
#964=ORIENTED_EDGE('',*,*,#633,.T.);
#965=ORIENTED_EDGE('',*,*,#685,.T.);
#966=ORIENTED_EDGE('',*,*,#590,.F.);
#967=ORIENTED_EDGE('',*,*,#675,.F.);
#968=PLANE('',#1053);
#969=PLANE('',#1054);
#970=PLANE('',#1058);
#971=PLANE('',#1059);
#972=PLANE('',#1060);
#973=PLANE('',#1064);
#974=PLANE('',#1065);
#975=PLANE('',#1069);
#976=PLANE('',#1070);
#977=PLANE('',#1071);
#978=PLANE('',#1075);
#979=PLANE('',#1100);
#980=PLANE('',#1145);
#981=PLANE('',#1146);
#982=PLANE('',#1148);
#983=PLANE('',#1149);
#984=PLANE('',#1150);
#985=PLANE('',#1151);
#986=PLANE('',#1153);
#987=PLANE('',#1154);
#988=PLANE('',#1156);
#989=ADVANCED_FACE('',(#143),#968,.F.);
#990=ADVANCED_FACE('',(#144),#969,.F.);
#991=ADVANCED_FACE('',(#145),#115,.F.);
#992=ADVANCED_FACE('',(#146),#970,.F.);
#993=ADVANCED_FACE('',(#147),#971,.F.);
#994=ADVANCED_FACE('',(#148),#972,.F.);
#995=ADVANCED_FACE('',(#149),#116,.F.);
#996=ADVANCED_FACE('',(#150),#973,.F.);
#997=ADVANCED_FACE('',(#151),#974,.F.);
#998=ADVANCED_FACE('',(#152),#117,.F.);
#999=ADVANCED_FACE('',(#153),#975,.F.);
#1000=ADVANCED_FACE('',(#154),#976,.F.);
#1001=ADVANCED_FACE('',(#155),#977,.F.);
#1002=ADVANCED_FACE('',(#156),#118,.F.);
#1003=ADVANCED_FACE('',(#157,#19,#20,#21,#22,#23,#24,#25,#26,#27,#28,#29,
#30,#31,#32,#33,#34,#35,#36,#37,#38),#978,.T.);
#1004=ADVANCED_FACE('',(#158,#39,#40,#41,#42,#43,#44,#45,#46,#47,#48,#49,
#50,#51,#52,#53,#54,#55,#56,#57,#58),#979,.F.);
#1005=ADVANCED_FACE('',(#159),#119,.F.);
#1006=ADVANCED_FACE('',(#160),#120,.F.);
#1007=ADVANCED_FACE('',(#161),#121,.F.);
#1008=ADVANCED_FACE('',(#162),#122,.F.);
#1009=ADVANCED_FACE('',(#163),#123,.F.);
#1010=ADVANCED_FACE('',(#164),#124,.F.);
#1011=ADVANCED_FACE('',(#165),#125,.F.);
#1012=ADVANCED_FACE('',(#166),#126,.F.);
#1013=ADVANCED_FACE('',(#167),#127,.F.);
#1014=ADVANCED_FACE('',(#168),#128,.F.);
#1015=ADVANCED_FACE('',(#169),#129,.F.);
#1016=ADVANCED_FACE('',(#170),#130,.F.);
#1017=ADVANCED_FACE('',(#171),#131,.F.);
#1018=ADVANCED_FACE('',(#172),#132,.F.);
#1019=ADVANCED_FACE('',(#173),#133,.F.);
#1020=ADVANCED_FACE('',(#174),#134,.F.);
#1021=ADVANCED_FACE('',(#175),#135,.F.);
#1022=ADVANCED_FACE('',(#176),#136,.F.);
#1023=ADVANCED_FACE('',(#177),#137,.F.);
#1024=ADVANCED_FACE('',(#178),#138,.F.);
#1025=ADVANCED_FACE('',(#179),#980,.T.);
#1026=ADVANCED_FACE('',(#180),#981,.T.);
#1027=ADVANCED_FACE('',(#181),#139,.T.);
#1028=ADVANCED_FACE('',(#182),#982,.T.);
#1029=ADVANCED_FACE('',(#183),#983,.T.);
#1030=ADVANCED_FACE('',(#184),#984,.T.);
#1031=ADVANCED_FACE('',(#185),#985,.T.);
#1032=ADVANCED_FACE('',(#186),#140,.T.);
#1033=ADVANCED_FACE('',(#187),#986,.T.);
#1034=ADVANCED_FACE('',(#188),#987,.T.);
#1035=ADVANCED_FACE('',(#189),#141,.T.);
#1036=ADVANCED_FACE('',(#190),#988,.T.);
#1037=ADVANCED_FACE('',(#191),#142,.T.);
#1038=CLOSED_SHELL('',(#989,#990,#991,#992,#993,#994,#995,#996,#997,#998,
#999,#1000,#1001,#1002,#1003,#1004,#1005,#1006,#1007,#1008,#1009,#1010,
#1011,#1012,#1013,#1014,#1015,#1016,#1017,#1018,#1019,#1020,#1021,#1022,
#1023,#1024,#1025,#1026,#1027,#1028,#1029,#1030,#1031,#1032,#1033,#1034,
#1035,#1036,#1037));
#1039=DERIVED_UNIT_ELEMENT(#1041,1.);
#1040=DERIVED_UNIT_ELEMENT(#1754,-3.);
#1041=(
MASS_UNIT()
NAMED_UNIT(*)
SI_UNIT(.KILO.,.GRAM.)
);
#1042=DERIVED_UNIT((#1039,#1040));
#1043=MEASURE_REPRESENTATION_ITEM('density measure',
POSITIVE_RATIO_MEASURE(7850.),#1042);
#1044=PROPERTY_DEFINITION_REPRESENTATION(#1049,#1046);
#1045=PROPERTY_DEFINITION_REPRESENTATION(#1050,#1047);
#1046=REPRESENTATION('material name',(#1048),#1751);
#1047=REPRESENTATION('density',(#1043),#1751);
#1048=DESCRIPTIVE_REPRESENTATION_ITEM('Steel','Steel');
#1049=PROPERTY_DEFINITION('material property','material name',#1766);
#1050=PROPERTY_DEFINITION('material property','density of part',#1766);
#1051=AXIS2_PLACEMENT_3D('',#1460,#1159,#1160);
#1052=AXIS2_PLACEMENT_3D('',#1461,#1161,#1162);
#1053=AXIS2_PLACEMENT_3D('',#1462,#1163,#1164);
#1054=AXIS2_PLACEMENT_3D('',#1471,#1169,#1170);
#1055=AXIS2_PLACEMENT_3D('',#1480,#1175,#1176);
#1056=AXIS2_PLACEMENT_3D('',#1482,#1177,#1178);
#1057=AXIS2_PLACEMENT_3D('',#1484,#1179,#1180);
#1058=AXIS2_PLACEMENT_3D('',#1486,#1182,#1183);
#1059=AXIS2_PLACEMENT_3D('',#1492,#1187,#1188);
#1060=AXIS2_PLACEMENT_3D('',#1498,#1192,#1193);
#1061=AXIS2_PLACEMENT_3D('',#1504,#1197,#1198);
#1062=AXIS2_PLACEMENT_3D('',#1505,#1199,#1200);
#1063=AXIS2_PLACEMENT_3D('',#1506,#1201,#1202);
#1064=AXIS2_PLACEMENT_3D('',#1507,#1203,#1204);
#1065=AXIS2_PLACEMENT_3D('',#1516,#1209,#1210);
#1066=AXIS2_PLACEMENT_3D('',#1525,#1215,#1216);
#1067=AXIS2_PLACEMENT_3D('',#1527,#1217,#1218);
#1068=AXIS2_PLACEMENT_3D('',#1529,#1219,#1220);
#1069=AXIS2_PLACEMENT_3D('',#1531,#1222,#1223);
#1070=AXIS2_PLACEMENT_3D('',#1537,#1227,#1228);
#1071=AXIS2_PLACEMENT_3D('',#1543,#1232,#1233);
#1072=AXIS2_PLACEMENT_3D('',#1549,#1237,#1238);
#1073=AXIS2_PLACEMENT_3D('',#1550,#1239,#1240);
#1074=AXIS2_PLACEMENT_3D('',#1551,#1241,#1242);
#1075=AXIS2_PLACEMENT_3D('',#1552,#1243,#1244);
#1076=AXIS2_PLACEMENT_3D('',#1556,#1246,#1247);
#1077=AXIS2_PLACEMENT_3D('',#1560,#1249,#1250);
#1078=AXIS2_PLACEMENT_3D('',#1565,#1253,#1254);
#1079=AXIS2_PLACEMENT_3D('',#1575,#1259,#1260);
#1080=AXIS2_PLACEMENT_3D('',#1578,#1262,#1263);
#1081=AXIS2_PLACEMENT_3D('',#1580,#1264,#1265);
#1082=AXIS2_PLACEMENT_3D('',#1582,#1266,#1267);
#1083=AXIS2_PLACEMENT_3D('',#1584,#1268,#1269);
#1084=AXIS2_PLACEMENT_3D('',#1586,#1270,#1271);
#1085=AXIS2_PLACEMENT_3D('',#1588,#1272,#1273);
#1086=AXIS2_PLACEMENT_3D('',#1590,#1274,#1275);
#1087=AXIS2_PLACEMENT_3D('',#1592,#1276,#1277);
#1088=AXIS2_PLACEMENT_3D('',#1594,#1278,#1279);
#1089=AXIS2_PLACEMENT_3D('',#1596,#1280,#1281);
#1090=AXIS2_PLACEMENT_3D('',#1598,#1282,#1283);
#1091=AXIS2_PLACEMENT_3D('',#1600,#1284,#1285);
#1092=AXIS2_PLACEMENT_3D('',#1602,#1286,#1287);
#1093=AXIS2_PLACEMENT_3D('',#1604,#1288,#1289);
#1094=AXIS2_PLACEMENT_3D('',#1606,#1290,#1291);
#1095=AXIS2_PLACEMENT_3D('',#1608,#1292,#1293);
#1096=AXIS2_PLACEMENT_3D('',#1610,#1294,#1295);
#1097=AXIS2_PLACEMENT_3D('',#1612,#1296,#1297);
#1098=AXIS2_PLACEMENT_3D('',#1614,#1298,#1299);
#1099=AXIS2_PLACEMENT_3D('',#1616,#1300,#1301);
#1100=AXIS2_PLACEMENT_3D('',#1617,#1302,#1303);
#1101=AXIS2_PLACEMENT_3D('',#1621,#1305,#1306);
#1102=AXIS2_PLACEMENT_3D('',#1631,#1311,#1312);
#1103=AXIS2_PLACEMENT_3D('',#1636,#1315,#1316);
#1104=AXIS2_PLACEMENT_3D('',#1640,#1318,#1319);
#1105=AXIS2_PLACEMENT_3D('',#1643,#1321,#1322);
#1106=AXIS2_PLACEMENT_3D('',#1645,#1323,#1324);
#1107=AXIS2_PLACEMENT_3D('',#1647,#1325,#1326);
#1108=AXIS2_PLACEMENT_3D('',#1649,#1327,#1328);
#1109=AXIS2_PLACEMENT_3D('',#1651,#1329,#1330);
#1110=AXIS2_PLACEMENT_3D('',#1653,#1331,#1332);
#1111=AXIS2_PLACEMENT_3D('',#1655,#1333,#1334);
#1112=AXIS2_PLACEMENT_3D('',#1657,#1335,#1336);
#1113=AXIS2_PLACEMENT_3D('',#1659,#1337,#1338);
#1114=AXIS2_PLACEMENT_3D('',#1661,#1339,#1340);
#1115=AXIS2_PLACEMENT_3D('',#1663,#1341,#1342);
#1116=AXIS2_PLACEMENT_3D('',#1665,#1343,#1344);
#1117=AXIS2_PLACEMENT_3D('',#1667,#1345,#1346);
#1118=AXIS2_PLACEMENT_3D('',#1669,#1347,#1348);
#1119=AXIS2_PLACEMENT_3D('',#1671,#1349,#1350);
#1120=AXIS2_PLACEMENT_3D('',#1673,#1351,#1352);
#1121=AXIS2_PLACEMENT_3D('',#1675,#1353,#1354);
#1122=AXIS2_PLACEMENT_3D('',#1677,#1355,#1356);
#1123=AXIS2_PLACEMENT_3D('',#1679,#1357,#1358);
#1124=AXIS2_PLACEMENT_3D('',#1681,#1359,#1360);
#1125=AXIS2_PLACEMENT_3D('',#1682,#1361,#1362);
#1126=AXIS2_PLACEMENT_3D('',#1684,#1364,#1365);
#1127=AXIS2_PLACEMENT_3D('',#1686,#1367,#1368);
#1128=AXIS2_PLACEMENT_3D('',#1688,#1370,#1371);
#1129=AXIS2_PLACEMENT_3D('',#1690,#1373,#1374);
#1130=AXIS2_PLACEMENT_3D('',#1692,#1376,#1377);
#1131=AXIS2_PLACEMENT_3D('',#1694,#1379,#1380);
#1132=AXIS2_PLACEMENT_3D('',#1696,#1382,#1383);
#1133=AXIS2_PLACEMENT_3D('',#1698,#1385,#1386);
#1134=AXIS2_PLACEMENT_3D('',#1700,#1388,#1389);
#1135=AXIS2_PLACEMENT_3D('',#1702,#1391,#1392);
#1136=AXIS2_PLACEMENT_3D('',#1704,#1394,#1395);
#1137=AXIS2_PLACEMENT_3D('',#1706,#1397,#1398);
#1138=AXIS2_PLACEMENT_3D('',#1708,#1400,#1401);
#1139=AXIS2_PLACEMENT_3D('',#1710,#1403,#1404);
#1140=AXIS2_PLACEMENT_3D('',#1712,#1406,#1407);
#1141=AXIS2_PLACEMENT_3D('',#1714,#1409,#1410);
#1142=AXIS2_PLACEMENT_3D('',#1716,#1412,#1413);
#1143=AXIS2_PLACEMENT_3D('',#1718,#1415,#1416);
#1144=AXIS2_PLACEMENT_3D('',#1720,#1418,#1419);
#1145=AXIS2_PLACEMENT_3D('',#1722,#1421,#1422);
#1146=AXIS2_PLACEMENT_3D('',#1724,#1424,#1425);
#1147=AXIS2_PLACEMENT_3D('',#1726,#1427,#1428);
#1148=AXIS2_PLACEMENT_3D('',#1728,#1430,#1431);
#1149=AXIS2_PLACEMENT_3D('',#1730,#1433,#1434);
#1150=AXIS2_PLACEMENT_3D('',#1732,#1436,#1437);
#1151=AXIS2_PLACEMENT_3D('',#1734,#1439,#1440);
#1152=AXIS2_PLACEMENT_3D('',#1736,#1442,#1443);
#1153=AXIS2_PLACEMENT_3D('',#1738,#1445,#1446);
#1154=AXIS2_PLACEMENT_3D('',#1739,#1447,#1448);
#1155=AXIS2_PLACEMENT_3D('',#1741,#1450,#1451);
#1156=AXIS2_PLACEMENT_3D('',#1743,#1453,#1454);
#1157=AXIS2_PLACEMENT_3D('',#1745,#1456,#1457);
#1158=AXIS2_PLACEMENT_3D('',#1746,#1458,#1459);
#1159=DIRECTION('axis',(0.,0.,1.));
#1160=DIRECTION('refdir',(1.,0.,0.));
#1161=DIRECTION('axis',(0.,0.,1.));
#1162=DIRECTION('refdir',(1.,0.,0.));
#1163=DIRECTION('center_axis',(0.870080676273929,0.49290933930562,0.));
#1164=DIRECTION('ref_axis',(0.49290933930562,-0.870080676273928,0.));
#1165=DIRECTION('',(-0.49290933930562,0.870080676273928,0.));
#1166=DIRECTION('',(0.,0.,-1.));
#1167=DIRECTION('',(0.49290933930562,-0.870080676273928,0.));
#1168=DIRECTION('',(0.,0.,1.));
#1169=DIRECTION('center_axis',(-0.734069530971023,0.679074313827273,0.));
#1170=DIRECTION('ref_axis',(0.679074313827273,0.734069530971023,0.));
#1171=DIRECTION('',(-0.679074313827273,-0.734069530971023,0.));
#1172=DIRECTION('',(0.,0.,-1.));
#1173=DIRECTION('',(0.679074313827273,0.734069530971023,0.));
#1174=DIRECTION('',(0.,0.,-1.));
#1175=DIRECTION('center_axis',(0.,0.,-1.));
#1176=DIRECTION('ref_axis',(-0.734069530971022,0.679074313827275,0.));
#1177=DIRECTION('center_axis',(0.,0.,1.));
#1178=DIRECTION('ref_axis',(-0.734069530971022,0.679074313827275,0.));
#1179=DIRECTION('center_axis',(0.,0.,-1.));
#1180=DIRECTION('ref_axis',(-0.734069530971022,0.679074313827275,0.));
#1181=DIRECTION('',(0.,0.,-1.));
#1182=DIRECTION('center_axis',(-0.706961825817089,-0.707251706846557,0.));
#1183=DIRECTION('ref_axis',(-0.707251706846557,0.706961825817089,0.));
#1184=DIRECTION('',(0.707251706846557,-0.706961825817089,0.));
#1185=DIRECTION('',(-0.707251706846557,0.706961825817089,0.));
#1186=DIRECTION('',(0.,0.,-1.));
#1187=DIRECTION('center_axis',(-0.00076836751205911,-0.99999970480564,0.));
#1188=DIRECTION('ref_axis',(-0.99999970480564,0.00076836751205911,0.));
#1189=DIRECTION('',(0.99999970480564,-0.00076836751205911,0.));
#1190=DIRECTION('',(-0.99999970480564,0.00076836751205911,0.));
#1191=DIRECTION('',(0.,0.,-1.));
#1192=DIRECTION('center_axis',(0.66388422833051,-0.74783536381613,0.));
#1193=DIRECTION('ref_axis',(-0.74783536381613,-0.66388422833051,0.));
#1194=DIRECTION('',(0.74783536381613,0.66388422833051,0.));
#1195=DIRECTION('',(-0.74783536381613,-0.66388422833051,0.));
#1196=DIRECTION('',(0.,0.,-1.));
#1197=DIRECTION('center_axis',(0.,0.,-1.));
#1198=DIRECTION('ref_axis',(0.663884228330511,-0.747835363816129,0.));
#1199=DIRECTION('center_axis',(0.,0.,1.));
#1200=DIRECTION('ref_axis',(0.663884228330511,-0.747835363816129,0.));
#1201=DIRECTION('center_axis',(0.,0.,-1.));
#1202=DIRECTION('ref_axis',(0.663884228330511,-0.747835363816129,0.));
#1203=DIRECTION('center_axis',(-0.734069530971023,-0.679074313827273,0.));
#1204=DIRECTION('ref_axis',(-0.679074313827273,0.734069530971023,0.));
#1205=DIRECTION('',(0.679074313827273,-0.734069530971023,0.));
#1206=DIRECTION('',(0.,0.,-1.));
#1207=DIRECTION('',(-0.679074313827273,0.734069530971023,0.));
#1208=DIRECTION('',(0.,0.,1.));
#1209=DIRECTION('center_axis',(0.870080676273926,-0.492909339305624,0.));
#1210=DIRECTION('ref_axis',(-0.492909339305624,-0.870080676273926,0.));
#1211=DIRECTION('',(0.492909339305624,0.870080676273926,0.));
#1212=DIRECTION('',(0.,0.,-1.));
#1213=DIRECTION('',(-0.492909339305624,-0.870080676273926,0.));
#1214=DIRECTION('',(0.,0.,-1.));
#1215=DIRECTION('center_axis',(0.,0.,-1.));
#1216=DIRECTION('ref_axis',(0.870080676273928,-0.492909339305622,0.));
#1217=DIRECTION('center_axis',(0.,0.,1.));
#1218=DIRECTION('ref_axis',(0.870080676273928,-0.492909339305622,0.));
#1219=DIRECTION('center_axis',(0.,0.,-1.));
#1220=DIRECTION('ref_axis',(0.870080676273928,-0.492909339305622,0.));
#1221=DIRECTION('',(0.,0.,-1.));
#1222=DIRECTION('center_axis',(0.66388422833051,0.74783536381613,0.));
#1223=DIRECTION('ref_axis',(0.74783536381613,-0.66388422833051,0.));
#1224=DIRECTION('',(-0.74783536381613,0.66388422833051,0.));
#1225=DIRECTION('',(0.74783536381613,-0.66388422833051,0.));
#1226=DIRECTION('',(0.,0.,-1.));
#1227=DIRECTION('center_axis',(-0.000768367512058846,0.99999970480564,0.));
#1228=DIRECTION('ref_axis',(0.99999970480564,0.000768367512058846,0.));
#1229=DIRECTION('',(-0.99999970480564,-0.000768367512058846,0.));
#1230=DIRECTION('',(0.99999970480564,0.000768367512058846,0.));
#1231=DIRECTION('',(0.,0.,-1.));
#1232=DIRECTION('center_axis',(-0.706961825817089,0.707251706846557,0.));
#1233=DIRECTION('ref_axis',(0.707251706846557,0.706961825817089,0.));
#1234=DIRECTION('',(-0.707251706846557,-0.706961825817089,0.));
#1235=DIRECTION('',(0.707251706846557,0.706961825817089,0.));
#1236=DIRECTION('',(0.,0.,-1.));
#1237=DIRECTION('center_axis',(0.,0.,-1.));
#1238=DIRECTION('ref_axis',(-0.542067212696439,0.840335133693406,0.));
#1239=DIRECTION('center_axis',(0.,0.,1.));
#1240=DIRECTION('ref_axis',(-0.542067212696439,0.840335133693406,0.));
#1241=DIRECTION('center_axis',(0.,0.,-1.));
#1242=DIRECTION('ref_axis',(-0.542067212696439,0.840335133693406,0.));
#1243=DIRECTION('center_axis',(0.,0.,1.));
#1244=DIRECTION('ref_axis',(-1.,0.,0.));
#1245=DIRECTION('',(-0.245068924608456,0.969505658669022,0.));
#1246=DIRECTION('center_axis',(0.,0.,1.));
#1247=DIRECTION('ref_axis',(-1.,0.,0.));
#1248=DIRECTION('',(0.,-1.,0.));
#1249=DIRECTION('center_axis',(0.,0.,1.));
#1250=DIRECTION('ref_axis',(-1.,0.,0.));
#1251=DIRECTION('',(0.245068924608456,0.969505658669022,0.));
#1252=DIRECTION('',(0.885860765118658,-0.46395118797497,0.));
#1253=DIRECTION('center_axis',(0.,0.,1.));
#1254=DIRECTION('ref_axis',(0.863278817270579,-0.504727335946757,0.));
#1255=DIRECTION('',(7.15910591933894E-16,1.,0.));
#1256=DIRECTION('',(-0.756468525553471,0.654030098578771,0.));
#1257=DIRECTION('',(0.756468525553471,0.654030098578771,0.));
#1258=DIRECTION('',(-7.15910591933894E-16,1.,0.));
#1259=DIRECTION('center_axis',(0.,0.,1.));
#1260=DIRECTION('ref_axis',(0.980927738420507,0.194372765574888,0.));
#1261=DIRECTION('',(-0.885860765118657,-0.463951187974973,0.));
#1262=DIRECTION('center_axis',(0.,0.,-1.));
#1263=DIRECTION('ref_axis',(-1.,0.,0.));
#1264=DIRECTION('center_axis',(0.,0.,-1.));
#1265=DIRECTION('ref_axis',(-1.,0.,0.));
#1266=DIRECTION('center_axis',(0.,0.,-1.));
#1267=DIRECTION('ref_axis',(-1.,0.,0.));
#1268=DIRECTION('center_axis',(0.,0.,-1.));
#1269=DIRECTION('ref_axis',(-1.,0.,0.));
#1270=DIRECTION('center_axis',(0.,0.,-1.));
#1271=DIRECTION('ref_axis',(-1.,0.,0.));
#1272=DIRECTION('center_axis',(0.,0.,-1.));
#1273=DIRECTION('ref_axis',(-1.,0.,0.));
#1274=DIRECTION('center_axis',(0.,0.,-1.));
#1275=DIRECTION('ref_axis',(-1.,0.,0.));
#1276=DIRECTION('center_axis',(0.,0.,-1.));
#1277=DIRECTION('ref_axis',(-1.,0.,0.));
#1278=DIRECTION('center_axis',(0.,0.,-1.));
#1279=DIRECTION('ref_axis',(-1.,0.,0.));
#1280=DIRECTION('center_axis',(0.,0.,-1.));
#1281=DIRECTION('ref_axis',(-1.,0.,0.));
#1282=DIRECTION('center_axis',(0.,0.,-1.));
#1283=DIRECTION('ref_axis',(-1.,0.,0.));
#1284=DIRECTION('center_axis',(0.,0.,-1.));
#1285=DIRECTION('ref_axis',(-1.,0.,0.));
#1286=DIRECTION('center_axis',(0.,0.,-1.));
#1287=DIRECTION('ref_axis',(-1.,0.,0.));
#1288=DIRECTION('center_axis',(0.,0.,-1.));
#1289=DIRECTION('ref_axis',(-1.,0.,0.));
#1290=DIRECTION('center_axis',(0.,0.,-1.));
#1291=DIRECTION('ref_axis',(-1.,0.,0.));
#1292=DIRECTION('center_axis',(0.,0.,-1.));
#1293=DIRECTION('ref_axis',(-1.,0.,0.));
#1294=DIRECTION('center_axis',(0.,0.,-1.));
#1295=DIRECTION('ref_axis',(-1.,0.,0.));
#1296=DIRECTION('center_axis',(0.,0.,-1.));
#1297=DIRECTION('ref_axis',(-1.,0.,0.));
#1298=DIRECTION('center_axis',(0.,0.,-1.));
#1299=DIRECTION('ref_axis',(-1.,0.,0.));
#1300=DIRECTION('center_axis',(0.,0.,-1.));
#1301=DIRECTION('ref_axis',(-1.,0.,0.));
#1302=DIRECTION('center_axis',(0.,0.,1.));
#1303=DIRECTION('ref_axis',(-1.,0.,0.));
#1304=DIRECTION('',(0.885860765118657,0.463951187974973,0.));
#1305=DIRECTION('center_axis',(0.,0.,1.));
#1306=DIRECTION('ref_axis',(0.980927738420507,0.194372765574888,0.));
#1307=DIRECTION('',(7.15910591933894E-16,-1.,0.));
#1308=DIRECTION('',(-0.756468525553471,-0.654030098578771,0.));
#1309=DIRECTION('',(0.756468525553471,-0.654030098578771,0.));
#1310=DIRECTION('',(-7.15910591933894E-16,-1.,0.));
#1311=DIRECTION('center_axis',(0.,0.,1.));
#1312=DIRECTION('ref_axis',(0.863278817270579,-0.504727335946757,0.));
#1313=DIRECTION('',(-0.885860765118658,0.46395118797497,0.));
#1314=DIRECTION('',(-0.245068924608456,-0.969505658669022,0.));
#1315=DIRECTION('center_axis',(0.,0.,1.));
#1316=DIRECTION('ref_axis',(-1.,0.,0.));
#1317=DIRECTION('',(0.,-1.,0.));
#1318=DIRECTION('center_axis',(0.,0.,1.));
#1319=DIRECTION('ref_axis',(-1.,0.,0.));
#1320=DIRECTION('',(0.245068924608456,-0.969505658669022,0.));
#1321=DIRECTION('center_axis',(0.,0.,-1.));
#1322=DIRECTION('ref_axis',(-1.,0.,0.));
#1323=DIRECTION('center_axis',(0.,0.,-1.));
#1324=DIRECTION('ref_axis',(-1.,0.,0.));
#1325=DIRECTION('center_axis',(0.,0.,-1.));
#1326=DIRECTION('ref_axis',(-1.,0.,0.));
#1327=DIRECTION('center_axis',(0.,0.,-1.));
#1328=DIRECTION('ref_axis',(-1.,0.,0.));
#1329=DIRECTION('center_axis',(0.,0.,-1.));
#1330=DIRECTION('ref_axis',(-1.,0.,0.));
#1331=DIRECTION('center_axis',(0.,0.,-1.));
#1332=DIRECTION('ref_axis',(-1.,0.,0.));
#1333=DIRECTION('center_axis',(0.,0.,-1.));
#1334=DIRECTION('ref_axis',(-1.,0.,0.));
#1335=DIRECTION('center_axis',(0.,0.,-1.));
#1336=DIRECTION('ref_axis',(-1.,0.,0.));
#1337=DIRECTION('center_axis',(0.,0.,-1.));
#1338=DIRECTION('ref_axis',(-1.,0.,0.));
#1339=DIRECTION('center_axis',(0.,0.,-1.));
#1340=DIRECTION('ref_axis',(-1.,0.,0.));
#1341=DIRECTION('center_axis',(0.,0.,-1.));
#1342=DIRECTION('ref_axis',(-1.,0.,0.));
#1343=DIRECTION('center_axis',(0.,0.,-1.));
#1344=DIRECTION('ref_axis',(-1.,0.,0.));
#1345=DIRECTION('center_axis',(0.,0.,-1.));
#1346=DIRECTION('ref_axis',(-1.,0.,0.));
#1347=DIRECTION('center_axis',(0.,0.,-1.));
#1348=DIRECTION('ref_axis',(-1.,0.,0.));
#1349=DIRECTION('center_axis',(0.,0.,-1.));
#1350=DIRECTION('ref_axis',(-1.,0.,0.));
#1351=DIRECTION('center_axis',(0.,0.,-1.));
#1352=DIRECTION('ref_axis',(-1.,0.,0.));
#1353=DIRECTION('center_axis',(0.,0.,-1.));
#1354=DIRECTION('ref_axis',(-1.,0.,0.));
#1355=DIRECTION('center_axis',(0.,0.,-1.));
#1356=DIRECTION('ref_axis',(-1.,0.,0.));
#1357=DIRECTION('center_axis',(0.,0.,-1.));
#1358=DIRECTION('ref_axis',(-1.,0.,0.));
#1359=DIRECTION('center_axis',(0.,0.,-1.));
#1360=DIRECTION('ref_axis',(-1.,0.,0.));
#1361=DIRECTION('center_axis',(0.,0.,1.));
#1362=DIRECTION('ref_axis',(-1.,0.,0.));
#1363=DIRECTION('',(0.,0.,-1.));
#1364=DIRECTION('center_axis',(0.,0.,1.));
#1365=DIRECTION('ref_axis',(-1.,0.,0.));
#1366=DIRECTION('',(0.,0.,-1.));
#1367=DIRECTION('center_axis',(0.,0.,1.));
#1368=DIRECTION('ref_axis',(-1.,0.,0.));
#1369=DIRECTION('',(0.,0.,-1.));
#1370=DIRECTION('center_axis',(0.,0.,1.));
#1371=DIRECTION('ref_axis',(-1.,0.,0.));
#1372=DIRECTION('',(0.,0.,-1.));
#1373=DIRECTION('center_axis',(0.,0.,1.));
#1374=DIRECTION('ref_axis',(-1.,0.,0.));
#1375=DIRECTION('',(0.,0.,-1.));
#1376=DIRECTION('center_axis',(0.,0.,1.));
#1377=DIRECTION('ref_axis',(-1.,0.,0.));
#1378=DIRECTION('',(0.,0.,-1.));
#1379=DIRECTION('center_axis',(0.,0.,1.));
#1380=DIRECTION('ref_axis',(-1.,0.,0.));
#1381=DIRECTION('',(0.,0.,-1.));
#1382=DIRECTION('center_axis',(0.,0.,1.));
#1383=DIRECTION('ref_axis',(-1.,0.,0.));
#1384=DIRECTION('',(0.,0.,-1.));
#1385=DIRECTION('center_axis',(0.,0.,1.));
#1386=DIRECTION('ref_axis',(-1.,0.,0.));
#1387=DIRECTION('',(0.,0.,-1.));
#1388=DIRECTION('center_axis',(0.,0.,1.));
#1389=DIRECTION('ref_axis',(-1.,0.,0.));
#1390=DIRECTION('',(0.,0.,-1.));
#1391=DIRECTION('center_axis',(0.,0.,1.));
#1392=DIRECTION('ref_axis',(-1.,0.,0.));
#1393=DIRECTION('',(0.,0.,-1.));
#1394=DIRECTION('center_axis',(0.,0.,1.));
#1395=DIRECTION('ref_axis',(-1.,0.,0.));
#1396=DIRECTION('',(0.,0.,-1.));
#1397=DIRECTION('center_axis',(0.,0.,1.));
#1398=DIRECTION('ref_axis',(-1.,0.,0.));
#1399=DIRECTION('',(0.,0.,-1.));
#1400=DIRECTION('center_axis',(0.,0.,1.));
#1401=DIRECTION('ref_axis',(-1.,0.,0.));
#1402=DIRECTION('',(0.,0.,-1.));
#1403=DIRECTION('center_axis',(0.,0.,1.));
#1404=DIRECTION('ref_axis',(-1.,0.,0.));
#1405=DIRECTION('',(0.,0.,-1.));
#1406=DIRECTION('center_axis',(0.,0.,1.));
#1407=DIRECTION('ref_axis',(-1.,0.,0.));
#1408=DIRECTION('',(0.,0.,-1.));
#1409=DIRECTION('center_axis',(0.,0.,1.));
#1410=DIRECTION('ref_axis',(-1.,0.,0.));
#1411=DIRECTION('',(0.,0.,-1.));
#1412=DIRECTION('center_axis',(0.,0.,1.));
#1413=DIRECTION('ref_axis',(-1.,0.,0.));
#1414=DIRECTION('',(0.,0.,-1.));
#1415=DIRECTION('center_axis',(0.,0.,1.));
#1416=DIRECTION('ref_axis',(-1.,0.,0.));
#1417=DIRECTION('',(0.,0.,-1.));
#1418=DIRECTION('center_axis',(0.,0.,1.));
#1419=DIRECTION('ref_axis',(-1.,0.,0.));
#1420=DIRECTION('',(0.,0.,-1.));
#1421=DIRECTION('center_axis',(0.969505658669022,0.245068924608456,0.));
#1422=DIRECTION('ref_axis',(-0.245068924608456,0.969505658669022,0.));
#1423=DIRECTION('',(0.,0.,1.));
#1424=DIRECTION('center_axis',(-0.463951187974973,0.885860765118657,0.));
#1425=DIRECTION('ref_axis',(-0.885860765118657,-0.463951187974973,0.));
#1426=DIRECTION('',(0.,0.,1.));
#1427=DIRECTION('center_axis',(0.,0.,1.));
#1428=DIRECTION('ref_axis',(0.980927738420507,0.194372765574888,0.));
#1429=DIRECTION('',(0.,0.,1.));
#1430=DIRECTION('center_axis',(1.,7.15910591933894E-16,0.));
#1431=DIRECTION('ref_axis',(-7.15910591933894E-16,1.,0.));
#1432=DIRECTION('',(0.,0.,1.));
#1433=DIRECTION('center_axis',(0.654030098578771,-0.756468525553471,0.));
#1434=DIRECTION('ref_axis',(0.756468525553471,0.654030098578771,0.));
#1435=DIRECTION('',(0.,0.,1.));
#1436=DIRECTION('center_axis',(0.654030098578771,0.756468525553471,0.));
#1437=DIRECTION('ref_axis',(-0.756468525553471,0.654030098578771,0.));
#1438=DIRECTION('',(0.,0.,1.));
#1439=DIRECTION('center_axis',(1.,-7.15910591933894E-16,0.));
#1440=DIRECTION('ref_axis',(7.15910591933894E-16,1.,0.));
#1441=DIRECTION('',(0.,0.,1.));
#1442=DIRECTION('center_axis',(0.,0.,1.));
#1443=DIRECTION('ref_axis',(0.863278817270579,-0.504727335946757,0.));
#1444=DIRECTION('',(0.,0.,1.));
#1445=DIRECTION('center_axis',(-0.46395118797497,-0.885860765118658,0.));
#1446=DIRECTION('ref_axis',(0.885860765118658,-0.46395118797497,0.));
#1447=DIRECTION('center_axis',(0.969505658669022,-0.245068924608456,0.));
#1448=DIRECTION('ref_axis',(0.245068924608456,0.969505658669022,0.));
#1449=DIRECTION('',(0.,0.,1.));
#1450=DIRECTION('center_axis',(0.,0.,1.));
#1451=DIRECTION('ref_axis',(-1.,0.,0.));
#1452=DIRECTION('',(0.,0.,1.));
#1453=DIRECTION('center_axis',(-1.,0.,0.));
#1454=DIRECTION('ref_axis',(0.,-1.,0.));
#1455=DIRECTION('',(0.,0.,1.));
#1456=DIRECTION('center_axis',(0.,0.,1.));
#1457=DIRECTION('ref_axis',(-1.,0.,0.));
#1458=DIRECTION('',(0.,0.,1.));
#1459=DIRECTION('',(1.,0.,0.));
#1460=CARTESIAN_POINT('',(0.,0.,0.));
#1461=CARTESIAN_POINT('',(0.,0.,0.));
#1462=CARTESIAN_POINT('Origin',(-72.192556055546,68.6613598309591,48.3364240411616));
#1463=CARTESIAN_POINT('',(-71.6993785298202,67.7908057535882,46.3364240411616));
#1464=CARTESIAN_POINT('',(-72.192556055546,68.6613598309591,46.3364240411616));
#1465=CARTESIAN_POINT('',(-61.3090119876921,49.4497916424651,46.3364240411616));
#1466=CARTESIAN_POINT('',(-71.6993785298202,67.7908057535882,48.3364240411616));
#1467=CARTESIAN_POINT('',(-71.6993785298202,67.7908057535882,48.3364240411616));
#1468=CARTESIAN_POINT('',(-72.192556055546,68.6613598309591,48.3364240411616));
#1469=CARTESIAN_POINT('',(-61.3090119876921,49.4497916424651,48.3364240411616));
#1470=CARTESIAN_POINT('',(-72.192556055546,68.6613598309591,47.3364240411616));
#1471=CARTESIAN_POINT('Origin',(-129.667287053062,74.573577439112,48.3364240411616));
#1472=CARTESIAN_POINT('',(-128.857191072253,75.4492795008233,46.3364240411616));
#1473=CARTESIAN_POINT('',(-129.667287053062,74.573577439112,46.3364240411616));
#1474=CARTESIAN_POINT('',(-142.290465347547,60.9281039153517,46.3364240411616));
#1475=CARTESIAN_POINT('',(-128.857191072253,75.4492795008233,48.3364240411616));
#1476=CARTESIAN_POINT('',(-128.857191072253,75.4492795008233,47.3364240411616));
#1477=CARTESIAN_POINT('',(-129.667287053062,74.573577439112,48.3364240411616));
#1478=CARTESIAN_POINT('',(-142.290465347547,60.9281039153517,48.3364240411616));
#1479=CARTESIAN_POINT('',(-129.667287053062,74.573577439112,48.3364240411616));
#1480=CARTESIAN_POINT('Origin',(-103.10360455513,50.0000000000003,48.3364240411616));
#1481=CARTESIAN_POINT('',(-122.719323125495,19.5908973993774,46.3364240411616));
#1482=CARTESIAN_POINT('Origin',(-103.10360455513,50.0000000000003,46.3364240411616));
#1483=CARTESIAN_POINT('',(-122.719323125495,19.5908973993774,48.3364240411616));
#1484=CARTESIAN_POINT('Origin',(-103.10360455513,50.0000000000003,48.3364240411616));
#1485=CARTESIAN_POINT('',(-122.719323125495,19.5908973993774,48.3364240411616));
#1486=CARTESIAN_POINT('Origin',(-109.989686156477,6.8664779225671,48.3364240411616));
#1487=CARTESIAN_POINT('',(-109.989686156477,6.8664779225671,46.3364240411616));
#1488=CARTESIAN_POINT('',(-106.725461770137,3.60359144282589,46.3364240411616));
#1489=CARTESIAN_POINT('',(-109.989686156477,6.8664779225671,48.3364240411616));
#1490=CARTESIAN_POINT('',(-106.725461770137,3.60359144282589,48.3364240411616));
#1491=CARTESIAN_POINT('',(-109.989686156477,6.8664779225671,48.3364240411616));
#1492=CARTESIAN_POINT('Origin',(-97.3353999842965,6.85675477731388,48.3364240411616));
#1493=CARTESIAN_POINT('',(-97.3353999842965,6.85675477731388,46.3364240411616));
#1494=CARTESIAN_POINT('',(-100.5659651814,6.85923703938968,46.3364240411616));
#1495=CARTESIAN_POINT('',(-97.3353999842965,6.85675477731388,48.3364240411616));
#1496=CARTESIAN_POINT('',(-100.5659651814,6.85923703938968,48.3364240411616));
#1497=CARTESIAN_POINT('',(-97.3353999842965,6.85675477731388,48.3364240411616));
#1498=CARTESIAN_POINT('Origin',(-79.1417227093988,23.0080308235608,48.3364240411616));
#1499=CARTESIAN_POINT('',(-79.1417227093988,23.0080308235608,46.3364240411616));
#1500=CARTESIAN_POINT('',(-91.7488616509357,11.8161547601608,46.3364240411616));
#1501=CARTESIAN_POINT('',(-79.1417227093988,23.0080308235608,48.3364240411616));
#1502=CARTESIAN_POINT('',(-91.7488616509357,11.8161547601608,48.3364240411616));
#1503=CARTESIAN_POINT('',(-79.1417227093988,23.0080308235608,48.3364240411616));
#1504=CARTESIAN_POINT('Origin',(-103.10360455513,50.0000000000003,48.3364240411616));
#1505=CARTESIAN_POINT('Origin',(-103.10360455513,50.0000000000003,46.3364240411616));
#1506=CARTESIAN_POINT('Origin',(-103.10360455513,50.0000000000003,48.3364240411616));
#1507=CARTESIAN_POINT('Origin',(-128.857191072253,-75.4492795008233,48.3364240411616));
#1508=CARTESIAN_POINT('',(-129.667287053062,-74.573577439112,46.3364240411616));
#1509=CARTESIAN_POINT('',(-128.857191072253,-75.4492795008233,46.3364240411616));
#1510=CARTESIAN_POINT('',(-141.885417357142,-61.3659549462073,46.3364240411616));
#1511=CARTESIAN_POINT('',(-129.667287053062,-74.573577439112,48.3364240411616));
#1512=CARTESIAN_POINT('',(-129.667287053062,-74.573577439112,48.3364240411616));
#1513=CARTESIAN_POINT('',(-128.857191072253,-75.4492795008233,48.3364240411616));
#1514=CARTESIAN_POINT('',(-141.885417357142,-61.3659549462073,48.3364240411616));
#1515=CARTESIAN_POINT('',(-128.857191072253,-75.4492795008233,47.3364240411616));
#1516=CARTESIAN_POINT('Origin',(-71.6993785298202,-67.7908057535882,48.3364240411616));
#1517=CARTESIAN_POINT('',(-72.1925560555461,-68.6613598309591,46.3364240411616));
#1518=CARTESIAN_POINT('',(-71.6993785298202,-67.7908057535882,46.3364240411616));
#1519=CARTESIAN_POINT('',(-61.0624232248292,-49.0145146037798,46.3364240411616));
#1520=CARTESIAN_POINT('',(-72.1925560555461,-68.6613598309591,48.3364240411616));
#1521=CARTESIAN_POINT('',(-72.1925560555461,-68.6613598309591,47.3364240411616));
#1522=CARTESIAN_POINT('',(-71.6993785298202,-67.7908057535882,48.3364240411616));
#1523=CARTESIAN_POINT('',(-61.0624232248292,-49.0145146037798,48.3364240411616));
#1524=CARTESIAN_POINT('',(-71.6993785298202,-67.7908057535882,48.3364240411616));
#1525=CARTESIAN_POINT('Origin',(-103.10360455513,-50.0000000000003,48.3364240411616));
#1526=CARTESIAN_POINT('',(-79.1417227093988,-23.0080308235608,46.3364240411616));
#1527=CARTESIAN_POINT('Origin',(-103.10360455513,-50.0000000000003,46.3364240411616));
#1528=CARTESIAN_POINT('',(-79.1417227093988,-23.0080308235608,48.3364240411616));
#1529=CARTESIAN_POINT('Origin',(-103.10360455513,-50.0000000000003,48.3364240411616));
#1530=CARTESIAN_POINT('',(-79.1417227093988,-23.0080308235608,48.3364240411616));
#1531=CARTESIAN_POINT('Origin',(-97.3353999842965,-6.85675477731389,48.3364240411616));
#1532=CARTESIAN_POINT('',(-97.3353999842965,-6.85675477731389,46.3364240411616));
#1533=CARTESIAN_POINT('',(-100.845700288385,-3.74051673703734,46.3364240411616));
#1534=CARTESIAN_POINT('',(-97.3353999842965,-6.85675477731389,48.3364240411616));
#1535=CARTESIAN_POINT('',(-100.845700288385,-3.74051673703734,48.3364240411616));
#1536=CARTESIAN_POINT('',(-97.3353999842965,-6.85675477731389,48.3364240411616));
#1537=CARTESIAN_POINT('Origin',(-109.989686156477,-6.86647792256711,48.3364240411616));
#1538=CARTESIAN_POINT('',(-109.989686156477,-6.86647792256711,46.3364240411616));
#1539=CARTESIAN_POINT('',(-106.89310826749,-6.86409861201629,46.3364240411616));
#1540=CARTESIAN_POINT('',(-109.989686156477,-6.86647792256711,48.3364240411616));
#1541=CARTESIAN_POINT('',(-106.89310826749,-6.86409861201629,48.3364240411616));
#1542=CARTESIAN_POINT('',(-109.989686156477,-6.86647792256711,48.3364240411616));
#1543=CARTESIAN_POINT('Origin',(-122.719323125495,-19.5908973993774,48.3364240411616));
#1544=CARTESIAN_POINT('',(-122.719323125495,-19.5908973993774,46.3364240411616));
#1545=CARTESIAN_POINT('',(-113.090280254646,-9.96580118123104,46.3364240411616));
#1546=CARTESIAN_POINT('',(-122.719323125495,-19.5908973993774,48.3364240411616));
#1547=CARTESIAN_POINT('',(-113.090280254646,-9.96580118123104,48.3364240411616));
#1548=CARTESIAN_POINT('',(-122.719323125495,-19.5908973993774,48.3364240411616));
#1549=CARTESIAN_POINT('Origin',(-103.10360455513,-50.0000000000003,48.3364240411616));
#1550=CARTESIAN_POINT('Origin',(-103.10360455513,-50.0000000000003,46.3364240411616));
#1551=CARTESIAN_POINT('Origin',(-103.10360455513,-50.0000000000003,48.3364240411616));
#1552=CARTESIAN_POINT('Origin',(-103.801802702248,0.,48.3364240411616));
#1553=CARTESIAN_POINT('',(-131.961253432914,87.7291147689228,48.3364240411616));
#1554=CARTESIAN_POINT('',(-134.50825848364,97.805201785188,48.3364240411616));
#1555=CARTESIAN_POINT('',(-150.60360455513,50.0000000000003,48.3364240411616));
#1556=CARTESIAN_POINT('Origin',(-103.10360455513,50.0000000000003,48.3364240411616));
#1557=CARTESIAN_POINT('',(-150.60360455513,-50.0000000000003,48.3364240411616));
#1558=CARTESIAN_POINT('',(-150.60360455513,50.0000000000003,48.3364240411616));
#1559=CARTESIAN_POINT('',(-131.961253432914,-87.7291147689228,48.3364240411616));
#1560=CARTESIAN_POINT('Origin',(-103.10360455513,-50.0000000000003,48.3364240411616));
#1561=CARTESIAN_POINT('',(-128.563627690366,-74.2879271981064,48.3364240411616));
#1562=CARTESIAN_POINT('',(-62.5295001434128,-73.7221847894979,48.3364240411616));
#1563=CARTESIAN_POINT('',(-62.5295001434128,-73.7221847894979,48.3364240411616));
#1564=CARTESIAN_POINT('',(-57.0000008493662,-59.13551998202,48.3364240411616));
#1565=CARTESIAN_POINT('Origin',(-103.10360455513,-50.0000000000003,48.3364240411616));
#1566=CARTESIAN_POINT('',(-57.0000008493662,-9.51041708748772,48.3364240411616));
#1567=CARTESIAN_POINT('',(-57.0000008493662,-9.51041708748772,48.3364240411616));
#1568=CARTESIAN_POINT('',(-68.000001013279,0.,48.3364240411616));
#1569=CARTESIAN_POINT('',(-68.000001013279,0.,48.3364240411616));
#1570=CARTESIAN_POINT('',(-57.0000008493662,9.51041708748772,48.3364240411616));
#1571=CARTESIAN_POINT('',(-57.0000008493662,9.51041708748772,48.3364240411616));
#1572=CARTESIAN_POINT('',(-57.0000008493662,59.13551998202,48.3364240411616));
#1573=CARTESIAN_POINT('',(-57.0000008493662,59.13551998202,48.3364240411616));
#1574=CARTESIAN_POINT('',(-62.5295001434128,73.7221847894979,48.3364240411616));
#1575=CARTESIAN_POINT('Origin',(-103.10360455513,50.0000000000003,48.3364240411616));
#1576=CARTESIAN_POINT('',(-73.0924043938137,68.1900829418865,48.3364240411616));
#1577=CARTESIAN_POINT('',(-62.2245437221629,65.6900207269704,48.3364240411616));
#1578=CARTESIAN_POINT('Origin',(-65.22454372217,65.6900207269704,48.3364240411616));
#1579=CARTESIAN_POINT('',(-127.000001952052,9.00000013411046,48.3364240411616));
#1580=CARTESIAN_POINT('Origin',(-131.000001952052,9.00000013411046,48.3364240411616));
#1581=CARTESIAN_POINT('',(-67.0000019520522,9.00000013411046,48.3364240411616));
#1582=CARTESIAN_POINT('Origin',(-71.0000019520522,9.00000013411046,48.3364240411616));
#1583=CARTESIAN_POINT('',(-85.66358382816,12.1209391670404,48.3364240411616));
#1584=CARTESIAN_POINT('Origin',(-87.41358382816,12.1209391670404,48.3364240411616));
#1585=CARTESIAN_POINT('',(-62.2245437221626,-34.3099792730304,48.3364240411616));
#1586=CARTESIAN_POINT('Origin',(-65.22454372217,-34.3099792730304,48.3364240411616));
#1587=CARTESIAN_POINT('',(-117.0436252821,-12.1209391670404,48.3364240411616));
#1588=CARTESIAN_POINT('Origin',(-118.7936252821,-12.1209391670404,48.3364240411616));
#1589=CARTESIAN_POINT('',(-137.982665388087,-34.3099792730304,48.3364240411616));
#1590=CARTESIAN_POINT('Origin',(-140.98266538809,-34.3099792730304,48.3364240411616));
#1591=CARTESIAN_POINT('',(-140.900002130866,20.0000002980232,48.3364240411616));
#1592=CARTESIAN_POINT('Origin',(-143.000002130866,20.0000002980232,48.3364240411616));
#1593=CARTESIAN_POINT('',(-62.2245437221676,34.3099792730304,48.3364240411616));
#1594=CARTESIAN_POINT('Origin',(-65.22454372217,34.3099792730304,48.3364240411616));
#1595=CARTESIAN_POINT('',(-117.0436252821,12.1209391670404,48.3364240411616));
#1596=CARTESIAN_POINT('Origin',(-118.7936252821,12.1209391670404,48.3364240411616));
#1597=CARTESIAN_POINT('',(-61.9000009536743,-22.0000003278255,48.3364240411616));
#1598=CARTESIAN_POINT('Origin',(-64.0000009536743,-22.0000003278255,48.3364240411616));
#1599=CARTESIAN_POINT('',(-137.982665388083,-65.6900207269704,48.3364240411616));
#1600=CARTESIAN_POINT('Origin',(-140.98266538809,-65.6900207269704,48.3364240411616));
#1601=CARTESIAN_POINT('',(-127.000001952052,-8.99999986588954,48.3364240411616));
#1602=CARTESIAN_POINT('Origin',(-131.000001952052,-8.99999986588954,48.3364240411616));
#1603=CARTESIAN_POINT('',(-108.779585672483,0.,48.3364240411616));
#1604=CARTESIAN_POINT('Origin',(-113.779585672483,0.,48.3364240411616));
#1605=CARTESIAN_POINT('',(-137.982665388088,65.6900207269704,48.3364240411616));
#1606=CARTESIAN_POINT('Origin',(-140.98266538809,65.6900207269704,48.3364240411616));
#1607=CARTESIAN_POINT('',(-85.66358382816,-12.1209391670404,48.3364240411616));
#1608=CARTESIAN_POINT('Origin',(-87.41358382816,-12.1209391670404,48.3364240411616));
#1609=CARTESIAN_POINT('',(-140.900002130866,-20.0000002980232,48.3364240411616));
#1610=CARTESIAN_POINT('Origin',(-143.000002130866,-20.0000002980232,48.3364240411616));
#1611=CARTESIAN_POINT('',(-62.2245437221679,-65.6900207269704,48.3364240411616));
#1612=CARTESIAN_POINT('Origin',(-65.22454372217,-65.6900207269704,48.3364240411616));
#1613=CARTESIAN_POINT('',(-67.0000019520522,-8.99999986588954,48.3364240411616));
#1614=CARTESIAN_POINT('Origin',(-71.0000019520522,-8.99999986588954,48.3364240411616));
#1615=CARTESIAN_POINT('',(-137.982665388083,34.3099792730304,48.3364240411616));
#1616=CARTESIAN_POINT('Origin',(-140.98266538809,34.3099792730304,48.3364240411616));
#1617=CARTESIAN_POINT('Origin',(-103.801802702248,0.,46.3364240411616));
#1618=CARTESIAN_POINT('',(-62.5295001434128,73.7221847894979,46.3364240411616));
#1619=CARTESIAN_POINT('',(-73.0924043938137,68.1900829418865,46.3364240411616));
#1620=CARTESIAN_POINT('',(-57.0000008493662,59.13551998202,46.3364240411616));
#1621=CARTESIAN_POINT('Origin',(-103.10360455513,50.0000000000003,46.3364240411616));
#1622=CARTESIAN_POINT('',(-57.0000008493662,9.51041708748772,46.3364240411616));
#1623=CARTESIAN_POINT('',(-57.0000008493662,59.13551998202,46.3364240411616));
#1624=CARTESIAN_POINT('',(-68.000001013279,0.,46.3364240411616));
#1625=CARTESIAN_POINT('',(-57.0000008493662,9.51041708748772,46.3364240411616));
#1626=CARTESIAN_POINT('',(-57.0000008493662,-9.51041708748772,46.3364240411616));
#1627=CARTESIAN_POINT('',(-68.000001013279,0.,46.3364240411616));
#1628=CARTESIAN_POINT('',(-57.0000008493662,-59.13551998202,46.3364240411616));
#1629=CARTESIAN_POINT('',(-57.0000008493662,-9.51041708748772,46.3364240411616));
#1630=CARTESIAN_POINT('',(-62.5295001434128,-73.7221847894979,46.3364240411616));
#1631=CARTESIAN_POINT('Origin',(-103.10360455513,-50.0000000000003,46.3364240411616));
#1632=CARTESIAN_POINT('',(-62.5295001434128,-73.7221847894979,46.3364240411616));
#1633=CARTESIAN_POINT('',(-131.961253432914,-87.7291147689228,46.3364240411616));
#1634=CARTESIAN_POINT('',(-128.563627690366,-74.2879271981064,46.3364240411616));
#1635=CARTESIAN_POINT('',(-150.60360455513,-50.0000000000003,46.3364240411616));
#1636=CARTESIAN_POINT('Origin',(-103.10360455513,-50.0000000000003,46.3364240411616));
#1637=CARTESIAN_POINT('',(-150.60360455513,50.0000000000003,46.3364240411616));
#1638=CARTESIAN_POINT('',(-150.60360455513,50.0000000000003,46.3364240411616));
#1639=CARTESIAN_POINT('',(-131.961253432914,87.7291147689228,46.3364240411616));
#1640=CARTESIAN_POINT('Origin',(-103.10360455513,50.0000000000003,46.3364240411616));
#1641=CARTESIAN_POINT('',(-134.50825848364,97.805201785188,46.3364240411616));
#1642=CARTESIAN_POINT('',(-62.2245437221629,65.6900207269704,46.3364240411616));
#1643=CARTESIAN_POINT('Origin',(-65.22454372217,65.6900207269704,46.3364240411616));
#1644=CARTESIAN_POINT('',(-127.000001952052,9.00000013411046,46.3364240411616));
#1645=CARTESIAN_POINT('Origin',(-131.000001952052,9.00000013411046,46.3364240411616));
#1646=CARTESIAN_POINT('',(-67.0000019520522,9.00000013411046,46.3364240411616));
#1647=CARTESIAN_POINT('Origin',(-71.0000019520522,9.00000013411046,46.3364240411616));
#1648=CARTESIAN_POINT('',(-85.66358382816,12.1209391670404,46.3364240411616));
#1649=CARTESIAN_POINT('Origin',(-87.41358382816,12.1209391670404,46.3364240411616));
#1650=CARTESIAN_POINT('',(-62.2245437221626,-34.3099792730304,46.3364240411616));
#1651=CARTESIAN_POINT('Origin',(-65.22454372217,-34.3099792730304,46.3364240411616));
#1652=CARTESIAN_POINT('',(-117.0436252821,-12.1209391670404,46.3364240411616));
#1653=CARTESIAN_POINT('Origin',(-118.7936252821,-12.1209391670404,46.3364240411616));
#1654=CARTESIAN_POINT('',(-137.982665388087,-34.3099792730304,46.3364240411616));
#1655=CARTESIAN_POINT('Origin',(-140.98266538809,-34.3099792730304,46.3364240411616));
#1656=CARTESIAN_POINT('',(-140.900002130866,20.0000002980232,46.3364240411616));
#1657=CARTESIAN_POINT('Origin',(-143.000002130866,20.0000002980232,46.3364240411616));
#1658=CARTESIAN_POINT('',(-62.2245437221676,34.3099792730304,46.3364240411616));
#1659=CARTESIAN_POINT('Origin',(-65.22454372217,34.3099792730304,46.3364240411616));
#1660=CARTESIAN_POINT('',(-117.0436252821,12.1209391670404,46.3364240411616));
#1661=CARTESIAN_POINT('Origin',(-118.7936252821,12.1209391670404,46.3364240411616));
#1662=CARTESIAN_POINT('',(-61.9000009536743,-22.0000003278255,46.3364240411616));
#1663=CARTESIAN_POINT('Origin',(-64.0000009536743,-22.0000003278255,46.3364240411616));
#1664=CARTESIAN_POINT('',(-137.982665388083,-65.6900207269704,46.3364240411616));
#1665=CARTESIAN_POINT('Origin',(-140.98266538809,-65.6900207269704,46.3364240411616));
#1666=CARTESIAN_POINT('',(-127.000001952052,-8.99999986588954,46.3364240411616));
#1667=CARTESIAN_POINT('Origin',(-131.000001952052,-8.99999986588954,46.3364240411616));
#1668=CARTESIAN_POINT('',(-108.779585672483,6.12323399573677E-16,46.3364240411616));
#1669=CARTESIAN_POINT('Origin',(-113.779585672483,0.,46.3364240411616));
#1670=CARTESIAN_POINT('',(-137.982665388088,65.6900207269704,46.3364240411616));
#1671=CARTESIAN_POINT('Origin',(-140.98266538809,65.6900207269704,46.3364240411616));
#1672=CARTESIAN_POINT('',(-85.66358382816,-12.1209391670404,46.3364240411616));
#1673=CARTESIAN_POINT('Origin',(-87.41358382816,-12.1209391670404,46.3364240411616));
#1674=CARTESIAN_POINT('',(-140.900002130866,-20.0000002980232,46.3364240411616));
#1675=CARTESIAN_POINT('Origin',(-143.000002130866,-20.0000002980232,46.3364240411616));
#1676=CARTESIAN_POINT('',(-62.2245437221679,-65.6900207269704,46.3364240411616));
#1677=CARTESIAN_POINT('Origin',(-65.22454372217,-65.6900207269704,46.3364240411616));
#1678=CARTESIAN_POINT('',(-67.0000019520522,-8.99999986588954,46.3364240411616));
#1679=CARTESIAN_POINT('Origin',(-71.0000019520522,-8.99999986588954,46.3364240411616));
#1680=CARTESIAN_POINT('',(-137.982665388083,34.3099792730304,46.3364240411616));
#1681=CARTESIAN_POINT('Origin',(-140.98266538809,34.3099792730304,46.3364240411616));
#1682=CARTESIAN_POINT('Origin',(-65.22454372217,65.6900207269704,46.3364240411616));
#1683=CARTESIAN_POINT('',(-62.2245437221629,65.6900207269704,46.3364240411616));
#1684=CARTESIAN_POINT('Origin',(-131.000001952052,9.00000013411046,46.3364240411616));
#1685=CARTESIAN_POINT('',(-127.000001952052,9.00000013411046,46.3364240411616));
#1686=CARTESIAN_POINT('Origin',(-71.0000019520522,9.00000013411046,46.3364240411616));
#1687=CARTESIAN_POINT('',(-67.0000019520522,9.00000013411046,46.3364240411616));
#1688=CARTESIAN_POINT('Origin',(-87.41358382816,12.1209391670404,46.3364240411616));
#1689=CARTESIAN_POINT('',(-85.66358382816,12.1209391670404,46.3364240411616));
#1690=CARTESIAN_POINT('Origin',(-65.22454372217,-34.3099792730304,46.3364240411616));
#1691=CARTESIAN_POINT('',(-62.2245437221626,-34.3099792730304,46.3364240411616));
#1692=CARTESIAN_POINT('Origin',(-118.7936252821,-12.1209391670404,46.3364240411616));
#1693=CARTESIAN_POINT('',(-117.0436252821,-12.1209391670404,46.3364240411616));
#1694=CARTESIAN_POINT('Origin',(-140.98266538809,-34.3099792730304,46.3364240411616));
#1695=CARTESIAN_POINT('',(-137.982665388087,-34.3099792730304,46.3364240411616));
#1696=CARTESIAN_POINT('Origin',(-143.000002130866,20.0000002980232,46.3364240411616));
#1697=CARTESIAN_POINT('',(-140.900002130866,20.0000002980232,46.3364240411616));
#1698=CARTESIAN_POINT('Origin',(-65.22454372217,34.3099792730304,46.3364240411616));
#1699=CARTESIAN_POINT('',(-62.2245437221676,34.3099792730304,46.3364240411616));
#1700=CARTESIAN_POINT('Origin',(-118.7936252821,12.1209391670404,46.3364240411616));
#1701=CARTESIAN_POINT('',(-117.0436252821,12.1209391670404,46.3364240411616));
#1702=CARTESIAN_POINT('Origin',(-64.0000009536743,-22.0000003278255,46.3364240411616));
#1703=CARTESIAN_POINT('',(-61.9000009536743,-22.0000003278255,46.3364240411616));
#1704=CARTESIAN_POINT('Origin',(-140.98266538809,-65.6900207269704,46.3364240411616));
#1705=CARTESIAN_POINT('',(-137.982665388083,-65.6900207269704,46.3364240411616));
#1706=CARTESIAN_POINT('Origin',(-131.000001952052,-8.99999986588954,46.3364240411616));
#1707=CARTESIAN_POINT('',(-127.000001952052,-8.99999986588954,46.3364240411616));
#1708=CARTESIAN_POINT('Origin',(-113.779585672483,0.,46.3364240411616));
#1709=CARTESIAN_POINT('',(-108.779585672483,6.12323399573677E-16,46.3364240411616));
#1710=CARTESIAN_POINT('Origin',(-140.98266538809,65.6900207269704,46.3364240411616));
#1711=CARTESIAN_POINT('',(-137.982665388088,65.6900207269704,46.3364240411616));
#1712=CARTESIAN_POINT('Origin',(-87.41358382816,-12.1209391670404,46.3364240411616));
#1713=CARTESIAN_POINT('',(-85.66358382816,-12.1209391670404,46.3364240411616));
#1714=CARTESIAN_POINT('Origin',(-143.000002130866,-20.0000002980232,46.3364240411616));
#1715=CARTESIAN_POINT('',(-140.900002130866,-20.0000002980232,46.3364240411616));
#1716=CARTESIAN_POINT('Origin',(-65.22454372217,-65.6900207269704,46.3364240411616));
#1717=CARTESIAN_POINT('',(-62.2245437221679,-65.6900207269704,46.3364240411616));
#1718=CARTESIAN_POINT('Origin',(-71.0000019520522,-8.99999986588954,46.3364240411616));
#1719=CARTESIAN_POINT('',(-67.0000019520522,-8.99999986588954,46.3364240411616));
#1720=CARTESIAN_POINT('Origin',(-140.98266538809,34.3099792730304,46.3364240411616));
#1721=CARTESIAN_POINT('',(-137.982665388083,34.3099792730304,46.3364240411616));
#1722=CARTESIAN_POINT('Origin',(-128.563627690366,74.2879271981064,46.3364240411616));
#1723=CARTESIAN_POINT('',(-131.961253432914,87.7291147689228,46.3364240411616));
#1724=CARTESIAN_POINT('Origin',(-62.5295001434128,73.7221847894979,46.3364240411616));
#1725=CARTESIAN_POINT('',(-62.5295001434128,73.7221847894979,46.3364240411616));
#1726=CARTESIAN_POINT('Origin',(-103.10360455513,50.0000000000003,46.3364240411616));
#1727=CARTESIAN_POINT('',(-57.0000008493662,59.13551998202,46.3364240411616));
#1728=CARTESIAN_POINT('Origin',(-57.0000008493662,9.51041708748772,46.3364240411616));
#1729=CARTESIAN_POINT('',(-57.0000008493662,9.51041708748772,46.3364240411616));
#1730=CARTESIAN_POINT('Origin',(-68.000001013279,0.,46.3364240411616));
#1731=CARTESIAN_POINT('',(-68.000001013279,0.,46.3364240411616));
#1732=CARTESIAN_POINT('Origin',(-57.0000008493662,-9.51041708748772,46.3364240411616));
#1733=CARTESIAN_POINT('',(-57.0000008493662,-9.51041708748772,46.3364240411616));
#1734=CARTESIAN_POINT('Origin',(-57.0000008493662,-59.13551998202,46.3364240411616));
#1735=CARTESIAN_POINT('',(-57.0000008493662,-59.13551998202,46.3364240411616));
#1736=CARTESIAN_POINT('Origin',(-103.10360455513,-50.0000000000003,46.3364240411616));
#1737=CARTESIAN_POINT('',(-62.5295001434128,-73.7221847894979,46.3364240411616));
#1738=CARTESIAN_POINT('Origin',(-73.0924043938137,-68.1900829418865,46.3364240411616));
#1739=CARTESIAN_POINT('Origin',(-131.961253432914,-87.7291147689227,46.3364240411616));
#1740=CARTESIAN_POINT('',(-131.961253432914,-87.7291147689228,46.3364240411616));
#1741=CARTESIAN_POINT('Origin',(-103.10360455513,-50.0000000000003,46.3364240411616));
#1742=CARTESIAN_POINT('',(-150.60360455513,-50.0000000000003,46.3364240411616));
#1743=CARTESIAN_POINT('Origin',(-150.60360455513,50.0000000000003,46.3364240411616));
#1744=CARTESIAN_POINT('',(-150.60360455513,50.0000000000003,46.3364240411616));
#1745=CARTESIAN_POINT('Origin',(-103.10360455513,50.0000000000003,46.3364240411616));
#1746=CARTESIAN_POINT('',(0.,0.,0.));
#1747=UNCERTAINTY_MEASURE_WITH_UNIT(LENGTH_MEASURE(0.01),#1753,
'DISTANCE_ACCURACY_VALUE',
'Maximum model space distance between geometric entities at asserted c
onnectivities');
#1748=UNCERTAINTY_MEASURE_WITH_UNIT(LENGTH_MEASURE(0.01),#1753,
'DISTANCE_ACCURACY_VALUE',
'Maximum model space distance between geometric entities at asserted c
onnectivities');
#1749=UNCERTAINTY_MEASURE_WITH_UNIT(LENGTH_MEASURE(0.01),#1753,
'DISTANCE_ACCURACY_VALUE',
'Maximum model space distance between geometric entities at asserted c
onnectivities');
#1750=(
GEOMETRIC_REPRESENTATION_CONTEXT(3)
GLOBAL_UNCERTAINTY_ASSIGNED_CONTEXT((#1747))
GLOBAL_UNIT_ASSIGNED_CONTEXT((#1753,#1755,#1756))
REPRESENTATION_CONTEXT('','3D')
);
#1751=(
GEOMETRIC_REPRESENTATION_CONTEXT(3)
GLOBAL_UNCERTAINTY_ASSIGNED_CONTEXT((#1748))
GLOBAL_UNIT_ASSIGNED_CONTEXT((#1753,#1755,#1756))
REPRESENTATION_CONTEXT('','3D')
);
#1752=(
GEOMETRIC_REPRESENTATION_CONTEXT(3)
GLOBAL_UNCERTAINTY_ASSIGNED_CONTEXT((#1749))
GLOBAL_UNIT_ASSIGNED_CONTEXT((#1753,#1755,#1756))
REPRESENTATION_CONTEXT('','3D')
);
#1753=(
LENGTH_UNIT()
NAMED_UNIT(*)
SI_UNIT(.MILLI.,.METRE.)
);
#1754=(
LENGTH_UNIT()
NAMED_UNIT(*)
SI_UNIT($,.METRE.)
);
#1755=(
NAMED_UNIT(*)
PLANE_ANGLE_UNIT()
SI_UNIT($,.RADIAN.)
);
#1756=(
NAMED_UNIT(*)
SI_UNIT($,.STERADIAN.)
SOLID_ANGLE_UNIT()
);
#1757=SHAPE_DEFINITION_REPRESENTATION(#1759,#1762);
#1758=SHAPE_DEFINITION_REPRESENTATION(#1760,#1763);
#1759=PRODUCT_DEFINITION_SHAPE('',$,#1765);
#1760=PRODUCT_DEFINITION_SHAPE('',$,#1766);
#1761=PRODUCT_DEFINITION_SHAPE($,$,#14);
#1762=SHAPE_REPRESENTATION('',(#1051,#1158),#1750);
#1763=SHAPE_REPRESENTATION('',(#1052),#1751);
#1764=PRODUCT_DEFINITION_CONTEXT('part definition',#1772,'design');
#1765=PRODUCT_DEFINITION('Chassis','Chassis v25',#1767,#1764);
#1766=PRODUCT_DEFINITION('Chassis_1','Chassis',#1768,#1764);
#1767=PRODUCT_DEFINITION_FORMATION('',$,#1774);
#1768=PRODUCT_DEFINITION_FORMATION('',$,#1775);
#1769=PRODUCT_RELATED_PRODUCT_CATEGORY('Chassis v25','Chassis v25',(#1774));
#1770=PRODUCT_RELATED_PRODUCT_CATEGORY('Chassis','Chassis',(#1775));
#1771=APPLICATION_PROTOCOL_DEFINITION('international standard',
'automotive_design',2009,#1772);
#1772=APPLICATION_CONTEXT(
'Core Data for Automotive Mechanical Design Process');
#1773=PRODUCT_CONTEXT('part definition',#1772,'mechanical');
#1774=PRODUCT('Chassis','Chassis v25',$,(#1773));
#1775=PRODUCT('Chassis_1','Chassis',$,(#1773));
#1776=PRESENTATION_STYLE_ASSIGNMENT((#1784));
#1777=PRESENTATION_STYLE_ASSIGNMENT((#1785));
#1778=PRESENTATION_STYLE_ASSIGNMENT((#1786));
#1779=PRESENTATION_STYLE_ASSIGNMENT((#1787));
#1780=PRESENTATION_STYLE_ASSIGNMENT((#1788));
#1781=PRESENTATION_STYLE_ASSIGNMENT((#1789));
#1782=PRESENTATION_STYLE_ASSIGNMENT((#1790));
#1783=PRESENTATION_STYLE_ASSIGNMENT((#1791));
#1784=SURFACE_STYLE_USAGE(.BOTH.,#1792);
#1785=SURFACE_STYLE_USAGE(.BOTH.,#1793);
#1786=SURFACE_STYLE_USAGE(.BOTH.,#1794);
#1787=SURFACE_STYLE_USAGE(.BOTH.,#1795);
#1788=SURFACE_STYLE_USAGE(.BOTH.,#1796);
#1789=SURFACE_STYLE_USAGE(.BOTH.,#1797);
#1790=SURFACE_STYLE_USAGE(.BOTH.,#1798);
#1791=SURFACE_STYLE_USAGE(.BOTH.,#1799);
#1792=SURFACE_SIDE_STYLE('',(#1800));
#1793=SURFACE_SIDE_STYLE('',(#1801));
#1794=SURFACE_SIDE_STYLE('',(#1802));
#1795=SURFACE_SIDE_STYLE('',(#1803));
#1796=SURFACE_SIDE_STYLE('',(#1804));
#1797=SURFACE_SIDE_STYLE('',(#1805));
#1798=SURFACE_SIDE_STYLE('',(#1806));
#1799=SURFACE_SIDE_STYLE('',(#1807));
#1800=SURFACE_STYLE_FILL_AREA(#1808);
#1801=SURFACE_STYLE_FILL_AREA(#1809);
#1802=SURFACE_STYLE_FILL_AREA(#1810);
#1803=SURFACE_STYLE_FILL_AREA(#1811);
#1804=SURFACE_STYLE_FILL_AREA(#1812);
#1805=SURFACE_STYLE_FILL_AREA(#1813);
#1806=SURFACE_STYLE_FILL_AREA(#1814);
#1807=SURFACE_STYLE_FILL_AREA(#1815);
#1808=FILL_AREA_STYLE('Steel - Satin',(#1816));
#1809=FILL_AREA_STYLE('Aluminum - Satin',(#1817));
#1810=FILL_AREA_STYLE('Opaque(50,50,50)',(#1818));
#1811=FILL_AREA_STYLE('Opaque(255,255,255)',(#1819));
#1812=FILL_AREA_STYLE('Opaque(245,245,246)',(#1820));
#1813=FILL_AREA_STYLE('ABS (White) (1)',(#1821));
#1814=FILL_AREA_STYLE('Opaque(250,182,1)',(#1822));
#1815=FILL_AREA_STYLE('ABS (White)',(#1823));
#1816=FILL_AREA_STYLE_COLOUR('Steel - Satin',#1824);
#1817=FILL_AREA_STYLE_COLOUR('Aluminum - Satin',#1825);
#1818=FILL_AREA_STYLE_COLOUR('Opaque(50,50,50)',#1826);
#1819=FILL_AREA_STYLE_COLOUR('Opaque(255,255,255)',#1827);
#1820=FILL_AREA_STYLE_COLOUR('Opaque(245,245,246)',#1828);
#1821=FILL_AREA_STYLE_COLOUR('ABS (White) (1)',#1829);
#1822=FILL_AREA_STYLE_COLOUR('Opaque(250,182,1)',#1830);
#1823=FILL_AREA_STYLE_COLOUR('ABS (White)',#1831);
#1824=COLOUR_RGB('Steel - Satin',0.627450980392157,0.627450980392157,0.627450980392157);
#1825=COLOUR_RGB('Aluminum - Satin',0.96078431372549,0.96078431372549,0.964705882352941);
#1826=COLOUR_RGB('Opaque(50,50,50)',0.196078431372549,0.196078431372549,
0.196078431372549);
#1827=COLOUR_RGB('Opaque(255,255,255)',1.,1.,1.);
#1828=COLOUR_RGB('Opaque(245,245,246)',0.96078431372549,0.96078431372549,
0.964705882352941);
#1829=COLOUR_RGB('ABS (White) (1)',0.905882352941176,0.262745098039216,
0.184313725490196);
#1830=COLOUR_RGB('Opaque(250,182,1)',0.980392156862745,0.713725490196078,
0.00392156862745098);
#1831=COLOUR_RGB('ABS (White)',0.964705882352941,0.964705882352941,0.952941176470588);
ENDSEC;
END-ISO-10303-21;
