ISO-10303-21;
HEADER;
/* Generated by software containing ST-Developer
 * from STEP Tools, Inc. (www.steptools.com) 
 */

FILE_DESCRIPTION(
/* description */ (''),
/* implementation_level */ '2;1');

FILE_NAME(
/* name */ 'BottomMount.step',
/* time_stamp */ '2026-08-13T12:54:27-04:00',
/* author */ (''),
/* organization */ (''),
/* preprocessor_version */ 'ST-DEVELOPER v20.1',
/* originating_system */ 'Autodesk Translation Framework v15.8.0.0',
/* authorisation */ '');

FILE_SCHEMA (('AUTOMOTIVE_DESIGN { 1 0 10303 214 3 1 1 }'));
ENDSEC;

DATA;
#10=MECHANICAL_DESIGN_GEOMETRIC_PRESENTATION_REPRESENTATION('',(#17),#1331);
#11=ITEM_DEFINED_TRANSFORMATION($,$,#785,#867);
#12=(
REPRESENTATION_RELATIONSHIP($,$,#1342,#1341)
REPRESENTATION_RELATIONSHIP_WITH_TRANSFORMATION(#11)
SHAPE_REPRESENTATION_RELATIONSHIP()
);
#13=CONTEXT_DEPENDENT_SHAPE_REPRESENTATION(#12,#1340);
#14=NEXT_ASSEMBLY_USAGE_OCCURRENCE('RightYaw (1):1','RightYaw (1):1',
'RightYaw (1):1',#1344,#1345,'RightYaw (1):1');
#15=SHAPE_REPRESENTATION_RELATIONSHIP('SRR','None',#1342,#16);
#16=ADVANCED_BREP_SHAPE_REPRESENTATION('',(#18),#1330);
#17=STYLED_ITEM('',(#1355),#18);
#18=MANIFOLD_SOLID_BREP('Body6',#771);
#19=CYLINDRICAL_SURFACE('',#802,35.);
#20=CYLINDRICAL_SURFACE('',#807,35.);
#21=CYLINDRICAL_SURFACE('',#811,41.1);
#22=CYLINDRICAL_SURFACE('',#813,1.89999999999997);
#23=CYLINDRICAL_SURFACE('',#815,3.10000000000203);
#24=CYLINDRICAL_SURFACE('',#817,1.90000000000001);
#25=CYLINDRICAL_SURFACE('',#819,41.1000000000007);
#26=CYLINDRICAL_SURFACE('',#821,1.89999999999997);
#27=CYLINDRICAL_SURFACE('',#823,3.10000000000685);
#28=CYLINDRICAL_SURFACE('',#825,1.9);
#29=CYLINDRICAL_SURFACE('',#827,41.1000000000027);
#30=CYLINDRICAL_SURFACE('',#832,25.);
#31=CYLINDRICAL_SURFACE('',#845,22.45);
#32=CYLINDRICAL_SURFACE('',#859,1.75);
#33=CYLINDRICAL_SURFACE('',#860,1.75);
#34=CYLINDRICAL_SURFACE('',#862,1.75);
#35=CYLINDRICAL_SURFACE('',#864,1.75);
#36=FACE_BOUND('',#87,.T.);
#37=FACE_BOUND('',#88,.T.);
#38=FACE_BOUND('',#108,.T.);
#39=FACE_BOUND('',#123,.T.);
#40=FACE_BOUND('',#124,.T.);
#41=FACE_BOUND('',#126,.T.);
#42=FACE_BOUND('',#127,.T.);
#43=FACE_BOUND('',#134,.T.);
#44=FACE_BOUND('',#135,.T.);
#45=FACE_OUTER_BOUND('',#86,.T.);
#46=FACE_OUTER_BOUND('',#89,.T.);
#47=FACE_OUTER_BOUND('',#90,.T.);
#48=FACE_OUTER_BOUND('',#91,.T.);
#49=FACE_OUTER_BOUND('',#92,.T.);
#50=FACE_OUTER_BOUND('',#93,.T.);
#51=FACE_OUTER_BOUND('',#94,.T.);
#52=FACE_OUTER_BOUND('',#95,.T.);
#53=FACE_OUTER_BOUND('',#96,.T.);
#54=FACE_OUTER_BOUND('',#97,.T.);
#55=FACE_OUTER_BOUND('',#98,.T.);
#56=FACE_OUTER_BOUND('',#99,.T.);
#57=FACE_OUTER_BOUND('',#100,.T.);
#58=FACE_OUTER_BOUND('',#101,.T.);
#59=FACE_OUTER_BOUND('',#102,.T.);
#60=FACE_OUTER_BOUND('',#103,.T.);
#61=FACE_OUTER_BOUND('',#104,.T.);
#62=FACE_OUTER_BOUND('',#105,.T.);
#63=FACE_OUTER_BOUND('',#106,.T.);
#64=FACE_OUTER_BOUND('',#107,.T.);
#65=FACE_OUTER_BOUND('',#109,.T.);
#66=FACE_OUTER_BOUND('',#110,.T.);
#67=FACE_OUTER_BOUND('',#111,.T.);
#68=FACE_OUTER_BOUND('',#112,.T.);
#69=FACE_OUTER_BOUND('',#113,.T.);
#70=FACE_OUTER_BOUND('',#114,.T.);
#71=FACE_OUTER_BOUND('',#115,.T.);
#72=FACE_OUTER_BOUND('',#116,.T.);
#73=FACE_OUTER_BOUND('',#117,.T.);
#74=FACE_OUTER_BOUND('',#118,.T.);
#75=FACE_OUTER_BOUND('',#119,.T.);
#76=FACE_OUTER_BOUND('',#120,.T.);
#77=FACE_OUTER_BOUND('',#121,.T.);
#78=FACE_OUTER_BOUND('',#122,.T.);
#79=FACE_OUTER_BOUND('',#125,.T.);
#80=FACE_OUTER_BOUND('',#128,.T.);
#81=FACE_OUTER_BOUND('',#129,.T.);
#82=FACE_OUTER_BOUND('',#130,.T.);
#83=FACE_OUTER_BOUND('',#131,.T.);
#84=FACE_OUTER_BOUND('',#132,.T.);
#85=FACE_OUTER_BOUND('',#133,.T.);
#86=EDGE_LOOP('',(#490,#491,#492,#493,#494,#495,#496,#497,#498,#499,#500,
#501,#502,#503,#504,#505,#506,#507));
#87=EDGE_LOOP('',(#508));
#88=EDGE_LOOP('',(#509));
#89=EDGE_LOOP('',(#510,#511,#512,#513,#514,#515,#516,#517));
#90=EDGE_LOOP('',(#518,#519,#520,#521));
#91=EDGE_LOOP('',(#522,#523,#524,#525));
#92=EDGE_LOOP('',(#526,#527,#528,#529,#530));
#93=EDGE_LOOP('',(#531,#532,#533,#534));
#94=EDGE_LOOP('',(#535,#536,#537,#538,#539));
#95=EDGE_LOOP('',(#540,#541,#542,#543));
#96=EDGE_LOOP('',(#544,#545,#546,#547));
#97=EDGE_LOOP('',(#548,#549,#550,#551,#552,#553,#554,#555));
#98=EDGE_LOOP('',(#556,#557,#558,#559));
#99=EDGE_LOOP('',(#560,#561,#562,#563));
#100=EDGE_LOOP('',(#564,#565,#566,#567));
#101=EDGE_LOOP('',(#568,#569,#570,#571));
#102=EDGE_LOOP('',(#572,#573,#574,#575));
#103=EDGE_LOOP('',(#576,#577,#578,#579));
#104=EDGE_LOOP('',(#580,#581,#582,#583));
#105=EDGE_LOOP('',(#584,#585,#586,#587));
#106=EDGE_LOOP('',(#588,#589,#590,#591));
#107=EDGE_LOOP('',(#592));
#108=EDGE_LOOP('',(#593));
#109=EDGE_LOOP('',(#594,#595,#596,#597,#598,#599,#600,#601,#602,#603));
#110=EDGE_LOOP('',(#604,#605,#606,#607));
#111=EDGE_LOOP('',(#608));
#112=EDGE_LOOP('',(#609,#610));
#113=EDGE_LOOP('',(#611,#612,#613,#614,#615,#616));
#114=EDGE_LOOP('',(#617,#618,#619,#620));
#115=EDGE_LOOP('',(#621,#622));
#116=EDGE_LOOP('',(#623,#624,#625));
#117=EDGE_LOOP('',(#626,#627,#628));
#118=EDGE_LOOP('',(#629,#630,#631));
#119=EDGE_LOOP('',(#632,#633,#634,#635));
#120=EDGE_LOOP('',(#636,#637,#638,#639));
#121=EDGE_LOOP('',(#640,#641,#642,#643));
#122=EDGE_LOOP('',(#644,#645,#646,#647,#648,#649,#650,#651,#652));
#123=EDGE_LOOP('',(#653));
#124=EDGE_LOOP('',(#654));
#125=EDGE_LOOP('',(#655,#656,#657,#658,#659,#660,#661,#662,#663,#664,#665,
#666,#667,#668,#669));
#126=EDGE_LOOP('',(#670));
#127=EDGE_LOOP('',(#671));
#128=EDGE_LOOP('',(#672,#673,#674,#675));
#129=EDGE_LOOP('',(#676,#677,#678,#679));
#130=EDGE_LOOP('',(#680,#681,#682,#683));
#131=EDGE_LOOP('',(#684,#685,#686,#687));
#132=EDGE_LOOP('',(#688,#689,#690,#691));
#133=EDGE_LOOP('',(#692,#693,#694,#695,#696,#697,#698,#699,#700,#701,#702,
#703));
#134=EDGE_LOOP('',(#704));
#135=EDGE_LOOP('',(#705));
#136=CIRCLE('',#787,41.1);
#137=CIRCLE('',#788,1.90000000000001);
#138=CIRCLE('',#789,3.10000000000203);
#139=CIRCLE('',#790,1.89999999999997);
#140=CIRCLE('',#791,41.1000000000027);
#141=CIRCLE('',#792,1.9);
#142=CIRCLE('',#793,3.10000000000685);
#143=CIRCLE('',#794,1.89999999999997);
#144=CIRCLE('',#795,41.1000000000007);
#145=CIRCLE('',#796,35.);
#146=CIRCLE('',#797,35.);
#147=CIRCLE('',#798,1.75);
#148=CIRCLE('',#799,1.75);
#149=CIRCLE('',#803,35.);
#150=CIRCLE('',#808,35.);
#151=CIRCLE('',#812,41.1);
#152=CIRCLE('',#814,1.89999999999997);
#153=CIRCLE('',#816,3.10000000000203);
#154=CIRCLE('',#818,1.90000000000001);
#155=CIRCLE('',#820,41.1000000000007);
#156=CIRCLE('',#822,1.89999999999997);
#157=CIRCLE('',#824,3.10000000000685);
#158=CIRCLE('',#826,1.9);
#159=CIRCLE('',#828,41.1000000000027);
#160=CIRCLE('',#830,25.);
#161=CIRCLE('',#831,22.45);
#162=CIRCLE('',#833,25.);
#163=CIRCLE('',#834,25.);
#164=CIRCLE('',#835,25.);
#165=CIRCLE('',#836,25.);
#166=CIRCLE('',#837,25.);
#167=CIRCLE('',#838,25.);
#168=CIRCLE('',#839,25.);
#169=CIRCLE('',#842,22.45);
#170=CIRCLE('',#854,1.75);
#171=CIRCLE('',#855,1.75);
#172=CIRCLE('',#857,1.75);
#173=CIRCLE('',#858,1.75);
#174=CIRCLE('',#863,1.75);
#175=CIRCLE('',#865,1.75);
#176=LINE('',#1109,#244);
#177=LINE('',#1129,#245);
#178=LINE('',#1131,#246);
#179=LINE('',#1135,#247);
#180=LINE('',#1137,#248);
#181=LINE('',#1139,#249);
#182=LINE('',#1142,#250);
#183=LINE('',#1149,#251);
#184=LINE('',#1151,#252);
#185=LINE('',#1153,#253);
#186=LINE('',#1155,#254);
#187=LINE('',#1157,#255);
#188=LINE('',#1159,#256);
#189=LINE('',#1160,#257);
#190=LINE('',#1163,#258);
#191=LINE('',#1164,#259);
#192=LINE('',#1168,#260);
#193=LINE('',#1171,#261);
#194=LINE('',#1173,#262);
#195=LINE('',#1174,#263);
#196=LINE('',#1177,#264);
#197=LINE('',#1178,#265);
#198=LINE('',#1181,#266);
#199=LINE('',#1183,#267);
#200=LINE('',#1184,#268);
#201=LINE('',#1188,#269);
#202=LINE('',#1191,#270);
#203=LINE('',#1192,#271);
#204=LINE('',#1195,#272);
#205=LINE('',#1197,#273);
#206=LINE('',#1199,#274);
#207=LINE('',#1201,#275);
#208=LINE('',#1203,#276);
#209=LINE('',#1204,#277);
#210=LINE('',#1208,#278);
#211=LINE('',#1213,#279);
#212=LINE('',#1214,#280);
#213=LINE('',#1218,#281);
#214=LINE('',#1223,#282);
#215=LINE('',#1228,#283);
#216=LINE('',#1232,#284);
#217=LINE('',#1236,#285);
#218=LINE('',#1246,#286);
#219=LINE('',#1262,#287);
#220=LINE('',#1264,#288);
#221=LINE('',#1265,#289);
#222=LINE('',#1270,#290);
#223=LINE('',#1273,#291);
#224=LINE('',#1274,#292);
#225=LINE('',#1276,#293);
#226=LINE('',#1277,#294);
#227=LINE('',#1279,#295);
#228=LINE('',#1281,#296);
#229=LINE('',#1283,#297);
#230=LINE('',#1285,#298);
#231=LINE('',#1287,#299);
#232=LINE('',#1290,#300);
#233=LINE('',#1292,#301);
#234=LINE('',#1293,#302);
#235=LINE('',#1295,#303);
#236=LINE('',#1297,#304);
#237=LINE('',#1298,#305);
#238=LINE('',#1300,#306);
#239=LINE('',#1311,#307);
#240=LINE('',#1313,#308);
#241=LINE('',#1315,#309);
#242=LINE('',#1318,#310);
#243=LINE('',#1322,#311);
#244=VECTOR('',#874,10.);
#245=VECTOR('',#893,10.);
#246=VECTOR('',#894,10.);
#247=VECTOR('',#897,10.);
#248=VECTOR('',#898,10.);
#249=VECTOR('',#899,10.);
#250=VECTOR('',#902,10.);
#251=VECTOR('',#909,10.);
#252=VECTOR('',#910,10.);
#253=VECTOR('',#911,10.);
#254=VECTOR('',#912,10.);
#255=VECTOR('',#913,10.);
#256=VECTOR('',#914,10.);
#257=VECTOR('',#915,10.);
#258=VECTOR('',#918,10.);
#259=VECTOR('',#919,10.);
#260=VECTOR('',#924,10.);
#261=VECTOR('',#927,10.);
#262=VECTOR('',#928,10.);
#263=VECTOR('',#929,10.);
#264=VECTOR('',#932,10.);
#265=VECTOR('',#933,10.);
#266=VECTOR('',#936,10.);
#267=VECTOR('',#937,10.);
#268=VECTOR('',#938,1000.);
#269=VECTOR('',#943,10.);
#270=VECTOR('',#946,10.);
#271=VECTOR('',#947,10.);
#272=VECTOR('',#950,10.);
#273=VECTOR('',#951,10.);
#274=VECTOR('',#952,10.);
#275=VECTOR('',#953,10.);
#276=VECTOR('',#954,10.);
#277=VECTOR('',#955,10.);
#278=VECTOR('',#960,10.);
#279=VECTOR('',#965,10.);
#280=VECTOR('',#966,10.);
#281=VECTOR('',#971,10.);
#282=VECTOR('',#978,10.);
#283=VECTOR('',#985,10.);
#284=VECTOR('',#990,10.);
#285=VECTOR('',#995,10.);
#286=VECTOR('',#1008,25.);
#287=VECTOR('',#1025,10.);
#288=VECTOR('',#1026,10.);
#289=VECTOR('',#1027,10.);
#290=VECTOR('',#1034,10.);
#291=VECTOR('',#1037,10.);
#292=VECTOR('',#1038,10.);
#293=VECTOR('',#1039,10.);
#294=VECTOR('',#1040,10.);
#295=VECTOR('',#1043,18.5);
#296=VECTOR('',#1046,10.);
#297=VECTOR('',#1049,10.);
#298=VECTOR('',#1052,10.);
#299=VECTOR('',#1055,10.);
#300=VECTOR('',#1058,10.);
#301=VECTOR('',#1059,10.);
#302=VECTOR('',#1060,10.);
#303=VECTOR('',#1063,10.);
#304=VECTOR('',#1066,10.);
#305=VECTOR('',#1067,10.);
#306=VECTOR('',#1070,10.);
#307=VECTOR('',#1083,1.75);
#308=VECTOR('',#1086,1.75);
#309=VECTOR('',#1089,10.);
#310=VECTOR('',#1092,1.75);
#311=VECTOR('',#1097,1.75);
#312=VERTEX_POINT('',#1107);
#313=VERTEX_POINT('',#1108);
#314=VERTEX_POINT('',#1110);
#315=VERTEX_POINT('',#1112);
#316=VERTEX_POINT('',#1114);
#317=VERTEX_POINT('',#1116);
#318=VERTEX_POINT('',#1118);
#319=VERTEX_POINT('',#1120);
#320=VERTEX_POINT('',#1122);
#321=VERTEX_POINT('',#1124);
#322=VERTEX_POINT('',#1126);
#323=VERTEX_POINT('',#1128);
#324=VERTEX_POINT('',#1130);
#325=VERTEX_POINT('',#1132);
#326=VERTEX_POINT('',#1134);
#327=VERTEX_POINT('',#1136);
#328=VERTEX_POINT('',#1138);
#329=VERTEX_POINT('',#1140);
#330=VERTEX_POINT('',#1143);
#331=VERTEX_POINT('',#1145);
#332=VERTEX_POINT('',#1148);
#333=VERTEX_POINT('',#1150);
#334=VERTEX_POINT('',#1152);
#335=VERTEX_POINT('',#1154);
#336=VERTEX_POINT('',#1156);
#337=VERTEX_POINT('',#1158);
#338=VERTEX_POINT('',#1162);
#339=VERTEX_POINT('',#1166);
#340=VERTEX_POINT('',#1170);
#341=VERTEX_POINT('',#1172);
#342=VERTEX_POINT('',#1176);
#343=VERTEX_POINT('',#1180);
#344=VERTEX_POINT('',#1182);
#345=VERTEX_POINT('',#1186);
#346=VERTEX_POINT('',#1190);
#347=VERTEX_POINT('',#1194);
#348=VERTEX_POINT('',#1196);
#349=VERTEX_POINT('',#1198);
#350=VERTEX_POINT('',#1200);
#351=VERTEX_POINT('',#1202);
#352=VERTEX_POINT('',#1206);
#353=VERTEX_POINT('',#1210);
#354=VERTEX_POINT('',#1211);
#355=VERTEX_POINT('',#1216);
#356=VERTEX_POINT('',#1222);
#357=VERTEX_POINT('',#1226);
#358=VERTEX_POINT('',#1230);
#359=VERTEX_POINT('',#1234);
#360=VERTEX_POINT('',#1240);
#361=VERTEX_POINT('',#1242);
#362=VERTEX_POINT('',#1245);
#363=VERTEX_POINT('',#1247);
#364=VERTEX_POINT('',#1249);
#365=VERTEX_POINT('',#1251);
#366=VERTEX_POINT('',#1253);
#367=VERTEX_POINT('',#1255);
#368=VERTEX_POINT('',#1257);
#369=VERTEX_POINT('',#1261);
#370=VERTEX_POINT('',#1263);
#371=VERTEX_POINT('',#1267);
#372=VERTEX_POINT('',#1272);
#373=VERTEX_POINT('',#1275);
#374=VERTEX_POINT('',#1289);
#375=VERTEX_POINT('',#1291);
#376=VERTEX_POINT('',#1301);
#377=VERTEX_POINT('',#1303);
#378=VERTEX_POINT('',#1306);
#379=VERTEX_POINT('',#1308);
#380=VERTEX_POINT('',#1317);
#381=VERTEX_POINT('',#1321);
#382=EDGE_CURVE('',#312,#313,#176,.T.);
#383=EDGE_CURVE('',#313,#314,#136,.T.);
#384=EDGE_CURVE('',#314,#315,#137,.T.);
#385=EDGE_CURVE('',#315,#316,#138,.T.);
#386=EDGE_CURVE('',#316,#317,#139,.T.);
#387=EDGE_CURVE('',#317,#318,#140,.T.);
#388=EDGE_CURVE('',#318,#319,#141,.T.);
#389=EDGE_CURVE('',#319,#320,#142,.T.);
#390=EDGE_CURVE('',#320,#321,#143,.T.);
#391=EDGE_CURVE('',#321,#322,#144,.T.);
#392=EDGE_CURVE('',#322,#323,#177,.T.);
#393=EDGE_CURVE('',#323,#324,#178,.T.);
#394=EDGE_CURVE('',#324,#325,#145,.T.);
#395=EDGE_CURVE('',#325,#326,#179,.T.);
#396=EDGE_CURVE('',#326,#327,#180,.T.);
#397=EDGE_CURVE('',#327,#328,#181,.T.);
#398=EDGE_CURVE('',#328,#329,#146,.T.);
#399=EDGE_CURVE('',#329,#312,#182,.T.);
#400=EDGE_CURVE('',#330,#330,#147,.T.);
#401=EDGE_CURVE('',#331,#331,#148,.T.);
#402=EDGE_CURVE('',#332,#322,#183,.T.);
#403=EDGE_CURVE('',#332,#333,#184,.T.);
#404=EDGE_CURVE('',#333,#334,#185,.T.);
#405=EDGE_CURVE('',#335,#334,#186,.T.);
#406=EDGE_CURVE('',#335,#336,#187,.T.);
#407=EDGE_CURVE('',#337,#336,#188,.T.);
#408=EDGE_CURVE('',#337,#323,#189,.T.);
#409=EDGE_CURVE('',#338,#337,#190,.T.);
#410=EDGE_CURVE('',#338,#324,#191,.T.);
#411=EDGE_CURVE('',#339,#338,#149,.T.);
#412=EDGE_CURVE('',#339,#325,#192,.T.);
#413=EDGE_CURVE('',#340,#339,#193,.T.);
#414=EDGE_CURVE('',#341,#340,#194,.F.);
#415=EDGE_CURVE('',#341,#326,#195,.T.);
#416=EDGE_CURVE('',#342,#341,#196,.T.);
#417=EDGE_CURVE('',#342,#327,#197,.T.);
#418=EDGE_CURVE('',#343,#342,#198,.F.);
#419=EDGE_CURVE('',#344,#343,#199,.T.);
#420=EDGE_CURVE('',#344,#328,#200,.T.);
#421=EDGE_CURVE('',#345,#344,#150,.T.);
#422=EDGE_CURVE('',#329,#345,#201,.T.);
#423=EDGE_CURVE('',#346,#345,#202,.T.);
#424=EDGE_CURVE('',#346,#312,#203,.T.);
#425=EDGE_CURVE('',#347,#346,#204,.T.);
#426=EDGE_CURVE('',#347,#348,#205,.T.);
#427=EDGE_CURVE('',#349,#348,#206,.T.);
#428=EDGE_CURVE('',#350,#349,#207,.T.);
#429=EDGE_CURVE('',#350,#351,#208,.T.);
#430=EDGE_CURVE('',#313,#351,#209,.T.);
#431=EDGE_CURVE('',#351,#352,#151,.T.);
#432=EDGE_CURVE('',#352,#314,#210,.T.);
#433=EDGE_CURVE('',#353,#354,#152,.T.);
#434=EDGE_CURVE('',#353,#317,#211,.T.);
#435=EDGE_CURVE('',#354,#316,#212,.T.);
#436=EDGE_CURVE('',#355,#354,#153,.T.);
#437=EDGE_CURVE('',#355,#315,#213,.T.);
#438=EDGE_CURVE('',#355,#352,#154,.T.);
#439=EDGE_CURVE('',#356,#321,#214,.T.);
#440=EDGE_CURVE('',#356,#332,#155,.T.);
#441=EDGE_CURVE('',#356,#357,#156,.T.);
#442=EDGE_CURVE('',#357,#320,#215,.T.);
#443=EDGE_CURVE('',#358,#357,#157,.T.);
#444=EDGE_CURVE('',#358,#319,#216,.T.);
#445=EDGE_CURVE('',#358,#359,#158,.T.);
#446=EDGE_CURVE('',#359,#318,#217,.T.);
#447=EDGE_CURVE('',#353,#359,#159,.T.);
#448=EDGE_CURVE('',#360,#360,#160,.T.);
#449=EDGE_CURVE('',#361,#361,#161,.F.);
#450=EDGE_CURVE('',#360,#362,#218,.T.);
#451=EDGE_CURVE('',#362,#363,#162,.T.);
#452=EDGE_CURVE('',#363,#364,#163,.T.);
#453=EDGE_CURVE('',#364,#365,#164,.T.);
#454=EDGE_CURVE('',#365,#366,#165,.T.);
#455=EDGE_CURVE('',#366,#367,#166,.T.);
#456=EDGE_CURVE('',#367,#368,#167,.T.);
#457=EDGE_CURVE('',#368,#362,#168,.T.);
#458=EDGE_CURVE('',#369,#363,#219,.T.);
#459=EDGE_CURVE('',#370,#369,#220,.T.);
#460=EDGE_CURVE('',#364,#370,#221,.T.);
#461=EDGE_CURVE('',#371,#371,#169,.F.);
#462=EDGE_CURVE('',#366,#367,#222,.T.);
#463=EDGE_CURVE('',#366,#372,#223,.T.);
#464=EDGE_CURVE('',#336,#372,#224,.T.);
#465=EDGE_CURVE('',#373,#335,#225,.T.);
#466=EDGE_CURVE('',#367,#373,#226,.T.);
#467=EDGE_CURVE('',#361,#371,#227,.T.);
#468=EDGE_CURVE('',#365,#364,#228,.T.);
#469=EDGE_CURVE('',#363,#368,#229,.T.);
#470=EDGE_CURVE('',#368,#373,#230,.T.);
#471=EDGE_CURVE('',#372,#365,#231,.T.);
#472=EDGE_CURVE('',#374,#369,#232,.T.);
#473=EDGE_CURVE('',#375,#374,#233,.T.);
#474=EDGE_CURVE('',#370,#375,#234,.T.);
#475=EDGE_CURVE('',#340,#343,#235,.T.);
#476=EDGE_CURVE('',#348,#374,#236,.T.);
#477=EDGE_CURVE('',#375,#347,#237,.T.);
#478=EDGE_CURVE('',#334,#349,#238,.T.);
#479=EDGE_CURVE('',#376,#376,#170,.T.);
#480=EDGE_CURVE('',#377,#377,#171,.T.);
#481=EDGE_CURVE('',#378,#378,#172,.T.);
#482=EDGE_CURVE('',#379,#379,#173,.T.);
#483=EDGE_CURVE('',#331,#379,#239,.T.);
#484=EDGE_CURVE('',#330,#378,#240,.T.);
#485=EDGE_CURVE('',#333,#350,#241,.T.);
#486=EDGE_CURVE('',#376,#380,#242,.T.);
#487=EDGE_CURVE('',#380,#380,#174,.T.);
#488=EDGE_CURVE('',#377,#381,#243,.T.);
#489=EDGE_CURVE('',#381,#381,#175,.T.);
#490=ORIENTED_EDGE('',*,*,#382,.T.);
#491=ORIENTED_EDGE('',*,*,#383,.T.);
#492=ORIENTED_EDGE('',*,*,#384,.T.);
#493=ORIENTED_EDGE('',*,*,#385,.T.);
#494=ORIENTED_EDGE('',*,*,#386,.T.);
#495=ORIENTED_EDGE('',*,*,#387,.T.);
#496=ORIENTED_EDGE('',*,*,#388,.T.);
#497=ORIENTED_EDGE('',*,*,#389,.T.);
#498=ORIENTED_EDGE('',*,*,#390,.T.);
#499=ORIENTED_EDGE('',*,*,#391,.T.);
#500=ORIENTED_EDGE('',*,*,#392,.T.);
#501=ORIENTED_EDGE('',*,*,#393,.T.);
#502=ORIENTED_EDGE('',*,*,#394,.T.);
#503=ORIENTED_EDGE('',*,*,#395,.T.);
#504=ORIENTED_EDGE('',*,*,#396,.T.);
#505=ORIENTED_EDGE('',*,*,#397,.T.);
#506=ORIENTED_EDGE('',*,*,#398,.T.);
#507=ORIENTED_EDGE('',*,*,#399,.T.);
#508=ORIENTED_EDGE('',*,*,#400,.T.);
#509=ORIENTED_EDGE('',*,*,#401,.T.);
#510=ORIENTED_EDGE('',*,*,#402,.F.);
#511=ORIENTED_EDGE('',*,*,#403,.T.);
#512=ORIENTED_EDGE('',*,*,#404,.T.);
#513=ORIENTED_EDGE('',*,*,#405,.F.);
#514=ORIENTED_EDGE('',*,*,#406,.T.);
#515=ORIENTED_EDGE('',*,*,#407,.F.);
#516=ORIENTED_EDGE('',*,*,#408,.T.);
#517=ORIENTED_EDGE('',*,*,#392,.F.);
#518=ORIENTED_EDGE('',*,*,#393,.F.);
#519=ORIENTED_EDGE('',*,*,#408,.F.);
#520=ORIENTED_EDGE('',*,*,#409,.F.);
#521=ORIENTED_EDGE('',*,*,#410,.T.);
#522=ORIENTED_EDGE('',*,*,#394,.F.);
#523=ORIENTED_EDGE('',*,*,#410,.F.);
#524=ORIENTED_EDGE('',*,*,#411,.F.);
#525=ORIENTED_EDGE('',*,*,#412,.T.);
#526=ORIENTED_EDGE('',*,*,#395,.F.);
#527=ORIENTED_EDGE('',*,*,#412,.F.);
#528=ORIENTED_EDGE('',*,*,#413,.F.);
#529=ORIENTED_EDGE('',*,*,#414,.F.);
#530=ORIENTED_EDGE('',*,*,#415,.T.);
#531=ORIENTED_EDGE('',*,*,#396,.F.);
#532=ORIENTED_EDGE('',*,*,#415,.F.);
#533=ORIENTED_EDGE('',*,*,#416,.F.);
#534=ORIENTED_EDGE('',*,*,#417,.T.);
#535=ORIENTED_EDGE('',*,*,#397,.F.);
#536=ORIENTED_EDGE('',*,*,#417,.F.);
#537=ORIENTED_EDGE('',*,*,#418,.F.);
#538=ORIENTED_EDGE('',*,*,#419,.F.);
#539=ORIENTED_EDGE('',*,*,#420,.T.);
#540=ORIENTED_EDGE('',*,*,#398,.F.);
#541=ORIENTED_EDGE('',*,*,#420,.F.);
#542=ORIENTED_EDGE('',*,*,#421,.F.);
#543=ORIENTED_EDGE('',*,*,#422,.F.);
#544=ORIENTED_EDGE('',*,*,#399,.F.);
#545=ORIENTED_EDGE('',*,*,#422,.T.);
#546=ORIENTED_EDGE('',*,*,#423,.F.);
#547=ORIENTED_EDGE('',*,*,#424,.T.);
#548=ORIENTED_EDGE('',*,*,#382,.F.);
#549=ORIENTED_EDGE('',*,*,#424,.F.);
#550=ORIENTED_EDGE('',*,*,#425,.F.);
#551=ORIENTED_EDGE('',*,*,#426,.T.);
#552=ORIENTED_EDGE('',*,*,#427,.F.);
#553=ORIENTED_EDGE('',*,*,#428,.F.);
#554=ORIENTED_EDGE('',*,*,#429,.T.);
#555=ORIENTED_EDGE('',*,*,#430,.F.);
#556=ORIENTED_EDGE('',*,*,#430,.T.);
#557=ORIENTED_EDGE('',*,*,#431,.T.);
#558=ORIENTED_EDGE('',*,*,#432,.T.);
#559=ORIENTED_EDGE('',*,*,#383,.F.);
#560=ORIENTED_EDGE('',*,*,#433,.F.);
#561=ORIENTED_EDGE('',*,*,#434,.T.);
#562=ORIENTED_EDGE('',*,*,#386,.F.);
#563=ORIENTED_EDGE('',*,*,#435,.F.);
#564=ORIENTED_EDGE('',*,*,#436,.T.);
#565=ORIENTED_EDGE('',*,*,#435,.T.);
#566=ORIENTED_EDGE('',*,*,#385,.F.);
#567=ORIENTED_EDGE('',*,*,#437,.F.);
#568=ORIENTED_EDGE('',*,*,#438,.F.);
#569=ORIENTED_EDGE('',*,*,#437,.T.);
#570=ORIENTED_EDGE('',*,*,#384,.F.);
#571=ORIENTED_EDGE('',*,*,#432,.F.);
#572=ORIENTED_EDGE('',*,*,#402,.T.);
#573=ORIENTED_EDGE('',*,*,#391,.F.);
#574=ORIENTED_EDGE('',*,*,#439,.F.);
#575=ORIENTED_EDGE('',*,*,#440,.T.);
#576=ORIENTED_EDGE('',*,*,#441,.F.);
#577=ORIENTED_EDGE('',*,*,#439,.T.);
#578=ORIENTED_EDGE('',*,*,#390,.F.);
#579=ORIENTED_EDGE('',*,*,#442,.F.);
#580=ORIENTED_EDGE('',*,*,#443,.T.);
#581=ORIENTED_EDGE('',*,*,#442,.T.);
#582=ORIENTED_EDGE('',*,*,#389,.F.);
#583=ORIENTED_EDGE('',*,*,#444,.F.);
#584=ORIENTED_EDGE('',*,*,#445,.F.);
#585=ORIENTED_EDGE('',*,*,#444,.T.);
#586=ORIENTED_EDGE('',*,*,#388,.F.);
#587=ORIENTED_EDGE('',*,*,#446,.F.);
#588=ORIENTED_EDGE('',*,*,#447,.T.);
#589=ORIENTED_EDGE('',*,*,#446,.T.);
#590=ORIENTED_EDGE('',*,*,#387,.F.);
#591=ORIENTED_EDGE('',*,*,#434,.F.);
#592=ORIENTED_EDGE('',*,*,#448,.F.);
#593=ORIENTED_EDGE('',*,*,#449,.T.);
#594=ORIENTED_EDGE('',*,*,#448,.T.);
#595=ORIENTED_EDGE('',*,*,#450,.T.);
#596=ORIENTED_EDGE('',*,*,#451,.T.);
#597=ORIENTED_EDGE('',*,*,#452,.T.);
#598=ORIENTED_EDGE('',*,*,#453,.T.);
#599=ORIENTED_EDGE('',*,*,#454,.T.);
#600=ORIENTED_EDGE('',*,*,#455,.T.);
#601=ORIENTED_EDGE('',*,*,#456,.T.);
#602=ORIENTED_EDGE('',*,*,#457,.T.);
#603=ORIENTED_EDGE('',*,*,#450,.F.);
#604=ORIENTED_EDGE('',*,*,#452,.F.);
#605=ORIENTED_EDGE('',*,*,#458,.F.);
#606=ORIENTED_EDGE('',*,*,#459,.F.);
#607=ORIENTED_EDGE('',*,*,#460,.F.);
#608=ORIENTED_EDGE('',*,*,#461,.F.);
#609=ORIENTED_EDGE('',*,*,#462,.T.);
#610=ORIENTED_EDGE('',*,*,#455,.F.);
#611=ORIENTED_EDGE('',*,*,#462,.F.);
#612=ORIENTED_EDGE('',*,*,#463,.T.);
#613=ORIENTED_EDGE('',*,*,#464,.F.);
#614=ORIENTED_EDGE('',*,*,#406,.F.);
#615=ORIENTED_EDGE('',*,*,#465,.F.);
#616=ORIENTED_EDGE('',*,*,#466,.F.);
#617=ORIENTED_EDGE('',*,*,#449,.F.);
#618=ORIENTED_EDGE('',*,*,#467,.T.);
#619=ORIENTED_EDGE('',*,*,#461,.T.);
#620=ORIENTED_EDGE('',*,*,#467,.F.);
#621=ORIENTED_EDGE('',*,*,#468,.F.);
#622=ORIENTED_EDGE('',*,*,#453,.F.);
#623=ORIENTED_EDGE('',*,*,#469,.F.);
#624=ORIENTED_EDGE('',*,*,#451,.F.);
#625=ORIENTED_EDGE('',*,*,#457,.F.);
#626=ORIENTED_EDGE('',*,*,#456,.F.);
#627=ORIENTED_EDGE('',*,*,#466,.T.);
#628=ORIENTED_EDGE('',*,*,#470,.F.);
#629=ORIENTED_EDGE('',*,*,#454,.F.);
#630=ORIENTED_EDGE('',*,*,#471,.F.);
#631=ORIENTED_EDGE('',*,*,#463,.F.);
#632=ORIENTED_EDGE('',*,*,#459,.T.);
#633=ORIENTED_EDGE('',*,*,#472,.F.);
#634=ORIENTED_EDGE('',*,*,#473,.F.);
#635=ORIENTED_EDGE('',*,*,#474,.F.);
#636=ORIENTED_EDGE('',*,*,#418,.T.);
#637=ORIENTED_EDGE('',*,*,#416,.T.);
#638=ORIENTED_EDGE('',*,*,#414,.T.);
#639=ORIENTED_EDGE('',*,*,#475,.T.);
#640=ORIENTED_EDGE('',*,*,#473,.T.);
#641=ORIENTED_EDGE('',*,*,#476,.F.);
#642=ORIENTED_EDGE('',*,*,#426,.F.);
#643=ORIENTED_EDGE('',*,*,#477,.F.);
#644=ORIENTED_EDGE('',*,*,#405,.T.);
#645=ORIENTED_EDGE('',*,*,#478,.T.);
#646=ORIENTED_EDGE('',*,*,#427,.T.);
#647=ORIENTED_EDGE('',*,*,#476,.T.);
#648=ORIENTED_EDGE('',*,*,#472,.T.);
#649=ORIENTED_EDGE('',*,*,#458,.T.);
#650=ORIENTED_EDGE('',*,*,#469,.T.);
#651=ORIENTED_EDGE('',*,*,#470,.T.);
#652=ORIENTED_EDGE('',*,*,#465,.T.);
#653=ORIENTED_EDGE('',*,*,#479,.T.);
#654=ORIENTED_EDGE('',*,*,#480,.T.);
#655=ORIENTED_EDGE('',*,*,#413,.T.);
#656=ORIENTED_EDGE('',*,*,#411,.T.);
#657=ORIENTED_EDGE('',*,*,#409,.T.);
#658=ORIENTED_EDGE('',*,*,#407,.T.);
#659=ORIENTED_EDGE('',*,*,#464,.T.);
#660=ORIENTED_EDGE('',*,*,#471,.T.);
#661=ORIENTED_EDGE('',*,*,#468,.T.);
#662=ORIENTED_EDGE('',*,*,#460,.T.);
#663=ORIENTED_EDGE('',*,*,#474,.T.);
#664=ORIENTED_EDGE('',*,*,#477,.T.);
#665=ORIENTED_EDGE('',*,*,#425,.T.);
#666=ORIENTED_EDGE('',*,*,#423,.T.);
#667=ORIENTED_EDGE('',*,*,#421,.T.);
#668=ORIENTED_EDGE('',*,*,#419,.T.);
#669=ORIENTED_EDGE('',*,*,#475,.F.);
#670=ORIENTED_EDGE('',*,*,#481,.T.);
#671=ORIENTED_EDGE('',*,*,#482,.T.);
#672=ORIENTED_EDGE('',*,*,#401,.F.);
#673=ORIENTED_EDGE('',*,*,#483,.T.);
#674=ORIENTED_EDGE('',*,*,#482,.F.);
#675=ORIENTED_EDGE('',*,*,#483,.F.);
#676=ORIENTED_EDGE('',*,*,#400,.F.);
#677=ORIENTED_EDGE('',*,*,#484,.T.);
#678=ORIENTED_EDGE('',*,*,#481,.F.);
#679=ORIENTED_EDGE('',*,*,#484,.F.);
#680=ORIENTED_EDGE('',*,*,#485,.T.);
#681=ORIENTED_EDGE('',*,*,#428,.T.);
#682=ORIENTED_EDGE('',*,*,#478,.F.);
#683=ORIENTED_EDGE('',*,*,#404,.F.);
#684=ORIENTED_EDGE('',*,*,#479,.F.);
#685=ORIENTED_EDGE('',*,*,#486,.T.);
#686=ORIENTED_EDGE('',*,*,#487,.T.);
#687=ORIENTED_EDGE('',*,*,#486,.F.);
#688=ORIENTED_EDGE('',*,*,#480,.F.);
#689=ORIENTED_EDGE('',*,*,#488,.T.);
#690=ORIENTED_EDGE('',*,*,#489,.T.);
#691=ORIENTED_EDGE('',*,*,#488,.F.);
#692=ORIENTED_EDGE('',*,*,#429,.F.);
#693=ORIENTED_EDGE('',*,*,#485,.F.);
#694=ORIENTED_EDGE('',*,*,#403,.F.);
#695=ORIENTED_EDGE('',*,*,#440,.F.);
#696=ORIENTED_EDGE('',*,*,#441,.T.);
#697=ORIENTED_EDGE('',*,*,#443,.F.);
#698=ORIENTED_EDGE('',*,*,#445,.T.);
#699=ORIENTED_EDGE('',*,*,#447,.F.);
#700=ORIENTED_EDGE('',*,*,#433,.T.);
#701=ORIENTED_EDGE('',*,*,#436,.F.);
#702=ORIENTED_EDGE('',*,*,#438,.T.);
#703=ORIENTED_EDGE('',*,*,#431,.F.);
#704=ORIENTED_EDGE('',*,*,#489,.F.);
#705=ORIENTED_EDGE('',*,*,#487,.F.);
#706=PLANE('',#786);
#707=PLANE('',#800);
#708=PLANE('',#801);
#709=PLANE('',#804);
#710=PLANE('',#805);
#711=PLANE('',#806);
#712=PLANE('',#809);
#713=PLANE('',#810);
#714=PLANE('',#829);
#715=PLANE('',#840);
#716=PLANE('',#841);
#717=PLANE('',#843);
#718=PLANE('',#844);
#719=PLANE('',#846);
#720=PLANE('',#847);
#721=PLANE('',#848);
#722=PLANE('',#849);
#723=PLANE('',#850);
#724=PLANE('',#851);
#725=PLANE('',#852);
#726=PLANE('',#853);
#727=PLANE('',#856);
#728=PLANE('',#861);
#729=PLANE('',#866);
#730=ADVANCED_FACE('',(#45,#36,#37),#706,.T.);
#731=ADVANCED_FACE('',(#46),#707,.T.);
#732=ADVANCED_FACE('',(#47),#708,.T.);
#733=ADVANCED_FACE('',(#48),#19,.F.);
#734=ADVANCED_FACE('',(#49),#709,.F.);
#735=ADVANCED_FACE('',(#50),#710,.F.);
#736=ADVANCED_FACE('',(#51),#711,.F.);
#737=ADVANCED_FACE('',(#52),#20,.F.);
#738=ADVANCED_FACE('',(#53),#712,.T.);
#739=ADVANCED_FACE('',(#54),#713,.T.);
#740=ADVANCED_FACE('',(#55),#21,.F.);
#741=ADVANCED_FACE('',(#56),#22,.T.);
#742=ADVANCED_FACE('',(#57),#23,.F.);
#743=ADVANCED_FACE('',(#58),#24,.T.);
#744=ADVANCED_FACE('',(#59),#25,.F.);
#745=ADVANCED_FACE('',(#60),#26,.T.);
#746=ADVANCED_FACE('',(#61),#27,.F.);
#747=ADVANCED_FACE('',(#62),#28,.T.);
#748=ADVANCED_FACE('',(#63),#29,.F.);
#749=ADVANCED_FACE('',(#64,#38),#714,.T.);
#750=ADVANCED_FACE('',(#65),#30,.T.);
#751=ADVANCED_FACE('',(#66),#715,.T.);
#752=ADVANCED_FACE('',(#67),#716,.F.);
#753=ADVANCED_FACE('',(#68),#717,.F.);
#754=ADVANCED_FACE('',(#69),#718,.T.);
#755=ADVANCED_FACE('',(#70),#31,.T.);
#756=ADVANCED_FACE('',(#71),#719,.F.);
#757=ADVANCED_FACE('',(#72),#720,.F.);
#758=ADVANCED_FACE('',(#73),#721,.T.);
#759=ADVANCED_FACE('',(#74),#722,.T.);
#760=ADVANCED_FACE('',(#75),#723,.T.);
#761=ADVANCED_FACE('',(#76),#724,.T.);
#762=ADVANCED_FACE('',(#77),#725,.T.);
#763=ADVANCED_FACE('',(#78,#39,#40),#726,.T.);
#764=ADVANCED_FACE('',(#79,#41,#42),#727,.F.);
#765=ADVANCED_FACE('',(#80),#32,.F.);
#766=ADVANCED_FACE('',(#81),#33,.F.);
#767=ADVANCED_FACE('',(#82),#728,.T.);
#768=ADVANCED_FACE('',(#83),#34,.F.);
#769=ADVANCED_FACE('',(#84),#35,.F.);
#770=ADVANCED_FACE('',(#85,#43,#44),#729,.T.);
#771=CLOSED_SHELL('',(#730,#731,#732,#733,#734,#735,#736,#737,#738,#739,
#740,#741,#742,#743,#744,#745,#746,#747,#748,#749,#750,#751,#752,#753,#754,
#755,#756,#757,#758,#759,#760,#761,#762,#763,#764,#765,#766,#767,#768,#769,
#770));
#772=DERIVED_UNIT_ELEMENT(#774,1.);
#773=DERIVED_UNIT_ELEMENT(#1333,-3.);
#774=(
MASS_UNIT()
NAMED_UNIT(*)
SI_UNIT(.KILO.,.GRAM.)
);
#775=DERIVED_UNIT((#772,#773));
#776=MEASURE_REPRESENTATION_ITEM('density measure',
POSITIVE_RATIO_MEASURE(7850.),#775);
#777=PROPERTY_DEFINITION_REPRESENTATION(#782,#779);
#778=PROPERTY_DEFINITION_REPRESENTATION(#783,#780);
#779=REPRESENTATION('material name',(#781),#1330);
#780=REPRESENTATION('density',(#776),#1330);
#781=DESCRIPTIVE_REPRESENTATION_ITEM('Steel','Steel');
#782=PROPERTY_DEFINITION('material property','material name',#1345);
#783=PROPERTY_DEFINITION('material property','density of part',#1345);
#784=AXIS2_PLACEMENT_3D('',#1104,#868,#869);
#785=AXIS2_PLACEMENT_3D('',#1105,#870,#871);
#786=AXIS2_PLACEMENT_3D('',#1106,#872,#873);
#787=AXIS2_PLACEMENT_3D('',#1111,#875,#876);
#788=AXIS2_PLACEMENT_3D('',#1113,#877,#878);
#789=AXIS2_PLACEMENT_3D('',#1115,#879,#880);
#790=AXIS2_PLACEMENT_3D('',#1117,#881,#882);
#791=AXIS2_PLACEMENT_3D('',#1119,#883,#884);
#792=AXIS2_PLACEMENT_3D('',#1121,#885,#886);
#793=AXIS2_PLACEMENT_3D('',#1123,#887,#888);
#794=AXIS2_PLACEMENT_3D('',#1125,#889,#890);
#795=AXIS2_PLACEMENT_3D('',#1127,#891,#892);
#796=AXIS2_PLACEMENT_3D('',#1133,#895,#896);
#797=AXIS2_PLACEMENT_3D('',#1141,#900,#901);
#798=AXIS2_PLACEMENT_3D('',#1144,#903,#904);
#799=AXIS2_PLACEMENT_3D('',#1146,#905,#906);
#800=AXIS2_PLACEMENT_3D('',#1147,#907,#908);
#801=AXIS2_PLACEMENT_3D('',#1161,#916,#917);
#802=AXIS2_PLACEMENT_3D('',#1165,#920,#921);
#803=AXIS2_PLACEMENT_3D('',#1167,#922,#923);
#804=AXIS2_PLACEMENT_3D('',#1169,#925,#926);
#805=AXIS2_PLACEMENT_3D('',#1175,#930,#931);
#806=AXIS2_PLACEMENT_3D('',#1179,#934,#935);
#807=AXIS2_PLACEMENT_3D('',#1185,#939,#940);
#808=AXIS2_PLACEMENT_3D('',#1187,#941,#942);
#809=AXIS2_PLACEMENT_3D('',#1189,#944,#945);
#810=AXIS2_PLACEMENT_3D('',#1193,#948,#949);
#811=AXIS2_PLACEMENT_3D('',#1205,#956,#957);
#812=AXIS2_PLACEMENT_3D('',#1207,#958,#959);
#813=AXIS2_PLACEMENT_3D('',#1209,#961,#962);
#814=AXIS2_PLACEMENT_3D('',#1212,#963,#964);
#815=AXIS2_PLACEMENT_3D('',#1215,#967,#968);
#816=AXIS2_PLACEMENT_3D('',#1217,#969,#970);
#817=AXIS2_PLACEMENT_3D('',#1219,#972,#973);
#818=AXIS2_PLACEMENT_3D('',#1220,#974,#975);
#819=AXIS2_PLACEMENT_3D('',#1221,#976,#977);
#820=AXIS2_PLACEMENT_3D('',#1224,#979,#980);
#821=AXIS2_PLACEMENT_3D('',#1225,#981,#982);
#822=AXIS2_PLACEMENT_3D('',#1227,#983,#984);
#823=AXIS2_PLACEMENT_3D('',#1229,#986,#987);
#824=AXIS2_PLACEMENT_3D('',#1231,#988,#989);
#825=AXIS2_PLACEMENT_3D('',#1233,#991,#992);
#826=AXIS2_PLACEMENT_3D('',#1235,#993,#994);
#827=AXIS2_PLACEMENT_3D('',#1237,#996,#997);
#828=AXIS2_PLACEMENT_3D('',#1238,#998,#999);
#829=AXIS2_PLACEMENT_3D('',#1239,#1000,#1001);
#830=AXIS2_PLACEMENT_3D('',#1241,#1002,#1003);
#831=AXIS2_PLACEMENT_3D('',#1243,#1004,#1005);
#832=AXIS2_PLACEMENT_3D('',#1244,#1006,#1007);
#833=AXIS2_PLACEMENT_3D('',#1248,#1009,#1010);
#834=AXIS2_PLACEMENT_3D('',#1250,#1011,#1012);
#835=AXIS2_PLACEMENT_3D('',#1252,#1013,#1014);
#836=AXIS2_PLACEMENT_3D('',#1254,#1015,#1016);
#837=AXIS2_PLACEMENT_3D('',#1256,#1017,#1018);
#838=AXIS2_PLACEMENT_3D('',#1258,#1019,#1020);
#839=AXIS2_PLACEMENT_3D('',#1259,#1021,#1022);
#840=AXIS2_PLACEMENT_3D('',#1260,#1023,#1024);
#841=AXIS2_PLACEMENT_3D('',#1266,#1028,#1029);
#842=AXIS2_PLACEMENT_3D('',#1268,#1030,#1031);
#843=AXIS2_PLACEMENT_3D('',#1269,#1032,#1033);
#844=AXIS2_PLACEMENT_3D('',#1271,#1035,#1036);
#845=AXIS2_PLACEMENT_3D('',#1278,#1041,#1042);
#846=AXIS2_PLACEMENT_3D('',#1280,#1044,#1045);
#847=AXIS2_PLACEMENT_3D('',#1282,#1047,#1048);
#848=AXIS2_PLACEMENT_3D('',#1284,#1050,#1051);
#849=AXIS2_PLACEMENT_3D('',#1286,#1053,#1054);
#850=AXIS2_PLACEMENT_3D('',#1288,#1056,#1057);
#851=AXIS2_PLACEMENT_3D('',#1294,#1061,#1062);
#852=AXIS2_PLACEMENT_3D('',#1296,#1064,#1065);
#853=AXIS2_PLACEMENT_3D('',#1299,#1068,#1069);
#854=AXIS2_PLACEMENT_3D('',#1302,#1071,#1072);
#855=AXIS2_PLACEMENT_3D('',#1304,#1073,#1074);
#856=AXIS2_PLACEMENT_3D('',#1305,#1075,#1076);
#857=AXIS2_PLACEMENT_3D('',#1307,#1077,#1078);
#858=AXIS2_PLACEMENT_3D('',#1309,#1079,#1080);
#859=AXIS2_PLACEMENT_3D('',#1310,#1081,#1082);
#860=AXIS2_PLACEMENT_3D('',#1312,#1084,#1085);
#861=AXIS2_PLACEMENT_3D('',#1314,#1087,#1088);
#862=AXIS2_PLACEMENT_3D('',#1316,#1090,#1091);
#863=AXIS2_PLACEMENT_3D('',#1319,#1093,#1094);
#864=AXIS2_PLACEMENT_3D('',#1320,#1095,#1096);
#865=AXIS2_PLACEMENT_3D('',#1323,#1098,#1099);
#866=AXIS2_PLACEMENT_3D('',#1324,#1100,#1101);
#867=AXIS2_PLACEMENT_3D('',#1325,#1102,#1103);
#868=DIRECTION('axis',(0.,0.,1.));
#869=DIRECTION('refdir',(1.,0.,0.));
#870=DIRECTION('axis',(0.,0.,1.));
#871=DIRECTION('refdir',(1.,0.,0.));
#872=DIRECTION('center_axis',(1.,-4.35762537165374E-15,-1.57772181044202E-30));
#873=DIRECTION('ref_axis',(4.35762537165374E-15,1.,-2.2204460492505E-16));
#874=DIRECTION('',(-1.53006441764795E-15,-0.351123441588389,-0.936329177569046));
#875=DIRECTION('center_axis',(1.,-4.35762537165374E-15,-1.57772181044202E-30));
#876=DIRECTION('ref_axis',(0.,-0.551577725012511,-0.834123500010654));
#877=DIRECTION('center_axis',(-1.,4.35762537165374E-15,1.57772181044202E-30));
#878=DIRECTION('ref_axis',(0.,0.999336518531565,-0.0364214597347722));
#879=DIRECTION('center_axis',(1.,-4.35762537165374E-15,-1.57772181044202E-30));
#880=DIRECTION('ref_axis',(0.,-0.999336518531494,0.0364214597367246));
#881=DIRECTION('center_axis',(-1.,4.35762537165374E-15,1.57772181044202E-30));
#882=DIRECTION('ref_axis',(0.,0.279722401774127,0.960080922602733));
#883=DIRECTION('center_axis',(1.,-4.35762537165374E-15,-1.57772181044202E-30));
#884=DIRECTION('ref_axis',(0.,-0.279722401778308,-0.960080922601514));
#885=DIRECTION('center_axis',(-1.,4.35762537165374E-15,1.57772181044202E-30));
#886=DIRECTION('ref_axis',(0.,0.732391490098321,0.680883767783871));
#887=DIRECTION('center_axis',(1.,-4.35762537165374E-15,-1.57772181044202E-30));
#888=DIRECTION('ref_axis',(0.,-0.732391490102517,-0.680883767779358));
#889=DIRECTION('center_axis',(-1.,4.35762537165374E-15,1.57772181044202E-30));
#890=DIRECTION('ref_axis',(0.,-0.481086123715156,0.876673338004941));
#891=DIRECTION('center_axis',(1.,-4.35762537165374E-15,-1.57772181044202E-30));
#892=DIRECTION('ref_axis',(0.,0.481086123712187,-0.87667333800657));
#893=DIRECTION('',(-2.58493917864662E-15,-0.59319903804985,0.805055837353368));
#894=DIRECTION('',(-4.35762537165374E-15,-1.,0.));
#895=DIRECTION('center_axis',(-1.,4.35762537165374E-15,1.57772181044202E-30));
#896=DIRECTION('ref_axis',(4.35762537165374E-15,1.,-2.2204460492505E-16));
#897=DIRECTION('',(-3.53622934414804E-15,-0.811503753202634,-0.584347207179121));
#898=DIRECTION('',(-4.35762537165374E-15,-1.,0.));
#899=DIRECTION('',(-3.5027805157796E-15,-0.803827822961817,0.594862026887299));
#900=DIRECTION('center_axis',(-1.,4.35762537165374E-15,1.57772181044202E-30));
#901=DIRECTION('ref_axis',(4.35762537165374E-15,1.,-2.2204460492505E-16));
#902=DIRECTION('',(-4.35762537165374E-15,-1.,0.));
#903=DIRECTION('center_axis',(-1.,4.35762537165374E-15,1.57772181044202E-30));
#904=DIRECTION('ref_axis',(0.,-1.,0.));
#905=DIRECTION('center_axis',(-1.,4.35762537165374E-15,1.57772181044202E-30));
#906=DIRECTION('ref_axis',(0.,-1.,0.));
#907=DIRECTION('center_axis',(0.,0.805055837353368,0.59319903804985));
#908=DIRECTION('ref_axis',(0.,-0.59319903804985,0.805055837353368));
#909=DIRECTION('',(-1.,0.,0.));
#910=DIRECTION('',(-2.58493917864662E-15,-0.59319903804985,0.805055837353368));
#911=DIRECTION('',(1.,0.,0.));
#912=DIRECTION('',(0.,-0.59319903804985,0.805055837353368));
#913=DIRECTION('',(-1.,0.,0.));
#914=DIRECTION('',(0.,0.59319903804985,-0.805055837353368));
#915=DIRECTION('',(1.,0.,0.));
#916=DIRECTION('center_axis',(0.,0.,1.));
#917=DIRECTION('ref_axis',(0.,-1.,0.));
#918=DIRECTION('',(0.,1.,0.));
#919=DIRECTION('',(1.,-4.35762537165374E-15,-1.57772181044202E-30));
#920=DIRECTION('center_axis',(1.,-4.35762537165374E-15,-1.57772181044202E-30));
#921=DIRECTION('ref_axis',(4.35762537165374E-15,1.,-2.2204460492505E-16));
#922=DIRECTION('center_axis',(1.,0.,0.));
#923=DIRECTION('ref_axis',(4.35762537165374E-15,1.,-2.2204460492505E-16));
#924=DIRECTION('',(1.,-4.35762537165374E-15,-1.57772181044202E-30));
#925=DIRECTION('center_axis',(0.,0.584347207179121,-0.811503753202634));
#926=DIRECTION('ref_axis',(0.,0.811503753202634,0.584347207179121));
#927=DIRECTION('',(0.,0.811503753202634,0.584347207179121));
#928=DIRECTION('',(0.504524011992704,0.700650442550042,0.504524011992706));
#929=DIRECTION('',(1.,0.,0.));
#930=DIRECTION('center_axis',(0.,0.,-1.));
#931=DIRECTION('ref_axis',(0.,1.,0.));
#932=DIRECTION('',(0.,1.,0.));
#933=DIRECTION('',(1.,0.,0.));
#934=DIRECTION('center_axis',(0.,-0.594862026887299,-0.803827822961817));
#935=DIRECTION('ref_axis',(0.,0.803827822961817,-0.594862026887299));
#936=DIRECTION('',(-0.511245189620509,0.690837688737215,-0.511245189620511));
#937=DIRECTION('',(0.,0.803827822961817,-0.594862026887299));
#938=DIRECTION('',(1.,-4.35762537165374E-15,-1.51461293802434E-30));
#939=DIRECTION('center_axis',(1.,-4.35762537165374E-15,-1.57772181044202E-30));
#940=DIRECTION('ref_axis',(4.35762537165374E-15,1.,-2.2204460492505E-16));
#941=DIRECTION('center_axis',(1.,0.,0.));
#942=DIRECTION('ref_axis',(4.35762537165374E-15,1.,-2.2204460492505E-16));
#943=DIRECTION('',(-1.,4.35762537165374E-15,1.57772181044202E-30));
#944=DIRECTION('center_axis',(0.,0.,1.));
#945=DIRECTION('ref_axis',(0.,-1.,0.));
#946=DIRECTION('',(0.,1.,0.));
#947=DIRECTION('',(1.,0.,0.));
#948=DIRECTION('center_axis',(0.,-0.936329177569046,0.351123441588389));
#949=DIRECTION('ref_axis',(0.,-0.351123441588389,-0.936329177569046));
#950=DIRECTION('',(0.,0.351123441588389,0.936329177569046));
#951=DIRECTION('',(1.,0.,0.));
#952=DIRECTION('',(0.,-0.351123441588389,-0.936329177569046));
#953=DIRECTION('',(1.,0.,0.));
#954=DIRECTION('',(-1.53006441764795E-15,-0.351123441588389,-0.936329177569046));
#955=DIRECTION('',(1.,0.,0.));
#956=DIRECTION('center_axis',(1.,0.,0.));
#957=DIRECTION('ref_axis',(0.,-0.551577725012511,-0.834123500010654));
#958=DIRECTION('center_axis',(1.,6.25152389239398E-33,9.45386797373954E-33));
#959=DIRECTION('ref_axis',(1.13338947693223E-32,-0.551577725012511,-0.834123500010654));
#960=DIRECTION('',(-1.,0.,0.));
#961=DIRECTION('center_axis',(1.,0.,0.));
#962=DIRECTION('ref_axis',(0.,0.279722401774127,0.960080922602733));
#963=DIRECTION('center_axis',(1.,2.45420941693576E-32,8.42349281404584E-32));
#964=DIRECTION('ref_axis',(-8.77373210500856E-32,0.279722401774127,0.960080922602733));
#965=DIRECTION('',(-1.,0.,0.));
#966=DIRECTION('',(-1.,0.,0.));
#967=DIRECTION('center_axis',(1.,0.,0.));
#968=DIRECTION('ref_axis',(0.,-0.999336518531494,0.0364214597367246));
#969=DIRECTION('center_axis',(1.,-7.80360859271009E-32,2.84407515276438E-33));
#970=DIRECTION('ref_axis',(-7.80878957988781E-32,-0.999336518531494,0.0364214597367246));
#971=DIRECTION('',(-1.,0.,0.));
#972=DIRECTION('center_axis',(1.,0.,0.));
#973=DIRECTION('ref_axis',(0.,0.999336518531565,-0.0364214597347722));
#974=DIRECTION('center_axis',(1.,1.27322034933785E-31,-4.64033314373836E-33));
#975=DIRECTION('ref_axis',(-1.27406566829834E-31,0.999336518531565,-0.0364214597347722));
#976=DIRECTION('center_axis',(1.,0.,0.));
#977=DIRECTION('ref_axis',(0.,0.481086123712187,-0.87667333800657));
#978=DIRECTION('',(-1.,0.,0.));
#979=DIRECTION('center_axis',(1.,-2.43662845881852E-35,4.44021787199207E-35));
#980=DIRECTION('ref_axis',(5.06484876349552E-35,0.481086123712187,-0.87667333800657));
#981=DIRECTION('center_axis',(1.,0.,0.));
#982=DIRECTION('ref_axis',(0.,-0.481086123715156,0.876673338004941));
#983=DIRECTION('center_axis',(1.,5.27081208726674E-34,-9.60489234413425E-34));
#984=DIRECTION('ref_axis',(1.09560675884044E-33,-0.481086123715156,0.876673338004941));
#985=DIRECTION('',(-1.,0.,0.));
#986=DIRECTION('center_axis',(1.,0.,0.));
#987=DIRECTION('ref_axis',(0.,-0.732391490102517,-0.680883767779358));
#988=DIRECTION('center_axis',(1.,-1.97668859340637E-31,-1.83767178536799E-31));
#989=DIRECTION('ref_axis',(-2.69895079355672E-31,-0.732391490102517,-0.680883767779358));
#990=DIRECTION('',(-1.,0.,0.));
#991=DIRECTION('center_axis',(1.,0.,0.));
#992=DIRECTION('ref_axis',(0.,0.732391490098321,0.680883767783871));
#993=DIRECTION('center_axis',(1.,3.22512349449384E-31,2.99830659720589E-31));
#994=DIRECTION('ref_axis',(-4.40355129476023E-31,0.732391490098321,0.680883767783871));
#995=DIRECTION('',(-1.,0.,0.));
#996=DIRECTION('center_axis',(1.,0.,0.));
#997=DIRECTION('ref_axis',(0.,-0.279722401778308,-0.960080922601514));
#998=DIRECTION('center_axis',(1.,-1.1345493655103E-33,-3.89407210381161E-33));
#999=DIRECTION('ref_axis',(-4.05598321156087E-33,-0.279722401778308,-0.960080922601514));
#1000=DIRECTION('center_axis',(0.,0.,-1.));
#1001=DIRECTION('ref_axis',(-1.,0.,0.));
#1002=DIRECTION('center_axis',(0.,0.,1.));
#1003=DIRECTION('ref_axis',(-1.,0.,0.));
#1004=DIRECTION('center_axis',(0.,0.,-1.));
#1005=DIRECTION('ref_axis',(1.,0.,0.));
#1006=DIRECTION('center_axis',(0.,0.,1.));
#1007=DIRECTION('ref_axis',(-1.,0.,0.));
#1008=DIRECTION('',(0.,0.,1.));
#1009=DIRECTION('center_axis',(0.,0.,-1.));
#1010=DIRECTION('ref_axis',(-1.,0.,0.));
#1011=DIRECTION('center_axis',(0.,-7.48944819617181E-16,-1.));
#1012=DIRECTION('ref_axis',(-1.,0.,0.));
#1013=DIRECTION('center_axis',(0.,0.,-1.));
#1014=DIRECTION('ref_axis',(-1.,0.,0.));
#1015=DIRECTION('center_axis',(0.,-7.48944819617181E-16,-1.));
#1016=DIRECTION('ref_axis',(-1.,0.,0.));
#1017=DIRECTION('center_axis',(0.,0.,-1.));
#1018=DIRECTION('ref_axis',(-1.,0.,0.));
#1019=DIRECTION('center_axis',(0.,-7.48944819617181E-16,-1.));
#1020=DIRECTION('ref_axis',(-1.,0.,0.));
#1021=DIRECTION('center_axis',(0.,0.,-1.));
#1022=DIRECTION('ref_axis',(-1.,0.,0.));
#1023=DIRECTION('center_axis',(0.,-7.48944819617181E-16,-1.));
#1024=DIRECTION('ref_axis',(0.,1.,-7.4894481961718E-16));
#1025=DIRECTION('',(0.,1.,-7.4894481961718E-16));
#1026=DIRECTION('',(1.,0.,0.));
#1027=DIRECTION('',(0.,-1.,7.4894481961718E-16));
#1028=DIRECTION('center_axis',(1.75162308040602E-46,2.29005884293257E-90,
1.));
#1029=DIRECTION('ref_axis',(1.,0.,-1.75162308040602E-46));
#1030=DIRECTION('center_axis',(-1.75162308040602E-46,-2.29005884293257E-90,
-1.));
#1031=DIRECTION('ref_axis',(1.,0.,0.));
#1032=DIRECTION('center_axis',(0.,-7.48944819617181E-16,-1.));
#1033=DIRECTION('ref_axis',(0.,1.,-7.4894481961718E-16));
#1034=DIRECTION('',(1.,0.,0.));
#1035=DIRECTION('center_axis',(0.,1.,0.));
#1036=DIRECTION('ref_axis',(0.,0.,1.));
#1037=DIRECTION('',(-1.,0.,0.));
#1038=DIRECTION('',(0.,0.,-1.));
#1039=DIRECTION('',(0.,0.,1.));
#1040=DIRECTION('',(1.,0.,0.));
#1041=DIRECTION('center_axis',(0.,0.,1.));
#1042=DIRECTION('ref_axis',(1.,0.,0.));
#1043=DIRECTION('',(0.,0.,-1.));
#1044=DIRECTION('center_axis',(0.,-7.48944819617181E-16,-1.));
#1045=DIRECTION('ref_axis',(0.,1.,-7.4894481961718E-16));
#1046=DIRECTION('',(0.,-1.,7.4894481961718E-16));
#1047=DIRECTION('center_axis',(0.,-7.48944819617181E-16,-1.));
#1048=DIRECTION('ref_axis',(0.,1.,-7.4894481961718E-16));
#1049=DIRECTION('',(0.,1.,-7.4894481961718E-16));
#1050=DIRECTION('center_axis',(0.,-7.48944819617181E-16,-1.));
#1051=DIRECTION('ref_axis',(0.,1.,-7.4894481961718E-16));
#1052=DIRECTION('',(0.,1.,-7.4894481961718E-16));
#1053=DIRECTION('center_axis',(0.,-7.48944819617181E-16,-1.));
#1054=DIRECTION('ref_axis',(0.,1.,-7.4894481961718E-16));
#1055=DIRECTION('',(0.,-1.,7.4894481961718E-16));
#1056=DIRECTION('center_axis',(0.,-0.707106781186547,-0.707106781186548));
#1057=DIRECTION('ref_axis',(0.,0.707106781186548,-0.707106781186547));
#1058=DIRECTION('',(0.,0.707106781186548,-0.707106781186547));
#1059=DIRECTION('',(1.,0.,0.));
#1060=DIRECTION('',(0.,-0.707106781186548,0.707106781186547));
#1061=DIRECTION('center_axis',(-0.707106781186549,0.,0.707106781186546));
#1062=DIRECTION('ref_axis',(-0.707106781186546,0.,-0.707106781186549));
#1063=DIRECTION('',(0.,-1.,0.));
#1064=DIRECTION('center_axis',(0.,-1.,1.04322291893793E-14));
#1065=DIRECTION('ref_axis',(0.,-1.04322291893793E-14,-1.));
#1066=DIRECTION('',(0.,-1.04322291893793E-14,-1.));
#1067=DIRECTION('',(0.,1.04322291893793E-14,1.));
#1068=DIRECTION('center_axis',(1.,0.,0.));
#1069=DIRECTION('ref_axis',(0.,-1.,0.));
#1070=DIRECTION('',(0.,-1.,0.));
#1071=DIRECTION('center_axis',(-1.,5.57808895494814E-31,3.26756885768421E-31));
#1072=DIRECTION('ref_axis',(-5.57808895494814E-31,-1.,0.));
#1073=DIRECTION('center_axis',(-1.,2.71175692629966E-75,-9.32182794034384E-120));
#1074=DIRECTION('ref_axis',(-2.71175692629966E-75,-1.,0.));
#1075=DIRECTION('center_axis',(1.,0.,0.));
#1076=DIRECTION('ref_axis',(0.,-1.,0.));
#1077=DIRECTION('center_axis',(1.,-5.57808895494814E-31,-3.26756885768421E-31));
#1078=DIRECTION('ref_axis',(-5.57808895494814E-31,-1.,0.));
#1079=DIRECTION('center_axis',(1.,-2.71175692629966E-75,9.32182794034384E-120));
#1080=DIRECTION('ref_axis',(-2.71175692629966E-75,-1.,0.));
#1081=DIRECTION('center_axis',(1.,0.,0.));
#1082=DIRECTION('ref_axis',(0.,-1.,0.));
#1083=DIRECTION('',(-1.,0.,0.));
#1084=DIRECTION('center_axis',(1.,0.,0.));
#1085=DIRECTION('ref_axis',(0.,-1.,0.));
#1086=DIRECTION('',(-1.,0.,0.));
#1087=DIRECTION('center_axis',(0.,0.,1.));
#1088=DIRECTION('ref_axis',(0.,-1.,0.));
#1089=DIRECTION('',(-4.35762537165374E-15,-1.,0.));
#1090=DIRECTION('center_axis',(1.,0.,0.));
#1091=DIRECTION('ref_axis',(0.,-1.,0.));
#1092=DIRECTION('',(-1.,0.,0.));
#1093=DIRECTION('center_axis',(-1.,0.,0.));
#1094=DIRECTION('ref_axis',(0.,-1.,0.));
#1095=DIRECTION('center_axis',(1.,0.,0.));
#1096=DIRECTION('ref_axis',(0.,-1.,0.));
#1097=DIRECTION('',(-1.,0.,0.));
#1098=DIRECTION('center_axis',(-1.,0.,0.));
#1099=DIRECTION('ref_axis',(0.,-1.,0.));
#1100=DIRECTION('center_axis',(-1.,4.35762537165374E-15,1.57772181044202E-30));
#1101=DIRECTION('ref_axis',(-2.52435489670724E-30,-2.2204460492505E-16,
-1.));
#1102=DIRECTION('',(0.,0.,1.));
#1103=DIRECTION('',(1.,0.,0.));
#1104=CARTESIAN_POINT('',(0.,0.,0.));
#1105=CARTESIAN_POINT('',(0.,0.,0.));
#1106=CARTESIAN_POINT('Origin',(-119.80360455513,-62.4999999999997,-42.5523058509827));
#1107=CARTESIAN_POINT('',(-119.803604555131,-84.0000012516975,-73.9999998360872));
#1108=CARTESIAN_POINT('',(-119.803604555131,-85.0842197078104,-76.8912490523883));
#1109=CARTESIAN_POINT('',(-119.80360455513,-77.5051747660278,-56.6804625409678));
#1110=CARTESIAN_POINT('',(-119.803604555131,-82.2726396845713,-78.5835800430527));
#1111=CARTESIAN_POINT('Origin',(-119.80360455513,-62.5000000000002,-42.5523058509827));
#1112=CARTESIAN_POINT('',(-119.803604555131,-81.2879639344202,-80.3184601587588));
#1113=CARTESIAN_POINT('Origin',(-119.80360455513,-83.1867033196302,-80.2492593852627));
#1114=CARTESIAN_POINT('',(-119.80360455513,-75.919607107656,-82.5421063640652));
#1115=CARTESIAN_POINT('Origin',(-119.80360455513,-78.1900207269705,-80.4313666839427));
#1116=CARTESIAN_POINT('',(-119.80360455513,-73.9965907130894,-82.0116317699075));
#1117=CARTESIAN_POINT('Origin',(-119.80360455513,-74.5280632764602,-83.8357855228527));
#1118=CARTESIAN_POINT('',(-119.80360455513,-51.0034092869114,-82.0116317699076));
#1119=CARTESIAN_POINT('Origin',(-119.80360455513,-62.5000000000002,-42.5523058509827));
#1120=CARTESIAN_POINT('',(-119.80360455513,-49.0803928923534,-82.5421063640634));
#1121=CARTESIAN_POINT('Origin',(-119.80360455513,-50.4719367235402,-83.8357855228527));
#1122=CARTESIAN_POINT('',(-119.80360455513,-43.7120360655761,-80.3184601587588));
#1123=CARTESIAN_POINT('Origin',(-119.80360455513,-46.8099792730305,-80.4313666839427));
#1124=CARTESIAN_POINT('',(-119.80360455513,-42.727360315429,-78.5835800430533));
#1125=CARTESIAN_POINT('Origin',(-119.80360455513,-41.8132966803702,-80.2492593852627));
#1126=CARTESIAN_POINT('',(-119.80360455513,-39.2162369813363,-76.4208219048454));
#1127=CARTESIAN_POINT('Origin',(-119.80360455513,-62.5000000000002,-42.5523058509827));
#1128=CARTESIAN_POINT('',(-119.80360455513,-41.0000006109476,-73.9999998360872));
#1129=CARTESIAN_POINT('',(-119.80360455513,-47.5418194080703,-65.1218171828493));
#1130=CARTESIAN_POINT('',(-119.80360455513,-47.1363239093233,-73.9999998360872));
#1131=CARTESIAN_POINT('',(-119.80360455513,-51.7500003054736,-73.9999998360872));
#1132=CARTESIAN_POINT('',(-119.80360455513,-50.8090598164368,-75.5420302757844));
#1133=CARTESIAN_POINT('Origin',(-119.80360455513,-62.4999999999997,-42.5523058509827));
#1134=CARTESIAN_POINT('',(-119.80360455513,-57.0000008493662,-79.9999999254942));
#1135=CARTESIAN_POINT('',(-119.80360455513,-49.9321336461516,-74.9105737280037));
#1136=CARTESIAN_POINT('',(-119.80360455513,-68.000001013279,-79.9999999254942));
#1137=CARTESIAN_POINT('',(-119.80360455513,-65.2500005066393,-79.9999999254942));
#1138=CARTESIAN_POINT('',(-119.80360455513,-73.8749725274397,-75.6523058509827));
#1139=CARTESIAN_POINT('',(-119.80360455513,-78.1137229044723,-72.515475339866));
#1140=CARTESIAN_POINT('',(-119.80360455513,-77.8636760906761,-73.9999998360872));
#1141=CARTESIAN_POINT('Origin',(-119.80360455513,-62.4999999999997,-42.5523058509827));
#1142=CARTESIAN_POINT('',(-119.80360455513,-51.7500003054736,-73.9999998360872));
#1143=CARTESIAN_POINT('',(-119.80360455513,-45.0599792730302,-80.4313666839427));
#1144=CARTESIAN_POINT('Origin',(-119.80360455513,-46.8099792730302,-80.4313666839427));
#1145=CARTESIAN_POINT('',(-119.80360455513,-76.4400207269702,-80.4313666839427));
#1146=CARTESIAN_POINT('Origin',(-119.80360455513,-78.1900207269702,-80.4313666839427));
#1147=CARTESIAN_POINT('Origin',(-86.6036045551304,-31.5000000000008,-86.8928578080864));
#1148=CARTESIAN_POINT('',(-86.6036045551304,-39.2162369813363,-76.4208219048454));
#1149=CARTESIAN_POINT('',(-86.6036045551304,-39.2162369813363,-76.4208219048454));
#1150=CARTESIAN_POINT('',(-86.6036045551303,-41.0000006109476,-73.9999998360872));
#1151=CARTESIAN_POINT('',(-86.6036045551303,-47.5418194080703,-65.1218171828493));
#1152=CARTESIAN_POINT('',(-81.6036045551304,-41.0000006109476,-73.9999998360872));
#1153=CARTESIAN_POINT('',(-86.6036045551304,-41.0000006109476,-73.9999998360872));
#1154=CARTESIAN_POINT('',(-81.6036045551304,-31.5000000000009,-86.8928578080864));
#1155=CARTESIAN_POINT('',(-81.6036045551304,-24.7894740536025,-96.0000001639128));
#1156=CARTESIAN_POINT('',(-123.60360455513,-31.5000000000009,-86.8928578080864));
#1157=CARTESIAN_POINT('',(-81.6036045551304,-31.5000000000009,-86.8928578080864));
#1158=CARTESIAN_POINT('',(-123.60360455513,-41.0000006109476,-73.9999998360872));
#1159=CARTESIAN_POINT('',(-123.60360455513,-24.7894740536025,-96.0000001639128));
#1160=CARTESIAN_POINT('',(-86.6036045551304,-41.0000006109476,-73.9999998360872));
#1161=CARTESIAN_POINT('Origin',(-86.6036045551304,-41.0000006109476,-73.9999998360872));
#1162=CARTESIAN_POINT('',(-123.60360455513,-47.1363239093233,-73.9999998360872));
#1163=CARTESIAN_POINT('',(-123.60360455513,-41.0000006109476,-73.9999998360872));
#1164=CARTESIAN_POINT('',(-135.60360455513,-47.1363239093232,-73.9999998360872));
#1165=CARTESIAN_POINT('Origin',(-135.60360455513,-62.4999999999996,-42.5523058509827));
#1166=CARTESIAN_POINT('',(-123.60360455513,-50.8090598164363,-75.5420302757841));
#1167=CARTESIAN_POINT('Origin',(-123.60360455513,-62.4999999999996,-42.5523058509827));
#1168=CARTESIAN_POINT('',(-135.60360455513,-50.8090598164367,-75.5420302757844));
#1169=CARTESIAN_POINT('Origin',(-123.60360455513,-57.0000008493662,-79.9999999254942));
#1170=CARTESIAN_POINT('',(-123.60360455513,-59.7774719940306,-81.9999999254942));
#1171=CARTESIAN_POINT('',(-123.60360455513,-58.6226480865785,-81.1684349173964));
#1172=CARTESIAN_POINT('',(-121.60360455513,-57.0000008493662,-79.9999999254942));
#1173=CARTESIAN_POINT('',(-123.202132255662,-59.2199331304532,-81.598527626026));
#1174=CARTESIAN_POINT('',(-123.60360455513,-57.0000008493662,-79.9999999254942));
#1175=CARTESIAN_POINT('Origin',(-123.60360455513,-68.000001013279,-79.9999999254942));
#1176=CARTESIAN_POINT('',(-121.60360455513,-68.000001013279,-79.9999999254942));
#1177=CARTESIAN_POINT('',(-121.60360455513,-63.1638154923369,-79.9999999254942));
#1178=CARTESIAN_POINT('',(-123.60360455513,-68.000001013279,-79.9999999254942));
#1179=CARTESIAN_POINT('Origin',(-123.60360455513,-73.8749725274396,-75.6523058509825));
#1180=CARTESIAN_POINT('',(-123.60360455513,-65.297432059036,-81.9999999254942));
#1181=CARTESIAN_POINT('',(-121.3747227837,-68.3092853981096,-79.7711181540633));
#1182=CARTESIAN_POINT('',(-123.60360455513,-73.8749725274396,-75.6523058509827));
#1183=CARTESIAN_POINT('',(-123.60360455513,-66.6172212389831,-81.0233075988284));
#1184=CARTESIAN_POINT('',(-134.60360455513,-73.8749725274396,-75.6523058509827));
#1185=CARTESIAN_POINT('Origin',(-135.60360455513,-62.4999999999996,-42.5523058509827));
#1186=CARTESIAN_POINT('',(-123.60360455513,-77.863676090676,-73.9999998360872));
#1187=CARTESIAN_POINT('Origin',(-123.60360455513,-62.4999999999996,-42.5523058509827));
#1188=CARTESIAN_POINT('',(-135.603604555131,-77.863676090676,-73.9999998360872));
#1189=CARTESIAN_POINT('Origin',(-86.6036045551304,-41.0000006109476,-73.9999998360872));
#1190=CARTESIAN_POINT('',(-123.60360455513,-84.0000012516975,-73.9999998360872));
#1191=CARTESIAN_POINT('',(-123.60360455513,-41.0000006109476,-73.9999998360872));
#1192=CARTESIAN_POINT('',(-86.6036045551304,-84.0000012516975,-73.9999998360872));
#1193=CARTESIAN_POINT('Origin',(-86.6036045551304,-84.0000012516975,-73.9999998360872));
#1194=CARTESIAN_POINT('',(-123.60360455513,-85.1552599427885,-77.0806896789966));
#1195=CARTESIAN_POINT('',(-123.60360455513,-84.0000012516975,-73.9999998360872));
#1196=CARTESIAN_POINT('',(-81.6036045551304,-85.1552599427885,-77.0806896789966));
#1197=CARTESIAN_POINT('',(-86.6036045551304,-85.1552599427885,-77.0806896789966));
#1198=CARTESIAN_POINT('',(-81.6036045551304,-84.0000012516975,-73.9999998360872));
#1199=CARTESIAN_POINT('',(-81.6036045551304,-84.0000012516975,-73.9999998360872));
#1200=CARTESIAN_POINT('',(-86.6036045551305,-84.0000012516975,-73.9999998360872));
#1201=CARTESIAN_POINT('',(-86.6036045551304,-84.0000012516975,-73.9999998360872));
#1202=CARTESIAN_POINT('',(-86.6036045551304,-85.0842197078104,-76.8912490523883));
#1203=CARTESIAN_POINT('',(-86.6036045551305,-77.5051747660278,-56.6804625409678));
#1204=CARTESIAN_POINT('',(-86.6036045551304,-85.0842197078104,-76.8912490523883));
#1205=CARTESIAN_POINT('Origin',(-86.6036045551304,-62.5000000000002,-42.5523058509827));
#1206=CARTESIAN_POINT('',(-86.6036045551304,-82.2726396845713,-78.5835800430527));
#1207=CARTESIAN_POINT('Origin',(-86.6036045551304,-62.5000000000002,-42.5523058509827));
#1208=CARTESIAN_POINT('',(-86.6036045551304,-82.2726396845713,-78.5835800430527));
#1209=CARTESIAN_POINT('Origin',(-86.6036045551304,-74.5280632764602,-83.8357855228527));
#1210=CARTESIAN_POINT('',(-86.6036045551304,-73.9965907130894,-82.0116317699075));
#1211=CARTESIAN_POINT('',(-86.6036045551304,-75.919607107656,-82.5421063640652));
#1212=CARTESIAN_POINT('Origin',(-86.6036045551304,-74.5280632764602,-83.8357855228527));
#1213=CARTESIAN_POINT('',(-86.6036045551304,-73.9965907130894,-82.0116317699075));
#1214=CARTESIAN_POINT('',(-86.6036045551304,-75.919607107656,-82.5421063640652));
#1215=CARTESIAN_POINT('Origin',(-86.6036045551304,-78.1900207269705,-80.4313666839427));
#1216=CARTESIAN_POINT('',(-86.6036045551304,-81.2879639344202,-80.3184601587588));
#1217=CARTESIAN_POINT('Origin',(-86.6036045551304,-78.1900207269705,-80.4313666839427));
#1218=CARTESIAN_POINT('',(-86.6036045551304,-81.2879639344202,-80.3184601587588));
#1219=CARTESIAN_POINT('Origin',(-86.6036045551304,-83.1867033196302,-80.2492593852627));
#1220=CARTESIAN_POINT('Origin',(-86.6036045551304,-83.1867033196302,-80.2492593852627));
#1221=CARTESIAN_POINT('Origin',(-86.6036045551304,-62.5000000000002,-42.5523058509827));
#1222=CARTESIAN_POINT('',(-86.6036045551304,-42.727360315429,-78.5835800430533));
#1223=CARTESIAN_POINT('',(-86.6036045551304,-42.727360315429,-78.5835800430533));
#1224=CARTESIAN_POINT('Origin',(-86.6036045551304,-62.5000000000002,-42.5523058509827));
#1225=CARTESIAN_POINT('Origin',(-86.6036045551304,-41.8132966803702,-80.2492593852627));
#1226=CARTESIAN_POINT('',(-86.6036045551304,-43.7120360655761,-80.3184601587588));
#1227=CARTESIAN_POINT('Origin',(-86.6036045551304,-41.8132966803702,-80.2492593852627));
#1228=CARTESIAN_POINT('',(-86.6036045551304,-43.7120360655761,-80.3184601587588));
#1229=CARTESIAN_POINT('Origin',(-86.6036045551304,-46.8099792730305,-80.4313666839427));
#1230=CARTESIAN_POINT('',(-86.6036045551304,-49.0803928923534,-82.5421063640634));
#1231=CARTESIAN_POINT('Origin',(-86.6036045551304,-46.8099792730305,-80.4313666839427));
#1232=CARTESIAN_POINT('',(-86.6036045551304,-49.0803928923534,-82.5421063640634));
#1233=CARTESIAN_POINT('Origin',(-86.6036045551304,-50.4719367235402,-83.8357855228527));
#1234=CARTESIAN_POINT('',(-86.6036045551304,-51.0034092869114,-82.0116317699076));
#1235=CARTESIAN_POINT('Origin',(-86.6036045551304,-50.4719367235402,-83.8357855228527));
#1236=CARTESIAN_POINT('',(-86.6036045551304,-51.0034092869114,-82.0116317699076));
#1237=CARTESIAN_POINT('Origin',(-86.6036045551304,-62.5000000000002,-42.5523058509827));
#1238=CARTESIAN_POINT('Origin',(-86.6036045551304,-62.5000000000002,-42.5523058509827));
#1239=CARTESIAN_POINT('Origin',(-103.10360455513,-50.0000000000003,-97.0000001639128));
#1240=CARTESIAN_POINT('',(-78.10360455513,-50.0000000000003,-97.0000001639128));
#1241=CARTESIAN_POINT('Origin',(-103.10360455513,-50.0000000000003,-97.0000001639128));
#1242=CARTESIAN_POINT('',(-125.55360455513,-50.0000000000004,-97.0000001639128));
#1243=CARTESIAN_POINT('Origin',(-103.10360455513,-50.0000000000004,-97.0000001639128));
#1244=CARTESIAN_POINT('Origin',(-103.10360455513,-50.0000000000003,-96.0000001639128));
#1245=CARTESIAN_POINT('',(-78.10360455513,-50.0000000000003,-96.0000001639127));
#1246=CARTESIAN_POINT('',(-78.10360455513,-50.0000000000003,-96.0000001639128));
#1247=CARTESIAN_POINT('',(-81.6036045551304,-62.7573508221741,-96.0000001639128));
#1248=CARTESIAN_POINT('Origin',(-103.10360455513,-50.0000000000003,-96.0000001639128));
#1249=CARTESIAN_POINT('',(-123.60360455513,-64.309088021254,-96.0000001639128));
#1250=CARTESIAN_POINT('Origin',(-103.10360455513,-50.0000000000003,-96.0000001639128));
#1251=CARTESIAN_POINT('',(-123.60360455513,-35.6909119787467,-96.0000001639128));
#1252=CARTESIAN_POINT('Origin',(-103.10360455513,-50.0000000000003,-96.0000001639128));
#1253=CARTESIAN_POINT('',(-119.918776275931,-31.5000000000009,-96.0000001639128));
#1254=CARTESIAN_POINT('Origin',(-103.10360455513,-50.0000000000003,-96.0000001639128));
#1255=CARTESIAN_POINT('',(-86.2884328343292,-31.5000000000009,-96.0000001639128));
#1256=CARTESIAN_POINT('Origin',(-103.10360455513,-50.0000000000003,-96.0000001639128));
#1257=CARTESIAN_POINT('',(-81.6036045551304,-37.2426491778265,-96.0000001639128));
#1258=CARTESIAN_POINT('Origin',(-103.10360455513,-50.0000000000003,-96.0000001639128));
#1259=CARTESIAN_POINT('Origin',(-103.10360455513,-50.0000000000003,-96.0000001639128));
#1260=CARTESIAN_POINT('Origin',(-86.6036045551304,-78.1552599427887,-96.0000001639128));
#1261=CARTESIAN_POINT('',(-81.6036045551304,-78.1552599427887,-96.0000001639128));
#1262=CARTESIAN_POINT('',(-81.6036045551304,-78.1552599427887,-96.0000001639128));
#1263=CARTESIAN_POINT('',(-123.60360455513,-78.1552599427887,-96.0000001639128));
#1264=CARTESIAN_POINT('',(-86.6036045551304,-78.1552599427887,-96.0000001639128));
#1265=CARTESIAN_POINT('',(-123.60360455513,-78.1552599427887,-96.0000001639128));
#1266=CARTESIAN_POINT('Origin',(-103.10360455513,-50.0000000000004,-102.836424041163));
#1267=CARTESIAN_POINT('',(-125.55360455513,-50.0000000000004,-102.836424041163));
#1268=CARTESIAN_POINT('Origin',(-103.10360455513,-50.0000000000004,-102.836424041163));
#1269=CARTESIAN_POINT('Origin',(-86.6036045551304,-78.1552599427887,-96.0000001639128));
#1270=CARTESIAN_POINT('',(-86.6036045551304,-31.5000000000009,-96.0000001639128));
#1271=CARTESIAN_POINT('Origin',(-86.6036045551304,-31.5000000000009,-96.0000001639128));
#1272=CARTESIAN_POINT('',(-123.60360455513,-31.5000000000009,-96.0000001639128));
#1273=CARTESIAN_POINT('',(-81.6036045551304,-31.5000000000009,-96.0000001639128));
#1274=CARTESIAN_POINT('',(-123.60360455513,-31.5000000000009,-86.8928578080864));
#1275=CARTESIAN_POINT('',(-81.6036045551304,-31.5000000000009,-96.0000001639128));
#1276=CARTESIAN_POINT('',(-81.6036045551304,-31.5000000000009,-86.8928578080864));
#1277=CARTESIAN_POINT('',(-86.6036045551304,-31.5000000000009,-96.0000001639128));
#1278=CARTESIAN_POINT('Origin',(-103.10360455513,-50.0000000000004,-96.836424041163));
#1279=CARTESIAN_POINT('',(-125.55360455513,-50.0000000000004,-96.836424041163));
#1280=CARTESIAN_POINT('Origin',(-86.6036045551304,-78.1552599427887,-96.0000001639128));
#1281=CARTESIAN_POINT('',(-123.60360455513,-78.1552599427887,-96.0000001639128));
#1282=CARTESIAN_POINT('Origin',(-86.6036045551304,-78.1552599427887,-96.0000001639128));
#1283=CARTESIAN_POINT('',(-81.6036045551304,-78.1552599427887,-96.0000001639128));
#1284=CARTESIAN_POINT('Origin',(-86.6036045551304,-78.1552599427887,-96.0000001639128));
#1285=CARTESIAN_POINT('',(-81.6036045551304,-78.1552599427887,-96.0000001639128));
#1286=CARTESIAN_POINT('Origin',(-86.6036045551304,-78.1552599427887,-96.0000001639128));
#1287=CARTESIAN_POINT('',(-123.60360455513,-78.1552599427887,-96.0000001639128));
#1288=CARTESIAN_POINT('Origin',(-86.6036045551304,-85.1552599427887,-89.0000001639127));
#1289=CARTESIAN_POINT('',(-81.6036045551304,-85.1552599427887,-89.0000001639127));
#1290=CARTESIAN_POINT('',(-81.6036045551304,-85.1552599427887,-89.0000001639127));
#1291=CARTESIAN_POINT('',(-123.60360455513,-85.1552599427887,-89.0000001639127));
#1292=CARTESIAN_POINT('',(-86.6036045551304,-85.1552599427887,-89.0000001639127));
#1293=CARTESIAN_POINT('',(-123.60360455513,-85.1552599427887,-89.0000001639127));
#1294=CARTESIAN_POINT('Origin',(-122.60360455513,-63.1638154923369,-80.9999999254942));
#1295=CARTESIAN_POINT('',(-123.60360455513,-63.1638154923369,-81.9999999254942));
#1296=CARTESIAN_POINT('Origin',(-86.6036045551304,-85.1552599427885,-77.0806896789966));
#1297=CARTESIAN_POINT('',(-81.6036045551304,-85.1552599427885,-77.0806896789966));
#1298=CARTESIAN_POINT('',(-123.60360455513,-85.1552599427885,-77.0806896789966));
#1299=CARTESIAN_POINT('Origin',(-81.6036045551304,-58.3276299713948,-85.));
#1300=CARTESIAN_POINT('',(-81.6036045551304,-41.0000006109476,-73.9999998360872));
#1301=CARTESIAN_POINT('',(-81.6036045551304,-45.0599792730302,-80.4313666839427));
#1302=CARTESIAN_POINT('Origin',(-81.6036045551304,-46.8099792730302,-80.4313666839427));
#1303=CARTESIAN_POINT('',(-81.6036045551304,-76.4400207269702,-80.4313666839427));
#1304=CARTESIAN_POINT('Origin',(-81.6036045551304,-78.1900207269702,-80.4313666839427));
#1305=CARTESIAN_POINT('Origin',(-123.60360455513,-58.3276299713948,-85.));
#1306=CARTESIAN_POINT('',(-123.60360455513,-45.0599792730302,-80.4313666839427));
#1307=CARTESIAN_POINT('Origin',(-123.60360455513,-46.8099792730302,-80.4313666839427));
#1308=CARTESIAN_POINT('',(-123.60360455513,-76.4400207269702,-80.4313666839427));
#1309=CARTESIAN_POINT('Origin',(-123.60360455513,-78.1900207269702,-80.4313666839427));
#1310=CARTESIAN_POINT('Origin',(-86.6036045551304,-78.1900207269702,-80.4313666839427));
#1311=CARTESIAN_POINT('',(-86.6036045551304,-76.4400207269702,-80.4313666839427));
#1312=CARTESIAN_POINT('Origin',(-86.6036045551304,-46.8099792730302,-80.4313666839427));
#1313=CARTESIAN_POINT('',(-86.6036045551304,-45.0599792730302,-80.4313666839427));
#1314=CARTESIAN_POINT('Origin',(-86.6036045551304,-41.0000006109476,-73.9999998360872));
#1315=CARTESIAN_POINT('',(-86.6036045551304,-51.7500003054737,-73.9999998360872));
#1316=CARTESIAN_POINT('Origin',(-86.6036045551304,-46.8099792730302,-80.4313666839427));
#1317=CARTESIAN_POINT('',(-86.6036045551302,-45.0599792730302,-80.4313666839427));
#1318=CARTESIAN_POINT('',(-86.6036045551304,-45.0599792730302,-80.4313666839427));
#1319=CARTESIAN_POINT('Origin',(-86.6036045551302,-46.8099792730302,-80.4313666839427));
#1320=CARTESIAN_POINT('Origin',(-86.6036045551304,-78.1900207269702,-80.4313666839427));
#1321=CARTESIAN_POINT('',(-86.6036045551308,-76.4400207269702,-80.4313666839427));
#1322=CARTESIAN_POINT('',(-86.6036045551304,-76.4400207269702,-80.4313666839427));
#1323=CARTESIAN_POINT('Origin',(-86.6036045551308,-78.1900207269702,-80.4313666839427));
#1324=CARTESIAN_POINT('Origin',(-86.6036045551304,-62.4999999999998,-42.5523058509827));
#1325=CARTESIAN_POINT('',(0.,0.,0.));
#1326=UNCERTAINTY_MEASURE_WITH_UNIT(LENGTH_MEASURE(0.01),#1332,
'DISTANCE_ACCURACY_VALUE',
'Maximum model space distance between geometric entities at asserted c
onnectivities');
#1327=UNCERTAINTY_MEASURE_WITH_UNIT(LENGTH_MEASURE(0.01),#1332,
'DISTANCE_ACCURACY_VALUE',
'Maximum model space distance between geometric entities at asserted c
onnectivities');
#1328=UNCERTAINTY_MEASURE_WITH_UNIT(LENGTH_MEASURE(0.01),#1332,
'DISTANCE_ACCURACY_VALUE',
'Maximum model space distance between geometric entities at asserted c
onnectivities');
#1329=(
GEOMETRIC_REPRESENTATION_CONTEXT(3)
GLOBAL_UNCERTAINTY_ASSIGNED_CONTEXT((#1326))
GLOBAL_UNIT_ASSIGNED_CONTEXT((#1332,#1334,#1335))
REPRESENTATION_CONTEXT('','3D')
);
#1330=(
GEOMETRIC_REPRESENTATION_CONTEXT(3)
GLOBAL_UNCERTAINTY_ASSIGNED_CONTEXT((#1327))
GLOBAL_UNIT_ASSIGNED_CONTEXT((#1332,#1334,#1335))
REPRESENTATION_CONTEXT('','3D')
);
#1331=(
GEOMETRIC_REPRESENTATION_CONTEXT(3)
GLOBAL_UNCERTAINTY_ASSIGNED_CONTEXT((#1328))
GLOBAL_UNIT_ASSIGNED_CONTEXT((#1332,#1334,#1335))
REPRESENTATION_CONTEXT('','3D')
);
#1332=(
LENGTH_UNIT()
NAMED_UNIT(*)
SI_UNIT(.MILLI.,.METRE.)
);
#1333=(
LENGTH_UNIT()
NAMED_UNIT(*)
SI_UNIT($,.METRE.)
);
#1334=(
NAMED_UNIT(*)
PLANE_ANGLE_UNIT()
SI_UNIT($,.RADIAN.)
);
#1335=(
NAMED_UNIT(*)
SI_UNIT($,.STERADIAN.)
SOLID_ANGLE_UNIT()
);
#1336=SHAPE_DEFINITION_REPRESENTATION(#1338,#1341);
#1337=SHAPE_DEFINITION_REPRESENTATION(#1339,#1342);
#1338=PRODUCT_DEFINITION_SHAPE('',$,#1344);
#1339=PRODUCT_DEFINITION_SHAPE('',$,#1345);
#1340=PRODUCT_DEFINITION_SHAPE($,$,#14);
#1341=SHAPE_REPRESENTATION('',(#784,#867),#1329);
#1342=SHAPE_REPRESENTATION('',(#785),#1330);
#1343=PRODUCT_DEFINITION_CONTEXT('part definition',#1351,'design');
#1344=PRODUCT_DEFINITION('Chassis','Chassis v25',#1346,#1343);
#1345=PRODUCT_DEFINITION('RightYaw (1)','RightYaw (1)',#1347,#1343);
#1346=PRODUCT_DEFINITION_FORMATION('',$,#1353);
#1347=PRODUCT_DEFINITION_FORMATION('',$,#1354);
#1348=PRODUCT_RELATED_PRODUCT_CATEGORY('Chassis v25','Chassis v25',(#1353));
#1349=PRODUCT_RELATED_PRODUCT_CATEGORY('RightYaw (1)','RightYaw (1)',(#1354));
#1350=APPLICATION_PROTOCOL_DEFINITION('international standard',
'automotive_design',2009,#1351);
#1351=APPLICATION_CONTEXT(
'Core Data for Automotive Mechanical Design Process');
#1352=PRODUCT_CONTEXT('part definition',#1351,'mechanical');
#1353=PRODUCT('Chassis','Chassis v25',$,(#1352));
#1354=PRODUCT('RightYaw (1)','RightYaw (1)',$,(#1352));
#1355=PRESENTATION_STYLE_ASSIGNMENT((#1358));
#1356=PRESENTATION_STYLE_ASSIGNMENT((#1359));
#1357=PRESENTATION_STYLE_ASSIGNMENT((#1360));
#1358=SURFACE_STYLE_USAGE(.BOTH.,#1361);
#1359=SURFACE_STYLE_USAGE(.BOTH.,#1362);
#1360=SURFACE_STYLE_USAGE(.BOTH.,#1363);
#1361=SURFACE_SIDE_STYLE('',(#1364));
#1362=SURFACE_SIDE_STYLE('',(#1365));
#1363=SURFACE_SIDE_STYLE('',(#1366));
#1364=SURFACE_STYLE_FILL_AREA(#1367);
#1365=SURFACE_STYLE_FILL_AREA(#1368);
#1366=SURFACE_STYLE_FILL_AREA(#1369);
#1367=FILL_AREA_STYLE('Steel - Satin',(#1370));
#1368=FILL_AREA_STYLE('Aluminum - Satin',(#1371));
#1369=FILL_AREA_STYLE('Opaque(250,182,1)',(#1372));
#1370=FILL_AREA_STYLE_COLOUR('Steel - Satin',#1373);
#1371=FILL_AREA_STYLE_COLOUR('Aluminum - Satin',#1374);
#1372=FILL_AREA_STYLE_COLOUR('Opaque(250,182,1)',#1375);
#1373=COLOUR_RGB('Steel - Satin',0.627450980392157,0.627450980392157,0.627450980392157);
#1374=COLOUR_RGB('Aluminum - Satin',0.96078431372549,0.96078431372549,0.964705882352941);
#1375=COLOUR_RGB('Opaque(250,182,1)',0.980392156862745,0.713725490196078,
0.00392156862745098);
ENDSEC;
END-ISO-10303-21;
